/* XPM */
static char *back_left2[] = {
/* columns rows colors chars-per-pixel */
"128 128 60 1 ",
"  c #00000000",
". c #FF0000A4",
"X c #FF000088",
"o c #FF000070",
"O c #FF000064",
"+ c #FF000058",
"@ c #FF0000A8",
"# c #FF0000E0",
"$ c #FF0000B0",
"% c #FF000098",
"& c #FF00007C",
"* c #FFD40000",
"= c #FFFC4040",
"- c #FF980000",
"; c #FF640000",
": c #FF4C0000",
"> c #FF000040",
", c #FF880000",
"< c #FF700000",
"1 c #FF580000",
"2 c #FF7C7C7C",
"3 c #FFA8A8A8",
"4 c #FF707070",
"5 c #FF2C2C2C",
"6 c #FF383838",
"7 c #FF000000",
"8 c #FF646464",
"9 c #FF545454",
"0 c #FF484848",
"q c #FF202020",
"w c #FFE88C58",
"e c #FF905C34",
"r c #FFB45400",
"t c #FF9C4C00",
"y c #FF6C4824",
"u c #FF543C1C",
"i c #FF403018",
"p c #FFBC7848",
"a c #FFFCB890",
"s c #FFFCA470",
"d c #FFE46C00",
"f c #FFDC8854",
"g c #FFB47044",
"h c #FF744C28",
"j c #FF483818",
"k c #FFF0945C",
"l c #FF9C6038",
"z c #FF8C8C8C",
"x c #FFDCDCDC",
"c c #FFC0C0C0",
"v c #FFD0D0D0",
"b c #FF989898",
"n c #FFFCFCFC",
"m c #FFB4B4B4",
"M c #FFA86840",
"N c #FF00004C",
"B c #FF000034",
"V c #FF00001C",
"C c #FF00002C",
"Z c #FF390900",
/* pixels */
"                                                                                                                                ",
"                                                                                                                                ",
"                                                                                                                                ",
"                                                                                                                                ",
"                                                                                                                                ",
"                                                                                                                                ",
"                                                                                                                                ",
"                                                                                                                                ",
"                                                                                                                                ",
"                                                                                                                                ",
"                                                                                                                                ",
"                                                                                                                                ",
"                                                                                                                                ",
"                                                                                                                                ",
"                                                                                                                                ",
"                                                                                                                                ",
"                                                                                                                                ",
"                                                                                                                                ",
"                                                                                                                                ",
"                                                                                                                                ",
"                                                                                                                                ",
"                                                                                                                                ",
"                                                                                                                                ",
"                                                                                                                                ",
"                                                  ....XXooooOO++                                                                ",
"                                                  ....XXooooOO++                                                                ",
"                                                @@##$$%%&&OO++++++++                                                            ",
"                                                @@##$$%%&&OO++++++++                                                            ",
"                                              **==**--;;::>>>>>>>>>>>>                                                          ",
"                                              **==**--;;::>>>>>>>>>>>>                                                          ",
"                                                @@::,,--,,,,<<<<11111111                                                        ",
"                                                @@::,,--,,,,<<<<11111111                                                        ",
"                                                223344556666665555555577                                                        ",
"                                                223344556666665555555577                                                        ",
"                                              882244889900665555qqqq77                                                          ",
"                                              882244889900665555qqqq77                                                          ",
"                                                    wweerrttyyuuuuiiii                                                          ",
"                                                    wweerrttyyuuuuiiii                                                          ",
"                                                  ppaassddttyyuuuuiiii                                                          ",
"                                                  ppaassddttyyuuuuiiii                                                          ",
"                                                  ppaaffgghhttyyjjii                                                            ",
"                                                  ppaaffgghhttyyjjii                                                            ",
"                                                  ppaaaakkllhhhhhhyy                                                            ",
"                                                  ppaaaakkllhhhhhhyy                                                            ",
"                                                  ppsskk66555577777777                                                          ",
"                                                  ppsskk66555577777777                                                          ",
"                                                      666655557777777777                                                        ",
"                                                      666655557777777777                                                        ",
"                                                      333333zz22224444qq7799                                                    ",
"                                                      333333zz22224444qq7799                                                    ",
"                                                  xxxxcccccccc3333zzzz55776600                                                  ",
"                                                  xxxxcccccccc3333zzzz55776600                                                  ",
"                                                xxxxcc333333333333zz9955776600                                                  ",
"                                                xxxxcc333333333333zz9955776600                                                  ",
"                                              xxxxvvccbb33zzzzzzzz229955qq669900                                                ",
"                                              xxxxvvccbb33zzzzzzzz229955qq669900                                                ",
"                                              nnxxvvcc22zzzzzzzz22995577qq669900                                                ",
"                                              nnxxvvcc22zzzzzzzz22995577qq669900                                                ",
"                                              nnvvvvmm2288222222225577qq66999900                                                ",
"                                              nnvvvvmm2288222222225577qq66999900                                                ",
"                                              xxvvccbb22888888886677qq660099000000                                              ",
"                                              xxvvccbb22888888886677qq660099000000                                              ",
"                                            nnxxcccc2288888800557777qq009999660000                                              ",
"                                            nnxxcccc2288888800557777qq009999660000                                              ",
"                                            nnxxcccc22999900557777qq00009900556600                                              ",
"                                            nnxxcccc22999900557777qq00009900556600                                              ",
"                                            nnxxcccc229966557777550000999900556666                                              ",
"                                            nnxxcccc229966557777550000999900556666                                              ",
"                                            nnmmbbbb22777777qq55666666665566556666                                              ",
"                                            nnmmbbbb22777777qq55666666665566556666                                              ",
"                                            nnmmbbzz9977777777777777777777556666                                                ",
"                                            nnmmbbzz9977777777777777777777556666                                                ",
"                                            xx33bb449977777777777777777777556666                                                ",
"                                            xx33bb449977777777777777777777556666                                                ",
"                                            xxmmbb440066666666666655666666666600                                                ",
"                                            xxmmbb440066666666666655666666666600                                                ",
"                                            aabb224400009999990000000000000066                                                  ",
"                                            aabb224400009999990000000000000066                                                  ",
"                                            kkMMyy00009999999900000000000099                                                    ",
"                                            kkMMyy00009999999900000000000099                                                    ",
"                                            eeeeee99999988999900006600000099                                                    ",
"                                            eeeeee99999988999900006600000099                                                    ",
"                                                zzzz448888999900006600000099                                                    ",
"                                                zzzz448888999900006600000099                                                    ",
"                                                  44448800666666665566666666                                                    ",
"                                                  44448800666666665566666666                                                    ",
"                                                  3333zz22228899000000000000                                                    ",
"                                                  3333zz22228899000000000000                                                    ",
"                                                  333333bbzz22448800999900                                                      ",
"                                                  333333bbzz22448800999900                                                      ",
"                                                  vvccmmbbzz22448800990000                                                      ",
"                                                  vvccmmbbzz22448800990000                                                      ",
"                                                  vvxxmmbbzz224488000000                                                        ",
"                                                  vvxxmmbbzz224488000000                                                        ",
"                                                  vvxxvvbbzz224488006666                                                        ",
"                                                  vvxxvvbbzz224488006666                                                        ",
"                                                  vvxxvv3322448899005566                                                        ",
"                                                  vvxxvv3322448899005566                                                        ",
"                                                  zzxxxxvv3333334400999988                                                      ",
"                                                  zzxxxxvv3333334400999988                                                      ",
"                                                  zzvvxxxxzzzz440000005555                                                      ",
"                                                  zzvvxxxxzzzz440000005555                                                      ",
"                                                    ccvv3333zzzz2288007777                                                      ",
"                                                    ccvv3333zzzz2288007777                                                      ",
"                                                    22ccmm4444449900007777                                                      ",
"                                                    22ccmm4444449900007777                                                      ",
"                                                      8888006655777777777777                                                    ",
"                                                      8888006655777777777777                                                    ",
"                                                      ooNNNNBB77777777777777                                                    ",
"                                                      ooNNNNBB77777777777777                                                    ",
"                                                      ooNNNNBB777777777777qqqq                                                  ",
"                                                      ooNNNNBB777777777777qqqq                                                  ",
"                                                      qqNNNNBB7777777777qqqqqq                                                  ",
"                                                      qqNNNNBB7777777777qqqqqq                                                  ",
"                                                        BBBBBB7777777777qqqqqq                                                  ",
"                                                        BBBBBB7777777777qqqqqq                                                  ",
"                                                        77VVVV77777777qqqqqq                                                    ",
"                                                        77VVVV77777777qqqqqq                                                    ",
"                                                    NNNNOO7777777777qqqqqq                                                      ",
"                                                    NNNNOO7777777777qqqqqq                                                      ",
"                                                  NNNNNNBB777777777777                                                          ",
"                                                  NNNNNNBB777777777777                                                          ",
"                                                  BBBBBBCC777777777777                                                          ",
"                                                  BBBBBBCC777777777777                                                          ",
"                                                    BBCCCC777777777777                                                          ",
"                                                    BBCCCC777777777777                                                          ",
"                                                                                                                                ",
"                                                                                                                                "
};
