/* XPM */
static char *back1[] = {
/* columns rows colors chars-per-pixel */
"128 128 62 1 ",
"  c #00000000",
". c #FF000070",
"X c #FF000064",
"o c #FF000058",
"O c #FF000040",
"+ c #FF000098",
"@ c #FF000088",
"# c #FF00007C",
"$ c #FFFC0000",
"% c #FFA40000",
"& c #FF0000B0",
"* c #FF0000A4",
"= c #FF700000",
"- c #FFFC5C5C",
"; c #FFFC4040",
": c #FFA80000",
"> c #FF980000",
", c #FF880000",
"< c #FF0000A8",
"1 c #FF0000C8",
"2 c #FF2C2C2C",
"3 c #FF383838",
"4 c #FF202020",
"5 c #FF885830",
"6 c #FF484848",
"7 c #FF6C4824",
"8 c #FFCC6000",
"9 c #FFFC8820",
"0 c #FFFC7800",
"q c #FF9C4C00",
"w c #FFA86840",
"e c #FFFCF400",
"r c #FFFCA85C",
"t c #FF80502C",
"y c #FFF0945C",
"u c #FFDC8854",
"i c #FFB47044",
"p c #FF000000",
"a c #FFDCDCDC",
"s c #FFC0C0C0",
"d c #FF989898",
"f c #FFECECEC",
"g c #FF707070",
"h c #FF545454",
"j c #FF646464",
"k c #FFA8A8A8",
"l c #FF7C7C7C",
"z c #FFB4B4B4",
"x c #FF8C8C8C",
"c c #FFD0D0D0",
"v c #FF905C34",
"b c #FF744C28",
"n c #FFFCFCFC",
"m c #FFA0643C",
"M c #FF5C5C5C",
"N c #FF404040",
"B c #FF4C4C4C",
"V c #FF00004C",
"C c #FF000034",
"Z c #FF00001C",
"A c #FF00002C",
"S c #FF390900",
/* pixels */
"                                                                                                                                ",
"                                                                                                                                ",
"                                                                                                                                ",
"                                                                                                                                ",
"                                                                                                                                ",
"                                                                                                                                ",
"                                                                                                                                ",
"                                                                                                                                ",
"                                                                                                                                ",
"                                                                                                                                ",
"                                                                                                                                ",
"                                                                                                                                ",
"                                                                                                                                ",
"                                                                                                                                ",
"                                                                                                                                ",
"                                                                                                                                ",
"                                                                                                                                ",
"                                                                                                                                ",
"                                                                                                                                ",
"                                                                                                                                ",
"                                                                                                                                ",
"                                                                                                                                ",
"                                                                                                                                ",
"                                                                                                                                ",
"                                                                                                                                ",
"                                                                                                                                ",
"                                                          ....XXXXooooooOO                                                      ",
"                                                          ....XXXXooooooOO                                                      ",
"                                                        ++++@@##....XXXXooOO                                                    ",
"                                                        ++++@@##....XXXXooOO                                                    ",
"                                                      $$%%&&****++@@@@..XXXX==                                                  ",
"                                                      $$%%&&****++@@@@..XXXX==                                                  ",
"                                                      %%------;;;;$$::>>,,==OO                                                  ",
"                                                      %%------;;;;$$::>>,,==OO                                                  ",
"                                                        <<11<<######XXXXooOO                                                    ",
"                                                        <<11<<######XXXXooOO                                                    ",
"                                                        22223333332222224444                                                    ",
"                                                        22223333332222224444                                                    ",
"                                                        55223366332222224477                                                    ",
"                                                        55223366332222224477                                                    ",
"                                                        5588999900008888qq77                                                    ",
"                                                        5588999900008888qq77                                                    ",
"                                                          wweeeeeerrrrrrtt                                                      ",
"                                                          wweeeeeerrrrrrtt                                                      ",
"                                                          wwyyyyyyuuuuiitt                                                      ",
"                                                          wwyyyyyyuuuuiitt                                                      ",
"                                                          66663322224444pp                                                      ",
"                                                          66663322224444pp                                                      ",
"                                                        6666663322224444pppppp                                                  ",
"                                                        6666663322224444pppppp                                                  ",
"                                                      aaaaaaaaaaaaaassssdd44pppp                                                ",
"                                                      aaaaaaaaaaaaaassssdd44pppp                                                ",
"                                                  ffffffffffaaaaaaaaaassgg224433hhjj                                            ",
"                                                  ffffffffffaaaaaaaaaassgg224433hhjj                                            ",
"                                                ffffaaaaaaaaaaaaaaaassssgg2222hhkkllgg                                          ",
"                                                ffffaaaaaaaaaaaaaaaassssgg2222hhkkllgg                                          ",
"                                              zzssssffaaaaaaaazzaassssgg2222ggsssskkll                                          ",
"                                              zzssssffaaaaaaaazzaassssgg2222ggsssskkll                                          ",
"                                              zzxxggxxaaaaaaaazzzzssgg2222ggssddssssxxgg                                        ",
"                                              zzxxggxxaaaaaaaazzzzssgg2222ggssddssssxxgg                                        ",
"                                            zzzzkkggssaaaaaaaaxxzzgg2244ggzzkkddccccxxgg                                        ",
"                                            zzzzkkggssaaaaaaaaxxzzgg2244ggzzkkddccccxxgg                                        ",
"                                            zzzzkkhhssaaaaaazzxxggppppggzzkkddggccccxxgg                                        ",
"                                            zzzzkkhhssaaaaaazzxxggppppggzzkkddggccccxxgg                                        ",
"                                            zzzzkkhhxxsssszzzzggppppggzzkkddggddccccddjj                                        ",
"                                            zzzzkkhhxxsssszzzzggppppggzzkkddggddccccddjj                                        ",
"                                            zzkkddjjggxxddggggppppggzzkkddxx66cccccckkxx                                        ",
"                                            zzkkddjjggxxddggggppppggzzkkddxx66cccccckkxx                                        ",
"                                            zzkkddjjhhllgghhpp44hhddddddxxgg33ddcckkkkjj                                        ",
"                                            zzkkddjjhhllgghhpp44hhddddddxxgg33ddcckkkkjj                                        ",
"                                            xxddddgghh66pppp2266jjggjjjjjj6633cccckkddxx                                        ",
"                                            xxddddgghh66pppp2266jjggjjjjjj6633cccckkddxx                                        ",
"                                              xxgggg2244ppppppppppppppppppppppddkkddxxjj                                        ",
"                                              xxgggg2244ppppppppppppppppppppppddkkddxxjj                                        ",
"                                              jjjjjj2244ppppppppppppppppppppppxxkkddllgg                                        ",
"                                              jjjjjj2244ppppppppppppppppppppppxxkkddllgg                                        ",
"                                                xxjjjjllllggggjj33666666666666xxkkddllgg                                        ",
"                                                xxjjjjllllggggjj33666666666666xxkkddllgg                                        ",
"                                                kkjjccffffffcckkkkkkddxxggggjjxxkkxxllgg                                        ",
"                                                kkjjccffffffcckkkkkkddxxggggjjxxkkxxllgg                                        ",
"                                                  ddccffffffffcckkkkddxxllggjjxxkkxxllgg                                        ",
"                                                  ddccffffffffcckkkkddxxllggjjxxkkxxllgg                                        ",
"                                                  ssccffffffffccllkkxxxxllggjjhhvvwwii                                          ",
"                                                  ssccffffffffccllkkxxxxllggjjhhvvwwii                                          ",
"                                                  ssddzzzzzzzzjj66llxxxxllggjjhhiibbii                                          ",
"                                                  ssddzzzzzzzzjj66llxxxxllggjjhhiibbii                                          ",
"                                                  llccnnnnaassllhhhh6666666633  mmii                                            ",
"                                                  llccnnnnaassllhhhh6666666633  mmii                                            ",
"                                                  zzaannnnaassxxlljjMMhhhhMMjj                                                  ",
"                                                  zzaannnnaassxxlljjMMhhhhMMjj                                                  ",
"                                                  zzaannnnaassxxlljjMMhhhhMMjj                                                  ",
"                                                  zzaannnnaassxxlljjMMhhhhMMjj                                                  ",
"                                                  zzaannnnaassxxlljjMMhhhhMMjj                                                  ",
"                                                  zzaannnnaassxxlljjMMhhhhMMjj                                                  ",
"                                                  zzaannnnaassxxlljjMMhhhhMM66                                                  ",
"                                                  zzaannnnaassxxlljjMMhhhhMM66                                                  ",
"                                                  ddccffzzddzzxxllhh3333NN66jj                                                  ",
"                                                  ddccffzzddzzxxllhh3333NN66jj                                                  ",
"                                                  ccffzznnnnnnjjll66hhBBBBhh66                                                  ",
"                                                  ccffzznnnnnnjjll66hhBBBBhh66                                                  ",
"                                                  ccaaccccccccxxjj663333NN66jj                                                  ",
"                                                  ccaaccccccccxxjj663333NN66jj                                                  ",
"                                                  xxllkkssssxxggllhhhhhhhhhh66                                                  ",
"                                                  xxllkkssssxxggllhhhhhhhhhh66                                                  ",
"                                                  llssnnnnnnzzxxjj6666666666                                                    ",
"                                                  llssnnnnnnzzxxjj6666666666                                                    ",
"                                                    ssccddlljjhh66pp4444pp44                                                    ",
"                                                    ssccddlljjhh66pp4444pp44                                                    ",
"                                                    ll66VVVVpppp44pppppppppp                                                    ",
"                                                    ll66VVVVpppp44pppppppppp                                                    ",
"                                                    VVVVCCCCCCpppppppppppppp                                                    ",
"                                                    VVVVCCCCCCpppppppppppppp                                                    ",
"                                                    CCCCOOOOOOpppppppppppppp                                                    ",
"                                                    CCCCOOOOOOpppppppppppppp                                                    ",
"                                                    CCppZZZZCCpppppppppppp                                                      ",
"                                                    CCppZZZZCCpppppppppppp                                                      ",
"                                                      ppppppCCpppppppppppp                                                      ",
"                                                      ppppppCCpppppppppppp                                                      ",
"                                                      ppVVOOOOCCpppppppppp                                                      ",
"                                                      ppVVOOOOCCpppppppppp                                                      ",
"                                                      ppOOOOOOCCpppppppp                                                        ",
"                                                      ppOOOOOOCCpppppppp                                                        ",
"                                                    VVCCAAAAAApppp                                                              ",
"                                                    VVCCAAAAAApppp                                                              ",
"                                                    VVCC4444444444                                                              ",
"                                                    VVCC4444444444                                                              ",
"                                                      4444444444                                                                ",
"                                                      4444444444                                                                "
};
