/* XPM */
static char *back4[] = {
/* columns rows colors chars-per-pixel */
"128 128 60 1 ",
"  c #00000000",
". c #FF000070",
"X c #FF000064",
"o c #FF000058",
"O c #FF000040",
"+ c #FF000098",
"@ c #FF000088",
"# c #FF00007C",
"$ c #FFFC0000",
"% c #FFA40000",
"& c #FF0000B0",
"* c #FF0000A4",
"= c #FF700000",
"- c #FFFC5C5C",
"; c #FFFC4040",
": c #FFA80000",
"> c #FF980000",
", c #FF880000",
"< c #FF0000A8",
"1 c #FF0000C8",
"2 c #FF2C2C2C",
"3 c #FF383838",
"4 c #FF202020",
"5 c #FF885830",
"6 c #FF484848",
"7 c #FF6C4824",
"8 c #FFCC6000",
"9 c #FFFC8820",
"0 c #FFFC7800",
"q c #FF9C4C00",
"w c #FFA86840",
"e c #FFFCF400",
"r c #FFFCA85C",
"t c #FF80502C",
"y c #FFF0945C",
"u c #FFDC8854",
"i c #FFB47044",
"p c #FF000000",
"a c #FFB4B4B4",
"s c #FFC0C0C0",
"d c #FF989898",
"f c #FF646464",
"g c #FFD0D0D0",
"h c #FFDCDCDC",
"j c #FFFCFCFC",
"k c #FFECECEC",
"l c #FF545454",
"z c #FF8C8C8C",
"x c #FF707070",
"c c #FF7C7C7C",
"v c #FFA8A8A8",
"b c #FFFC9C60",
"n c #FFA0643C",
"m c #FFD08050",
"M c #FFBC7848",
"N c #FFFCB080",
"B c #FF00002C",
"V c #FF00001C",
"C c #FF000034",
"Z c #FF390900",
/* pixels */
"                                                                                                                                ",
"                                                                                                                                ",
"                                                                                                                                ",
"                                                                                                                                ",
"                                                                                                                                ",
"                                                                                                                                ",
"                                                                                                                                ",
"                                                                                                                                ",
"                                                                                                                                ",
"                                                                                                                                ",
"                                                                                                                                ",
"                                                                                                                                ",
"                                                                                                                                ",
"                                                                                                                                ",
"                                                                                                                                ",
"                                                                                                                                ",
"                                                                                                                                ",
"                                                                                                                                ",
"                                                                                                                                ",
"                                                                                                                                ",
"                                                                                                                                ",
"                                                                                                                                ",
"                                                                                                                                ",
"                                                                                                                                ",
"                                                        ....XXXXooooooOO                                                        ",
"                                                        ....XXXXooooooOO                                                        ",
"                                                      ++++@@##....XXXXooOO                                                      ",
"                                                      ++++@@##....XXXXooOO                                                      ",
"                                                    $$%%&&****++@@@@..XXXX==                                                    ",
"                                                    $$%%&&****++@@@@..XXXX==                                                    ",
"                                                    %%------;;;;$$::>>,,==OO                                                    ",
"                                                    %%------;;;;$$::>>,,==OO                                                    ",
"                                                    %%<<11<<######XXXXooOOOO                                                    ",
"                                                    %%<<11<<######XXXXooOOOO                                                    ",
"                                                      22223333332222224444                                                      ",
"                                                      22223333332222224444                                                      ",
"                                                      55223366332222224477                                                      ",
"                                                      55223366332222224477                                                      ",
"                                                      5588999900008888qq77                                                      ",
"                                                      5588999900008888qq77                                                      ",
"                                                      55wweeeeeerrrrrrtt77                                                      ",
"                                                      55wweeeeeerrrrrrtt77                                                      ",
"                                                        wwyyyyyyuuuuiitt                                                        ",
"                                                        wwyyyyyyuuuuiitt                                                        ",
"                                                        66663322224444pp                                                        ",
"                                                        66663322224444pp                                                        ",
"                                                      6666663322224444pppp                                                      ",
"                                                      6666663322224444pppp                                                      ",
"                                                    aassssssssssaaaaaaddffpp22ff                                                ",
"                                                    aassssssssssaaaaaaddffpp22ff                                                ",
"                                                gghhjjjjjjjjkkkkkkhhhhssll4444dddd                                              ",
"                                                gghhjjjjjjjjkkkkkkhhhhssll4444dddd                                              ",
"                                              gghhkkjjjjjjjjjjhhhhhhsszz334433ddssdd                                            ",
"                                              gghhkkjjjjjjjjjjhhhhhhsszz334433ddssdd                                            ",
"                                              kkssjjjjjjhhhhhhggaaggdd334433xxaajjsscc                                          ",
"                                              kkssjjjjjjhhhhhhggaaggdd334433xxaajjsscc                                          ",
"                                            jjggcczzjjhhhhhhggaazzddll4422xxzzllzzggcc                                          ",
"                                            jjggcczzjjhhhhhhggaazzddll4422xxzzllzzggcc                                          ",
"                                            jjggddccjjhhhhhhssvvccll22ppffaadd33llggdd                                          ",
"                                            jjggddccjjhhhhhhssvvccll22ppffaadd33llggdd                                          ",
"                                            ggaaddccsshhssvvccff33ppppffaaaadd66xxggdd                                          ",
"                                            ggaaddccsshhssvvccff33ppppffaaaadd66xxggdd                                          ",
"                                            kkggvvccvvvvvvccff33pp44llaaaaddccllzzggdd                                          ",
"                                            kkggvvccvvvvvvccff33pp44llaaaaddccllzzggdd                                          ",
"                                            jjkkaaccxxddddcc334444llcczzzzcc66ffvvggdd                                          ",
"                                            jjkkaaccxxddddcc334444llcczzzzcc66ffvvggdd                                          ",
"                                            jjkkgg6666xxxx66334433llcczzzzff33xxvvggdd                                          ",
"                                            jjkkgg6666xxxx66334433llcczzzzff33xxvvggdd                                          ",
"                                            jjkkaa66446633444433llffzzllff6644llzzaadd                                          ",
"                                            jjkkaa66446633444433llffzzllff6644llzzaadd                                          ",
"                                            ggaaaa664444444444pppppppppppppp4433zzzzzz                                          ",
"                                            ggaaaa664444444444pppppppppppppp4433zzzzzz                                          ",
"                                            ggaavvxx4444444444pppppppppppppp44llxxzzzz                                          ",
"                                            ggaavvxx4444444444pppppppppppppp44llxxzzzz                                          ",
"                                            ggaavvxx33xxddddzzxx66ffllll666666llxxzzzz                                          ",
"                                            ggaavvxx33xxddddzzxx66ffllll666666llxxzzzz                                          ",
"                                            ggaazzllxxsshhkkkkkkaazzccxxffll6633xxzzzz                                          ",
"                                            ggaazzllxxsshhkkkkkkaazzccxxffll6633xxzzzz                                          ",
"                                            ggaazzllddhhkkjjjjkkaazzccxxffll6633ffzzzz                                          ",
"                                            ggaazzllddhhkkjjjjkkaazzccxxffll6633ffzzzz                                          ",
"                                            bbaazzllddhhkkjjjjkkzzzzccxxffll663366ffnn                                          ",
"                                            bbaazzllddhhkkjjjjkkzzzzccxxffll663366ffnn                                          ",
"                                            bbmmMMllddhhkkjjjjkkffzzccxxffll6633uuMMnn                                          ",
"                                            bbmmMMllddhhkkjjjjkkffzzccxxffll6633uuMMnn                                          ",
"                                              NNMMxxddddddccccff3333666666666633uuMM                                            ",
"                                              NNMMxxddddddccccff3333666666666633uuMM                                            ",
"                                                  ddaaaaddzzffll66llllllllll6666                                                ",
"                                                  ddaaaaddzzffll66llllllllll6666                                                ",
"                                                  aakkggddzzxxll66llllllllll6666                                                ",
"                                                  aakkggddzzxxll66llllllllll6666                                                ",
"                                                  ggkkggddzzxxll6666llllll666666                                                ",
"                                                  ggkkggddzzxxll6666llllll666666                                                ",
"                                                  ggkkggddzzxxll6666llllll666666                                                ",
"                                                  ggkkggddzzxxll6666llllll666666                                                ",
"                                                  ggkkggddzzxxll66llll3333333366                                                ",
"                                                  ggkkggddzzxxll66llll3333333366                                                ",
"                                                  ggkkggddzzxxll66ffff66666666                                                  ",
"                                                  ggkkggddzzxxll66ffff66666666                                                  ",
"                                                ddkkkkggvvzzxxxxllff663333333366                                                ",
"                                                ddkkkkggvvzzxxxxllff663333333366                                                ",
"                                                ddkkddxxxxllll6666ccffffllll6666                                                ",
"                                                ddkkddxxxxllll6666ccffffllll6666                                                ",
"                                                zzcckkkkvvzzccll33xx666666666666                                                ",
"                                                zzcckkkkvvzzccll33xx666666666666                                                ",
"                                                zzzzddddzzzzccll3333pppppppppp66                                                ",
"                                                zzzzddddzzzzccll3333pppppppppp66                                                ",
"                                                  66ccxxffllll6633pppppppppppppp                                                ",
"                                                  66ccxxffllll6633pppppppppppppp                                                ",
"                                                  OO2233333322pp33pppppppppppppp                                                ",
"                                                  OO2233333322pp33pppppppppppppp                                                ",
"                                                  OOBBBBVVpppppp  BBpppppppppppp                                                ",
"                                                  OOBBBBVVpppppp  BBpppppppppppp                                                ",
"                                                  OOCCBBVVpppppp  BBpppppppppp                                                  ",
"                                                  OOCCBBVVpppppp  BBpppppppppp                                                  ",
"                                                  OOOOOOBBVVpppp    pppppppppppp                                                ",
"                                                  OOOOOOBBVVpppp    pppppppppppp                                                ",
"                                                    pppppppppp    BBpppppppppppp                                                ",
"                                                    pppppppppp    BBpppppppppppp                                                ",
"                                                  OOOOpppppppppp  BB4444444444pp                                                ",
"                                                  OOOOpppppppppp  BB4444444444pp                                                ",
"                                                  OOCCVVpppppppp  444444444444pp                                                ",
"                                                  OOCCVVpppppppp  444444444444pp                                                ",
"                                                  44CCVVVVpppppp    4444444444                                                  ",
"                                                  44CCVVVVpppppp    4444444444                                                  ",
"                                                    CCCCpppppp                                                                  ",
"                                                    CCCCpppppp                                                                  ",
"                                                                                                                                ",
"                                                                                                                                "
};
