/* XPM */
static char *back_left4[] = {
/* columns rows colors chars-per-pixel */
"128 128 59 1 ",
"  c #00000000",
". c #FF0000A4",
"X c #FF000088",
"o c #FF000070",
"O c #FF000064",
"+ c #FF000058",
"@ c #FF0000A8",
"# c #FF0000E0",
"$ c #FF0000B0",
"% c #FF000098",
"& c #FF00007C",
"* c #FFD40000",
"= c #FFFC4040",
"- c #FF980000",
"; c #FF640000",
": c #FF4C0000",
"> c #FF000040",
", c #FF880000",
"< c #FF700000",
"1 c #FF580000",
"2 c #FF7C7C7C",
"3 c #FFA8A8A8",
"4 c #FF707070",
"5 c #FF2C2C2C",
"6 c #FF383838",
"7 c #FF000000",
"8 c #FF646464",
"9 c #FF545454",
"0 c #FF484848",
"q c #FF202020",
"w c #FFE88C58",
"e c #FF905C34",
"r c #FFB45400",
"t c #FF9C4C00",
"y c #FF6C4824",
"u c #FF543C1C",
"i c #FF403018",
"p c #FFBC7848",
"a c #FFFCB890",
"s c #FFFCA470",
"d c #FFE46C00",
"f c #FFDC8854",
"g c #FFB47044",
"h c #FF744C28",
"j c #FF483818",
"k c #FFF0945C",
"l c #FF9C6038",
"z c #FF8C8C8C",
"x c #FFDCDCDC",
"c c #FFC0C0C0",
"v c #FFD0D0D0",
"b c #FF989898",
"n c #FFFCFCFC",
"m c #FFB4B4B4",
"M c #FF4C4C4C",
"N c #FFA86840",
"B c #FF343434",
"V c #FF404040",
"C c #FF390900",
/* pixels */
"                                                                                                                                ",
"                                                                                                                                ",
"                                                                                                                                ",
"                                                                                                                                ",
"                                                                                                                                ",
"                                                                                                                                ",
"                                                                                                                                ",
"                                                                                                                                ",
"                                                                                                                                ",
"                                                                                                                                ",
"                                                                                                                                ",
"                                                                                                                                ",
"                                                                                                                                ",
"                                                                                                                                ",
"                                                                                                                                ",
"                                                                                                                                ",
"                                                                                                                                ",
"                                                                                                                                ",
"                                                                                                                                ",
"                                                                                                                                ",
"                                                                                                                                ",
"                                                                                                                                ",
"                                                                                                                                ",
"                                                                                                                                ",
"                                                  ....XXooooOO++                                                                ",
"                                                  ....XXooooOO++                                                                ",
"                                                @@##$$%%&&OO++++++++                                                            ",
"                                                @@##$$%%&&OO++++++++                                                            ",
"                                              **==**--;;::>>>>>>>>>>>>                                                          ",
"                                              **==**--;;::>>>>>>>>>>>>                                                          ",
"                                                @@::,,--,,,,<<<<11111111                                                        ",
"                                                @@::,,--,,,,<<<<11111111                                                        ",
"                                                223344556666665555555577                                                        ",
"                                                223344556666665555555577                                                        ",
"                                              882244889900665555qqqq77                                                          ",
"                                              882244889900665555qqqq77                                                          ",
"                                                    wweerrttyyuuuuiiii                                                          ",
"                                                    wweerrttyyuuuuiiii                                                          ",
"                                                  ppaassddttyyuuuuiiii                                                          ",
"                                                  ppaassddttyyuuuuiiii                                                          ",
"                                                  ppaaffgghhttyyjjii                                                            ",
"                                                  ppaaffgghhttyyjjii                                                            ",
"                                                  ppaaaakkllhhhhhhyy                                                            ",
"                                                  ppaaaakkllhhhhhhyy                                                            ",
"                                                  ppsskk66555577777777                                                          ",
"                                                  ppsskk66555577777777                                                          ",
"                                                      666655557777777777                                                        ",
"                                                      666655557777777777                                                        ",
"                                                      333333zz22224444qq7799                                                    ",
"                                                      333333zz22224444qq7799                                                    ",
"                                                  xxxxcccccccc3333zzzz55776600                                                  ",
"                                                  xxxxcccccccc3333zzzz55776600                                                  ",
"                                                xxxxcc333333333333zz9955776600                                                  ",
"                                                xxxxcc333333333333zz9955776600                                                  ",
"                                              xxxxvvccbb33zzzzzzzz229955qq669900                                                ",
"                                              xxxxvvccbb33zzzzzzzz229955qq669900                                                ",
"                                              nnxxvvcc22zzzzzzzz22995577qq669900                                                ",
"                                              nnxxvvcc22zzzzzzzz22995577qq669900                                                ",
"                                              nnvvvvmm2288222222225577qq66999900                                                ",
"                                              nnvvvvmm2288222222225577qq66999900                                                ",
"                                              xxvvccbb22888888886677qq660099000000                                              ",
"                                              xxvvccbb22888888886677qq660099000000                                              ",
"                                            nnxxcccc2288888800557777qq009999660000                                              ",
"                                            nnxxcccc2288888800557777qq009999660000                                              ",
"                                            nnxxcccc22999900557777qq00009900556600                                              ",
"                                            nnxxcccc22999900557777qq00009900556600                                              ",
"                                            nnxxcccc229966557777550000999900556666                                              ",
"                                            nnxxcccc229966557777550000999900556666                                              ",
"                                            nnmmbbbb22777777qq55666666665566556666                                              ",
"                                            nnmmbbbb22777777qq55666666665566556666                                              ",
"                                            nnmmbbzz9977777777777777777777556666                                                ",
"                                            nnmmbbzz9977777777777777777777556666                                                ",
"                                            xx33bb449977777777777777777777556666                                                ",
"                                            xx33bb449977777777777777777777556666                                                ",
"                                            xxmmbb440066666666666655666666666600                                                ",
"                                            xxmmbb440066666666666655666666666600                                                ",
"                                            aabb224400009999MM0000000000MMMM66                                                  ",
"                                            aabb224400009999MM0000000000MMMM66                                                  ",
"                                            kkNNyy0000888899MM0000000000MMMM                                                    ",
"                                            kkNNyy0000888899MM0000000000MMMM                                                    ",
"                                            eeeeee9999448899MM000066000000MM                                                    ",
"                                            eeeeee9999448899MM000066000000MM                                                    ",
"                                                zzzz44448899MM000066000000MM                                                    ",
"                                                zzzz44448899MM000066000000MM                                                    ",
"                                                xxxxbb22889900006655BBVV0000                                                    ",
"                                                xxxxbb22889900006655BBVV0000                                                    ",
"                                              xxxxxxbbzz2288990000VVBBBBBB                                                      ",
"                                              xxxxxxbbzz2288990000VVBBBBBB                                                      ",
"                                              xxxxccbbzz4488999900666666VV                                                      ",
"                                              xxxxccbbzz4488999900666666VV                                                      ",
"                                              xxccmmzzzz4499990000666666VV                                                      ",
"                                              xxccmmzzzz4499990000666666VV                                                      ",
"                                            xxccbbbbzz2288990000BBBB6666VV                                                      ",
"                                            xxccbbbbzz2288990000BBBB6666VV                                                      ",
"                                            xx33xx33mmmm22996666BBBB6666VV                                                      ",
"                                            xx33xx33mmmm22996666BBBB6666VV                                                      ",
"                                            xxxx33vvbbbbzz449900BBBB6666VV                                                      ",
"                                            xxxx33vvbbbbzz449900BBBB6666VV                                                      ",
"                                            xx33vvbbbb4444999999BBBBBB66VV                                                      ",
"                                            xx33vvbbbb4444999999BBBBBB66VV                                                      ",
"                                            mm33vvbb4400557777776666BBVVVV                                                      ",
"                                            mm33vvbb4400557777776666BBVVVV                                                      ",
"                                              mm334400557777777777555555                                                        ",
"                                              mm334400557777777777555555                                                        ",
"                                                444455777777777777777766                                                        ",
"                                                444455777777777777777766                                                        ",
"                                                    77777777777777777777VV                                                      ",
"                                                    77777777777777777777VV                                                      ",
"                                                    77777777777777qqqqqqVV                                                      ",
"                                                    77777777777777qqqqqqVV                                                      ",
"                                                      777777777777qqqqqq77                                                      ",
"                                                      777777777777qqqqqq77                                                      ",
"                                                          777777qqqqqqqq77                                                      ",
"                                                          777777qqqqqqqq77                                                      ",
"                                                          777777qqqqqq7777                                                      ",
"                                                          777777qqqqqq7777                                                      ",
"                                                          7777qqqqqqqq7777                                                      ",
"                                                          7777qqqqqqqq7777                                                      ",
"                                                          7777qqqqqq777777                                                      ",
"                                                          7777qqqqqq777777                                                      ",
"                                                        777777qqqqqq77777777                                                    ",
"                                                        777777qqqqqq77777777                                                    ",
"                                                        77777777777777777777                                                    ",
"                                                        77777777777777777777                                                    ",
"                                                          777777777777777777                                                    ",
"                                                          777777777777777777                                                    ",
"                                                                                                                                ",
"                                                                                                                                "
};
