/* XPM */
static char *front_left3[] = {
/* columns rows colors chars-per-pixel */
"128 128 64 1 ",
"  c #00000000",
". c #FF0000E0",
"X c #FF0000B0",
"o c #FF00007C",
"O c #FF000064",
"+ c #FF000058",
"@ c #FF00004C",
"# c #FF000040",
"$ c #FF4C0000",
"% c #FF880000",
"& c #FFFC4040",
"* c #FFFC2020",
"= c #FFD40000",
"- c #FFA40000",
"; c #FF545454",
": c #FF707070",
"> c #FF000000",
", c #FF383838",
"< c #FF2C2C2C",
"1 c #FF202020",
"2 c #FF484848",
"3 c #FFE46C00",
"4 c #FFB47044",
"5 c #FFA0643C",
"6 c #FF4040FC",
"7 c #FF000088",
"8 c #FF9C6038",
"9 c #FF6C4824",
"0 c #FF0000A8",
"q c #FFFCA85C",
"w c #FFFCA470",
"e c #FFDC8854",
"r c #FF885830",
"t c #FFC87C4C",
"y c #FFFCFC54",
"u c #FFFC9C60",
"i c #FFBC7848",
"p c #FFA86840",
"a c #FFFCB080",
"s c #FFE88C58",
"d c #FFFCC4A4",
"f c #FFD08050",
"g c #FF80502C",
"h c #FF646464",
"j c #FF543C1C",
"k c #FF7C7C7C",
"l c #FFDCDCDC",
"z c #FFECECEC",
"x c #FFA8A8A8",
"c c #FF8C8C8C",
"v c #FF403018",
"b c #FFFCFCFC",
"n c #FFC0C0C0",
"m c #FF989898",
"M c #FFD0D0D0",
"N c #FFB4B4B4",
"B c #FF905C34",
"V c #FFFCB890",
"C c #FFFCCCB0",
"Z c #FF5C5C5C",
"A c #FF00002C",
"S c #FF000034",
"D c #FF00001C",
"F c #FF390900",
/* pixels */
"                                                                                                                                ",
"                                                                                                                                ",
"                                                                                                                                ",
"                                                                                                                                ",
"                                                                                                                                ",
"                                                                                                                                ",
"                                                                                                                                ",
"                                                                                                                                ",
"                                                                                                                                ",
"                                                                                                                                ",
"                                                                                                                                ",
"                                                                                                                                ",
"                                                                                                                                ",
"                                                                                                                                ",
"                                                                                                                                ",
"                                                                                                                                ",
"                                                                                                                                ",
"                                                                                                                                ",
"                                                                                                                                ",
"                                                                                                                                ",
"                                                                                                                                ",
"                                                                                                                                ",
"                                                                                                                                ",
"                                                                                                                                ",
"                                                                                                                                ",
"                                                                                                                                ",
"                                                                                                                                ",
"                                                                                                                                ",
"                                                                                                                                ",
"                                                                                                                                ",
"                                                                      ..XXXXooooOOOO                                            ",
"                                                                      ..XXXXooooOOOO                                            ",
"                                                                  ....XXXXooOOOO++@@@@                                          ",
"                                                                  ....XXXXooOOOO++@@@@                                          ",
"                                                                ..XXoooo####$$$$$$$$$$$$                                        ",
"                                                                ..XXoooo####$$$$$$$$$$$$                                        ",
"                                                              %%&&&&**==--%%$$;;::;;@@                                          ",
"                                                              %%&&&&**==--%%$$;;::;;@@                                          ",
"                                                              >>,,,,,,,,<<<<<<11>>>>>><<                                        ",
"                                                              >>,,,,,,,,<<<<<<11>>>>>><<                                        ",
"                                                                ,,;;22,,,,<<>>>>>>>>>>>>                                        ",
"                                                                ,,;;22,,,,<<>>>>>>>>>>>>                                        ",
"                                                                  333344556677889900                                            ",
"                                                                  333344556677889900                                            ",
"                                                                  qqqqww44ee444444rr                                            ",
"                                                                  qqqqww44ee444444rr                                            ",
"                                                                  ttyyeeuuiipp55rr99                                            ",
"                                                                  ttyyeeuuiipp55rr99                                            ",
"                                                                >>ttaaaassiiddwwffgg                                            ",
"                                                                >>ttaaaassiiddwwffgg                                            ",
"                                                            ,,>>>>>>ttaasssspp5555gg                                            ",
"                                                            ,,>>>>>>ttaasssspp5555gg                                            ",
"                                                          hh,,,,>>>>>>>>44ggjj>>kk                                              ",
"                                                          hh,,,,>>>>>>>>44ggjj>>kk                                              ",
"                                                        llzzxxhh,,11cchh>>99vv>>hhhh                                            ",
"                                                        llzzxxhh,,11cchh>>99vv>>hhhh                                            ",
"                                                      bbbbbbzzxxkk,,>>>>>>>>::22hh::                                            ",
"                                                      bbbbbbzzxxkk,,>>>>>>>>::22hh::                                            ",
"                                                      bbbbbbbbnnxxkk11>>>>22hh::kkkk;;                                          ",
"                                                      bbbbbbbbnnxxkk11>>>>22hh::kkkk;;                                          ",
"                                                    bbbbbbbbbbbbmmMMkk2211>>;;ccmmkkhh                                          ",
"                                                    bbbbbbbbbbbbmmMMkk2211>>;;ccmmkkhh                                          ",
"                                                    bbMMMMbbbbMMccMMxx::22>>>>cckkkkhh                                          ",
"                                                    bbMMMMbbbbMMccMMxx::22>>>>cckkkkhh                                          ",
"                                                    bbbbMMMMMMMMccxxxxkkhh11>>22kk;;hh                                          ",
"                                                    bbbbMMMMMMMMccxxxxkkhh11>>22kk;;hh                                          ",
"                                                  bbMMMMMMNNccccmmmmmmcccc22<<>>hh;;hhhh                                        ",
"                                                  bbMMMMMMNNccccmmmmmmcccc22<<>>hh;;hhhh                                        ",
"                                                  MMbbbbMMbbbbbbnnNNkkkkkkhh<<1122hhBBffff                                      ",
"                                                  MMbbbbMMbbbbbbnnNNkkkkkkhh<<1122hhBBffff                                      ",
"                                                  MMbbMMbbbbbbbbbbbbbbbbVVVVss11;;hhppppffBB                                    ",
"                                                  MMbbMMbbbbbbbbbbbbbbbbVVVVss11;;hhppppffBB                                    ",
"                                                    MMMMMMMMllllllllllVVVVCCsspp;;;;55iiiiBB                                    ",
"                                                    MMMMMMMMllllllllllVVVVCCsspp;;;;55iiiiBB                                    ",
"                                                      NNMMMMccccxxxxxxVVVVCCsspp                                                ",
"                                                      NNMMMMccccxxxxxxVVVVCCsspp                                                ",
"                                                      kkhhkkccccccccccVVVVCCsspp                                                ",
"                                                      kkhhkkccccccccccVVVVCCsspp                                                ",
"                                                      NNmm::hhhhhhhhhhhhttttpphh                                                ",
"                                                      NNmm::hhhhhhhhhhhhttttpphh                                                ",
"                                                    nnnncckk::::hhhhhh::hh::::::::                                              ",
"                                                    nnnncckk::::hhhhhh::hh::::::::                                              ",
"                                                    mmnncckkkk::hhhhhh;;22hhhhZZZZ                                              ",
"                                                    mmnncckkkk::hhhhhh;;22hhhhZZZZ                                              ",
"                                                    nnmmmmcckkhh;;;;;;2222::::::ZZ                                              ",
"                                                    nnmmmmcckkhh;;;;;;2222::::::ZZ                                              ",
"                                                  NNbbMMnncckk::hhhhhh;;hh::::::::                                              ",
"                                                  NNbbMMnncckk::hhhhhh;;hh::::::::                                              ",
"                                                  NNbbMMNNmm::::hhhhhh;;hh::::::::kk                                            ",
"                                                  NNbbMMNNmm::::hhhhhh;;hh::::::::kk                                            ",
"                                                  bbbbMMNNmmkk::hhhh;;;;hh::::::::kk                                            ",
"                                                  bbbbMMNNmmkk::hhhh;;;;hh::::::::kk                                            ",
"                                                NNbbllMMNNkkkkhhhhhh;;hhhh::::::::kk                                            ",
"                                                NNbbllMMNNkkkkhhhhhh;;hhhh::::::::kk                                            ",
"                                              NNbbbbNNNNmmkk::hhhh;;hhhhhhhh::::::::kk                                          ",
"                                              NNbbbbNNNNmmkk::hhhh;;hhhhhhhh::::::::kk                                          ",
"                                              llmmbbNNmmmm::hhhhhh;;hhhhhhhh::::::::kk                                          ",
"                                              llmmbbNNmmmm::hhhhhh;;hhhhhhhh::::::::kk                                          ",
"                                            xxbbbbbbxxkkkkhhhhhh;;  ::hhhhhhhhkk::::kk                                          ",
"                                            xxbbbbbbxxkkkkhhhhhh;;  ::hhhhhhhhkk::::kk                                          ",
"                                            >>hhNNNNmmkkkkhhhh;;    ::::hh::kkkk::::::kk                                        ",
"                                            >>hhNNNNmmkkkkhhhh;;    ::::hh::kkkk::::::kk                                        ",
"                                            @@<<hh::hhhhhh;;;;      ::::hh::::hh::::hh::                                        ",
"                                            @@<<hh::hhhhhh;;;;      ::::hh::::hh::::hh::                                        ",
"                                          @@@@AA<<,,;;hhhh;;;;        ;;;;hhhhhhhhhhhhZZ                                        ",
"                                          @@@@AA<<,,;;hhhh;;;;        ;;;;hhhhhhhhhhhhZZ                                        ",
"                                      @@@@SS@@AA>>>>>>>>>>            ::hhhhhhhhhhhhhhZZ                                        ",
"                                      @@@@SS@@AA>>>>>>>>>>            ::hhhhhhhhhhhhhhZZ                                        ",
"                                      @@##AA##AA>>>>>>>>              <<<<,,22hhhh22,,<<                                        ",
"                                      @@##AA##AA>>>>>>>>              <<<<,,22hhhh22,,<<                                        ",
"                                      @@##AA>>##AA>>                    DDAASSDD>>>>>>>>                                        ",
"                                      @@##AA>>##AA>>                    DDAASSDD>>>>>>>>                                        ",
"                                      @@SS##DD>>>>>>                    DDAASSAADD>>>>>>                                        ",
"                                      @@SS##DD>>>>>>                    DDAASSAADD>>>>>>                                        ",
"                                      SSSS>>>>>>>>                        DDSSSSDD>>>>>>                                        ",
"                                      SSSS>>>>>>>>                        DDSSSSDD>>>>>>                                        ",
"                                      >>SSSSSSSSAADD                      DDSSSSAAAA>>>>                                        ",
"                                      >>SSSSSSSSAADD                      DDSSSSAAAA>>>>                                        ",
"                                      >>>>SSAADDDD>>>>                      >>>>>>>>>>                                          ",
"                                      >>>>SSAADDDD>>>>                      >>>>>>>>>>                                          ",
"                                        >>>>DDDDDD>>>>                    DDAAAADDDD>>>>                                        ",
"                                        >>>>DDDDDD>>>>                    DDAAAADDDD>>>>                                        ",
"                                                                          DDSSSSAAAADD>>>>>>                                    ",
"                                                                          DDSSSSAAAADD>>>>>>                                    ",
"                                                                          DDSSAAAAAADDDD>>>>>>                                  ",
"                                                                          DDSSAAAAAADDDD>>>>>>                                  ",
"                                                                              DDAAAAAADDDD>>>>                                  ",
"                                                                              DDAAAAAADDDD>>>>                                  "
};
