/* XPM */
static char *front_right2[] = {
/* columns rows colors chars-per-pixel */
"128 128 69 1 ",
"  c #00000000",
". c #FF00007C",
"X c #FF000064",
"o c #FF00004C",
"O c #FFFC5C5C",
"+ c #FFFC2020",
"@ c #FFC80000",
"# c #FFA40000",
"$ c #FF580000",
"% c #FF545454",
"& c #FF646464",
"* c #FF484848",
"= c #FF880000",
"- c #FF7C0000",
"; c #FF000000",
": c #FFA8A8A8",
"> c #FFFCFCFC",
", c #FF707070",
"< c #FF383838",
"1 c #FF2C2C2C",
"2 c #FF0000A8",
"3 c #FF6C4824",
"4 c #FFA0643C",
"5 c #FF4040FC",
"6 c #FF000088",
"7 c #FFBC7848",
"8 c #FF9C4C00",
"9 c #FF905C34",
"0 c #FF403018",
"q c #FFF0945C",
"w c #FFC87C4C",
"e c #FFFCB890",
"r c #FFFCB080",
"t c #FF5C4020",
"y c #FFDC8854",
"u c #FFFC9C60",
"i c #FFFCA470",
"p c #FFE88C58",
"a c #FF9C6038",
"s c #FF80502C",
"d c #FFFCCCB0",
"f c #FFFCD4BC",
"g c #FF885830",
"h c #FF543C1C",
"j c #FFB47044",
"k c #FF989898",
"l c #FF8C8C8C",
"z c #FFD0D0D0",
"x c #FF28200C",
"c c #FFDCDCDC",
"v c #FFB4B4B4",
"b c #FF7C7C7C",
"n c #FFC0C0C0",
"m c #FFFCBC9C",
"M c #FF202020",
"N c #FFFCFC54",
"B c #FFFCA85C",
"V c #FFA86840",
"C c #FFFC7800",
"Z c #FFA85400",
"A c #FFD08050",
"S c #FFECECEC",
"D c #FF000034",
"F c #FF000040",
"G c #FF00002C",
"H c #FF00001C",
"J c #FF000070",
"K c #FF000058",
"L c #FF390900",
/* pixels */
"                                                                                                                                ",
"                                                                                                                                ",
"                                                                                                                                ",
"                                                                                                                                ",
"                                                                                                                                ",
"                                                                                                                                ",
"                                                                                                                                ",
"                                                                                                                                ",
"                                                                                                                                ",
"                                                                                                                                ",
"                                                                                                                                ",
"                                                                                                                                ",
"                                                                                                                                ",
"                                                                                                                                ",
"                                                                                                                                ",
"                                                                                                                                ",
"                                                                                                                                ",
"                                                                                                                                ",
"                                                                                                                                ",
"                                                                                                                                ",
"                                                                                                                                ",
"                                                                                                                                ",
"                                                                                                                                ",
"                                                                                                                                ",
"                                                                                                                                ",
"                                                                                                                                ",
"                                                                                                                                ",
"                                                                                                                                ",
"                                            ........XXXXXXXXoo                                                                  ",
"                                            ........XXXXXXXXoo                                                                  ",
"                                          ..OOOOOO++@@@@@@####$$oo                                                              ",
"                                          ..OOOOOO++@@@@@@####$$oo                                                              ",
"                                            %%&&%%**========##==--;;                                                            ",
"                                            %%&&%%**========##==--;;                                                            ",
"                                            ::>>::,,<<<<%%**<<11;;                                                              ",
"                                            ::>>::,,<<<<%%**<<11;;                                                              ",
"                                          %%%%**<<<<<<<<<<1111;;                                                                ",
"                                          %%%%**<<<<<<<<<<1111;;                                                                ",
"                                              223344556677889900                                                                ",
"                                              223344556677889900                                                                ",
"                                              qqwweerrrrqq77wwtt                                                                ",
"                                              qqwweerrrrqq77wwtt                                                                ",
"                                              44yyuurriiyyppaatt                                                                ",
"                                              44yyuurriiyyppaatt                                                                ",
"                                              ssddddffrryyppgghh;;                                                              ",
"                                              ssddddffrryyppgghh;;                                                              ",
"                                              44yyiirriiqqjjwwtt;;;;                                                            ",
"                                              44yyiirriiqqjjwwtt;;;;                                                            ",
"                                                  ssss9944jj33;;;;;;%%                                                          ",
"                                                  ssss9944jj33;;;;;;%%                                                          ",
"                                              kk;;ttjjjj99;;;;;;;;%%llll,,                                                      ",
"                                              kk;;ttjjjj99;;;;;;;;%%llll,,                                                      ",
"                                            kk,,1111;;hh;;;;zzxxllccccvvvvkk                                                    ",
"                                            kk,,1111;;hh;;;;zzxxllccccvvvvkk                                                    ",
"                                          kkzz,,11<<,,;;&&vv<<,,ccccccvvkk::ll                                                  ",
"                                          kkzz,,11<<,,;;&&vv<<,,ccccccvvkk::ll                                                  ",
"                                          zzzzll**<<llcc&&bbkkvvvvvv::kk::nn::bb                                                ",
"                                          zzzzll**<<llcc&&bbkkvvvvvv::kk::nn::bb                                                ",
"                                        zzzzvvll**<<,,cccc>>>>ccnnnn::kk::vvnn::                                                ",
"                                        zzzzvvll**<<,,cccc>>>>ccnnnn::kk::vvnn::                                                ",
"                                      zzzzzzkkcc&&11,,vvcc::kkkkkkvv,,kkkkvvvv::bb                                              ",
"                                      zzzzzzkkcc&&11,,vvcc::kkkkkkvv,,kkkkvvvv::bb                                              ",
"                                      zzkkkkbbvvcc11<<,,vvzzccccccvvllbbkkkkvvllkk                                              ",
"                                      zzkkkkbbvvcc11<<,,vvzzccccccvvllbbkkkkvvllkk                                              ",
"                                      zzzzkkbbkkvv,,11<<,,vv::::::vvbb,,&&&&bbbbll&&                                            ",
"                                      zzzzkkbbkkvv,,11<<,,vv::::::vvbb,,&&&&bbbbll&&                                            ",
"                                    zzzzzzzzkk  kkvv**11<<,,vvvvvvkkvv&&**kkbbvvbb,,                                            ",
"                                    zzzzzzzzkk  kkvv**11<<,,vvvvvvkkvv&&**kkbbvvbb,,                                            ",
"                                    zzzzmmmmbb  ,,&&ll**111111,,,,,,%%**vvvvvvllll,,                                            ",
"                                    zzzzmmmmbb  ,,&&ll**111111,,,,,,%%**vvvvvvllll,,                                            ",
"                                    ddmmmmmmbb  MM**&&&&**<<<<<<1111;;vvvvkkllbbbb%%                                            ",
"                                    ddmmmmmmbb  MM**&&&&**<<<<<<1111;;vvvvkkllbbbb%%                                            ",
"                                    ddeeuu7777    MM<<NNBBBBMMMMMMVViivvkkllbbbb&&                                              ",
"                                    ddeeuu7777    MM<<NNBBBBMMMMMMVViivvkkllbbbb&&                                              ",
"                                    ddppjj77      %%<<CCZZ33MMMMiiiiii44&&bb&&%%                                                ",
"                                    ddppjj77      %%<<CCZZ33MMMMiiiiii44&&bb&&%%                                                ",
"                                      pp77        %%kkkkvvbbvvkkeeqqqqwwaa&&%%                                                  ",
"                                      pp77        %%kkkkvvbbvvkkeeqqqqwwaa&&%%                                                  ",
"                                                  ,,cccczzvvkknnwwiiwwwwaa,,&&                                                  ",
"                                                  ,,cccczzvvkknnwwiiwwwwaa,,&&                                                  ",
"                                                  cccccczzkkllnnnnAAAAaallbb,,&&                                                ",
"                                                  cccccczzkkllnnnnAAAAaallbb,,&&                                                ",
"                                                  ll::::kkbbbb::nnvvvv::llll,,&&                                                ",
"                                                  ll::::kkbbbb::nnvvvv::llll,,&&                                                ",
"                                                  nnSSSSnnnnbbllllllllbb,,&&&&&&                                                ",
"                                                  nnSSSSnnnnbbllllllllbb,,&&&&&&                                                ",
"                                                  SSSSSSSScckk::vvvv::::kkll,,                                                  ",
"                                                  SSSSSSSScckk::vvvv::::kkll,,                                                  ",
"                                                  SSSSSSSSccvvvvnnzzzzzz::llbb&&                                                ",
"                                                  SSSSSSSSccvvvvnnzzzzzz::llbb&&                                                ",
"                                                kkSSSSSSSSccllvvnnzzzzzz::kkll&&                                                ",
"                                                kkSSSSSSSSccllvvnnzzzzzz::kkll&&                                                ",
"                                                kkSSSSSSSScckkbbnnzzzzzzvv::ll&&                                                ",
"                                                kkSSSSSSSScckkbbnnzzzzzzvv::ll&&                                                ",
"                                                vvSSSSSSnnnnkk&&::zzzzzznn::ll&&                                                ",
"                                                vvSSSSSSnnnnkk&&::zzzzzznn::ll&&                                                ",
"                                                vvSSSSSSSSccbb&&::zzzzzzvvkkbb&&                                                ",
"                                                vvSSSSSSSSccbb&&::zzzzzzvvkkbb&&                                                ",
"                                                SSnnnnnnnnnn&&ll::nnzzzzzz,,,,%%                                                ",
"                                                SSnnnnnnnnnn&&ll::nnzzzzzz,,,,%%                                                ",
"                                                kkbb::kkllllll&&,,::nn::::zz::&&&&                                              ",
"                                                kkbb::kkllllll&&,,::nn::::zz::&&&&                                              ",
"                                                  bbllllllllbb&&,,vvvv::ll,,llll&&                                              ",
"                                                  bbllllllllbb&&,,vvvv::ll,,llll&&                                              ",
"                                                      ;;bbbb&&&&;;::::::llkk,,&&&&                                              ",
"                                                      ;;bbbb&&&&;;::::::llkk,,&&&&                                              ",
"                                                        ;;;;;;;;;;&&bbbbbbbb,,&&**                                              ",
"                                                        ;;;;;;;;;;&&bbbbbbbb,,&&**                                              ",
"                                                            ;;;;;;MM,,,,,,,,**<<;;                                              ",
"                                                            ;;;;;;MM,,,,,,,,**<<;;                                              ",
"                                                                ;;;;;;;;;;;;;;;;;;                                              ",
"                                                                ;;;;;;;;;;;;;;;;;;                                              ",
"                                                              ooDD;;DD;;;;;;;;;;MM                                              ",
"                                                              ooDD;;DD;;;;;;;;;;MM                                              ",
"                                                              FFFFDD;;DDDDGGHH;;;;                                              ",
"                                                              FFFFDD;;DDDDGGHH;;;;                                              ",
"                                                                ;;;;;;ooooGG;;;;;;MM                                            ",
"                                                                ;;;;;;ooooGG;;;;;;MM                                            ",
"                                                                      DDDDGGFFHH;;;;                                            ",
"                                                                      DDDDGGFFHH;;;;                                            ",
"                                                                    XXXXooFFooDDHHMM                                            ",
"                                                                    XXXXooFFooDDHHMM                                            ",
"                                                                JJXXXXooKKFFDDHH;;                                              ",
"                                                                JJXXXXooKKFFDDHH;;                                              ",
"                                                                DDXXKKFFDD;;;;11<<                                              ",
"                                                                DDXXKKFFDD;;;;11<<                                              ",
"                                                                                                                                ",
"                                                                                                                                "
};
