/* XPM */
static char *front_right3[] = {
/* columns rows colors chars-per-pixel */
"128 128 61 1 ",
"  c #00000000",
". c #FF00007C",
"X c #FF000064",
"o c #FF00004C",
"O c #FFFC5C5C",
"+ c #FFFC2020",
"@ c #FFC80000",
"# c #FFA40000",
"$ c #FF580000",
"% c #FF545454",
"& c #FF646464",
"* c #FF484848",
"= c #FF880000",
"- c #FF7C0000",
"; c #FF000000",
": c #FFA8A8A8",
"> c #FFFCFCFC",
", c #FF707070",
"< c #FF383838",
"1 c #FF2C2C2C",
"2 c #FF0000A8",
"3 c #FF6C4824",
"4 c #FFA0643C",
"5 c #FF4040FC",
"6 c #FF000088",
"7 c #FFBC7848",
"8 c #FF9C4C00",
"9 c #FF905C34",
"0 c #FF403018",
"q c #FFF0945C",
"w c #FFC87C4C",
"e c #FFFCB890",
"r c #FFFCB080",
"t c #FF5C4020",
"y c #FFDC8854",
"u c #FFFC9C60",
"i c #FFFCA470",
"p c #FFE88C58",
"a c #FF9C6038",
"s c #FF80502C",
"d c #FFFCCCB0",
"f c #FFFCD4BC",
"g c #FF885830",
"h c #FFB47044",
"j c #FF8C8C8C",
"k c #FF7C7C7C",
"l c #FF543C1C",
"z c #FF28200C",
"x c #FFB4B4B4",
"c c #FF989898",
"v c #FFC0C0C0",
"b c #FFD0D0D0",
"n c #FFECECEC",
"m c #FFDCDCDC",
"M c #FFD08050",
"N c #FFFCC4A4",
"B c #FF000040",
"V c #FF00001C",
"C c #FF000034",
"Z c #FF00002C",
"A c #FF390900",
/* pixels */
"                                                                                                                                ",
"                                                                                                                                ",
"                                                                                                                                ",
"                                                                                                                                ",
"                                                                                                                                ",
"                                                                                                                                ",
"                                                                                                                                ",
"                                                                                                                                ",
"                                                                                                                                ",
"                                                                                                                                ",
"                                                                                                                                ",
"                                                                                                                                ",
"                                                                                                                                ",
"                                                                                                                                ",
"                                                                                                                                ",
"                                                                                                                                ",
"                                                                                                                                ",
"                                                                                                                                ",
"                                                                                                                                ",
"                                                                                                                                ",
"                                                                                                                                ",
"                                                                                                                                ",
"                                                                                                                                ",
"                                                                                                                                ",
"                                                                                                                                ",
"                                                                                                                                ",
"                                                                                                                                ",
"                                                                                                                                ",
"                                                                                                                                ",
"                                                                                                                                ",
"                                                                                                                                ",
"                                                                                                                                ",
"                                              ........XXXXXXXXoo                                                                ",
"                                              ........XXXXXXXXoo                                                                ",
"                                            ..OOOOOO++@@@@@@####$$oo                                                            ",
"                                            ..OOOOOO++@@@@@@####$$oo                                                            ",
"                                              %%&&%%**========##==--;;                                                          ",
"                                              %%&&%%**========##==--;;                                                          ",
"                                              ::>>::,,<<<<%%**<<11;;                                                            ",
"                                              ::>>::,,<<<<%%**<<11;;                                                            ",
"                                            %%%%**<<<<<<<<<<1111;;                                                              ",
"                                            %%%%**<<<<<<<<<<1111;;                                                              ",
"                                                223344556677889900                                                              ",
"                                                223344556677889900                                                              ",
"                                                qqwweerrrrqq77wwtt                                                              ",
"                                                qqwweerrrrqq77wwtt                                                              ",
"                                                44yyuurriiyyppaatt;;                                                            ",
"                                                44yyuurriiyyppaatt;;                                                            ",
"                                                ssddddffrryyppggtt;;;;                                                          ",
"                                                ssddddffrryyppggtt;;;;                                                          ",
"                                                44yyiirriiqqhhww;;;;;;%%                                                        ",
"                                                44yyiirriiqqhhww;;;;;;%%                                                        ",
"                                                **;;ssss9944hh;;;;;;%%jjjj                                                      ",
"                                                **;;ssss9944hh;;;;;;%%jjjj                                                      ",
"                                              kk**1111;;ll;;;;;;zzjjxxxxxxxx                                                    ",
"                                              kk**1111;;ll;;;;;;zzjjxxxxxxxx                                                    ",
"                                              cc**11&&,,;;&&xx;;,,xxxxxxxxvv::                                                  ",
"                                              cc**11&&,,;;&&xx;;,,xxxxxxxxvv::                                                  ",
"                                            ccbb****&&cc%%bb%%%%nn>>>>vvmmmmmmcc                                                ",
"                                            ccbb****&&cc%%bb%%%%nn>>>>vvmmmmmmcc                                                ",
"                                            kk::mm**&&ccmm%%::>>nnnnvv>>>>>>mmxx                                                ",
"                                            kk::mm**&&ccmm%%::>>nnnnvv>>>>>>mmxx                                                ",
"                                          bbcckkmm**11&&xxmm>>>>>>vvxx>>mm>>mmxxcc                                              ",
"                                          bbcckkmm**11&&xxmm>>>>>>vvxx>>mm>>mmxxcc                                              ",
"                                        bbMMMMccxx1111<<::xxxxxxxxvv>>>>mm>>mmxxjj                                              ",
"                                        bbMMMMccxx1111<<::xxxxxxxxvv>>>>mm>>mmxxjj                                              ",
"                                        rriiiihh  xx1111%%::nnnnnn::>>mm>>nnbbccjj                                              ",
"                                        rriiiihh  xx1111%%::nnnnnn::>>mm>>nnbbccjj                                              ",
"                                      rriihh33hh    **1111kk::nnccvvvvmm>>mmbbccjj                                              ",
"                                      rriihh33hh    **1111kk::nnccvvvvmm>>mmbbccjj                                              ",
"                                      yyhhhhhhhhNNiiii**1111kkvv>>>>>>vv>>mmvvcc                                                ",
"                                      yyhhhhhhhhNNiiii**1111kkvv>>>>>>vv>>mmvvcc                                                ",
"                                        hhhh  NNiiiiii>>>>>>>>>>>>mm>>>>>>>>cckk                                                ",
"                                        hhhh  NNiiiiii>>>>>>>>>>>>mm>>>>>>>>cckk                                                ",
"                                              NNiiiiiimmmmmmmmmmmmmmmm>>>>xxkkkk                                                ",
"                                              NNiiiiiimmmmmmmmmmmmmmmm>>>>xxkkkk                                                ",
"                                              NNiiiiiixxxxxxbbbbbbbbbbxxxxkkkk&&                                                ",
"                                              NNiiiiiixxxxxxbbbbbbbbbbxxxxkkkk&&                                                ",
"                                                    mmccccxxkkxxccjjjjjjjjjj&&%%                                                ",
"                                                    mmccccxxkkxxccjjjjjjjjjj&&%%                                                ",
"                                                    nnmmmmbbxxccvvvvvv::cccc,,&&&&                                              ",
"                                                    nnmmmmbbxxccvvvvvv::cccc,,&&&&                                              ",
"                                                  nn>>>>>>bbmmjjvvvvvv::ccjjkk,,&&                                              ",
"                                                  nn>>>>>>bbmmjjvvvvvv::ccjjkk,,&&                                              ",
"                                                  ::::::::ccmm,,ccvvxxxx::jjjj,,**                                              ",
"                                                  ::::::::ccmm,,ccvvxxxx::jjjj,,**                                              ",
"                                                  nnnnnnnnnncckk,,,,,,,,,,,,&&**&&**                                            ",
"                                                  nnnnnnnnnncckk,,,,,,,,,,,,&&**&&**                                            ",
"                                                nnnn>>nnnnnnvvkkkkkkjjjjkk,,,,&&&&**                                            ",
"                                                nnnn>>nnnnnnvvkkkkkkjjjjkk,,,,&&&&**                                            ",
"                                                nn>>>>nnnnmmvv::kkkkccccccjj,,&&%%<<                                            ",
"                                                nn>>>>nnnnmmvv::kkkkccccccjj,,&&%%<<                                            ",
"                                                nn>>nnnnnnbb::cckkkkccccccjjkk,,&&****                                          ",
"                                                nn>>nnnnnnbb::cckkkkccccccjjkk,,&&****                                          ",
"                                              nnnn>>nnnnmmxx::jj  ,,ccccccjjkk,,&&%%**                                          ",
"                                              nnnn>>nnnnmmxx::jj  ,,ccccccjjkk,,&&%%**                                          ",
"                                              nn>>nnnnnn::::jjkk    ,,jjjjjjjj&&%%<<<<                                          ",
"                                              nn>>nnnnnn::::jjkk    ,,jjjjjjjj&&%%<<<<                                          ",
"                                              >>>>nnnn>>::::jjkk      jjjjjjjjkk,,&&%%**                                        ",
"                                              >>>>nnnn>>::::jjkk      jjjjjjjjkk,,&&%%**                                        ",
"                                            >>nnnnnnvvvv>>vvjj        ,,jjjjkk&&&&%%******                                      ",
"                                            >>nnnnnnvvvv>>vvjj        ,,jjjjkk&&&&%%******                                      ",
"                                            bbxxbbbbvvcc::&&&&          ,,%%%%%%%%******11                                      ",
"                                            bbxxbbbbvvcc::&&&&          ,,%%%%%%%%******11                                      ",
"                                            xxxxbbxx::::kkkk&&&&          %%%%%%******<<11;;                                    ",
"                                            xxxxbbxx::::kkkk&&&&          %%%%%%******<<11;;                                    ",
"                                            ccxxxxxxxx&&kkkk&&            11******<<11;;;;;;                                    ",
"                                            ccxxxxxxxx&&kkkk&&            11******<<11;;;;;;                                    ",
"                                              cccccckkkk%%%%%%              ;;;;;;;;;;;;;;;;;;;;                                ",
"                                              cccccckkkk%%%%%%              ;;;;;;;;;;;;;;;;;;;;                                ",
"                                            BBooBBBBVV;;;;;;                  CC;;;;;;;;;;;;;;;;                                ",
"                                            BBooBBBBVV;;;;;;                  CC;;;;;;;;;;;;;;;;                                ",
"                                            BBooBBBBVV;;;;;;                      ;;;;;;;;;;;;;;                                ",
"                                            BBooBBBBVV;;;;;;                      ;;;;;;;;;;;;;;                                ",
"                                            BBooBBBBVV;;;;                        CCCCCCCC;;;;;;                                ",
"                                            BBooBBBBVV;;;;                        CCCCCCCC;;;;;;                                ",
"                                            BBooooBBVV;;;;                          ;;;;;;;;;;;;                                ",
"                                            BBooooBBVV;;;;                          ;;;;;;;;;;;;                                ",
"                                              CCVVVVVV;;                          CCCCCCCC;;;;;;                                ",
"                                              CCVVVVVV;;                          CCCCCCCC;;;;;;                                ",
"                                            BBCCCCCC;;;;;;                        CCCCCCCC;;;;                                  ",
"                                            BBCCCCCC;;;;;;                        CCCCCCCC;;;;                                  ",
"                                        ooooooBBBBCC;;;;;;                                                                      ",
"                                        ooooooBBBBCC;;;;;;                                                                      ",
"                                      BBooBBBBCCCCZZ;;;;;;                                                                      ",
"                                      BBooBBBBCCCCZZ;;;;;;                                                                      ",
"                                      CCCCCCCCZZVV;;;;                                                                          ",
"                                      CCCCCCCCZZVV;;;;                                                                          "
};
