/* XPM */
static char *front_left2[] = {
/* columns rows colors chars-per-pixel */
"128 128 64 1 ",
"  c #00000000",
". c #FF0000E0",
"X c #FF0000B0",
"o c #FF00007C",
"O c #FF000064",
"+ c #FF000058",
"@ c #FF00004C",
"# c #FF000040",
"$ c #FF4C0000",
"% c #FF880000",
"& c #FFFC4040",
"* c #FFFC2020",
"= c #FFD40000",
"- c #FFA40000",
"; c #FF545454",
": c #FF707070",
"> c #FF000000",
", c #FF383838",
"< c #FF2C2C2C",
"1 c #FF202020",
"2 c #FF484848",
"3 c #FFE46C00",
"4 c #FFB47044",
"5 c #FFA0643C",
"6 c #FF4040FC",
"7 c #FF000088",
"8 c #FF9C6038",
"9 c #FF6C4824",
"0 c #FF0000A8",
"q c #FFFCA85C",
"w c #FFFCA470",
"e c #FFDC8854",
"r c #FF885830",
"t c #FFC87C4C",
"y c #FFFCFC54",
"u c #FFFC9C60",
"i c #FFBC7848",
"p c #FFA86840",
"a c #FFFCB080",
"s c #FFE88C58",
"d c #FFFCC4A4",
"f c #FFD08050",
"g c #FF80502C",
"h c #FF646464",
"j c #FF543C1C",
"k c #FF7C7C7C",
"l c #FFECECEC",
"z c #FFDCDCDC",
"x c #FF403018",
"c c #FFFCFCFC",
"v c #FF989898",
"b c #FFB4B4B4",
"n c #FFC0C0C0",
"m c #FFA8A8A8",
"M c #FFD0D0D0",
"N c #FF8C8C8C",
"B c #FFFCB890",
"V c #FF905C34",
"C c #FFFCCCB0",
"Z c #FFFC7800",
"A c #FF744C28",
"S c #FF000034",
"D c #FF00001C",
"F c #FF390900",
/* pixels */
"                                                                                                                                ",
"                                                                                                                                ",
"                                                                                                                                ",
"                                                                                                                                ",
"                                                                                                                                ",
"                                                                                                                                ",
"                                                                                                                                ",
"                                                                                                                                ",
"                                                                                                                                ",
"                                                                                                                                ",
"                                                                                                                                ",
"                                                                                                                                ",
"                                                                                                                                ",
"                                                                                                                                ",
"                                                                                                                                ",
"                                                                                                                                ",
"                                                                                                                                ",
"                                                                                                                                ",
"                                                                                                                                ",
"                                                                                                                                ",
"                                                                                                                                ",
"                                                                                                                                ",
"                                                                                                                                ",
"                                                                                                                                ",
"                                                                                                                                ",
"                                                                                                                                ",
"                                                                                                                                ",
"                                                                                                                                ",
"                                                                      ..XXXXooooOOOO                                            ",
"                                                                      ..XXXXooooOOOO                                            ",
"                                                                  ....XXXXooOOOO++@@@@                                          ",
"                                                                  ....XXXXooOOOO++@@@@                                          ",
"                                                                ..XXoooo####$$$$$$$$$$$$                                        ",
"                                                                ..XXoooo####$$$$$$$$$$$$                                        ",
"                                                              %%&&&&**==--%%$$;;::;;@@                                          ",
"                                                              %%&&&&**==--%%$$;;::;;@@                                          ",
"                                                              >>,,,,,,,,<<<<<<11>>>>>><<                                        ",
"                                                              >>,,,,,,,,<<<<<<11>>>>>><<                                        ",
"                                                                ,,;;22,,,,<<>>>>>>>>>>>>                                        ",
"                                                                ,,;;22,,,,<<>>>>>>>>>>>>                                        ",
"                                                                  333344556677889900                                            ",
"                                                                  333344556677889900                                            ",
"                                                                  qqqqww44ee444444rr                                            ",
"                                                                  qqqqww44ee444444rr                                            ",
"                                                                  ttyyeeuuiipp55rr99                                            ",
"                                                                  ttyyeeuuiipp55rr99                                            ",
"                                                                >>ttaaaassiiddwwffgg                                            ",
"                                                                >>ttaaaassiiddwwffgg                                            ",
"                                                            ,,>>>>>>ttaasssspp5555gg                                            ",
"                                                            ,,>>>>>>ttaasssspp5555gg                                            ",
"                                                        hhhh,,,,>>::>>5544ggjj>>kk                                              ",
"                                                        hhhh,,,,>>::>>5544ggjj>>kk                                              ",
"                                                      llzzllkkhh,,11::>>4499xx>>hhkk                                            ",
"                                                      llzzllkkhh,,11::>>4499xx>>hhkk                                            ",
"                                                    zzccllccllvv22,,>>>>kk>>>>>>hh::::                                          ",
"                                                    zzccllccllvv22,,>>>>kk>>>>>>hh::::                                          ",
"                                                  zzcccczzbbnnzzmm2211>>>>kkhh>>kk::hh;;                                        ",
"                                                  zzcccczzbbnnzzmm2211>>>>kkhh>>kk::hh;;                                        ",
"                                                zzzzccccbbvvvvMMMMkk2211>>;;NNNNkk::hh;;                                        ",
"                                                zzzzccccbbvvvvMMMMkk2211>>;;NNNNkk::hh;;                                        ",
"                                                zzcccczzbbbb::MMMMmm::<<>>>>NNmmmmhh;;22;;                                      ",
"                                                zzcccczzbbbb::MMMMmm::<<>>>>NNmmmmhh;;22;;                                      ",
"                                              ccccccccbbbbNNNNmmmmmmkk2211>>22kkkk2222;;hh                                      ",
"                                              ccccccccbbbbNNNNmmmmmmkk2211>>22kkkk2222;;hh                                      ",
"                                              zzccbbkkkk::NNmmmmvvvvNN22<<>><<;;hh22hh::::::                                    ",
"                                              zzccbbkkkk::NNmmmmvvvvNN22<<>><<;;hh22hh::::::                                    ",
"                                            MMzzccccccvvbbNNbbvvvvkkkkhh<<11>>hh22;;::::::::                                    ",
"                                            MMzzccccccvvbbNNbbvvvvkkkkhh<<11>>hh22;;::::::::                                    ",
"                                            MMccccccccccccnnNNNNkk::kkhh22<<>>;;;;hhhhttuuuu                                    ",
"                                            MMccccccccccccnnNNNNkk::kkhh22<<>>;;;;hhhhttuuuu                                    ",
"                                            zzMMMMccccccccccBBBBBB44hhhh22<<>><<;;hhhhffffuuVV                                  ",
"                                            zzMMMMccccccccccBBBBBB44hhhh22<<>><<;;hhhhffffuuVV                                  ",
"                                              bbMMMMMMMMMMBBBBCCssuu>>ZZ55AA>>>>    ;;55iiiiVV                                  ",
"                                              bbMMMMMMMMMMBBBBCCssuu>>ZZ55AA>>>>    ;;55iiiiVV                                  ",
"                                                  bbbbMMMMBBBBCCsspp>>55AAAA>>>>      55iiiiVV                                  ",
"                                                  bbbbMMMMBBBBCCsspp>>55AAAA>>>>      55iiiiVV                                  ",
"                                                      bbbbBBBBCCsspphh::kkhhhh;;                                                ",
"                                                      bbbbBBBBCCsspphh::kkhhhh;;                                                ",
"                                                      NNNNhhttttpphhhh::hh::::::                                                ",
"                                                      NNNNhhttttpphhhh::hh::::::                                                ",
"                                                    nnnnNNNNhhhhhhhh::hh;;hhhh::                                                ",
"                                                    nnnnNNNNhhhhhhhh::hh;;hhhh::                                                ",
"                                                    vvvvvvNN::::::::::hh22;;;;;;                                                ",
"                                                    vvvvvvNN::::::::::hh22;;;;;;                                                ",
"                                                    MMMMnnNN::::hhhh;;;;;;::::::                                                ",
"                                                    MMMMnnNN::::hhhh;;;;;;::::::                                                ",
"                                                    MMllnnNN::::::hhhh;;hh::::::                                                ",
"                                                    MMllnnNN::::::hhhh;;hh::::::                                                ",
"                                                    llllnnvvNNkk::hhhh;;hh::::::kk                                              ",
"                                                    llllnnvvNNkk::hhhh;;hh::::::kk                                              ",
"                                                  llllllnnmmNNkk::hhhh;;hhhh::::kk                                              ",
"                                                  llllllnnmmNNkk::hhhh;;hhhh::::kk                                              ",
"                                                  llllllnnmmNNkk::hhhh;;hhhh::::kk                                              ",
"                                                  llllllnnmmNNkk::hhhh;;hhhh::::kk                                              ",
"                                                  llllllnnmmNNNN::hhhh::hhhh::::kk                                              ",
"                                                  llllllnnmmNNNN::hhhh::hhhh::::kk                                              ",
"                                                  llMMnnbbvvNNkk::hhhh::hhhh::::::kk                                            ",
"                                                  llMMnnbbvvNNkk::hhhh::hhhh::::::kk                                            ",
"                                                zzllllzzMMbbvvkk::hhhhkk::hh::::::kk                                            ",
"                                                zzllllzzMMbbvvkk::hhhhkk::hh::::::kk                                            ",
"                                                kkvvllbbbbbbNNkk::hhhh::kkhhhh::::kk                                            ",
"                                                kkvvllbbbbbbNNkk::hhhh::kkhhhh::::kk                                            ",
"                                                MMllnnnnbbvvkk::hh;;hhkkkkhhhhhhhhkk                                            ",
"                                                MMllnnnnbbvvkk::hh;;hhkkkkhhhhhhhhkk                                            ",
"                                                hhllbbbbvvNNkk;;hh;;;;hhhhhhhhhhhhhh                                            ",
"                                                hhllbbbbvvNNkk;;hh;;;;hhhhhhhhhhhhhh                                            ",
"                                                <<,,hhNNkkhh;;;;11>>,,2222;;;;;;22                                              ",
"                                                <<,,hhNNkkhh;;;;11>>,,2222;;;;;;22                                              ",
"                                                >>>>1111,,,,,,<<>>>>>>>>>>>>>>                                                  ",
"                                                >>>>1111,,,,,,<<>>>>>>>>>>>>>>                                                  ",
"                                              @@@@SSSSDDDD>>>>>>>>>>>>>>>>                                                      ",
"                                              @@@@SSSSDDDD>>>>>>>>>>>>>>>>                                                      ",
"                                              @@@@SSSSDDDD>>>>>>>>>>>>                                                          ",
"                                              @@@@SSSSDDDD>>>>>>>>>>>>                                                          ",
"                                              >>>>SSSSDDDD>>>>>>>>                                                              ",
"                                              >>>>SSSSDDDD>>>>>>>>                                                              ",
"                                              @@>>>>>>DD>>>>>>>>>>                                                              ",
"                                              @@>>>>>>DD>>>>>>>>>>                                                              ",
"                                            @@@@SS>>>>>>>>>>>>>>>>                                                              ",
"                                            @@@@SS>>>>>>>>>>>>>>>>                                                              ",
"                                            @@@@@@SSSSSSDD>>>>>>>>>>                                                            ",
"                                            @@@@@@SSSSSSDD>>>>>>>>>>                                                            ",
"                                            @@@@@@@@SSSSSSSSDD>>>>>>                                                            ",
"                                            @@@@@@@@SSSSSSSSDD>>>>>>                                                            ",
"                                              <<11##SSSSSSSS>>>>                                                                ",
"                                              <<11##SSSSSSSS>>>>                                                                ",
"                                                                                                                                ",
"                                                                                                                                "
};
