/* XPM */
static char *front1[] = {
/* columns rows colors chars-per-pixel */
"128 128 55 1 ",
"  c #00000000",
". c #FF700000",
"X c #FF00007C",
"o c #FF00004C",
"O c #FF0000A4",
"+ c #FFE00000",
"@ c #FFFC0000",
"# c #FFFC5C5C",
"$ c #FFA80000",
"% c #FF383838",
"& c #FF000000",
"* c #FF545454",
"= c #FFA8A8A8",
"- c #FFFCFCFC",
"; c #FF202020",
": c #FF0000A8",
"> c #FF2C2C2C",
", c #FF707070",
"< c #FFC0C0C0",
"1 c #FF7C7C7C",
"2 c #FF5C4020",
"3 c #FF6C4824",
"4 c #FF9C6038",
"5 c #FF0000B0",
"6 c #FFA0643C",
"7 c #FF80502C",
"8 c #FF905C34",
"9 c #FFBC7848",
"0 c #FFFCA470",
"q c #FFFCB890",
"w c #FFF0945C",
"e c #FFB47044",
"r c #FFDC8854",
"t c #FFFCD4BC",
"y c #FFE88C58",
"u c #FFECECEC",
"i c #FF543C1C",
"p c #FF8C8C8C",
"a c #FF646464",
"s c #FF484848",
"d c #FFB4B4B4",
"f c #FF989898",
"g c #FFDCDCDC",
"h c #FFD0D0D0",
"j c #FFFC9C60",
"k c #FFFCB080",
"l c #FFA86840",
"z c #FFD08050",
"x c #FF483818",
"c c #FF000040",
"v c #FF000034",
"b c #FF00001C",
"n c #FF000058",
"m c #FF000064",
"M c #FF390900",
/* pixels */
"                                                                                                                                ",
"                                                                                                                                ",
"                                                                                                                                ",
"                                                                                                                                ",
"                                                                                                                                ",
"                                                                                                                                ",
"                                                                                                                                ",
"                                                                                                                                ",
"                                                                                                                                ",
"                                                                                                                                ",
"                                                                                                                                ",
"                                                                                                                                ",
"                                                                                                                                ",
"                                                                                                                                ",
"                                                                                                                                ",
"                                                                                                                                ",
"                                                                                                                                ",
"                                                                                                                                ",
"                                                                                                                                ",
"                                                                                                                                ",
"                                                                                                                                ",
"                                                                                                                                ",
"                                                                                                                                ",
"                                                                                                                                ",
"                                                                                                                                ",
"                                                                                                                                ",
"                                                                                                                                ",
"                                                                                                                                ",
"                                                                                                                                ",
"                                                                                                                                ",
"                                                                                                                                ",
"                                                                                                                                ",
"                                                                                                                                ",
"                                                                                                                                ",
"                                                      ..XXXXXXXXXXXXXXXXoo..                                                    ",
"                                                      ..XXXXXXXXXXXXXXXXoo..                                                    ",
"                                                    OO++@@##@@++++++$$$$$$..                                                    ",
"                                                    OO++@@##@@++++++$$$$$$..                                                    ",
"                                                    %%&&****==----==**%%;;%%                                                    ",
"                                                    %%&&****==----==**%%;;%%                                                    ",
"                                                    %%::>>&&&&&&&&&&&&&&%%%%                                                    ",
"                                                    %%::>>&&&&&&&&&&&&&&%%%%                                                    ",
"                                                      %%,,<<==11****%%%%%%                                                      ",
"                                                      %%,,<<==11****%%%%%%                                                      ",
"                                                      22334455667755443322                                                      ",
"                                                      22334455667755443322                                                      ",
"                                                      889900qqwweeqq009988                                                      ",
"                                                      889900qqwweeqq009988                                                      ",
"                                                        99rr00000000rr99                                                        ",
"                                                        99rr00000000rr99                                                        ",
"                                                        77wwqqttttqqww77&&                                                      ",
"                                                        77wwqqttttqqww77&&                                                      ",
"                                                      ;;77yy00000000yy77&&&&,,**                                                ",
"                                                      ;;77yy00000000yy77&&&&,,**                                                ",
"                                                      %%uu%%88666666ii&&11&&pppp,,                                              ",
"                                                      %%uu%%88666666ii&&11&&pppp,,                                              ",
"                                                  aassss%%dd;;&&&&&&&&==&&ppppff,,,,                                            ",
"                                                  aassss%%dd;;&&&&&&&&==&&ppppff,,,,                                            ",
"                                                ==gg11ssss;;&&,,,,&&&&&&<<dd==ff,,aa                                            ",
"                                                ==gg11ssss;;&&,,,,&&&&&&<<dd==ff,,aa                                            ",
"                                              ==gg--dd11>>&&dd--dd--<<<<<<hhffffaaaa**                                          ",
"                                              ==gg--dd11>>&&dd--dd--<<<<<<hhffffaaaa**                                          ",
"                                              ==------pp**>>;;pppp11==hhhhddpp,,****ss                                          ",
"                                              ==------pp**>>;;pppp11==hhhhddpp,,****ss                                          ",
"                                            ddhh----ddpppp**>>>>ppaa11ffpppppp,,ss%%**                                          ",
"                                            ddhh----ddpppp**>>>>ppaa11ffpppppp,,ss%%**                                          ",
"                                            ddhh--ggddaappppss>>>>aa,,ffffff11**%%****                                          ",
"                                            ddhh--ggddaappppss>>>>aa,,ffffff11**%%****                                          ",
"                                            ddhh--ggddaaaa11yyjjeeiiaa,,11,,ssss%%****                                          ",
"                                            ddhh--ggddaaaa11yyjjeeiiaa,,11,,ssss%%****                                          ",
"                                            ddhh----ff11==kkkkqqrr44&&%%ssssss%%%%ssss                                          ",
"                                            ddhh----ff11==kkkkqqrr44&&%%ssssss%%%%ssss                                          ",
"                                            dd----==gggg--kk0000yyll;;&&>>>>;;&&33ll**                                          ",
"                                            dd----==gggg--kk0000yyll;;&&>>>>;;&&33ll**                                          ",
"                                            dd----gg------==rrzzll77&&&&&&&&&&&&33zz33                                          ",
"                                            dd----gg------==rrzzll77&&&&&&&&&&&&33zz33                                          ",
"                                              ----ggddddpp11ssxxxxxx&&&&&&&&;;>>33zz                                            ",
"                                              ----ggddddpp11ssxxxxxx&&&&&&&&;;>>33zz                                            ",
"                                                ffff11aaaass>>>>>>%%%%%%%%%%ssss%%                                              ",
"                                                ffff11aaaass>>>>>>%%%%%%%%%%ssss%%                                              ",
"                                                  11aa**ss%%%%>>ss,,11pppppp,,ss%%                                              ",
"                                                  11aa**ss%%%%>>ss,,11pppppp,,ss%%                                              ",
"                                                  11,,aa****ssssaa11ff==<<<<dd,,ss                                              ",
"                                                  11,,aa****ssssaa11ff==<<<<dd,,ss                                              ",
"                                                  1111,,aa****%%,,11ff==hhhhdd,,ss                                              ",
"                                                  1111,,aa****%%,,11ff==hhhhdd,,ss                                              ",
"                                                  aa1111aa****ss,,aappppppppaa**ss                                              ",
"                                                  aa1111aa****ss,,aappppppppaa**ss                                              ",
"                                                  ffaaaassssssssaappggggggggppaass                                              ",
"                                                  ffaaaassssssssaappggggggggppaass                                              ",
"                                                  ffpp,,aa****aapp==ggggggggppppaa                                              ",
"                                                  ffpp,,aa****aapp==ggggggggppppaa                                              ",
"                                                  ffpp,,aa****aapp==ggggggggppppaa                                              ",
"                                                  ffpp,,aa****aapp==ggggggggppppaa                                              ",
"                                                  ffpp,,aa****aapp==gggggggg==ppaa                                              ",
"                                                  ffpp,,aa****aapp==gggggggg==ppaa                                              ",
"                                                  ffpp,,aa****aapp==gggggggg==aa                                                ",
"                                                  ffpp,,aa****aapp==gggggggg==aa                                                ",
"                                                  ,,pp,,aa******11==<<<<<<<<ddaa                                                ",
"                                                  ,,pp,,aa******11==<<<<<<<<ddaa                                                ",
"                                                  pp,,,,,,****ss11ddddddffffddaa                                                ",
"                                                  pp,,,,,,****ss11ddddddffffddaa                                                ",
"                                                  ,,ssssssssss,,dd,,pppppppp,,ddaa                                              ",
"                                                  ,,ssssssssss,,dd,,pppppppp,,ddaa                                              ",
"                                                    ;;%%%%%%%%11,,aa11111111ssaaaa                                              ",
"                                                    ;;%%%%%%%%11,,aa11111111ssaaaa                                              ",
"                                                      ;;;;;;;;%%ss**aaaaaaaassss                                                ",
"                                                      ;;;;;;;;%%ss**aaaaaaaassss                                                ",
"                                                      &&&&&&&&;;%%**aaaaaa**ssss                                                ",
"                                                      &&&&&&&&;;%%**aaaaaa**ssss                                                ",
"                                                      ccvv&&&&&&&&bbbbbbbbbb&&                                                  ",
"                                                      ccvv&&&&&&&&bbbbbbbbbb&&                                                  ",
"                                                      cc&&&&&&&&&&bbccvvbbbb&&                                                  ",
"                                                      cc&&&&&&&&&&bbccvvbbbb&&                                                  ",
"                                                      ccvvvvvv&&&&nnccvvbb&&&&                                                  ",
"                                                      ccvvvvvv&&&&nnccvvbb&&&&                                                  ",
"                                                      mmcc&&&&&&  nnccvvbb&&&&                                                  ",
"                                                      mmcc&&&&&&  nnccvvbb&&&&                                                  ",
"                                                                  bbbbbbbb&&&&                                                  ",
"                                                                  bbbbbbbb&&&&                                                  ",
"                                                                  ccccvv&&&&                                                    ",
"                                                                  ccccvv&&&&                                                    ",
"                                                                ccccccvvvvcc&&                                                  ",
"                                                                ccccccvvvvcc&&                                                  ",
"                                                                ccccccccvvvv&&                                                  ",
"                                                                ccccccccvvvv&&                                                  ",
"                                                                ccvvvvvvvvvv&&                                                  ",
"                                                                ccvvvvvvvvvv&&                                                  "
};
