/* XPM */
static char *still_right[] = {
/* columns rows colors chars-per-pixel */
"128 128 56 1 ",
"  c #00000000",
". c #FF000064",
"X c #FF000098",
"o c #FF700000",
"O c #FF640000",
"+ c #FF0000B0",
"@ c #FF980000",
"# c #FF2C2C2C",
"$ c #FF484848",
"% c #FF545454",
"& c #FFFC2020",
"* c #FFFC5C5C",
"= c #FFFC4040",
"- c #FFBC0000",
"; c #FF202020",
": c #FF00007C",
"> c #FF000040",
", c #FF383838",
"< c #FF000000",
"1 c #FF646464",
"2 c #FFB45400",
"3 c #FFFC7800",
"4 c #FFFC8820",
"5 c #FFFCA470",
"6 c #FFCC6000",
"7 c #FFA0643C",
"8 c #FFB47044",
"9 c #FF0000D4",
"0 c #FF885830",
"q c #FFFCA85C",
"w c #FF744C28",
"e c #FFF0945C",
"r c #FFDC8854",
"t c #FFBC7848",
"y c #FFFCF400",
"u c #FFC87C4C",
"i c #FFFCB890",
"p c #FF80502C",
"a c #FFB4B4B4",
"s c #FF8C8C8C",
"d c #FFA8A8A8",
"f c #FF989898",
"g c #FFD0D0D0",
"h c #FFFCFCFC",
"j c #FFDCDCDC",
"k c #FF7C7C7C",
"l c #FF707070",
"z c #FFC0C0C0",
"x c #FF543C1C",
"c c #FFECECEC",
"v c #FF9C6038",
"b c #FFFCB080",
"n c #FF000070",
"m c #FF000034",
"M c #FF00001C",
"N c #FF390900",
/* pixels */
"                                                                                                                                ",
"                                                                                                                                ",
"                                                                                                                                ",
"                                                                                                                                ",
"                                                                                                                                ",
"                                                                                                                                ",
"                                                                                                                                ",
"                                                                                                                                ",
"                                                                                                                                ",
"                                                                                                                                ",
"                                                                                                                                ",
"                                                                                                                                ",
"                                                                                                                                ",
"                                                                                                                                ",
"                                                                                                                                ",
"                                                                                                                                ",
"                                                                                                                                ",
"                                                                                                                                ",
"                                                                                                                                ",
"                                                                                                                                ",
"                                                                                                                                ",
"                                                                                                                                ",
"                                                                                                                                ",
"                                                                                                                                ",
"                                                                ........                                                        ",
"                                                                ........                                                        ",
"                                                        XXXXooOOOOOOOOOO                                                        ",
"                                                        XXXXooOOOOOOOOOO                                                        ",
"                                                ++++XXoo@@@@@@OO##$$%%$$                                                        ",
"                                                ++++XXoo@@@@@@OO##$$%%$$                                                        ",
"                                              &&**==&&--oo;;;;;;::..>>                                                          ",
"                                              &&**==&&--oo;;;;;;::..>>                                                          ",
"                                                ,,$$$$,,##;;;;,,##<<<<<<                                                        ",
"                                                ,,$$$$,,##;;;;,,##<<<<<<                                                        ",
"                                                  %%11%%,,,,,,,,####<<<<<<                                                      ",
"                                                  %%11%%,,,,,,,,####<<<<<<                                                      ",
"                                                  223344556677889900                                                            ",
"                                                  223344556677889900                                                            ",
"                                                    qqqq55wweerrrrtttt                                                          ",
"                                                    qqqq55wweerrrrtttt                                                          ",
"                                                    yyyyrrttuurruutt                                                            ",
"                                                    yyyyrrttuurruutt                                                            ",
"                                                    iieerriirr88uu00                                                            ",
"                                                    iieerriirr88uu00                                                            ",
"                                                  ,,,,%%rriirrrruutt                                                            ",
"                                                  ,,,,%%rriirrrruutt                                                            ",
"                                                  ,,,,####,,pppp                                                                ",
"                                                  ,,,,####,,pppp                                                                ",
"                                                  aass%%##;;;;pp<<                                                              ",
"                                                  aass%%##;;;;pp<<                                                              ",
"                                                $$$$$$$$$$$$<<dd$$$$                                                            ",
"                                                $$$$$$$$$$$$<<dd$$$$                                                            ",
"                                              1111ffffggggdd$$$$<<##$$                                                          ",
"                                              1111ffffggggdd$$$$<<##$$                                                          ",
"                                              11ffhhhhhhhhjjggkk$$<<##                                                          ",
"                                              11ffhhhhhhhhjjggkk$$<<##                                                          ",
"                                              ffjjhhhhhhhhjjjjaall$$<<$$                                                        ",
"                                              ffjjhhhhhhhhjjjjaall$$<<$$                                                        ",
"                                              ddjjhhhhjjjjzzddllss%%<<,,                                                        ",
"                                              ddjjhhhhjjjjzzddllss%%<<,,                                                        ",
"                                              ddjjhhhhjjjjzzddllss%%<<,,                                                        ",
"                                              ddjjhhhhjjjjzzddllss%%<<,,                                                        ",
"                                              ddzzhhhhjjzzzzll$$%%11<<<<                                                        ",
"                                              ddzzhhhhjjzzzzll$$%%11<<<<                                                        ",
"                                                zzhhhhjjzzddll$$ll11,,<<                                                        ",
"                                                zzhhhhjjzzddll$$ll11,,<<                                                        ",
"                                                ddhhhhjjzzssll$$ll11$$<<                                                        ",
"                                                ddhhhhjjzzssll$$ll11$$<<                                                        ",
"                                                ddhhhhjjzzkkll##$$$$,,                                                          ",
"                                                ddhhhhjjzzkkll##$$$$,,                                                          ",
"                                                sshhhhhhzz%%##<<<<88                                                            ",
"                                                sshhhhhhzz%%##<<<<88                                                            ",
"                                                  <<hhhhhhdd11<<<<xx                                                            ",
"                                                  <<hhhhhhdd11<<<<xx                                                            ",
"                                                  cchhjjzzkkkk$$%%$$,,                                                          ",
"                                                  cchhjjzzkkkk$$%%$$,,                                                          ",
"                                                jjcchhjjzzddkk$$%%$$,,                                                          ",
"                                                jjcchhjjzzddkk$$%%$$,,                                                          ",
"                                                jjhhccjjzzddkk$$%%$$,,                                                          ",
"                                                jjhhccjjzzddkk$$%%$$,,                                                          ",
"                                                jjhhccjjaaddkk$$%%$$,,                                                          ",
"                                                jjhhccjjaaddkk$$%%$$,,                                                          ",
"                                                jjhhjjssssvv77$$%%$$,,                                                          ",
"                                                jjhhjjssssvv77$$%%$$,,                                                          ",
"                                                sskkkkbbrrrrttpp,,####                                                          ",
"                                                sskkkkbbrrrrttpp,,####                                                          ",
"                                                aaggggbbeerrtt%%,,,,,,                                                          ",
"                                                aaggggbbeerrtt%%,,,,,,                                                          ",
"                                                aahhhhbbbbrrvvpp,,##                                                            ",
"                                                aahhhhbbbbrrvvpp,,##                                                            ",
"                                                aahhhhggbbttvv$$,,##                                                            ",
"                                                aahhhhggbbttvv$$,,##                                                            ",
"                                                aahhhhccffkk$$$$,,##                                                            ",
"                                                aahhhhccffkk$$$$,,##                                                            ",
"                                                aahhhhccffkk$$$$,,##                                                            ",
"                                                aahhhhccffkk$$$$,,##                                                            ",
"                                                ffhhhhhhggffkk%%,,##                                                            ",
"                                                ffhhhhhhggffkk%%,,##                                                            ",
"                                                  cccchhggaakk%%,,##                                                            ",
"                                                  cccchhggaakk%%,,##                                                            ",
"                                                  hhhhggddkkss$$##                                                              ",
"                                                  hhhhggddkkss$$##                                                              ",
"                                                  hhhhggggkk%%$$$$##                                                            ",
"                                                  hhhhggggkk%%$$$$##                                                            ",
"                                                aahhhhhhggss11%%$$##                                                            ",
"                                                aahhhhhhggss11%%$$##                                                            ",
"                                                aahhhhccggss11$$$$##                                                            ",
"                                                aahhhhccggss11$$$$##                                                            ",
"                                                ddddddkkkk$$$$,,,,                                                              ",
"                                                ddddddkkkk$$$$,,,,                                                              ",
"                                                  nnmmmmMM<<<<<<<<                                                              ",
"                                                  nnmmmmMM<<<<<<<<                                                              ",
"                                                  nnmmmmMM<<<<<<<<                                                              ",
"                                                  nnmmmmMM<<<<<<<<                                                              ",
"                                                  nnmmmmMM<<<<<<<<                                                              ",
"                                                  nnmmmmMM<<<<<<<<                                                              ",
"                                                  >>mmmmMM<<<<<<                                                                ",
"                                                  >>mmmmMM<<<<<<                                                                ",
"                                                    MMMMMM<<<<<<                                                                ",
"                                                    MMMMMM<<<<<<                                                                ",
"                                                    <<mm<<<<<<<<<<                                                              ",
"                                                    <<mm<<<<<<<<<<                                                              ",
"                                                  nnmmmmMM<<<<<<<<<<<<                                                          ",
"                                                  nnmmmmMM<<<<<<<<<<<<                                                          ",
"                                                  nnmmmmMM<<<<<<<<<<<<<<<<                                                      ",
"                                                  nnmmmmMM<<<<<<<<<<<<<<<<                                                      ",
"                                                  nnmmmmMM<<<<<<<<<<<<<<<<                                                      ",
"                                                  nnmmmmMM<<<<<<<<<<<<<<<<                                                      "
};
