/* XPM */
static char *still_back_left[] = {
/* columns rows colors chars-per-pixel */
"128 128 60 1 ",
"  c #00000000",
". c #FF0000A4",
"X c #FF000088",
"o c #FF000070",
"O c #FF000064",
"+ c #FF000058",
"@ c #FF0000A8",
"# c #FF0000E0",
"$ c #FF0000B0",
"% c #FF000098",
"& c #FF00007C",
"* c #FFD40000",
"= c #FFFC4040",
"- c #FF980000",
"; c #FF640000",
": c #FF4C0000",
"> c #FF000040",
", c #FF880000",
"< c #FF700000",
"1 c #FF580000",
"2 c #FF7C7C7C",
"3 c #FFA8A8A8",
"4 c #FF707070",
"5 c #FF2C2C2C",
"6 c #FF383838",
"7 c #FF000000",
"8 c #FF646464",
"9 c #FF545454",
"0 c #FF484848",
"q c #FF202020",
"w c #FFE88C58",
"e c #FF905C34",
"r c #FFB45400",
"t c #FF9C4C00",
"y c #FF6C4824",
"u c #FF543C1C",
"i c #FF403018",
"p c #FFBC7848",
"a c #FFFCB890",
"s c #FFFCA470",
"d c #FFE46C00",
"f c #FFDC8854",
"g c #FFB47044",
"h c #FF744C28",
"j c #FF483818",
"k c #FFF0945C",
"l c #FF9C6038",
"z c #FFDCDCDC",
"x c #FFB4B4B4",
"c c #FF989898",
"v c #FFECECEC",
"b c #FFD0D0D0",
"n c #FFC0C0C0",
"m c #FF8C8C8C",
"M c #FFA0643C",
"N c #FF885830",
"B c #FF000034",
"V c #FF00002C",
"C c #FF00001C",
"Z c #FF390900",
/* pixels */
"                                                                                                                                ",
"                                                                                                                                ",
"                                                                                                                                ",
"                                                                                                                                ",
"                                                                                                                                ",
"                                                                                                                                ",
"                                                                                                                                ",
"                                                                                                                                ",
"                                                                                                                                ",
"                                                                                                                                ",
"                                                                                                                                ",
"                                                                                                                                ",
"                                                                                                                                ",
"                                                                                                                                ",
"                                                                                                                                ",
"                                                                                                                                ",
"                                                                                                                                ",
"                                                                                                                                ",
"                                                                                                                                ",
"                                                                                                                                ",
"                                                                                                                                ",
"                                                                                                                                ",
"                                                                                                                                ",
"                                                                                                                                ",
"                                                  ....XXooooOO++                                                                ",
"                                                  ....XXooooOO++                                                                ",
"                                                @@##$$%%&&OO++++++++                                                            ",
"                                                @@##$$%%&&OO++++++++                                                            ",
"                                              **==**--;;::>>>>>>>>>>>>                                                          ",
"                                              **==**--;;::>>>>>>>>>>>>                                                          ",
"                                                @@::,,--,,,,<<<<11111111                                                        ",
"                                                @@::,,--,,,,<<<<11111111                                                        ",
"                                                223344556666665555555577                                                        ",
"                                                223344556666665555555577                                                        ",
"                                              882244889900665555qqqq77                                                          ",
"                                              882244889900665555qqqq77                                                          ",
"                                                    wweerrttyyuuuuiiii                                                          ",
"                                                    wweerrttyyuuuuiiii                                                          ",
"                                                  ppaassddttyyuuuuiiii                                                          ",
"                                                  ppaassddttyyuuuuiiii                                                          ",
"                                                  ppaaffgghhttyyjjii                                                            ",
"                                                  ppaaffgghhttyyjjii                                                            ",
"                                                  ppaaaakkllhhhhhhyy                                                            ",
"                                                  ppaaaakkllhhhhhhyy                                                            ",
"                                                  ppsskk66555577777777                                                          ",
"                                                  ppsskk66555577777777                                                          ",
"                                                      6666555577777777                                                          ",
"                                                      6666555577777777                                                          ",
"                                                    66zzxxxxcccc44886677                                                        ",
"                                                    66zzxxxxcccc44886677                                                        ",
"                                                33vvvvvvvvzzxxcc2288667766                                                      ",
"                                                33vvvvvvvvzzxxcc2288667766                                                      ",
"                                              33bbbbzznnnn3333cc228877qq9944                                                    ",
"                                              33bbbbzznnnn3333cc228877qq9944                                                    ",
"                                            33bbbb22333333cccccc229977qq998800                                                  ",
"                                            33bbbb22333333cccccc229977qq998800                                                  ",
"                                            bbzzbb444444mmmmmmmm22667766990000                                                  ",
"                                            bbzzbb444444mmmmmmmm22667766990000                                                  ",
"                                            vvzzzz449922222222229977qq99005500                                                  ",
"                                            vvzzzz449922222222229977qq99005500                                                  ",
"                                            vvzznnmm9944222222996677qq99005500                                                  ",
"                                            vvzznnmm9944222222996677qq99005500                                                  ",
"                                            vvzznnmm994422222299qq770099005500                                                  ",
"                                            vvzznnmm994422222299qq770099005500                                                  ",
"                                            vvzznnmm99884444997777009999665500                                                  ",
"                                            vvzznnmm99884444997777009999665500                                                  ",
"                                            vvzznn2299998899777700999999qq6600                                                  ",
"                                            vvzznn2299998899777700999999qq6600                                                  ",
"                                            vvzzxxcc99990077770066999900qq0000                                                  ",
"                                            vvzzxxcc99990077770066999900qq0000                                                  ",
"                                            nnxx222299777777777777777777660000                                                  ",
"                                            nnxx222299777777777777777777660000                                                  ",
"                                            vvbbxx99qq777777777777777777666600                                                  ",
"                                            vvbbxx99qq777777777777777777666600                                                  ",
"                                            nnzznn9966000099999900009999660000                                                  ",
"                                            nnzznn9966000099999900009999660000                                                  ",
"                                            vvzzxx9966998888888888998888990000                                                  ",
"                                            vvzzxx9966998888888888998888990000                                                  ",
"                                            vvzzxx99999988888888889988889900                                                    ",
"                                            vvzzxx99999988888888889988889900                                                    ",
"                                            vvxx2299999988888888880088889900                                                    ",
"                                            vvxx2299999988888888880088889900                                                    ",
"                                            33mm9966999988888888886688889900                                                    ",
"                                            33mm9966999988888888886688889900                                                    ",
"                                            aaMMMMuu6600000000006666666666uu                                                    ",
"                                            aaMMMMuu6600000000006666666666uu                                                    ",
"                                            kkkkppuu2244888899666666660099uu                                                    ",
"                                            kkkkppuu2244888899666666660099uu                                                    ",
"                                            kkkkNNuu2222228899006666000099                                                      ",
"                                            kkkkNNuu2222228899006666000099                                                      ",
"                                              kkppNNccccmm4488006600000099                                                      ",
"                                              kkppNNccccmm4488006600000099                                                      ",
"                                                vv3333ccmm4488006600000099                                                      ",
"                                                vv3333ccmm4488006600000099                                                      ",
"                                                vv3333ccmm4488006600000099                                                      ",
"                                                vv3333ccmm4488006600000099                                                      ",
"                                                vvzzbb33mm4488006600000099                                                      ",
"                                                vvzzbb33mm4488006600000099                                                      ",
"                                                  zzbb33mm4488006600000099                                                      ",
"                                                  zzbb33mm4488006600000099                                                      ",
"                                                vvvvxxcc880000666666000099                                                      ",
"                                                vvvvxxcc880000666666000099                                                      ",
"                                                vvzzbbxxcc88996655555599                                                        ",
"                                                vvzzbbxxcc88996655555599                                                        ",
"                                                vvzz33mm224488666666000099                                                      ",
"                                                vvzz33mm224488666666000099                                                      ",
"                                                bb3333mm224488666600000099                                                      ",
"                                                bb3333mm224488666600000099                                                      ",
"                                                  33mm44888800666600000099                                                      ",
"                                                  33mm44888800666600000099                                                      ",
"                                                  >>BBVV77777777777777CC                                                        ",
"                                                  >>BBVV77777777777777CC                                                        ",
"                                                  >>BBVV777777CC777777CC                                                        ",
"                                                  >>BBVV777777CC777777CC                                                        ",
"                                                  >>BBVV777777CC777777CC                                                        ",
"                                                  >>BBVV777777CC777777CC                                                        ",
"                                                  >>BBCC777777CC777777CC                                                        ",
"                                                  >>BBCC777777CC777777CC                                                        ",
"                                                  >>BBCC7777CC777777CCCC                                                        ",
"                                                  >>BBCC7777CC777777CCCC                                                        ",
"                                                    77777777CC777777CC                                                          ",
"                                                    77777777CC777777CC                                                          ",
"                                              >>>>>>BB77777777CC777777CC                                                        ",
"                                              >>>>>>BB77777777CC777777CC                                                        ",
"                                            >>>>BBCCCC77777777CC777777CC                                                        ",
"                                            >>>>BBCCCC77777777CC777777CC                                                        ",
"                                              >>BBCCCC77777777CC77777777                                                        ",
"                                              >>BBCCCC77777777CC77777777                                                        "
};
