/* XPM */
static char *still_back_right[] = {
/* columns rows colors chars-per-pixel */
"128 128 56 1 ",
"  c #00000000",
". c #FF0000A4",
"X c #FF000098",
"o c #FF000088",
"O c #FF000070",
"+ c #FF0000BC",
"@ c #FF0000B0",
"# c #FF0000C8",
"$ c #FF7C0000",
"% c #FF640000",
"& c #FFFC0000",
"* c #FFFC4040",
"= c #FFD40000",
"- c #FFBC0000",
"; c #FF880000",
": c #FF383838",
"> c #FF202020",
", c #FF000064",
"< c #FF0000A8",
"1 c #FF000000",
"2 c #FF484848",
"3 c #FF2C2C2C",
"4 c #FF646464",
"5 c #FF80502C",
"6 c #FFB45400",
"7 c #FFE46C00",
"8 c #FFA86840",
"9 c #FF6C4824",
"0 c #FFFC9840",
"q c #FFFCA85C",
"w c #FFFC8820",
"e c #FFCC6000",
"r c #FF9C6038",
"t c #FF905C34",
"y c #FFB47044",
"u c #FFF0945C",
"i c #FFE88C58",
"p c #FFBC7848",
"a c #FF483818",
"s c #FF989898",
"d c #FFD0D0D0",
"f c #FFB4B4B4",
"g c #FF707070",
"h c #FFA8A8A8",
"j c #FFDCDCDC",
"k c #FFECECEC",
"l c #FFFCFCFC",
"z c #FF8C8C8C",
"x c #FF7C7C7C",
"c c #FFC0C0C0",
"v c #FF545454",
"b c #FFFC9C60",
"n c #FF000040",
"m c #FF000034",
"M c #FF00001C",
"N c #FF390900",
/* pixels */
"                                                                                                                                ",
"                                                                                                                                ",
"                                                                                                                                ",
"                                                                                                                                ",
"                                                                                                                                ",
"                                                                                                                                ",
"                                                                                                                                ",
"                                                                                                                                ",
"                                                                                                                                ",
"                                                                                                                                ",
"                                                                                                                                ",
"                                                                                                                                ",
"                                                                                                                                ",
"                                                                                                                                ",
"                                                                                                                                ",
"                                                                                                                                ",
"                                                                                                                                ",
"                                                                                                                                ",
"                                                                                                                                ",
"                                                                                                                                ",
"                                                                                                                                ",
"                                                                                                                                ",
"                                                                                                                                ",
"                                                                                                                                ",
"                                                                ..XXXXooOOOOOO                                                  ",
"                                                                ..XXXXooOOOOOO                                                  ",
"                                                            ++@@@@@@......XXooOO                                                ",
"                                                            ++@@@@@@......XXooOO                                                ",
"                                                          ######++@@@@..$$%%%%%%%%                                              ",
"                                                          ######++@@@@..$$%%%%%%%%                                              ",
"                                                        &&****&&&&==--;;;;%%::>>                                                ",
"                                                        &&****&&&&==--;;;;%%::>>                                                ",
"                                                        ,,XX<<..XXooOO::11111111                                                ",
"                                                        ,,XX<<..XXooOO::11111111                                                ",
"                                                          ::2222::::33333311111111                                              ",
"                                                          ::2222::::33333311111111                                              ",
"                                                          22444422::::333355                                                    ",
"                                                          22444422::::333355                                                    ",
"                                                          66667777666666885599                                                  ",
"                                                          66667777666666885599                                                  ",
"                                                            00qqqqwweerrttyy99                                                  ",
"                                                            00qqqqwweerrttyy99                                                  ",
"                                                            uuuuiipp88rr55yy99                                                  ",
"                                                            uuuuiipp88rr55yy99                                                  ",
"                                                          22::::::33>>aa55rr99                                                  ",
"                                                          22::::::33>>aa55rr99                                                  ",
"                                                          22::::::33>>>>11                                                      ",
"                                                          22::::::33>>>>11                                                      ",
"                                                        ssddddddffssgg443311                                                    ",
"                                                        ssddddddffssgg443311                                                    ",
"                                                    hhjjjjkkllllllddzz3333xxhh                                                  ",
"                                                    hhjjjjkkllllllddzz3333xxhh                                                  ",
"                                                  hhjjjjkkllllllccgg33::ccllllddss                                              ",
"                                                  hhjjjjkkllllllccgg33::ccllllddss                                              ",
"                                                hhjjjjkkllllllccgg3333jjkkllllddffxx                                            ",
"                                                hhjjjjkkllllllccgg3333jjkkllllddffxx                                            ",
"                                                hhkkffllllllccvv33::jjjjccllllddhhgg                                            ",
"                                                hhkkffllllllccvv33::jjjjccllllddhhgg                                            ",
"                                                hhkkxxllllccvv33::jjllllxxccllddhhgg                                            ",
"                                                hhkkxxllllccvv33::jjllllxxccllddhhgg                                            ",
"                                                hhkkvvjjjjvv33::jjllffzzxxllllddhhgg                                            ",
"                                                hhkkvvjjjjvv33::jjllffzzxxllllddhhgg                                            ",
"                                                hhkkvvjjxx33::ssjjllffzzxxllllddhhgg                                            ",
"                                                hhkkvvjjxx33::ssjjllffzzxxllllddhhgg                                            ",
"                                                hhkkvvcc3333xxjjllllddccxxllllddhhgg                                            ",
"                                                hhkkvvcc3333xxjjllllddccxxllllddhhgg                                            ",
"                                                hhkkxxss33::cclllljjjjccvvllllhh4444                                            ",
"                                                hhkkxxss33::cclllljjjjccvvllllhh4444                                            ",
"                                                hhkkxx22::ggcclljjssddccvvllllllxxvv                                            ",
"                                                hhkkxx22::ggcclljjssddccvvllllllxxvv                                            ",
"                                                hhkkss333333333333>>1111ggllddzzhhxx                                            ",
"                                                hhkkss333333333333>>1111ggllddzzhhxx                                            ",
"                                                hhjjff333333333333>>1111ggkkllddvv44                                            ",
"                                                hhjjff333333333333>>1111ggkkllddvv44                                            ",
"                                                  jjffzzccccsscczzzz4444vvddkkddxxvv                                            ",
"                                                  jjffzzccccsscczzzz4444vvddkkddxxvv                                            ",
"                                                  jjssccllllkkllkkddhhhhggddkkddxxvv                                            ",
"                                                  jjssccllllkkllkkddhhhhggddkkddxxvv                                            ",
"                                                  jjssllllllkkllkkkkddcczzcckkddxxvv                                            ",
"                                                  jjssllllllkkllkkkkddcczzcckkddxxvv                                            ",
"                                                  hhccllllllccllkkkkddcczzffffddxxvv                                            ",
"                                                  hhccllllllccllkkkkddcczzffffddxxvv                                            ",
"                                                  hhccllllllzzllkkkkddccffggxxzzvvvv                                            ",
"                                                  hhccllllllzzllkkkkddccffggxxzzvvvv                                            ",
"                                                    hhffssssvv44xxssssssggggbbpptt                                              ",
"                                                    hhffssssvv44xxssssssggggbbpptt                                              ",
"                                                    hhddjjccxxssccjjjjjjjjggbbpptt                                              ",
"                                                    hhddjjccxxssccjjjjjjjjggbbpptt                                              ",
"                                                    ggddllllhhccddllllkkjjggbbpp                                                ",
"                                                    ggddllllhhccddllllkkjjggbbpp                                                ",
"                                                    ggkkllkkzzcckklllllljjssgg::                                                ",
"                                                    ggkkllkkzzcckklllllljjssgg::                                                ",
"                                                    ggkkllkkzzcckklllllljjssgg::                                                ",
"                                                    ggkkllkkzzcckklllllljjssgg::                                                ",
"                                                    ggkkkkllzzcckkllllllkkssgg::                                                ",
"                                                    ggkkkkllzzcckkllllllkkssgg::                                                ",
"                                                    ggkkkkllzzcckkllllllddssgg::                                                ",
"                                                    ggkkkkllzzcckkllllllddssgg::                                                ",
"                                                    ggllllddzzccddddddllkkccgg::                                                ",
"                                                    ggllllddzzccddddddllkkccgg::                                                ",
"                                                      gghhddhhvvllllllllkkssgg                                                  ",
"                                                      gghhddhhvvllllllllkkssgg                                                  ",
"                                                    gghhllddhhxxhhddddhhggggvv                                                  ",
"                                                    gghhllddhhxxhhddddhhggggvv                                                  ",
"                                                    ggddllddzzffllllllkkddssgg                                                  ",
"                                                    ggddllddzzffllllllkkddssgg                                                  ",
"                                                    ggddllhhzzffllllllkkddggvv                                                  ",
"                                                    ggddllhhzzffllllllkkddggvv                                                  ",
"                                                      hhxxxx44vvhhcchhzzxxvvvv                                                  ",
"                                                      hhxxxx44vvhhcchhzzxxvvvv                                                  ",
"                                                      nnnnmmMMnnnnmmMM111111                                                    ",
"                                                      nnnnmmMMnnnnmmMM111111                                                    ",
"                                                      nnnnmmMMnnnnmmMM111111                                                    ",
"                                                      nnnnmmMMnnnnmmMM111111                                                    ",
"                                                      nnnnmmMMnnnnmmMM111111                                                    ",
"                                                      nnnnmmMMnnnnmmMM111111                                                    ",
"                                                      nnnnmmMMnnnnmmMM1111                                                      ",
"                                                      nnnnmmMMnnnnmmMM1111                                                      ",
"                                                        111111111111111111                                                      ",
"                                                        111111111111111111                                                      ",
"                                                        nnnnmm11nnmm111111                                                      ",
"                                                        nnnnmm11nnmm111111                                                      ",
"                                                      nnnnnnmmnnnnmm1111111111                                                  ",
"                                                      nnnnnnmmnnnnmm1111111111                                                  ",
"                                                      nnnnmmMMnnnnnnmm1111111111                                                ",
"                                                      nnnnmmMMnnnnnnmm1111111111                                                ",
"                                                      nnmmMMMMnnnnnnmm11111111                                                  ",
"                                                      nnmmMMMMnnnnnnmm11111111                                                  "
};
