/* XPM */
static char *still_front_right[] = {
/* columns rows colors chars-per-pixel */
"128 128 60 1 ",
"  c #00000000",
". c #FF00007C",
"X c #FFFC5C5C",
"o c #FFFC2020",
"O c #FFA40000",
"+ c #FF880000",
"@ c #FF580000",
"# c #FF000064",
"$ c #FF00004C",
"% c #FF646464",
"& c #FFFCFCFC",
"* c #FFA8A8A8",
"= c #FFFC0000",
"- c #FFC80000",
"; c #FF0000A8",
": c #FF545454",
"> c #FFA80000",
", c #FF000000",
"< c #FF707070",
"1 c #FF383838",
"2 c #FF484848",
"3 c #FF2C2C2C",
"4 c #FFA0643C",
"5 c #FF000088",
"6 c #FF5C60FC",
"7 c #FFBC7848",
"8 c #FF9C4C00",
"9 c #FF905C34",
"0 c #FF403018",
"q c #FFC87C4C",
"w c #FFFCB890",
"e c #FFFCB080",
"r c #FFF0945C",
"t c #FF5C4020",
"y c #FFFC9C60",
"u c #FFE88C58",
"i c #FF9C6038",
"p c #FF6C4824",
"a c #FF543C1C",
"s c #FF80502C",
"d c #FFB47044",
"f c #FFFCA470",
"g c #FFECECEC",
"h c #FFB4B4B4",
"j c #FF7C7C7C",
"k c #FF202020",
"l c #FFD0D0D0",
"z c #FFDCDCDC",
"x c #FFC0C0C0",
"c c #FF8C8C8C",
"v c #FF989898",
"b c #FFFCF85C",
"n c #FFFCA85C",
"m c #FF382C14",
"M c #FF483818",
"N c #FF000034",
"B c #FF00001C",
"V c #FF00002C",
"C c #FF000040",
"Z c #FF390900",
/* pixels */
"                                                                                                                                ",
"                                                                                                                                ",
"                                                                                                                                ",
"                                                                                                                                ",
"                                                                                                                                ",
"                                                                                                                                ",
"                                                                                                                                ",
"                                                                                                                                ",
"                                                                                                                                ",
"                                                                                                                                ",
"                                                                                                                                ",
"                                                                                                                                ",
"                                                                                                                                ",
"                                                                                                                                ",
"                                                                                                                                ",
"                                                                                                                                ",
"                                                                                                                                ",
"                                                                                                                                ",
"                                                                                                                                ",
"                                                                                                                                ",
"                                                                                                                                ",
"                                                                                                                                ",
"                                                                                                                                ",
"                                                                                                                                ",
"                                                      ..........                                                                ",
"                                                      ..........                                                                ",
"                                                    ..XXXXXXooOO++@@##$$                                                        ",
"                                                    ..XXXXXXooOO++@@##$$                                                        ",
"                                                      %%&&**%%======--OO++@@$$                                                  ",
"                                                      %%&&**%%======--OO++@@$$                                                  ",
"                                                        $$;;;;::::$$++---->>>>,,                                                ",
"                                                        $$;;;;::::$$++---->>>>,,                                                ",
"                                                      **&&**<<1111::22113333,,                                                  ",
"                                                      **&&**<<1111::22113333,,                                                  ",
"                                                    ::::2211111111113333,,,,                                                    ",
"                                                    ::::2211111111113333,,,,                                                    ",
"                                                        ;;4455667788990000                                                      ",
"                                                        ;;4455667788990000                                                      ",
"                                                        qqwweeeerr77qq88tt                                                      ",
"                                                        qqwweeeerr77qq88tt                                                      ",
"                                                        44yyeeyyuu77iippaa                                                      ",
"                                                        44yyeeyyuu77iippaa                                                      ",
"                                                        ssqqddeerr77pptt                                                        ",
"                                                        ssqqddeerr77pptt                                                        ",
"                                                        44eeeeeeff44sstt,,                                                      ",
"                                                        44eeeeeeff44sstt,,                                                      ",
"                                                          ,,ssss4444,,,,,,                                                      ",
"                                                          ,,ssss4444,,,,,,                                                      ",
"                                                        ,,,,ffuugg::hh,,,,2222                                                  ",
"                                                        ,,,,ffuugg::hh,,,,2222                                                  ",
"                                                      hh11,,eegg,,&&::,,jj**jj%%22                                              ",
"                                                      hh11,,eegg,,&&::,,jj**jj%%22                                              ",
"                                                    hh<<33,,::,,**,,kk**llggzz**jj22                                            ",
"                                                    hh<<33,,::,,**,,kk**llggzz**jj22                                            ",
"                                                  jjzz<<33::jj**ggllllgggggghhxx**jj22                                          ",
"                                                  jjzz<<33::jj**ggllllgggggghhxx**jj22                                          ",
"                                                  <<hhcc3311jjzzllllllllggvvggllxxjj22                                          ",
"                                                  <<hhcc3311jjzzllllllllggvvggllxxjj22                                          ",
"                                                  <<hhll1133jj&&&&&&vvllxx::ggzzxxjj33                                          ",
"                                                  <<hhll1133jj&&&&&&vvllxx::ggzzxxjj33                                          ",
"                                                  <<vvggcc3322******ccll**::zzzzxxjj33                                          ",
"                                                  <<vvggcc3322******ccll**::zzzzxxjj33                                          ",
"                                                  <<vvhhll3333%%llll****cc33hhzzxxjj33                                          ",
"                                                  <<vvhhll3333%%llll****cc33hhzzxxjj33                                          ",
"                                                  <<ggjjgg%%3311%%****ccjj33vvzzxxjj33                                          ",
"                                                  <<ggjjgg%%3311%%****ccjj33vvzzxxjj33                                          ",
"                                                  <<ggjjgghh<<333322**ccjj33<<**xxvv33                                          ",
"                                                  <<ggjjgghh<<333322**ccjj33<<**xxvv33                                          ",
"                                                  <<gg22jjzz<<::333322ccjj,,vvggzzxx33                                          ",
"                                                  <<gg22jjzz<<::333322ccjj,,vvggzzxx33                                          ",
"                                                    **kkkkkkzzbbkkkkkkkkkk,,<<****vv33                                          ",
"                                                    **kkkkkkzzbbkkkkkkkkkk,,<<****vv33                                          ",
"                                                    ggkkkkkkbbnnkkkkkkkkkkkkhhggzzjj33                                          ",
"                                                    ggkkkkkkbbnnkkkkkkkkkkkkhhggzzjj33                                          ",
"                                                    jj<<cc**vv****jj::kkkkkkhhggzzxx::                                          ",
"                                                    jj<<cc**vv****jj::kkkkkkhhggzzxx::                                          ",
"                                                  <<ggccllgg**gghh**<<2233kkhhggzzxx::                                          ",
"                                                  <<ggccllgg**gghh**<<2233kkhhggzzxx::                                          ",
"                                                  <<gg**gggg**ggllhhjj::22kkhhzzxxcc33                                          ",
"                                                  <<gg**gggg**ggllhhjj::22kkhhzzxxcc33                                          ",
"                                                  <<gg**gggg**ggllhhcc%%::223333cc::33                                          ",
"                                                  <<gg**gggg**ggllhhcc%%::223333cc::33                                          ",
"                                                    dd**gggg**ggllhhcc<<%%::44ff44mmmm                                          ",
"                                                    dd**gggg**ggllhhcc<<%%::44ff44mmmm                                          ",
"                                                    rr%%jjjjjjjjjjjjjjjj11::wwrrqqiiMM                                          ",
"                                                    rr%%jjjjjjjjjjjjjjjj11::wwrrqqiiMM                                          ",
"                                                    rrzzhhhhjj%%jjhhhhvvjj::ddyyqqtt                                            ",
"                                                    rrzzhhhhjj%%jjhhhhvvjj::ddyyqqtt                                            ",
"                                                    sshhzzgghhjjccggllllvvvvyyqqssmm                                            ",
"                                                    sshhzzgghhjjccggllllvvvvyyqqssmm                                            ",
"                                                      hhggllhhjjvvggggzzxxcc77ssMM                                              ",
"                                                      hhggllhhjjvvggggzzxxcc77ssMM                                              ",
"                                                      hhggllhhjjhhggggzzhhvv%%::22                                              ",
"                                                      hhggllhhjjhhggggzzhhvv%%::22                                              ",
"                                                      hhggllhhjjhhggggzzhhvv%%::22                                              ",
"                                                      hhggllhhjjhhggggzzhhvv%%::22                                              ",
"                                                      hhggllhhjjvvggggzzxxjj%%::22                                              ",
"                                                      hhggllhhjjvvggggzzxxjj%%::22                                              ",
"                                                      hhggllhhjjjjggggzz**jj%%::22                                              ",
"                                                      hhggllhhjjjjggggzz**jj%%::22                                              ",
"                                                      ccgggghhjj<<ggggzzcc%%::22                                                ",
"                                                      ccgggghhjj<<ggggzzcc%%::22                                                ",
"                                                        ggxx<<jj%%zzggxx<<2222::11                                              ",
"                                                        ggxx<<jj%%zzggxx<<2222::11                                              ",
"                                                        zzggcccc::llggzzxxvv%%::11                                              ",
"                                                        zzggcccc::llggzzxxvv%%::11                                              ",
"                                                        zzll**vv%%xxzzggxxhhjj::11                                              ",
"                                                        zzll**vv%%xxzzggxxhhjj::11                                              ",
"                                                        cc**<<<<%%<<vvccccjj%%2211                                              ",
"                                                        cc**<<<<%%<<vvccccjj%%2211                                              ",
"                                                          NNNNNN,,BBBBBBBB,,,,,,                                                ",
"                                                          NNNNNN,,BBBBBBBB,,,,,,                                                ",
"                                                          NNNNNN,,,,NNNNVVVVBB,,                                                ",
"                                                          NNNNNN,,,,NNNNVVVVBB,,                                                ",
"                                                          NNNNNN,,,,NNNNVVVVBB,,                                                ",
"                                                          NNNNNN,,,,NNNNVVVVBB,,                                                ",
"                                                          NNNNNN,,,,NNNNVVVVBB,,                                                ",
"                                                          NNNNNN,,,,NNNNVVVVBB,,                                                ",
"                                                          BBBB,,,,,,,,,,,,,,,,                                                  ",
"                                                          BBBB,,,,,,,,,,,,,,,,                                                  ",
"                                                            BBNNCC,,NNNNNNNN,,                                                  ",
"                                                            BBNNCC,,NNNNNNNN,,                                                  ",
"                                                        NNNNNNNNNNNNNNNNNNNNBB,,                                                ",
"                                                        NNNNNNNNNNNNNNNNNNNNBB,,                                                ",
"                                                      NNNNNNNN,,NNNNNNVVVVBBBB,,                                                ",
"                                                      NNNNNNNN,,NNNNNNVVVVBBBB,,                                                ",
"                                                    CCNNNNVV,,,,NNNNVVBBBBBBBB,,                                                ",
"                                                    CCNNNNVV,,,,NNNNVVBBBBBBBB,,                                                "
};
