/* XPM */
static char * eagle_xpm[] = {
"64 64 56 1",
" 	c #FF383838",
".	c #FF545454",
"+	c #FF484848",
"@	c #FFEC0000",
"#	c #FFD40000",
"$	c #FFA40000",
"%	c #FFE00000",
"&	c #FFC80000",
"*	c #FFBC0000",
"=	c #FFFCF400",
"-	c #FFB00000",
";	c #FF880000",
">	c #FF640000",
",	c #FF2C2C2C",
"'	c #FF7C0000",
")	c #FF980000",
"!	c #FF700000",
"~	c #FFE4D800",
"{	c #FFCCC400",
"]	c #FF848400",
"^	c #FFB4B4B4",
"/	c #FF706C00",
"(	c #FFA86840",
"_	c #FF9C9C00",
":	c #FF585400",
"<	c #FF707070",
"[	c #FF7C7C7C",
"}	c #FFE88C58",
"|	c #FF543C1C",
"1	c #FF989898",
"2	c #FF580000",
"3	c #FFFC2020",
"4	c #FF400000",
"5	c #FFFC0000",
"6	c #FFC0C0C0",
"7	c #FFA8A8A8",
"8	c #FFD0D0D0",
"9	c #FF8C8C8C",
"0	c #FF6C0070",
"a	c #FF646464",
"b	c #FF580058",
"c	c #FF600064",
"d	c #FF500050",
"e	c #FF202020",
"f	c #FFB45400",
"g	c #FFCC6000",
"h	c #FFFC7800",
"i	c #FF480048",
"j	c #FFFC8820",
"k	c #FF840084",
"l	c #FF400040",
"m	c #FF4C0000",
"n	c #FF9C009C",
"o	c #FF404040",
"p	c #FF303030",
"q	c #FF744C28",
"                                                                ",
". .+++++.++++++.+ +++++++......+++++++++.......++++   ++..+++++ ",
" @@#########$++.@@##################$+ .@@@@%%%%%%#####&&&&***$+",
"+=&--#;$#;&$>,+.@*;*;*;*'*)*)*'*'*&$!,+ #$&-&--&!&'&-&;-$'&)&$=,",
"~{]^^^^^^^^^^^^^^^^^^^^^^^^^^^^^^^^^^^^^^^^^^^^^^^^^^^^^^^^^^{{/",
"(_:<<[[[[[[[[[[[[[[[[[[[[[[[[[[[[[[[[[[[[[[[[[[[[[[[[[[[[[<<</}:",
"+|$[[[[11111111111111111111111111111111111111111111111111[<[[2(,",
"+*'1[3$44.!!!!!!!!!!!!!!!!!!!!!!!!!!!!!!!!!!!!!!!!$-5%[444[6<24,",
"+*$7[$61<4[76866^^^^^^^^^^^^^^^^^^^^^^^^^^^^^^^^66666[4[<13[<24,",
"+'>^14161[91779[786^^^^^^^^^^^^^^^^^^^^^^^^^^^^90a6^777<78$<[44,",
"++,8741761[[11.b<78866^^^^^^^^^^^^^^^^^^^^^^669acd1771178[4[1ee,",
".  8^.<1^61[[9dbbb[7866666^^d<.ddddfgh^^^^669acbdd1111786a.97e,,",
"@##^84[17^61<a+iddbb[7^^^^^^ddddd[dffgj^^^9acbddd+1117667[41722#",
"-;;^8!1917^ab<a+iiddbbb[9^^^<ddddddf9^^9accbbddd+<<da7679[47^22-",
";$;^8-7191a0c+<a+iiiikbbb<9^^dddddd9^9accbkdddi+<.0cca71[9!7^22)",
"!$$^^)^199ic0cb+a+ ii0ibbbb^^dddddd^^bccbd0ii +a+dcc0019[9!7^22'",
"$;;^^;6719iic0ccb+. lliiib.^^dddddd^^.iiiiii ++idbc0009[99!7^22'",
"!$>^^!8^71+iic00cbillllii9^^<dddddd<^^9iiillliidbc000.9[91!^^22;",
"!->^^!86^1a+ibcc0cb0llli9d<^dddddddd^<i9illibiibc000.[[997!^^22!",
"4mm^^!88ad<..+bcc0bkdllidid^^dddddd^^iiiiiib0dbcc0.[a++a17!^^424",
",,,^^!^8bdi+...+cc0bkdddidi[adddddda[iiiiii0bbcc.9[a+lli17!^^ee,",
"..+^^!^8cbdiil ++.abbbbiiiddddddddddiiiiiiddb.a9[.dillli77!^^e,,",
".@@66'6^ccddillliibnbbbiidddddddddddiiiiidbbnbbbddillllb77!^^22,",
".@;88)86bcbdiillliikbbbddddddddddddddiiddbbbnbbbdiilllib17'^^24,",
" @-66;61<bcddillili0bbdddddd..a<<a..dddbbbbbkbbdiilllli<17'^^24,",
"+*>^^'^11<+bdiiididb0ddddddda0n00n0addbbbbbkbbdiiilll+<11^;^^24,",
"+*-^^!^db+a<<aa.+opidbkbdddd[n0000n[dbdbbkbbb..+o o+.a+c06)6624,",
".*!77!7ddbbbbdididididbk0ddd.000000.ddb0kbbbbdiiiiliidbc08)8824,",
"+&$77>7dddbbbddidididddddddd[n0000n[dbdbdbbbdiiiiiiidbbcc6)6624,",
"+$)11m1ddbdbdbdddddddddddddd.0n+0n0.ddbdbbbddiiiiiiiddc0c6;6624,",
"++ 7727dddbdbdddddd.dddd.ddd[.0+00.[dbd.bddd.iiiiiiiddccd^'^^ee,",
"...77>7adddddddd+<ddddd.dddd.[[..[[.dddb.ddidi<+iiiddbcba^!^^e,,",
"***^^!^1adddd+<<dddddd<ddddddd.[[.ddddbdd<ddiiid<<+ddbba1^!^^22*",
"$-$^^!^^^1111<ddddddd<dddddddddddddddddddd<idiiiid<1111^77>7722$",
"$';^^!^^11<ddddddddd<dddddddddddddddddddddd<idididbbb<111121122!",
";'$^^!^^ddddddddddd<dddd<d<dddddddddd<d<dddd<ididbbbbbdd99m9922!",
"$;'^^!^^dddddddddd<dddda1<dddddddddddd<1adddd<ddddbbbbdd1121122;",
"$;'^^'^^<dddddddd<ddddd1dddddddddddddddd1ddddd<ddbbbbbd<11>1122!",
"!!;^^'^^1ddddddd<ddddd1dddddddddddddddddd1ddddd<ddbdbdd177>7722!",
"44m^^;^^^<ddddd<dddddddddddddddddddddddddddddddd<dddbd<^^^>^^224",
",,,66;666^<ddd<dddddd1dddddddddddddddddddd1dddddd<ddd<^^^^!^^ee,",
".+.88$888^^1111ddddd1^ndddddd<dddd<ddddddn^1ddddd1111^^^^^!^^e,,",
" @#66)666^^^^^11ddd1^^^<dddddddddddddddd<^^^1ddd11^^^^^^66;6622,",
".#$^^)^^^^^^^[ff[^^^^[fddddddddddddddddddf[^^^^[ff[^^66666;6624,",
"+#$^^;^^^^^^^ffffffffffqqdd<^dddddd^<ddqqffffffffff6666888)8824,",
"+#;^^;^^^^^^^^[aqffffqq[^^^^dddddddd^^^^[qqffffqa[^^^66666)6624,",
" #$^^'^^^^^^^9ffffffffff^^^dddddddddd^^^ffffffffff9^^^^^66;6624,",
".#$77!7777^^^fqq9ffq^9qf^[dddddddddddd[^fq9^qff9qqf^^^^^^^!^^24,",
" &$77!777777^q[9^fq^^^^[.dddddddddddddd.[^^^^qf^9[q^^^^^^^!^^24,",
".$>^^!^^^^^^^^^^^fq^^[.dddddddddddddddddd.[^^qf^^^^^^^^^^^!^^44,",
" +,^^!1^^^^^^^^^^9f^ddddddddd[dddd[ddddddddd^f9^^^^^^^^^^1!^^ee,",
". .^^![^^^^^^^^^^^^^[.ddddda^dddddd^addddd.[^^^^^^^^^^^^^[!^^e,,",
"###^^[![1^^^^^^^^^^^^^[.dda^[dddddd[^add.[^^^^^^^^^^^^^1[![^^22*",
"'$2[^^[!!![1^^^^^^^^^^^^^^^^dddddddd^^^^^^^^^^^^^^^^19!!![1^[22!",
"$''2[^^^1[!!!![1^^^^^^^^^^^^adddddda^^^^^^^^^^^^1[!!!!91^^^[222m",
"$'222.[^^^^^1[!!![1^^^^^^^^^^adddda^^^^^^^^^^1[!!![1^^^^^[.222!;",
"')22222.[^^^^^^1[!!![1^^^^^^^^adda^^^^^^^^1[!!![1^^^^^[.22222>!$",
">$'$>2>2222.[^^^^^1[!!![1^^^^^^aa^^^^^^1[!!![1^^^^^[.222222!2$!$",
">$''>))>222222.[^^^^^1[!!!![1^^^^^^1[!!!![1^^^^^[.2222222!$!2>$m",
"')2$>>;>''$2222224.[^^^^^1[!!![11[!!![1^^^^^[.4,,,2222$2$!$!$>$!",
"mmmmmmmmmmmmmmmm44ee,.[^^^^^1[!!!![1^^^^[.mmm44e,,244mmmmmmmmmmm",
",,,,,,,,,,,,,,,,,,,eeeee,.[^^^^^^^^^^[.eeeee,eee,,,,,,,,,eeeee,,",
" . .   +++++.    ,,,,,,,eeeee.[^^[.,eeeee,,,,,,,,  ++.++++o o+++",
"...................+   ,,eeeeeeeeeeeeeeeee,   ++................"};
