/* XPM */
static char *frame_054[] = {
/* columns rows colors chars-per-pixel */
"64 64 19 1 ",
"  c #202020",
". c #2C2C2C",
"X c gray22",
"o c #700000",
"O c #706C00",
"+ c #484848",
"@ c gray33",
"# c #646464",
"$ c gray44",
"% c #7C7C7C",
"& c #FCF400",
"* c gray55",
"= c #989898",
"- c gray66",
"; c #B4B4B4",
": c #C0C0C0",
"> c #D0D0D0",
", c gainsboro",
"< c #ECECEC",
/* pixels */
"................................................................",
"@@@@@@+,,,,,,,,,,,,,,,,,,,,,,,,,,,,+++++++++++++++++++@@@@@@@@@@",
"@@@@@@+,>>>:>>>>>>:>>>*>>>*:-*;*-**XX$**************%$#+++++++++",
"**** @+,>:;>;>:;>::;>*:;>*:-*--*-*-XX*,,,,,,,,,,,,,,:;-*********",
";>** @+,>----*----=---*---*-:****--XX*,,:::::::::::>,,,,,>>>>>>>",
"--%$ @+<:=------=-****:***:-*-*--**XX*,;-*-*---*---*---**-*-*-*=",
"-*%$ @+;;-*-=-*===*=--*=--**:***-*-XX*,;*-*=**%=*%*=**%-**==-=*-",
"*=#@ @+;**=*---*%*=-**:-**:**-*---*XX*,;-*=%-%-*-==*-=%*-*--*%-=",
"=$++ @+$@@@@@@@@@@@@@@@@@@@@@@@@@@XXX%,,*-*%=-*%=%-%=%=*-*=%--%*",
"$@++ @+XXXXXXXXXXXXXXXXXXXXXXXXXXXX+++:>***=--%=-=*====**-*--*-*",
"@+XX @+                             @+:;*-*-***-**%-***$$#######",
"+   .@@@@@@@@@@@@@$$**--,,,,,,,,,,,,@+;*$$###@###@###@@@@+++++++",
" ....@@@@$$,,,,,,,,,,,,,;;;;-;;;;;,,@+*$##@+++@+++@+++XXXXX.....",
"....+@@@@$>;;;;;ooooooooooooooooooooooooooooooooooXXXXX..       ",
"XXXXX@@@@$>-*-=oO&&&&&&&&&&&&&&&&&&&&&&&&&&&&&&&&Oo....XXXXXXXXX",
"@+XXX@@@@$:*-=*o&OooooooooooooooooooooooooooooooO&o@++++++++++++",
"======@@@+::=**o&o>o>o>>o>>oo>>ooo>o>>>o>>o>o>o>o&o#-===========",
">>>>>>@@@+*:*-*o&o>o>o>oo>o>o>o>o>o>o>oo>oo>>>o>o&o#,,,,,,,,,,,,",
"-=*-*-X@@+$=-*-o&o>o>o>>o>>oo>>oo>o>o>oo>>o>>>o>o&o#=***;;;;;;;;",
"-*-*-*X@@@+==$$o&o>o>o>oo>o>o>o>o>o>o>oo>oo>o>ooo&o#%%%%-=-*=*==",
"-=*-*-X@@@++@@@o&oo>oo>>o>o>o>>ooo>oo>oo>>o>o>o>o&o#-***=**=%%**",
"-*-*-#X@@@+XX..o&oooooooooooooooooooooooooooooooo&o#*===-%-*=*==",
"*-%%*#X@@@@@@XXo&oooooooooooooooooooooooooooooooo&o#-***=**=%%**",
"**%%*X @@@@@@@@o&oooooooooooooooooooooooooooooooo&o#-===%%-*%%*=",
"**--#X @@@@@@@@o&ooooo%%%o%o%%%%%o%%o%%%%%%o%%ooo&o#-***%%**-*-*",
"=-*#X X@@=,,,,:o&oooooooooooooooooooooooooooooooo&o.****-*##$%**",
"###X X@@=,,:---o&ooo%%%%%%o%%%o%%o%%%%%o%%%%%%ooo&o@+++++++++@@@",
"@XX X@==,:--=-%o&oooooooooooooooooooooooooooooooo&o#         XX+",
"  X@#=,,:-*%*==o&ooo%%%o%%%%%%%o%%%o%o%%%%o%%%ooo&o#+ XXXX...   ",
"+##$=,,::-*=--*o&oooooooooooooooooooooooooooooooo&o#$ @<<<::=XXX",
"#*;,,,:-==-**=*o&oooooooooooooooooooooooooooooooo&o#+ @<::<<<=X@",
"#;>>:;=*=%-*%%*o&ooooo%%%o%%%%%%%%o%o%%o%%%o%%ooo&o#X @<-----=X@",
"#,;--**-=*-*-%*o&oooooooooooooooooooooooooooooooo&o#X.@<**-**%X@",
"##;=*****-=*=-*o&ooo%%o%%%%%o%%%%o%%%%%%%%o%%%ooo&o#X.@<--*-*#X+",
"#+#=-*--==%-%%%o&oooooooooooooooooooooooooooooooo&o#..@<**-*-#X+",
"##+############o&ooo%%%%o%%%%%%%%%%o%o%%%%o%%%ooo&o@ .@<-**--@X+",
"#++XX........  o&oooooooooooooooooooooooooooooooo&o@ .@<*-**-@XX",
"#@@@@++++++++++o&ooo%%%o%%o%%%%%o%o%%o%%%%%%o%ooo&o X @@@@@@@@XX",
"#,,,,,,,,,,,,,,o&oooooooooooooooooooooooooooooooo&o            X",
"#,>>;;;;;;;***-o&ooo%%%%o%o%%%%o%%%o%%%%%o%%%%ooo&o+++XXXXXXXXXX",
"#,;--*-**%*-*%*o&oooooooooooooooooooooooooooooooo&o#%%%%%%%%%%X@",
"#,;**-**-*-**-*o&oooooooooooooooooooooooooooooooo&o#:;:::::::%X@",
"#>;--=--*-**%*-o&ooooooooooooooooooo>*>*;>=>;>ooo&o#<<<<,,>>=#.+",
"#>;=-*--*-*-***o&OooooooooooooooooooooooooooooooO&o#:-::;::;%@.+",
"#:;-*-**-*-%=*-oO&&&&&&&&&&&&&&&&&&&&&&&&&&&&&&&&Oo#***-*-*-$@.X",
"+:**-*-----*-**#oooooooooooooooooooooooooooooooooo##=*-*---*$@.X",
"+;---******-*-**###@@@X   +########################*==*-*-*-$@.X",
"+%%%@@--*-**-**-***$#@X   .;,>--****%**-*=*-=%**-**-*%%*%=*=$@ X",
"+X   @@@@@##########@@X   .-,>**-*-**-*%%==*-*-=*-**%***-*%%$@ X",
"@@@+X  . XXXXXXXXXXXXXX   .*>;;**-*-%**=%=*=%-**%****-*%*=%%$@ X",
"+++++++...                .*=$$$$$$$-*--**%***%**-*-**-****=$@ X",
"+%----=*#++@XX............X@+XX.....@$$%*%%%%%%%%%%%%%%%%%%%#@ X",
"+-:,,,,,:--*$#@+XXXXXXXXXX+@++XXXXXX.+@@@@@@@@@@@@@@@@@@@@@@@ .X",
"+-,--*:>,,,:--------***%%$##@@+++++XX.............           .X+",
"+-,---;;*-:,,,,,,,,,,,,>>::-----*+@+XXXXXXXXX...............XX++",
"+-,-*-%%-=*%-*-*-*--*-*--;:,,,>:%X+@+,,,,,,,,,,,,,,,,,,,,,,,,,+@",
"+->---=-*=*=-**-%%*-%***-*-*---%# X@+-,,----*-*-=-*--*-*-=-*,,@@",
"+-:-*-%%=-*--=*%-%*%=*-*-*-*---#@ X++,--,*-*---*-*--*---*-*-%%+@",
"+-*############################@@X X+,;;;==*-==-=--=--==-=--,= @",
"+*#XXXXXXXXXXXXXXXXXXXXXXXXXXXXXXX .+;-;;==--*=-**-*---*-*-*-@ @",
"+X                                 .+X+X@###%%=--==--==-=--**@ @",
"@+XXX...............................X@@XX     X@@@@@@@@@@@@@@@ @",
"@@@@++++++++XXXXXXXXXXXXXXXXXXXXXXXXX@@@@XXXXXX                @",
"XXXXXXXXXXXXXXXXXXXXXXXXXXXXXXXXXXXXXXXXXXXXXXXXXXXXXXXXXXXXXXXX"
};
