/* XPM */
static char *frame_053[] = {
/* columns rows colors chars-per-pixel */
"64 64 11 1 ",
"  c black",
". c #202020",
"X c #2C2C2C",
"o c gray22",
"O c #484848",
"+ c gray33",
"@ c #646464",
"# c gray44",
"$ c #7C7C7C",
"% c gray55",
"& c #989898",
/* pixels */
"                                                                ",
"...........&&&&&&&&&&&&&&&&&&&&&&&&&%%$$@+. ....................",
"...........&%%%$%%%%%%$%%%+$@+$#+@++++++@.. .o++++++OoX.........",
"++++++++ ..&%$#%#%$#%$$#%+$@+@$@+@+@+@+@+.. .+&&&&&&$#@+++++++++",
"%&%%#@++ ..&%@@@@+@@@@@@@@+@@+$+++@@$@++o.. .+&&$$$%&&&&&%%%%%%%",
"@@@@@@Oo ..%$@@@@@@@@@++++@@+@@+@@++@+@o... .+&#@+@+@@@++@+@+@+@",
"#@@@@+Oo ..##@+@@@+@@@+@@@++++O++@+@@+@o... .+&#+@+@+++@++@@@@+@",
"##O#+@X. ..#++OOOOOOOOOO+++++@++OOO+++Oo... .+&#@+@O@@O+@+@@+O@@",
"@@@@@o..  .o..............................  .O&&+@+O@O@+@+@O@@O+",
"++++o...  ..............................   ...$%+++@@@@++@+@@+@+",
"oooo....  .                                ...$#+@+@+++ooXXXXXXX",
".....     ........oo++@@&&&@+..&&&&&&&&&&@o...#+ooXXX...........",
"         oo&&&&&&&&&&&&&$$$$o..&&#%%%%%%@o. ..+oXX.........     ",
"        .o%##############+#+o..&$&@#+@+@+o. ...........         ",
".........o%@+@@+O+O+@+@@@@@@o..&@@@++++++.. .          .........",
".........o$+@@+@@@+@+@@+@+@+o..&+@++@+@+@.. ....................",
"@@@@@@....$$@++@@O++++@@@++@o..&@++@@+@++..o@&&$##@@@@@@@@@@@@@@",
"%%%%%%....+$+@+O+++@+o@@@@@+o..&+@@++@+@+..+&&&&&&&&&&&&&&&&&&&&",
"@@+@+@....o@@+@@+@o+o+@+@+@+o..#+@+oooo....#&&$@@@@+@+@+########",
"@+@+@+.....@@oooo..o.oooooooo..oooo........@&$+@+@+@O@OO@@@+@+@@",
"@@+@+@..............  ..............       @&@@@@O@@@+@+@++@OO++",
"@+@+@X.....                  ..  .         +&@@@+@+O+O+@@O@+@+@@",
"+@OO+X..........        .  ....++@@@@++O. ..#+@+O@@@++@+@++@OO++",
"++OO+...O&&&&&&&&&&&&&&&&&&&&&%&&&&%%@@OX ..o@@@O@+@+O+@OO@+OO+@",
"++@@+...O$$$$$$$$$$$$$$$$$$$$$$$$$$%@@@o. ..oO@+@OO+@+@+OO++@+@+",
"@@++@...O$@@+++@@+@@+@@++@++@+@@+@@@@@+X. ...oooOOOOOOOOOOXXoO++",
"XXXX....O$++@+@+@++++++@+@@+@+O@@+++@+@.. ......................",
"........o$O++++@+@O+@O++@++@+@@++O+@@++.. ..XXXX....         ...",
"      ...OO+++@@++O++O+@++@+@++O+O+++@+.. .o+++OooXX......      ",
".XXo+@...O+@++++@++@@+@+O@@+++O+O+@O++@.. .o%%%%%%%%%%%%%%$$@...",
"X+#&&& ..oO+@@O++@O+OO+@o++@+@+@OO+O+@+.. .o&#+#%%%%%%#+$$%%#@..",
"X#%%$# ...oO++O+@+@@@O++@O++@+O+OO@+@+O.. .o&@@@@@@@@+#@@@@@@@..",
"X&#@@+@ ...oO@+@+O+@+O+@+O+@+@+@+@OO+@o.. .o&@@+++@@++@@++@++O..",
"X&#@+@+ .. .oOO+@o@+@+@+@+@+O@++O+OO@+o.  .o#+@@+++@+@++@@+@+X..",
"X&@@@+@ ..........oOOOOOOOOOOOOOO@+@+@X.  .o#@+@++++@+@@++@+@X..",
"X&#@++@ ...       ..............XoOOOOX.  .o#+@@+++++@@+@++@@...",
"X     ...........                ........ .ooO.@@++@++@@+@++@...",
"X.....................                    ......................",
"X&&&&&&&&&&&&&&&&$$+.....XOOOOOOOOOOOOO  ....                  .",
"X&%%#######+++@+@++@X.   O$$$$$$$$$$$$$+oo......................",
"X&#@@+@++O+@+O+@++@+X.   O$%%%%%%%&%%&%$$$$##@@++OOOOOOOOOOOOo..",
"X&#++@++@+@++@+++O+@o.   O$%#$$$$$@$@@+$%%%%%&&$$$$$$#$$$$$$$O..",
"X%#@@@@@+@++O+@@@+++X.   X$&#++++++@@+@@$$##@@@%%%%%%%%%&&%%@X .",
"X%#@@+@@+@+@++++O@+@X..  .$&$+@++++@+@@+@+@@@+@%$#$$$@$$#$$#O. .",
"X$#@+@++@+@O@+@++@++X.. X$&#+O++@O+++O@@@+@+@@@++@+@+++@+@+@o. .",
".$++@+@@@@@+@+++@+@+o.. .$&$+@@O@O+@@@@+@+@@@+@O@+@@@+@+@@@+o. .",
".#@@@++++++@+@+++@++o.. .$&$+@+@O@+@+@@++@@@+@+@++O+@@+@+@+@o. .",
".OOO..@@+@++@++@+++oX..  #&%@@++++++O++@+@+@@O++@++@+OO+O@+@o. .",
"..   .....XXXXXXXXXX...  +&%++@+@+@++@+OO@@+@+@@+@++O+++@+OOo. .",
".....    ..............  O%##++@+@+@O++@O@+@O@++O++++@+O+@OOo. .",
".......                  ooooooooooo@+@@++O+++O++@+@++@++++@o. .",
".O@@@@@+X.....            .....     .ooO+OOOOOOOOOOOOOOOOOOOX. .",
".@$&&&&&$@@+oX...................... ........................  .",
".@&@@+$%&&&$@@@@@@@@+++OOoXX.........                         ..",
".@&@@@##+@$&&&&&&&&&&&&%%$$@@@@@+............               ....",
".@&@+@OO@@+O@+@+@+@@+@+@@#$&&&%$O....&&&&&&&&&&&&&%%%%$$$$$#@O..",
".@%@@@@@+@+@@++@OO+@O+++@+@+@@@OX ...@$$@@@@+@+@@@+@@+@+@@@+OO..",
".@$@+@OO@@+@@@+O@O+O@+@+@+@+@@@X. ...&@@++@+@@@+@+@@+@@@+@+@OO..",
".@+XXXXXXXXXXXXXXXXXXXXXXXXXXXX... ..$###@@+@@@@@@@@@@@@@@@@OO .",
".+X...............................  .#@##@@@@+@@++@+@@@+@+@+@. .",
"..                                  .....XXXOO@@@@@@@@@@@@@++. .",
".....                               .....     ................ .",
"...............................................                .",
"................................................................"
};
