/* XPM */
static char *cluster1_42_wall[] = {
/* columns rows colors chars-per-pixel */
"128 128 78 1 ",
"  c #FF0E0E0F",
". c #FF0F0F11",
"X c #FF100F12",
"o c #FF141416",
"O c #FF18171C",
"+ c #FF17181C",
"@ c #FF191A1D",
"# c #FF1B1C20",
"$ c #FF232324",
"% c #FF272729",
"& c #FF2C2B2D",
"* c #FF30302F",
"= c #FF2E2E31",
"- c #FF302F31",
"; c #FF333233",
": c #FF373638",
"> c #FF3D3D3D",
", c #FF413F3F",
"< c #FF40403F",
"1 c #FF3F3F40",
"2 c #FF403F41",
"3 c #FF434343",
"4 c #FF4D4C4C",
"5 c #FF504F4E",
"6 c #FF52514E",
"7 c #FF4F4F50",
"8 c #FF545353",
"9 c #FF585756",
"0 c #FF595957",
"q c #FF615E5B",
"w c #FF5F605E",
"e c #FF62615F",
"r c #FF646362",
"t c #FF696966",
"y c #FF6D6C6B",
"u c #FF706F6C",
"i c #FF71716E",
"p c #FF757572",
"a c #FF787773",
"s c #FF797875",
"d c #FF7C7C79",
"f c #FF817F7B",
"g c #FF82817D",
"h c #FF878581",
"j c #FF888782",
"k c #FF8B8A85",
"l c #FF8F8E89",
"z c #FF908F8A",
"x c #FF93928D",
"c c #FF979691",
"v c #FF989791",
"b c #FF9F9E98",
"n c #FFA19F9A",
"m c #FFA4A39C",
"M c #FFA7A6A0",
"N c #FFA8A6A0",
"B c #FFACABA4",
"V c #FFB0AFA8",
"C c #FFB3B2AB",
"Z c #FFB8B6AE",
"A c #FFBCBBB3",
"S c #FFC0BFB7",
"D c #FFC6C5BD",
"F c #FFC8C7BF",
"G c #FFC9C8BF",
"H c #FFCECDC4",
"J c #FFD0CEC6",
"K c #FFD1D0C7",
"L c #FFD5D4CB",
"P c #FFD8D7CE",
"I c #FFD9D8CF",
"U c #FFDBDAD1",
"Y c #FFE0DFD5",
"T c #FFE2E1D7",
"R c #FFE7E6DC",
"E c #FFE8E7DD",
"W c #FFEAE9DE",
"Q c #FFEBEAE0",
/* pixels */
"EEEEEEEEEEEEEEEEEEEEEEEEEEEEEEEEEEEEEEEEEEEEEEEEEEEEEEEEEEEEEEEEEEEEEEEEEEEEEEEEEEEEEEEEEEEEEEEEEEEEEEEEEEEEEEEEEEEEEEEEEEEEEEEE",
"EEEEEEEEEEEEEEEEEEEEEEEEEEEEEEEEEEEEEEEEEEEEEEEEEEEEEEEEEEEEEEEEEEEEEEEEEEEEEEEEEEEEEEEEEEEEEEEEEEEEEEEEEEEEEEEEEEEEEEEEEEEEEEEE",
"EEEEEEEEEEEEEEEEEEEEEEEEEEEEEEEEEEEEEEEEEEEEEEEEEEEEEEEEEEEEEEEEEEEEEEEEEEEEEEEEEEEEEEEEEEEEEEEEEEEEEEEEEEEEEEEEEEEEEEEEEEEEEEEE",
"EEEEEEEEEEEEEEEEEEEEEEEEEEEEEEEEEEEEEEEEEEEEEEEEEEEEEEEEEEEEEEEEEEEEEEEEEEEEEEEEEEEEEEEEEEEEEEEEEEEEEEEEEEEEEEEEEEEEEEEEEEEEEEEE",
"EEEEEEEEEEEEEEEEEEEEEEEEEEEEEEEEEEEEEEEEEEEEEEEEEEEEEEEEEEEEEEEEEEEEEEEEEEEEEEEEREEEEEEEEEEEEERREEEEEEEEEEEEEEEEEEEEEEEEEEEEEEEE",
"EEEEEEEEEEEEEEEEEEEEEEEEEEEEEEEEEEEEEEEEEEEEEEEEEEEWQQQQQQQQQQQQQQQWEEEEEEEWWWWWWWWWWWQWWWWWWWWWWEWEEEEWWWWWWEEEEEEEEEEEEEEEEEEE",
"EEEEEEEEEEEEEEEEEEEEEEEEEEEEEEEEEEEEEEEEEEEEEEEEEWRmdghkhkghgddhlkjBREEEEEWAaaaassfaassaaapmmpaauetreqruyiippHWEEEEEEEEEEEEEEEEE",
"EEEEEEEEEEEEEEEEEEEEEEEEEEEEEEEEEEEEEEEEEEEEEEEEWRj#oooooooooooooo3DWEEEEEQlooooooooooooo <Dy oX............@AQEEEEEEEEEEEEEEEEE",
"EEEEEEEEEEEEEEEEEEEEEEEEEEEEEEEEEEEEEEEEEEEEEEEWRz$oooooOOooooooo4HWEEEEEEQlooooooooooooo3DQiooooooooooooooo@CQEEEEEEEEEEEEEEEEE",
"EEEEEEEEEEEEEEEEEEEEEEEEEEEEEEEEEEEEEEEEEEEEERWRk$oOOoooOOoooooo3FWEEEEEEEQloooooooooooo3AQWiooooooooooooooo@ZQEEEEEEEEEEEEEEEEE",
"EEEEEEEEEEEEEEEEEEEEEEEEEEEEEEEEEEEEEEEEEEEEREEx@oOOOOooOOOOOOo<DWEEEEEEEEQlooooooooooo3DWEWiooooooooooooooo@CQEEEEEEEEEEEEEEEEE",
"EEEEEEEEEEEEEEEEEEEEEEEEEEEEEEEEEEEEEEEEEEEEERb$ooOOOOooOOOOOo4DWEEEEEEEEEQloooooooooo4DWEEWiooooooooooooooo@BQEEEEEEEEEEEEEEEEE",
"EEEEEEEEEEEEEEEEEEEEEEEEEEEEEEEEEEEEEEEEEEEEEb$oooOOoOOoOOOOo3GQEEEEEEEEEEQxooOOOoooo3FQEEEWiooooooooooooooo@CQEEEEEEEEEEEEEEEEE",
"EEEEEEEEEEEEEEEEEEEEEEEEEEEEEEEEEEEEEEEEEEEWb%oOooOOOOOoOOOo3DWEEEEEEEEEEEQloOOOOOOo3FWEEEEWiooooooooooooooo@CQEEEEEEEEEEEEEEEEE",
"EEEEEEEEEEEEEEEEEEEEEEEEEEEEEEEEEEEEEEEEEEWn&oOOOOOOOOOOOOo<DQEEEEEEEEEEEEQlooooOOo3DWEWEEEWiooooooooooooooo$AQEEEEEEEEEEEEEEEEE",
"EEEEEEEEEEEEEEEEEEEEEEEEEEEEEEEEEEEEEEEEEWn&oOOOOOOOOOOOOo3SWEEEEEEEEEEEEEQkoooOOo3DQEEEEEEWiooooooooooooooo$AQEEEEEEEEEEEEEEEEE",
"EEEEEEEEEEEEEEEEEEEEEEEEEEEEEEEEEEEEEEEEEn&oOOOOOOOO++OOo3DWEEEEEEEEEEEEEEQdoOOOo,DWEEEEEEEWioOOoooooooooooo$AQEEEEEEEEEEEEEEEEE",
"EEEEEEEEEEEEEEEEEEEEEEEEEEEEEEEEEEEEEEEWn%oOOOOOOOOO+++o>SQEEEEEEEEEEEEEEEQkoOOo3DWEEEEEEEEWiooOOOoooooooooo$AQEEEEEEEEEEEEEEEEE",
"EEEEEEEEEEEEEEEEEEEEEEEEEEEEEEEEEEEEEEWB;OOOOOOOOOOOO@O>AWEEEEEEEEEEEEEEEEQlO@O>AQEEEEEEEEEWiooOOOOoOOoOoooo$SWEEEEEEEEEEEEEEEEE",
"EEEEEEEEEEEEEEEEEEEEEEEEEEEEEEEEEEEEEWm&OOOOO+OOOOOO@O>AWEEEEEEEEEEEEEEEEEQlOO>AQEEEEEEEEEEWioOoOOOOOOOOoOoo$AQWEEEEEEEEEEEEEEEE",
"EEEEEEEEEEEEEEEEEEEEEEEEEEEEEEEEEEEEQm&oOOOOO@@OO@OOO>AWEEEEEEEEEEEEEEEEEEQlo>DWEEEEEEEEEEEWioOOOoooOOOOOOOo$AQEEEEEEEEEEEEEEEEE",
"EEEEEEEEEEEEEEEEEEEEEEEEEEEEEEEEEEEWC;OOOOOOO++@@@OO>AWEEEEEEEEEEEEEEEEEEEQk>AWEEEEREEEEEEEWioOOOOOOOOOOOOoo$AQEEEEEEEEEEEEEEEEE",
"EEEEEEEEEEEEEEEEEEEEEEEEEEEEEEEEEEWm&O@OOOOOO@@@@OO>AWEEEEEEEEEEEEEEEEEEEEWBAQEEEEEEEEEEEEEQioOOOOOOOOOOOOOO$DWEEEEEEEEEEEEEEEEE",
"EEEEEEEEEEEEEEEEEEEEEEEEEEEEEEEEEWB&OOOOOO@OO@@@OO2AWEEEEEEEEEEEEEEEEEEEEEERWEEEEEEEEEEEEEWL3oOOOOOOO+OOOOOo8UWEEEEEEEEEEEEEEEEE",
"EEEEEEEEEEEEEEEEEEEEEEEEEEEEEEEEWB=OOOOOOO@O@@O@O>AWEEEEEEEEEEEEEEEEEEEEEEEEEEEEEEEEEEEEEWK9oOOOOO@@@@@OOOo4HWEEEEEEEEEEEEEEEEEE",
"EEEEEEEEEEEEEEEEEEEEEEEEEEEEEEEWN=OOOO@@@@@@@@OO>AWEEEEEEEEEEEEEEEEEEEEEEEEEEEEEEEEEEEEEWL0oOOOO@@@@@@@OOo5HWEEEEEEEEEEEEEEEEEEE",
"EEEEEEEEEEEEEEEEEEEEEEEEEEEEEEWN&O++@@@@@@@@O@O3DWEEEEEEEEEEEEEEEEEEEEEEEEEEEEEEEEEEEEEWL8@OOOO@@+@@@@@Oo8HWEEEEEEEEEEEEEEEEEEEE",
"EEEEEEEEEEEEEEEEEEEEEEEEEEEEEWB&O++++@@@@@@@@O>AWEEEEEEEEEEEEEEEEEEEEEEEEEEEEEEEEEEEEEWL8OOO@@O@+++@@@@o6HWEEEEEEEEEEEEEEEEEEEEE",
"EEEEEEEEEEEEEEEEEEEEEEEEEEEEWM=OOO@@@@@@@@@@O>AWEEEEEEEEEEEEEEEEEEEEEEEEEEEEEEEEEEEEEWL0oO@@@@@@++@@@@o6HWEEEEEEEEEEEEEEEEEEEEEE",
"EEEEEEEEEEEEEEEEEEEEEEEEEEEWN&OO@@@@@@@@@OOO3AWEEEEEEEEEEEEEEEEEEEEEEEEEEEEEEEEEEEEEWK8OOO@@@@@@@@@@OO5HWEEEEEEEEEEEEEEEEEEEEEEE",
"EEEEEEEEEEEEEEEEEEEEEEEEEEWB;O@@@@@@@@@@@@O3AQEEEEEEEEEEEEEEEEEEEEEEEEEEEEEEEEEEEEEWI0O@OOO@@@@@@@@@O5HWEEEEEEEEEEEEEEEEEEEEEEEE",
"EEEEEEEEEEEEEEEEEEEEEEEEEWN-O@@@@@@@@@@@@O>AWEEEEEEEEEEEEEEEEEEEEEEEEEEEEEEEEEEEEEWLe@@@OO@@@@@@@@@@5HWEEEEEEEEEEEEEEEEEEEEEEEEE",
"EEEEEEEEEEEEEEEEEEEEREEEWM=O@@+@@@@@@@@@O>AWEEEEEEEEEEEEEEEEEEEEEEEEEEEEEEEEEEEEEWUrO@@@@@@@@@@@@@O8HWEEEEEEEEEEEEEEEEEEEEEEEEEE",
"EEEEEEEEEEEEEEEEEEEEREEWB;O@@@+@@@@@@@@O1AWEEEEEEEEEEEEEEEEEEEEEEEEEEEEEEEEEEEEEWIe@@@@@@@@@@@@@@@5HWEEEEEEEEEEEEEEEEEEEEEEEEEEE",
"EEEEEEEEEEEEEEEEEEEEEEWB-O@@@@+@+@@@@@O>AWEEEEEEEEEEEEEEEEEEEEEEEEEEEEEEEEEEEEEWUy@@@@@@@@@@@@@@@5HWEEEEEEEEEEEEEEEEEEEEEEEEEEEE",
"EEEEEEEEEEEEEEEEEEEEEWB=O+@@@@@@@@@@@O>AWEEEEEEEEEEEEEEEEEEEEEEEEEEEEEEEEEEEEEWIr@@@@@@@@@@@@@@@8HWEEEEEEEEEEEEEEEEEEEEEEEEEEEEE",
"EEEEEEEEEEEEEEEEEEEEWB-O+@@@@@@@@@@+O>AWEEEEEEEEEEEEEEEEEEEEEEEEEEEEEEEEEEEEEWUr@@@@@@@@@@@@@@@4HWEEEEEEEEEEEEEEEEEEEEEEEEEEEEEE",
"EEEEEEEEEEEEEEEEEEEWM&O@+@@@@@@@OOOO>AWEEEEREREEEEEEEEEEEEEEEEEEEEEEEEEEEEEEWLr@@@@@@@@@@@@@@@8HWEEEEEEEEEEEEEEEEEEEEEEEEEEEEEEE",
"EEEEEEEEEEEEEEEEEEWB=O@@@@@@@@@@OOO>AWEEEEEEEEEEEEEEEEEEEEEEEEEEEEEEEEEEEEEWP0@@@@@@@@@@@@@@@8HWEEEEEEEEEEEEEEEEEEEEEEEEEEEEEEEE",
"EEEEEEEEEEEEEEEEEWC:+@@@@@@@@@@+OO;CERRRRRRRRRRRRRRRRRREWWWWWWWWWWWWEEEEEEWPr@@@@@@@@@@@@@@@8HWEEEEEEEEEEEEEWEEEEEEEEEEEEEEEEEEE",
"EEEEEEEEEEEEEEEEET8O@@@@@@@@@@@OOO-000009000000000000rryyiyuuuyyiiijUWEEEEWk@@@@@@@@@@@@@@@&AQEEEEEEEEEEEEEWYREEEEEEEEEEEEEEEEEE",
"EEEEEEEEEEEEEEEEEY4+@@@@@@@@@@@O@@OOOOOOOOOOOOOOOOOOOOOOOOOOOOOOOOo;JWEEEEWpO@@@@@@@@@@@@@@*HWEEEEEEEEEEEEWLsJWEEEEEEEEEEEEEEEEE",
"EEEEEEEEEEEEEEEEEY4+@@@@@@@@@@@@@@@@@@@@OOOOO@@@@@OO@@@@@@@@@O@@@@@>LWEEEEWaO@@@@@@@@@@@@@@*HWEEEEEEEEEEEWPt;JWEEEEEEEEEEEEEEEEE",
"EEEEEEEEEEEEEEEEEY4@@@@@#@@@@@@@@@@@@@@@@@@@@@@@@@@@@@@@@@@@@@@@@@@;HWEEEEWaO@@@@@@@@@@@@@@*HWEEEEEEEEEEWPrO;JWEEEEEEEEEEEEEEEEE",
"EEEEEEEEEEEEEEEEEY4@@@@#@@@@@@@@@@@@@@@@@@@@@@@@@@@@@@@@@@@@@@@@@@O>LWEEEEWaO@@@@@@@@@@@@@@*HWEEEEEEEEEWI0@@;HWEEEEEEEEEEEEEEEEE",
"EEEEEEEEEEEEEEEEEY4@####@@@@@@@@@@@@@@@@@@@@@@@@@@@@@@@@#@@@@@###@@>PWEEEEWsO@@@@@@@@@@@@@@*HWEEEEEEEEWLr@@@;JWEEEEEEEEEEEEEEEEE",
"EEEEEEEEEEEEEEEEWY4@####@@@@@@@@@@@@@@@@@@@@@@@@@@@@@@##@#@@@@###@+>PWEEEEWsO@@@@@@@@@@@@@@;HWEEEEEEEWUe@@@@;JWEEEEEEEEEEEEEEEEE",
"EEEEEEEEEEEEEEEEWU4@@#####@@##@@@@@@#@##@@@@@@@@@@@@##@###@@@@###@@,IWEEEEWsO@@@@@@@@@@@@@@*HWEEEEEEWLr@@@@@;JWEEEEEEEEEEEEEEEEE",
"EEEEEEEEEEEEEEEEWU4@@@###@@@@@#@@@##@@@@@@@@@@@@@@##@@@@@#@@@@###@@3IWEEEEWaO@@@@@@@@@@@@@@;HWEEEEEWUr@@@@@@;JWEEEEEEEEEEEEEEEEE",
"EEEEEEEEEEEEEEEEWI3@######@@@@@@@###@@@@@@@@@@@@@@####@@@@##@@###@@3UWEEEEWaO@@@@@@@@@@@@@@;HWEEEEWLr@@@@@@@;JWEEEEEEEEEEEEEEEEE",
"EEEEEEEEEEEEEEEEWL>@##############@####################@#########@@3IWEEEEWsO@@@@@@@@@@#@@@;HWEEEWL0@@@@@@@@;JWEEEEEEEEEEEEEEEEE",
"EEEEEEEEEEEEEEEEWL>############@##@@##@@@#####@@#######@#@#######@@3UWEEEEWsO@@@@@@@@@##@@@;HWEEWLe@@@@@@@@@;JWEEEEEEEEEEEEEEEEE",
"EEEEEEEEEEEEEEEEWL>@#@@@@@@@@@@@@@@@@@@@@@@@@@@@@@@@@######@@####@@3IWEEEEWsO@@@@@@@@@@@@@@*HWEWIe@@@@@@@@@@;HWEEEEEEEEEEEEEEEEE",
"EEEEEEEEEEEEEEEEWUldpypppiyppdgr0yytrrrrrrrw0048433=@######@@####@@3IWEEEEWs+@@@@@@@@@@@@@@;HWWLr@@@@@@@@@@@;JWEEEEEEEEEEEEEEEEE",
"EEEEEEEEEEEEEEEEEEWWWWWWWWWWWWWRRRRRRRRRRRRRTTUUUUUp+#####@@@####@@3IWEEEEWs@@@@@@@@@@@@@@@;HQLr@@@@@@@@@@@@;JWEEEEEEEEEEEEEEEEE",
"EEEEEEEEEEEEEEEEEEEEEEEEEEEEEEEEEEEEREEEEEEEEEWWWWQdO@#####@@@###@+3IWEEEEWs+@@@@@@@@@@@@@@;KL8@@@@@@@@@@@@@;JWEEEEEEEEEEEEEEEEE",
"EEEEEEEEEEEEEEEEEEEEEEEEEEEEEEEEEEEEEEEEEEEEEEEEEEWd+######@@####@+3IWEEEEWk=&%%$$$$$$##$#$>Ar$$#@$$#@@#@@@$>KWEEEEEEEEEEEEEEEEE",
"EEEEEEEEEEEEEEEEEEEEEEEEEEEEEEEEEEEEEEEEEEEEEEEEEEWd+###@@@@@####@@3IWEEEEEJACCCCCCCVVbbbbmBAbVCbvbmbbbbbcbBZTEEEEEEEEEEEEEEEEEE",
"EEEEEEEEEEEEEEEEEEEEEEEEEEEEEEEEEEEEEEEEEEEEEEEEEEWd@####@#@@####@@3IWEEEEEWWQQQQQQQQQQQQQQWWWWQQQQQQQQQQQQQQEEEEEEEEEEEEEEEEEEE",
"EEEEEEEEEEEEEEEEEEEEEEEEEEEEEEEEEEEEEEEEEEEEEEEEEEWd+@######@####@@3IWEEEEEEEEEEWWEEEEEEEEEEERREEEEEEEEEEEWWEEEEEEEEEEEEEEEEEEEE",
"EEEEEEEEEEEEEEEEEEEEEEEEEEEEEEEEEEEEEEEEEEEEEEEEEEWd+@@@###@@@###@@3UWEEEEEEEEEEEEEEEEEEEEEEEEEEEEEEEEEEEEEEEEEEEEEEEEEEEEEEEEEE",
"EEEEEEEEEEEEEEEEEEEEEEEEEEEEEEEEEEEEEEEEEEEEEEEEEEWd+@@@@@@@@@@##@+3UWEEEEEEEEEEEEEEEEEEEEEEEEEEEEEEEEEEEEEEEEEEEEEEEEEEEEEEEEEE",
"EEEEEEEEEEEEEEEEEEEEEEEEEEEEEEEEEEEEEEEEEEEEEEEEEEWd+@@#@@@@@####@O3UWEEEEEEEEEEEEEEEEEEEEEEEEEEEEEEEEEEEEEEEEEEEEEEEEEEEEEEEEEE",
"EEEEEEEEEEEEEEEEEEEEEEEEEEEEEEEEEEEEEEEEEEEEEEEEEEWdO@@###@@@@#@#@O4TEEEEEEEEEEEEEEEEEEEEEEEEEEEEEEEEEEEEEEEEEEEEEEEEEEEEEEEEEEE",
"EEEEEEEEEEEEEEEEEEEEEEEEEEEEEEEEEEEEEEEEEEEEEEEEEEWpO@##@@@@@@@@@@O8REEEEEEEEEEEEEEEEEEEEEEEEEEEEEEEEEEEEEEEEEEEEEEEEEEEEEEEEEEE",
"EEEEEEEEEEEEEEEEEEEEEEEEEEEEEEEEEEEEEEEEEEEEEEEEEEWd+@#@@@@@@@@@@@O8TERREEEEEEEEEEEEEEEEEEEEEEEEEEEEEEEEEEEEEEEEEEEEEEEEEEEEEEEE",
"EEEEEEEEEEEEEEEEEEEEEEEEEEEEEEEEEEEEEEEEEEEEEEEEEEWdO@@@@@#@@@#@@@O8RERREEEEEEEEEEEEEEEEEEEEEEEEEEEEEEEEEEEEEEEEEEEEEEEEEEEEEEEE",
"EEEEEEEEEEEEEEEEEEEEEEEEEEEEEEEEEEEEEEEEEEEEEEEEEEWsO@@@####@@#@@@O8RRRREEEEEEEEEEEEEEEEEEEEEEEEEEEEEEEEEEEEEEEEEEEEEEEEEEEEEEEE",
"EEEEEEEEEEEEEEEEEEEEEEEEEEEEEEEEEEEEEEEEEEEEEEEEEEEy+@@@@@@@@@@@@@O8REEEEEEEEEEEEEEEEEEEEEEEEEEEEEEEEEEEEEEEEEEEEEEEEEEEEEEEEEEE",
"EEEEEEEEEEEEEEEEEEEEEEEEEEEEEEEEEEEEEEEEEEEEEEEEEERrO@@@+++++O++@@O8REEEEEEEEEEEEEEEEEEEEEEEEEEEEEEEEEEEEEEEEEEEEEEEEEEEEEEEEEEE",
"EEEEEEEEEEEEEEEEEEEEEEEEEEEEEEEEEEEEEEEEEEEEEEEEEERl8780448888>3333sRREEEEEEEEEEEEEEEEEEEEEEEEEEEEEEEEEEEEEEEEEEEEEEEEEEEEEEEEEE",
"EEEEEEEEEEEEEEEEEEEEEEEEEEEEEEEEEEEEEEEEEEEEEEEEEEERYUUYUUUYTYLLLLLURRREEEEEEEEEEEEEEEEEEEEEEEEEEEEEEEEEEEEEEEEEEEEEEEEEEEEEEEEE",
"EEEEEEEEEEEEEEEEEEEEEEEEEEEEEEEEEEEEEEEEEEEEEEEEEEEEWWWWWWWWEEWWWWWWEEEEEEEEEEEEEEEEEEEEEEEEEEEEEEEEEEEEEEEEEEEEEEEEEEEEEEEEEEEE",
"EEEEEEEEEEEEEEEEEEEEEEEEEEEEEEEEEEEEEEEEEEEEEEEEEEEEEEEEEEEEEEEEEREREEEEEEEEEEEEEEEEEEEEEEEEEEEEEEEEEEEEEEEEEEEEEEEEEEEEEEEEEEEE",
"EEEEEEEEEEEEEEEEEEEEEEEEEEEEEEEEEEEEEEEEEEEEEEEEEEEEEEEEEEEEEEEEEEEEEEEEEEEEEEEEEEEEEEEEEEEEEEEEEEEEEEEEEEEEEEEEEEEEEEEEEEEEEEEE",
"EEEEEEEEEEEEEEEEEEEEEEEEEEEEEEEEEEEEEEEEEEEEEEEEEEEEEEEEEEEEEEEEEEEEEEEEEEEEEEEEEEEEEEEEEEEEEEEEEEEEEEEEEEEEEEEEEEEEEEEEEEEEEEEE",
"EEEEEEEEEEEEEEEEEEEEEEEEEEEEEEEEEEEEEEEEEEEEEEEEEEEEEEEEEEEEEEEEEEEEEEEEEEEEEEEEEEEEEEEEEEEEEEEEEEEEEEEEEEEEEEEEEEEEEEEEEEEEEEEE",
"EEEEEEEEEEEEEEEEEEEEEEEEEEEEEEEEEEEEEEEEEEEEEEEEEEEEEEEEEEEEEEEEEEEEEEEEEEEEEEEEEEEEEEEEEEEEEEEEEEEEEEEEEEEEEEEEEEEEEEEEEEEEEEEE",
"EEEEEEEEEEEEEEEEEEEEEEEEEEEEEEEEEEEEEEEEEEEEEEEEEEEEEEEEEEEEEEEEEEEEEEEEEEEEEEEEEEEEEEEEEEEEEEEEEEEEEEEEEEEEEEEEEEEEEEEEEEEEEEEE",
"EEEEEEEEEEEEEEEEEEEEEEEEEEEEEEEEEEEEEEEEEEEEEEEEEEEEEEEEEEEEEEEEEEEEEEEEEEEEEEEEEEEEEEEEEEEEEEEEEEEEEEEEEEEEEEEEEEEEEEEEEEEEEEEE",
"EEEEEEEEEEEEEEEEEEEEEEEEEEEEEEEEEEEEEEEEEEEEEEEEEEEEEEEEEEEEEEEEEEEEEEEEEEEEEEEEEEEEEEEEEEEEEEEEEEEEEEEEEEEEEEEEEEEEEEEEEEEEEEEE",
"EEEEEEEEEEEEEEEEEEEEEEEEEEEEEEEEEEEEEEEEEEEEEEEEEEEEEEEEEEEEEEEEEEEEEEEEEEEEEEEEEEEEEEEEEEEEEEEEEEEEEEEEEEEEEEEEEEEEEEEEEEEEEEEE",
"EEEEEEEEEEEEEEEEEEEEEEEEEEEEEEEEEEEEEEEEEEEEEEEEEEEEEEEEEEEEEEEEEEEEEEEEEEEEEEEEEEEEEEEEEEEEEEEEEEEEEEEEEEEEEEEEEEEEEEEEEEEEEEEE",
"EEEEEEEEEEEEEEEEEEEEEEEEEEEEEEEEEEEEEEEEEEEEEEEEEEEEEEEEEEEEEEEEEEEEEEEEEEEEEEEEEEEEEEEEEEEEEEEEEEEEEEEEEEEEEEEEEEEEEEEEEEEEEEEE",
"EEEEEEEEEEEEEEEEEEEEEEEEEEEEEEEEEEEEEEEEEEEEEEEEEEEEEEEEEEEEEEEEEEEEEEEEEEEEEEEEEEEEEEEEEEEEEEEEEEEEEEEEEEEEEEEEEEEEEEEEEEEEEEEE",
"EEEEEEEEEEEEEEEEEEEEEEEEEEEEEEEEEEEEEEEEEEEEEEEEEEEEEEEEEEEEEEEEEEEEEEEEEEEEEEEEEEEEEEEEEEEEEEEEEEEEEEEEEEEEEEEEEEEEEEEEEEEEEEEE",
"EEEEEEEEEEEEEEEEEEEEEEEEEEEEEEEEEEEEEEEEEEEEEEEEEEEEEEEEEEEEEEEEEEEEEEEEEEEEEEEEEEEEEEEEEEEEEEEEEEEEEEEEEEEEEEEEEEEEEEEEEEEEEEEE",
"EEEEEEEEEEEEEEEEEEEEEEEEEEEEEEEEEEEEEEEEEEEEEEEEEEEEEEEEEEEEEEEEEEEEEEEEEEEEEEEEEEEEEEEEEEEEEEEEEEEEEEEEEEEEEEEEEEEEEEEEEEEEEEEE",
"EEEEEEEEEEEEEEEEEEEEEEEEEEEEEEEEEEEEEEEEEEEEEEEEEEEEEEEEEEEEEEEEEEEEEEEEEEEEEEEEEEEEEEEEEEEEEEEEEEEEEEEEEEEEEEEEEEEEEEEEEEEEEEEE",
"EEEEEEEEEEEEEEEEEEEEEEEEEEEEEEEEEEEEEEEEEEEEEEEEEEEEEEEEEEEEEEEEEEEEEEEEEEEEEEEEEEEEEEEEEEEEEEEEEEEEEEEEEEEEEEEEEEEEEEEEEEEEEEEE",
"EEEEEEEEEEEEEEEEEEEEEEEEEEEEEEEEEEEEEEEEEEEEEEEEEEEEEEEEEEEEEEEEEEEEEEEEEEEEEEEEEEEEEEEEEEEEEEEEEEEEEEEEEEEEEEEEEEEEEEEEEEEEEEEE",
"EEEEEEEEEEEEEEEEEEEEEEEEEEEEEEEEEEEEEEEEEEEEEEEEEEEEEEEEEEEEEEEEEEEEEEEEEEEEEEEEEEEEEEEEEEEEEEEEEEEEEEEEEEEEEEEEEEEEEEEEEEEEEEEE",
"EEEEEEEEEEEEEEEEEEEEEEEEEEEEEEEEEEEEEEEEEEEEEEEEEEEEEEEEEEEEEEEEEEEEEEEEEEEEEEEEEEEEEEEEEEEEEEEEEEEEEEEEEEEEEEEEEEEEEEEEEEEEEEEE",
"EEEEEEEEEEEEEEEEEEEEEEEEEEEEEEEEEEEEEEEEEEEEEEEEEEEEEEEEEEEEEEEEEEEEEEEEEEEEEEEEEEEEEEEEEEEEEEEEEEEEEEEEEEEEEEEEEEEEEEEEEEEEEEEE",
"EEEEEEEEEEEEEEEEEEEEEEEEEEEEEEEEEEEEEEEEEEEEEEEEEEEEEEEEEEEEEEEEEEEEEEEEEEEEEEEEEEEEEEEEEEEEEEEEEEEEEEEEEEEEEEEEEEEEEEEEEEEEEEEE",
"EEEEEEEEEEEEEEEEEEEEEEEEEEEEEEEEEEEEEEEEEEEEEEEEEEEEEEEEEEEEEEEEEEEEEEEEEEEEEEEEEEEEEEEEEEEEEEEEEEEEEEEEEEEEEEEEEEEEEEEEEEEEEEEE",
"EEEEEEEEEEEEEEEEEEEEEEEEEEEEEEEEEEEEEEEEEEEEEEEEEEEEEEEEEEEEEEEEEEEEEEEEEEEEEEEEEEEEEEEEEEEEEEEEEEEEEEEEEEEEEEEEEEEEEEEEEEEEEEEE",
"EEEEEEEEEEEEEEEEEEEEEEEEEEEEEEEEEEEEEEEEEEEEEEEEEEEEEEEEEEEEEEEEEEEEEEEEEEEEEEEEEEEEEEEEEEEEEEEEEEEEEEEEEEEEEEEEEEEEEEEEEEEEEEEE",
"EEEEEEEEEEEEEEEEEEEEEEEEEEEEEEEEEEEEEEEEEEEEEEEEEEEEEEEEEEEEEEEEEEEEEEEEEEEEEEEEEEEEEEEEEEEEEEEEEEEEEEEEEEEEEEEEEEEEEEEEEEEEEEEE",
"EEEEEEEEEEEEEEEEEEEEEEEEEEEEEEEEEEEEEEEEEEEEEEEEEEEEEEEEEEEEEEEEEEEEEEEEEEEEEEEEEEEEEEEEEEEEEEEEEEEEEEEEEEEEEEEEEEEEEEEEEEEEEEEE",
"EEEEEEEEEEEEEEEEEEEEEEEEEEEEEEEEEEEEEEEEEEEEEEEEEEEEEEEEEEEEEEEEEEEEEEEEEEEEEEEEEEEEEEEEEEEEEEEEEEEEEEEEEEEEEEEEEEEEEEEEEEEEEEEE",
"EEEEEEEEEEEEEEEEEEEEEEEEEEEEEEEEEEEEEEEEEEEEEEEEEEEEEEEEEEEEEEEEEEEEEEEEEEEEEEEEEEEEEEEEEEEEEEEEEEEEEEEEEEEEEEEEEEEEEEEEEEEEEEEE",
"EEEEEEEEEEEEEEEEEEEEEEEEEEEEEEEEEEEEEEEEEEEEEEEEEEEEEEEEEEEEEEEEEEEEEEEEEEEEEEEEEEEEEEEEEEEEEEEEEEEEEEEEEEEEEEEEEEEEEEEEEEEEEEEE",
"EEEEEEEEEEEEEEEEEEEEEEEEEEEEEEEEEEEEEEEEEEEEEEEEEEEEEEEEEEEEEEEEEEEEEEEEEEEEEEEEEEEEEEEEEEEEEEEEEEEEEEEEEEEEEEEEEEEEEEEEEEEEEEEE",
"EEEEEEEEEEEEEEEEEEEEEEEEEEEEEEEEEEEEEEEEEEEEEEEEEEEEEEEEEEEEEEEEEEEEEEEEEEEEEEEEEEEEEEEEEEEEEEEEEEEEEEEEEEEEEEEEEEEEEEEEEEEEEEEE",
"EEEEEEEEEEEEEEEEEEEEEEEEEEEEEEEEEEEEEEEEEEEEEEEEEEEEEEEEEEEEEEEEEEEEEEEEEEEEEEEEEEEEEEEEEEEEEEEEEEEEEEEEEEEEEEEEEEEEEEEEEEEEEEEE",
"EEEEEEEEEEEEEEEEEEEEEEEEEEEEEEEEEEEEEEEEEEEEEEEEEEEEEEEEEEEEEEEEEEEEEEEEEEEEEEEEEEEEEEEEEEEEEEEEEEEEEEEEEEEEEEEEEEEEEEEEEEEEEEEE",
"EEEEEEEEEEEEEEEEEEEEEEEEEEEEEEEEEEEEEEEEEEEEEEEEEEEEEEEEEEEEEEEEEEEEEEEEEEEEEEEEEEEEEEEEEEEEEEEEEEEEEEEEEEEEEEEEEEEEEEEEEEEEEEEE",
"EEEEEEEEEEEEEEEEEEEEEEEEEEEEEEEEEEEEEEEEEEEEEEEEEEEEEEEEEEEEEEEEEEEEEEEEEEEEEEEEEEEEEEEEEEEEEEEEEEEEEEEEEEEEEEEEEEEEEEEEEEEEEEEE",
"EEEEEEEEEEEEEEEEEEEEEEEEEEEEEEEEEEEEEEEEEEEEEEEEEEEEEEEEEEEEEEEEEEEEEEEEEEEEEEEEEEEEEEEEEEEEEEEEEEEEEEEEEEEEEEEEEEEEEEEEEEEEEEEE",
"EEEEEEEEEEEEEEEEEEEEEEEEEEEEEEEEEEEEEEEEEEEEEEEEEEEEEEEEEEEEEEEEEEEEEEEEEEEEEEEEEEEEEEEEEEEEEEEEEEEEEEEEEEEEEEEEEEEEEEEEEEEEEEEE",
"EEEEEEEEEEEEEEEEEEEEEEEEEEEEEEEEEEEEEEEEEEEEEEEEEEEEEEEEEEEEEEEEEEEEEEEEEEEEEEEEEEEEEEEEEEEEEEEEEEEEEEEEEEEEEEEEEEEEEEEEEEEEEEEE",
"EEEEEEEEEEEEEEEEEEEEEEEEEEEEEEEEEEEEEEEEEEEEEEEEEEEEEEEEEEEEEEEEEEEEEEEEEEEEEEEEEEEEEEEEEEEEEEEEEEEEEEEEEEEEEEEEEEEEEEEEEEEEEEEE",
"EEEEEEEEEEEEEEEEEEEEEEEEEEEEEEEEEEEEEEEEEEEEEEEEEEEEEEEEEEEEEEEEEEEEEEEEEEEEEEEEEEEEEEEEEEEEEEEEEEEEEEEEEEEEEEEEEEEEEEEEEEEEEEEE",
"EEEEEEEEEEEEEEEEEEEEEEEEEEEEEEEEEEEEEEEEEEEEEEEEEEEEEEEEEEEEEEEEEEEEEEEEEEEEEEEEEEEEEEEEEEEEEEEEEEEEEEEEEEEEEEEEEEEEEEEEEEEEEEEE",
"EEEEEEEEEEEEEEEEEEEEEEEEEEEEEEEEEEEEEEEEEEEEEEEEEEEEEEEEEEEEEEEEEEEEEEEEEEEEEEEEEEEEEEEEEEEEEEEEEEEEEEEEEEEEEEEEEEEEEEEEEEEEEEEE",
"EEEEEEEEEEEEEEEEEEEEEEEEEEEEEEEEEEEEEEEEEEEEEEEEEEEEEEEEEEEEEEEEEEEEEEEEEEEEEEEEEEEEEEEEEEEEEEEEEEEEEEEEEEEEEEEEEEEEEEEEEEEEEEEE",
"EEEEEEEEEEEEEEEEEEEEEEEEEEEEEEEEEEEEEEEEEEEEEEEEEEEEEEEEEEEEEEEEEEEEEEEEEEEEEEEEEEEEEEEEEEEEEEEEEEEEEEEEEEEEEEEEEEEEEEEEEEEEEEEE",
"EEEEEEEEEEEEEEEEEEEEEEEEEEEEEEEEEEEEEEEEEEEEEEEEEEEEEEEEEEEEEEEEEEEEEEEEEEEEEEEEEEEEEEEEEEEEEEEEEEEEEEEEEEEEEEEEEEEEEEEEEEEEEEEE",
"EEEEEEEEEEEEEEEEEEEEEEEEEEEEEEEEEEEEEEEEEEEEEEEEEEEEEEEEEEEEEEEEEEEEEEEEEEEEEEEEEEEEEEEEEEEEEEEEEEEEEEEEEEEEEEEEEEEEEEEEEEEEEEEE",
"EEEEEEEEEEEEEEEEEEEEEEEEEEEEEEEEEEEEEEEEEEEEEEEEEEEEEEEEEEEEEEEEEEEEEEEEEEEEEEEEEEEEEEEEEEEEEEEEEEEEEEEEEEEEEEEEEEEEEEEEEEEEEEEE",
"EEEEEEEEEEEEEEEEEEEEEEEEEEEEEEEEEEEEEEEEEEEEEEEEEEEEEEEEEEEEEEEEEEEEEEEEEEEEEEEEEEEEEEEEEEEEEEEEEEEEEEEEEEEEEEEEEEEEEEEEEEEEEEEE",
"EEEEEEEEEEEEEEEEEEEEEEEEEEEEEEEEEEEEEEEEEEEEEEEEEEEEEEEEEEEEEEEEEEEEEEEEEEEEEEEEEEEEEEEEEEEEEEEEEEEEEEEEEEEEEEEEEEEEEEEEEEEEEEEE",
"EEEEEEEEEEEEEEEEEEEEEEEEEEEEEEEEEEEEEEEEEEEEEEEEEEEEEEEEEEEEEEEEEEEEEEEEEEEEEEEEEEEEEEEEEEEEEEEEEEEEEEEEEEEEEEEEEEEEEEEEEEEEEEEE",
"EEEEEEEEEEEEEEEEEEEEEEEEEEEEEEEEEEEEEEEEEEEEEEEEEEEEEEEEEEEEEEEEEEEEEEEEEEEEEEEEEEEEEEEEEEEEEEEEEEEEEEEEEEEEEEEEEEEEEEEEEEEEEEEE",
"EEEEEEEEEEEEEEEEEEEEEEEEEEEEEEEEEEEEEEEEEEEEEEEEEEEEEEEEEEEEEEEEEEEEEEEEEEEEEEEEEEEEEEEEEEEEEEEEEEEEEEEEEEEEEEEEEEEEEEEEEEEEEEEE",
"EEEEEEEEEEEEEEEEEEEEEEEEEEEEEEEEEEEEEEEEEEEEEEEEEEEEEEEEEEEEEEEEEEEEEEEEEEEEEEEEEEEEEEEEEEEEEEEEEEEEEEEEEEEEEEEEEEEEEEEEEEEEEEEE",
"EEEEEEEEEEEEEEEEEEEEEEEEEEEEEEEEEEEEEEEEEEEEEEEEEEEEEEEEEEEEEEEEEEEEEEEEEEEEEEEEEEEEEEEEEEEEEEEEEEEEEEEEEEEEEEEEEEEEEEEEEEEEEEEE"
};
