/* XPM */
static char * placeholder_xpm[] = {
"64 64 2 1",
" 	c #FF00E0",
".	c #000000",
"                ................                ................",
"                ................                ................",
"                ................                ................",
"                ................                ................",
"                ................                ................",
"                ................                ................",
"                ................                ................",
"                ................                ................",
"                ................                ................",
"                ................                ................",
"                ................                ................",
"                ................                ................",
"                ................                ................",
"                ................                ................",
"                ................                ................",
"                ................                ................",
"................                ................                ",
"................                ................                ",
"................                ................                ",
"................                ................                ",
"................                ................                ",
"................                ................                ",
"................                ................                ",
"................                ................                ",
"................                ................                ",
"................                ................                ",
"................                ................                ",
"................                ................                ",
"................                ................                ",
"................                ................                ",
"................                ................                ",
"................                ................                ",
"                ................                ................",
"                ................                ................",
"                ................                ................",
"                ................                ................",
"                ................                ................",
"                ................                ................",
"                ................                ................",
"                ................                ................",
"                ................                ................",
"                ................                ................",
"                ................                ................",
"                ................                ................",
"                ................                ................",
"                ................                ................",
"                ................                ................",
"                ................                ................",
"................                ................                ",
"................                ................                ",
"................                ................                ",
"................                ................                ",
"................                ................                ",
"................                ................                ",
"................                ................                ",
"................                ................                ",
"................                ................                ",
"................                ................                ",
"................                ................                ",
"................                ................                ",
"................                ................                ",
"................                ................                ",
"................                ................                ",
"................                ................                "};
