/* XPM */
static char *parte_21[] = {
/* columns rows colors chars-per-pixel */
"128 128 14 1 ",
"  c #00000000",
". c #FF004040",
"X c #FF005858",
"o c #FF006C6C",
"O c #FF007070",
"+ c #FF007474",
"@ c #FF007878",
"# c #FF007C7C",
"$ c #FF545454",
"% c #FF646464",
"& c #FF008484",
"* c #FF008C8C",
"= c #FF009898",
"- c #FF20B0B0",
/* pixels */
"                                                                                                                                ",
"                                                                                                                                ",
"                                                                                                                                ",
"                                                                                                                                ",
"                                                                                                                                ",
"                                                                                                                                ",
"                                                                                                                                ",
"                                                                                                                                ",
"                                                                                                                                ",
"                                                                                                                                ",
"                                                                                                                                ",
"                                                                                                                                ",
"                                                                                                                                ",
"                                                                                                                                ",
"                                                                                                                                ",
"                                                                                                                                ",
"                                                                                                                                ",
"                                                                                                                                ",
"                                                                                                                                ",
"                                                                                                                                ",
"                                                                                                                                ",
"                                                                                                                                ",
"                                                                                                                                ",
"                                                                                                                                ",
"                                                                                                                                ",
"                                                                                                                                ",
"                                                                                                                                ",
"                                                                                                                                ",
"                                                                                                                                ",
"                                                                                                                                ",
"                                                                                                                                ",
"                                                                                                                                ",
"                                                                                                                                ",
"                                                                                                                                ",
"                                                                                                                                ",
"                                                                                                                                ",
"                                                                                                                                ",
"                                                                                                                                ",
"                                                                                                                                ",
"                                                                                                                                ",
"                                                                                                                                ",
"                                                                                                                                ",
"                                                                                                                                ",
"                                                                                                                                ",
"                                                                                                                                ",
"                                                                                                                                ",
"                                                                                                                                ",
"                                                                                                                                ",
"                                                                                                                                ",
"                                                                                                                                ",
"                                                                                                                                ",
"                                                                                                                                ",
"                                                                                                                                ",
"                                                                                                                                ",
"                                                                                                                                ",
"                                                                                                                                ",
"                                                                                                                                ",
"                                                                                                                                ",
"                                                                                                                                ",
"                                                                                                                                ",
"                                                                                                                                ",
"                                                                                                                                ",
"                                                                                                                                ",
"                                                                                                                                ",
"                                                                                                                                ",
"                                                                                                                                ",
"                                                                                                                                ",
"                                                                                                                                ",
"                                                                                                                                ",
"                                                                                                                                ",
"                                                                                                                                ",
"                                                                                                                                ",
"                                                                                                                                ",
"                                                                                                                                ",
"                                                                                                                                ",
"                                                                                                                                ",
"                                                                                                                                ",
"                                                                                                                                ",
"                                                                                                                                ",
"                                                                                                                                ",
"                                                                                                                                ",
"                                                                                                                                ",
"                                                                                                                                ",
"                                                                                                                                ",
"                                                                                                                                ",
"                                                                                                                                ",
"                                                                                                                                ",
"                                                                                                                                ",
"                                                                                                                                ",
"                                                                                                                                ",
"                                                                                                                                ",
"                                                                                                                                ",
"                                                                                                                                ",
"                                                                                                                                ",
"                                                                                                                                ",
"                                                                                                                                ",
"                                                                                                                                ",
"                                                                                                                                ",
"                                                                                                                                ",
"                                                                                                                                ",
"                                                                                                                                ",
"                                                                                                                                ",
"                                                                                                                                ",
"                                                                                                                                ",
"                                                                                                                                ",
"                                                                                                                                ",
"                                                                    oo--------oo                                                ",
"                                                                    oo--------oo                                                ",
"                                                                    --==XXXX==--##                                              ",
"                                                                    --==XXXX==--##                                              ",
"                                    --&&------------------oo--oo------##    ##--##                                              ",
"                                    --&&------------------oo--oo------##    ##--##                                              ",
"                                    ++..******************oo**oo****--==    ==--##                                              ",
"                                    ++..******************oo**oo****--==    ==--##                                              ",
"                                        XX++++XXo+++XXXXXX..XX..XXoo==--------==##                                              ",
"                                        XX++++XXoo++XXXXXX..XX..XXoo==--------==##                                              ",
"                                        ==--==XX==--==            ..##========##oo                                              ",
"                                        ==--==XX==--==            ..##========##oo                                              ",
"                                        ==--==XX==--==              XXXXXXXXXXoo                                                ",
"                                        ==--==XX==--==              XXXXXXXXXXoo                                                ",
"                                        XXXXXX  XXXXXX                                                                          ",
"                                        XXXXXX  XXXXXX                                                                          ",
"                                                                                                                                ",
"                                                                                                                                ",
"                                  %%%%$$$$$$$$$$$$$$$$$$$$$$$$$$$$$$$$$$$$$$$$$$%%%%                                            ",
"                                  %%%%$$$$$$$$$$$$$$$$$$$$$$$$$$$$$$$$$$$$$$$$$$%%%%                                            ",
"                                                                                                                                ",
"                                                                                                                                "
};
