/* XPM */
static char *parte_12[] = {
/* columns rows colors chars-per-pixel */
"128 128 24 1 ",
"  c #00000000",
". c #FF000000",
"X c #FF2C2C2C",
"o c #FF383838",
"O c #FF000070",
"+ c #FF484848",
"@ c #FF545454",
"# c #FF646464",
"$ c #FF000088",
"% c #FF000098",
"& c #FF0000A4",
"* c #FF0000B0",
"= c #FF0000BC",
"- c #FF0000C8",
"; c #FF0000D4",
": c #FF0000E0",
"> c #FF0000EC",
", c #FF0000FC",
"< c #FF2024FC",
"1 c #FF4040FC",
"2 c #FF5C60FC",
"3 c #FF7C80FC",
"4 c #FF9C9CFC",
"5 c #FFB8BCFC",
/* pixels */
"                                                                                                                                ",
"                                                                                                                                ",
"                                                                                                                                ",
"                                                                                                                                ",
"                                                                                                                                ",
"                                                                                                                                ",
"                                                                                                                                ",
"                                                                                                                                ",
"                                                                                                                                ",
"                                                                                                                                ",
"                                                                                                                                ",
"                                                                                                                                ",
"                                                                                                                                ",
"                                                                                                                                ",
"                                                                                                                                ",
"                                                                                                                                ",
"                                                                                                                                ",
"                                                                                                                                ",
"                                                                                                                                ",
"                                                                                                                                ",
"                                                                                                                                ",
"                                                                                                                                ",
"                                                                                                                                ",
"                                                                                                                                ",
"                                                                                                                                ",
"                                                                                                                                ",
"                                                                                                                                ",
"                                                                                                                                ",
"                                                                                                                                ",
"                                                                                                                                ",
"                                                                                                                                ",
"                                                                                                                                ",
"                                                                                                                                ",
"                                                                                                                                ",
"                                                                                                                                ",
"                                                                                                                                ",
"                                                                                                                                ",
"                                                                                                                                ",
"                                                                                                                                ",
"                                                                                                                                ",
"                                                                                                                                ",
"                                                                                                                                ",
"                                                                                                                                ",
"                                                                                                                                ",
"                                                                                                                                ",
"                                                                                                                                ",
"                                                                                                                                ",
"                                                                                                                                ",
"                                                                                                                                ",
"                                                                                                                                ",
"                                                                                                                                ",
"                                                                                                                                ",
"                                                                                                                                ",
"                                                                                                                                ",
"                                                                                                                                ",
"                                                                                                                                ",
"                                                                                                                                ",
"                                                                                                                                ",
"                                                                                                                                ",
"                                                                                                                                ",
"                                                                                                                                ",
"                                                                                                                                ",
"                                                                                                                                ",
"                                                                                                                                ",
"                                                                                                                                ",
"                                                                                                                                ",
"                                                          55..%%::::::::,,33                                                    ",
"                                                          55..%%::::::::,,33                                                    ",
"                                                          <<55553333333333,,                                                    ",
"                                                          <<55553333333333,,                                                    ",
"                                                      33333311%%%%%%%%%%%%%%$$$$                                                ",
"                                                      33333311%%%%%%%%%%%%%%$$$$                                                ",
"                                                    333344555544332211>>--&&&&%%$$                                              ",
"                                                    333344555544332211>>--&&&&%%$$                                              ",
"                                                  33335555555544332211<<;;==&&&&%%$$                                            ",
"                                                  33335555555544332211<<;;==&&&&%%$$                                            ",
"                                                  33445555555544332211<<>>;;==&&%%$$                                            ",
"                                                  33445555555544332211<<>>;;==&&%%$$                                            ",
"                                                3333555555555544332211<<>>;;==&&%%$$$$                                          ",
"                                                3333555555555544332211<<>>;;==&&%%$$$$                                          ",
"                                                3344555555554433222211<<>>;;==&&%%$$$$                                          ",
"                                                3344555555554433222211<<>>;;==&&%%$$$$                                          ",
"                                                3344555555443333221111>>>>;;==&&%%$$$$                                          ",
"                                                3344555555443333221111>>>>;;==&&%%$$$$                                          ",
"                                                33445555444433222211<<>>;;--==&&%%$$$$                                          ",
"                                                33445555444433222211<<>>;;--==&&%%$$$$                                          ",
"                                                33445555443333222211<<::;;--==&&%%$$$$                                          ",
"                                                33445555443333222211<<::;;--==&&%%$$$$                                          ",
"                                                33445555443322221111<<::;;--==&&%%$$$$                                          ",
"                                                33445555443322221111<<::;;--==&&%%$$$$                                          ",
"                                                33445555443322221111<<::;;--==&&%%$$$$                                          ",
"                                                33445555443322221111<<::;;--==&&%%$$$$                                          ",
"                                                33444455443322221111<<::;;--==&&%%$$$$                                          ",
"                                                33444455443322221111<<::;;--==&&%%$$$$                                          ",
"                                                33444455443322221111<<::;;--==&&%%$$$$                                          ",
"                                                33444455443322221111<<::;;--==&&%%$$$$                                          ",
"                                                33334455443322221111<<::;;--==&&%%$$$$                                          ",
"                                                33334455443322221111<<::;;--==&&%%$$$$                                          ",
"                                                33334455443322221111<<::;;--==&&%%$$$$                                          ",
"                                                33334455443322221111<<::;;--==&&%%$$$$                                          ",
"                                                  334455443322221111<<::;;--==&&%%$$                                            ",
"                                                  334455443322221111<<::;;--==&&%%$$                                            ",
"                                                  334455443322221111<<::;;--==&&%%$$                                            ",
"                                                  334455443322221111<<::;;--==&&%%$$                                            ",
"                                                  334455443322221111<<::;;--==&&%%$$                                            ",
"                                                  334455443322221111<<::;;--==&&%%$$                                            ",
"                                                  334444443322221111<<::;;--==&&%%$$                                            ",
"                                                  334444443322221111<<::;;--==&&%%$$                                            ",
"                                                  224444443322221111<<::;;--==&&%%$$                                            ",
"                                                  224444443322221111<<::;;--==&&%%$$                                            ",
"                                                    3344443322221111<<::;;==**%%$$                                              ",
"                                                    3344443322221111<<::;;==**%%$$                                              ",
"                                                    33444433222211<<<<::;;==**%%$$                                              ",
"                                                    33444433222211<<<<::;;==**%%$$                                              ",
"                                                    22333333222211<<<<::;;==&&%%$$                                              ",
"                                                    22333333222211<<<<::;;==&&%%$$                                              ",
"                                                      223333222211<<<<::;;**%%$$                                                ",
"                                                      223333222211<<<<::;;**%%$$                                                ",
"                                                      222233222211<<<<::;;**%%$$                                                ",
"                                                      222233222211<<<<::;;**%%$$                                                ",
"                                                      2222222222<<<<<<::==**%%$$@@@@@@@@@@##################                    ",
"                                                      2222222222<<<<<<::==**%%$$@@@@@@@@@@##################                    ",
"                                                        11222211<<<<<<::==**$$XXXXXXXXXXXXXXoooooo++++@@@@@@##############      ",
"                                                        11222211<<<<<<::==**$$XXXXXXXXXXXXXXoooooo++++@@@@@@##############      ",
"                                                        11111111<<,,::====%%$$XXXXXXXXXXXXoooo++++@@@@@@##########              ",
"                                                        11111111<<,,::====%%$$XXXXXXXXXXXXoooo++++@@@@@@##########              ",
"                                                          OOOOOOOOOOOOOOOOOO##########################                          ",
"                                                          OOOOOOOOOOOOOOOOOO##########################                          "
};
