/* XPM */
static char *parte_11[] = {
/* columns rows colors chars-per-pixel */
"128 128 46 1 ",
"  c #00000000",
". c #FF000000",
"X c #FF382C14",
"o c #FF202020",
"O c #FF2C2C2C",
"+ c #FF383838",
"@ c #FF483818",
"# c #FF543C1C",
"$ c #FF5C4020",
"% c #FF6C4824",
"& c #FF744C28",
"* c #FF000040",
"= c #FF000058",
"- c #FF000064",
"; c #FF000070",
": c #FF00007C",
"> c #FF484848",
", c #FF545454",
"< c #FF646464",
"1 c #FF80502C",
"2 c #FF885830",
"3 c #FF905C34",
"4 c #FF9C6038",
"5 c #FFA0643C",
"6 c #FFA86840",
"7 c #FFB47044",
"8 c #FFBC7848",
"9 c #FFC87C4C",
"0 c #FFD08050",
"q c #FFDC8854",
"w c #FFE88C58",
"e c #FFFC9C60",
"r c #FF000088",
"t c #FF000098",
"y c #FF0000A4",
"u c #FF0000B0",
"i c #FF0000BC",
"p c #FF0000C8",
"a c #FF0000D4",
"s c #FF0000E0",
"d c #FF0000EC",
"f c #FF0000FC",
"g c #FF2024FC",
"h c #FF5454FC",
"j c #FF5C60FC",
"k c #FF9C9CFC",
/* pixels */
"                                                                                                                                ",
"                                                                                                                                ",
"                                                                                                                                ",
"                                                                                                                                ",
"                                                                                                                                ",
"                                                                                                                                ",
"                                                                                                                                ",
"                                                                                                                                ",
"                                                                                                                                ",
"                                                                                                                                ",
"                                                                                                                                ",
"                                                                                                                                ",
"                                                                                                                                ",
"                                                                                                                                ",
"                                                                                                                                ",
"                                                                                                                                ",
"                                                                                                                                ",
"                                                                                                                                ",
"                                                              66                                                                ",
"                                                              66                                                                ",
"                                                              0066                                                              ",
"                                                              0066                                                              ",
"                                                              ww11                                                              ",
"                                                              ww11                                                              ",
"                                                            00ww11                                                              ",
"                                                            00ww11                                                              ",
"                                                            00ww%%                                                              ",
"                                                            00ww%%                                                              ",
"                                                          00  ww66XX                                                            ",
"                                                          00  ww66XX                                                            ",
"                                                        00  33996655                                                            ",
"                                                        00  33996655                                                            ",
"                                                        000099%%3322                                                            ",
"                                                        000099%%3322                                                            ",
"                                                      2200229933%%2255&&                                                        ",
"                                                      2200229933%%2255&&                                                        ",
"                                                      0066ww%%66%%2255&&                                                        ",
"                                                      0066ww%%66%%2255&&                                                        ",
"                                                      0022wwww00%%%%22&&                                                        ",
"                                                      0022wwww00%%%%22&&                                                        ",
"                                                    00ww227722ww7744%%&&                                                        ",
"                                                    00ww227722ww7744%%&&                                                        ",
"                                                    00wwww447700%%00%%&&                                                        ",
"                                                    00wwww447700%%00%%&&                                                        ",
"                                                  004422ee77qq77%%XX22%%22                                                      ",
"                                                  004422ee77qq77%%XX22%%22                                                      ",
"                                                  00662200ee7733%%66226622    88                                                ",
"                                                  00662200ee7733%%66226622    88                                                ",
"                                                    664422448811%%662266XX00    88                                              ",
"                                                    664422448811%%662266XX00    88                                              ",
"                                                    2222ee008833%%6622662200    0088                                            ",
"                                                    2222ee008833%%6622662200    0088                                            ",
"                                                  66448800668844%%66226622220066%%00                                            ",
"                                                  66448800668844%%66226622220066%%00                                            ",
"                                                  66%%004488%%446622226600222266%%22                                            ",
"                                                  66%%004488%%446622226600222266%%22                                            ",
"                                                  000044882200%%%%XX004444002266%%00                                            ",
"                                                  000044882200%%%%XX004444002266%%00                                            ",
"                                                  0000448888447700%%0088$$6666%%%%                                              ",
"                                                  0000448888447700%%0088$$6666%%%%                                              ",
"                                                  660066wwee77ww%%%%008844$$66%%%%                                              ",
"                                                  660066wwee77ww%%%%008844$$66%%%%                                              ",
"                                                    664422eeee44%%4466%%66$$%%22%%                                              ",
"                                                    664422eeee44%%4466%%66$$%%22%%                                              ",
"                                                    22222266ee44%%44%%%%1166%%22%%                                              ",
"                                                    22222266ee44%%44%%%%1166%%22%%                                              ",
"                                                    00ee2266004400%%%%441166$$00%%%%                                            ",
"                                                    00ee2266004400%%%%441166$$00%%%%                                            ",
"                                                    7722ee0000440000%%441111$$22%%%%                                            ",
"                                                    7722ee0000440000%%441111$$22%%%%                                            ",
"                                                      7722440044000000441122$$22XX                                              ",
"                                                      7722440044000000441122$$22XX                                              ",
"                                                8888  7700%%552200%%00%%%%$$%%%%                                                ",
"                                                8888  7700%%552200%%00%%%%$$%%%%                                                ",
"                                                8877772244%%22%%%%44000044%%%%&&                                                ",
"                                                8877772244%%22%%%%44000044%%%%&&                                                ",
"                                                7744eeee0055%%%%%%4400%%66%%22&&                                                ",
"                                                7744eeee0055%%%%%%4400%%66%%22&&                                                ",
"                                                  220000ee00%%0000%%0066%%2255&&                                                ",
"                                                  220000ee00%%0000%%0066%%2255&&                                                ",
"                                                  22440000ee00%%%%%%44%%66%%55&&                                                ",
"                                                  22440000ee00%%%%%%44%%66%%55&&                                                ",
"                                                    443344%%%%0000664466%%5555                                                  ",
"                                                    443344%%%%0000664466%%5555                                                  ",
"                                                    00  333333004466%%66%%55                                                    ",
"                                                    00  333333004466%%66%%55                                                    ",
"                                                        @@%%44%%00%%##%%555555                                                  ",
"                                                        @@%%44%%00%%##%%555555                                                  ",
"                                                          @@%%44&&####%%5555                                                    ",
"                                                          @@%%44&&####%%5555                                                    ",
"                                                            0044##&&XX  55  55                                                  ",
"                                                            0044##&&XX  55  55                                                  ",
"                                                            00XX&&##XXXX                                                        ",
"                                                            00XX&&##XXXX                                                        ",
"                                                        ppXXXXXXXXXXXXXX==                                                      ",
"                                                        ppXXXXXXXXXXXXXX==                                                      ",
"                                                        hhkkhhffffiitt====                                                      ",
"                                                        hhkkhhffffiitt====                                                      ",
"                                                          pppptt----****                                                        ",
"                                                          pppptt----****                                                        ",
"                                                          ssssuutttt--**                                                        ",
"                                                          ssssuutttt--**                                                        ",
"                                                        sskkjjaauutt::====                                                      ",
"                                                        sskkjjaauutt::====                                                      ",
"                                                      ssggjjppyyttrr::--====                                                    ",
"                                                      ssggjjppyyttrr::--====                                                    ",
"                                                      ssggddiiyyttrr::;;====                                                    ",
"                                                      ssggddiiyyttrr::;;====                                                    ",
"                                                      ssggddiiyyttrr::;;====                                                    ",
"                                                      ssggddiiyyttrr::;;====                                                    ",
"                                                      ssggddiiyyttrr::;;====                                                    ",
"                                                      ssggddiiyyttrr::;;====                                                    ",
"                                                      ssggddiiyyttrr::;;====                                                    ",
"                                                      ssggddiiyyttrr::;;====                                                    ",
"                                                      ssggddiiyyttrr::;;====                                                    ",
"                                                      ssggddiiyyttrr::;;====                                                    ",
"                                                      ssggddiiyyttrr::;;====                                                    ",
"                                                      ssggddiiyyttrr::;;====                                                    ",
"                                                      ssggddiiyyttrr::;;====                                                    ",
"                                                      ssggddiiyyttrr::;;====                                                    ",
"                                                      ssggddiiyyttrr::;;====                                                    ",
"                                                      ssggddiiyyttrr::;;====                                                    ",
"                                                      ssggddiiyyttrr::--====OOOOOOOOOOOOOOOOOOOOOOOO++++++++++>>>>,,,,,,<<      ",
"                                                      ssggddiiyyttrr::--====OOOOOOOOOOOOOOOOOOOOOOOO++++++++++>>>>,,,,,,<<      ",
"                                                      ttssddiiyyttrr::====**................ooooooooOOOOOOOOOO++++>>>>,,,,,,<<  ",
"                                                      ttssddiiyyttrr::====**................ooooooooOOOOOOOOOO++++>>>>,,,,,,<<  ",
"                                                        tttttt::::----****ooooooooooooooooooOOOOOOOOOOOO++++>>>>>>,,,,,,<<<<    ",
"                                                        tttttt::::----****ooooooooooooooooooOOOOOOOOOOOO++++>>>>>>,,,,,,<<<<    "
};
