/* XPM */
static char *parte_19[] = {
/* columns rows colors chars-per-pixel */
"128 128 17 1 ",
"  c #00000000",
". c #FF2C2C2C",
"X c #FF383838",
"o c #FF484848",
"O c #FF545454",
"+ c #FF646464",
"@ c #FF707070",
"# c #FF7C7C7C",
"$ c #FF8C8C8C",
"% c #FF989898",
"& c #FFA8A8A8",
"* c #FFB4B4B4",
"= c #FFC0C0C0",
"- c #FFD0D0D0",
"; c #FFDCDCDC",
": c #FFECECEC",
"> c #FFFCFCFC",
/* pixels */
"                                                                                                                                ",
"                                                                                                                                ",
"                                                                                                                                ",
"                                                                                                                                ",
"                                                                                                                                ",
"                                                                                                                                ",
"                                                                                                                                ",
"                                                                                                                                ",
"                                                                                                                                ",
"                                                                                                                                ",
"                                                                                                                                ",
"                                                                                                                                ",
"                                                                                                                                ",
"                                                                                                                                ",
"                                                                                                                                ",
"                                                                                                                                ",
"                                                                                                                                ",
"                                                                                                                                ",
"                                                                                                                                ",
"                                                                                                                                ",
"                                                                                                                                ",
"                                                                                                                                ",
"                                                                                                                                ",
"                                                                                                                                ",
"                                                                                                                                ",
"                                                                                                                                ",
"                                                                                                                                ",
"                                                                                                                                ",
"                                                                                                                                ",
"                                                                                                                                ",
"                                                                                                                                ",
"                                                                                                                                ",
"                                                                                                                                ",
"                                                                                                                                ",
"                                                                                                                                ",
"                                                                                                                                ",
"                                                                                                                                ",
"                                                                                                                                ",
"                                                                                                                                ",
"                                                                                                                                ",
"                                                                                                                                ",
"                                                                                                                                ",
"                                                                                                                                ",
"                                                                                                                                ",
"                                                                                                                                ",
"                                                                                                                                ",
"                                                                                                                                ",
"                                                                                                                                ",
"                                                                                                                                ",
"                                                                                                                                ",
"                                                                                                                                ",
"                                                                                                                                ",
"                                                                                                                                ",
"                                                                                                                                ",
"                                                                                                                                ",
"                                                                                                                                ",
"                                                                                                                                ",
"                                                                                                                                ",
"                                                                                                                                ",
"                                                                                                                                ",
"                                                                                                                                ",
"                                                                                                                                ",
"                                                                                                                                ",
"                                                                                                                                ",
"                                                                                                                                ",
"                                                                                                                                ",
"                                                                                                                                ",
"                                                                                                                                ",
"                                                                                                                                ",
"                                                                                                                                ",
"                                                                                                                                ",
"                                                                                                                                ",
"                                                                                                                                ",
"                                                                                                                                ",
"                                                                                                                                ",
"                                                                                                                                ",
"                                                                                                                                ",
"                                                                                                                                ",
"                                                                                                                                ",
"                                                                                                                                ",
"                                                                                                                                ",
"                                                                                                                                ",
"                                                                                                                                ",
"                                                                                                                                ",
"                                                                                                                                ",
"                                                                                                                                ",
"                                                                                                                                ",
"                                                                                                                                ",
"                                                                                                                                ",
"                                                                                                                                ",
"                                                                                                                                ",
"                                                                                                                                ",
"                                                                                                                                ",
"                                                                                                                                ",
"                                                                                                                                ",
"                                                                                                                                ",
"                                                                                                                                ",
"                                                                                                                                ",
"                                                ********                                                                        ",
"                                                ********                                                                        ",
"                                              **;;;;******    ;;                  --&&--                                        ",
"                                              **;;;;******    ;;                  --&&--                                        ",
"                                  ----%%    **;;;;==%%%%&&**;;&&$$;;$$$$        ----------        ;;;;                          ",
"                                  ----%%    **;;;;==%%%%&&**;;&&$$;;$$$$        ----------        ;;;;                          ",
"                                  --oo%%%%  **====######++;;;;;;;;====$$$$    --&&--&&--&&&&&&    ;;;;;;                        ",
"                                  --oo%%%%  **====######++;;;;;;;;====$$$$    --&&--&&--&&&&&&    ;;;;;;                        ",
"                            &&&&  %%@@%%;;;;;;==%%++++++OO@@==;;&&$$@@oo$$$$&&**&&++++++&&&&$$$$  ;;====%%                      ",
"                            &&&&  %%@@%%;;;;;;==%%++++++OO@@==;;&&$$@@oo$$$$&&**&&++++++&&&&$$$$  ;;====%%                      ",
"                      &&&&  &&&&&&;;&&;;>>>>>>>>==&&++OOOO@@;;==$$oo....$$&&==--%%######$$$$$$##--==  %%                        ",
"                      &&&&  &&&&&&;;&&;;>>>>>>>>==&&++OOOO@@;;==$$oo....$$&&==--%%######$$$$$$##--==  %%                        ",
"                              &&;;&&%%++$$;;==;;>>::**::>>$$==$$oo----------&&==%%##oo########--==        &&----------&&        ",
"                              &&;;&&%%++$$;;==;;>>::**::>>$$==$$oo----------&&==%%##oo########--==        &&----------&&        ",
"                    ;;;;        ;;&&>>##XX==&&==;;::++::;;&&$$$$-->>>>;;;;;;--..@@..++OOOOOO--==%%****  &&--&&@@--@@&&%%&&      ",
"                    ;;;;        ;;&&>>##XX==&&==;;::++::;;&&$$$$-->>>>;;;;;;--..@@..++OOOOOO--==%%****  &&--&&@@--@@&&%%&&      ",
"      ----    &&--;;&&&&&&    ;;&&OO>>>>>>;;##==&&--++--&&&&&&@@==>>;;;;;;;;==..oooo&&##OO--==&&@@%%%%**&&&&@@@@@@&&--%%&&  &&  ",
"      ----    &&--;;&&&&&&    ;;&&OO>>>>>>;;##==&&--++--&&&&&&@@==>>;;;;;;;;==..oooo&&##OO--==&&@@%%%%**&&&&@@@@@@&&--%%&&  &&  ",
"      --&&&&&&--&&&&oo@@&&&&--&&##OO;;==####OO######OOOO@@@@@@XX==####&&####==@@oo&&--;;;;**&&OO##%%%%%%@@@@&&&&@@@@--%%    &&  ",
"      --&&&&&&--&&&&oo@@&&&&--&&##OO;;==####OO######OOOO@@@@@@XX==####&&####==@@oo&&--;;;;**&&OO##%%%%%%@@@@&&&&@@@@--%%    &&  ",
"                    $$$$$$$$;;&&OO$$%%%%##XXOOOOOOOOOOXX--@@XX==;;XX++XXOOXX;;==..++&&----==XX####;;&&@@&&&&&&&&@@------==**$$  ",
"                    $$$$$$$$;;&&OO$$%%%%##XXOOOOOOOOOOXX--@@XX==;;XX++XXOOXX;;==..++&&----==XX####;;&&@@&&&&&&&&@@------==**$$  ",
"              &&------&&@@;;&&oo        OOXX@@XXOO------**##OO%%;;;;>>$$==;;;;%%..oo++&&&&##XXXX##%%&&;;--------%%**======$$$$  ",
"              &&------&&@@;;&&oo        OOXX@@XXOO------**##OO%%;;;;>>$$==;;;;%%..oo++&&&&##XXXX##%%&&;;--------%%**======$$$$  ",
"            &&    --    ;;oo&&oo  >>--**@@OO%%OO==;;;;@@%%OOOOOO@@--;;;;;;--@@OOXX@@%%--;;--%%OOOO@@%%&&&&%%%%%%%%              ",
"            &&    --    ;;oo&&oo  >>--**@@OO%%OO==;;;;@@%%OOOOOO@@--;;;;;;--@@OOXX@@%%--;;--%%OOOO@@%%&&&&%%%%%%%%              ",
"                &&      &&&&&&oo  >>--**==**%%%%&&$$oo**@@......$$$$======$$$$XX@@$$&&----$$%%OOOOOO##################          ",
"                &&      &&&&&&oo  >>--**==**%%%%&&$$oo**@@......$$$$======$$$$XX@@$$&&----$$%%OOOOOO##################          ",
"                                                ==;;;;**++@@  @@**==;;;;;;**%%XXXXXXOO$$$$OOOO@@@@  OOOOOOOOOOOO                ",
"                                                ==;;;;**++@@  @@**==;;;;;;**%%XXXXXXOO$$$$OOOO@@@@  OOOOOOOOOOOO                "
};
