/* XPM */
static char *parte_40[] = {
/* columns rows colors chars-per-pixel */
"128 128 26 1 ",
"  c #00000000",
". c #FF2C2C2C",
"X c #FF484848",
"o c #FF545454",
"O c #FF7C7C7C",
"+ c #FF880000",
"@ c #FF980000",
"# c #FFA40000",
"$ c #FFBC0000",
"% c #FFC80000",
"& c #FFD40000",
"* c #FFE00000",
"= c #FFFC0000",
"- c #FFFC2020",
"; c #FFFC4040",
": c #FFFC5C5C",
"> c #FFFC7C7C",
", c #FF8C8C8C",
"< c #FF989898",
"1 c #FFA8A8A8",
"2 c #FFFC9C9C",
"3 c #FFFCB8B8",
"4 c #FFFCFC9C",
"5 c #FFFCFCB8",
"6 c #FFFCD8D8",
"7 c #FFFCFCFC",
/* pixels */
"                                                                ..                                                              ",
"                                                                ..                                                              ",
"                                                              OOooXX                                                            ",
"                                                              OOooXX                                                            ",
"                                                                OO                                                              ",
"                                                                OO                                                              ",
"                                                              @@##++                                                            ",
"                                                              @@##++                                                            ",
"                                                        @@$$&&&&&&%%%%$$@@                                                      ",
"                                                        @@$$&&&&&&%%%%$$@@                                                      ",
"                                                    @@&&--;;::::;;----**&&##@@                                                  ",
"                                                    @@&&--;;::::;;----**&&##@@                                                  ",
"                                                  @@--;;>>>>>>>>>>;;--==**&&##@@                                                ",
"                                                  @@--;;>>>>>>>>>>;;--==**&&##@@                                                ",
"                                                @@--;;>>22222222>>>>;;--==**&&##@@                                              ",
"                                                @@--;;>>22222222>>>>;;--==**&&##@@                                              ",
"                                              @@--::>>2233665577444455663322>>::**@@                                            ",
"                                              @@--::>>2233665577444455663322>>::**@@                                            ",
"                                              **==>>22222233665544556633222222>>==**                                            ",
"                                              **==>>22222233665544556633222222>>==**                                            ",
"                                                @@==::>>223333333333333322>>::==@@                                              ",
"                                                @@==::>>223333333333333322>>::==@@                                              ",
"                                                                                                                                ",
"                                                                                                                                ",
"                                                                                                                                ",
"                                                                                                                                ",
"                                                                                                                                ",
"                                                                                                                                ",
"                                                                                                                                ",
"                                                                                                                                ",
"                                                                                                                                ",
"                                                                                                                                ",
"                                                                                                                                ",
"                                                                                                                                ",
"                                                                                                                                ",
"                                                                                                                                ",
"                                                                                                                                ",
"                                                                                                                                ",
"                                                                                                                                ",
"                                                                                                                                ",
"                                                                                                                                ",
"                                                                                                                                ",
"                                                                                                                                ",
"                                                                                                                                ",
"                                                                                                                                ",
"                                                                                                                                ",
"                                                                                                                                ",
"                                                                                                                                ",
"                                                                                                                                ",
"                                                                                                                                ",
"                                                                                                                                ",
"                                                                                                                                ",
"                                                                                                                                ",
"                                                                                                                                ",
"                                                                                                                                ",
"                                                                                                                                ",
"                                                                                                                                ",
"                                                                                                                                ",
"                                                                                                                                ",
"                                                                                                                                ",
"                                                                                                                                ",
"                                                                                                                                ",
"                                                                                                                                ",
"                                                                                                                                ",
"                                                                                                                                ",
"                                                                                                                                ",
"                                                                                                                                ",
"                                                                                                                                ",
"                                                                                                                                ",
"                                                                                                                                ",
"                                                                                                                                ",
"                                                                                                                                ",
"                                                                                                                                ",
"                                                                                                                                ",
"                                                                                                                                ",
"                                                                                                                                ",
"                                                                                                                                ",
"                                                                                                                                ",
"                                                                                                                                ",
"                                                                                                                                ",
"                                                                                                                                ",
"                                                                                                                                ",
"                                                                                                                                ",
"                                                                                                                                ",
"                                                                                                                                ",
"                                                                                                                                ",
"                                                                                                                                ",
"                                                                                                                                ",
"                                                                                                                                ",
"                                                                                                                                ",
"                                                                                                                                ",
"                                                                                                                                ",
"                                                                                                                                ",
"                                                                                                                                ",
"                                                                                                                                ",
"                                                                                                                                ",
"                                                                                                                                ",
"                                                                                                                                ",
"                                                                                                                                ",
"                                                                                                                                ",
"                                                                                                                                ",
"                                                                                                                                ",
"                                                                                                                                ",
"                                                                                                                                ",
"                                                                                                                                ",
"                                                                                                                                ",
"                                                                                                                                ",
"                                                                                                                                ",
"                                                                                                                                ",
"                                                                                                                                ",
"                                                                                                                                ",
"                                                                                                                                ",
"                                                                                                                                ",
"                                                                                                                                ",
"                                                                                                                                ",
"                                                                                                                                ",
"                                                                                                                                ",
"                                                                                                                                ",
"                  OOOOOOOOOOOOOOOOOOOOOOOOOOOOOOOOOOOOOOOOOOOOOOOOOOOOOOOOOOOOOOOOOOOOOOOOOOOOOOOOOOOOOOOOOOOO                  ",
"                  OOOOOOOOOOOOOOOOOOOOOOOOOOOOOOOOOOOOOOOOOOOOOOOOOOOOOOOOOOOOOOOOOOOOOOOOOOOOOOOOOOOOOOOOOOOO                  ",
"          OOOOOOOO,,,,,,,,,,,,,,,,,,,,,,,,,,,,,,,,,,,,,,,,,,,,,,,,,,,,,,,,,,,,,,,,,,,,,,,,,,,,,,,,,,,,,,,,,,,,OOOOOO            ",
"          OOOOOOOO,,,,,,,,,,,,,,,,,,,,,,,,,,,,,,,,,,,,,,,,,,,,,,,,,,,,,,,,,,,,,,,,,,,,,,,,,,,,,,,,,,,,,,,,,,,,OOOOOO            ",
"      OOOOOO,,,,,,,,,,<<<<<<<<<<<<<<<<<<<<<<<<<<<<<<<<<<<<<<<<<<<<<<<<<<<<<<<<<<<<<<<<<<<<<<<<<<<<<<<<<<<<<<,,,,,,OOOOOOOO      ",
"      OOOOOO,,,,,,,,,,<<<<<<<<<<<<<<<<<<<<<<<<<<<<<<<<<<<<<<<<<<<<<<<<<<<<<<<<<<<<<<<<<<<<<<<<<<<<<<<<<<<<<<,,,,,,OOOOOOOO      ",
"      OOOO,,,,,,,,<<<<<<<<111111111111111111111111111111111111111111111111111111111111111111111111111111<<<<<<<<,,,,,,OOOO      ",
"      OOOO,,,,,,,,<<<<<<<<111111111111111111111111111111111111111111111111111111111111111111111111111111<<<<<<<<,,,,,,OOOO      ",
"          OOOO,,,,,,,,,,,,,,,,,,,,,,,,,,,,,,,,,,,,,,,,,,,,,,,,,,,,,,,,,,,,,,,,,,,,,,,,,,,,,,,,,,,,,,,,,,,,,,,,,,,,OOOO          ",
"          OOOO,,,,,,,,,,,,,,,,,,,,,,,,,,,,,,,,,,,,,,,,,,,,,,,,,,,,,,,,,,,,,,,,,,,,,,,,,,,,,,,,,,,,,,,,,,,,,,,,,,,,OOOO          "
};
