/* XPM */
static char *parte_4[] = {
/* columns rows colors chars-per-pixel */
"128 128 24 1 ",
"  c #00000000",
". c #FF706C00",
"X c #FF7C7C7C",
"o c #FFE46C00",
"O c #FF848400",
"+ c #FF9C9C00",
"@ c #FFB4AC00",
"# c #FFFC8820",
"$ c #FFCCC400",
"% c #FFE4D800",
"& c #FFFCF400",
"* c #FFFCF420",
"= c #FFFCA85C",
"- c #FFFCF440",
"; c #FFFCFC54",
": c #FFFCF85C",
"> c #FFFCFC7C",
", c #FF8C8C8C",
"< c #FF989898",
"1 c #FFA8A8A8",
"2 c #FFFCFC9C",
"3 c #FFFCFCB8",
"4 c #FFFCFCD8",
"5 c #FFFCFCFC",
/* pixels */
"                                                          ++%%%%@@oo##++                                                        ",
"                                                          ++%%%%@@oo##++                                                        ",
"                                                              &&@@oo                                                            ",
"                                                              &&@@oo                                                            ",
"                                                              44&&==                                                            ",
"                                                              44&&==                                                            ",
"                                                    $$%%    44&&>>$$@@    $$                                                    ",
"                                                    $$%%    44&&>>$$@@    $$                                                    ",
"                                                  $$%%$$    %%::22::%%  **%%$$                                                  ",
"                                                  $$%%$$    %%::22::%%  **%%$$                                                  ",
"                                          $$    $$%%22%%$$  %%::44::%%$$%%22%%$$    $$                                          ",
"                                          $$    $$%%22%%$$  %%::44::%%$$%%22%%$$    $$                                          ",
"                                        $$%%$$  $$%%55%%$$==  %%::%%  $$%%44%%$$  $$%%$$                                        ",
"                                        $$%%$$  $$%%55%%$$==  %%::%%  $$%%44%%$$  $$%%$$                                        ",
"                                      $$%%22%%$$++$$::$$==++==++::++==  $$::$$++$$%%22%%$$                                      ",
"                                      $$%%22%%$$++$$::$$==++==++::++==  $$::$$++$$%%22%%$$                                      ",
"                                      $$%%55%%$$**++$$++++$$++..@@..++==++$$++55++%%55%%$$                                      ",
"                                      $$%%55%%$$**++$$++++$$++..@@..++==++$$++55++%%55%%$$                                      ",
"                                        $$::$$++**++++++++%%++$$;;..$$--..++++55++$$::$$                                        ",
"                                        $$::$$++**++++++++%%++$$;;..$$--..++++55++$$::$$                                        ",
"                                          $$$$%%++22@@%%++$$%%OO**OO**$$..;;$$++%%&&$$@@                                        ",
"                                          $$$$%%++22@@%%++$$%%OO**OO**$$..;;$$++%%&&$$@@                                        ",
"                                          @@%%&&@@  $$@@%%22%%++@@++**22%%@@%%  @@&&%%$$                                        ",
"                                          @@%%&&@@  $$@@%%22%%++@@++**22%%@@%%  @@&&%%$$                                        ",
"                                          $$%%22@@&&>>@@&&22%%@@**@@%%22&&@@22&&@@22%%$$                                        ",
"                                          $$%%22@@&&>>@@&&22%%@@**@@%%22&&@@22&&@@22%%$$                                        ",
"                                            --2222&&33@@  22%%@@**@@%%22  @@--&&2222--                                          ",
"                                            --2222&&33@@  22%%@@**@@%%22  @@--&&2222--                                          ",
"                                              22    >>  552222  22  222222  >>    22                                            ",
"                                              22    >>  552222  22  222222  >>    22                                            ",
"                                                    33  ::44::  22  ::44::  33                                                  ",
"                                                    33  ::44::  22  ::44::  33                                                  ",
"                                                          ::  333333  ::                                                        ",
"                                                          ::  333333  ::                                                        ",
"                                                              ::33::                                                            ",
"                                                              ::33::                                                            ",
"                                                                ::                                                              ",
"                                                                ::                                                              ",
"                                                                                                                                ",
"                                                                                                                                ",
"                                                                                                                                ",
"                                                                                                                                ",
"                                                                                                                                ",
"                                                                                                                                ",
"                                                                                                                                ",
"                                                                                                                                ",
"                                                                                                                                ",
"                                                                                                                                ",
"                                                                                                                                ",
"                                                                                                                                ",
"                                                                                                                                ",
"                                                                                                                                ",
"                                                                                                                                ",
"                                                                                                                                ",
"                                                                                                                                ",
"                                                                                                                                ",
"                                                                                                                                ",
"                                                                                                                                ",
"                                                                                                                                ",
"                                                                                                                                ",
"                                                                                                                                ",
"                                                                                                                                ",
"                                                                                                                                ",
"                                                                                                                                ",
"                                                                                                                                ",
"                                                                                                                                ",
"                                                                                                                                ",
"                                                                                                                                ",
"                                                                                                                                ",
"                                                                                                                                ",
"                                                                                                                                ",
"                                                                                                                                ",
"                                                                                                                                ",
"                                                                                                                                ",
"                                                                                                                                ",
"                                                                                                                                ",
"                                                                                                                                ",
"                                                                                                                                ",
"                                                                                                                                ",
"                                                                                                                                ",
"                                                                                                                                ",
"                                                                                                                                ",
"                                                                                                                                ",
"                                                                                                                                ",
"                                                                                                                                ",
"                                                                                                                                ",
"                                                                                                                                ",
"                                                                                                                                ",
"                                                                                                                                ",
"                                                                                                                                ",
"                                                                                                                                ",
"                                                                                                                                ",
"                                                                                                                                ",
"                                                                                                                                ",
"                                                                                                                                ",
"                                                                                                                                ",
"                                                                                                                                ",
"                                                                                                                                ",
"                                                                                                                                ",
"                                                                                                                                ",
"                                                                                                                                ",
"                                                                                                                                ",
"                                                                                                                                ",
"                                                                                                                                ",
"                                                                                                                                ",
"                                                                                                                                ",
"                                                                                                                                ",
"                                                                                                                                ",
"                                                                                                                                ",
"                                                                                                                                ",
"                                                                                                                                ",
"                                                                                                                                ",
"                                                                                                                                ",
"                                                                                                                                ",
"                                                                                                                                ",
"                                                                                                                                ",
"                                                                                                                                ",
"                                                                                                                                ",
"              XXXXXXXXXXXXXXXXXXXXXXXXXXXXXXXXXXXXXXXXXXXXXXXXXXXXXXXXXXXXXXXXXXXXXXXXXXXXXXXXXXXXXXXXXXXXXXXXXXXX              ",
"              XXXXXXXXXXXXXXXXXXXXXXXXXXXXXXXXXXXXXXXXXXXXXXXXXXXXXXXXXXXXXXXXXXXXXXXXXXXXXXXXXXXXXXXXXXXXXXXXXXXX              ",
"    XXXXXXXXXX,,,,,,,,,,,,,,,,,,<<<<<<<<<<<<<<<<<<<<<<<<<<<<<<<<<<<<<<<<<<<<<<<<<<<<<<<<<<<<<<,,,,,,,,,,,,,,,,,,,,XXXXXXXX      ",
"    XXXXXXXXXX,,,,,,,,,,,,,,,,,,<<<<<<<<<<<<<<<<<<<<<<<<<<<<<<<<<<<<<<<<<<<<<<<<<<<<<<<<<<<<<<,,,,,,,,,,,,,,,,,,,,XXXXXXXX      ",
"  XXXXXX,,,,,,,,,,<<<<<<<<<<<<<<11111111111111111111111111111111111111111111111111111111111111<<<<<<<<<<<<<<,,,,,,,,,,,,XXXX    ",
"  XXXXXX,,,,,,,,,,<<<<<<<<<<<<<<11111111111111111111111111111111111111111111111111111111111111<<<<<<<<<<<<<<,,,,,,,,,,,,XXXX    ",
"  XX,,,,,,,,<<<<<<<<1111111111111111111111111111111111111111111111111111111111111111111111111111111111<<<<<<<<<<<<,,,,,,,,XXXX  ",
"  XX,,,,,,,,<<<<<<<<1111111111111111111111111111111111111111111111111111111111111111111111111111111111<<<<<<<<<<<<,,,,,,,,XXXX  ",
"      XXXXXX,,,,,,,,,,,,,,,,,,,,<<<<<<<<<<<<<<<<<<<<<<<<<<<<<<<<<<<<<<<<<<<<<<<<<<<<<<<<<<<<<<,,,,,,,,,,,,,,,,,,,,XXXXXXXXXX    ",
"      XXXXXX,,,,,,,,,,,,,,,,,,,,<<<<<<<<<<<<<<<<<<<<<<<<<<<<<<<<<<<<<<<<<<<<<<<<<<<<<<<<<<<<<<,,,,,,,,,,,,,,,,,,,,XXXXXXXXXX    "
};
