/* XPM */
static char *parte_24[] = {
/* columns rows colors chars-per-pixel */
"128 128 36 1 ",
"  c #00000000",
". c #FF000000",
"X c #FF744C28",
"o c #FF005858",
"O c #FF007070",
"+ c #FF545454",
"@ c #FF646464",
"# c #FF707070",
"$ c #FF7C7C7C",
"% c #FF9C4C00",
"& c #FF885830",
"* c #FF9C6038",
"= c #FFCC6000",
"- c #FFE46C00",
"; c #FFA86840",
": c #FFBC7848",
"> c #FFC87C4C",
", c #FF048800",
"< c #FF049800",
"1 c #FF04B000",
"2 c #FF04BC00",
"3 c #FF00D400",
"4 c #FF00FC00",
"5 c #FFFC8820",
"6 c #FF008484",
"7 c #FF009C9C",
"8 c #FF00B4B4",
"9 c #FF00CCCC",
"0 c #FF00E4E4",
"q c #FF00FCFC",
"w c #FF8C8C8C",
"e c #FFB4B4B4",
"r c #FFC0C0C0",
"t c #FFD0D0D0",
"y c #FFDCDCDC",
"u c #FFECECEC",
/* pixels */
"                                                                                                                                ",
"                                                                                                                                ",
"                                                                                                                                ",
"                                                                                                                                ",
"                                                                                                                                ",
"                                                                                                                                ",
"                                                                                                                                ",
"                                                                                                                                ",
"                                                                                                                                ",
"                                                                                                                                ",
"                                                                                                                                ",
"                                                                                                                                ",
"                                                                                                                                ",
"                                                                                                                                ",
"                                                                                                                                ",
"                                                                                                                                ",
"                                                                                                                                ",
"                                                                                                                                ",
"                                                                                                                                ",
"                                                                                                                                ",
"                                                                                                                                ",
"                                                                                                                                ",
"                                                                                                                                ",
"                                                                                                                                ",
"                                                                                                                                ",
"                                                                                                                                ",
"                                                                                                                                ",
"                                                                                                                                ",
"                                                                                                                                ",
"                                                                                                                                ",
"                                                                                                                                ",
"                                                                                                                                ",
"                                                                                                                                ",
"                                                                                                                                ",
"                                                                                                                                ",
"                                                                                                                                ",
"                                                                                                                                ",
"                                                                                                                                ",
"                                                                                                                                ",
"                                                                                                                                ",
"                                                                                                                                ",
"                                                                                                                                ",
"                                                                                                                                ",
"                                                                                                                                ",
"                                                                                                                                ",
"                                                                                                                                ",
"                                                                                                                                ",
"                                                                                                                                ",
"                                                                                                                                ",
"                                                                                                                                ",
"                                                                                                                                ",
"                                                                                                                                ",
"                                                                                                                                ",
"                                                                                                                                ",
"                                                                                                                                ",
"                                                                                                                                ",
"                                                                                                                                ",
"                                                                                                                                ",
"                                                                                                                                ",
"                                                                                                                                ",
"                                                                                                                                ",
"                                                                                                                                ",
"                                                                                                                                ",
"                                                                                                                                ",
"                                                                                                                                ",
"                                                                                                                                ",
"                                                                                                                                ",
"                                                                                                                                ",
"                                                                                                                                ",
"                                                                                                                                ",
"                                                                                                                                ",
"                                                                                                                                ",
"                                                                                                                                ",
"                                                                                                                                ",
"                                                                                                                                ",
"                                                                                                                                ",
"                                                                                                                                ",
"                                                                                                                                ",
"                                                                                                                                ",
"                                                                                                                                ",
"                                                                                                                                ",
"                                                                                                                                ",
"                                                                                                                                ",
"                                                                                                                                ",
"                                                                                                                                ",
"                                                                                                                                ",
"                                                                                                                                ",
"                                                                                                                                ",
"                                                                                                                                ",
"                                                                                                                                ",
"                                                                                                                                ",
"                                                                                                                                ",
"                                                                                                                                ",
"                                                                                                                                ",
"                                                                                                                                ",
"                                                                                                                                ",
"                                                                                                                                ",
"                                                                                                                                ",
"                                                                                                                                ",
"                                                                                                                                ",
"                                                                                                                                ",
"                                                                                                                                ",
"                                                                                                                                ",
"                                                                                                                                ",
"                                                                                                                                ",
"                                                                                                                                ",
"                                                                                                                                ",
"                                                                                                                                ",
"                                                                                                                                ",
"                                                                                                                                ",
"                                                ::------::::                                                                    ",
"                                                ::------::::                                                                    ",
"                                              ----5555>>========::            yy                                                ",
"                                              ----5555>>========::            yy                                                ",
"                                              --555555>>;;******======ttttttyy##ee                                              ",
"                                              --555555>>;;******======ttttttyy##ee                                              ",
"                                      888888ttuuuutt--;;;;**********%%wwwwwwwwww$$                                              ",
"                                      888888ttuuuutt--;;;;**********%%wwwwwwwwww$$                                              ",
"                                  8899qqqqttuuttuurrrr&&&&&&&&&&&&<<333333,,,,....                                              ",
"                                  8899qqqqttuuttuurrrr&&&&&&&&&&&&<<333333,,,,....                                              ",
"                                8899qq8866ttttrrrrwwwwXXXXXXXXXXXXXX2222441144....77oo                                          ",
"                                8899qq8866ttttrrrrwwwwXXXXXXXXXXXXXX2222441144....77oo                                          ",
"                                889900qqrruuuuuurrttwwww++<<1133333344,,,,,,,,..7777OOoo@@@@                                    ",
"                                889900qqrruuuuuurrttwwww++<<1133333344,,,,,,,,..7777OOoo@@@@                                    ",
"                                  889999999988887777777777666666666666OOOOOOOO66OOOOoo++++@@@@                                  ",
"                                  889999999988887777777777666666666666OOOOOOOO66OOOOoo++++@@@@                                  ",
"                                        oooooooooooooooooooooooooooooooooooooooooo++++++@@@@                                    ",
"                                        oooooooooooooooooooooooooooooooooooooooooo++++++@@@@                                    "
};
