/* XPM */
static char *parte_8[] = {
/* columns rows colors chars-per-pixel */
"128 128 50 1 ",
"  c #00000000",
". c #FF000000",
"X c #FF2C2C2C",
"o c #FF383838",
"O c #FF044000",
"+ c #FF044C00",
"@ c #FF045800",
"# c #FF046400",
"$ c #FF047000",
"% c #FF047C00",
"& c #FF404000",
"* c #FF585400",
"= c #FF706C00",
"- c #FF484848",
"; c #FF545454",
": c #FF646464",
"> c #FF707070",
", c #FF7C7C7C",
"< c #FF048800",
"1 c #FF049800",
"2 c #FF04A400",
"3 c #FF00A800",
"4 c #FF04B000",
"5 c #FF04BC00",
"6 c #FF04C800",
"7 c #FF00D400",
"8 c #FF00E000",
"9 c #FF00FC00",
"0 c #FF54FC54",
"q c #FF60FC5C",
"w c #FF848400",
"e c #FF9C9C00",
"r c #FFB4AC00",
"t c #FFCCC400",
"y c #FFE4D800",
"u c #FFFCF400",
"i c #FFFCF440",
"p c #FFFCFC54",
"a c #FFFCFC7C",
"s c #FF8C8C8C",
"d c #FF989898",
"f c #FFA8A8A8",
"g c #FFB4B4B4",
"h c #FFFCFC9C",
"j c #FFFCFCB8",
"k c #FFC0C0C0",
"l c #FFD0D0D0",
"z c #FFFCFCD8",
"x c #FFECECEC",
"c c #FFFCFCFC",
/* pixels */
"                                                                                                                                ",
"                                                                                                                                ",
"                                                                                                                                ",
"                                                                                                                                ",
"                                                                                                                                ",
"                                                                                                                                ",
"                                                                                                                                ",
"                                                                                                                                ",
"                                                                                                                                ",
"                                                                                                                                ",
"                                                                                                                                ",
"                                                                                                                                ",
"                                                                                                                                ",
"                                                                                                                                ",
"                                                                                                                                ",
"                                                                                                                                ",
"                                                                                                                                ",
"                                                                                                                                ",
"                                                                                                                                ",
"                                                                                                                                ",
"                                                            77                                                                  ",
"                                                            77                                                                  ",
"                                                          7700$$                                                                ",
"                                                          7700$$                                                                ",
"                                                          1111$$    22                                                          ",
"                                                          1111$$    22                                                          ",
"                                                            ####  226622$$                                                      ",
"                                                            ####  226622$$                                                      ",
"                                                      55    777711  777733@@                                                    ",
"                                                      55    777711  777733@@                                                    ",
"                                                    5500%%OO557700$$770022@@                                                    ",
"                                                    5500%%OO557700$$770022@@                                                    ",
"                                                      %%##33%%22$$$$@@22@@                                                      ",
"                                                      %%##33%%22$$$$@@22@@                                                      ",
"                                                5522<<####OO44$$11@@33OO                                                        ",
"                                                5522<<####OO44$$11@@33OO                                                        ",
"                                          2244  qq00<<00224400$$@@440044331111  ##22##                                          ",
"                                          2244  qq00<<00224400$$@@440044331111  ##22##                                          ",
"                                        229900<<9966<<00##1144@@@@440044%%7777$$OO<<33$$                                        ",
"                                        229900<<9966<<00##1144@@@@440044%%7777$$OO<<33$$                                        ",
"                                        2266##33##33####770011@@OOOO$$++%%1177OO33<<33$$                                        ",
"                                        2266##33##33####770011@@OOOO$$++%%1177OO33<<33$$                                        ",
"                                          $$33##%%####++0077001100$$OO  OO%%##$$$$OO                                            ",
"                                          $$33##%%####++0077001100$$OO  OO%%##$$$$OO                                            ",
"                                            $$  OO88++OO##00##33OO33$$OO3322####4444$$                                          ",
"                                            $$  OO88++OO##00##33OO33$$OO3322####4444$$                                          ",
"                                          $$33%%0055<<0055<<OO####33<<$$OO3322@@1144$$    ##11                                  ",
"                                          $$33%%0055<<0055<<OO####33<<$$OO3322@@1144$$    ##11                                  ",
"                                        999933OO%%%%335555337788##$$1177$$33OO@@OO11@@  $$####$$                                ",
"                                        999933OO%%%%335555337788##$$1177$$33OO@@OO11@@  $$####$$                                ",
"                                      559988%%777777%%9999<<7700<<@@3388@@OO  OO@@@@++OOOO@@##$$                                ",
"                                      559988%%777777%%9999<<7700<<@@3388@@OO  OO@@@@++OOOO@@##$$                                ",
"                                    55  99%%7700772200999900<<@@33$$$$##OO  $$@@OOOO##      $$                                  ",
"                                    55  99%%7700772200999900<<@@33$$$$##OO  $$@@OOOO##      $$                                  ",
"                                  553311%%@@7777  %%990044<<@@8833@@OOOO++$$1111@@$$33$$@@                                      ",
"                                  553311%%@@7777  %%990044<<@@8833@@OOOO++$$1111@@$$33$$@@                                      ",
"                                    551100OO22<<$$<<4488$$@@OO33$$;;  $$33++11<<11$$$$@@11@@                                    ",
"                                    551100OO22<<$$<<4488$$@@OO33$$;;  $$33++11<<11$$$$@@11@@                                    ",
"                                        @@334400<<OO$$$$$$33$$33$$OO9944$$OO++@@44  OO  @@                                      ",
"                                        @@334400<<OO$$$$$$33$$33$$OO9944$$OO++@@44  OO  @@                                      ",
"                                      7777%%00443377OO$$OO$$  $$33OO7744OO<<OO$$44@@##@@                                        ",
"                                      7777%%00443377OO$$OO$$  $$33OO7744OO<<OO$$44@@##@@                                        ",
"                                    2200%%OO%%OO7777@@OO  $$OO$$33;;##%%OOOO@@    OO##@@  @@$$@@                                ",
"                                    2200%%OO%%OO7777@@OO  $$OO$$33;;##%%OOOO@@    OO##@@  @@$$@@                                ",
"                                      22OO  %%  77%%00$$OO$$33$$OO;;$$33%%@@33@@  @@@@@@OO  @@$$@@                              ",
"                                      22OO  %%  77%%00$$OO$$33$$OO;;$$33%%@@33@@  @@@@@@OO  @@$$@@                              ",
"                                              %%33%%2222    998877;;$$33%%$$$$33@@33@@        @@                                ",
"                                              %%33%%2222    998877;;$$33%%$$$$33@@33@@        @@                                ",
"                                              %%33%%880088  990077;;  OO$$22OO33@@OO@@@@                                        ",
"                                              %%33%%880088  990077;;  OO$$22OO33@@OO@@@@                                        ",
"                                            88  %%%%990099$$  ;;::;;  7733$$  @@    @@OO@@                                      ",
"                                            88  %%%%990099$$  ;;::;;  7733$$  @@    @@OO@@                                      ",
"                                          8822%%00%%229933$$  >>,,::  7733$$          @@                                        ",
"                                          8822%%00%%229933$$  >>,,::  7733$$          @@                                        ",
"                                          8822  %%      $$    >>ss>>    OO                                                      ",
"                                          8822  %%      $$    >>ss>>    OO                                                      ",
"                                          22                  ssllss                                                            ",
"                                          22                  ssllss                                                            ",
"                                                              ssddss                                                            ",
"                                                              ssddss                                                            ",
"                                                              ss,,ss>>                                                          ",
"                                                              ss,,ss>>                                                          ",
"                                                              gg,,ss>>                                                          ",
"                                                              gg,,ss>>                                                          ",
"                                                              ggddffss                                                          ",
"                                                              ggddffss                                                          ",
"                                                              kkggllkkkk                                                        ",
"                                                              kkggllkkkk                                                        ",
"                                                              kkxxcccckk>>                                                      ",
"                                                              kkxxcccckk>>                                                      ",
"                                                              kkxxccccff>>                                                      ",
"                                                              kkxxccccff>>                                                      ",
"                                                              kkllccll>>                                                        ",
"                                                              kkllccll>>                                                        ",
"                                                              kkxxccff>>                                                        ",
"                                                              kkxxccff>>                                                        ",
"                                                              kkxxccffss                                                        ",
"                                                              kkxxccffss                                                        ",
"                                                              kkxxccffss                                                        ",
"                                                              kkxxccffss                                                        ",
"                                                              kkxxccllss                                                        ",
"                                                              kkxxccllss                                                        ",
"                                                              kkxxllccssss                                                      ",
"                                                              kkxxllccssss                                                      ",
"                                                      uuuuuuuukkxxllccss;;ttrrrrww                                              ",
"                                                      uuuuuuuukkxxllccss;;ttrrrrww                                              ",
"                                                  hhhhrr******ggxxccllss;;********ww&&                                          ",
"                                                  hhhhrr******ggxxccllss;;********ww&&                                          ",
"                                                uuccrr&&......ssllllggss;;......&&**ww&&                                        ",
"                                                uuccrr&&......ssllllggss;;......&&**ww&&                                        ",
"                                                uucccc==&&....::ffff::::......&&==ww==&&                                        ",
"                                                uucccc==&&....::ffff::::......&&==ww==&&                                        ",
"                                                  tthhccccppccppppyyrryywwwwrrww==**&&                                          ",
"                                                  tthhccccppccppppyyrryywwwwrrww==**&&                                          ",
"                                                  uutteeww====******&&&&&&&&&&&&&&&&&&                                          ",
"                                                  uutteeww====******&&&&&&&&&&&&&&&&&&                                          ",
"                                                  uujjiiyytteeeeww====**************&&                                          ",
"                                                  uujjiiyytteeeeww====**************&&                                          ",
"                                                  uujjzzccjjppuuuuyyyyrrww========**&&      ::    ::::  ::::                    ",
"                                                  uujjzzccjjppuuuuyyyyrrww========**&&      ::    ::::  ::::                    ",
"                                                  uujjzzhhjjppuuuuyyyyrrrrww==ww==**&&--------;;;;;;;;;;::::::  ::              ",
"                                                  uujjzzhhjjppuuuuyyyyrrrrww==ww==**&&--------;;;;;;;;;;::::::  ::              ",
"                                                  uujjzzaajjppuuuuyyyyrrrrww==ww==**&&XXoooooooooooooooo--;;;;::  ::            ",
"                                                  uujjzzaajjppuuuuyyyyrrrrww==ww==**&&XXoooooooooooooooo--;;;;::  ::            ",
"                                                    uuzziijjppuuuuyyyyrrrrww==ww**&&....XXXXXXXXXXXXXXoooo----;;::::::          ",
"                                                    uuzziijjppuuuuyyyyrrrrww==ww**&&....XXXXXXXXXXXXXXoooo----;;::::::          ",
"                                                      uuuuuuuuyyyyyyrrrrww======&&XXXXXXXXXXXXXXoooooooo----;;::                ",
"                                                      uuuuuuuuyyyyyyrrrrww======&&XXXXXXXXXXXXXXoooooooo----;;::                "
};
