/* XPM */
static char *parte_7[] = {
/* columns rows colors chars-per-pixel */
"128 128 22 1 ",
"  c #00000000",
". c #FF000000",
"X c #FF202020",
"o c #FF2C2C2C",
"O c #FF383838",
"+ c #FF404040",
"@ c #FF484848",
"# c #FF4C4C4C",
"$ c #FF545454",
"% c #FF5C5C5C",
"& c #FF646464",
"* c #FF707070",
"= c #FF7C7C7C",
"- c #FF8C8C8C",
"; c #FF989898",
": c #FFA8A8A8",
"> c #FFB4B4B4",
", c #FFC0C0C0",
"< c #FFD0D0D0",
"1 c #FFDCDCDC",
"2 c #FFECECEC",
"3 c #FFFCFCFC",
/* pixels */
"                                                  ::::::::--------------********&&                                              ",
"                                                  ::::::::--------------********&&                                              ",
"                                        ::::1111<<<<<<,,,,,,>>>>::::;;;;----==****&&$$@@$$$$                                    ",
"                                        ::::1111<<<<<<,,,,,,>>>>::::;;;;----==****&&$$@@$$$$                                    ",
"                                    ,,3333222222111111<<<<<<,,,,>>>>::;;**,,--==**&&$$@@++OOOOoo                                ",
"                                    ,,3333222222111111<<<<<<,,,,>>>>::;;**,,--==**&&$$@@++OOOOoo                                ",
"                                  22333333332222223333331111<<,,,,>>>>::;;;;--====@@$$@@++OOOOXXoo                              ",
"                                  22333333332222223333331111<<,,,,>>>>::;;;;--====@@$$@@++OOOOXXoo                              ",
"                                1122223333333333332211<<,,,,>>>>::::;;--====**&&&&&&&&OO++OOooXXoooo                            ",
"                                1122223333333333332211<<,,,,>>>>::::;;--====**&&&&&&&&OO++OOooXXoooo                            ",
"                                111122223333332222<<<<<<,,,,::<<::::;;--====**&&&&$$++@@ooooXXXXoooo                            ",
"                                111122223333332222<<<<<<,,,,::<<::::;;--====**&&&&$$++@@ooooXXXXoooo                            ",
"                                ,,1111332233332222221111<<<<,,,,>>>>::;;--==**&&$$@@++ooOOXXXXoooooo                            ",
"                                ,,1111332233332222221111<<<<,,,,>>>>::;;--==**&&$$@@++ooOOXXXXoooooo                            ",
"                                  ,,,,3322223333222233331111<<,,,,::::;;--==**&&$$++OOooXXXXXXoooo                              ",
"                                  ,,,,3322223333222233331111<<,,,,::::;;--==**&&$$++OOooXXXXXXoooo                              ",
"                                      >>2222333333332211<<,,::>>;;--==**&&$$@@++ooOOooXXXXXXXX                                  ",
"                                      >>2222333333332211<<,,::>>;;--==**&&$$@@++ooOOooXXXXXXXX                                  ",
"                                        >>,,,,3333332211<<,,>>::;;--==**&&$$@@++OOooooXXXXoo                                    ",
"                                        >>,,,,3333332211<<,,>>::;;--==**&&$$@@++OOooooXXXXoo                                    ",
"                                          ;;,,2233332211<<,,>>::;;--==**$$&&@@++OOooXXXXoo                                      ",
"                                          ;;,,2233332211<<,,>>::;;--==**$$&&@@++OOooXXXXoo                                      ",
"                                          ;;,,2233332211<<,,>>::;;--==**&&$$@@++OOooXXXXoo                                      ",
"                                          ;;,,2233332211<<,,>>::;;--==**&&$$@@++OOooXXXXoo                                      ",
"                                          ;;,,3333332211<<,,>>::--::==**&&$$@@++ooOOXXXXoo                                      ",
"                                          ;;,,3333332211<<,,>>::--::==**&&$$@@++ooOOXXXXoo                                      ",
"                                          ;;,,3333332211<<,,>>--;;::==**&&$$@@++OOooXXXXoo                                      ",
"                                          ;;,,3333332211<<,,>>--;;::==**&&$$@@++OOooXXXXoo                                      ",
"                                          ;;,,3333332211<<,,>>::;;--==**&&++&&++OOooXXXXoo                                      ",
"                                          ;;,,3333332211<<,,>>::;;--==**&&++&&++OOooXXXXoo                                      ",
"                                          ;;,,3333332211<<,,>>::;;--==**&&$$&&++OOooXXXXoo                                      ",
"                                          ;;,,3333332211<<,,>>::;;--==**&&$$&&++OOooXXXXoo                                      ",
"                                          ;;,,222211<<,,>>::;;--==**&&$$@@++@@ooXXXXXXXXoo                                      ",
"                                          ;;,,222211<<,,>>::;;--==**&&$$@@++@@ooXXXXXXXXoo                                      ",
"                                          ;;--::>>::::----==****&&&&$$@@++OOooXXXXXXXXXXXX                                      ",
"                                          ;;--::>>::::----==****&&&&$$@@++OOooXXXXXXXXXXXX                                      ",
"                                            1133112233332211<<,,>>::;;--==**$$&&@@OOXXoo                                        ",
"                                            1133112233332211<<,,>>::;;--==**$$&&@@OOXXoo                                        ",
"                                          ,,113333333311<<,,>>::;;--==**&&$$@@$$OOooooXXOO                                      ",
"                                          ,,113333333311<<,,>>::;;--==**&&$$@@$$OOooooXXOO                                      ",
"                                          ,,113333332211<<<<>>::;;==--**&&$$@@++OOooXXXXoo                                      ",
"                                          ,,113333332211<<<<>>::;;==--**&&$$@@++OOooXXXXoo                                      ",
"                                          ;;,,3333332211>>22>>::;;--**==&&$$@@++OOooXXXXoo                                      ",
"                                          ;;,,3333332211>>22>>::;;--**==&&$$@@++OOooXXXXoo                                      ",
"                                          ;;,,3333332211,,22>>::;;--==**&&$$@@++ooOOXXXXoo                                      ",
"                                          ;;,,3333332211,,22>>::;;--==**&&$$@@++ooOOXXXXoo                                      ",
"                                          ;;,,3333332211<<<<>>::;;--==**$$&&@@++OOoo..XXoo                                      ",
"                                          ;;,,3333332211<<<<>>::;;--==**$$&&@@++OOoo..XXoo                                      ",
"                                          ;;,,3333332211<<,,>>::;;--==**&&$$@@oo@@ooXXXXoo                                      ",
"                                          ;;,,3333332211<<,,>>::;;--==**&&$$@@oo@@ooXXXXoo                                      ",
"                                          ;;::33333322>>33,,>>::;;--==**&&$$@@++OOooXXXXoo                                      ",
"                                          ;;::33333322>>33,,>>::;;--==**&&$$@@++OOooXXXXoo                                      ",
"                                          ;;113333332211<<,,>>::;;==;;**&&$$@@OO++ooXXXXoo                                      ",
"                                          ;;113333332211<<,,>>::;;==;;**&&$$@@OO++ooXXXXoo                                      ",
"                                          ;;,,3333332211>>11>>::;;--==**&&@@$$++OOooXXXXoo                                      ",
"                                          ;;,,3333332211>>11>>::;;--==**&&@@$$++OOooXXXXoo                                      ",
"                                          ;;,,3333332211<<,,>>::--;;==**&&$$@@++ooOOXXXXoo                                      ",
"                                          ;;,,3333332211<<,,>>::--;;==**&&$$@@++ooOOXXXXoo                                      ",
"                                          ==;;112211<<,,>>::;;--==**&&$$@@++OOooXXXXXXXXXX                                      ",
"                                          ==;;112211<<,,>>::;;--==**&&$$@@++OOooXXXXXXXXXX                                      ",
"                                            ==;;::;;----====****&&&&$$@@++OOooXXXX......                                        ",
"                                            ==;;::;;----====****&&&&$$@@++OOooXXXX......                                        ",
"                                          ::<<3333333333,,11<<,,>>::;;--==**&&$$@@OOooooOO                                      ",
"                                          ::<<3333333333,,11<<,,>>::;;--==**&&$$@@OOooooOO                                      ",
"                                          ;;,,333333221122,,>>::;;--==**&&$$@@++OOooXXXXoo                                      ",
"                                          ;;,,333333221122,,>>::;;--==**&&$$@@++OOooXXXXoo                                      ",
"                                          ;;,,3333332211<<,,>>::--;;==&&==$$@@++oo++..XXoo                                      ",
"                                          ;;,,3333332211<<,,>>::--;;==&&==$$@@++oo++..XXoo                                      ",
"                                          ;;,,3333332211>>22>>::;;--==**&&$$++@@OOooXXXXoo                                      ",
"                                          ;;,,3333332211>>22>>::;;--==**&&$$++@@OOooXXXXoo                                      ",
"                                          ;;,,3333113311<<,,>>::;;--==**&&@@$$++OOXXooXXoo                                      ",
"                                          ;;,,3333113311<<,,>>::;;--==**&&@@$$++OOXXooXXoo                                      ",
"                                          ;;,,3322332211>>,,::>>;;==--**&&$$$$++OOooXXXXXX                                      ",
"                                          ;;,,3322332211>>,,::>>;;==--**&&$$$$++OOooXXXXXX                                      ",
"                                          ;;,,33333322>>33,,>>::;;--==**&&$$@@OO++ooXXXXoo                                      ",
"                                          ;;,,33333322>>33,,>>::;;--==**&&$$@@OO++ooXXXXoo                                      ",
"                                          ;;,,3333332233<<,,>>::;;--**==&&$$@@++OOooXXXXoo                                      ",
"                                          ;;,,3333332233<<,,>>::;;--**==&&$$@@++OOooXXXXoo                                      ",
"                                          ;;,,3333113311<<,,>>::--;;==**&&$$++@@ooOOXXXXoo                                      ",
"                                          ;;,,3333113311<<,,>>::--;;==**&&$$++@@ooOOXXXXoo                                      ",
"                                          ;;,,3333332211<<>>11::;;--==**$$&&@@++OOooXXXXoo                                      ",
"                                          ;;,,3333332211<<>>11::;;--==**$$&&@@++OOooXXXXoo                                      ",
"                                          ;;,,33333322<<22,,>>::;;--**==&&$$@@++ooOOXXXXoo                                      ",
"                                          ;;,,33333322<<22,,>>::;;--**==&&$$@@++ooOOXXXXoo                                      ",
"                                          ==,,2233222211<<,,>>;;;;--==**&&@@$$++OOooXXXXOO                                      ",
"                                          ==,,2233222211<<,,>>;;;;--==**&&@@$$++OOooXXXXOO                                      ",
"                                            ::<<11,,,,,,>>::;;**;;**&&$$@@++OOooXXXXXXXX                                        ",
"                                            ::<<11,,,,,,>>::;;**;;**&&$$@@++OOooXXXXXXXX                                        ",
"                                          ::22>>,,<<,,;;--==**$$&&&&$$@@++OOooXXXXXXXXXXXX                                      ",
"                                          ::22>>,,<<,,;;--==**$$&&&&$$@@++OOooXXXXXXXXXXXX                                      ",
"                                          ;;<<33223333332211<<,,>>--;;--==**&&$$@@OOXXoooo                                      ",
"                                          ;;<<33223333332211<<,,>>--;;--==**&&$$@@OOXXoooo                                      ",
"                                          ;;,,3333332211<<,,>>::;;==;;**&&$$@@++oo++XXXXoo                                      ",
"                                          ;;,,3333332211<<,,>>::;;==;;**&&$$@@++oo++XXXXoo                                      ",
"                                          ;;,,333333<<33<<,,;;11;;--==**&&$$@@++OOooXXXXoo                                      ",
"                                          ;;,,333333<<33<<,,;;11;;--==**&&$$@@++OOooXXXXoo                                      ",
"                                          ;;,,3333332211<<,,>>::;;==;;**&&@@$$++OOooXXXXoo                                      ",
"                                          ;;,,3333332211<<,,>>::;;==;;**&&@@$$++OOooXXXXoo                                      ",
"                                          ;;,,3333332211<<,,>>::;;--==**$$&&@@++OOooXXXXoo                                      ",
"                                          ;;,,3333332211<<,,>>::;;--==**$$&&@@++OOooXXXXoo                                      ",
"                                          ;;,,3333332211<<,,;;,,;;--==&&**$$@@++OOooXXXXoo                                      ",
"                                          ;;,,3333332211<<,,;;,,;;--==&&**$$@@++OOooXXXXoo                                      ",
"                                          ;;,,3333332211<<::11::;;--==**&&$$++$$OOooXXXXoo                                      ",
"                                          ;;,,3333332211<<::11::;;--==**&&$$++$$OOooXXXXoo                                      ",
"                                          ;;,,223333<<33<<,,>>::;;--==**&&$$@@++OOooXXXXoo                                      ",
"                                          ;;,,223333<<33<<,,>>::;;--==**&&$$@@++OOooXXXXoo                                      ",
"                                          ;;,,223333<<33<<,,>>::;;--==**&&@@$$++OOooXXXXoo                                      ",
"                                          ;;,,223333<<33<<,,>>::;;--==**&&@@$$++OOooXXXXoo                                      ",
"                                        >>11,,3333332211<<,,>>;;>>--==**&&$$@@++OOooOOXXXXoo                                    ",
"                                        >>11,,3333332211<<,,>>;;>>--==**&&$$@@++OOooOOXXXXoo                                    ",
"                                      >>2222333333332211<<,,>>::;;--==**&&$$@@++ooOOooXXXXXXoooo                                ",
"                                      >>2222333333332211<<,,>>::;;--==**&&$$@@++ooOOooXXXXXXoooo                                ",
"                                  ,,,,3322333333222233331111<<,,,,::::;;--==**&&$$++OOooXXXXXXoooooo++@@@@$$$$%%%%&&&&          ",
"                                  ,,,,3322333333222233331111<<,,,,::::;;--==**&&$$++OOooXXXXXXoooooo++@@@@$$$$%%%%&&&&          ",
"                                ,,1111332233332222221111<<<<,,,,>>>>::;;--==**&&$$@@++ooOOXXXXooooooOOOO++@@@@@@$$$$%%&&&&      ",
"                                ,,1111332233332222221111<<<<,,,,>>>>::;;--==**&&$$@@++ooOOXXXXooooooOOOO++@@@@@@$$$$%%&&&&      ",
"                                111122223333332222<<<<<<,,,,>>>>::::--::====**&&&&$$++@@ooooXXXXooooOOOOOOOO++@@@@@@$$%%%%&&    ",
"                                111122223333332222<<<<<<,,,,>>>>::::--::====**&&&&$$++@@ooooXXXXooooOOOOOOOO++@@@@@@$$%%%%&&    ",
"                                1122223333333333332211<<,,,,>>>>::::;;--====**&&&&**&&@@@@OOooXXooooOOOOOOOO++@@@@@@$$%%%%&&    ",
"                                1122223333333333332211<<,,,,>>>>::::;;--====**&&&&**&&@@@@OOooXXooooOOOOOOOO++@@@@@@$$%%%%&&    ",
"                                  22333333332222223333331111<<,,,,>>>>::;;;;--====**%%++%%OOOOXXooOOOOOO++++@@@@@@$$%%%%&&      ",
"                                  22333333332222223333331111<<,,,,>>>>::;;;;--====**%%++%%OOOOXXooOOOOOO++++@@@@@@$$%%%%&&      ",
"                                    ,,3333222222111111<<<<<<,,>><<>>::;;;;--==--**&&%%@@++OOOOoo++++++@@@@@@@@$$%%%%&&          ",
"                                    ,,3333222222111111<<<<<<,,>><<>>::;;;;--==--**&&%%@@++OOOOoo++++++@@@@@@@@$$%%%%&&          ",
"                                        ::::1111<<<<<<,,,,,,>>>>::::;;;;----==****&&$$@@++++@@$$%%%%%%&&&&&&&&&&&&              ",
"                                        ::::1111<<<<<<,,,,,,>>>>::::;;;;----==****&&$$@@++++@@$$%%%%%%&&&&&&&&&&&&              ",
"                                                  ::::::::--------------********&&$$++++@@$$%%&&&&                              ",
"                                                  ::::::::--------------********&&$$++++@@$$%%&&&&                              "
};
