/* XPM */
static char *parte_13[] = {
/* columns rows colors chars-per-pixel */
"128 128 30 1 ",
"  c #00000000",
". c #FF000000",
"X c #FF202020",
"o c #FF2C2C2C",
"O c #FF383838",
"+ c #FF5C4020",
"@ c #FF6C4824",
"# c #FF744C28",
"$ c #FF484848",
"% c #FF545454",
"& c #FF646464",
"* c #FF707070",
"= c #FF7C7C7C",
"- c #FF9C4C00",
"; c #FFB45400",
": c #FFCC6000",
"> c #FFE46C00",
", c #FFFC7800",
"< c #FFFC8820",
"1 c #FFFC9840",
"2 c #FFFCA85C",
"3 c #FF8C8C8C",
"4 c #FF989898",
"5 c #FFA8A8A8",
"6 c #FFB4B4B4",
"7 c #FFC0C0C0",
"8 c #FFD0D0D0",
"9 c #FFDCDCDC",
"0 c #FFECECEC",
"q c #FFFCFCFC",
/* pixels */
"                                                                                                                                ",
"                                                                                                                                ",
"                                                                                                                                ",
"                                                                                                                                ",
"                                                                                                                                ",
"                                                                                                                                ",
"                                                                                                                                ",
"                                                                                                                                ",
"                                                                                                                                ",
"                                                                                                                                ",
"                                                                                                                                ",
"                                                                                                                                ",
"                                                                                                                                ",
"                                                                                                                                ",
"                                                                                                                                ",
"                                                                                                                                ",
"                                                                                                                                ",
"                                                                                                                                ",
"                                                                                                                                ",
"                                                                                                                                ",
"                                                                                                                                ",
"                                                                                                                                ",
"                                                                                                                                ",
"                                                                                                                                ",
"                                                                                                                                ",
"                                                                                                                                ",
"                                                                                                                                ",
"                                                                                                                                ",
"                                                                                                                                ",
"                                                                                                                                ",
"                                                                                                                                ",
"                                                                                                                                ",
"                                                                                                                                ",
"                                                                                                                                ",
"                                                                                                                                ",
"                                                                                                                                ",
"                                                                                                                                ",
"                                                                                                                                ",
"                                                                                                                                ",
"                                                                                                                                ",
"                                                                                                                                ",
"                                                                                                                                ",
"                                                                                                                                ",
"                                                                                                                                ",
"                                                                                                                                ",
"                                                                                                                                ",
"                                                                                                                                ",
"                                                                                                                                ",
"                                                                                                                                ",
"                                                                                                                                ",
"                                                                                                                                ",
"                                                                                                                                ",
"                                                                                                                                ",
"                                                                                                                                ",
"                                                                                                                                ",
"                                                                                                                                ",
"                                                                                                                                ",
"                                                                                                                                ",
"                                                                                                                                ",
"                                                                                                                                ",
"                                                                                                                                ",
"                                                                                                                                ",
"                                                                                                                                ",
"                                                                                                                                ",
"                                                                                                                                ",
"                                                                                                                                ",
"                                                                                                                                ",
"                                                                                                                                ",
"                                                                                                                                ",
"                                                                                                                                ",
"                                                                                                                                ",
"                                                                                                                                ",
"                                                                                                                                ",
"                                                                                                                                ",
"                                                                                                                                ",
"                                                                                                                                ",
"                              ::<<<<<<<<<<<<<<<<<<<<<<<<<<<<<<<<<<<<<<<<<<<<<<<<<<<<<<<<<<<<<<<<<<::                            ",
"                              ::<<<<<<<<<<<<<<<<<<<<<<<<<<<<<<<<<<<<<<<<<<<<<<<<<<<<<<<<<<<<<<<<<<::                            ",
"                      ,,111111111111111111111111111111111111111111111111111111111111111111111111111111<<,,::                    ",
"                      ,,111111111111111111111111111111111111111111111111111111111111111111111111111111<<,,::                    ",
"                      --::,,,,<<2222222222222222222222222222222222222222222222222222222222222222<<<<,,::##++                    ",
"                      --::,,,,<<2222222222222222222222222222222222222222222222222222222222222222<<<<,,::##++                    ",
"                      --::>>>>>>>>>>>>::::::::::::::::;;;;;;;;;;;;;;--------------########@@@@@@++++++++++++                    ",
"                      --::>>>>>>>>>>>>::::::::::::::::;;;;;;;;;;;;;;--------------########@@@@@@++++++++++++                    ",
"                              ::>>>>>>::::::::::::::::;;;;;;;;;;;;;;--------------########@@@@@@++++                            ",
"                              ::>>>>>>::::::::::::::::;;;;;;;;;;;;;;--------------########@@@@@@++++                            ",
"                                                        OOOOOOOOOOooooXXXX                                                      ",
"                                                        OOOOOOOOOOooooXXXX                                                      ",
"                                                        $$$$$$$$OOOOooXXXX                                                      ",
"                                                        $$$$$$$$OOOOooXXXX                                                      ",
"                                                        ==%%$$$$$$OOooXXXX                                                      ",
"                                                        ==%%$$$$$$OOooXXXX                                                      ",
"                                                        5533%%$$$$OOOOooXX                                                      ",
"                                                        5533%%$$$$OOOOooXX                                                      ",
"                                                        5533**%%$$$$OOooXX                                                      ",
"                                                        5533**%%$$$$OOooXX                                                      ",
"                                                        557733**%%$$OOooXX                                                      ",
"                                                        557733**%%$$OOooXX                                                      ",
"                                                        55995533%%$$OOooXX                                                      ",
"                                                        55995533%%$$OOooXX                                                      ",
"                                                        55997755**%%OOooXX                                                      ",
"                                                        55997755**%%OOooXX                                                      ",
"                                                        5588775533%%OOooXX                                                      ",
"                                                        5588775533%%OOooXX                                                      ",
"                                                        5588007755%%OOooXX                                                      ",
"                                                        5588007755%%OOooXX                                                      ",
"                                                        5588007755&&OOooXX                                                      ",
"                                                        5588007755&&OOooXX                                                      ",
"                                                        5588009955&&$$ooXX                                                      ",
"                                                        5588009955&&$$ooXX                                                      ",
"                                                        5588009955**$$ooXX                                                      ",
"                                                        5588009955**$$ooXX                                                      ",
"                                                        5588009955**$$OOXX                                                      ",
"                                                        5588009955**$$OOXX                                                      ",
"                                                        5588009955**$$OOXX                                                      ",
"                                                        5588009955**$$OOXX                                                      ",
"                                                        5588009955**$$OOXX                                                      ",
"                                                        5588009955**$$OOXX                                                      ",
"                                                ==4444445588009955**$$OOXXOOOOooooXX%%%%%%%%%%%%%%%%%%%%%%&&&&&&&&&&&&&&        ",
"                                                ==4444445588009955**$$OOXXOOOOooooXX%%%%%%%%%%%%%%%%%%%%%%&&&&&&&&&&&&&&        ",
"                                          ==557799qqqq995588009955**$$OOXXooooooooooooooooOOOOOOOOOOOOOOOOOOOOOOOOOO$$%%%%&&    ",
"                                          ==557799qqqq995588009955**$$OOXXooooooooooooooooOOOOOOOOOOOOOOOOOOOOOOOOOO$$%%%%&&    ",
"                                        ==6688qqqqqqqq997755555555**$$ooooooooooooooooooXXXXXXXXXXXXXXXXXXXXXXXXooooOO$$$$%%&&  ",
"                                        ==6688qqqqqqqq997755555555**$$ooooooooooooooooooXXXXXXXXXXXXXXXXXXXXXXXXooooOO$$$$%%&&  ",
"                                        &&888888qqqqqqqq99qq88886633==&&$$$$OOooooooooXXXX..................XXXXooOO$$$$%%&&    ",
"                                        &&888888qqqqqqqq99qq88886633==&&$$$$OOooooooooXXXX..................XXXXooOO$$$$%%&&    ",
"                                            &&448888999988888888883333==&&$$$$OOooXXXXXXXXXXXXXXXXXXXXXXXXXXooooOO$$%%&&        ",
"                                            &&448888999988888888883333==&&$$$$OOooXXXXXXXXXXXXXXXXXXXXXXXXXXooooOO$$%%&&        "
};
