/* XPM */
static char *parte_2[] = {
/* columns rows colors chars-per-pixel */
"128 128 40 1 ",
"  c #00000000",
". c #FF000000",
"X c #FF382C14",
"o c #FF202020",
"O c #FF383838",
"+ c #FF403018",
"@ c #FF483818",
"# c #FF543C1C",
"$ c #FF5C4020",
"% c #FF6C4824",
"& c #FF744C28",
"* c #FF484848",
"= c #FF545454",
"- c #FF646464",
"; c #FF707070",
": c #FF880000",
"> c #FFFC0000",
", c #FF9C4C00",
"< c #FFB45400",
"1 c #FF80502C",
"2 c #FF885830",
"3 c #FF905C34",
"4 c #FF9C6038",
"5 c #FFA0643C",
"6 c #FFCC6000",
"7 c #FFE46C00",
"8 c #FFFC7800",
"9 c #FFA86840",
"0 c #FFB47044",
"q c #FFBC7848",
"w c #FFFC5C5C",
"e c #FFC87C4C",
"r c #FFFC8820",
"t c #FFFC9840",
"y c #FFFCA85C",
"u c #FF8C8C8C",
"i c #FF989898",
"p c #FFD0D0D0",
"a c #FFDCDCDC",
"s c #FFECECEC",
/* pixels */
"                                                                                                                                ",
"                                                                                                                                ",
"                                                                                                                                ",
"                                                                                                                                ",
"                                                                                                                                ",
"                                                                                                                                ",
"                                                                                                                                ",
"                                                                                                                                ",
"                                                                                                                                ",
"                                                                                                                                ",
"                                                                                                                                ",
"                                                                                                                                ",
"                                                                                                                                ",
"                                                                                                                                ",
"                                                                                                                                ",
"                                                                                                                                ",
"                                                                                                                                ",
"                                                                                                                                ",
"                                                                                                                                ",
"                                                                                                                                ",
"                                                                                                                                ",
"                                                                                                                                ",
"                                                                                                                                ",
"                                                                                                                                ",
"                                                                                                                                ",
"                                                                                                                                ",
"                                                                                                                                ",
"                                                                                                                                ",
"                                                                                                                                ",
"                                                                                                                                ",
"                                                                                                                                ",
"                                                                                                                                ",
"                                                                                                                                ",
"                                                                                                                                ",
"                                                                                                                                ",
"                                                                                                                                ",
"                                                                                                                                ",
"                                                                                                                                ",
"                                                                                                                                ",
"                                                                                                                                ",
"                                                                                                                                ",
"                                                                                                                                ",
"                                                                                                                                ",
"                                                                                                                                ",
"                                                                                                                                ",
"                                                                                                                                ",
"                                                                                                                                ",
"                                                                                                                                ",
"                                                                                                                                ",
"                                                                                                                                ",
"                                                                                                                                ",
"                                                                                                                                ",
"                                                                                                                                ",
"                                                                                                                                ",
"                                                                                                                                ",
"                                                                                                                                ",
"                                                                                                                                ",
"                                                                                                                                ",
"                                                                                                                                ",
"                                                                                                                                ",
"                                                                                                                                ",
"                                                                                                                                ",
"                                                              >>      >>                                                        ",
"                                                              >>      >>                                                        ",
"                                                              >>      >>                                                        ",
"                                                              >>      >>                                                        ",
"                7766              7766                        >>      >>              77,,              77,,                    ",
"                7766              7766                        >>      >>              77,,              77,,                    ",
"                77,,              77,,                        >>>>  ww::              77,,              77,,                    ",
"                77,,              77,,                        >>>>  ww::              77,,              77,,                    ",
"                77,,<<<<<<<<<<<<<<66,,                        >>::  ww::              77,,<<77777777777777,,                    ",
"                77,,<<<<<<<<<<<<<<66,,                        >>::  ww::              77,,<<77777777777777,,                    ",
"                77,,,,,,,,,,,,,,,,<<,,                        >>ssaauu::              77,,,,66666666666677,,                    ",
"                77,,,,,,,,,,,,,,,,<<,,                        >>ssaauu::              77,,,,66666666666677,,                    ",
"                77,,              <<,,                        ppppuu****              77,,              77,,                    ",
"                77,,              <<,,                        ppppuu****              77,,              77,,                    ",
"                77,,            7788888888888888888888888888ppssiiuu==**;;88888888888888888888888888887777,,                    ",
"                77,,            7788888888888888888888888888ppssiiuu==**;;88888888888888888888888888887777,,                    ",
"                77,,    88rrttttttttttttttttttttttttttttttttttttttttttttttttttttttttttttttttttttttttttttrr8877,,                ",
"                77,,    88rrttttttttttttttttttttttttttttttttttttttttttttttttttttttttttttttttttttttttttttrr8877,,                ",
"                77,,    <<777788rrttyyyyyyyyyyyyyyyyyyyyyyyyyyyyyyyyyyyyyyyyyyyyyyyyyyyyyyyyyyyytt887766<<<<,,&&                ",
"                77,,    <<777788rrttyyyyyyyyyyyyyyyyyyyyyyyyyyyyyyyyyyyyyyyyyyyyyyyyyyyyyyyyyyyytt887766<<<<,,&&                ",
"                77,,        666666666666<<<<<<<<<<,,,,,,,,,,,,,,,,,,,,,,,,,,,,,,,,,,,,,,,,,,,,,,,,,,,,,,,,##                    ",
"                77,,        666666666666<<<<<<<<<<,,,,,,,,,,,,,,,,,,,,,,,,,,,,,,,,,,,,,,,,,,,,,,,,,,,,,,,,##                    ",
"                77,,              77,,,,,,,,,,,,,,,,,,,,,,,,,,,,,,,,,,,,,,,,,,,,,,,,,,,,,,,,,,,,,,      &&##                    ",
"                77,,              77,,,,,,,,,,,,,,,,,,,,,,,,,,,,,,,,,,,,,,,,,,,,,,,,,,,,,,,,,,,,,,      &&##                    ",
"                77,,<<<<<<<<<<<<<<66,,                      ++%%@@@@@@XXXX            &&##&&&&&&&&&&&&&&&&##                    ",
"                77,,<<<<<<<<<<<<<<66,,                      ++%%@@@@@@XXXX            &&##&&&&&&&&&&&&&&&&##                    ",
"                77,,,,,,,,,,,,,,,,<<,,                        &&&&&&####              &&##&&&&&&&&&&&&&&&&##                    ",
"                77,,,,,,,,,,,,,,,,<<,,                        &&&&&&####              &&##&&&&&&&&&&&&&&&&##                    ",
"                77,,              <<,,                          $$$$++                &&##              &&##                    ",
"                77,,              <<,,                          $$$$++                &&##              &&##                    ",
"                77,,              66,,                          22$$++                &&##              &&##                    ",
"                77,,              66,,                          22$$++                &&##              &&##                    ",
"                77,,              77,,                          22$$++                &&##              &&##                    ",
"                77,,              77,,                          22$$++                &&##              &&##                    ",
"                77777777777777777777777766666666                22$$++    <<<<<<<<333333333333333333333333##                    ",
"                77777777777777777777777766666666                22$$++    <<<<<<<<333333333333333333333333##                    ",
"                7777777777777766<<<<<<<<<<<<<<<<<<              55$$++  776666<<<<<<<<<<<<33333333333333&&##                    ",
"                7777777777777766<<<<<<<<<<<<<<<<<<              55$$++  776666<<<<<<<<<<<<33333333333333&&##                    ",
"                7766<<<<<<<<77%%%%%%%%%%%%%%%%%%%%              55&&++  77,,,,,,,,,,,,,,,,,,&&&&&&&&&&&&&&##                    ",
"                7766<<<<<<<<77%%%%%%%%%%%%%%%%%%%%              55&&++  77,,,,,,,,,,,,,,,,,,&&&&&&&&&&&&&&##                    ",
"                7766%%      77%%  22@@        ,,%%              55&&++  77,,          22##,,&&        ,,&&##                    ",
"                7766%%      77%%  22@@        ,,%%              55&&++  77,,          22##,,&&        ,,&&##                    ",
"                77<<%%      77%%  22@@        ,,%%              00&&@@  77,,          22##,,&&        ,,&&##                    ",
"                77<<%%      77%%  22@@        ,,%%              00&&@@  77,,          22##,,&&        ,,&&##                    ",
"                77<<%%      77%%  22@@        ,,%%              00&&@@  77,,          22##,,&&        ,,&&##                    ",
"                77<<%%      77%%  22@@        ,,%%              00&&@@  77,,          22##,,&&        ,,&&##                    ",
"                77<<%%      77%%  22@@        ,,%%              00&&@@  77,,          22##,,&&        ,,&&##                    ",
"                77<<%%      77%%  22@@        ,,%%              00&&@@  77,,          22##,,&&        ,,&&##                    ",
"              6677,,%%      77%%  22@@        ,,%%              00&&@@  77,,          22##,,&&        <<&&##44                  ",
"              6677,,%%      77%%  22@@        ,,%%              00&&@@  77,,          22##,,&&        <<&&##44                  ",
"              6677777777777777%%%%%%%%%%%%%%%%%%%%            eeqq33%%$$77,,,,,,,,,,,,,,,,,,&&&&&&&&&&&&&&##44                  ",
"              6677777777777777%%%%%%%%%%%%%%%%%%%%            eeqq33%%$$77,,,,,,,,,,,,,,,,,,&&&&&&&&&&&&&&##44                  ",
"              6666%%22      77%%3322@@        ,,%%  44eeeeee443344%%$$$$%%%%%%%%%%    22##,,&&        <<&&##22                  ",
"              6666%%22      77%%3322@@        ,,%%  44eeeeee443344%%$$$$%%%%%%%%%%    22##,,&&        <<&&##22                  ",
"              7766%%22----==77%%3322@@========,,44eeee443311%%%%ee9911@@$$$$$$$$$$####22##,,&&==========&&##22==========--      ",
"              7766%%22----==77%%3322@@========,,44eeee443311%%%%ee9911@@$$$$$$$$$$####22##,,&&==========&&##22==========--      ",
"              77<<%%OOOOOOOO77%%OOOOOOOOOOOOOOeeee4411%%@@@@@@@@qq9911@@@@@@@@@@$$$$$$####,,&&OOOOOOOOOO$$####OOOOOOOOOO==--    ",
"              77<<%%OOOOOOOO77%%OOOOOOOOOOOOOOeeee4411%%@@@@@@@@qq9911@@@@@@@@@@$$$$$$####,,&&OOOOOOOOOO$$####OOOOOOOOOO==--    ",
"                    ----====<<%%OOOOOOOO00eeee4411%%##11OOOO****9922%%****==**@@@@@@$$$$$$####ooooooooooooooooooooOO==----      ",
"                    ----====<<%%OOOOOOOO00eeee4411%%##11OOOO****9922%%****==**@@@@@@$$$$$$####ooooooooooooooooooooOO==----      ",
"                                        4411++%%##11====**OOOOqqqq3322%%oooooooooo@@@@$$++$$##..................OO==----        ",
"                                        4411++%%##11====**OOOOqqqq3322%%oooooooooo@@@@$$++$$##..................OO==----        ",
"                                        11%%%%@@11oooooooooooo44%%%%%%++oooooooooooo@@@@$$####ooooooooooooooooooooOO**==--      ",
"                                        11%%%%@@11oooooooooooo44%%%%%%++oooooooooooo@@@@$$####ooooooooooooooooooooOO**==--      ",
"                                                              11@@@@@@++OOOOOOOOOOOOOOOOOOOOOOOOOOOOOOOOOOOOOO**====----        ",
"                                                              11@@@@@@++OOOOOOOOOOOOOOOOOOOOOOOOOOOOOOOOOOOOOO**====----        "
};
