/* XPM */
static char *parte_31[] = {
/* columns rows colors chars-per-pixel */
"128 128 35 1 ",
"  c #00000000",
". c #FF580000",
"X c #FF044000",
"o c #FF046400",
"O c #FF585400",
"+ c #FF706C00",
"@ c #FF5C4020",
"# c #FF007070",
"$ c #FF484848",
"% c #FF545454",
"& c #FF5C5C5C",
"* c #FF646464",
"= c #FF880000",
"- c #FFA40000",
"; c #FFBC0000",
": c #FFC80000",
"> c #FFFC0000",
", c #FFFC2020",
"< c #FFA86840",
"1 c #FF048800",
"2 c #FF04B000",
"3 c #FF40FC40",
"4 c #FF9C9C00",
"5 c #FFCCC400",
"6 c #FFE4D800",
"7 c #FFFCA85C",
"8 c #FFFCF440",
"9 c #FFFCFC7C",
"0 c #FF000088",
"q c #FF0000E0",
"w c #FF5C60FC",
"e c #FFFCB080",
"r c #FFFCFC9C",
"t c #FFB8BCFC",
"y c #FFD8FCD8",
/* pixels */
"                                                                                                                                ",
"                                                                                                                                ",
"                                                                                                                                ",
"                                                                                                                                ",
"                                                                                                                                ",
"                                                                                                                                ",
"                                                                                                                                ",
"                                                                                                                                ",
"                                                                                                                                ",
"                                                                                                                                ",
"                                                                                                                                ",
"                                                                                                                                ",
"                                                                                                                                ",
"                                                                                                                                ",
"                                                                                                                                ",
"                                                                                                                                ",
"                                                                                                                                ",
"                                                                                                                                ",
"                                                                                                                                ",
"                                                                                                                                ",
"                                                                                                                                ",
"                                                                                                                                ",
"                                                                                                                                ",
"                                                                                                                                ",
"                                                                                                                                ",
"                                                                                                                                ",
"                                                                                                                                ",
"                                                                                                                                ",
"                                                                                                                                ",
"                                                                                                                                ",
"                                                                                                                                ",
"                                                                                                                                ",
"                                                                                                                                ",
"                                                                                                                                ",
"                                                                                                                                ",
"                                                                                                                                ",
"                                                                                                                                ",
"                                                                                                                                ",
"                                                                                                                                ",
"                                                                                                                                ",
"                                                                                                                                ",
"                                                                                                                                ",
"                                                                                                                                ",
"                                                                                                                                ",
"                                                                                                                                ",
"                                                                                                                                ",
"                                                                                                                                ",
"                                                                                                                                ",
"                                                                                                                                ",
"                                                                                                                                ",
"                                                                                                                                ",
"                                                                                                                                ",
"                                                                                                                                ",
"                                                                                                                                ",
"                                                                                                                                ",
"                                                                                                                                ",
"                                                                                                                                ",
"                                                                                                                                ",
"                                                                                                                                ",
"                                                                                                                                ",
"                                                                                                                                ",
"                                                                                                                                ",
"                                                                                                                                ",
"                                                                                                                                ",
"                                                                                                                                ",
"                                                                                                                                ",
"                                                                                                                                ",
"                                                                                                                                ",
"                                                                                                                                ",
"                                                                                                                                ",
"                                                                                                                                ",
"                                                                                                                                ",
"                                                                                                                                ",
"                                                                                                                                ",
"                                                                                                                                ",
"                                                                                                                                ",
"                                                                                                                                ",
"                                                                                                                                ",
"                                                                                                                                ",
"                                                                                                                                ",
"                                                                                                                                ",
"                                                                                                                                ",
"                                                                                                                                ",
"                                                                                                                                ",
"                                                                                                                                ",
"                                                                                                                                ",
"                                                                                                                                ",
"                                                                                                                                ",
"                                                                                                                                ",
"                                                                                                                                ",
"                                                                                                                                ",
"                                                                                                                                ",
"                                                                                                                                ",
"                                                                                                                                ",
"                                                                                                                                ",
"                                                                                                                                ",
"                                                                                                                                ",
"                                                                                                                                ",
"                                                                                                                                ",
"                                                                                                                                ",
"                                                        3333                                                                    ",
"                                                        3333                                                                    ",
"                                            55558888  yy222211  9999                                                            ",
"                                            55558888  yy222211  9999                                                            ",
"                                        55;;>>995555rroo11ooXXttwwqq++6644                                                      ",
"                                        55;;>>995555rroo11ooXXttwwqq++6644                                                      ",
"                                        55;;556699<<7788ooXX@@00qq00@@ee@@44                                                    ",
"                                        55;;556699<<7788ooXX@@00qq00@@ee@@44                                                    ",
"                                          55++66==8888888888888888888888888844                                                  ",
"                                          55++66==8888888888888888888888888844                                                  ",
"                                              66::5544....................4444                                                  ",
"                                              66::5544....................4444                                                  ",
"                                              66::55....--------------------44                                                  ",
"                                              66::55....--------------------44                                                  ",
"                                              66::55..--66--##6644##--66----44                                                  ",
"                                              66::55..--66--##6644##--66----44                                                  ",
"                                              66::55..--444444OOOO444444..--44                                                  ",
"                                              66::55..--444444OOOO444444..--44                                                  ",
"                                        6644  66,,55..--44..##4444##..44..--44    6644                                          ",
"                                        6644  66,,55..--44..##4444##..44..--44    6644                                          ",
"                                  5544      44  555544----..--........--..4444$$$$%%**                                          ",
"                                  5544      44  555544----..--........--..4444$$$$%%**                                          ",
"                                        5544  44445544444444444444444444444444$$++OO&&****                                      ",
"                                        5544  44445544444444444444444444444444$$++OO&&****                                      ",
"                                                      %%%%%%%%%%%%%%%%%%%%%%%%%%%%%%%%&&****                                    ",
"                                                      %%%%%%%%%%%%%%%%%%%%%%%%%%%%%%%%&&****                                    ",
"                                                    55446644                                                                    ",
"                                                    55446644                                                                    "
};
