/* XPM */
static char *parte_36[] = {
/* columns rows colors chars-per-pixel */
"128 128 26 1 ",
"  c #00000000",
". c #FF000000",
"X c #FF202020",
"o c #FF2C2C2C",
"O c #FF383838",
"+ c #FF484848",
"@ c #FF545454",
"# c #FF646464",
"$ c #FF707070",
"% c #FF7C7C7C",
"& c #FF000098",
"* c #FF0000B0",
"= c #FF0000EC",
"- c #FF0000FC",
"; c #FF4040FC",
": c #FF5C60FC",
"> c #FF8C8C8C",
", c #FF989898",
"< c #FFA8A8A8",
"1 c #FFB4B4B4",
"2 c #FF9C9CFC",
"3 c #FFC0C0C0",
"4 c #FFD0D0D0",
"5 c #FFDCDCDC",
"6 c #FFECECEC",
"7 c #FFFCFCFC",
/* pixels */
"                                                                                                                                ",
"                                                                                                                                ",
"                                                                                                                                ",
"                                                                                                                                ",
"                                                                                                                                ",
"                                                                                                                                ",
"                                                                                                                                ",
"                                                                                                                                ",
"                                                                                                                                ",
"                                                                                                                                ",
"                                                                                                                                ",
"                                                                                                                                ",
"                                                                                                                                ",
"                                                                                                                                ",
"                                                                                                                                ",
"                                                                                                                                ",
"                                                                                                                                ",
"                                                                                                                                ",
"                                                                                                                                ",
"                                                                                                                                ",
"                                                                                                                                ",
"                                                                                                                                ",
"                                                                                                                                ",
"                                                                                                                                ",
"                                                                                                                                ",
"                                                                                                                                ",
"                                                                                                                                ",
"                                                                                                                                ",
"                                                                                                                                ",
"                                                                                                                                ",
"                                                                                                                                ",
"                                                                                                                                ",
"                                                                                                                                ",
"                                                                                                                                ",
"                                                                                                                                ",
"                                                                                                                                ",
"                                                                                                                                ",
"                                                                                                                                ",
"                                                                                                                                ",
"                                                                                                                                ",
"                                                                                                                                ",
"                                                                                                                                ",
"                                                                                                                                ",
"                                                                                                                                ",
"                                                                                                                                ",
"                                                                                                                                ",
"                                                                                                                                ",
"                                                                                                                                ",
"                                                                                                                                ",
"                                                                                                                                ",
"                                                                                                                                ",
"                                                                                                                                ",
"                                                                                                                                ",
"                                                                                                                                ",
"                                                                                                                                ",
"                                                                                                                                ",
"                                                                                                                                ",
"                                                                                                                                ",
"                                                                                                                                ",
"                                                                                                                                ",
"                                                                                                                                ",
"                                                                                                                                ",
"                                                                                                                                ",
"                                                                                                                                ",
"                                                                                                                                ",
"                                                                                                                                ",
"                                                                                                                                ",
"                                                                                                                                ",
"                                                                                                                                ",
"                                                                                                                                ",
"                                                                                                                                ",
"                                                                                                                                ",
"                                                                                                                                ",
"                                                                                                                                ",
"                                                                                                                                ",
"                                                                                                                                ",
"                                                                                                                                ",
"                                                                                                                                ",
"                                      <<4444444444  <<4444    44444444444444<<<<                                                ",
"                                      <<4444444444  <<4444    44444444444444<<<<                                                ",
"                        5555555555%%44666666444444%%664444%%44666666666644444444%%44444444                                      ",
"                        5555555555%%44666666444444%%664444%%44666666666644444444%%44444444                                      ",
"                    115555774444<<@@,,,,,,,,,,%%%%@@%%%%%%@@%%%%%%,,,,,,,,<<<<<<@@%%<<<<444433,,                                ",
"                    115555774444<<@@,,,,,,,,,,%%%%@@%%%%%%@@%%%%%%,,,,,,,,<<<<<<@@%%<<<<444433,,                                ",
"                  11<<<<<<>>,,$$@@OO@@++++OOOOOOOOXXOOOOOOXXOOOO++++++@@########OO##%%%%%%<<<<<<<<$$                            ",
"                  11<<<<<<>>,,$$@@OO@@++++OOOOOOOOXXOOOOOOXXOOOO++++++@@########OO##%%%%%%<<<<<<<<$$                            ",
"                  11556644>>$$++OOXXOOOOOO&&&&&&&&&&&&&&&&&&&&&&&&&&&&&&&&&&&&OOXXOO####@@%%<<5533,,$$                          ",
"                  11556644>>$$++OOXXOOOOOO&&&&&&&&&&&&&&&&&&&&&&&&&&&&&&&&&&&&OOXXOO####@@%%<<5533,,$$                          ",
"                  ,,55666644>>&&&&&&--::::::;;====**::;;==**;;::::::::::;;;;;;==**&&&&&&OO##$$$$$$$$++                          ",
"                  ,,55666644>>&&&&&&--::::::;;====**::;;==**;;::::::::::;;;;;;==**&&&&&&OO##$$$$$$$$++                          ",
"                  %%1155667711>>444444>>22::::;;;;==================;;;;::::22<<<<<<<<%%<<44,,<<OO$$++                          ",
"                  %%1155667711>>444444>>22::::;;;;==================;;;;::::22<<<<<<<<%%<<44,,<<OO$$++                          ",
"                    $$11444411##77774433,,4444444444<<<<,,44555555555555<<%%55777755<<%%44,,$$##OO++                            ",
"                    $$11444411##77774433,,4444444444<<<<,,44555555555555<<%%55777755<<%%44,,$$##OO++                            ",
"                  4444$$,,,,>>@@77<<<<<<$$777733333333<<%%77666644444444<<%%44<<%%$$%%++$$$$@@++..@@++                          ",
"                  4444$$,,,,>>@@77<<<<<<$$777733333333<<%%77666644444444<<%%44<<%%$$%%++$$$$@@++..@@++                          ",
"                  4477<<$$%%%%%%%%%%%%%%$$$$$$$$$$$$@@@@%%44<<<<<<<<<<<<%%++$$$$$$++++@@oooooooo++@@++                          ",
"                  4477<<$$%%%%%%%%%%%%%%$$$$$$$$$$$$@@@@%%44<<<<<<<<<<<<%%++$$$$$$++++@@oooooooo++@@++                          ",
"                  4444$$77777755<<$$<<7744<<,,$$##%%%%%%%%%%%%%%$$$$$$####OO++++++@@,,11>>$$##oo++@@OO                          ",
"                  4444$$77777755<<$$<<7744<<,,$$##%%%%%%%%%%%%%%$$$$$$####OO++++++@@,,11>>$$##oo++@@OO                          ",
"                    <<$$77554444<<$$77444444444444,,##,,55444411<<<<<<>>>>%%%%$$@@OO11>>>>$$##oo@@OOoo                          ",
"                    <<$$77554444<<$$77444444444444,,##,,55444411<<<<<<>>>>%%%%$$@@OO11>>>>$$##oo@@OOoo                          ",
"                  <<77@@44444444<<@@77<<<<<<<<<<<<<<$$%%5566<<<<>>>>>>>>%%%%%%##@@OO11>>%%$$@@oo++++                            ",
"                  <<77@@44444444<<@@77<<<<<<<<<<<<<<$$%%5566<<<<>>>>>>>>%%%%%%##@@OO11>>%%$$@@oo++++                            ",
"                  <<4477$$<<<<<<$$@@@@$$$$$$%%%%%%$$##OO@@,,%%%%%%%%$$$$$$####@@@@oo>>%%##++ooOO++oooo                          ",
"                  <<4477$$<<<<<<$$@@@@$$$$$$%%%%%%$$##OO@@,,%%%%%%%%$$$$$$####@@@@oo>>%%##++ooOO++oooo                          ",
"                  $$<<444444$$$$@@@@@@OO@@@@OOOOOOOOOOOO@@@@++++++++++ooooooooooooooooooooooOO++@@oooo                          ",
"                  $$<<444444$$$$@@@@@@OO@@@@OOOOOOOOOOOO@@@@++++++++++ooooooooooooooooooooooOO++@@oooo                          ",
"                    $$$$<<44++77775555<<>>$$@@%%@@<<<<<<<<<<<<<<<<@@##,,11<<1111<<<<$$##@@++oo++@@ooOO                          ",
"                    $$$$<<44++77775555<<>>$$@@%%@@<<<<<<<<<<<<<<<<@@##,,11<<1111<<<<$$##@@++oo++@@ooOO                          ",
"                  555511@@$$%%7755<<<<<<<<$$,,11%%<<444444444444<<%%OO11<<<<,,>>>>%%$$##@@++oo@@@@OOoo                          ",
"                  555511@@$$%%7755<<<<<<<<$$,,11%%<<444444444444<<%%OO11<<<<,,>>>>%%$$##@@++oo@@@@OOoo                          ",
"                  556677,,++%%>>>>>><<<<>>@@4444%%44<<<<<<<<<<<<%%@@OO1111>>>>>>%%%%$$##@@OOoo@@oo..                            ",
"                  556677,,++%%>>>>>><<<<>>@@4444%%44<<<<<<<<<<<<%%@@OO1111>>>>>>%%%%$$##@@OOoo@@oo..                            ",
"                  11776655,,##%%++++++++++33<<<<>>..OOOOOOOOOOOOOOOO@@@@@@@@@@ooooooooooooooXXXXXX++oo################          ",
"                  11776655,,##%%++++++++++33<<<<>>..OOOOOOOOOOOOOOOO@@@@@@@@@@ooooooooooooooXXXXXX++oo################          ",
"                  ,,554433,,##%%55774411,,$$OOOOOOOO@@$$,,,,,,>>%%>>,,%%%%%%##OOOOOOoooo####++OOXX++oo@@@@@@@@@@@@@@@@####      ",
"                  ,,554433,,##%%55774411,,$$OOOOOOOO@@$$,,,,,,>>%%>>,,%%%%%%##OOOOOOoooo####++OOXX++oo@@@@@@@@@@@@@@@@####      ",
"                  %%,,4433>>##%%77553333333333<<>>$$++,,553333333311<<<<,,>>##<<,,%%##oo%%##++OOoo++OOOOOOOOOOOOOO++++@@@@##    ",
"                  %%,,4433>>##%%77553333333333<<>>$$++,,553333333311<<<<,,>>##<<,,%%##oo%%##++OOoo++OOOOOOOOOOOOOO++++@@@@##    ",
"                    %%,,>>$$oo%%5533<<<<<<<<<<<<>>$$OO>>3311<<,,,,,,,,,,,,>>##,,,,%%##oo%%##++OO@@OOXX..XXXXooooooOOOO++@@##    ",
"                    %%,,>>$$oo%%5533<<<<<<<<<<<<>>$$OO>>3311<<,,,,,,,,,,,,>>##,,,,%%##oo%%##++OO@@OOXX..XXXXooooooOOOO++@@##    ",
"                      %%$$##oo++@@%%,,,,,,>>>>>>$$OOOO@@<<,,,,,,>>%%>>,,%%$$OO%%##@@@@oo@@++OOooooXX..XXXXXXooooooOOOO++++@@##  ",
"                      %%$$##oo++@@%%,,,,,,>>>>>>$$OOOO@@<<,,,,,,>>%%>>,,%%$$OO%%##@@@@oo@@++OOooooXX..XXXXXXooooooOOOO++++@@##  ",
"                          ++++++++++@@@@@@@@@@@@OOOO@@@@########++++####++OO..OOOOOOOOOOOOOOOOOOOOOOOOOOOOOOOOOOOOOOOO++@@####  ",
"                          ++++++++++@@@@@@@@@@@@OOOO@@@@########++++####++OO..OOOOOOOOOOOOOOOOOOOOOOOOOOOOOOOOOOOOOOOO++@@####  ",
"                                      ######################################################################################    ",
"                                      ######################################################################################    "
};
