/* XPM */
static char *parte_37[] = {
/* columns rows colors chars-per-pixel */
"128 128 19 1 ",
"  c #00000000",
". c #FF000000",
"X c #FF202020",
"o c #FF2C2C2C",
"O c #FF383838",
"+ c #FF484848",
"@ c #FF545454",
"# c #FF646464",
"$ c #FF707070",
"% c #FF7C7C7C",
"& c #FF8C8C8C",
"* c #FF989898",
"= c #FFA8A8A8",
"- c #FFB4B4B4",
"; c #FFC0C0C0",
": c #FFD0D0D0",
"> c #FFDCDCDC",
", c #FFECECEC",
"< c #FFFCFCFC",
/* pixels */
"                                                                                                                                ",
"                                                                                                                                ",
"                                                                                                                                ",
"                                                                                                                                ",
"                                                                                                                                ",
"                                                                                                                                ",
"                                                                                                                                ",
"                                                                                                                                ",
"                                                                                                                                ",
"                                                                                                                                ",
"                                                                                                                                ",
"                                                                                                                                ",
"                                                                                                                                ",
"                                                                                                                                ",
"                                                                                                                                ",
"                                                                                                                                ",
"                                                                                                                                ",
"                                                                                                                                ",
"                                                                                                                                ",
"                                                                                                                                ",
"                                                                                                                                ",
"                                                                                                                                ",
"                                                                                                                                ",
"                                                                                                                                ",
"                                                                                                                                ",
"                                                                                                                                ",
"                                                                                                                                ",
"                                                                                                                                ",
"                                                                                                                                ",
"                                                                                                                                ",
"                                                                                                                                ",
"                                                                                                                                ",
"                                                                                                                                ",
"                                                                                                                                ",
"                                                                                                                                ",
"                                                                                                                                ",
"                                                                                                                                ",
"                                                                                                                                ",
"                                                                                                                                ",
"                                                                                                                                ",
"                                                                                                                                ",
"                                                                                                                                ",
"                                                                                                                                ",
"                                                                                                                                ",
"                                                                                                                                ",
"                                                                                                                                ",
"                                                                                                                                ",
"                                                                                                                                ",
"                                                                                                                                ",
"                                                                                                                                ",
"                                                                                                                                ",
"                                                                                                                                ",
"                                                                                                                                ",
"                                                                                                                                ",
"                                                                                                                                ",
"                                                                                                                                ",
"                                                                                                                                ",
"                                                                                                                                ",
"                                                                                                                                ",
"                                                                                                                                ",
"                                                                                                                                ",
"                                                                                                                                ",
"                                                                                                                                ",
"                                                                                                                                ",
"                                                                                                                                ",
"                                                                                                                                ",
"                                                                                                                                ",
"                                                                                                                                ",
"                                                                                                                                ",
"                                                                                                                                ",
"                                                                                                                                ",
"                                                                                                                                ",
"                                                                                                                                ",
"                                                                                                                                ",
"                                                                                                                                ",
"                                                                                                                                ",
"                                                                                                                                ",
"                                                                                                                                ",
"                                      ==::::::::::  ==::::    ::::::::::::::====                                                ",
"                                      ==::::::::::  ==::::    ::::::::::::::====                                                ",
"                        >>>>>>>>>>%%::,,,,,,::::::%%,,::::%%::,,,,,,,,,,::::::::%%::::::::                                      ",
"                        >>>>>>>>>>%%::,,,,,,::::::%%,,::::%%::,,,,,,,,,,::::::::%%::::::::                                      ",
"                    -->>>><<::::==@@**======**%%%%@@%%%%%%@@%%%%%%********======@@%%====::::;;**                                ",
"                    -->>>><<::::==@@**======**%%%%@@%%%%%%@@%%%%%%********======@@%%====::::;;**                                ",
"                  --======&&**$$@@OO@@####@@++OOOOXXOOOOOOXXOOOO++++++@@########OO##%%%%%%========$$                            ",
"                  --======&&**$$@@OO@@####@@++OOOOXXOOOOOOXXOOOO++++++@@########OO##%%%%%%========$$                            ",
"                  -->>,,::&&$$++OOXXooooooooooXX....OOOO++XX....ooOO@@@@@@@@@@OOXXOO####@@%%==>>;;**$$                          ",
"                  -->>,,::&&$$++OOXXooooooooooXX....OOOO++XX....ooOO@@@@@@@@@@OOXXOO####@@%%==>>;;**$$                          ",
"                  **>>,,,,::&&@@ooooooooooooooooOO....ooooXXOOOOOOOOOOOOOOOOOO....@@@@@@OO##$$$$$$$$++                          ",
"                  **>>,,,,::&&@@ooooooooooooooooOO....ooooXXOOOOOOOOOOOOOOOOOO....@@@@@@OO##$$$$$$$$++                          ",
"                  %%-->>,,<<--&&::::====**&&&&%%$$$$##++++++++####$$$$%%%%%%****======%%==::**==OO$$++                          ",
"                  %%-->>,,<<--&&::::====**&&&&%%$$$$##++++++++####$$$$%%%%%%****======%%==::**==OO$$++                          ",
"                    $$--::::--##<<<<::;;**::::::::::====**::>>>>>>>>>>>>==%%>><<<<>>==%%::**$$##OO++                            ",
"                    $$--::::--##<<<<::;;**::::::::::====**::>>>>>>>>>>>>==%%>><<<<>>==%%::**$$##OO++                            ",
"                  ::::$$****&&@@<<======$$<<<<;;;;;;;;==%%<<,,,,::::::::==%%::==%%$$%%++$$$$@@++..@@++                          ",
"                  ::::$$****&&@@<<======$$<<<<;;;;;;;;==%%<<,,,,::::::::==%%::==%%$$%%++$$$$@@++..@@++                          ",
"                  ::<<==$$%%%%%%%%%%%%%%$$$$$$$$$$$$@@@@%%::============%%++$$$$$$++++@@oooooooo++@@++                          ",
"                  ::<<==$$%%%%%%%%%%%%%%$$$$$$$$$$$$@@@@%%::============%%++$$$$$$++++@@oooooooo++@@++                          ",
"                  ::::$$<<<<<<>>==$$==<<::==**$$##%%%%%%%%%%%%%%$$$$$$####OO++++++@@**--&&$$##oo++@@OO                          ",
"                  ::::$$<<<<<<>>==$$==<<::==**$$##%%%%%%%%%%%%%%$$$$$$####OO++++++@@**--&&$$##oo++@@OO                          ",
"                    ==$$<<>>::::==$$<<::::::::::::**##**>>::::--======&&&&%%%%$$@@OO--&&&&$$##oo@@OOoo                          ",
"                    ==$$<<>>::::==$$<<::::::::::::**##**>>::::--======&&&&%%%%$$@@OO--&&&&$$##oo@@OOoo                          ",
"                  ==<<@@::::::::==@@<<==============$$%%>>,,====&&&&&&&&%%%%%%##@@OO--&&%%$$@@oo++++                            ",
"                  ==<<@@::::::::==@@<<==============$$%%>>,,====&&&&&&&&%%%%%%##@@OO--&&%%$$@@oo++++                            ",
"                  ==::<<$$======$$@@@@$$$$$$%%%%%%$$##OO@@**%%%%%%%%$$$$$$####@@@@oo&&%%##++ooOO++oooo                          ",
"                  ==::<<$$======$$@@@@$$$$$$%%%%%%$$##OO@@**%%%%%%%%$$$$$$####@@@@oo&&%%##++ooOO++oooo                          ",
"                  $$==::::::$$$$@@@@@@OO@@@@OOOOOOOOOOOO@@@@++++++++++ooooooooooooooooooooooOO++@@oooo                          ",
"                  $$==::::::$$$$@@@@@@OO@@@@OOOOOOOOOOOO@@@@++++++++++ooooooooooooooooooooooOO++@@oooo                          ",
"                    $$$$==::++<<<<>>>>;;;;==&&%%@@**==============@@##**--==----====$$##@@++oo++@@ooOO                          ",
"                    $$$$==::++<<<<>>>>;;;;==&&%%@@**==============@@##**--==----====$$##@@++oo++@@ooOO                          ",
"                  >>>>--@@$$%%<<>>;;;;;;;;;;==&&%%&&::::::::::::==%%OO--====**&&&&%%$$##@@++oo@@@@OOoo                          ",
"                  >>>>--@@$$%%<<>>;;;;;;;;;;==&&%%&&::::::::::::==%%OO--====**&&&&%%$$##@@++oo@@@@OOoo                          ",
"                  >>,,<<**++%%&&**==----;;;;==&&@@$$&&==========%%@@OO----&&&&&&%%%%$$##@@OOoo@@oo..                            ",
"                  >>,,<<**++%%&&**==----;;;;==&&@@$$&&==========%%@@OO----&&&&&&%%%%$$##@@OOoo@@oo..                            ",
"                  --<<,,>>**##%%++++++++++@@@@@@++..OOOOOOOOOOOOOOOO@@@@@@@@@@ooooooooooooooXXXXXX++oo################          ",
"                  --<<,,>>**##%%++++++++++@@@@@@++..OOOOOOOOOOOOOOOO@@@@@@@@@@ooooooooooooooXXXXXX++oo################          ",
"                  **>>::;;**##%%>><<::--**$$OOOOOOOO@@$$******&&%%&&**%%%%%%##$$$$$$@@oo####++OOXX++oo@@@@@@@@@@@@@@@@####      ",
"                  **>>::;;**##%%>><<::--**$$OOOOOOOO@@$$******&&%%&&**%%%%%%##$$$$$$@@oo####++OOXX++oo@@@@@@@@@@@@@@@@####      ",
"                  %%**::;;&&##%%<<>>;;;;;;;;;;==&&$$++**>>;;;;;;;;--====**&&##==**%%##oo%%##++OOoo++OOOOOOOOOOOOOO++++@@@@##    ",
"                  %%**::;;&&##%%<<>>;;;;;;;;;;==&&$$++**>>;;;;;;;;--====**&&##==**%%##oo%%##++OOoo++OOOOOOOOOOOOOO++++@@@@##    ",
"                    %%**&&$$oo%%>>;;============&&$$OO&&;;--==************&&##****%%##oo%%##++OO@@OOXX..XXXXooooooOOOO++@@##    ",
"                    %%**&&$$oo%%>>;;============&&$$OO&&;;--==************&&##****%%##oo%%##++OO@@OOXX..XXXXooooooOOOO++@@##    ",
"                      %%$$##oo++@@%%******&&&&&&$$OOOO@@==******&&&&&&**%%$$OO%%##@@@@oo@@++OOooooXX..XXXXXXooooooOOOO++++@@##  ",
"                      %%$$##oo++@@%%******&&&&&&$$OOOO@@==******&&&&&&**%%$$OO%%##@@@@oo@@++OOooooXX..XXXXXXooooooOOOO++++@@##  ",
"                          ++++++++++@@@@@@@@@@@@OOOO@@@@++++++++++++++++++OO..OOOOOOOOOOOOOOOOOOOOOOOOOOOOOOOOOOOOOOOO++@@####  ",
"                          ++++++++++@@@@@@@@@@@@OOOO@@@@++++++++++++++++++OO..OOOOOOOOOOOOOOOOOOOOOOOOOOOOOOOOOOOOOOOO++@@####  ",
"                                      ######################################################################################    ",
"                                      ######################################################################################    "
};
