/* XPM */
static char *back_left3[] = {
/* columns rows colors chars-per-pixel */
"128 128 23 1 ",
"  c #00000000",
". c #FFA86840",
"X c #FF905C34",
"o c #FF545454",
"O c #FF484848",
"+ c #FF885830",
"@ c #FF2C2C2C",
"# c #FF383838",
"$ c #FF000000",
"% c #FF744C28",
"& c #FF646464",
"* c #FF543C1C",
"= c #FF483818",
"- c #FF403018",
"; c #FF28200C",
": c #FF303030",
"> c #FF343434",
", c #FFA0643C",
"< c #FF80502C",
"1 c #FF6C4824",
"2 c #FF404040",
"3 c #FF382C14",
"4 c #FF9C6038",
/* pixels */
"                                                                                                                                ",
"                                                                                                                                ",
"                                                                                                                                ",
"                                                                                                                                ",
"                                                                                                                                ",
"                                                                                                                                ",
"                                                                                                                                ",
"                                                                                                                                ",
"                                                                                                                                ",
"                                                                                                                                ",
"                                                                                                                                ",
"                                                                                                                                ",
"                                                                                                                                ",
"                                                                                                                                ",
"                                                                                                                                ",
"                                                                                                                                ",
"                                                                                                                                ",
"                                                                                                                                ",
"                                                                                                                                ",
"                                                                                                                                ",
"                                                                                                                                ",
"                                                                                                                                ",
"                                                                                                                                ",
"                                                                                                                                ",
"                                                                                                                                ",
"                                                                                                                                ",
"                                                                                                                                ",
"                                                                                                                                ",
"                                                                                                                                ",
"                                                                                                                                ",
"                                                                                                                                ",
"                                                                                                                                ",
"                                                                                                                                ",
"                                                                                                                                ",
"                                                                                                                                ",
"                                                                                                                                ",
"                                                                                                                                ",
"                                                                                                                                ",
"                                                                                                                                ",
"                                                                                                                                ",
"                                                                                                                                ",
"                                                                                                                                ",
"                                                                                                                                ",
"                                                                                                                                ",
"                                                                                                                                ",
"                                                                                                                                ",
"                                                                                                                                ",
"                                                                                                                                ",
"                                                                                                                                ",
"                                                                                                                                ",
"                                                                                                                                ",
"                                                                                                                                ",
"                                                                                                                                ",
"                                                                                                                                ",
"                                                                                                                                ",
"                                                                                                                                ",
"                                                                                                                                ",
"                                                                                                                                ",
"                                                                                                                                ",
"                                                                                                                                ",
"                                                                                                                                ",
"                                                                                                                                ",
"                                                                                                                                ",
"                                                                                                                                ",
"                                                                                                                                ",
"                                                                                                                                ",
"                                            ..          ..                                                                      ",
"                                            ..          ..                                                                      ",
"                                            ..XX      ..XX                                                                      ",
"                                            ..XX      ..XX                                                                      ",
"                                          ..ooOO    ++++OO                                                                      ",
"                                          ..ooOO    ++++OO                                                                      ",
"                                      @@@@ooooOO##ooOO##OO                                                                      ",
"                                      @@@@ooooOO##ooOO##OO                                                                      ",
"                                    @@OOoo@@@@ooOO####OO##                                                                      ",
"                                    @@OOoo@@@@ooOO####OO##                                                                      ",
"                              $$$$@@OO$$..oooo%%%%%%%%XX%%                                                                      ",
"                              $$$$@@OO$$..oooo%%%%%%%%XX%%                                                                      ",
"                              @@##oo............XXXXXXXX%%                                                                      ",
"                              @@##oo............XXXXXXXX%%                                                                      ",
"                              @@oo..............XXXXXXXX%%                                                                      ",
"                              @@oo..............XXXXXXXX%%                                                                      ",
"                                ##oooooooo........XXXXXX%%%%        ######OOOO                    $$$$$$$$                      ",
"                                ##oooooooo........XXXXXX%%%%        ######OOOO                    $$$$$$$$                      ",
"                                  ##OOOO..&&......XXXXXXXX%%@@  ######OO++++++++        ****====----;;$$$$                      ",
"                                  ##OOOO..&&......XXXXXXXX%%@@  ######OO++++++++        ****====----;;$$$$                      ",
"                                    $$$$oo..oo....XXXXXX@@::>>####OO&&..,,,,,,++++    **<<11****--;;$$                          ",
"                                    $$$$oo..oo....XXXXXX@@::>>####OO&&..,,,,,,++++    **<<11****--;;$$                          ",
"                                        oooo........XX@@::>>>>##22&&........,,,,++%%%%%%====33;;$$                              ",
"                                        oooo........XX@@::>>>>##22&&........,,,,++%%%%%%====33;;$$                              ",
"                                        oooo........oo@@>>####22OO&&..........XXXXXX%%====                                      ",
"                                        oooo........oo@@>>####22OO&&..........XXXXXX%%====                                      ",
"                                        oooo....&&oo&&OO####22OOoo..........44==========                                        ",
"                                        oooo....&&oo&&OO####22OOoo..........44==========                                        ",
"                                          oo....oooo..ooOOOOOOoo....4444444411######**                                          ",
"                                          oo....oooo..ooOOOOOOoo....4444444411######**                                          ",
"                                          oo&&&&oo............oo4444444444++++####****                                          ",
"                                          oo&&&&oo............oo4444444444++++####****                                          ",
"                                            oooo&&............oo4444444444++11####********                                      ",
"                                            oooo&&............oo4444444444++11####********                                      ",
"                                            oooo..............oo4444444444%%**%%**********                                      ",
"                                            oooo..............oo4444444444%%**%%**********                                      ",
"                                              oo............OOOOoo44444444++++%%########**                                      ",
"                                              oo............OOOOoo44444444++++%%########**                                      ",
"                                                ......XX**OOOO####oo44444444++%%  ########**                                    ",
"                                                ......XX**OOOO####oo44444444++%%  ########**                                    ",
"                                                ....XXOO######@@####OOOOOO44++%%      ######**                                  ",
"                                                ....XXOO######@@####OOOOOO44++%%      ######**                                  ",
"                                              ....XXOO  @@@@@@@@@@        ++44++11      ######****                              ",
"                                              ....XXOO  @@@@@@@@@@        ++44++11      ######****                              ",
"                                              ....XXOO    11@@@@            ++++%%        ####****                              ",
"                                              ....XXOO    11@@@@            ++++%%        ####****                              ",
"                                            ....XXOO    11@@@@@@            ++++++1111                                          ",
"                                            ....XXOO    11@@@@@@            ++++++1111                                          ",
"                                            ..XXOO  111133@@@@                ++++1111                                          ",
"                                            ..XXOO  111133@@@@                ++++1111                                          ",
"                                        ......XX    1133@@@@@@                                                                  ",
"                                        ......XX    1133@@@@@@                                                                  ",
"                                      ......<<**        @@@@@@@@@@######OOoooo&&&&                                              ",
"                                      ......<<**        @@@@@@@@@@######OOoooo&&&&                                              ",
"                                      ....XX11**@@@@@@              @@@@@@##########OOOOOOoooo&&&&                              ",
"                                      ....XX11**@@@@@@              @@@@@@##########OOOOOOoooo&&&&                              ",
"                                              ########@@@@@@@@@@@@@@@@@@@@@@@@@@@@@@@@@@@@####OOOOOOoooo&&&&&&                  ",
"                                              ########@@@@@@@@@@@@@@@@@@@@@@@@@@@@@@@@@@@@####OOOOOOoooo&&&&&&                  ",
"                                                      &&&&&&&&&&ooooooooOOOOOOOOOO####################OOOOoooooo&&&&&&&&&&      ",
"                                                      &&&&&&&&&&ooooooooOOOOOOOOOO####################OOOOoooooo&&&&&&&&&&      ",
"                                                                              &&&&&&&&&&oooooooooooooooo&&&&&&&&&&              ",
"                                                                              &&&&&&&&&&oooooooooooooooo&&&&&&&&&&              "
};
