/* XPM */
static char *front_right4[] = {
/* columns rows colors chars-per-pixel */
"128 128 25 1 ",
"  c #00000000",
". c #FFA86840",
"X c #FF545454",
"o c #FF2C2C2C",
"O c #FF6C4824",
"+ c #FF383838",
"@ c #FF484848",
"# c #FFA0643C",
"$ c #FF000000",
"% c #FF646464",
"& c #FF905C34",
"* c #FF80502C",
"= c #FF403018",
"- c #FF8C8C8C",
"; c #FF707070",
": c #FF5C4020",
"> c #FF543C1C",
", c #FF7C7C7C",
"< c #FF885830",
"1 c #FF744C28",
"2 c #FF382C14",
"3 c #FF9C6038",
"4 c #FF202020",
"5 c #FF404040",
"6 c #FF303030",
/* pixels */
"                                                                                                                                ",
"                                                                                                                                ",
"                                                                                                                                ",
"                                                                                                                                ",
"                                                                                                                                ",
"                                                                                                                                ",
"                                                                                                                                ",
"                                                                                                                                ",
"                                                                                                                                ",
"                                                                                                                                ",
"                                                                                                                                ",
"                                                                                                                                ",
"                                                                                                                                ",
"                                                                                                                                ",
"                                                                                                                                ",
"                                                                                                                                ",
"                                                                                                                                ",
"                                                                                                                                ",
"                                                                                                                                ",
"                                                                                                                                ",
"                                                                                                                                ",
"                                                                                                                                ",
"                                                                                                                                ",
"                                                                                                                                ",
"                                                                                                                                ",
"                                                                                                                                ",
"                                                                                                                                ",
"                                                                                                                                ",
"                                                                                                                                ",
"                                                                                                                                ",
"                                                                                                                                ",
"                                                                                                                                ",
"                                                                                                                                ",
"                                                                                                                                ",
"                                                                                                                                ",
"                                                                                                                                ",
"                                                                                                                                ",
"                                                                                                                                ",
"                                                                                                                                ",
"                                                                                                                                ",
"                                                                                                                                ",
"                                                                                                                                ",
"                                                                                                                                ",
"                                                                                                                                ",
"                                                                                                                                ",
"                                                                                                                                ",
"                                                                                                                                ",
"                                                                                                                                ",
"                                                                                                                                ",
"                                                                                                                                ",
"                                                                                                                                ",
"                                                                                                                                ",
"                                                                                                                                ",
"                                                                                                                                ",
"                                                                                                                                ",
"                                                                                                                                ",
"                                                                                                                                ",
"                                                                                                                                ",
"                                                                                                                                ",
"                                                                                                                                ",
"                                                                                                                                ",
"                                                                                                                                ",
"                                                                                                                                ",
"                                                                                                                                ",
"                                                                                                                                ",
"                                                                                                                                ",
"                                              ..    ..                                                                          ",
"                                              ..    ..                                                                          ",
"                                            ..XX    ..XX                                                                        ",
"                                            ..XX    ..XX                                                                        ",
"                                          ..XXXX  ..XXXX                                                                        ",
"                                          ..XXXX  ..XXXX                                                                        ",
"                                        ooooooooooXXXXOO                                                                        ",
"                                        ooooooooooXXXXOO                                                                        ",
"                                      ++++++@@XX..##XXXXOO                                                                      ",
"                                      ++++++@@XX..##XXXXOO                                                                      ",
"                                $$$$oooo++OO$$++%%....&&OO                                                                      ",
"                                $$$$oooo++OO$$++%%....&&OO                                                                      ",
"                                $$$$++XX&&&&..........##**OO                          ==$$$$$$$$                                ",
"                                $$$$++XX&&&&..........##**OO                          ==$$$$$$$$                                ",
"                                oo++++++XX--;;++......##&&OO                        ::**::>>==$$$$                              ",
"                                oo++++++XX--;;++......##&&OO                        ::**::>>==$$$$                              ",
"                                  XX%%,,%%;;,,==>>XX..##&&OO                      <<<<11>>==22$$                                ",
"                                  XX%%,,%%;;,,==>>XX..##&&OO                      <<<<11>>==22$$                                ",
"                                    $$oooooo>>XXXX**####33**oooo44oooooooo      <<..<<22$$$$                                    ",
"                                    $$oooooo>>XXXX**####33**oooo44oooooooo      <<..<<22$$$$                                    ",
"                                        ++++++****######3333**55oo44oooooo6633....33====                                        ",
"                                        ++++++****######3333**55oo44oooooo6633....33====                                        ",
"                                          @@@@@@XX....##333333XX5544oooo66++XX33..11                                            ",
"                                          @@@@@@XX....##333333XX5544oooo66++XX33..11                                            ",
"                                          XX@@@@XX....3333%%XX33XX55++++55@@3333&&                                              ",
"                                          XX@@@@XX....3333%%XX33XX55++++55@@3333&&                                              ",
"                                            XXXXXXXX....XXXX3333%%@@55@@@@333333<<                                              ",
"                                            XXXXXXXX....XXXX3333%%@@55@@@@333333<<                                              ",
"                                            XXXXXXXXXXXXXXXX333333%%XXXX33......**                                              ",
"                                            XXXXXXXXXXXXXXXX333333%%XXXX33......**                                              ",
"                                              XX%%XXXXXXXX3333333333XX%%........11                                              ",
"                                              XX%%XXXXXXXX3333333333XX%%........11                                              ",
"                                              XXXX%%XX....3333**33%%XX33........11                                              ",
"                                              XXXX%%XX....3333**33%%XX33........11                                              ",
"                                              11XXXXXX......3311XX@@XX33....333311                                              ",
"                                              11XXXXXX......3311XX@@XX33....333311                                              ",
"                                              <<XX@@@@55....3311@@++55333333&&<<11                                              ",
"                                              <<XX@@@@55....3311@@++55333333&&<<11                                              ",
"                                              <<XX55++++....3311++oo553333&&&&**                                                ",
"                                              <<XX55++++....3311++oo553333&&&&**                                                ",
"                                                33oooooo@@..333311oo5533&&&&<<**                                                ",
"                                                33oooooo@@..333311oo5533&&&&<<**                                                ",
"                                                  33XX@@  ....3311oo5533&&&&**                                                  ",
"                                                  33XX@@  ....3311oo5533&&&&**                                                  ",
"                                                  33XX@@    ..3311oo55&&&&<<**                                                  ",
"                                                  33XX@@    ..3311oo55&&&&<<**                                                  ",
"                                                  33XX@@    ..3311oo55&&&&**                                                    ",
"                                                  33XX@@    ..3311oo55&&&&**                                                    ",
"                                                  33XX@@    ..3311oo@@&&<<**                                                    ",
"                                                  33XX@@    ..3311oo@@&&<<**                                                    ",
"                                                  3333****  ....3311@@&&**                                                      ",
"                                                  3333****  ....3311@@&&**                                                      ",
"                                                    33****  ....331133&&**                                                      ",
"                                                    33****  ....331133&&**                                                      ",
"                                                        &&OOOOOO&&&&&&&&                                                        ",
"                                                        &&OOOOOO&&&&&&&&                                                        ",
"                                                      &&OOOOOO  &&&&&&oooooooooo++++++@@@@@@XXXXXX%%%%%%%%                      ",
"                                                      &&OOOOOO  &&&&&&oooooooooo++++++@@@@@@XXXXXX%%%%%%%%                      ",
"                                                      %%%%XX@@++++++++++oooooooooooooooooooooo++++@@@@@@XXXXXX%%%%%%            ",
"                                                      %%%%XX@@++++++++++oooooooooooooooooooooo++++@@@@@@XXXXXX%%%%%%            ",
"                                                    %%%%%%%%XXXX@@@@@@++++++++++++++++++@@@@@@@@@@XXXX%%%%%%%%                  ",
"                                                    %%%%%%%%XXXX@@@@@@++++++++++++++++++@@@@@@@@@@XXXX%%%%%%%%                  "
};
