/* XPM */
static char *right3[] = {
/* columns rows colors chars-per-pixel */
"128 128 22 1 ",
"  c #00000000",
". c #FFA86840",
"X c #FF545454",
"o c #FF80502C",
"O c #FF9C6038",
"+ c #FF2C2C2C",
"@ c #FF484848",
"# c #FF905C34",
"$ c #FF383838",
"% c #FF646464",
"& c #FF000000",
"* c #FF885830",
"= c #FF28200C",
"- c #FF382C14",
"; c #FF404040",
": c #FF202020",
"> c #FF483818",
", c #FF744C28",
"< c #FF343434",
"1 c #FF303030",
"2 c #FF6C4824",
"3 c #FF5C4020",
/* pixels */
"                                                                                                                                ",
"                                                                                                                                ",
"                                                                                                                                ",
"                                                                                                                                ",
"                                                                                                                                ",
"                                                                                                                                ",
"                                                                                                                                ",
"                                                                                                                                ",
"                                                                                                                                ",
"                                                                                                                                ",
"                                                                                                                                ",
"                                                                                                                                ",
"                                                                                                                                ",
"                                                                                                                                ",
"                                                                                                                                ",
"                                                                                                                                ",
"                                                                                                                                ",
"                                                                                                                                ",
"                                                                                                                                ",
"                                                                                                                                ",
"                                                                                                                                ",
"                                                                                                                                ",
"                                                                                                                                ",
"                                                                                                                                ",
"                                                                                                                                ",
"                                                                                                                                ",
"                                                                                                                                ",
"                                                                                                                                ",
"                                                                                                                                ",
"                                                                                                                                ",
"                                                                                                                                ",
"                                                                                                                                ",
"                                                                                                                                ",
"                                                                                                                                ",
"                                                                                                                                ",
"                                                                                                                                ",
"                                                                                                                                ",
"                                                                                                                                ",
"                                                                                                                                ",
"                                                                                                                                ",
"                                                                                                                                ",
"                                                                                                                                ",
"                                                                                                                                ",
"                                                                                                                                ",
"                                                                                                                                ",
"                                                                                                                                ",
"                                                                                                                                ",
"                                                                                                                                ",
"                                                                                                                                ",
"                                                                                                                                ",
"                                                                                                                                ",
"                                                                                                                                ",
"                                                                                                                                ",
"                                                                                                                                ",
"                                                                                                                                ",
"                                                                                                                                ",
"                                                                                                                                ",
"                                                                                                                                ",
"                                                                                                                                ",
"                                                                                                                                ",
"                                                                                                                                ",
"                                                                                                                                ",
"                                                                                                                                ",
"                                                                                                                                ",
"                                                                                                                                ",
"                                                                                                                                ",
"                                                                                                                                ",
"                                                                                                                                ",
"                                                                                        ..  ..                                  ",
"                                                                                        ..  ..                                  ",
"                                                                                      XX..ooOO                                  ",
"                                                                                      XX..ooOO                                  ",
"                                                                                      OOOOooOO                                  ",
"                                                                                      OOOOooOO                                  ",
"                                                                                    ++OO@@++++                                  ",
"                                                                                    ++OO@@++++                                  ",
"                                                                                  ##..OO@@++++++++                              ",
"                                                                                  ##..OO@@++++++++                              ",
"                                                                                ##..OO@@@@XX@@$$$$++++                          ",
"                                                                                ##..OO@@@@XX@@$$$$++++                          ",
"                                                                              ##....OOXXXXOOOO%%&&++++++++&&&&                  ",
"                                                                              ##....OOXXXXOOOO%%&&++++++++&&&&                  ",
"        &&&&&&&&                        ####@@@@@@@@@@                      ####......****..OOOO****@@$$++&&&&                  ",
"        &&&&&&&&                        ####@@@@@@@@@@                      ####......****..OOOO****@@$$++&&&&                  ",
"        &&&&==----                  oo##..@@@@;;;;$$$$$$$$$$                ##..............OOOO##****@@$$$$::                  ",
"        &&&&==----                  oo##..@@@@;;;;$$$$$$$$$$                ##..............OOOO##****@@$$$$::                  ",
"          &&==-->>>>>>,,oooo      oo##......XX@@$$<<11++++11$$$$  $$    $$@@##............##XXXXXXXX@@$$++::                    ",
"          &&==-->>>>>>,,oooo      oo##......XX@@$$<<11++++11$$$$  $$    $$@@##............##XXXXXXXX@@$$++::                    ",
"            &&--2222****##OO######............XX<<11++++++++++++11$$11$$$$@@............##XXoooo++++::::                        ",
"            &&--2222****##OO######............XX<<11++++++++++++11$$11$$$$@@............##XXoooo++++::::                        ",
"                >>>>oooo****....................;;<<11++++++++++++$$++<<$$XX........##**ooXX@@$$                                ",
"                >>>>oooo****....................;;<<11++++++++++++$$++<<$$XX........##**ooXX@@$$                                ",
"                            ########**..........XX;;<<11++++++++::11::++@@XX......####ooXX@@$$                                  ",
"                            ########**..........XX;;<<11++++++++::11::++@@XX......####ooXX@@$$                                  ",
"                                  **............OOXX$$@@$$$$1111111111<<@@XX....####**oo@@;;                                    ",
"                                  **............OOXX$$@@$$$$1111111111<<@@XX....####**oo@@;;                                    ",
"                                  ****..........##XX@@XX..XX@@@@;;;;....XX@@XX####oooo@@;;$$                                    ",
"                                  ****..........##XX@@XX..XX@@@@;;;;....XX@@XX####oooo@@;;$$                                    ",
"                          ......**............OO**@@XX##..................@@@@XXooooXX@@$$                                      ",
"                          ......**............OO**@@XX##..................@@@@XXooooXX@@$$                                      ",
"                          ..................OOXXXX;;oo######................%%@@XXooXX@@$$                                      ",
"                          ..................OOXXXX;;oo######................%%@@XXooXX@@$$                                      ",
"                        ....##**XXXXOOOO####XX@@;;$$;;oooo##########..........%%@@XX@@;;33                                      ",
"                        ....##**XXXXOOOO####XX@@;;$$;;oooo##########..........%%@@XX@@;;33                                      ",
"                      ....OOXX;;$$;;XXXXXX@@;;$$    ++11<<;;oooo****XX........%%@@@@;;$$33                                      ",
"                      ....OOXX;;$$;;XXXXXX@@;;$$    ++11<<;;oooo****XX........%%@@@@;;$$33                                      ",
"                      ....XX        22;;$$$$$$          ++11<<;;;;@@@@@@##......##$$$$$$22                                      ",
"                      ....XX        22;;$$$$$$          ++11<<;;;;@@@@@@##......##$$$$$$22                                      ",
"                    ....OOXX      22;;$$$$                ++++++11<<<<$$##......##22$$$$22                                      ",
"                    ....OOXX      22;;$$$$                ++++++11<<<<$$##......##22$$$$22                                      ",
"                ......OOXX        22$$$$                        ++++111111##....##oo$$$$$$22                                    ",
"                ......OOXX        22$$$$                        ++++111111##....##oo$$$$$$22                                    ",
"              ......OOXX        22$$$$                                    ##......##$$$$$$3322                                  ",
"              ......OOXX        22$$$$                                    ##......##$$$$$$3322                                  ",
"              ######XX      222222$$                                      ####....##oo$$$$$$22                                  ",
"              ######XX      222222$$                                      ####....##oo$$$$$$22                                  ",
"                            2222$$$$                                        ##......##  $$$$$$22                                ",
"                            2222$$$$                                        ##......##  $$$$$$22                                ",
"                                                                              ##......oo  $$$$3322                              ",
"                                                                              ##......oo  $$$$3322                              ",
"                                                                                ####..##oo  $$$$3322                            ",
"                                                                                ####..##oo  $$$$3322                            ",
"                                            %%%%%%XXXXXXXXXX@@@@@@@@@@@@@@@@$$$$$$$$##..##oo$$$$$$33++$$$$@@@@@@%%%%%%          ",
"                                            %%%%%%XXXXXXXXXX@@@@@@@@@@@@@@@@$$$$$$$$##..##oo$$$$$$33++$$$$@@@@@@%%%%%%          ",
"                                %%%%%%%%%%XXXX@@@@@@@@$$$$$$$$++++++++++++++++++++++++##..####oo++++++++++++$$$$@@@@XXXX%%%%%%  ",
"                                %%%%%%%%%%XXXX@@@@@@@@$$$$$$$$++++++++++++++++++++++++##..####oo++++++++++++$$$$@@@@XXXX%%%%%%  ",
"                                      %%%%%%%%%%XXXXXXXX@@@@@@@@@@@@@@$$$$$$$$$$$$$$$$$$##..##oo$$$$$$$$@@@@@@XXXX%%%%%%%%      ",
"                                      %%%%%%%%%%XXXXXXXX@@@@@@@@@@@@@@$$$$$$$$$$$$$$$$$$##..##oo$$$$$$$$@@@@@@XXXX%%%%%%%%      "
};
