/* XPM */
static char *right1[] = {
/* columns rows colors chars-per-pixel */
"128 128 23 1 ",
"  c #00000000",
". c #FFA86840",
"X c #FF545454",
"o c #FF80502C",
"O c #FF9C6038",
"+ c #FF2C2C2C",
"@ c #FF484848",
"# c #FF905C34",
"$ c #FF383838",
"% c #FF646464",
"& c #FF000000",
"* c #FF885830",
"= c #FF744C28",
"- c #FF202020",
"; c #FF28200C",
": c #FF382C14",
"> c #FF483818",
", c #FF343434",
"< c #FF6C4824",
"1 c #FF303030",
"2 c #FF404040",
"3 c #FF543C1C",
"4 c #FF5C4020",
/* pixels */
"                                                                                                                                ",
"                                                                                                                                ",
"                                                                                                                                ",
"                                                                                                                                ",
"                                                                                                                                ",
"                                                                                                                                ",
"                                                                                                                                ",
"                                                                                                                                ",
"                                                                                                                                ",
"                                                                                                                                ",
"                                                                                                                                ",
"                                                                                                                                ",
"                                                                                                                                ",
"                                                                                                                                ",
"                                                                                                                                ",
"                                                                                                                                ",
"                                                                                                                                ",
"                                                                                                                                ",
"                                                                                                                                ",
"                                                                                                                                ",
"                                                                                                                                ",
"                                                                                                                                ",
"                                                                                                                                ",
"                                                                                                                                ",
"                                                                                                                                ",
"                                                                                                                                ",
"                                                                                                                                ",
"                                                                                                                                ",
"                                                                                                                                ",
"                                                                                                                                ",
"                                                                                                                                ",
"                                                                                                                                ",
"                                                                                                                                ",
"                                                                                                                                ",
"                                                                                                                                ",
"                                                                                                                                ",
"                                                                                                                                ",
"                                                                                                                                ",
"                                                                                                                                ",
"                                                                                                                                ",
"                                                                                                                                ",
"                                                                                                                                ",
"                                                                                                                                ",
"                                                                                                                                ",
"                                                                                                                                ",
"                                                                                                                                ",
"                                                                                                                                ",
"                                                                                                                                ",
"                                                                                                                                ",
"                                                                                                                                ",
"                                                                                                                                ",
"                                                                                                                                ",
"                                                                                                                                ",
"                                                                                                                                ",
"                                                                                                                                ",
"                                                                                                                                ",
"                                                                                                                                ",
"                                                                                                                                ",
"                                                                                                                                ",
"                                                                                                                                ",
"                                                                                                                                ",
"                                                                                                                                ",
"                                                                                                                                ",
"                                                                                                                                ",
"                                                                                      ..  ..                                    ",
"                                                                                      ..  ..                                    ",
"                                                                                    XX..ooOO                                    ",
"                                                                                    XX..ooOO                                    ",
"                                                                                    OOOOooOO                                    ",
"                                                                                    OOOOooOO                                    ",
"                                                                                  ++OO@@++++                                    ",
"                                                                                  ++OO@@++++                                    ",
"                                                                                ##..OO@@++++++++                                ",
"                                                                                ##..OO@@++++++++                                ",
"                                                                              ##..OO@@@@XX@@$$$$++                              ",
"                                                                              ##..OO@@@@XX@@$$$$++                              ",
"                                                                            ##....OOXXXXOOOO%%&&++++                            ",
"                                                                            ##....OOXXXXOOOO%%&&++++                            ",
"                                                                            ##......****..OOOO**@@$$$$++&&&&                    ",
"                                                                            ##......****..OOOO**@@$$$$++&&&&                    ",
"                                                                          ##..............OOOO##****@@++&&&&                    ",
"                                                                          ##..............OOOO##****@@++&&&&                    ",
"      &&&&&&&&                                                          ####..............XXXX======$$$$$$--                    ",
"      &&&&&&&&                                                          ####..............XXXX======$$$$$$--                    ",
"      &&&&;;::::::                        $$$$$$$$$$$$$$$$            $$$$..............XXoooo$$$$$$--++--                      ",
"      &&&&;;::::::                        $$$$$$$$$$$$$$$$            $$$$..............XXoooo$$$$$$--++--                      ",
"        &&;;::::>>>>>>====          ######..XX$$$$$$$$$$$$$$$$$$$$$$$$$$,,@@........####ooXX$$--------                          ",
"        &&;;::::>>>>>>====          ######..XX$$$$$$$$$$$$$$$$$$$$$$$$$$,,@@........####ooXX$$--------                          ",
"            ::>><<<<**XXXXoooo######..........XX11,,,,,,,,,,,,,,,,,,,,,,11@@........##ooXX22$$                                  ",
"            ::>><<<<**XXXXoooo######..........XX11,,,,,,,,,,,,,,,,,,,,,,11@@........##ooXX22$$                                  ",
"                <<<<XX**##......................2211++11111111111111111122@@......####XX@@$$                                    ",
"                <<<<XX**##......................2211++11111111111111111122@@......####XX@@$$                                    ",
"                    oooo******##..XX##..........XX2211++++++++++++++1122@@@@....####**@@22$$                                    ",
"                    oooo******##..XX##..........XX2211++++++++++++++1122@@@@....####**@@22$$                                    ",
"                                ##..............%%XX111111111111$$@@XX..XX@@@@######oo@@22$$                                    ",
"                                ##..............%%XX111111111111$$@@XX..XX@@@@######oo@@22$$                                    ",
"                                  OO............OOXX2222XXXXXXXX..........XXXX@@####XX22$$                                      ",
"                                  OO............OOXX2222XXXXXXXX..........XXXX@@####XX22$$                                      ",
"                                  OO............OOXX$$XX....................##@@@@oo@@22$$                                      ",
"                                  OO............OOXX$$XX....................##@@@@oo@@22$$                                      ",
"                                  OO..........OOOO@@$$##############==XX......XXooXX22$$,,                                      ",
"                                  OO..........OOOO@@$$##############==XX......XXooXX22$$,,                                      ",
"                                    OO........OO%%@@$$oooooooooooo==OO......##XX@@22$$$$                                        ",
"                                    OO........OO%%@@$$oooooooooooo==OO......##XX@@22$$$$                                        ",
"                                    OO......OO%%@@,,++,,$$2222@@@@==OO......XX2222$$,,                                          ",
"                                    OO......OO%%@@,,++,,$$2222@@@@==OO......XX2222$$,,                                          ",
"                                  OO......OO%%@@$$,,++++++11,,$$$$22==....==>>11++11,,                                          ",
"                                  OO......OO%%@@$$,,++++++11,,$$$$22==....==>>11++11,,                                          ",
"                                  OO....XX22$$$$<<33$$$$  ++++++++++>>OO....==>>11,,                                            ",
"                                  OO....XX22$$$$<<33$$$$  ++++++++++>>OO....==>>11,,                                            ",
"                                  ......%%@@@@  <<33$$$$            ++>>==..OO>>$$                                              ",
"                                  ......%%@@@@  <<33$$$$            ++>>==..OO>>$$                                              ",
"                                    ......@@    <<44$$$$$$        ++++..>>..OO==>>                                              ",
"                                    ......@@    <<44$$$$$$        ++++..>>..OO==>>                                              ",
"                                    ......XX      <<33$$$$    ++++++++......OO==>>                                              ",
"                                    ......XX      <<33$$$$    ++++++++......OO==>>                                              ",
"                                      ....%%@@    <<44$$$$    ++++++++==========>>                                              ",
"                                      ....%%@@    <<44$$$$    ++++++++==========>>                                              ",
"                                      ....**@@      <<33$$$$    ++++++                                                          ",
"                                      ....**@@      <<33$$$$    ++++++                                                          ",
"                                        ....XX        <<$$$$                                                                    ",
"                                        ....XX        <<$$$$                                                                    ",
"                                        ....****        $$$$$$$$                                                                ",
"                                        ....****        $$$$$$$$                                                                ",
"                                          ....****%%%%XXXXXXXX@@@@@@@@$$$$$$$$++++++++++++++++++++++++$$$$@@@@@@XXXX%%%%        ",
"                                          ....****%%%%XXXXXXXX@@@@@@@@$$$$$$$$++++++++++++++++++++++++$$$$@@@@@@XXXX%%%%        ",
"                                            ....****$$$$$$++++++++++++++++++++++++++++++$$$$$$$$$$@@@@@@@@XXXXXX%%%%%%          ",
"                                            ....****$$$$$$++++++++++++++++++++++++++++++$$$$$$$$$$@@@@@@@@XXXXXX%%%%%%          "
};
