/* XPM */
static char *frame_008[] = {
/* columns rows colors chars-per-pixel */
"64 64 25 1 ",
"  c #FF000000",
". c #FF202020",
"X c #FF2C2C2C",
"o c #FF383838",
"O c #FF000040",
"+ c #FF00004C",
"@ c #FF000058",
"# c #FF000064",
"$ c #FF000070",
"% c #FF00007C",
"& c #FF484848",
"* c #FF545454",
"= c #FF646464",
"- c #FF7C7C7C",
"; c #FF000088",
": c #FF000098",
"> c #FF0000A4",
", c #FF0000B0",
"< c #FF0000BC",
"1 c #FF0000C8",
"2 c #FF0000E0",
"3 c #FF0000EC",
"4 c #FF0000FC",
"5 c #FF4040FC",
"6 c #FF8C8C8C",
/* pixels */
"o%%%%%%%%%%%%%%%%%%%%%%%%%%%oo%%%%%%%%%%%%%oo%%%%%%%%%%%%o%%%%%o",
".>>>>>>>>>>>>>>>>>>>>>:::;%%..>>>>>>>>:;;;;..>>>>>>>>;;$#.,,,,:.",
" >>>;>%>>:%::%:::%%>;%%%%$#@ .>>::;>>:;;;;@ .><,<,<<<<<:% ,,;:; ",
" >:%<<::%>>:>#::#;%%::%%$##@ .>:>>;::%;%>$@ .>,<<><1,<>:% >>,:@ ",
" >;><<$:%%:>>;%#;$:#%$##@@@@ .>:;;::%;%$@#@ .><,>1<,>:;;$ ;$%%@ ",
" >;%>:;#::%>>>:;;%$##$%#$#@@ .>>;>>%$$$;#@@ .><>131><>:$% :;$#@ ",
" >::%%%:>:%%>>;$;@%###@@@@@@ .>>>;;%$;;;$#@ .>,<><<>>,%%$ :%@@@ ",
" >>::%%%:%#;;%%:%$$$###%%@#O .>>;%;;;%;%#@@ .>,<,>,,,>%$% :#@#@ ",
" >:%:>>;:%:$%;;###;;$##%%%@O .>:;;$;>>%$%@# .>,1,,<>>>:$#       ",
" >;;;>::%#%%%;;$@;;;;%@#%%@O .>;;$%%;;$#@#@ .>,<>,>>;:;#@ :,,,> ",
" :%;>::::#$$%@$@%#%;;%##O@@O .:;%$$;;$%#@#@ .>,<<><>;;%## >,:,; ",
" :;:%%>::%@%@%%@##;#%%@O@OOO .:;%$$$;@$@$@@ .>,<<,>;>:%## :>;:# ",
" :%:%#;;%#%#%#@$@$@@@@@#@OOO .:%;$$##$#@##@ .>,<<>::%;$@@ :>:$@ ",
" ::%%%$#@@#..........................................%%@# ;;%#$ ",
" :%:##$#%#$.66-----------------------------------==*X$#@@ %$#@@ ",
"           .6=&&&&&&&&&&&&&&&&&&&&&&&&&&&&&&&&&&&&&&X#@#@       ",
"><,>,>>>>>,.-&&&&&&&&&&&&&&&&&&&&&&&&&&&&&&&&&&&&&&&X%#@@ $11111",
"<,>:><,>;>>.-&&                                  *&&X%$#@ ;112<1",
"<,::;>>;%::.-&&   oX     oX     oX     oX    oX  *&&X%$@# >1242,",
",>:>>::%%%:.-&&   *o     *o     *o     *o    *o  =&&X#@## >112,1",
">;:,<;%%::%.-&&   =o     =o     =o     =o    =o  =&&X$##@ ,11,>,",
">>;:,;%:%%#.-&&   =o     =o     =o     =o    =o  -&&X$@@@ <11,1>",
",;,,:>:%%:#.-&&   =o     =o     =o     =o    =o  -&&X#@+@ ,1,<,>",
",>,,,:%::%$.-&&   =o     =o     =o     =o    =o  -&&X$@#@ ,1,>:<",
",,:,,;;::%%.-&&   =o     =o     =o     =o    =o  -&&&@#@@ >11,11",
",>;%;;;;%:$.-&&   =o     =o     =o     =o    =o  -&&=###@ >1,1<,",
">:%;>;::;%#.-&&   =o     =o     =o     =o    =o  -&&o#@## >111,>",
",:,::%:::%#.-&&   =o     =o     =o     =o    =o  -&&=##$@ ;111,,",
">;;%%:%::$@.-&&   =o     =o     =o     =o    =o  -&&=@@@# ;1,11>",
">:;%:%$$$#@.-&&   =o     =o     =o     =o    =o  -&&&@@OO ;11<,,",
":;::;$:;$@@.-&&   =o     =o     =o     =o    =o  -&&X@$OO ;11,:>",
":;;%;;::;$@.-&&   =o     =o     =o     =o    =o  -&&X%%@O ;1,1,:",
":;>:$%%::$@.-&&*=-=&**   =o     =o     =o    =o  -&&X#%#@ ;1,1;;",
":>:;;%$$$$#.-&&&&&&&&&   =o     =o     =o    =o  -&&X;#@@ ;11;:;",
"%::;%%%$@@@.-&&&&&&&&&   =o     =o     =o    =o  -&&X;%$@ $1,1::",
"%;;%$###@@@.-&&&&&&&&&   =o     =o     =o    =o  -&&X%$++ $1,::;",
"%;#$%#@$@@@.-&&&&& &&&   =o     =o     =o    =o  -&&X###@ $,,:;;",
"%:%#%#$@@@@.-&& & XX&&   =o     =o     =o    =o  -&&X$OO@ $,:;:;",
"%;:;$%$@@@#.-&&X& XX&&   =o     =o     =o    =o  -&&X@OOO $,:::;",
"%:;%#$%$@@#.-&&&& &X&&   =o     =o     =o    =o  -&&X#@OO $:::%:",
"           .-&&&&X=X&&   =o     =o     =o    =o  -&&X#+@@       ",
"......@@$$;.-&&&&&X&&&   =o     =o     =o    =o  -&&X@@@@ .$$$$ ",
"..:>,<<<<<<.-&&&&&&&&&   =o     =o     =o    =o  -&&X#@$@ .$@%@ ",
"..><<<<<,>,.-&&&&&&&&&   =o     =o     =o    =o  -&&X     .@@@$ ",
"..><,,>,,<<.-&&&&&&&&&   =o     =o     =o    =o  -&&X......     ",
"..<<<,,<<,,.-&&          =o     =o     =o    =o  -&&X<<<<<<,,,> ",
"..<>,>,,,,,.-&&   &o     =o     =o     =o    =o  -&&X>,,,>>,<>; ",
"..<<,:;,,:<.-&&   *o     =o     =o     =o    =o  -&&X>>,>:<<::; ",
"..<<:><,;>,.-&&   =o     =o     =o     =o    =o  -&&X:>,:;%:$;% ",
"..<<<<>;<;,.-&&   =o     =o     =o     =o    =o  -&&*>,>::>%%%$ ",
"..<><:>><,:.-&&   =o     =o     =o     =o    =o  -&&=>::;>;;:#@ ",
"..<,::<2<>;.-&&   =o     =o     =o     =o    =o  -&&o,>:,%$::#@ ",
"..<><>252::.-&&   =o     =o     =o     =o    =o  -&&=:%:%;::%#@ ",
"..<,<><2<>%.-&&   =o     =o     =o     =o    =o  -&&=;>;%;>;$#@ ",
"..<><>,,;;;.-&&   =o     =o     =o     =o    =o  -&&&%;:::;$#@@ ",
"..><>:>%%>;.-&&   =o     =o     =o     =o    =o  -&&X$%;:%#@#$@ ",
"..<><,;;,%%.-&&   =o     =o     =o     =o    =o  -&&X#$%$@OO$#@ ",
"..<><>:;%#;.-&&   =o     =o     =o     =o    =o  -&&X%$#$@OO##@ ",
"..,>;;;>#++.-&&   =o     =o     =o     =o    =o  -&&X%#$@$@@@@@ ",
"..,>$#;#>++.-&&   =o     =o     =o     =o    =o  -&&X%@#@@@@##@ ",
"..>>;;#;@#@.-&&   =o     =o     =o     =o    =o  6*&X$#@#@##### ",
"..>:#######.=&&==-------------------------------66*&X%%########.",
"oo%%%%%%%%%.*&&&&&&&&&&&&&&&&&&&&&&&&&&&&&&&&&&&&**&X%%%%%%%%%%o",
"***********oXXXXXXXXXXXXXXXXXXXXXXXXXXXXXXXXXXXXXXXXX&**********"
};
