/* XPM */
static char *frame_080[] = {
/* columns rows colors chars-per-pixel */
"64 64 28 1 ",
"  c #FF000000",
". c #FF202020",
"X c #FF2C2C2C",
"o c #FF383838",
"O c #FF700000",
"+ c #FF706C00",
"@ c #FF000040",
"# c #FF00004C",
"$ c #FF000058",
"% c #FF000064",
"& c #FF000070",
"* c #FF00007C",
"= c #FF545454",
"- c #FF7C7C7C",
"; c #FFFCF400",
": c #FF000088",
"> c #FF000098",
", c #FF0000A4",
"< c #FF0000B0",
"1 c #FF0000BC",
"2 c #FF0000D4",
"3 c #FF0000FC",
"4 c #FF2024FC",
"5 c #FF4040FC",
"6 c #FF8C8C8C",
"7 c #FF989898",
"8 c #FFB4B4B4",
"9 c #FFD0D0D0",
/* pixels */
"o&&&&&&&&&&&&&&&&&&&&&&&&&&&oo&&&&&&&&&&&&&oo&&&&&&&&&&&&o&&&&&o",
".>>>>>>>>>>>>>>>>>>>>>:::*&& .>>>>>>>>:**** .>>>>>>>>**%$ ,,,,: ",
".>>>*>&>>:&::&:::&&>*&&&&%$# .>>::*>>:****# .><,<,<<<<<:& ,,*:* ",
".>:&*:::&&>:>$::$*&&::&&%$$# .>:>>*::&*&>%# .>,<<><1,<>:& >>,:# ",
".>*>%:%:&&&:**&$*%:$&%$$###$ .>:**::&*&%#$# .><,>1<,>:**% *%&&# ",
".>*&>>>$&&&>:::**&%$&&&%%$#$ .>>*>>&%%%*$## .><>141><>:%& :*%$# ",
".>::,,>>>:>>>::%*#&$&&&&%### .>>>**&%***%$# .>,<><<>>,&&% :&### ",
".>>:>,,>:&$>>:**&%%%$&&%$#$$ .>>*&***&*&$## .>,<,>,,,>&%& :$#$# ",
".>:&:>>*:&:%%***$$&*#%%%$$## .>:**%*>>&%&#$ .>,1,,**>>:%$       ",
".>***>&&&>>%#$#%#*%&%$%%$### .>**%&&**%$#$# .>,<>,***:*$# :,,,> ",
".:&*>**%:>>%%###%$&%$%&&%#$# .:*&%%**%&$#$# .>,<<>****&$$ >,:,* ",
".:*:&&>*$&#&####$$*@@#&&&### .:*&%%%*#%#%## .>,<<,>**:&$$ :>*:$ ",
".:&:&$**&$&$&$#%#%#@@@#%%#$# .:&*%%$$%$#$$# .>,<<>::&*%## :>:%# ",
".::&&&%$##$&$%#OOOOOOOOOOOOOOOOOOOOOOOOOOOOOOOOOO::*:&&#$ **&$% ",
".:&:$$%$&$%##$O+;;;;;;;;;;;;;;;;;;;;;;;;;;;;;;;;+O*>*%$## &%$## ",
".             O;+OOOOOOOOOOOOOOOOOOOOOOOOOOOOOO+;O:**$#$#       ",
"><,>,>>>>>,>>>O;O9O9O99O99OO99OOO9O999O99O9O9O9O;O&:&&$## %11111",
"<,>:><,>*>>&>:O;O9O9O9OO9O9O9O9O9O9O9OO9OO999O9O;O:1:&%$# *112<1",
"<,::*>>*&::&&:O;O9O9O99O99OO99OO9O9O9OO99O999O9O;O::&&%#$ >1232,",
",>:,,::&&&:&&&O;O9O9O9OO9O9O9O9O9O9O9OO9OO9O9OOO;O:*&$#$$ >112,1",
">*:,<,&&::&:#&O;OO9OO99O9O9O99OOO9OO9OO99O9O9O9O;O%*&%$$# ,11,>,",
">>*:,,&:&&$$%&O;OOOOOOOOOOOOOOOOOOOOOOOOOOOOOOOO;O%%&%### <11,1>",
",*&*:>:&&:$%&#O;OOOOOOOOOOOOOOOOOOOOOOOOOOOOOOOO;O%%%$### ,1,<,>",
",>*:&:&::&%&$&O;OOOOOOOOOOOOOOOOOOOOOOOOOOOOOOOO;O&%%%#$# ,1,>:<",
",,:*,::::&&%##O;OOOOO---O-O-----O--O------O--OOO;O&%%#$## >11,11",
",>*&*,,$&:**%#O;OOOOOOOOOOOOOOOOOOOOOOOOOOOOOOOO;O&&%$$$# >1,1<,",
">:&*>,,>:&**%#O;OOO------O---O--O-----O------OOO;O:*%$#$$ >111,>",
",:,::>,>$&%%%#O;OOOOOOOOOOOOOOOOOOOOOOOOOOOOOOOO;O:&%$$%# *111,,",
">**>>:>>$%#$##O;OOO---O-------O---O-O----O---OOO;O:*&###$ *1,11>",
">:*>>>:&%$#$@@O;OOOOOOOOOOOOOOOOOOOOOOOOOOOOOOOO;O&&&#### *11<,,",
":*:*>>&$$###@@O;OOOOOOOOOOOOOOOOOOOOOOOOOOOOOOOO;O*%%#%## *11,:>",
":**&**&$$%&&$#O;OOOOO---O--------O-O--O---O--OOO;O*%$&&## *1,1,:",
":*>:%&&%$%&&$#O;OOOOOOOOOOOOOOOOOOOOOOOOOOOOOOOO;O>:&$&$# *1,1**",
":>:**&$$#$%%$#O;OOO--O-----O----O--------O---OOO;O:::*$## *11*:*",
"&::*&&&&#$@##$O;OOOOOOOOOOOOOOOOOOOOOOOOOOOOOOOO;O&::*&%# %1,1::",
"&**&%&&&#@@@##O;OOO----O----------O-O----O---OOO;O&%*&%$# %1,::*",
"&*$%&$&&#@@@@$O;OOOOOOOOOOOOOOOOOOOOOOOOOOOOOOOO;O:%%$$$# %,,:**",
"&:&$&$%#$@#@@#O;OOO---O--O-----O-O--O------O-OOO;O%##%### %,:*:*",
"&*:*%&%###@@@#O;OOOOOOOOOOOOOOOOOOOOOOOOOOOOOOOO;O%$##%## %,:::*",
"&:*&$%&%##$##$O;OOO----O-O----O---O-----O----OOO;O&%$$### %:::&:",
"              O;OOOOOOOOOOOOOOOOOOOOOOOOOOOOOOOO;O&##$### .     ",
"......##%%***&O;OOOOOOOOOOOOOOOOOOOOOOOOOOOOOOOO;O%%$#### .%%%%.",
"..:>,<<<<<<<<<O;OOOOOOOOOOOOOOOOOOO9696897989OOO;O###$#%# .%#&#.",
"..><<<<<,>,<>>O;+OOOOOOOOOOOOOOOOOOOOOOOOOOOOOO+;O        .###%.",
"..><,,>,,<<<:>O+;;;;;;;;;;;;;;;;;;;;;;;;;;;;;;;;+O..............",
"..<<<,,<<::><<<OOOOOOOOOOOOOOOOOOOOOOOOOOOOOOOOOO<<<<<<<<<<,,,>.",
"..<>,>,,,:::<>**>&:::&%## .$,,>* ..         ..<<<<,,>>,,,>>,<>* ",
"..<<,:*,,>::><<>>>&::&##$ .$>*%# .*:>,>>>:**..<,,<,>11>,>:<<::* ",
"..<<:><,*>,,,&>>3>:$%$#$# .%:%## .:>,>:,:,%% .<<,,><<1&&:*&:%*& ",
"..<<<<>*<*,&&>*>>:&::&$$$ .%*$#$ .>,,>*&*%#$ .<,<,>,,>&&&:>&&&% ",
"..<><:>><,:&&&>>%&:&&$#&# ..     .:>**&%#$## .<<,22>:>:&&>**:$# ",
"..<,::<2<>*>&&>>**&:%%$## ........           .<,>221<,>:,&%::$# ",
"..<><>252::>:*&****&@@#$# .:::>>>>>>>:::**%%..<,>:11>:&:&*::&$# ",
"..<,<,<2<>&>>$$$&**%@@@## .:>:*>*:>>*:>&&%%# .<>>,:*:*>*&*>*%$# ",
"..<><,,,***&%$$$$%%%#@@## .::***>>>,:***$%## .<<>::**&*:::*%$## ",
"..><,,>&&:>::&$$$$%$#&### .>*>>,:>:>>>:*&%#$ .<,>:&&&%&*:&$#$%# ",
"..<><,**,&>>:%&#%&&#$###$ .>>*>:*&*:>>:*&#$$ .<,<,>*%##&%##@@$# ",
"..<><>:*&$*>>:%$#&&&#$#$# .:*>:*>&*:::*&%$## .<<>>&&:##$%##@@@# ",
"..,>***>$*$*::%%$&&&##%## .:>*&&&*%&&*&%$### .,:>:<:&&$%#%##@@# ",
"..,>%$*$>&&:#$##$#&&##$$# .*:>&%&$&%&%%%#$$# .,<>&:%%&#$###$$$# ",
"..>>**$*#$#$%$%$%######## .*:*&%$%%$#%##$$## .>&:&*:&%$#$#$#### ",
"..>:&*:%%%%%%$$$$$$$$$$$$ .*&%%%%%%$$$$$$%$%..>:&*&%%$$$$$$$$$$.",
"oo&&&&&&&&&&&&&&&&&&&&&&&oo&&&&&&&&&&&&&&&&&oo&&&&&&&&&&&&&&&&&X",
"================================================================"
};
