/* XPM */
static char *frame_087[] = {
/* columns rows colors chars-per-pixel */
"64 64 23 1 ",
"  c #FF1C1C1C",
". c #FF28200C",
"X c #FF302410",
"o c #FF382C14",
"O c #FF202020",
"+ c #FF2C2C2C",
"@ c #FF343434",
"# c #FF383838",
"$ c #FF403018",
"% c #FF483818",
"& c #FF543C1C",
"* c #FF5C4020",
"= c #FF6C4824",
"- c #FF744C28",
"; c #FF404040",
": c #FF80502C",
"> c #FF885830",
", c #FF905C34",
"< c #FF9C6038",
"1 c #FFA0643C",
"2 c #FFA86840",
"3 c #FFB47044",
"4 c #FFBC7848",
/* pixels */
"@@33333333:&+@333333333333333-* @<<<<<>>>>>---%X @2333332221:&O@",
"@@34444443-&+@343332222222221:*+@,221,,,>>>>:-*$+#2333332221:&O@",
"@@34333331:&+#34322111111111,-*+@=11,>::-====*&$+#122111111,-&O@",
"@@3422222,-&+#34211,,,<<<<<<,-*+@=-:==****&&&&$o@#,1,,,,,,,>=&O@",
"@@3321111,=%+#34211<,,,<<<<<,:*+@@@@@+++++++++++@#>,,>>>>>>:=%O@",
"@@221<<<<>=$+#332<<<<<,,,,<<,:*+@@;;;;;;;###@@@@@#:,>::::::-*$O@",
"@@12,,,,,:=$+@342<<<<<<,,,,<,-*+@=,13333321<,>-=&#->:::::::=*$O@",
"@@11,,>,>:*$+#332<<<<11<,,,,,-*+;,233333334321,-*#=::------=&$O@",
"@@11,>>>:-*$+#332<<<<111<,,,>-*+;133333334432<,-*@*-====--==&$O@",
"@@11>::::=&$+#332<<<<11<,,,,>=*+;333333344432<,-*+$&***====*&$O@",
"@@>,:::::=&$+@231<<<111<,,,,>=&+;333333334432<,-*OOO$$&&****&$O@",
"@@>,:----*%o+#2221<111<,,,,,>-*+#333333344432<,-*OOOOOO$$$&&%$O@",
"@@:>-====&$o+#122111,<<,,,,>:-*+#343333344322<,-*OO++OOOOO$$$$O@",
"@@-:===**%oO+#>2111,,,,,,,>>:=*+@233333333221,:=&+&===*&$+OOoXO@",
"@@=-=**&&$oO+#>1111,,,,>>>::==&+@-11122111,,,:=&$+-,,:-=*&$OOO+@",
"@@=**&&$$$O++@:,,,,>::::---==*&++@-:::::-----=&$+=,,,::-==&$O+@@",
"@@@++++OOO++@@=-====*********&++@@@*=********&$++:,,:---==&$O+@@",
"#######@@++@@@@++++++++++++++++@@@@@++++++++++++*,,>-====*%oO+@@",
"3333321<,:=*&######@@@@@@@#########@@@@@++==*+++=,>-=***&%$Oo=>2",
"3333333332222333221>=@@333333321<,,>::-=++=-*+++===&%%%%%$oO%:<3",
"3333333333333333332,=+@->:------------=&++&*%+++$$$ooooooo +*>33",
"3333333333333333332,=+++@@+++++++++++++++@++++@++OOOOOOOOO+o=<33",
"3333333333333322332,=++@@@@++++@@@@@@@@@@@@@@@@@@@@@@@+++++%:333",
"3333333332222222222,=+@&=-===&+@&*=======**********&&&&$$++*>333",
"3333333222222222222,=+@======&+@&*======*********&&&&&&%$O@=<333",
"3333332222222222111,=+@==****&O@$&&&&&&&&&&&&&&&&%%%%%%$oO+:3333",
"3322222222222211111,=+@==****%O@O$$$$$$$$$$$$$$$$$$oooooO+@>2333",
"32211111111111,,,,,,=+@==*&&&%O++OOOOOOOOOOOOOOOOOOOOOOO++@<2222",
",,,>>>>>>::::::::>>:=+@==&&&&&O+23333322<>&O$****&&&&&$O++@,1,,,",
"-========****=======&+@==&&&*&O@33111111,>=O&====****&%$O+@=-===",
"+++++++++++++++++++++@@==&&&*&O@33<,,,,,,>=O$&&&&&%%$$$$O+@+OOOO",
"@@@@@@@@@@@@@#####@@@@@==&&&*&O@33111,,,,>=OOOOOOOOOOOOOO@@+++++",
"@@:12322222222222222*@@==*&&*&O@331111<,,>=O+@@@@@@@@@@@@@@@++++",
"@:233334444444444433-@@-=**&&%O@3311<<<<,>=O@,322222111,>>>=&$++",
"@1333344444443333333:+@-=****&O#3321<<<<,>=O@333322211,,,,,:*$++",
"@2333443333333333332:+@-=****&O#3321<<<<,>=O@23221,,,>>>>>:-*$O+",
"@3333333333333333331:+@-=****&O#3321<<<<,>=O@121,>>>:::::::-*$O+",
"@3333333333333333321-+@-=====&O#3321<<<<,>=O@11,>:::::::::::=$O+",
"@333333333322222332,-+@--====&O#3311<<<1,>=O@11>:::::::>::::=&O+",
"@233333222222223333,-+@--===-*O#33111<11,>=O@11,::>>>>>>>>>:=&O+",
"@233333222222233332,-+@::==-:*O#33111111,,=O@>1,>>>>>>>>>>>>-&O+",
"@233332222232233332,-+@::--::*O#332111111,-O@><,>>>>>,,,,,,>-*O+",
"@233222222222222222,=+@-:--:-*O#3311111121-O@>1,,>>>,,,,,,,>:*O+",
"@12211111111111221,>=+@======&+#3311111111-O@>,,,>>>>>>>>,,>-*O+",
"@-,,,,,,,,,,,,,,1,>:=+@@+OOOO++#331122221,-+@=:::::::::::::-=&O+",
"@+==================&+@#;;;;####331223321,=++&*=************&$O+",
"@@++++++++++++++++++++@#<333<*##332233321>=+++++OOOOOOOOOOOOOOO+",
"###;;;;;##@@;;;;;;##@@@#23333=@#33333322,:*@@@#@@@@@@@@@@@@@@@@@",
"22222222:*@*2333333<-=+@3332,=@#3333321,:=&+@#<23333333333333333",
"22333332,:@=3333333<:&+#331<>*+@333321,:=&+@#><23333332222222222",
">,,22221,-@:3321111,=%+#12,,:*+@3322,,:=&+@#:,1211111,,,,,,,,,,,",
"::>,,,,>:*@>331,,,,:=$+@<2,>:*+@331,>-=&+@#:><1<,,,>>>::::::>>::",
"=--:::::=*@,21,>>>:=*$+@->>:-&O@2,>:=*&++@-:,,,>>:::------------",
"&&*******&@12,:--==&%++++*===%O@*==*&%+@@=========***&&&&&&&&&&&",
"$$$$$$$$$+@,,:===*&$+++++O%&&$O+++++++++@&%$$$$$$$$$$$$$$$$$$$$$",
"@O++++++++@--=&&&$$+@-,:=+O$$+@@@@@@@@@@+++OOOOOOOOOOOOOOOOOOOO+",
"@@@#@##@@#@@@@++++++@22,>=+++@,13321,>::=*&%$@@@@@@@@@@@@@@@++++",
"@@,333333333333333,@#331,:&+@,2333333333333333333333333333223,*+",
"@#33333333332222,>=+@32,>:*O+23333333333222233222222222222221>&O",
"@@3322211,,,,,,,:*$+@22,:-*O+332111,,,,,,,,,,,,,,,,,,,,,,,,,:=&O",
"@@121,,,,>>>>:::=&o+@22>-=&O+11,,,,>>>>>>>>>>>>>>>>>>>>>>:::-*%O",
"@@>,,>::::::--==*%o+@21:=*&O+:,,>:::::::::::::------------===&$O",
"@@-:=======***&&&$o+@>>=*&$O+=,>:-=======*===*************&&&$oO",
"@@@$$$$$$ooooooooOO+@;&$$o+O+%&*&&%$$$$$$$$ooooooooooooooooooX.O"
};
