/* XPM */
static char *frame_030[] = {
/* columns rows colors chars-per-pixel */
"64 64 29 1 ",
"  c #FF047C00",
". c #FF004040",
"X c #FF005858",
"o c #FF006060",
"O c #FF006C6C",
"+ c #FF007070",
"@ c #FF007474",
"# c #FF007878",
"$ c #FF048800",
"% c #FF049800",
"& c #FF04A400",
"* c #FF00A800",
"= c #FF04BC00",
"- c #FF007CCC",
"; c #FF008484",
": c #FF009C9C",
"> c #FF00B4B4",
", c #FF009CFC",
"< c #FF20A8FC",
"1 c #FF00CCCC",
"2 c #FF00E4E4",
"3 c #FF20FCFC",
"4 c #FF48C0C0",
"5 c #FF40FCFC",
"6 c #FF54FCFC",
"7 c #FF5CFCFC",
"8 c #FF7CFCF8",
"9 c #FF9CFCFC",
"0 c #FFB8FCFC",
/* pixels */
"0000000000000000000000000000000000000000000000000000000000000000",
"0000000000000000000000000000000000000000000000000000000000000000",
"0000000000000000000000000000000000000000000000000000000000000000",
"0000000000000000000000000000000000000000000000000000000000000000",
"0000000000000000000000000000000000000000000009999000000000000000",
"0000099999999000000000000000000000000000000099999999990000000998",
"0000999888999999009900000000000000000009999009888899999000009998",
"9999999888888899999999999990000999999999999999888999999990009098",
"9999998888888998888999999999999999999998888999888888999999998898",
"8998889999999999888889998899999999999999999999999989999999988888",
"8888899999999999888888888888888889888889999999999999999999998888",
"8888888899998899999988888888888888888888888899999999999899888888",
"8888888888888888888888888888888888888888888888888888888888888888",
"8888888888888888888888888888889999888888888888888888888888888888",
"8888888888888888888888889999999889988888888888888888888888888888",
"8888888888888888888888889998888888888888888899998889988888888888",
"8888888888888889999998888888888888888888888898889999888888888888",
"8888888888888888888888888888888888888888888888899888888888888886",
"8888888888888888888888888888888888888888888888888888888888888886",
"8888888888888888888888888888888888888888888888888888888888888886",
"8888888888888888888888888888888888888888888888888888888888888886",
"8888888888888888888888888888888888888888888888888888888888888886",
"7777777778888877777888888888787787788888888888888888877777777877",
"7777778888877777777777777778877778878888888887777788888888888877",
"7777777777777777777777777777777777777777777777777777777777777777",
"5555555555555555555555555555555555555555555555555555555555555555",
"5555555555555555555555555555555555555555555555555555555555555555",
"5555555555555555555555555555555555555555555555555555555555555555",
"5555555555225555222222555555525555555555555555555555555555555555",
"3322332222222222222222232233333333333232232222223223333333333333",
"3333333333333333333333333333333333333333333333333333333333333333",
"3323322333322222222222322223222222222222222233322222222233333333",
"2222222222222222222222222222222222222222222222222222222222222222",
"2222112222222221122112122221111111212221212222211111112222222222",
"1111111111111111111111111111111111111111111111111111111111111111",
"114444111444444441111111111111111444444111144144>>44144414411111",
">,,,,,,,,,,,,,,>,>>>>>>,,,,,>>><>><<<<<>>>>>>,,,>>>>>>>>><<<>>>>",
"--;;;;------;;;;;;;:--------------------------------------------",
"XXX;XX+XX-X+X.XX..XX+X-X+XXX-X+X..X+XX.X+-+XXXX;+XXXX+X;-;XX;-XX",
"oOOOOooooOOoOoooooOOoooOOOooOoooOOoooOooOOoooOOoOOOoOOoooOOOOooo",
"OOOOOOOOOOOOOOOOOOOOOOOOOOOOOOOOOOOOOOOOOOOOOOOOOOOOOOOOOOOOOOOO",
" @@@@# $ @ @#@@@@@@@#   #@@@@# # #    @@ $ @@@@@@#$  $ #@@#$ @@ ",
"   $    $     $  $     $         $                        $     ",
"$     $     $  $  $   $   $ $ $ $        $ $ $      $  $  $   $ ",
"$$$      $          $  $  $  $    $        $  $ $ $   $  $  $  $",
"$  $  $    $ $  $ $  $ $ $   $  $    $$   $ $  $   $ $ $   $ $$ ",
"$$$$    $     $  $ $$      $   $ $  $   $ $   $ $ $ $   $$  $ $$",
"$$ $$ $$ $$ $$  $ $$  $ $ $$$ $  $ $ $$    $$  $ $$   $$  $$ $$ ",
"  $ $$$  $    $  $   $ $ $  $$$ $   $  $ $$  $  $  $ $$$ $ $ $ $",
"$$$$$ $ $  $ $ $%$  $$ $  $$   $$  $  $$ $$$$  $$$  $  %$  $$$ $",
"$   $$ $  %$$$    %  $$$% $$ %$ $$$$$$  $$%%  $$$$ $$$$$  $ $$ %",
"$  $ $$  $ $$$ $ $$ $$%$$$$  $$$ $ $ %$   $ $     $$  $$  $ $ $$",
"$$$%  $%$$$ %$$  $$$$$  $$$&   $$$$%$ %$ $$$$$ $$$   $$%$ %  $ $",
"$$$$$$%$$$% $$%  $%&$$$$%$$$$%$$&$$$$$$$$$%%$$$%$$$$ %$$$$$ $  %",
"$ $%$$%%$$% $%$  $  $&$&%%$&%%%%%$%$%$%$$%$%$%$$$$%$%%&$$%%%$%$$",
"%%$$$$ $%$%%$&%%%$ %&%$$$%%%$$$%$&$%&$&%%$%$%%$$%%%%$%$&%%$%%$%%",
"%%$$%% %$%%%%%%$$%%$%$$%$%&%$%&&%$%%%%&%  %%%%$&%$%%%%%%&%%&%%%%",
"%%%%$%%$%$$%$%$$%%&$%$%%%$$$%%&%&%%%%%%=%$%&%%&%%%$%%$%%%&%&%$%%",
"%%%%%&%$%%%%%&%%&%%%$%&$&%%$%%%&%=&&%&%%%&%=%%%%%&%%%%%%=%$%&&%%",
"&&&&&%=&&&&=%=&%%&&&&==&%%%%%%%=&&%&&&&&=%%&&%&%&&%%%&%%%%=&=&&*",
"&&&=&%%%=%%&=%=&&=&&&%%&&&%%%%&%&%&&&&&=&&&&&&=&%%=%%&&=%&=&*&&*",
"=&=&&&%&&&%&&&&&&&=&=&&=%&&&&&%&=&=&&==&&====&&&=&==%&==&=&&&=&*",
"===&&=&&&&&&===========&&==&&=&===&=========&&=&&====&==&=======",
"======&=======================================&================="
};
