/* XPM */
static char *frame_100[] = {
/* columns rows colors chars-per-pixel */
"64 64 24 1 ",
"  c #FF000000",
". c #FF383838",
"X c #FF004040",
"o c #FF005858",
"O c #FF006C6C",
"+ c #FF007070",
"@ c #FF007474",
"# c #FF007878",
"$ c #FF007C7C",
"% c #FF484848",
"& c #FF545454",
"* c #FF008484",
"= c #FF008C8C",
"- c #FF009898",
"; c #FF009C9C",
": c #FF00A4A4",
"> c #FF20B0B0",
", c #FF20B4B4",
"< c #FF00CCCC",
"1 c #FF48C0C0",
"2 c #FF74C8C8",
"3 c #FF9CDCDC",
"4 c #FFB8E8E8",
"5 c #FFD8F4F4",
/* pixels */
"................................................................",
".+##############################+##########@@@@@@+++OOO++@@####.",
".+=-*2=====================-*2*#+$+o,**$$$$$##$##@#@@@###*++,*#.",
".+*$X*>>>>>>>,,,,,22,22211-$X*>#+$+Xo**$$$$#$@#$@@@@@##$$@+X+-#.",
".+*#$#>>>>,,,,,,1222222111-#$#,$+$+++*$*$$$$@#$@#@@+@@$#$@+++-$.",
".+*--:>>,,,,,,122221221111---:,$+####$*$$$$##@##@@+@@##$$@@$$-$.",
".+*>>,,,*++ooooXXXXXXXXXX,,,,,,$+#**$*$+ooXXXXXXXXXXXXXX***=-:$.",
".+*,,,,,3;;***++++oo+oooX,,>,,>*+#*$*$$++ooooooooooooooX**==-:*.",
".+*,,,,,33122221111,11,oX,>,>>>*+#$*$$$#+#@@+@@+@+@@$#oX**=---*.",
".+*,,,11542232111,,,,,,oX>,>>>:*+#*$$$$#+@@+@++@+@@##$oX*==-::*.",
".+*,111154332111,,,>,,>oX>>>>::*+#$$$$#$@@@@+@@+@@##$$oX*==-::*.",
".+*111225422111,,,>,,>,oX>>>:::*+#$$$#$$#@@++@++@##$$$oX==---:*.",
".+*1223354111,,,,>,>>,>oX>::::-*+#$$#$#$#@+++@++@@##$$oX==--::*.",
".+*243325411,,,,>,>>,>>oX:::---$+#$#$##$#+++@@+@@##$$$oX=--:-:=.",
".+*43322541,,,,>,>>>>>>oX:----=$+#$$##@$#@+@@#@@##$$$*oX=---::=.",
".+*3222154,,,,>>>>>>>>>oX-:--==$+#$##@@$#+@@##@##$#$$*oX=--:::=.",
".+*2211154,>,>>>>>::>::oX:-====$+###@@+$#+@@@#@@##$$**oX--:-::=.",
".+*2111,53>,>>>>>::-::-oX-=-===$+#$##@@$#+@@##@##$$$**oX---::>=.",
".+*11,,>53,>>>>>::-::-:oX=-===*$+$##@@+$$@###$##$$$***oX--:::>=.",
".+*1,,>,53>>>>:::-:--:-oX-===**#O##@@+@$$@##$##$#$$**=oX-::::>=.",
".+*,,,,>53>>>:::-:--:--oX===***#O#@@+@+$$#@##$##$$**=*oX:-::>>=.",
".+*,>,,>53>>:::-:------oX==****#O@@+@++$$@##$##$#$***=oX-:::>>=.",
".+*>,,>>53>:::-:---=--=oX=*****#O@+@+++**##$#$$#$$**==oX::::>,=.",
".+*,>>>>53:::-:---==-==oX*=****#O+@+++@**#$#$$#$$**=*-oX-:::>,=.",
".+*>>>>>53::-----=-==-=oX=****$@O@+++@@=*##$$$$$$*=*==oX:::>,>=.",
".+*>>>>:53:-----=-==-==oX****$$@O+@+++@=*#$#$*#$***==-oX:::>,1=.",
".+*>>:::53-:---=-======oX***$$$@OO+++@#=*$#$$*$$**==-=+X:::>,1=.",
".+*>::::53:---=-=======oX**$$$$@OO++@@#=*#$$**$**=*==-+X::>>,1=.",
".+*:::::53---=-====*==*oX*$*$$$@OO+@@#@-*$$$**$***==--+X::>,11=.",
".+*::::-53--=-====**=**oX$*$$$$@OO@@@@#-*#$******==--:+X::>,11=.",
".+*-+4-:53-=-====******oX*$@o:#+OOOo=##-=$$**=**==-=--+X:>-,51=.",
".+*$X+:-53=--===*******oX$@OXo#+OOOXo#$-=$**=**=*==--:+X:-$+,1=.",
".+*#$#--53--===*=******oX$@OOO#+O+OO+##:=$***=**==--:-+X:-#$=2=.",
".+*--:--53-===*=*******oX$@@@@#+O++++#$:=***==*==-=--:+X:---12=.",
".+*:---=53===*=****$**$oX$$$##@+O@###$$:-**=======--:-+X>>,122=.",
".+*---=-53==*=****$$*$$oX$$##@@+O@##$#$:-*=*=-*=---:-:+X>,1122=.",
".+*--=-=53=*=****$$$$$$oX$##@#@OO@@##$*>-**==-==-=--::+X>,12<2=.",
".+*-=-==53*=****$*$$*$$oX####@@OO@##$#$>:*=======--:-:+X>,1222=.",
".+*=-=-=33=****$*$$$$$$oX###@@+OO##$$$$>:====-==--:-::+X,,1221=.",
".+*-=-==32****$*$$$$$$$oX##@@+@OO#$#$$$,:*==--=----:::+X,11221=.",
".+*=-===32***$*$$$$#$$#oX#@@@@+OO##$$$*,:==-=--=--:-::+X,11221=.",
".+*-====32****$$$$#$$#$oX@@@@+@OO#$$$$*,:===--=--:-:-:+X,12221=.",
".+*====*12***$$$$#$##$#oX#@@+@+OO#$$$*$,:==-------:-::+X112221=.",
".+*===*=11**$$$$#$##$##oX@@+@++OO#$$$$*1:=-=--=--:-::>*X112221=.",
".+*==*=*11*$$$$$$######oX@+@+++OO#$$$*$2>==--:--:-:::>*X112221=.",
".+*=*=**,,$*$$$$#######oX+@++++O+#$$*$*2>=-------:-::>*X122221=.",
".+**=***,,*$$$$####@##@oX@+++++O+#$*$**2,----:--:-:::>*X122211=.",
".+*=****,>$$$$####@@#@@oX+++++@O+#$$*$*2,=--:--:-:::>>*X122211=.",
".+******>>$$$#$##@#@@#@oX@+++@+++#$*$*=31----:--:-::>>*X12221,=.",
".+******>:$$#$##@#@@#@@oX+++++@++#*$**=31---:--:-:::>,*X22221,=.",
".+*****$>:$#$####@@+@@+oX++++@@++#$*$==31--:-::-:::>>,*X22221,=.",
".+****$*::$$####@@@@@@@oX+++@@@++#*$*==31-:-:--:-::>>,;o22221,=.",
".+***$*$:-$####@@@@+@@+oX++@+@@++$$**==52--:-::-:::>>,;o22221,=.",
".+**$*$$--####@@@@++@++oX+++@@#++$**==-52-:-::-:::>>,1;o22211,=.",
".+*$*$$$--$##@#@@+@++@+oX++@@@#++$**==-52:-:::::::>>,1;*22211,=.",
".+**$$$$-=##@#@@+@++@++oX+@+@##++$*==--53-:-::-:::>>,1;*22211,=.",
".+*$$$$#==#@#@@+@++++++oo@+@@#@@+$*==--53:-:::::::>,12:>2221,,=.",
".+*$$$#$====**$$$######@o+@@#@#@+$===--533333433444444,22221,,=.",
".+*Oo-$$==***$$$########O@@Oo-#@+$-+,--5555555555555555522,+4,=.",
".+#OXo$###@@@@+++++++++@@@+OXo$@+$$X+---:::::::::>>,112222=X+,=.",
".+@OOO###@#@@+@++++++++@+@+OOO$@+$#$#--::::::>::>>,1122221=$#,=.",
".+@@@@##@#@@+@+++++@++@+@@++++$@+$--:--::::::>::>,,112222,--:,=.",
"%+++++++OOOOOOOOOOOOOOO++++++++#++++++++++++++++++++++++++++++#%",
"&&&&&&&&&&&&&&&&&&&&&&&&&&&&&&&%%&&&&&&&&&&&&&&&&&&&&&&&&&&&&&&&"
};
