/* XPM */
static char *frame_096[] = {
/* columns rows colors chars-per-pixel */
"64 64 70 1 ",
"  c #FF28200C",
". c #FF302410",
"X c #FF382C14",
"o c #FF2C2C2C",
"O c #FF383838",
"+ c #FF400000",
"@ c #FF4C0000",
"# c #FF580000",
"$ c #FF640000",
"% c #FF700000",
"& c #FF7C0000",
"* c #FF403018",
"= c #FF483818",
"- c #FF543C1C",
"; c #FF5C4020",
": c #FF6C4824",
"> c #FF744C28",
", c #FF404040",
"< c #FF484848",
"1 c #FF545454",
"2 c #FF5C5C5C",
"3 c #FF646464",
"4 c #FF707070",
"5 c #FF7C7C7C",
"6 c #FF880000",
"7 c #FF980000",
"8 c #FFA40000",
"9 c #FFA80000",
"0 c #FFB00000",
"q c #FFBC0000",
"w c #FFC80000",
"e c #FFD40000",
"r c #FFE00000",
"t c #FFEC0000",
"y c #FFFC0000",
"u c #FFB45400",
"i c #FF80502C",
"p c #FF885830",
"a c #FF905C34",
"s c #FF9C6038",
"d c #FFA0643C",
"f c #FFA86840",
"g c #FFB47044",
"h c #FFBC7848",
"j c #FFFC4040",
"k c #FFC87C4C",
"l c #FFD08050",
"z c #FFDC8854",
"x c #FFE88C58",
"c c #FFF0945C",
"v c #FFFC9C60",
"b c #FFFCA470",
"n c #FF8C8C8C",
"m c #FF989898",
"M c #FFA8A8A8",
"N c #FFB4B4B4",
"B c #FFFC9C9C",
"V c #FFFCB080",
"C c #FFFCB890",
"Z c #FFFCBC9C",
"A c #FFFCB8B8",
"S c #FFFCC4A4",
"D c #FFFCCCB0",
"F c #FFFCD4BC",
"G c #FFC0C0C0",
"H c #FFD0D0D0",
"J c #FFFCD8C4",
"K c #FFFCE0D0",
"L c #FFFCE8DC",
"P c #FFECECEC",
/* pixels */
"<1<mMNGHHHHHHHHHHHHHHHHHHHHHGNMm<1<mMNGHHHHHHHHHHHHHHHHHHHHHGNMm",
"<1<5GGGGGGGGGGGGNNNNGNGNGNGNGNGn<1<5GGGGGGGGGGGGNNNNGNGNGNGNGNGn",
"<1<5GGN###############**=------=*.@#########################NGNn",
"<1<5NNG############@#*=-;;;;;----=X..@@@####################5MNn",
"<1<5NGN##########@#--;;>pdddap>>>:-*X..@@###################5NMn",
"<1<5NGN###########;:iiahcbbzzhhhhha:***..###################5NMn",
"<1<5NNG$$$$$$##%#>aahcCSJJJPLLKLLLVVhd;**..#$$#$#$#$#$#$#$##5MMn",
"<1<5NNN$$$%$$$%&:dzZDFKKKKKKLLLLKKJDZCzdi-X @#$$$$$$$$$$$$$#5MNn",
"<1<5NNM%$%$%$%$&dzVDFJJKKKKKLKKKKKFSZCCbld- X #%$%$%$%$%$%$$5MMn",
"<1<5MmN%%%%%%&&fzZDFFFFJKKKKKKJJDDDFDSZCblf: . @#$%%%%%%%%%$5mMn",
"<1<5Mnm&%&%&&6scCDDFFFFFJKKKKJFDDFFFFDSCbzhs:   @#$&%&%&%&%%4Mmn",
"<1<5nnn&&&&&66lVZDDDFFFFFKDKFFDZCCZSDFFFVbzhdi=  +#%&&&%&&&%3Mmn",
"<1<5mnm6&6&66sbSZDDJJJJJDKSKDZVchhzCZFKKZbkffsi-X @%&&&&&6&&4nnn",
"<1<3333666677lZZSDDJJJJJSJVVbha>:;>fsfglZzhsssf:=X $&&&&6&6&<333",
"<<Ooooo76777sZZSSDDDDCbDDJZca:=**::ssp>:psfp>pdi:* @$&&666&6oooO",
"<<<<<<<67777lZSSSDSlgdhCJLCh;X**;aklgp:;-==;;:ai:=. @%666666O<<<",
"11111117787sbZSDDzs>::acLLZh-*=-ip>:;**==--=-;>>>:X  #&76767,111",
"HHHHHHH7880lVSDvzs:---=hLLZl-=-;;;iX*=XX**=-=;::>;X   &67777nHHH",
"NNNGNGN878ucZZDCbxp:>:-hLLZl=*X*pvgp>:-==**=-=:::-X   %67878nNNN",
"NNNNGNG780gbZZDCbkdp;;=hLLZh=X:gbZZZZvdi>:;---::;=XX  #688875NNN",
"NNNGNGN88plCZZCxp--i::>cLLChi>fVDDZvxlhhhfsappi:;=XX   &78785NNN",
"GNMNNNN80izCZZx:>*;lalVZFDbkdglcVDZJFFFFFFVclsi:-=X    %8888nNGG",
"MGMMNMN0picCZxp-:gcCZZSDDDcfgVbghCFJJFDDZVbvzgp:-=X    #88885GMM",
"NNGNNNG8iivCVd>dbVCCFFDSChp:ipaiabZZZZZVVVbclfp:==X     68885GNN",
"GNMNNNN0:ibZZfhCVCDFFDSVi:-XX****pZSZZVbvcxlgsi;==X     &080nNGG",
"MGMMNMN0;ibZVzbCDDDFSVgi-***X  X*X;ZZVbvxzkhdi:;==X     $8085GMM",
"MMMMMNM0;ibSCZDDJJFZcd:X  XX      .abbvczlgfp:;-=*X     .0805MMM",
"mMNMNmM0;ibSSSDJJJDbf;*X          ..dbcxlgga:;-=**X.    .7005Mmm",
"MmmMmMMq;ibSDDFJJFCg:XXX X        X.*glzkgs>;-=****.    .6004mMM",
"mnmnmnm0:ibSDDFJFDci-g  X XXX      ..*fhfsp:;-=**XXXX   .6003Mmm",
"mmnmnmnqiicZDDFJFCh:=: X**=*XXXX   X..;dfdp:;-=**XXXXX=**&0q5mmm",
"3333333qailCDSFFFCf-==**=*X pX     XX.Xphgsi;-=**XXX*=*XX*&0<333",
"oooooooqwigVDDFFDV>X:*XXXp-  X X   XXXX:hzgp:-=**XXX=*X.. Xqoooo",
"<<<<<<<qqifVDDDDDc;X*X=-*  XXX    X*XXX;dzka:-=**XXXXXX*X XqO<<<",
"1111111wqisbSDDDSz:Xi=-==-= *=X    X*XX;azls:-=**XXXXXX** .w,111",
"<1<mMNGqwaibZSDDSc;Xfpbg* O4n2OoO   XX*=akzd:-=**XXXX* **..qnNMm",
"<1<5GGGwqsibZDDDSbf*Vcca ,XX        XX*;akzd:-**XXXXX= **..wnNGn",
"<1<5GGNwwwicCDDDDVs-ZDb;             X*-pgls:-**XXXXX-X*X..w5GNn",
"<1<5NNGwwwicCDDDDVhdDJc              *==pfgp;=**XXXXX- XX %w5MNn",
"<1<5NGNwwhxbCDDFFDclDJz    +++++++  *;-;agd>;=**XXXXX=**X &w5NMn",
"<1<5NNGewxalCDDFFDZZJJh  ++@+@%7%@+ -:;;gzhi;=*XXXXX*==*X.7w5MMn",
"<1<5NNNwelifVDDFFDVSFJh  +%%#@@#@++Xi>:pbbca;=XXXXXXX**X.%ww5MNn",
"<1<5NNMewk::bSDFFJbVDDh ++#@++<4>;>pp:pzZCca;=XXXXXX XX.X8we5MMn",
"<1<5MmNeeh::lVSDFDbVVFV; :MNghcDbzgi::dVDZba;=XXXXXX  X%8wew5mMn",
"<1<5Mnmeehp>lCDDDJVvbSJbghVCJZSZbka:*;sbDZba;=*XXXXX XX8weee4Mmn",
"<1<5nnneehlgkCSDDDDVbDFJDDJJJDZvcd:-=;plZCzi-=***XXX Xqweeee3Mmn",
"<1<5mnmrehllzVSDDJJSVSJJJFJJDDDSbka:;:plZVh:=***XXXXXXererer4nnn",
"<1<3333errhccbVDDDJDDVKKJJJJJJFFSbls>pgbSbs-****XXXXX&eeeere<333",
"<1<OooorerghhcVDDDJJFFKKKJJJJKKFFCckgkbVCk>=***XXXXXX6erereroooO",
"<<<<<<<rrrrffhzZDDFJFJKDFJJKKKKFSZbzzcbbla;******XXX$9rrrrrrO<<<",
"1111111rrrrdd>hbSZDDFKKKDFKKKKKFSCczzzzf>-XX***XXXX.&wrrrrrr,111",
"HHHHHHHrrrta>-lxCDZSDJKKKDDFKKJSSCclhgs:-*X.X*XXXXX@6rrrrrrrnHHH",
"NNNGNGNtrtrtryglbZDZSDJKKKDFFFSDZbzhs>;=*..X**XXXX*#9trtrtrtnNNN",
"NNNNGNGttrtrtryglbSDCZSDJJFFDDZVblfi;=X.. .X**XXXX*$9rtrtrtr5NNN",
"NNNGNGNtrtrtrtrfglbDDVZSDDSCVbzhfp:-*.. ..X**XXXX**$9trtrtrt5NNN",
"NNGNNNGttttttttyfglbDDVVCVclhga>;-*.. ..XX**XXXX***;9ttttttt5GNN",
"GNMNNNNttytttyttfhglbVVblfp:;;-=X..  XX****XXXX****:kjttrtttnNGG",
"MGMMNMNttttttttttfhgzcvcld>=*XX...X******XXXXX*****XBBtttttt5GMM",
"MMMMMNMytytytytytfghghlkkg>--=====*****XXXXXX***** KABtytytt5MMM",
"mMNMNmMtyyytyyytyyfghggghdd;=**==***XXXXXXXX*****aKKDBytytyt5Mmm",
"MmmMmMMytyyytyyytyddghhggsa;*=*XXXXXXXXXXX***X*gZFJDKktytytt4mMM",
"mnmnmnmn5343543O,O23334343535435434343435343543O,O23334343543Mmm",
"mmnmnmnmnmnmnnn<1<5mnmnmmmnmnnMmmmnmnmnmnmnmnnn<1<5mnmnmmmnnMmmm",
"333333333333333<1<33333333333333333333333333333<1<33333333333333"
};
