/* XPM */
static char *frame_043[] = {
/* columns rows colors chars-per-pixel */
"64 64 35 1 ",
"  c #FF000000",
". c #FF202020",
"X c #FF2C2C2C",
"o c #FF303030",
"O c #FF383838",
"+ c #FF4C0000",
"@ c #FF706C00",
"# c #FF404040",
"$ c #FF484848",
"% c #FF4C4C4C",
"& c #FF545454",
"* c #FF5C5C5C",
"= c #FF646464",
"- c #FF707070",
"; c #FF7C7C7C",
": c #FF880000",
"> c #FFA40000",
", c #FFA80000",
"< c #FFB00000",
"1 c #FFBC0000",
"2 c #FFD40000",
"3 c #FFFC0000",
"4 c #FFFC5454",
"5 c #FF848400",
"6 c #FF9C9C00",
"7 c #FFCCC400",
"8 c #FFFCF400",
"9 c #FF8C8C8C",
"0 c #FF989898",
"q c #FFA8A8A8",
"w c #FFB4B4B4",
"e c #FFC0C0C0",
"r c #FFD0D0D0",
"t c #FFDCDCDC",
"y c #FFFCFCFC",
/* pixels */
"OOOOOOOOOOOOOOOOOOOOOOOOOOOOOOOOOOOOOOOOOOOOOOOOOOOOOOOOOOOOOOOO",
"O9999990909090909000000000009090999999;9;9;;;;;;;;-------------O",
"O999090909090900000000000909090999999;9;9;;;;;;;;-;-q0-q0------O",
"O090909090000000000000009090999999;9;9;9;;;;;;;;-;-=9q=9q=----=O",
"O90909090000000000000909090999999;9;9;;;;;;;;;;-;-;=9q=9q=---=-O",
"O0909&&&&&&======--------9999999;9;9;;;;;;;;;;-;-;O%&&&&**=-=-=O",
"O909;&;qqqqqqwwwwwwweeee-9999;9;9;9;;;;;;;;-;-;-;-O#$$$$$&&=-=-O",
"O000;$-99990000000000qqe-999;9;9;9;;;;;;;;-;-;-;---O=-O=-&=-=-=O",
"O000;$-9O9O9O9O0O0O0O0qe=99;9;9;9;;;;;;;;-;-;-;----=9q=9q=-=-==O",
"O000;O-9$9$9$9$9$0$0$00w=9;9qqqwwwweety;-;-;-------=9q=90==-===O",
"O000;O-9$9$9$9$9$9$0$0&q=;9&q$qqw3wwe-t-;-;--------=90=;0&-====O",
"O000;O-9&9&9&9&9&9&9&90q&9;&qqqq243wwwe;-;---------=;0&;0&=====O",
"O000;O-9999999999999999q&;;$0qq24443www-;----------&;0&-0&=====O",
"O000-X-----------------;&;;$002444443ww------------&;0&-9&=====O",
"O009-XXXXOOOOOOO$$$$$&&&&;;$001<<4111ww------------&;0&-9$=====O",
"O090--------------------;;;$9000<41qqqw------------&-0&-9$=====O",
"O909999999999;9;9;9;;;;;;;;O9900>41qqqq------------&-0$-9$=====O",
"O099999999;9;9;9;9;;;;;;;;;O9 90>><0q$q-----------=$-9$-9$=====O",
"O99999999;9;9;9;9;;;;;;;;;;O999900000qq----------=-$-9$-9$=====O",
"O9999999;9;9;9;;;;;;;=0;;;;OOOOOO$$$&&&-----=9--=-XO#$$$$$$==-=O",
"O9999;9;9;9;9;;;;;;;=O=;;;;-;-;-;----------&O=-=-=XoOOOOO#$====O",
"O999;9;9;9&&&=========;&XXXXXXXXXXXXXXXXXXXX&-=-=-=O&&O&&$===-=O",
"O99;9;9;9;$99900090=;;;;########X&&########X-=-=-==$-9$-9$=====O",
"O9;9;9;9;;$90000909=;;;0&&&&&&&&X&q&&&&&&&#X=-=-=-=$-9$-9$=-=-=O",
"O99;9;9;;;$06==65&9=;;;0=&&&&&&&XO=&&&&&&&#X-=-=-==$-9$-9$====-O",
"O9;9;9;;;;X0==65&&9=-;-0=&&7$77&77&78=888&#X=-=-===$-9$-9$=-=-=O",
"O;9;9;;;;;O0=65&&59=;-;0=$X;r;;;;;;;;;;0r&#X-=-=&&=$-;$-9$====-O",
"O;;;;;;;;;X065&&5@9=-;-0=$X;rXXXXXXXXXX0r&#X=-$$&&$$--$-9$=-=-=O",
"O;;;;;;;;;$95&&5@$9=;-;0=$X9r$$$$$$$$$X0r&#X-$=;$$;;-=$-9$====-O",
"O;;;;;;;;;$09999999&-;-0=$X9r&&&&&&&&$X0r&#X&$&&##&&&&$-;$=-=-=O",
"O;;;;;;;;;$99999999&;--0=$X0r&&&&&&&&$X0r&#X&&$OOOO$$$=--$==-=-O",
"O;;;;;;;;;$99999O&9&---0=$=0r;;;;----==0yq#X&$=;OO;;;;-==$=-=-=O",
"O;;;;;;;;;$9999-.O;&---0=OX==XXXXXXXXXX==X#X&O$$oo$$$$$$&$==-=-O",
"O;;;;;;;-;$9999--;9&---0=$OXX$$$$$$$$$OXX&#X&&OOXXOOOOOO$-=-=-=O",
"O;;;;;;;;-$99999;9;&---0-$$$$&&&&&&&&$$$$&#X=&&&XX&&&&&&==-=-=-O",
"O;;;-;-;-;$9999;9;;&---0-&&&&&&&&&&&&&&&&&#X===========-=-=-=-=O",
"O;;;;;;-;-X999;9;;;&---0-&&&&&&&&&&&&&&&&&#X==============-=---O",
"O;-;-;-;-;O99;9;;;;&---0-&&&&&&&&&&&&&&&&&#X=========-=-=-=-=--O",
"O;;;;-;-;-X999;;;;;$---0-&&&&&&&&&&&&&&&&&#X============-=-=---O",
"O;-;-;-;-;$99;9;;;;$---0-&&&&&&&&&&&&&&&&&#X=========-=-=-=-=--O",
"O;;-;-;-;-$9;9;;;;;$---0--------------===&#X============-=-=---O",
"O;-;-;-;-;$$$$$$$$$$---00000009999999;;;;-&$=========-=-=-=-=--O",
"O-;-;-;-;-----------==9----=-=-=-===========&-==========-=-----O",
"O;-;-;-;-;----------&O=-=-=-=-=-===========&O&=====-=-=-=-=-=--O",
"O-;-;-;-------------&&=--=-=qqqqqwweety====&&=========-=-=-----O",
"O;-;-;-;------------=-=-=-=&q$qq333we-t============-=-=-=-=----O",
"O-;--------------------=-=-&0qq9:,3wwee===============-=-=----;O",
"O;-;-;------------=-=-=-=-=&00q9:,3qwwe==========-=-=-=-=-=----O",
"O--------------------=-=-=-$0011:,333ww=============-=-=------;O",
"O;--------------=-=-=-=-=-=$9;+,,,,,+ww==========-=-=-=-=-=--;-O",
"O------------------=-=-=-=-O99-+,,,+qqw=============-=-=------;O",
"O-------------=-=-=-=-=-=-=O999-+,+qqqq========-=-=-=-=-=-=--;-O",
"O----------------=-=-=-=-==O9 99-+00q$q===========-=-=-=------;O",
"O-----------=-=-=-=-=-=-=-=O999990000qq========-=-=-=-=-=----;-O",
"O--------------=-=-=-=-=-==OOOOOOO$$$&&===========-=-=-=----;-;O",
"O---------=-=-=-=-=-=-=-=-=-===================-=-=-=-=-=----;-O",
"O------------=-=-=-=-=-===========================-=-=------;-;O",
"O-------=-=-=-=-=-=-=-=-=-===================-=-=-=-=-=-=--;-;;O",
"O------------=-=-=-=-===========================-=-=-=------;-;O",
"O-----=-=-=-=-=-=-=-=-=-=====================-=-=-=-=-=-=--;-;;O",
"O----------=-=-=-=-=============================-=-=-=------;-;O",
"O---=-=-=-=-=-=-=-=-=-=-===================-=-=-=-=-=-=----;-;;O",
"O--------=-=-=-=-=============================-=-=-=------;-;;;O",
"OOOOOOOOOOOOOOOOOOOOOOOOOOOOOOOOOOOOOOOOOOOOOOOOOOOOOOOOOOOOOOOO"
};
