/* XPM */
static char *frame_041[] = {
/* columns rows colors chars-per-pixel */
"64 64 39 1 ",
"  c #FF000000",
". c #FF202020",
"X c #FF2C2C2C",
"o c #FF303030",
"O c #FF383838",
"+ c #FF4C0000",
"@ c #FF640000",
"# c #FF7C0000",
"$ c #FF706C00",
"% c #FF404040",
"& c #FF484848",
"* c #FF4C4C4C",
"= c #FF545454",
"- c #FF5C5C5C",
"; c #FF646464",
": c #FF707070",
"> c #FF7C7C7C",
", c #FFA40000",
"< c #FFA80000",
"1 c #FFBC0000",
"2 c #FFD40000",
"3 c #FFFC0000",
"4 c #FF9C4C00",
"5 c #FFB45400",
"6 c #FFCC6000",
"7 c #FFE46C00",
"8 c #FFFC5454",
"9 c #FF848400",
"0 c #FF9C9C00",
"q c #FFFC8820",
"w c #FFFCA85C",
"e c #FF8C8C8C",
"r c #FF989898",
"t c #FFA8A8A8",
"y c #FFB4B4B4",
"u c #FFC0C0C0",
"i c #FFD0D0D0",
"p c #FFDCDCDC",
"a c #FFFCFCFC",
/* pixels */
"OOOOOOOOOOOOOOOOOOOOOOOOOOOOOOOOOOOOOOOOOOOOOOOOOOOOOOOOOOOOOOOO",
"Oeeeeeererererererrrrrrrrrrrerereeeeee>e>e>>>>>>>>:::::::::::::O",
"Oeeererererererrrrrrrrrrrererereeeeee>e>e>>>>>>>>:>:tr:tr::::::O",
"Orererererrrrrrrrrrrrrrrerereeeeee>e>e>e>>>>>>>>:>:;et;et;::::;O",
"Oererererrrrrrrrrrrrrererereeeeee>e>e>>>>>>>>>>:>:>;et;et;:::;:O",
"Orere======;;;;;;::::::::eeeeeee>e>e>>>>>>>>>>:>:>O*====--;:;:;O",
"Oere>=>ttttttyyyyyyyuuuu:eeee>e>e>e>>>>>>>>:>:>:>:O%&&&&&==;:;:O",
"Orrr>&:eeeerrrrrrrrrrttu:eee>e>e>e>>>>>>>>:>:>:>:::O;:O;:=;:;:;O",
"Orrr>&:eOeOeOeOrOrOrOrtu;ee>e>e>e>>>>>>>>:>:>:>::::;et;et;:;:;;O",
"Orrr>O:e&e&e&e&e&r&r&rry;e>etttyyyyuupa>:>:>:::::::;et;er;;:;;;O",
"Orrr>O:e&e&e&e&e&e&r&r=t;>e=t&tty3yyu:p:>:>::::::::;er;>r=:;;;;O",
"Orrr>O:e=e=e=e=e=e=e=ert=e>=tttt2<3yyyu>:>:::::::::;>r=>r=;;;;;O",
"Orrr>O:eeeeeeeeeeeeeeeet=>>&rtt2<<<3yyy:>::::::::::=>r=:r=;;;;;O",
"Orrr:X:::::::::::::::::>=>>&rr2<<<<<3yy::::::::::::=>r=:e=;;;;;O",
"Orre:XXXXOOOOOOO&&&&&====>>&rr++@<++@yy::::::::::::=>r=:e&;;;;;O",
"Orer::::::::::::::::::::>>>&errr+<@ttty::::::::::::=:r=:e&;;;;;O",
"Oereeeeeeeeee>e>e>e>>>>>>>>Oeerr+<#tttt::::::::::::=:r&:e&;;;;;O",
"Oreeeeeeee>e>e>e>e>>>>>>>>>Oe er++#rt&t:::::::::::;&:e&:e&;;;;;O",
"Oeeeeeeee>e>e>e>e>>>>>>>>>>Oeeeerrrrrtt::::::::::;:&:e&:e&;;;;;O",
"Oeeeeeee>e>e>e>>>>>>>;r>>>>OOOOOO&&&===:::::;e::;:XO%&&&&&&;;:;O",
"Oeeee>e>e>e>e>>>>>>>;O;>>>>:>:>:>::::::::::=O;:;:;XoOOOOO%&;;;;O",
"Oeee>e>e>e===;;;;;;;;;>=XXXXXXXXXXXXXXXXXXXX=:;:;:;O==O==&;;;:;O",
"Oee>e>e>e>&eeerrrer;>>>>%%%%%%%%%%%%%%%%%%%X:;:;:;;&:e&:e&;;;;;O",
"Oe>e>e>e>>&errrrere;>>>r==================%X;:;:;:;&:e&:e&;:;:;O",
"Oee>e>e>>>&r0;;09=e;>>>r;=================%X:;:;:;;&:e&:e&;;;;:O",
"Oe>e>e>>>>Xr;;09==e;:>:r;=================%X;:;:;;;&:e&:e&;:;:;O",
"O>e>e>>>>>Or;09==9e;>:>r;=================%X:;:;==;&:>&:e&;;;;:O",
"O>>>>>>>>>Xr09==9$e;:>:r;=================%X;:&&==&&::&:e&;:;:;O",
"O>>>>>>>>>&e9==9$&e;>:>r;=================%X:&;>&&>>:;&:e&;;;;:O",
"O>>>>>>>>>&reeeeeee=:>:r;=================%X=&==%%====&:>&;:;:;O",
"O>>>>>>>>>&eeeeeeee=>::r;==ua==========ua=%X==&OOOO&&&;::&;;:;:O",
"O>>>>>>>>>&eeeeeO=e=:::r;&>ri>>>>::::;;rat%X=&;>OO>>>>:;;&;:;:;O",
"O>>>>>>>>>&eeee:.O>=:::r;OXriXXXXXXXXXXriX%X=O&&oo&&&&&&=&;;:;:O",
"O>>>>>>>:>&eeee::>e=:::r;&Xei========&Xri%%X==OOXXOOOOOO&:;:;:;O",
"O>>>>>>>>:&eeeee>e>=:::r:&Xei========&Xri=%X;===XX======;;:;:;:O",
"O>>>:>:>:>&eeee>e>>=:::r:&X>i========&Xri=%X;;;;;;;;;;;:;:;:;:;O",
"O>>>>>>:>:Xeee>e>>>=:::r:&X>iaaaiiiuuytri=%X;;;;;;;;;;;;;;:;:::O",
"O>:>:>:>:>Oee>e>>>>=:::r:&X4X44X44X56&7qw=%X;;;;;;;;;:;:;:;:;::O",
"O>>>>:>:>:Xeee>>>>>&:::r:&XXXXXXXO;XXXXX==%X;;;;;;;;;;;;:;:;:::O",
"O>:>:>:>:>&ee>e>>>>&:::r:&&&&&&&X=t&&&&===%X;;;;;;;;;:;:;:;:;::O",
"O>>:>:>:>:&e>e>>>>>&:::r:::;;;=&X==:::;;;=%X;;;;;;;;;;;;:;:;:::O",
"O>:>:>:>:>&&&&&&&&&&:::rrrrrrreeeeeee>>>>:=&;;;;;;;;;:;:;:;:;::O",
"O:>:>:>:>:::::::::::;;e::::;:;:;:;;;;;;;;;;;=:;;;;;;;;;;:;:::::O",
"O>:>:>:>:>::::::::::=O;:;:;:;:;:;;;;;;;;;;;=O=;;;;;:;:;:;:;:;::O",
"O:>:>:>:::::::::::::==;::;:;tttttyyuupa;;;;==;;;;;;;;;:;:;:::::O",
"O>:>:>:>::::::::::::;:;:;:;=t&tt233yu:p;;;;;;;;;;;;:;:;:;:;::::O",
"O:>::::::::::::::::::::;:;:=rtte183yyuu;;;;;;;;;;;;;;;:;:;::::>O",
"O>:>:>::::::::::::;:;:;:;:;=rrte183tyyu;;;;;;;;;;:;:;:;:;:;::::O",
"O::::::::::::::::::::;:;:;:&rr1118222yy;;;;;;;;;;;;;:;:;::::::>O",
"O>::::::::::::::;:;:;:;:;:;&e>,888881yy;;;;;;;;;;:;:;:;:;:;::>:O",
"O::::::::::::::::::;:;:;:;:Oee:,8881tty;;;;;;;;;;;;;:;:;::::::>O",
"O:::::::::::::;:;:;:;:;:;:;Oeee:,8,tttt;;;;;;;;:;:;:;:;:;:;::>:O",
"O::::::::::::::::;:;:;:;:;;Oe ee:,rrt&t;;;;;;;;;;;:;:;:;::::::>O",
"O:::::::::::;:;:;:;:;:;:;:;Oeeeeerrrrtt;;;;;;;;:;:;:;:;:;::::>:O",
"O::::::::::::::;:;:;:;:;:;;OOOOOOO&&&==;;;;;;;;;;;:;:;:;::::>:>O",
"O:::::::::;:;:;:;:;:;:;:;:;:;;;;;;;;;;;;;;;;;;;:;:;:;:;:;::::>:O",
"O::::::::::::;:;:;:;:;:;;;;;;;;;;;;;;;;;;;;;;;;;;;:;:;::::::>:>O",
"O:::::::;:;:;:;:;:;:;:;:;:;;;;;;;;;;;;;;;;;;;:;:;:;:;:;:;::>:>>O",
"O::::::::::::;:;:;:;:;;;;;;;;;;;;;;;;;;;;;;;;;;;:;:;:;::::::>:>O",
"O:::::;:;:;:;:;:;:;:;:;:;;;;;;;;;;;;;;;;;;;;;:;:;:;:;:;:;::>:>>O",
"O::::::::::;:;:;:;:;;;;;;;;;;;;;;;;;;;;;;;;;;;;;:;:;:;::::::>:>O",
"O:::;:;:;:;:;:;:;:;:;:;:;;;;;;;;;;;;;;;;;;;:;:;:;:;:;:;::::>:>>O",
"O::::::::;:;:;:;:;;;;;;;;;;;;;;;;;;;;;;;;;;;;;:;:;:;::::::>:>>>O",
"OOOOOOOOOOOOOOOOOOOOOOOOOOOOOOOOOOOOOOOOOOOOOOOOOOOOOOOOOOOOOOOO"
};
