/* XPM */
static char *frame_026[] = {
/* columns rows colors chars-per-pixel */
"64 64 31 1 ",
"  c #FF700000",
". c #FF706C00",
"X c #FF004040",
"o c #FF005858",
"O c #FF006C6C",
"+ c #FF007070",
"@ c #FF007474",
"# c #FF007878",
"$ c #FF007C7C",
"% c #FF545454",
"& c #FF646464",
"* c #FF7C7C7C",
"= c #FFFCF400",
"- c #FF008484",
"; c #FF008C8C",
": c #FF009898",
"> c #FF009C9C",
", c #FF00A4A4",
"< c #FF00A8A8",
"1 c #FF20B0B0",
"2 c #FF20B4B4",
"3 c #FF48C0C0",
"4 c #FF74C8C8",
"5 c #FF8C8C8C",
"6 c #FF989898",
"7 c #FFB4B4B4",
"8 c #FF9CDCDC",
"9 c #FFB8E8E8",
"0 c #FFD0D0D0",
"q c #FFD8F4F4",
"w c #FFFCFCFC",
/* pixels */
"%%%%%%%%%%%%%%%%%%%%%%%%%%%%%%%%%%%%%%%%%%%%%%%%%%%%%%%%%%%%%%%%",
"8<<<<<222223332333232323222222222222<<<<<<<<<<<<<<<<<<<<<<<<<<<o",
"8,<<44,<222232323233333232323232222222222222222<<<<<<<<<<<44,<<o",
"8:,4w8;$<<22<223232323333333232323232322222222222222222224w8;$<o",
"8::48,;$<<<<2<222222323233333333333232323232322222222222248,;$2o",
"8;::,;$<,,<<<<<2<2<222232323333333333333332323232323222222,;$<<o",
"8;;;::>,,,,,O<<<O<2<O222O232O233O333O333O333O332O232O2323222222o",
"8;;;;::>>,,,,,<<<<<2<2<2222223232333333333333333333333232323232o",
"8;;;;;;::>>++++++++++++++++++++++++++++++++++++++++++q333332323o",
"8-;;;;;;:::+oooooooo++++++++++++++++++++++++++++++++4q333333333o",
"8--;11,;;;:+o>>:<<<,<<<<<<2<2<22222222323232333333338q333344,<3o",
"4$-183;+;;;+o::>><:<:,<<<<<<<2<2<2<2<2222323232333338q3334w8;$3o",
"4$$:3,;+;;;+o;::>>>:<<<,<<<<<<<<2<2222222222223232338q33348,;$3o",
"4$$$:;++-;;Oo:;:::>>><:<:,<<<<<<<2<2<2<2<222222223238q3332,;$<3o",
"4$$$+++$;-;Oo;;:::::>><:<<<,<<<<<<<<2<2<2222222222228q323333333o",
"4#$$$$--$--Oo;;O                                  +28q232323333o",
"4##$$$$----Oo;; .================================. 28q222232323o",
"4###$$$$---Oo;; =.                              .= 28q222222232o",
"3##-::;$$--Oo-; = 0 0 00 00  00   0 000 00 0 0 0 = 28q222<44,<2o",
"3@#:2,;+$$-Oo-- = 0 0 0  0 0 0 0 0 0 0  0  000 0 = 28q<224w8;$2o",
"3@#;,,#o$$$Oo-- = 0 0 00 00  00  0 0 0  00 000 0 = <8q22248,;$2o",
"3@@+#++o#$$oo-$ = 0 0 0  0 0 0 0 0 0 0  0  0 0   = <8q<2<2,;$<2o",
"3@@OoooO$#$oo$- =  0  00 0 0 00   0  0  00 0 0 0 = <8q2<2222222o",
"3+@@@####$#oo$$ =                                = <8q<<<2<2<2<o",
"3+@@@#####$oo$$ =                                = <8q<<<<<<2<2o",
"3O+@@@@####oo$$ =                                = <8q<<<<<<<2<o",
"3O+$:;-@###oo$$ =     *** * ***** ** ****** **   = ,4q<<<<44,<<o",
"3OO:2:;+@##oo$$ =                                = <4q<<<4w8;$<o",
"3+O;:;+o@@#oo#$ =   ****** *** ** ***** ******   = :49<,<48,;$<o",
"3@++++oo@##oo$# =                                = >49:<:2,;$<<o",
"3@+OoooO@@#oo#$ =   *** ******* *** * **** ***   = >49<:<<<,<<<o",
"3#@+OO+@@@@oo## =                                = >49>>:<:<:,<o",
"2#@+OO++@@@oo## =                                = :49>:>><:<<,o",
"2##@+OO+@@@oo## =     *** ******** * ** *** **   = :49:>>>>>:<:o",
"2##$;$OO+@@oo@# =                                = :49:::<44,<,o",
"2##;,:$+++@oo@@ =   ** ***** **** ******** ***   = :38:::4w8;$>o",
"2$#;:;+oO+@oo@@ =                                = :38:::48,;$:o",
"2$#+++ooOO+oo@@ =   **** ********** * **** ***   = :38::::,;$<>o",
"1$$OoooOOO+oo@@ =                                = ;38:::::::::o",
"1$$##@@+OOOoo@@ =   *** ** ***** * ** ****** *   = :38:::::::::o",
"1$$###@++OOoo@@ =                                = ;34:::::::::o",
"1$$$##@@++Ooo+@ =   **** * **** *** ***** ****   = ;34;:::;::::o",
"1$$-:;#+++Ooo++ =                                = ;34;;:<33,;:o",
"1-$:2:;+@++ooO+ =                                = ;34;:;384;$:o",
"1-$;:;+o@++ooO+ =                   0505706070   = ;24;;;244;$:o",
"1--+++oo@@+ooOO =.                              .= ;24;;;;,;$;;o",
"1--OoooO@@+ooOO .================================. ;24;;;;;;:;;o",
"1--$$$###@@ooOOo                                  +;23;;;;;;;:;o",
"1---$$###@@oo+OOO++@@@@@#@######$#$$$$$$$$-$--------23;;;;;;;;;o",
"1---$$$###@oo+OOOO+@@@@@@#@######$#$$$$$$-$-$-$-----13;;;;;;;;;o",
"1---:;;$##@oo++OOO++@@@@@@#@######$#$$$$$$$$-$------13;-;;22,;;o",
"1--:2:;+##@oo+++OOO++@@@@@@#@######$#$$$$$$-$-$-$---,3-;-283;$;o",
"1--;:;+o###oo+++OOOO+@@@@@@@#@######$#$$$$$$$$-$----,2--;23,-+;o",
"1;-+++oo###oo@+++OOO+O@@@@@@@########$#$$$$$$-$-$-$-,2---;,;$+;o",
"1;-OoooO$##oO;;;--------;;;;;;;;;;;;;;;;;;;;;;::::,,,2----;++;;o",
"1;----$$$##o-::;;;;;;;;;;;;;:::::::,,,,,,,,,,,,,,12222-----;;;;o",
"1;----$$$$##@@@+++OOOO+O@@@@@@#########$$#$$$$$$$$-$---------;;o",
"1;----$$$$##X@@@X++OXOO+X@@@X@@#X###X###X$#$X$$$X-$-X-$-------;o",
"1;;$::#$$$###@@@++++OOOO+@@@@@@@##########$#$$$$$$$$-$----,,;--o",
"1;;:31$O$$$###@@@+++OOOO+O@@@@@@@#@########$#$$$$$$-$-$-$,42;+-o",
"1;;:1-Oo$$$###@@@++++OOOO++@@@@@@@#@########$#$$$$$$$$-$-,2,-+-o",
"1;;$OOoo$$$$###@@@+++OOOOO+@@@@@@@@#@########$#$$$$$$-$-$---++-o",
"1;;Oooo+$$$$###@@@++++OOOO+O@@@@@@@@#@########$#$$$$$$$$-$+++--o",
"&&&&&&&&&&&&&&&&&&&&&&&&&&&&&&&&&&&&&&&&&&&&&&&&&&&&&&&&&&&&&&&&"
};
