/* XPM */
static char *frame_037[] = {
/* columns rows colors chars-per-pixel */
"64 64 20 1 ",
"  c #FF000000",
". c #FF1C1C1C",
"X c #FF28200C",
"o c #FF302410",
"O c #FF382C14",
"+ c #FF202020",
"@ c #FF383838",
"# c #FF403018",
"$ c #FF483818",
"% c #FF543C1C",
"& c #FF5C4020",
"* c #FF400040",
"= c #FF480048",
"- c #FF500050",
"; c #FF580058",
": c #FF6C0070",
"> c #FF484848",
", c #FF545454",
"< c #FF646464",
"1 c #FF840084",
/* pixels */
"---+***+*-;*-+*****+------=+*******+=-;;-=*+**********++********",
"#;;-+++*-;--**+**++-;:$$$#-*++**++**-;;;;-;-+*******+**=-;;$$$$$",
"$#;;;-+*--*---*++**;:$$####=**++****-;;;-;--*++***++***-;;$$$$$$",
"###;-=****--**.+***;:$#===#-****===*-;-;--=****+**+****-;$$$$OO*",
";#X-;-=******++****-;;=*-;$-**###;-=*-;-=*##$###OOOX***-;$$$O*O-",
";#O;;--=--;;;;;--=**-;-;;-O=*#$$$#;-**-XO#$$$$$###o#O**-;-$#O-O;",
"-;#-;-;-;;;;$--;;--*=-=;--X*#$$OO#;-*oO$$%$$$#OOXOXo#o*=-;$#o;O-",
";;#;---;#%;$#-=---;-***=-*X*$#O**O-*XO$%%%%%$oOX O**#oX*=;$#o;O*",
"-;#-*-;#%%$#O-***=--*-=*--#-##*;-o;-O$%%&&%%$X X*O--O*o**-#Oo-O*",
"=-#*-;;%%$##O-*=-****=----O*##-;;o-o$OX&&%%$#X*X*O;;O-o**=#Oo;O*",
"*=O--;:%$##Oo-*--###OX***-X*o*;--X*oO$-&%$$#OX***;;OO-oX=**Oo-**",
"**o-;;:%#OOoo-=-#$$$$#-=****o-;*-X+XOO-&$$#OOOX;*;OOOOoo-=*OX***",
"**o-;::-#Oo-o*-*$$#=#$;-**++X****++*Oo;$$#O*-OOX;;OoXOoo--*OX**+",
"**X-:;$$$#X*o**#$#=-;#;-*. +**====**Oo;$#O*-;-OX#$oXX;Xo-;=***++",
"***-;$$#----o+*#$#=;-#;-*++***-;;-=*oX;$*O-;;;$#$OX---XX-;-***++",
"***-;$#-;::;X.*#$#*;=O-*+*XXX=----=+o*;$;O*XO$$$OX-;-*-XX--*++++",
"***-;$-;:;--X *$;O*-*X=**#$$##X=-*++o*;$;OX$$$$$$OX--=;XXX-*++++",
"***--$-:;** X *$;X*-*X*=$&&&&$#*=-++o-;=;O$$$$OOOOo-;---XXX*++**",
"***--$-:=-;*X+*;;-;-***;&$####$O***+o--==O$$OOXOXOo--=*;-X* ****",
"====--;-*;-*X**-;;-=**=;#-1:;:#OXX**X-;*OO$OoX*O*Oo-=-*;-X*+***-",
"---*=-;=*--;-*-;--=*==;$11:;;O;OOX**X--*=O$OX*-=-Oo-*-*--X**----",
"$;;-*--*-**-;-===**=-;$%;:;$OOXOXXX*X-=*=O;OX--=*X**-=*-*X*-;%%$",
"$$#;-***=-;=*..***=-;$%$$$$#X*-X*XXXOX**-O;oX===--*-=***XO;;%%$$",
"##$O-==-;;;-* .##o=-;$%-;$OO*-;*XoO#$#*=--;o-***=;-***+ X#$$%%$$",
"#OOO-;--;;;-= O#OO*-;$%-;$OX*;*XooooOOO---;X;--;;-;.+ **#$%%;;;#",
"**Ooo--;;;-* *$-*o*-;$%$$OXX-;OXXooOOXOOo;---;;--=.  .*-$%%:;---",
"===oo-*---*X$$$*-XX-;$$-**--;;OXoo**-OOooo-;--;-=*. .+-;%%::;*-*",
";;;OO*;-=*XOO#***X*-;;$-*-$$$OoXoOO;:O-OooX-*=-=**.+.*;%$%%%%$**",
"=--##*-=**X--O--;-*=-;$;:::::Oo--XO;;O-OOoX=****###**-;$%###%%$-",
"*-;$#;=*****-o;;-*+*=;;:::;;;Oo*:;X*-O-OOoX==**###**-;:$#;11#$$;",
"-;-##-*-***--XXXXX++*;;::;;-#OX-;;X**O*OOoX-*X*#O;;;;;:$;1;;::$#",
"-;-OO;-;-*-;::;;-OXX-;:;#$$OXO-:--X*---OOoX-***O;;;--;:$;1--::##",
"=;-oo;*-**;11:##O;X*;;;#$#OoO-:;-;*-;;;OOoX-*.*O-;;-*;;$;:-=;;OO",
"*-;OO---*-:1:####O-*;;;$#X+XOX:;*---;;;OOoX-*+*o---=-;;$;:-*-Xoo",
"=-;$#-;;*;::##OO-o;*;;-OX***oX;-+*-;;-*OoXX-*.*o*=-==-;#-;-*-XXX",
";=;#o-;-*;;:-Ooo;o-*;;*X+*-*oX-*+*-;;-*Oo*-=***o**=**=-O-;-=**OO",
"*=;oX--=*-;;-ooX-o**-;-o+--*oX*+***-;**Oo*-=***X******=o*---=*##",
"*=-X-==**-;;;oXX*X+**--#.**+oX++-**;**--o-;----X**===**o.*----$$",
"**;-=****=--;-X**X++**=O -*+XX+**+**--*-X*--;;;X*=----*O*.****$$",
"**-*******=--*X==***+**o.**;-X.++**-;;*-*X*-;;-X=-;;;;-**+.   ##",
"***----*-**=-;;;;-=****o+..-*X ++*-;;-***X*;-**XX##;;;;--*+.  Oo",
"**-;$$;-;-=-;;;;;;;===*o++...X +*=-;-**-*****;X##$$##;--;-*+. oo",
"**-$##O--=--;;$$OO--;-*X*++++X.*--=******+**=-;#$#O*O-;-;;-*+.XX",
"**;#--O**-;;;$$$OO*=-*+X*****X****=-=***+.**-;:$$OX X-;;;-;-**XX",
"**;O-;O;-;;$$$##OX****.X*OOOO#;;**=---==***=-;:O;X* **-;-*-*-*X ",
"**-O-*O--;;#;$**OX*-** XO$$##$::;**-;;--=*=-;$:O;X  *-;;-**-;-X ",
"***X-;;-;;-O*;***X-;-*+O$&%$#$;1:$X-;;-;-*-;$$;X-* **X#:;---;-X ",
"+**X-;;-;;-*;**-;:X;-**#&%%$$$-:;#$X;-;--=-$$$;X-**XX#$%;-;---**",
"*+*X---*-;-***--:-X-=**$%$$#$$$;:;##-;-;--$$$$$$*XX##$%#--;--;-X",
"*+*X****=-==*-=--X-;-*$$#O$O#$$$;:;#X----;$$####$;;%%%#o**---;-X",
"+.+X+****=--=**+ X*-=*;$O##oO###-;;#X**=-$$##+***--#X*#o*-;;-;-X",
". .X+.++*****--++X**X$$$$#o#OOoo#$;#o+**=$#-O***-;;#X-#o-;;-*-**",
"+  ..+***====****XXo$OOo#o#OooXXo####o+**O;-O*X##oo#;;-o;;O#X**X",
"*  X+**=--;;;;;-*XX$OOooXXOoX+**--OO##oX*o-;o-#OOoo#;--o-O###X*X",
". .+*=-;;;$$$$$;-*o#OX.XX.ooX*;--*ooooOX+X*-X;-o+Xo#-**X;--OOX**",
"+.++*-;::#$OOOO$;*oOX..XX.XXX-;;;;XooXOX*X+*X;-o+XX**-*X-*-XXX**",
"++++=-;::$*---OO-*oOX+++X++*X*-;;;XXX+oX***+X--X+XX**;*X***XXX**",
"*++*=-;:*O-;-;-O-*o;;==;X=;=X=-;--XX+*oX***+X**X*OOX***X*-**#OO*",
"*++*=-;OOXOO;-;o--o=;;=*X*==X-*-=++X*-oX+-+*X****#-#X**X-**#&$$O",
"*++*O$$$-;-----o-;X*==**XXXXX--=**+X-*oX+***X--*;O;-XX*X**#&$##;",
"X**-$$##$--;;XXXXXX**;*XoooooooXXXXXX*oX+-*-;;;-*XXXXXXXoo$&#-XX",
"XXX;$*-;O;*-XXoooooXXooO#;####OOOOoooXXX-;--;;;XXoOOOO###$&#o;-X",
"XXXX#-;*XXXXoO#$$##OoXXoO#$%&%$$####OOOoooXXXoooooO#$$$$$$#ooXXX",
"<>@XXXXXXXXXXooooo@><<,@XXXoooooooooooXXXXX@>,,>@XXXXXXXXXXXX@><"
};
