/* XPM */
static char *frame_048[] = {
/* columns rows colors chars-per-pixel */
"64 64 27 1 ",
"  c #FF382C14",
". c #FF383838",
"X c #FF400000",
"o c #FF4C0000",
"O c #FF580000",
"+ c #FF640000",
"@ c #FF700000",
"# c #FF7C0000",
"$ c #FF403018",
"% c #FF483818",
"& c #FF543C1C",
"* c #FF5C4020",
"= c #FF6C4824",
"- c #FF744C28",
"; c #FF400040",
": c #FF480048",
"> c #FF500050",
", c #FF580058",
"< c #FF6C0070",
"1 c #FF484848",
"2 c #FF545454",
"3 c #FF646464",
"4 c #FF980000",
"5 c #FF80502C",
"6 c #FF840084",
"7 c #FF9C009C",
"8 c #FFB400B4",
/* pixels */
"<<<;;;;;,<6,<;;;;;;;<<<<<<,;;;;;;;;;,<66<,,;;;;;;;;;;;;;,,,,,,,,",
"*66<;;;,<6<<,,;;;;;<67===*<,;;;;;;>,<6666<6<;;;;;;;;;,,,<66=====",
"=*666<;,<<,<<<,;;>,67==****,,>;;>>,><666<6<<,;;;;;;;,,,<66======",
"***6<,,,,,<<,,;:>>,67=*6<<*<,>>>,,>,<6<6<<,,,>>:>>:>>,,<6====&&,",
"6*%<6<,,,,,,>::>>,,<66<,<6=<>,***6<,,<6<,,**=***&&%%>>><6===$,&<",
"6*%66<<,<<66666<<,,,<6<66<&>,*===*6<,,<%%*=====***%*%>><6<=*$<&6",
"<6*<6<6<6666=<<66<<,,<,6<<$,*==&&*6<,$%==-===*&&$&$$*%>,<6=*$6&<",
"66*6<<<6*-6=*<,<<<6<,,,,<,%,=*&,,&<,$&=-----=%&%;&,,*$%>,6=*$6&,",
"<6*<,<6*--=*&<,,,,<<,<,,<<*<**,6<%6<$=--55--=%;%,&<<&,%>><*&$<&>",
",<*,<66--=**&<,,<,,,,,<<<<&,**<66$<$=&%55--=*$,$,&66&<%,>,*&$6&>",
",,$<<67-=**&%<,<<***&%,,,<%>%,6<<$>$&=<5-==*&$,,,66&&<%$,>,&$<,>",
",,$<667-**%%%<,<*====*<,,,,>%<6,<$:$&%<5==*&&&$6,6&&&&%$<,>&$>,>",
",,$<677<*%$<$,<,==*<*=6<,>::$>>>>::,&%6==*&,<&&$66&%%&%$<<,&$>>:",
",,$<76===*$>$>>*=*<<6*6<>;;:>>,#>>,>&%6#*&,<6<&$*=%$$6%$<6,>>>::",
",,,<6==*<<<< :>*=*,6<*6<>::>,,<66<>>%%6=,&<666=*=&$<<<%$<6<,>>::",
",,,<6=*<6776 ;>*=*,6,&<,:,%%%,<<<<>:%,6=6&,%&===&$<6<,<%$<<>::::",
",,,<6=<676<< ;>=6&,<,%>>>*==**%,<,:#%,4=6&%======&$<<,6%%$<>::::",
",,,<<=<76,,; ;>=6%,<,$>,=555#=*,,<:+#46,6&====&&&&$<6<<<%$$>::>,",
",,,<<=<7,<6, :>66<6<,>>6#=****=&,,oo#<<,,&==&& & &$<<,,6<$>;>>>,",
",,,,<<6<,6<, >,<66<,>>,6*<8#67*&%oo>#<6,&&=&% ,&,& <,<,6<$>:>,,<",
"<<<,,<6,,<<6<,<6<<,>>##448766&6++o,,#<<,,&=& ,<,<& <,<,<<%>><<<<",
"=66<,<<,<,,<6<,,,>>><6#4446=&&$+$$$,#<,,,&6& <<,, ,,<,><,%,<6--=",
"==*6<,,,,<6,,;;>,,<<6=#=44#*$,+@,$$%#%,#<&6% ,,,<<#<,>>>%&66--==",
"**=%<,,<666<,;;**$,<6=#<###+,<+@#@@@#*,,<<6$<,,,,6<,,>:;%*==--==",
"*&&%<6<<666<>;&*&%,#6=#<#++oXO@#@O%%@#&<<<6$6<<66#6<:;>>*=--666*",
",,%$$<<666<,;>=<,%,<6=#=#&oXoO##@O$&&%&&$6<<#6#<<,<;;:,<=--76<<<",
",,,%%<,<<<,%===,<$$#6##<#,<oO+##@O,,<##44##6<##<#>:;;:<6--776,<,",
"666&&,6<,,%&&*,,,$><66###<=##444444######$$<,,<,>>:::,6-=----=,,",
",<<**,<,>>%<<*<<6<>,<#=6474444##4######&#%$,>>,>***,,<6=-***--=<",
",<6=*6,>>>>,<%6#<,:>,6674###@@@@#####&#&#%$,>>>***,,<67=*688*==6",
"<6<**<,<,,,<<$%%%$::,664###@++++OO$O,&#&#%$<,%>**666667=686677=*",
"<6<&&6<6<,<67766<&$$<#7##=@+++++OO$O<<4&#%$<,>>*666<<67=68<<77**",
",6<%%6,<,,6887***6%#664#@*+O+++6OO,4666&#%$<,:>%<66<,66=67<,66&&",
",<6&&<<<,<787****#<,6##=@$OOOO+6O<<4666&O%$<,:>%<<<,<66=67<,<%%%",
",<6=*<66,677**%%<%6,6#<=@>o,oO+<:,<##<,@O%$<#:>%,,<,,<6*<6<><%%%",
"6,6*%<6<,667<*%%6%<,6@,%O,X,Xo+,:#<@@<,O$,<,>>>%>,,>,,<*<6<,>>&&",
",,6%%<<,,<66<%%%<%,#<+<%O<o,XoO:,,,OOO,O$,<,>,,%>>>>>>,&,<<<,,**",
",,<%<,,>><666%%%,%:>,+<*@,O:oo::#,,OO,<O$<6<<<<%>>>,,>>&;,<<<<==",
",,6<,>>>>,<<6<%,>%::>O,%O<,:+O:,,:,+<<,<$,<<666%>,<<<<,&>;>,,>==",
",,<,,,>>>>,<<,%,>>>>:O>$o,#6@+;::,,@6#@<,$,<66<%,<6666<,,:;;;;**",
",,,<<<<,<,>,<6666<>,>O,$o::<@O;::,<@6##,,$,6<,,%%**6666<<,::;;&%",
",,<6==6<6<,<6666666,<+, X::::o;:,,<#<,,<,>,>,6%**==**6<<6<,::;%%",
">,<=**&<<,<<66==&&<<6<> X::::o;,<<,,>>>,>:>,,<6*=*&,&<6<66<,::$$",
">,6*<<&,,<666===&&,,<,:$++++++>,,,,<,,>>#:>,<67==&%;%<666<6<,>$ ",
">,6&<6&6<66===**&%,,,>;%@&&#####+,,<<<,,>>>,<67&6%,;,,<6<,<,<, ;",
">,<&<,&<<66*6=,,&$,<,>;##==**=###+,<66<<,,,<6=7&6%;;,<66<,,<6< ;",
">,,%<66<66<&,6>,,$<6<>+&@5-=*=6###+<66<6<,<6==6%<,;,,%*76<<<6< ;",
":>,%<66<66<,6,><67$6<>+*@--===<76*=#6<6<<,<===6%<,,%%*=-6<6<<<,,",
">:>$<<<,<6<,,><<7<$<,+@=@==*===676**<6<6<<======,%%**=-*<<6<<6<$",
">:>$>,,,,<,,,<,<<$<6<,==*&=&*===676*%<<<<6==****=66---*%,,<<<6<$",
":;: :>>>,,<<>,>:;$,<,,6=&**%&***<66*%>,,<==**:>>,<<*%,*%,<66<6<$",
";;; :;::>>,,,<<::$>,%====*%*&&%%*=6*%:>,,=*<&>,,<66*%<*%<66<,<,,",
":;;;;:>>,,,,,,,>>$ %=&&%*%**%%%%%****%:>,&6<%,%**%$*66<%66&*%,,$",
">;; :>,,<<66666<,$%=&&$ %%*%%:,,<<&&**%$,%<6%<*&&%$*6<<%<&***%,$",
":;::>,<666=====6<,%*&$: $:%%$,6<<,%%%%&%:$,<%6<%:%$*<,,$6<<&&%>>",
"::::><677*=&&&&=6,%*$:: $:%%$<6666$$  &%>$:,$6<%:$$,,<,$<,<%%%>>",
"::::,<677=,<<<&&<,%*$:::$::,$,<666 $ :%$,,>:$<<$:%%,,6,$,,,%%%>>",
">::>,<67,&<6<6<&<, 66,,6$,6,$,<6<<  :>$ >,>:$>>$>&&$,,,$,<,,*&&,",
">::>,<6&&$&&6<6%<< ,66,,$,,,$<,<,:: ><$ :<:>$,>>,*<*$,,$<,,*5==&",
">::>&===<6<<<<<%<6 ,,,,,$$$$$<<,,,: <,$ :>>,$<<,6&6<$$,$,,*5=**6",
"$>><==**=<<66$$$$$$,,6,$%%%%%%$$$$$ $,$ :<,<666<,$$$$$$$$$=5*<$$",
"$$$6=><6&6,<$%%%%%%%%$$$*6****&&&%%%$$$ <6<<666%%%&&&&***=5*%6<$",
"$$$$*<6,%$$$%**==***%%%%%*=-5-==*****&&%%%%$$$$%%%&*======*%$$$$",
"31.$$$$$$$$$$$$$$$.1332.$$$$$$$$$$$$$$$$$$$.1221.$$$$$$$$$$$$.13"
};
