/* XPM */
static char *frame_083[] = {
/* columns rows colors chars-per-pixel */
"64 64 14 1 ",
"  c #FF382C14",
". c #FF403018",
"X c #FF483818",
"o c #FF543C1C",
"O c #FF5C4020",
"+ c #FF6C4824",
"@ c #FF744C28",
"# c #FF80502C",
"$ c #FF885830",
"% c #FF905C34",
"& c #FF9C6038",
"* c #FFA0643C",
"= c #FFA86840",
"- c #FFBC7848",
/* pixels */
"X=$$$$$$$**=======***==*****===$$-**************$$$$$$$*****$$$$",
"o$OOOO+++++@@@@@@+##$**&%*&%$$#OX&#######$$$$$$###@@##$$##+++++o",
"o$OOO+++++++++++O++#$**$$&*%$##OX&##$$$$%%&*&&&%$$$$$&%$#++++++o",
"o$OOOO+++OOOOOOO++@#$$#@#$$%$$#Oo*%%&*&&***=*****=*&&&$#@@@@@@+o",
"o$+++OOO++OO++++@$$$#@++@#$$%%$+o=***=*********&*=&$$$#@@####@+o",
"X$++++++++++++##$&&$#@@####$$&&+O=********&%$$$$$%$$#@@+@###@++o",
"X$+++++++++@#$$$$$$#@@####$$$$%+O=**&%$&&%$$#####$$$#+++@@@++++O",
"X$++++++++@$$$$##@@++@####$$$$$+o=&%$$#&%$#######$$$#++++++++++O",
"X$OOO++++@#$$##@+++++@@####$$$$+o=%$###%$#######@#$$#++++++++++O",
"X$OOOOO++#$#@++++++++@@######$$+O*$####%$######@+@#$$@++++++O++O",
"o$OOO+++###++++++++++@#######$$+o*$$$&*%$#####@+++@$$#@++++OO++o",
"o$+++@####++++++++++@########$$+o*$$&==%$###@++++++#$$#@+++++++o",
"o$+@#$$$#++++++++++@###########+o*%*===$###++++++++@#####@+++++o",
"O*####$$#+++++++++@@#########$$+O*&&==%$##++++++++++@#$%$#@@@@+O",
"O=#@++#$@+O++++++++@@@####$$$$%+o*$$$$##@+++++++++++@#$&$##@@@@O",
"O*++++##+OOO+++++++@+@@##$$%%$$+o*$$$#@++++++++++++@#$$$##@++@#O",
"o$OO+@$@+OOO+++++@@++@##$$$$$##Oo*$$#+++++++++++++@#$$#@++++++@O",
"o$OO+#$@OOO+++@#$$####$$$$#@@@#+o*$#@+++++++++@###$$$#@+++++++@O",
"o$OO+#$+OOO+#$$$$$$$$$$#@++++#$+o*##++++++@####$$$$$#++++@@@++@O",
"o$O+@$$+OO+#$$$$###$$#+++++@#$$+X&#@+++++@#$$$$$$$#@+++++@@@+@$+",
"X$O+#$#+++#$$##++++@++++++#$$$$OX&@@@############@+++++++@@@@#%+",
"X$O+#$#++#$#@+++OO+++++++#$$$$#OX&##$$$$$#@+++@@@++++++@@@@#$%&+",
"X$O+#$#@#$#@+OOoOOO++++@#$$$##@OX&$$$$###+++++@@@+++@###@@#$**$O",
"X$+#$###$#@+OOooO++++@#$$$####@OX*$$##++++++++++@@@#####@@$&*$#o",
"o$#$$$$$#@+OOooO+@###$$$$######Oo*#@+++++++++++@@#######@@$&$@+o",
"o*$$$$$#@++OOOO+@$$$$$$#####$$$+o&@+++++++++++@@########@#$$#++O",
"o=$$$$#@+++OO++#$#########$$$%%+X$+++++++++++@##########@#$$#@#+",
"O=$$$#+++++++@#$#@+@#$$$$$$$$$#O.$+++++++++++##########@@$%%$$$+",
"O-$$#++++++@#$$$#@@#$%&&$$$#@++o.$++++++++++@############$&&$$#O",
"+-$#++++++@#$$$$##$$$$$$##@++++o.$++++++++@@#########$$$$$$$#@+o",
"+-#+++++@##$%$$$$$$#@@@@+++++++OX$+++++@###########$$$%$$#@++++o",
"o$OooooOOOO++++++OOOooooooOOOOOX.$OOOOOOO+++OOOOO+++++++OOOoooo.",
"o$X....XXXXooooooXXX......XXXXX. #XXXXXXXoooXXXXXoooOOOoXXX.... ",
"O=$$$$$$$&**===*&$$$$$$$$$$$&&$+o*$$&&&*****&&&****===*&&&$$$$$+",
"o$++++++++$==*%#+++++++++++@@++OX$+@###$$$$###$$&***=*$###@++++o",
"o$++++++++$**$#++++++++++@@@+++OX&@@#########$&*******$$###@+++O",
"o$O+++++@#$$$@+++++++++@@#@++++OX&@####@@@@#$%&****&%$$$$$$$$##O",
"o$O+++@#$$##@++++++++++@##@+++@OX&@@++++++#$$%$$&&%$$#$$$%&&&%$+",
"o$++@#$$$#@@@#@@++++++@@@++++@@OX$+++++++@$$$$$$&%$###$$%&%$$$$O",
"o$+#$$$##@@@###@++++@@@++++++++O.$+++++++#$$$##&%$####$%%$$##@+o",
"o$#$$#@@+@@@@@@+++++@@@++++@@++o.$++++++#$$$##$$%%%%%%%%$$#@+++X",
"o*##@++++@@++++++++++@####$$$#@O.$+++++#$%$##$$&&&&**&%$$#@+++OX",
"O=#++++++++++++++++++#$$$$%%$$$OX&####$$&&$#$$&%$$$$$$$$##@++++X",
"O*+++++++++++++++++@######$$##$+o*$$%&%%&&%%&*&$$####$$$$$####@O",
"o$++++@++++++++++@####++++++++@OX&#$$%$$$$*==*%$$$$$$$$%$$$$$$$O",
"o$+++@@@+++@########++++OOOOO++o.$@#$#@@#$%*&$$%%%%$$$#####@@@+O",
"o$++@##@@##$$$$$$#+++OOOOOOOOOOX.$@##+++@#$$###$$$$##@@++++++++o",
"o$+######$$$$###@++OOOOOoooooOOX.&##@@@#$%$#++++@@++@#####@@+++O",
"o$#####$$$$#+++++OOOOOOooooooO+oX*$$#$$$&%$++++++++##$$$$$####$O",
"o*##$$$%$$#+++OOOOOOoooooO++++@+O*$$$$#$$$#++++++@#$$###@@+++@#O",
"O*#$$%&%$#@+++OOOOooooooO+#$$$%+O*$##@@##$$$##@#$$$#@++++OOOOO+o",
"O*$%&&%$##@+++OOooooooOO+$*--=*+o&@@@###$**&$$$$**$@+++++OOoooOX",
"O=%&%$$$##@+++OOooooO+@#$%=--=$OX&##$$$$&=*$$#@$&*$#++++++OOOOOo",
"O=%$$$$$###+++OOoooO+#&*%$%&%%$+X*$$$$$$$$#@++++#$$$##+++++++++o",
"O=$$#$$$##@++++OO+++#$**%$$$$$%+O*$$####$#+++++++@#$$$#++++++++o",
"O*########@+++@@@###$$$$######$+o*#@+@###+++++++++++@########@@O",
"o$++@@@@######$##@+@@++++++++@@OX$+++###++OO++++++++++#$$$$$$##O",
"o$+++++@##$$$$#++++++++++++++++o.$++@#++OOOO++++++OOO++@####$$#O",
"o$+++@##$$$$$#+++++++++++@+++++o.$+@@+OooOOOO++++++OO+++++++#$$O",
"o$@###$$$####++++++++++++++++++o.$@@+OooOOOOOO+++++++++++++++@#+",
"o*####@++++++++++++++++++++++++oX&#++OOOOOOOOO+++++++++++++++++O",
"O*++++OOOOO++++@@@@+++++++++@##OX&@+++++++OOOOO++++++++++OOOOOOo",
"O*++++OOOOO++++@@@@+++++++++@##OX&@+++++++OOOOO++++++++++OOOOOOo",
"o$oXXXXXooOO++###########@###$$OX$++O+++++OOOOOOOOOOOOOOOOOOOOo."
};
