/* XPM */
static char *frame_018[] = {
/* columns rows colors chars-per-pixel */
"64 64 76 1 ",
"  c #FF000000",
". c #FF28200C",
"X c #FF382C14",
"o c #FF202020",
"O c #FF2C2C2C",
"+ c #FF383838",
"@ c #FF4C0000",
"# c #FF580000",
"$ c #FF640000",
"% c #FF700000",
"& c #FF7C0000",
"* c #FF403018",
"= c #FF483818",
"- c #FF543C1C",
"; c #FF585400",
": c #FF706C00",
"> c #FF5C4020",
", c #FF6C4824",
"< c #FF744C28",
"1 c #FF004040",
"2 c #FF005858",
"3 c #FF007070",
"4 c #FF484848",
"5 c #FF545454",
"6 c #FF646464",
"7 c #FF707070",
"8 c #FF7C7C7C",
"9 c #FF880000",
"0 c #FF980000",
"q c #FFB00000",
"w c #FFBC0000",
"e c #FFC80000",
"r c #FFD40000",
"t c #FFE00000",
"y c #FFFC0000",
"u c #FFFC2020",
"i c #FF9C4C00",
"p c #FFB45400",
"a c #FF905C34",
"s c #FFE46C00",
"d c #FFFC7800",
"f c #FFFC4040",
"g c #FFFC5C5C",
"h c #FFFC7C7C",
"j c #FF848400",
"k c #FF9C9C00",
"l c #FFB4AC00",
"z c #FFFC8820",
"x c #FFCCC400",
"c c #FFE4D800",
"v c #FFFCF400",
"b c #FFFCF420",
"n c #FFFC9840",
"m c #FFFCA85C",
"M c #FFFCF85C",
"N c #FFFCFC7C",
"B c #FF008484",
"V c #FF009C9C",
"C c #FF00B4B4",
"Z c #FF00CCCC",
"A c #FF00E4E4",
"S c #FF00FCFC",
"D c #FF20FCFC",
"F c #FF8C8C8C",
"G c #FF989898",
"H c #FFA8A8A8",
"J c #FFB4B4B4",
"K c #FFFC9C9C",
"L c #FFFCFC9C",
"P c #FFFCFCB8",
"I c #FFC0C0C0",
"U c #FFD0D0D0",
"Y c #FFDCDCDC",
"T c #FFFCFCD8",
"R c #FFECECEC",
"E c #FFFCFCFC",
/* pixels */
"****************************************************************",
",,,,,,,,,,,,,,,,,,,,,,,,,,,,,,,,,,,,,,,,,,,,,,,,,,,,,,,,,,,,,,,,",
"aaaaaaaaaaaaaaaaaaaaaaaaaaaaaaaaaaaaaaaaaaaaaaaaaaaaaaaaaaaaaaaa",
"-------X-.X--------------X-.X----X-.X------X-.X-----------X-.X--",
"==,<<<<-a.-a>====<<=,=,==-a.-a<=<-a.-a>===>-a.-a=<==<=<=<<-a.-a,",
"==,<<<>-a.-a,===-<<=,=,==-a.-a<=<-a.-a<>=><-a.-a=<==<=<=<<-a.-a,",
"==><<TLvvvvvvvvvvvvvvvvvvvvvvvvvvvvvvvvvvvvvvvvvvvvvvvvvvvmi.-a,",
"-=-,<LvmmmmmmmmmmmmmmmmmmmmmmmmmmmmmmmmmmmmmmmmmmmmmmmmmmmdX.-a,",
",==><vmiiiiiiiiiiiiiiiiiiiiiiiiiiiiiiiiiiiiiiiiiiiiiiiiiidsX.-a-",
",=-=>vmiOOOOOOOOOOOOOOOOOOOOOOOOOOOOOOOOOOOOOOOOOOOOOOOOOmsX.-a-",
"<-==-vmiO223BBBVCCCVB33333333333333333333333333BBBBB32111msX.-a-",
"<-===vmiO2BVZCZZZZADKhhhggggggfffffgggggggghhhKSZZVB32223msX.-a=",
",<===vmiOBVZCZZZDKhgggggfffffyfyfyfyffffffggggghKSVBB333VmsX.-a=",
",<-==vmiOCZCZCCAghhhghgggfffffyfyfyffffffggghghhhgCVBBVVZmsX.-a=",
"><<=-vmiOCAZCCVghhhhhghgfgfffffyfyfyfffggfghghhhhhgCCCCAAmsX.-a=",
"-<<<-vmiOCSAZCgughhhghgggfffffyfyfyffffffggghghhhgugAAAADmsX.-a-",
"=,<<>vmiOVZSSC&tyghgyeeqqqqqqqqqqqqqqqqqqqqeeyghgyt&AAASZmsX.-a-",
"=,<<<vmiOVCSAA#&tyyqe223BBBB32444423BVVVVB555eqyyt&#ASSSDmsX.-a-",
"=>,<<vmiOBZASB&#0q&q52233322444444423BVVBB1B55q&q0#&SSDSAmsX.-a,",
"=-,<<vmiOBASCgqq#&##3JEEI84446IYEEG623BB8YEG55##&#qqgDDAAmsX.-a,",
"==><<vmiO3AVgggtq##5YEJ854144IYEY74 733357IEI5###qtgggAAAmsX.-a,",
"==-<<vmiO2Vghhggt05YEJ85O4111IEEEGEEY722+.7IE55&0tgghhgVZmsX.-a,",
"-=->-vmiO2ygghhgg5VEJ85OO5111IIRG67777215.O7YYG55gghhggyCmsX.-a,",
"-==-=vmiO2&ygghhBVYEG5OOO54118YIG8+111156.OOIEIG51hhggy&VmsX.-a,",
"-====vmiO2&tyggBVVEY85OOO85816YYHH851118F.O+GYEGVV1ggyt&VmsX.-a>",
",====vmiO2&qtyu5VVEJ6OO*55H888YRRIIF851F8.++FYEGBV5uytq&CmsX.-a-",
",====vmiO320qt&#51EG5OOOO5HIREEEEEEYG8FJ6O+48YEG35#&tq0BZmsX.-a-",
",-===vmiOBV20q%&#5EG5O+OOO5HYEEEEEEYG8B6OO+48YEG5#&%q0BZAmsX.-a=",
">-===vmiOVAV20#%##EG5OO+OOO5HERRRRRIG66OOO458YEG##%#0BZAAmsX.-a=",
"-,===vmiOCSAB#####EG5OOO++OO5YIIIIIH8+OOOO46FYEG#####ZAAAmsX.-a=",
"-,-==vmiOCSSAtq0&#EG5OOOOOOO5IIHHHH86+ooo+56GYEG#qqttZAZZmsX.-a=",
"=>-=,vmiOVSSSftq0#IG5+4OOOOO5YH888885+oOOO47GYEG#qttfCZCCmsX.-a=",
"=-,-,vmiOBSSgfttq#IJ5++44OOO5IG555565+oO+568JYEG#tttfgCCZmsX.-a=",
"=-,-,vmiO3Aghgft&5FE6+++++OO5I8444457++++58GIYUG5&tfghgZZmsX.-a=",
"==>,>vmiO3Btghg&515E8+O++O115H6OOOO7F6+445GJYEJG15&ghgtZZmsX.-a-",
"==->-vmiOVVqyg&1551IJ+O+O1117J8OOOOFJ74++7JIYEH7115&gyqZZmsX.-a-",
"===-=vmiOCC&0y&&#51FE6+OO1118UFooooFJ8+++6IYYIG31#&&y0&CZmsX.-a>",
"=====vmiOCZ2%0&&##55UH++O11OFUGooooUJF+++4YYEG71##&&0%3ZCmsX.-a,",
"=====vmiOVZV2####&#5FE6+111OHUHooooYJF++++YEJ75#&####3VCVmsX.-a,",
"-====vmiOBAZVB21&9&#5FI+O115YYYoooGYYY1+1+EJ75#&9&23BVBVVmsX.-a,",
"-====vmiO3CAgf&&+&q9#5G8O14YFYFEFYFFYFY111J75#9q&2&&fgVBBmsX.-a-",
",-===vmiO3Vghgqq&&qq#5555zmxxxxxxxxllkk:11111#qq&&qqghgV3msX.-a-",
",-===vmiO2gfghg&&&#q9$55mbNPPPPPLLNNbclj<111$9q#&&&ghgfgBmsX.-a=",
",>-=-vmiO2rtff&&##&#&#5mbNPLMMfwwwfxlkkj;<11#&#&##&&fftr3msX.-a=",
",,---vmiO1&qtt&121##&#51dxlMlww wwww-i-;-123#&##111&ttq&3msX.-a=",
">,>->vmiO12&&qq&121##515dblPfw &w@ w%j-;-2B32##111&qq&&13msX.-a=",
"-,,>,vmiO2B22###&&&&1551dblPww@ @ & 9j-;-3VB32&&&&###12BZmsX.-a=",
"-,,>,vmiO2CCB332#####115dblPwww@ @wwwj-;-2B31#####12233BZmsX.-a=",
"=,<<<vmiO3Chgw&322#9&#11dblPw & @ @w9j-;-121#&9#111&wg33BmsX.-a=",
"=><<<vmiO3hhgttw&&&09&#1dblPfw @w& w%j-;-22#&90&&&wttggV3msX.-a=",
"=-,<<vmiO3gghgt&&&qq09#1dblPlwwww w%-j-;-22#90qq&&&tghggVmsX.-a=",
"=-,<<vmiO2wtfh&11&&qq&#1dblPlNfwww%:-j-;-22#&qq&&55&hftwVmsX.-a-",
"==><,vmiO13wqt#0111&&#1dnNPELENbbcxljk,,;-11#&&3350#tqwVBmsX.-a-",
"==-,,vmiO2V3w#####13333p:;diiniiiii-<<<<--123BB1#####wVBBmsX.-a>",
"==-,>vmiO2BV22&qq0#3BBdnNNEPEENNbbcxljk,,;-2332#0qq&33BB3msX.-a>",
"===>>vmiO221&&&&&q&3BVp:;diindiiiii--<<<<--1222&q&&&&&333msX.-a,",
"===--vmiO111111+&&123dnNNEPPEENNbbcxlljj,,;-1111&&BBB3333msX.-a,",
"-====vmiO111111111212p:ddiinddiiiii---<<<,--111123BVB3333msX.-a<",
"-====vmdmmmmmmmmmmmmmmmmmmmmmmmmmmmmmmmmmmmmmmmmmmmmmmmmmmsX.-a<",
">====vmssssssssssssssssssssssssssssssssssssssssssssssssssssX.-a<",
">-===mXXXXXXXXXXXXXXXXXXXXXXXXXXXXXXXXXXXXXXXXXXXXXXXXXXXXXX.-a<",
",-===-,X>.->XXXXXXXXXXXXXX>.->XXXX>.->XXXXXX>.->XXXXXXXXXXX>.-a<",
",>===-,-a.-a====>====,<<>-a.-a,>=-a.-a=====-a.-a>=<>======-a.-a<",
">>>>>>>-a.-a>=======>>>>>-a.-a>==-a.-a>===>-a.-a>=>>======-a.-a>"
};
