/* XPM */
static char *frame_021[] = {
/* columns rows colors chars-per-pixel */
"64 64 49 1 ",
"  c #FF000000",
". c #FF28200C",
"X c #FF382C14",
"o c #FF202020",
"O c #FF2C2C2C",
"+ c #FF383838",
"@ c #FF4C0000",
"# c #FF640000",
"$ c #FF700000",
"% c #FF7C0000",
"& c #FF403018",
"* c #FF483818",
"= c #FF543C1C",
"- c #FF5C4020",
"; c #FF6C4824",
": c #FF744C28",
"> c #FF484848",
", c #FF545454",
"< c #FF646464",
"1 c #FF707070",
"2 c #FF880000",
"3 c #FF980000",
"4 c #FFA40000",
"5 c #FFA80000",
"6 c #FFD40000",
"7 c #FFFC0000",
"8 c #FF9C4C00",
"9 c #FFB45400",
"0 c #FF80502C",
"q c #FF885830",
"w c #FF905C34",
"e c #FF9C6038",
"r c #FFA0643C",
"t c #FFE46C00",
"y c #FFA86840",
"u c #FFB47044",
"i c #FFBC7848",
"p c #FFC87C4C",
"a c #FF848400",
"s c #FF9C9C00",
"d c #FFD08050",
"f c #FFDC8854",
"g c #FFE88C58",
"h c #FFF0945C",
"j c #FFFC9C60",
"k c #FFFCA470",
"l c #FFA8A8A8",
"z c #FFFCB080",
"x c #FFFCBC9C",
/* pixels */
"................................................................",
"&&&&&&&&&&&&&&&&&&&&&&&&&&&&&&&&&&&&&&&&&&&&&&&&&&&&&&&&&&&&&&&&",
"----------------------------------------------------------------",
"................................................................",
"..&****.-..-X....**.&.&...-..-*.*.-..-X...X.-..-.*..*.*.**.-..-&",
"..&***X.-..-&....**.&.&...-..-*.*.-..-*X.X*.-..-.*..*.*.**.-..-&",
"..X**sssssssssssssssssssssaaaaaaaaaaaaaaaaaaaaaaaaaaaaaaaaa9..-&",
"...&*s8888888888888888888888888888888888888888888888888888:=..-&",
"&..X*s8*************************************-------------a:=..-.",
"&...Xs8*++++++++++++++++++++++>>>>>>>>>>>>>>>>>>>,,,,,,,,a:=..-.",
"*....s8*+111111111111111111111111111111111111111111111111a:=..-.",
"*....s8*+111111111111111111,+OOOOOOO,<1111111111111111111a:=..-.",
"&*...s8*+11111111111111111OoooooooooooO,11111111111111111a;...-.",
"&*...s8*+1111111111111111OoooooOoo oooooO,111111111111111a;...-.",
"X**..s8*+111111111111111iy>oooOO<,O oOoooO,11111111111111a;...-.",
".***.s8*+111111111111111fhhh>yr>,<+ +>+oooO,1111111111111a;...-.",
".&**Xs8*+11111111111111ihjjkh>urOOo oOooooo+1111111111111a;...-.",
".&***s8*+11111111111111fhjjzh>uoooo oooooooO1111111111111a;...-.",
".X&**s8*+1111111111111fhhjzhhhdoooo oooooooo1111111111111s;...-&",
"..&**s8*+1111111111111ywrgzhhhhe00;-oooooooo1111111111111s;...-&",
"..X**s8*>11111111111111..;rzhhjgdwwww-oo ooO1111111111111s;...-&",
"...**s8*>1111111111111jyorgdhzgddiddw:&o ooO1111111111111s;...-&",
"...X.s8*>111111111111jxhighhhgddpf&wd&&  oO>1111111111111s;...-&",
".....s8*>11111111111zxzgfijhgddpigu-g&&  o>11111111111111s;...-&",
".....s8*>11111111111prrryfifffpiiuwdr&&  O111111111111111s;...-X",
"&....s8*>1111111111111o&gigffdpiyfgu=&&o >111111111111111s;...-.",
"&....a8*>1111111111111&0hgdgdpyrwu;===&&O1111111111111111s;...-.",
"&....a8*>1111111111111jffhgddyww0ri::=&&>1111111111111111s;...-.",
"X....a8*>1111111111111ugdhgfpyw00egir;&&11111111111111111s;...-.",
".&...a8*>1111111111111gjgifir0:0egggdrw==1111111111111111s;...-.",
".&...a8*>1111111111111dgirw0::0eiggrr:-==,<11111111111111s;...-.",
".X..&a8*>11111111111111110;;;0eigrr:::--X==><111111111111s;...-.",
"..&.&a8*>111111111111111111e0eegr::0:;=X--===><1111111111s;...-.",
"..&.&a8*>1111111111111111<ueeug::000=X-qqq::-;=><11111111s;...-.",
"..X&Xa8*>11111111111111<<uruue00ee=X-qeeeeeee00;=>1111111s;...-.",
"...X.a8*>1111111111111<>uuruyqee;X-qeeeeeeeeeee0;=,111111s;...-.",
".....a8*>111111111111<>=uquuyye=X0eeeew0-00eeeee0-=,11111s;...-X",
".....a8*>111111111111,-=uquuye==qeeeewq--0000;;;;;-=11111s;...-&",
".....a8*>11111111111<--=u-que==eeeeeeq:=-00;000;;;;=11111s;...-&",
".....a8*>11111111111,::=0=q=Xqeeeeeew:-&&eeeee00;--&11111s;...-&",
".....a8*>111111111110::=-=qq:eeeeeeeq-&&eeueee0e0==.11111s;...-.",
"&....a8*>1111111111<0::&=;qqeeeeeeeww-&eeueeu0:e0=&.11111s;...-.",
"&....a8*>1111111111,0::==qqrryyeeee0-&&eueeue0:e;=&.11111s;...-.",
"&X...a8*>1111111111q0::=;qrryyrrr=0;&&00eeeu0:qe;=&.11111s;...-.",
"&&...a8->111111111<qq:==qqrryrrr=0;;&,ll0uueq:ee-&.O11111s;...-.",
"X&X.Xa8->111111111,q:::=qq:=..rr=;&&,ooOl6u=0:ee=&.>11111s;...-.",
".&&X&a8->11111111<00::=;qerr..==;&,olollll6=:0ee=&.,11111s;...-.",
".&&X&a8-,11111111,www:=qqrry-w;;&%,OooooOl533:ee=.&111111s;...-.",
".&***a8-,1111111100ww==qerry:w;;%47lllolo15322:;&.&111111s;...-.",
".X***a8-,11111111ew::=-qerrrw;&03361ooOl1,322%$&.&&111111s;...-.",
"..&**a8-,11111111e:w:q:qerrr;&pry-X61ll1,322%$#X.&&111111s;...-.",
"..&**a8-,1111111uye:=e00;;;rpyqpyy-X6653322%$##@&&=111111s;...-.",
"..X*&a8-,1111111uuyeee00000pppqqpreeXX3322%$##@&&==111111s;...-.",
"...&&a8-,11111111uuuii000yyppyprppe00XX22%$##@&&&=;111111s;...-X",
"...&Xa8-,111111111uu1iieerpprrypppy00=X2%$##@&&&;;0111111s;...-X",
"...XXa8-,11111111111111uuuuuiyiiiipeq;=X$#@---qqqq1111111s;...-&",
".....a8-,111111111111111yyyyyyyyyyyyyqqo%o:qqqq1111111111s;...-&",
".....a8-,111111111111111111111111111111111111111111111111s;...-*",
".....a8tssssssssssssssssssssssssssssssssssssssssssssssssss;...-*",
"X....a000000::;;;;;;;;;;;;;;;;;;;;;;;;;;;;;;;;;;;;;;;;;;;;;...-*",
"X....0=====...................................................-*",
"&.....&.&..&..............&..&....&..&......&..&...........-..-*",
"&X....&.-..-....X....&**X.-..-&X..-..-......-..-X.*X.......-..-*",
"XXXXXXX.-..-X.......XXXXX.-..-X...-..-X...X.-..-X.XX.......-..-X"
};
