/* XPM */
static char *frame_019[] = {
/* columns rows colors chars-per-pixel */
"64 64 66 1 ",
"  c #FF000000",
". c #FF28200C",
"X c #FF382C14",
"o c #FF202020",
"O c #FF2C2C2C",
"+ c #FF383838",
"@ c #FF400000",
"# c #FF4C0000",
"$ c #FF580000",
"% c #FF640000",
"& c #FF700000",
"* c #FF7C0000",
"= c #FF403018",
"- c #FF483818",
"; c #FF543C1C",
": c #FF404000",
"> c #FF585400",
", c #FF706C00",
"< c #FF5C4020",
"1 c #FF6C4824",
"2 c #FF744C28",
"3 c #FF004040",
"4 c #FF005858",
"5 c #FF006C6C",
"6 c #FF007070",
"7 c #FF007474",
"8 c #FF007878",
"9 c #FF007C7C",
"0 c #FF484848",
"q c #FF545454",
"w c #FF646464",
"e c #FF707070",
"r c #FF7C7C7C",
"t c #FF880000",
"y c #FF980000",
"u c #FFA40000",
"i c #FFB00000",
"p c #FFBC0000",
"a c #FFC80000",
"s c #FFD40000",
"d c #FFE00000",
"f c #FFEC0000",
"g c #FF9C4C00",
"h c #FFB45400",
"j c #FF885830",
"k c #FFA0643C",
"l c #FFCC6000",
"z c #FFFC4040",
"x c #FFFC5C5C",
"c c #FF848400",
"v c #FF9C9C00",
"b c #FFB4AC00",
"n c #FFCCC400",
"m c #FFE4D800",
"M c #FFFCF400",
"N c #FFFCF420",
"B c #FF008484",
"V c #FF008C8C",
"C c #FF009898",
"Z c #FF009C9C",
"A c #FF00B4B4",
"S c #FF8C8C8C",
"D c #FF989898",
"F c #FFA8A8A8",
"G c #FFB4B4B4",
"H c #FFFCFC9C",
/* pixels */
"................................................................",
"================================================================",
"<<<<<<<<<<<<<<<<<<<<<<<<<<<<<<<<<<<<<<<<<<<<<<<<<<<<<<<<<<<<<<<<",
"................................................................",
"..=----.<..<X....--.=.=...<..<-.-.<..<X...X.<..<.-..-.-.--.<..<=",
"..=---X.<..<=....--.=.=...<..<-.-.<..<-X.X-.<..<.-..-.-.--.<..<=",
"..X--mnbbbbbbbbbbbbbbbbbbbbbbbbbbbbbbbbbbbbbbbbbbbbbbbbbbblX..<=",
"...=-nbllllllllllllllllllllllllllllllllllllllllllllllllllllX..<=",
"=..X-bl--------------------------------------------------l1X..<.",
"=...Xbl-                                                 h1X..<.",
"-....bl- 333345556665554443333333333333333333333333333OOOh1X..<.",
"-....bl- 3346669BBZAxzzzffffffdddddffffffffzzzxBB64333433h1X..<.",
"=-...bl- 34669BZAxzfffffdddddpdpdpdpddddddfffffzxB4434344h1X..<.",
"=-...bl- 4669BZAfzzzfzfffdddddpdpdpddddddfffzfzzzf6445444h1X..<.",
"X--..bl- 45996Bfzzzzzfzfdfdddddpdpdpdddffdfzfzzzzzf644546h1X..<.",
".---.bl- 559B6fsfzzzfzfffdddddpdpdpddddddfffzfzzzfsf6666Bh1X..<.",
".=--Xbl- 569B6@upfzfptt&&&&&&&&&&&&&&&&&&&&ttpfzfpu@69BBBh1X..<.",
".=---bl- 45996@@upp&t33333++OOooooO+344443ooot&ppu@@9BBZZh1X..<.",
".X=--bl- 44593@@$&@&o3333+OOooooooOO+34433O3oo&@&$@@BZZZZh1X..<=",
"..=--bl- 4566f&&@@@@3eGGr+ooo0rDGGooO+33+DG0oo@@@@&&fBZZBh1X..<=",
"..X--bl- 364fffu&@@oDGe+ooOoorDGDOo OO33oOrGro@@@&ufffBB9h1X..<=",
"...--bl- 34fzzffu$oDGe+oooOOOrGGGwGGeO++o.OrG0o@$uffzzf96h1X..<=",
"...X.bl- 3tffzzffo4Ge+ooooOOOrrFw0O++O+Oo.oODD0ooffzzffa6h1X..<=",
".....bl- 3tpffzz34DGoooooooOO+Drw+oOOOOoo.oorGrooOzzffpt4h1X..<=",
".....bl- 3*upff304GD+oooo+o+OoDDSw+oOOO+0.ooqDGo44iffpu&4h1X..<X",
"=....bl- 3@&upso++Geooo.oow+++DFFSr0+oO0+.oo0DGo34ospu&@6h1X..<.",
"=....bl- 33$&u@@oOG0oooooowrFGGGGGGDo+0eoooo+DGo3o@%u&$38h1X..<.",
"=....bl- 343$&@@@oG0ooooooowDGGGGGGDo+3ooooo+DGoo@@@&$38Vh1X..<.",
"X....bl- 4643$@@@@G+oooooooowGFFFFFroooooooo+DGo@@@@$37VCh1X..<.",
".=...bl- 6B63@@@@@G+oooooooooDrrrrrw+ooooooo+DGo@@@%%7VCZh1X..<.",
".=...bl- 6ZB6uu&&@G0ooooooooorrwwww+oooooooo0DGo@&&uuBVVVh1X..<.",
".X..=bl- 4BB4duu&@G0oooooooooDw+++++oooooooO0DGo@&uud9BBBh1X..<.",
"..=.=bl- 364fduuu@Geooooooooor+oooooooooooo+eDGo@uuudf9B9h1X..<.",
"..=.=bl- 34fzfdu@oDGooooooooor+oooooOooooo+0rDSoo@udfzf99h1X..<.",
"..X=Xbl- 33ufzf@oO0G+oooooOOow+ooooO0ooooo0wDGeoOo@fzfu66h1X..<.",
"...X.bl- 44&pf@OooOGeooooOOOOe+oooo0eOoooowrDGwoOOo%fp&56h1X..<.",
".....bl- 66@$p@@@oODGooooOOO+S0ooooqS+oooorDDro3O@@%p$@45h1X..<X",
".....bl- 663@$@@@@o0GwoooOOo0SqoooowS0ooooDDG+oO@@@@$@344h1X..<=",
".....bl- 4943@@@@@@oeGooOOOowSwoooorSwooooDGeoo@@@@@@3444h1X..<=",
".....bl- 3B6433O@#@@o0rooOOoDDDooooDDDOoOoGe+o@@#@3334554h1X..<=",
".....bl- 36Bii@@o@&#@oo+oOoD0D0G0D00D0DOOOe+o@#&@3@&df953h1X..<.",
"=....bl- 34fzfi&@@&&@oooo11>>>>>>>>:::X.OOOOO@&&@@&&fzf93h1X..<.",
"=....bl- 3fdfzft@@@&#@oo1vnNNNNmmbbvc,:X.OOO@#&@@@@fzfdf3h1X..<.",
"=X...bl- 3yudd@@@@@@@@o1vnNMnnd***d>:::XX.OO@@@@@@@%dduy3h1X..<.",
"==...bl- O@&uu@O3O@@@@oO1>:c:** ****XXXX.O++@@@@OOO%uu&@3h1X..<.",
"X=X.Xbl- O3@@&&@O3O@@oOo1v:Nd* @*@ *@:X:.+33+@@OOO@&&@@O3h1X..<.",
".==X=bl- 3333@@@@@@@OooO1v:N**@ @ @ #:X:.333++@@@@@@@O334h1X..<.",
".==X=bl- 3443333@@@@@OOo1v:N***@ @***:X:.+3+O@@@@@O333446h1X..<.",
".=---bl- 36zf*@333@#@@OO1v:N* @ @ @*#:X:.O+O@@#@OOO@*fB64h1X..<.",
".X---bl- 3zzfuu*@@@$#@@O1v:Nd* @*@ *@:X:.+3@@#$@@@*uuffB4h1X..<.",
"..=--bl- 3ffzfu@@@&&$#@O1v:N:**** *@X:X:.33@#$&&@@@ufzff+h1X..<.",
"..=--bl- 3*udz@OO@@&&@@O1v:N:md***@:X:X:.3+@@&&@@oo%zdu*3h1X..<.",
"..X-=bl- O3*&u@$OOO@@@O2kmNHMHmvv,>:::XX:.OO@@@OOo$%u&*33h1X..<.",
"...==bl- 333*@@@@@O3333;::j<<k<<<<=.X==...O+OOOO@@@&@*333h1X..<X",
"...=Xbl- 33333@&&$@3332kvmHNHHmmvv,>:::XX:.++++@$&&@33333h1X..<X",
"...XXbl- 33O@@@@@&@33;;::j<<k2<<<=XX.X==...O+3+@&@@@@@333h1X..<=",
".....bl- OOOOOOo@@O332kvmHNNHHmmvv,>::::XX:.OOOO@@O+33333h1X..<=",
".....bl- OOOOOOOOO3O32kjj<<k22<-=XX...XXX...OOOO+33333333h1X..<-",
".....bllhhhhhhhhhhhhhhhhhhhhhhhhhhhhhhhhhhhhhhhhhhhhhhhhhh1X..<-",
"X....bg1111111111111111111111111111111111111111111111111111X..<-",
"X....gXXXXXXXXXXXXXXXXXXXXXXXXXXXXXXXXXXXXXXXXXXXXXXXXXXXXXX..<-",
"=.....=.<..=..............=..=....=..=......=..=...........=..<-",
"=X....=.<..<....X....=--X.<..<=X..<..<......<..<X.-X.......<..<-",
"XXXXXXX.<..<X.......XXXXX.<..<X...<..<X...X.<..<X.XX.......<..<X"
};
