/* XPM */
static char *_[] = {
/* columns rows colors chars-per-pixel */
"128 128 37 1 ",
"  c #00000000",
". c #FF980000",
"X c #FFFC0000",
"o c #FFEC0000",
"O c #FFFC9C9C",
"+ c #FFFC5454",
"@ c #FFFC5C5C",
"# c #FFFCFC54",
"$ c #FFA8A8A8",
"% c #FF7C7C7C",
"& c #FF8C8C8C",
"* c #FFD0D0D0",
"= c #FFB4B4B4",
"- c #FF484848",
"; c #FF2C2C2C",
": c #FF989898",
"> c #FF646464",
", c #FF545454",
"< c #FF707070",
"1 c #FF000000",
"2 c #FF202020",
"3 c #FFA86840",
"4 c #FFF0945C",
"5 c #FFB47044",
"6 c #FFFCB080",
"7 c #FF543C1C",
"8 c #FFFCA470",
"9 c #FFFCC4A4",
"0 c #FFFCD8C4",
"q c #FFC87C4C",
"w c #FF744C28",
"e c #FF80502C",
"r c #FFE88C58",
"t c #FFDC8854",
"y c #FFFCB890",
"u c #FFFC9C60",
"i c #FFA0643C",
/* pixels */
"                                                                                                                                ",
"                                                                                                                                ",
"                                                                                                                                ",
"                                                                                                                                ",
"                                                                                                                                ",
"                                                                                                                                ",
"                                                                                                                                ",
"                                                                                                                                ",
"                                                                                                                                ",
"                                                                                                                                ",
"                                                                                                                                ",
"                                                                                                                                ",
"                                                                                                                                ",
"                                                                                                                                ",
"                                                                                                                                ",
"                                                                                                                                ",
"                                                                                                                                ",
"                                                                                                                                ",
"                                                                                                                                ",
"                                                                                                                                ",
"                                                                                                                                ",
"                                                                                                                                ",
"                                                                                                                                ",
"                                                                                                                                ",
"                                                                                                                                ",
"                                                                                                                                ",
"                                                                                                                                ",
"                                                                                                                                ",
"                                                                                                                                ",
"                                                                                                                                ",
"                                                                                                                                ",
"                                                                                                                                ",
"                                                                                                                                ",
"                                                                                                                                ",
"                                                                                                                                ",
"                                                                                                                                ",
"                                                                                                                                ",
"                                                                                                                                ",
"                                                                                                                                ",
"                                                                                                                                ",
"                                                                                                                                ",
"                                                                                                                                ",
"                                                                                                                                ",
"                                                                                                                                ",
"                                                                                                                                ",
"                                                                                                                                ",
"                                                                                                                                ",
"                                                                                                                                ",
"                                                                                                                                ",
"                                                                                                                                ",
"                                                                                                                                ",
"                                                                                                                                ",
"                                                                                                                                ",
"                                                                                                                                ",
"                                                                                                                                ",
"                                                                                                                                ",
"                                                                                                                                ",
"                                                                                                                                ",
"                                                                                                                                ",
"                                                                                                                                ",
"                                                                                                                                ",
"                                                                                                                                ",
"                                                                                                                                ",
"                                                                                                                                ",
"                                                                                                                                ",
"                                                                                                                                ",
"                                                                                                                                ",
"                                                                                                                                ",
"                                                                                                                                ",
"                                                                                                                                ",
"                                                                ..                                                              ",
"                                                                ..                                                              ",
"                                                              ..XX..                                                            ",
"                                                              ..XX..                                                            ",
"                                                        XX    ooOOoo    XX                                                      ",
"                                                        XX    ooOOoo    XX                                                      ",
"                                                          ++@@@@OO@@@@++                                                        ",
"                                                          ++@@@@OO@@@@++                                                        ",
"                                                          ooOOOO##OO++oo                                                        ",
"                                                          ooOOOO##OO++oo                                                        ",
"                                                        ..++##$$%%$$##++oo                                                      ",
"                                                        ..++##$$%%$$##++oo                                                      ",
"                                                      ..@@OO$$&&**&&$$OO@@..                                                    ",
"                                                      ..@@OO$$&&**&&$$OO@@..                                                    ",
"                                                        ..oo%%==**==%%oo..                                                      ",
"                                                        ..oo%%==**==%%oo..                                                      ",
"                                                            --==**==--                                                          ",
"                                                            --==**==--                                                          ",
"                                                          %%%%--%%--%%%%                                                        ",
"                                                          %%%%--%%--%%%%                                                        ",
"                                                        ;;%%::;;;;;;>>%%,,                                                      ",
"                                                        ;;%%::;;;;;;>>%%,,                                                      ",
"                                                        ;;%%$$<<%%<<>>%%--                                                      ",
"                                                        ;;%%$$<<%%<<>>%%--                                                      ",
"                                                        ;;%%$$::::::>>%%;;                                                      ",
"                                                        ;;%%$$::::::>>%%;;                                                      ",
"                                                        ;;--::$$$$$$----11                                                      ",
"                                                        ;;--::$$$$$$----11                                                      ",
"                                                        ;;22%%------11221133                                                    ",
"                                                        ;;22%%------11221133                                                    ",
"                                                      44;;22>>;;;;;;1122113355                                                  ",
"                                                      44;;22>>;;;;;;1122113355                                                  ",
"                                                    44666622>>;;;;;;1122773355                                                  ",
"                                                    44666622>>;;;;;;1122773355                                                  ",
"                                                    889900qq111111112222ww555555                                                ",
"                                                    889900qq111111112222ww555555                                                ",
"                                                    88660000qqeeeeee55rrrrttqq55                                                ",
"                                                    88660000qqeeeeee55rrrrttqq55                                                ",
"                                                  8866660000000099yy6688rrrrtt55                                                ",
"                                                  8866660000000099yy6688rrrrtt55                                                ",
"                                                  8866rr6600000099yy6688uurrttqq                                                ",
"                                                  8866rr6600000099yy6688uurrttqq                                                ",
"                                                  886688rr666666666688uuuurrttqq                                                ",
"                                                  886688rr666666666688uuuurrttqq                                                ",
"                                                  446666uuuu6666668888uuuurrttqq                                                ",
"                                                  446666uuuu6666668888uuuurrttqq                                                ",
"                                                  ::::::$$$$qq4444444444::::::%%%%                                              ",
"                                                  ::::::$$$$qq4444444444::::::%%%%                                              ",
"                                                ::$$$$::&&<<>>3333ii>>::$$$$::::%%>>                                            ",
"                                                ::$$$$::&&<<>>3333ii>>::$$$$::::%%>>                                            ",
"                                              ::$$$$::::%%<<>>,,-->>%%&&$$$$::::::%%>>                                          ",
"                                              ::$$$$::::%%<<>>,,-->>%%&&$$$$::::::%%>>                                          ",
"                                            ::$$$$::::%%%%<<>>,,,,>>%%&&::&&&&&&::::>>,,                                        ",
"                                            ::$$$$::::%%%%<<>>,,,,>>%%&&::&&&&&&::::>>,,                                        ",
"                                            %%%%::::%%<<>>>>>>,,,,>>%%>>%%::$$$$::::%%>>--                                      ",
"                                            %%%%::::%%<<>>>>>>,,,,>>%%>>%%::$$$$::::%%>>--                                      ",
"                                          ==::$$$$::::%%%%<<>>,,,,>>>>>>::::::$$$$::%%>>----                                    ",
"                                          ==::$$$$::::%%%%<<>>,,,,>>>>>>::::::$$$$::%%>>----                                    "
};
