/* XPM */
static char *shoot[] = {
/* columns rows colors chars-per-pixel */
"128 128 64 1 ",
"  c #00000000",
". c #FFA8A8A8",
"X c #FF8C8C8C",
"o c #FF7C7C7C",
"O c #FF545454",
"+ c #FF484848",
"@ c #FFD0D0D0",
"# c #FF383838",
"$ c #FF646464",
"% c #FF202020",
"& c #FF989898",
"* c #FF707070",
"= c #FFC0C0C0",
"- c #FFECECEC",
"; c #FF2C2C2C",
": c #FFC80000",
"> c #FFB45400",
", c #FF000000",
"< c #FF640000",
"1 c #FFFC5C5C",
"2 c #FFFCA85C",
"3 c #FF744C28",
"4 c #FFFC4040",
"5 c #FF980000",
"6 c #FFFC8820",
"7 c #FFFCF400",
"8 c #FF483818",
"9 c #FFFCA470",
"0 c #FFE88C58",
"q c #FFEC0000",
"w c #FF403018",
"e c #FF905C34",
"r c #FFA86840",
"t c #FFFCB890",
"y c #FFC87C4C",
"u c #FFA0643C",
"i c #FF80502C",
"p c #FF9C6038",
"a c #FFD08050",
"s c #FFF0945C",
"d c #FFFC9C60",
"f c #FF885830",
"g c #FFB47044",
"h c #FFBC7848",
"j c #FFFCB080",
"k c #FFFC2020",
"l c #FF5C4020",
"z c #FF6C4824",
"x c #FF28200C",
"c c #FF382C14",
"v c #FF543C1C",
"b c #FFDC8854",
"n c #FF00007C",
"m c #FF000040",
"M c #FF0000A8",
"N c #FF000070",
"B c #FF00004C",
"V c #FF000064",
"C c #FF0000E0",
"Z c #FF0000D4",
"A c #FF000088",
"S c #FF0000B0",
"D c #FF000098",
"F c #FF500050",
/* pixels */
"                                                                                                                                ",
"                                                                                                                                ",
"                                                                                                                                ",
"                                                                                                                                ",
"                                                                                                                                ",
"                                                                                                                                ",
"                                                                                                                                ",
"                                                                                                                                ",
"                                                                                                                                ",
"                                                                                                                                ",
"                                                                                                                                ",
"                                                                                                                                ",
"                                                                                                                                ",
"                                                                                                                                ",
"                                                                                                                                ",
"                                                                                                                                ",
"                                                                                                                                ",
"                                                                                                                                ",
"                                                                                                                                ",
"                                                                                                                                ",
"                                                                                                                                ",
"                                                                                                                                ",
"                                                                                                                                ",
"                                                                                                                                ",
"                                                                                                                                ",
"                                                                                                                                ",
"                                                                                                                                ",
"                                                                                                                                ",
"                                                                                                                                ",
"                                                                                                                                ",
"                                                                                                                                ",
"                                                                                                                                ",
"                                                                                                                                ",
"                                                                                                                                ",
"                                                                                                                                ",
"                                                                                                                                ",
"                                                            ....XXooOO++                                                        ",
"                                                            ....XXooOO++                                                        ",
"                                                          ..@@XXOOOO++##++                                                      ",
"                                                          ..@@XXOOOO++##++                                                      ",
"                                                          XXXX$$OOOO++##%%                                                      ",
"                                                          XXXX$$OOOO++##%%                                                      ",
"                                                          &&oo**OOOO++##%%                                                      ",
"                                                          &&oo**OOOO++##%%                                                      ",
"                                                        &&==--==XX**$$OO;;%%                                                    ",
"                                                        &&==--==XX**$$OO;;%%                                                    ",
"                                                      &&::;;>>>>>>>>>>;;,,;;%%                                                  ",
"                                                      &&::;;>>>>>>>>>>;;,,;;%%                                                  ",
"                                                          <<11>>22>>11<<33::                                                    ",
"                                                          <<11>>22>>11<<33::                                                    ",
"                                                      44<<556677777766>>88                                                      ",
"                                                      44<<556677777766>>88                                                      ",
"                                                        <<>>2277--7722>>,,                                                      ",
"                                                        <<>>2277--7722>>,,                                                      ",
"                                                    9900,,>>qq112277qq>>,,wweerr                                                ",
"                                                    9900,,>>qq112277qq>>,,wweerr                                                ",
"                                              tt99yyuuiiww<<116666>>11<<>>rrrriippaa                                            ",
"                                              tt99yyuuiiww<<116666>>11<<>>rrrriippaa                                            ",
"                                            rr9999ssdd::99ff<<>>>>>><<,,,,ddddddddppgg                                          ",
"                                            rr9999ssdd::99ff<<>>>>>><<,,,,ddddddddppgg                                          ",
"                                            hh9999dddd99ppjjkkgg99>>hhhhppllaaaahhhhgg                                          ",
"                                            hh9999dddd99ppjjkkgg99>>hhhhppllaaaahhhhgg                                          ",
"                                            hhtt00rraahhzzjjjjggtt99hhhhppllrrrrrree33                                          ",
"                                            hhtt00rraahhzzjjjjggtt99hhhhppllrrrrrree33                                          ",
"                                              hhrruuppffffllffffffrrxxxx,,,,ll333333cc                                          ",
"                                              hhrruuppffffllffffffrrxxxx,,,,ll333333cc                                          ",
"                                              llllllll88cc%%%%xx,,888888ggff88xxcccc                                            ",
"                                              llllllll88cc%%%%xx,,888888ggff88xxcccc                                            ",
"                                                  iixxxxwwvv%%%%%%++aaggggff88xx                                                ",
"                                                  iixxxxwwvv%%%%%%++aaggggff88xx                                                ",
"                                                    ff88xxwwii%%%%%%++gguuffllcc                                                ",
"                                                    ff88xxwwii%%%%%%++gguuffllcc                                                ",
"                                                    yyffvv88wwii,,%%%%%%ffllcc                                                  ",
"                                                    yyffvv88wwii,,%%%%%%ffllcc                                                  ",
"                                                    yyssppvvwwww,,ff,,,,,,llxx                                                  ",
"                                                    yyssppvvwwww,,ff,,,,,,llxx                                                  ",
"                                                    OO++##%%%%XXXXOO%%%%%%,,,,                                                  ",
"                                                    OO++##%%%%XXXXOO%%%%%%,,,,                                                  ",
"                                                    OO++##%%%%OOOOOO%%%%%%,,,,                                                  ",
"                                                    OO++##%%%%OOOOOO%%%%%%,,,,                                                  ",
"                                                    yyssppaa3333ww3333cczzllxx                                                  ",
"                                                    yyssppaa3333ww3333cczzllxx                                                  ",
"                                                  yyssssbbaagg33;;333333iizz88cc                                                ",
"                                                  yyssssbbaagg33;;333333iizz88cc                                                ",
"                                                  yyssssaaaagg33;;33uueeeezz88cc                                                ",
"                                                  yyssssaaaagg33;;33uueeeezz88cc                                                ",
"                                                yyssssssaaaagg;;;;vvuueeeeii88cc                                                ",
"                                                yyssssssaaaagg;;;;vvuueeeeii88cc                                                ",
"                                                yyssssaaaagg33;;xx;;33eeffii88ccxx                                              ",
"                                                yyssssaaaagg33;;xx;;33eeffii88ccxx                                              ",
"                                                eeff3333wwww,,xxccxx,,,,,,,,,,,,xx                                              ",
"                                                eeff3333wwww,,xxccxx,,,,,,,,,,,,xx                                              ",
"                                                ggbb0000hhllwwxx  xxlluuhhbbuuiixx                                              ",
"                                                ggbb0000hhllwwxx  xxlluuhhbbuuiixx                                              ",
"                                              ggyy00ddddhhiiwwxx  xxllhhbbddgguuww                                              ",
"                                              ggyy00ddddhhiiwwxx  xxllhhbbddgguuww                                              ",
"                                              ggyyddjjddhhffxx      xxeeaabbddggww                                              ",
"                                              ggyyddjjddhhffxx      xxeeaabbddggww                                              ",
"                                              ggbbjjjj33hhllxx      xxzz33ppddddllww                                            ",
"                                              ggbbjjjj33hhllxx      xxzz33ppddddllww                                            ",
"                                              ggjjaahhss33xx          xxhhddbbuuuuww                                            ",
"                                              ggjjaahhss33xx          xxhhddbbuuuuww                                            ",
"                                            ggbbddjjhh8833wwxx      xxlllluubbdduullxx                                          ",
"                                            ggbbddjjhh8833wwxx      xxlllluubbdduullxx                                          ",
"                                            ggbbddjjhhee88xx          xxeehhbbbbuullxx                                          ",
"                                            ggbbddjjhhee88xx          xxeehhbbbbuullxx                                          ",
"                                            gg00ddddhhffllxx          xxeeaaaaaauullxx                                          ",
"                                            gg00ddddhhffllxx          xxeeaaaaaauullxx                                          ",
"                                            eehhhhhh3333ww            xxlleeeellllxxxx                                          ",
"                                            eehhhhhh3333ww            xxlleeeellllxxxx                                          ",
"                                            ,,%%%%%%%%%%,,              ,,%%%%%%%%,,                                            ",
"                                            ,,%%%%%%%%%%,,              ,,%%%%%%%%,,                                            ",
"                                            ,,nnnnmm%%%%                ,,MMNNmmmm,,                                            ",
"                                            ,,nnnnmm%%%%                ,,MMNNmmmm,,                                            ",
"                                            ,,MMBBmm%%%%                ,,VVMMBBmm,,                                            ",
"                                            ,,MMBBmm%%%%                ,,VVMMBBmm,,                                            ",
"                                            ,,CCnnmm%%%%                  %%MMCCmm%%,,                                          ",
"                                            ,,CCnnmm%%%%                  %%MMCCmm%%,,                                          ",
"                                            ,,MMBBmm%%                    ,,VVMMBB%%,,                                          ",
"                                            ,,MMBBmm%%                    ,,VVMMBB%%,,                                          ",
"                                            VVMMBB%%,,                      %%MMNNmm,,                                          ",
"                                            VVMMBB%%,,                      %%MMNNmm,,                                          ",
"                                          ;;MMZZnnBB%%,,                  %%AAZZSSSSNN,,                                        ",
"                                          ;;MMZZnnBB%%,,                  %%AAZZSSSSNN,,                                        ",
"                                        ;;MMNNNNmmBB%%,,                  ,,MMDDNNmmmm%%,,                                      ",
"                                        ;;MMNNNNmmBB%%,,                  ,,MMDDNNmmmm%%,,                                      ",
"                                        %%%%%%%%%%%%,,                      ,,%%%%%%%%%%,,                                      ",
"                                        %%%%%%%%%%%%,,                      ,,%%%%%%%%%%,,                                      "
};
