/* XPM */
static char *_[] = {
/* columns rows colors chars-per-pixel */
"128 128 55 1 ",
"  c #00000000",
". c #FF7C0000",
"X c #FFA80000",
"o c #FFFC0000",
"O c #FFFC5454",
"+ c #FFFC7C7C",
"@ c #FFFCB8B8",
"# c #FFFCFC54",
"$ c #FFA40000",
"% c #FFD40000",
"& c #FF880000",
"* c #FF980000",
"= c #FFFCFCB8",
"- c #FFBC0000",
"; c #FFB00000",
": c #FFC80000",
"> c #FFFCFC7C",
", c #FFFCFCFC",
"< c #FFFCFC9C",
"1 c #FFFCFCD8",
"2 c #FFFC9C9C",
"3 c #FF9CDCDC",
"4 c #FF20B0B0",
"5 c #FF48C0C0",
"6 c #FF008484",
"7 c #FFA8A8A8",
"8 c #FFB4B4B4",
"9 c #FF7C7C7C",
"0 c #FFFC2020",
"q c #FF580000",
"w c #FF646464",
"e c #FF484848",
"r c #FF989898",
"t c #FF202020",
"y c #FF2C2C2C",
"u c #FF545454",
"i c #FF007474",
"p c #FFFC4040",
"a c #FF004040",
"s c #FF008C8C",
"d c #FF006C6C",
"f c #FF007070",
"g c #FFB8E8E8",
"h c #FF74C8C8",
"j c #FF005858",
"k c #FF383838",
"l c #FF00A4A4",
"z c #FF009898",
"x c #FF20B4B4",
"c c #FF009C9C",
"v c #FF00B4B4",
"b c #FF700000",
"n c #FFD8F4F4",
"m c #FF007C7C",
"M c #FF020300",
/* pixels */
"                                                                                                                                ",
"                                                                                                                                ",
"                                                                                                                                ",
"                                                                                                                                ",
"                                                                                                                                ",
"                                                                                                                                ",
"                                                                                                                                ",
"                                                                                                                                ",
"                                                                                                                                ",
"                                                                                                                                ",
"                                                                                                                                ",
"                                                                                                                                ",
"                                                                                                                                ",
"                                                                                                                                ",
"                                                                                                                                ",
"                                                                                                                                ",
"                                                                                                                                ",
"                                                                                                                                ",
"                                                                                                                                ",
"                                                                                                                                ",
"                                                                                                                                ",
"                                                                                                                                ",
"                                                                                                                                ",
"                                                                                                                                ",
"                                                                                                                                ",
"                                                                                                                                ",
"                                                                                                                                ",
"                                                                                                                                ",
"                                                                                                                                ",
"                                                                                                                                ",
"                                                                                                                                ",
"                                                                                                                                ",
"                                                                                                                                ",
"                                                                                                                                ",
"                                                                                                                                ",
"                                                                                                                                ",
"                                                                                                                                ",
"                                                                                                                                ",
"                                                                                                                                ",
"                                                                                                                                ",
"                                                                                                                                ",
"                                                                                                                                ",
"                                                                                                                                ",
"                                                                                                                                ",
"                                                                                                                                ",
"                                                                                                                                ",
"                                                                                                                                ",
"                                                                                                                                ",
"                                                                                                                                ",
"                                                                                                                                ",
"                                                                                                                                ",
"                                                                                                                                ",
"                                                                                                                                ",
"                                                                                                                                ",
"                                                                                                                                ",
"                                                                                                                                ",
"                                                                                                                                ",
"                                                                                                                                ",
"                                                                                                                                ",
"                                                                                                                                ",
"                                                                ..                                                              ",
"                                                                ..                                                              ",
"                                                              ..XX..                                                            ",
"                                                              ..XX..                                                            ",
"                                                              ..oo..                                                            ",
"                                                              ..oo..                                                            ",
"                                                            ..ooOOXX..                                                          ",
"                                                            ..ooOOXX..                                                          ",
"                                                          ..XXOO++OOXX..                                                        ",
"                                                          ..XXOO++OOXX..                                                        ",
"                                                        ....oo++@@++ooXX..        ......                                        ",
"                                                        ....oo++@@++ooXX..        ......                                        ",
"                                                      ..XXoo++@@##@@++ooXX..  ..$$%%%%..                                        ",
"                                                      ..XXoo++@@##@@++ooXX..  ..$$%%%%..                                        ",
"                                  &&&&**          ....XXoo++@@##==##@@++oo--..XXoooo%%$$                                        ",
"                                  &&&&**          ....XXoo++@@##==##@@++oo--..XXoooo%%$$                                        ",
"                                  &&;;::....    ..XX::oo++@@##>>,,<<##@@++oo--OOOOoo$$                                          ",
"                                  &&;;::....    ..XX::oo++@@##>>,,<<##@@++oo--OOOOoo$$                                          ",
"                                  **::oooo%%..--XXOOoo++@@##>>11,,11>>##@@22OOOOOO%%..                                          ",
"                                  **::oooo%%..--XXOOoo++@@##>>11,,11>>##@@22OOOOOO%%..                                          ",
"                                    ..ooOOOOoo%%::ooOO22####<<,,,,,,==>>##@@22OOoo$$..........                                  ",
"                                    ..ooOOOOoo%%::ooOO22####<<,,,,,,==>>##@@22OOoo$$..........                                  ",
"                                      ::OO@@++OOoooo++@@##>>==,,,,,,==<<####@@OO%%%%oo++ooXX..                                  ",
"                                      ::OO@@++OOoooo++@@##>>==,,,,,,==<<####@@OO%%%%oo++ooXX..                                  ",
"                                      --oo++##@@22OO@@####<<==,,3344==<<######++++++@@##++%%..                                  ",
"                                      --oo++##@@22OO@@####<<==,,3344==<<######++++++@@##++%%..                                  ",
"                                      ..%%OO@@,,<<22@@##<<5566,,33446655<<####@@@@,,==@@%%..                                    ",
"                                      ..%%OO@@,,<<22@@##<<5566,,33446655<<####@@@@,,==@@%%..                                    ",
"                                      ..%%OO++,,,,,,<<7777777777777777777777<<,,,,,,==++..                                      ",
"                                      ..%%OO++,,,,,,<<7777777777777777777777<<,,,,,,==++..                                      ",
"                                      $$ooOO22,,,,889999999999999999999999999988,,,,2200$$..qqqq                                ",
"                                      $$ooOO22,,,,889999999999999999999999999988,,,,2200$$..qqqq                                ",
"                              ......$$--oo++@@<<88wweeeeeeeeeeeeeeeeeeeeeeeeeeww8811##22oooo%%--$$qqqq                          ",
"                              ......$$--oo++@@<<88wweeeeeeeeeeeeeeeeeeeeeeeeeeww8811##22oooo%%--$$qqqq                          ",
"                      ....$$--%%ooooOO++22@@##rrwweettyyuuuuyy66iiuuyyuuuuyytteewwrr####@@22++OOppoo%%--$$qqqq                  ",
"                      ....$$--%%ooooOO++22@@##rrwweettyyuuuuyy66iiuuyyuuuuyytteewwrr####@@22++OOppoo%%--$$qqqq                  ",
"              ....$$--%%%%ooooOO++@@##########99eettaaiissddffgghh66aajjssuuyytteeuu##########@@++++OOoooooo%%$$..qqqq          ",
"              ....$$--%%%%ooooOO++@@##########99eettaaiissddffgghh66aajjssuuyytteeuu##########@@++++OOoooooo%%$$..qqqq          ",
"                      ..$$XXXX%%oooo++22@@##77wwuukkiigg3366ll,,3366aajj55ssyyyyyyee99##@@22++OOppoo%%XX$$....                  ",
"                      ..$$XXXX%%oooo++22@@##77wwuukkiigg3366ll,,3366aajj55ssyyyyyyee99##@@22++OOppoo%%XX$$....                  ",
"                          ....$$$$--%%oo22##wwjj55uu55,,33zzhh,,33zzjjyysslluuyyaayyee##22ppoo%%;;**....                        ",
"                          ....$$$$--%%oo22##wwjj55uu55,,33zzhh,,33zzjjyysslluuyyaayyee##22ppoo%%;;**....                        ",
"                                    $$oo++++yy5555ss,,gghh4433,,33lluuyy66xx66yyuuyyee22++oo--..                                ",
"                                    $$oo++++yy5555ss,,gghh4433,,33lluuyy66xx66yyuuyyee22++oo--..                                ",
"                                    $$%%ooOOyy,,cc55,,ggxx5533,,3344iiyyff5544uuyyeeyyOOoo--                                    ",
"                                    $$%%ooOOyy,,cc55,,ggxx5533,,3344iiyyff5544uuyyeeyyOOoo--                                    ",
"                                  ..XX$$%%..55ggccgg,,33zz55gg,,gg44ssuujjss55uuyyuujj..XX..                                    ",
"                                  ..XX$$%%..55ggccgg,,33zz55gg,,gg44ssuujjss55uuyyuujj..XX..                                    ",
"                                    ..    %%,,vvhh,,gg33,,,,gggg33hhllss6666xxssyyjjjj%%$$                                      ",
"                                    ..    %%,,vvhh,,gg33,,,,gggg33hhllss6666xxssyyjjjj%%$$                                      ",
"                                          55ggccgg,,3355,,gg,,gg33hhxxzzffffxxxxiiyyuuuubb                                      ",
"                                          55ggccgg,,3355,,gg,,gg33hhxxzzffffxxxxiiyyuuuubb                                      ",
"                                          gg33vv333333nnggnn,,gg33hhxx44ddjjhhggxxddaajj                                        ",
"                                          gg33vv333333nnggnn,,gg33hhxx44ddjjhhggxxddaajj                                        ",
"                                        5533nngg,,nngg,,gg,,,,gg33hhxx44iijj6644ss44ssaaaadd                                    ",
"                                        5533nngg,,nngg,,gg,,,,gg33hhxx44iijj6644ss44ssaaaadd                                    ",
"                                      ss33,,33,,,,gggg,,gg,,,,gg33hhxx44ssjjjjzz44ssffiittaadd                                  ",
"                                      ss33,,33,,,,gggg,,gg,,,,gg33hhxx44ssjjjjzz44ssffiittaadd                                  ",
"                                    ss33ggnn33,,nnggnngggg,,,,gg33hhxx44zzddjj6644zzmmddaattaadd                                ",
"                                    ss33ggnn33,,nnggnngggg,,,,gg33hhxx44zzddjj6644zzmmddaattaadd                                ",
"                                  ss55gg,,33gg,,nngg,,ggnn,,,,gg33hhxx44lliijjffzz44ssffddaattaadd                              ",
"                                  ss55gg,,33gg,,nngg,,ggnn,,,,gg33hhxx44lliijjffzz44ssffddaattaadd                              ",
"                                ss5533nnnn33nn,,gggg,,gg,,,,,,gg33hhxx44lliijjjj6644zzmmddjjaattaa                              ",
"                                ss5533nnnn33nn,,gggg,,gg,,,,,,gg33hhxx44lliijjjj6644zzmmddjjaattaa                              ",
"                                5533nn,,33gg,,nnggnngggg,,,,,,gg33hhxx4444ssddjjffzz44ssmmddaattttdd                            ",
"                                5533nn,,33gg,,nnggnngggg,,,,,,gg33hhxx4444ssddjjffzz44ssmmddaattttdd                            ",
"                              5533ggnn,,33nn,,nngg,,ggnn,,,,,,gg33hhxx4444ssiijjff6644ss66ddddaattaa                            ",
"                              5533ggnn,,33nn,,nngg,,ggnn,,,,,,gg33hhxx4444ssiijjff6644ss66ddddaattaa                            "
};
