/* XPM */
static char *_[] = {
/* columns rows colors chars-per-pixel */
"128 128 27 1 ",
"  c #00000000",
". c #FFFCFCFC",
"X c #FFB8E8E8",
"o c #FF008484",
"O c #FFA8A8A8",
"+ c #FF006C6C",
"@ c #FF005858",
"# c #FF004040",
"$ c #FF000000",
"% c #FF2C2C2C",
"& c #FF202020",
"* c #FF545454",
"= c #FF007474",
"- c #FF008C8C",
"; c #FF007070",
": c #FF74C8C8",
"> c #FF9CDCDC",
", c #FF00A4A4",
"< c #FF48C0C0",
"1 c #FF009898",
"2 c #FF20B0B0",
"3 c #FF20B4B4",
"4 c #FF009C9C",
"5 c #FF00B4B4",
"6 c #FFD8F4F4",
"7 c #FF007C7C",
"8 c #FF020300",
/* pixels */
"                                                                                                                                ",
"                                                                                                                                ",
"                                                                                                                                ",
"                                                                                                                                ",
"                                                                                                                                ",
"                                                                                                                                ",
"                                                                                                                                ",
"                                                                                                                                ",
"                                                                                                                                ",
"                                                                                                                                ",
"                                                                                                                                ",
"                                                                                                                                ",
"                                                                                                                                ",
"                                                                                                                                ",
"                                                                                                                                ",
"                                                                                                                                ",
"                                                                                                                                ",
"                                                                                                                                ",
"                                                                                                                                ",
"                                                                                                                                ",
"                                                                                                                                ",
"                                                                                                                                ",
"                                                                                                                                ",
"                                                                                                                                ",
"                                                                                                                                ",
"                                                                                                                                ",
"                                                                                                                                ",
"                                                                                                                                ",
"                                                                                                                                ",
"                                                                                                                                ",
"                                                                                                                                ",
"                                                                                                                                ",
"                                                                                                                                ",
"                                                                                                                                ",
"                                                                                                                                ",
"                                                                                                                                ",
"                                                                                                                                ",
"                                                                                                                                ",
"                                                                                                                                ",
"                                                                                                                                ",
"                                                                                                                                ",
"                                                                                                                                ",
"                                                                                                                                ",
"                                                                                                                                ",
"                                                                                                                                ",
"                                                                                                                                ",
"                                                                                                                                ",
"                                                                                                                                ",
"                                                                                                                                ",
"                                                                                                                                ",
"                                                                                                                                ",
"                                                                                                                                ",
"                                                                                                                                ",
"                                                                                                                                ",
"                                                                                                                                ",
"                                                                                                                                ",
"                                                                                                                                ",
"                                                                                                                                ",
"                                                                                                                                ",
"                                                                                                                                ",
"                                                                                                                                ",
"                                                                                                                                ",
"                                                                                                                                ",
"                                                                                                                                ",
"                                                                                                                                ",
"                                                                                                                                ",
"                                                                                                                                ",
"                                                                                                                                ",
"                                                                                                                                ",
"                                                                                                                                ",
"                                                                                                                                ",
"                                                                                                                                ",
"                                                                                                                                ",
"                                                                                                                                ",
"                                                                                                                                ",
"                                                                                                                                ",
"                                                                                                                                ",
"                                                                                                                                ",
"                                                                                                                                ",
"                                                                                                                                ",
"                                                                                                                                ",
"                                                                                                                                ",
"                                                                                                                                ",
"                                                                                                                                ",
"                                                                                                                                ",
"                                                                                                                                ",
"                                                                                                                                ",
"                                                                                                                                ",
"                                                                                                                                ",
"                                                                                                                                ",
"                                                                                                                                ",
"                                                                                                                                ",
"                                                              ..XXoo                                                            ",
"                                                              ..XXoo                                                            ",
"                                                          OOoo..XXoo++OO                                                        ",
"                                                          OOoo..XXoo++OO                                                        ",
"                                                      @@@@@@@@@@@@@@@@@@@@@@                                                    ",
"                                                      @@@@@@@@@@@@@@@@@@@@@@                                                    ",
"                                                  @@##########################@@                                                ",
"                                                  @@##########################@@                                                ",
"                                                @@##$$$$$$$$$$$$$$$$$$$$$$$$$$%%##                                              ",
"                                                @@##$$$$$$$$$$$$$$$$$$$$$$$$$$%%##                                              ",
"                                              @@##$$&&%%****%%oo==**%%****%%&&$$&&##                                            ",
"                                              @@##$$&&%%****%%oo==**%%****%%&&$$&&##                                            ",
"                                              ##$$&&##==--++;;XX::oo##@@--**%%&&$$&&                                            ",
"                                              ##$$&&##==--++;;XX::oo##@@--**%%&&$$&&                                            ",
"                                            ##$$**##==XX>>oo,,..>>oo##@@<<--%%%%%%$$##                                          ",
"                                            ##$$**##==XX>>oo,,..>>oo##@@<<--%%%%%%$$##                                          ",
"                                            ##@@<<**<<..>>11::..>>11@@%%--,,**%%##$$&&                                          ",
"                                            ##@@<<**<<..>>11::..>>11@@%%--,,**%%##$$&&                                          ",
"                                            $$<<<<--..XX::22>>..>>,,**%%oo33oo%%**%%$$                                          ",
"                                            $$<<<<--..XX::22>>..>>,,**%%oo33oo%%**%%$$                                          ",
"                                            $$..44<<..XX33<<>>..>>22==%%;;<<22**%%@@$$                                          ",
"                                            $$..44<<..XX33<<>>..>>22==%%;;<<22**%%@@$$                                          ",
"                                            <<XX44XX..>>11<<XX..XX22--**@@--<<**%%**@@                                          ",
"                                            <<XX44XX..>>11<<XX..XX22--**@@--<<**%%**@@                                          ",
"                                            ..55::..XX>>....XXXX>>::,,--oooo33--%%@@@@                                          ",
"                                            ..55::..XX>>....XXXX>>::,,--oooo33--%%@@@@                                          ",
"                                          <<XX44XX..>><<..XX..XX>>::3311;;;;3333==%%**                                          ",
"                                          <<XX44XX..>><<..XX..XX>>::3311;;;;3333==%%**                                          ",
"                                          XX>>55>>>>>>66XX66..XX>>::3322++@@::XX33++##@@                                        ",
"                                          XX>>55>>>>>>66XX66..XX>>::3322++@@::XX33++##@@                                        ",
"                                        <<>>66XX..66XX..XX....XX>>::3322==@@oo22--22--####++                                    ",
"                                        <<>>66XX..66XX..XX....XX>>::3322==@@oo22--22--####++                                    ",
"                                      -->>..>>....XXXX..XX....XX>>::3322--@@@@1122--;;==&&##++                                  ",
"                                      -->>..>>....XXXX..XX....XX>>::3322--@@@@1122--;;==&&##++                                  ",
"                                    -->>XX66>>..66XX66XXXX....XX>>::332211++@@oo221177++##&&##++                                ",
"                                    -->>XX66>>..66XX66XXXX....XX>>::332211++@@oo221177++##&&##++                                "
};
