/* XPM */
static char *hit[] = {
/* columns rows colors chars-per-pixel */
"128 128 56 1 ",
"  c #00000000",
". c #FFB4B4B4",
"X c #FF989898",
"o c #FF8C8C8C",
"O c #FFD0D0D0",
"+ c #FF646464",
"@ c #FF545454",
"# c #FF707070",
"$ c #FFA8A8A8",
"% c #FF383838",
"& c #FF484848",
"* c #FFDCDCDC",
"= c #FFC0C0C0",
"- c #FF000000",
"; c #FF2C2C2C",
": c #FF202020",
"> c #FFBC7848",
", c #FF0000E0",
"< c #FFC87C4C",
"1 c #FF483818",
"2 c #FF7C7C7C",
"3 c #FFE00000",
"4 c #FFFCB890",
"5 c #FFFCD8C4",
"6 c #FFFCA470",
"7 c #FFF0945C",
"8 c #FF382C14",
"9 c #FFFCB080",
"0 c #FFE88C58",
"q c #FF9C6038",
"w c #FF885830",
"e c #FFA40000",
"r c #FFDC8854",
"t c #FFB47044",
"y c #FFA0643C",
"u c #FFA86840",
"i c #FFD08050",
"p c #FF905C34",
"a c #FF80502C",
"s c #FF5C4020",
"d c #FF543C1C",
"f c #FF6C4824",
"g c #FFFCFCFC",
"h c #FF744C28",
"j c #FFFC9C60",
"k c #FF403018",
"l c #FF000098",
"z c #FF00004C",
"x c #FF000070",
"c c #FF00007C",
"v c #FF000040",
"b c #FF000064",
"n c #FF000058",
"m c #FF0000B0",
"M c #FF000088",
"N c #FF500050",
/* pixels */
"                                                                                                                                ",
"                                                                                                                                ",
"                                                                                                                                ",
"                                                                                                                                ",
"                                                                                                                                ",
"                                                                                                                                ",
"                                                                                                                                ",
"                                                                                                                                ",
"                                                                                                                                ",
"                                                                                                                                ",
"                                                                                                                                ",
"                                                                                                                                ",
"                                                                                                                                ",
"                                                                                                                                ",
"                                                                                                                                ",
"                                                                                                                                ",
"                                                                                                                                ",
"                                                                                                                                ",
"                                                                                                                                ",
"                                                                                                                                ",
"                                                                                                                                ",
"                                                                                                                                ",
"                                                                                                                                ",
"                                                                                                                                ",
"                                                                                                                                ",
"                                                                                                                                ",
"                                                                                                                                ",
"                                                                                                                                ",
"                                                                                                                                ",
"                                                                                                                                ",
"                                                                                                                                ",
"                                                                                                                                ",
"                                                                                                                                ",
"                                                                                                                                ",
"                                                ..XXXXXXoooo                                                                    ",
"                                                ..XXXXXXoooo                                                                    ",
"                                              ..OOoo++@@@@@@##@@                                                                ",
"                                              ..OOoo++@@@@@@##@@                                                                ",
"                                              $$oooo@@..%%@@&&%%@@                                                              ",
"                                              $$oooo@@..%%@@&&%%@@                                                              ",
"                                            oo**==$$$$----@@&&%%%%                                                              ",
"                                            oo**==$$$$----@@&&%%%%                                                              ",
"                                          oo**%%%%%%%%XXXX++;;;;;;                                                              ",
"                                          oo**%%%%%%%%XXXX++;;;;;;                                                              ",
"                                          XX@@::>>,,<<11&&oo22++++;;                                                            ",
"                                          XX@@::>>,,<<11&&oo22++++;;                                                            ",
"                                      33      44444444<<::::%%%%&&++%%                                                          ",
"                                      33      44444444<<::::%%%%&&++%%                                                          ",
"                                          33    55446677&&<<1188::::                                                            ",
"                                          33    55446677&&<<1188::::                                                            ",
"                                                9900<<qq%%ww$$------                                                            ",
"                                                9900<<qq%%ww$$------                                                            ",
"                                        ee      00<<qq%%--OO--777777<<<<<<                                                      ",
"                                        ee      00<<qq%%--OO--777777<<<<<<                                                      ",
"                                                    rr------77777777777777<<<<                                                  ",
"                                                    rr------77777777777777<<<<                                                  ",
"                                                    ----7777ttyy77777777777777<<uu                                              ",
"                                                    ----7777ttyy77777777777777<<uu                                              ",
"                                                  uu%%7777yy7777yy00>>ii777777ii>>pp                                            ",
"                                                  uu%%7777yy7777yy00>>ii777777ii>>pp                                            ",
"                                                  77%%77yy77yyyyww00qqwwiiiiii77>>>>pp                                          ",
"                                                  77%%77yy77yyyyww00qqwwiiiiii77>>>>pp                                          ",
"                                                uu77%%qq<<yy77<<ww00aasswwwwii777777>>pp                                        ",
"                                                uu77%%qq<<yy77<<ww00aasswwwwii777777>>pp                                        ",
"                                                7777qq%%qqtt77ww7700qqaassddqq77qq77iipp                                        ",
"                                                7777qq%%qqtt77ww7700qqaassddqq77qq77iipp                                        ",
"                                                777777%%%%qqtt7777<<>>qqaadd  qqiiii77iipp                                      ",
"                                                777777%%%%qqtt7777<<>>qqaadd  qqiiii77iipp                                      ",
"                                              rr77qq77tt%%%%%%qq77<<>>qqaadd    qqii77iipp                                      ",
"                                              rr77qq77tt%%%%%%qq77<<>>qqaadd    qqii77iipp                                      ",
"                                            77tt77qq<<77tt%%%%%%::aaqqqqdddd      ii77iipp                                      ",
"                                            77tt77qq<<77tt%%%%%%::aaqqqqdddd      ii77iipp                                      ",
"                                          777777qqffqq<<tt77<<::::::::ffdddd      ii77iipp                                      ",
"                                          777777qqffqq<<tt77<<::::::::ffdddd      ii77iipp                                      ",
"                                        7777<<<<qqffffww$$gg::::::--------        wwwwwwff                                      ",
"                                        7777<<<<qqffffww$$gg::::::--------        wwwwwwff                                      ",
"                                        aa<<<<qqffff  ::$$++wwuuuuuuwwhhdd--        jjjj                                        ",
"                                        aa<<<<qqffff  ::$$++wwuuuuuuwwhhdd--        jjjj                                        ",
"                                      99rrqqqqff      wwpp<<77777777<<uuuudd        00jj                                        ",
"                                      99rrqqqqff      wwpp<<77777777<<uuuudd        00jj                                        ",
"                                    999999            77pppp7777777777<<uuaadd        0000                                      ",
"                                    999999            77pppp7777777777<<uuaadd        0000                                      ",
"                                    99<<77          7777>>ppqqqqqqqq>>iiuuaadd                                                  ",
"                                    99<<77          7777>>ppqqqqqqqq>>iiuuaadd                                                  ",
"                                    rr              77pp>>hh>>>>>>>>wwkkkkaaaa                                                  ",
"                                    rr              77pp>>hh>>>>>>>>wwkkkkaaaa                                                  ",
"                                                    hh>>77pp<<rrrrrrttttaakkdd                                                  ",
"                                                    hh>>77pp<<rrrrrrttttaakkdd                                                  ",
"                                                    777777pp<<777777rrttqqaadd                                                  ",
"                                                    777777pp<<777777rrttqqaadd                                                  ",
"                                                  >>7777<<pp<<77777777<<qqaadd                                                  ",
"                                                  >>7777<<pp<<77777777<<qqaadd                                                  ",
"                                                  >>7777>>pp<<77777777<<qqaadd                                                  ",
"                                                  >>7777>>pp<<77777777<<qqaadd                                                  ",
"                                                >>777777>>pp<<77777777<<qqdd                                                    ",
"                                                >>777777>>pp<<77777777<<qqdd                                                    ",
"                                                >>777777>>pp<<777777rrttaadd                                                    ",
"                                                >>777777>>pp<<777777rrttaadd                                                    ",
"                                                777777rr>>aatt777777ttaaaadd                                                    ",
"                                                777777rr>>aatt777777ttaaaadd                                                    ",
"                                                777777>>qqqqtt7777tt77rraaaadd                                                  ",
"                                                777777>>qqqqtt7777tt77rraaaadd                                                  ",
"                                                >>777777rryyaa7777777777>>aadd                                                  ",
"                                                >>777777rryyaa7777777777>>aadd                                                  ",
"                                                  7777rr>>yyaatt77777777>>aaaadd                                                ",
"                                                  7777rr>>yyaatt77777777>>aaaadd                                                ",
"                                                  >>>>>>hhkk--aa777777>>>>aaaadd                                                ",
"                                                  >>>>>>hhkk--aa777777>>>>aaaadd                                                ",
"                                                  llllzzzz----  77rr>>----------                                                ",
"                                                  llllzzzz----  77rr>>----------                                                ",
"                                                  xxllcczz----    vvbbbbbb------                                                ",
"                                                  xxllcczz----    vvbbbbbb------                                                ",
"                                                    ccnn------      bbmmbbvv----                                                ",
"                                                    ccnn------      bbmmbbvv----                                                ",
"                                                    xxllzz--        bbmmbbbb----                                                ",
"                                                    xxllzz--        bbmmbbbb----                                                ",
"                                                  xxvvvvvv--          MMMMvv------                                              ",
"                                                  xxvvvvvv--          MMMMvv------                                              ",
"                                                xxllllccvv----        vvmmbbvvvv--                                              ",
"                                                xxllllccvv----        vvmmbbvvvv--                                              ",
"                                              xxllllccvvvv----          MMMMbbvv----                                            ",
"                                              xxllllccvvvv----          MMMMbbvv----                                            ",
"                                              xxllccvvvv----        bbmmmmmmbbvv----                                            ",
"                                              xxllccvvvv----        bbmmmmmmbbvv----                                            ",
"                                              vvvvvvvv--          bbmmmmllbbvv----                                              ",
"                                              vvvvvvvv--          bbmmmmllbbvv----                                              ",
"                                                                  bbbbbbbbvv----                                                ",
"                                                                  bbbbbbbbvv----                                                "
};
