/* XPM */
static char *right3[] = {
/* columns rows colors chars-per-pixel */
"128 128 49 1 ",
"  c #00000000",
". c #FF989898",
"X c #FF7C7C7C",
"o c #FF707070",
"O c #FF646464",
"+ c #FF545454",
"@ c #FF484848",
"# c #FFD0D0D0",
"$ c #FF383838",
"% c #FF2C2C2C",
"& c #FFB4B4B4",
"* c #FFA8A8A8",
"= c #FF8C8C8C",
"- c #FF483818",
"; c #FF0000A8",
": c #FF885830",
"> c #FF744C28",
", c #FF9C6038",
"< c #FFD08050",
"1 c #FF80502C",
"2 c #FF6C4824",
"3 c #FF543C1C",
"4 c #FF000000",
"5 c #FFF0945C",
"6 c #FFDC8854",
"7 c #FFA86840",
"8 c #FF905C34",
"9 c #FFFCB890",
"0 c #FFFCA470",
"q c #FFB47044",
"w c #FF202020",
"e c #FF382C14",
"r c #FF403018",
"t c #FFFC9C60",
"y c #FFE88C58",
"u c #FFBC7848",
"i c #FFC87C4C",
"p c #FFA0643C",
"a c #FF5C4020",
"s c #FF000040",
"d c #FF000088",
"f c #FF000070",
"g c #FF0000C8",
"h c #FF0000A4",
"j c #FF000064",
"k c #FF000098",
"l c #FF000058",
"z c #FF00004C",
"x c #FF500050",
/* pixels */
"                                                                                                                                ",
"                                                                                                                                ",
"                                                                                                                                ",
"                                                                                                                                ",
"                                                                                                                                ",
"                                                                                                                                ",
"                                                                                                                                ",
"                                                                                                                                ",
"                                                                                                                                ",
"                                                                                                                                ",
"                                                                                                                                ",
"                                                                                                                                ",
"                                                                                                                                ",
"                                                                                                                                ",
"                                                                                                                                ",
"                                                                                                                                ",
"                                                                                                                                ",
"                                                                                                                                ",
"                                                                                                                                ",
"                                                                                                                                ",
"                                                                                                                                ",
"                                                                                                                                ",
"                                                                                                                                ",
"                                                                                                                                ",
"                                                                                                                                ",
"                                                                                                                                ",
"                                                                                                                                ",
"                                                                                                                                ",
"                                                                                                                                ",
"                                                                                                                                ",
"                                                                                                                                ",
"                                                                                                                                ",
"                                                        ....XXooOO++@@                                                          ",
"                                                        ....XXooOO++@@                                                          ",
"                                                      ..##ooOO@@@@$$%%$$                                                        ",
"                                                      ..##ooOO@@@@$$%%$$                                                        ",
"                                                    ..XXooOO++@@@@$$%%%%                                                        ",
"                                                    ..XXooOO++@@@@$$%%%%                                                        ",
"                                                    ..XXoo++++@@@@$$%%%%                                                        ",
"                                                    ..XXoo++++@@@@$$%%%%                                                        ",
"                                                    ..XXoo++@@XXoo@@$$%%%%%%                                                    ",
"                                                    ..XXoo++@@XXoo@@$$%%%%%%                                                    ",
"                                                  ##&&**==ooXX--;;::>>                                                          ",
"                                                  ##&&**==ooXX--;;::>>                                                          ",
"                                                ##&&====XX++--,,<<<<<<::                                                        ",
"                                                ##&&====XX++--,,<<<<<<::                                                        ",
"                                                      112233445566<<77                                                          ",
"                                                      112233445566<<77                                                          ",
"                                                      <<<<<<@@55558822                                                          ",
"                                                      <<<<<<@@55558822                                                          ",
"                                                      99000066@@5566qq                                                          ",
"                                                      99000066@@5566qq                                                          ",
"                                                    $$$$%%%%::77::44                                                            ",
"                                                    $$$$%%%%::77::44                                                            ",
"                                                    $$$$%%%%wwww4444                                                            ",
"                                                    $$$$%%%%wwww4444                                                            ",
"                                                    ee@@@@%%%%44++@@%%                                                          ",
"                                                    ee@@@@%%%%44++@@%%                                                          ",
"                                                  77OOrrtttttt>>44==%%                                                          ",
"                                                  77OOrrtttttt>>44==%%                                                          ",
"                                                yyOOrrtt00yyyyyy>>3344>>                                                        ",
"                                                yyOOrrtt00yyyyyy>>3344>>                                                        ",
"                                              yy66rryy00ttyyuuii,,>>44>>                                                        ",
"                                              yy66rryy00ttyyuuii,,>>44>>                                                        ",
"                                              yy<<rryy00tt55uuuu22>>33rr                                                        ",
"                                              yy<<rryy00tt55uuuu22>>33rr                                                        ",
"                                            yy<<2222yy<<5555<<<<<<11>>44                                                        ",
"                                            yy<<2222yy<<5555<<<<<<11>>44                                                        ",
"                                            yy<<22ppyyuu5555uuyy8811rr44                                                        ",
"                                            yy<<22ppyyuu5555uuyy8811rr44                                                        ",
"                                          qq<<pp22ppuu55uu55yy88qq,,3344                                                        ",
"                                          qq<<pp22ppuu55uu55yy88qq,,3344                                                        ",
"                                          qqpp2222ppuupp,,yyyy,,2277                                                            ",
"                                          qqpp2222ppuupp,,yyyy,,2277                                                            ",
"                                            pp2222$$4444rr77ii77qq<<pp                                                          ",
"                                            pp2222$$4444rr77ii77qq<<pp                                                          ",
"                                            pppp22$$444444rr7777uuuupppp11                                                      ",
"                                            pppp22$$444444rr7777uuuupppp11                                                      ",
"                                              ppqquu77::2222rr227777777711tt                                                    ",
"                                              ppqquu77::2222rr227777777711tt                                                    ",
"                                              qqqq66yyttttuupp33rr222211>>iiqq                                                  ",
"                                              qqqq66yyttttuupp33rr222211>>iiqq                                                  ",
"                                                qq66tttt<<uupp112233rrrr888888                                                  ",
"                                                qq66tttt<<uupp112233rrrr888888                                                  ",
"                                                qq66ttttuuuupp112233ee    1111                                                  ",
"                                                qq66ttttuuuupp112233ee    1111                                                  ",
"                                                8888888811rrrraaaa33ee                                                          ",
"                                                8888888811rrrraaaa33ee                                                          ",
"                                                  uuuuuuuu::::rrrreeeeaa                                                        ",
"                                                  uuuuuuuu::::rrrreeeeaa                                                        ",
"                                                  ttttttyyuu88>>aa33eeee                                                        ",
"                                                  ttttttyyuu88>>aa33eeee                                                        ",
"                                                iittttttyy8888>>33aaeeeeaa                                                      ",
"                                                iittttttyy8888>>33aaeeeeaa                                                      ",
"                                                iittttyyii88>>>>33>>aaeeee                                                      ",
"                                                iittttyyii88>>>>33>>aaeeee                                                      ",
"                                              iiyyttyyiiqq>>>>33ee88>>aaeeaa                                                    ",
"                                              iiyyttyyiiqq>>>>33ee88>>aaeeaa                                                    ",
"                                              ii77ttiiqq88>>3333qqpp>>aaeeee                                                    ",
"                                              ii77ttiiqq88>>3333qqpp>>aaeeee                                                    ",
"                                            iitttt77qq8833>>33--77qq::::aaeeaa                                                  ",
"                                            iitttt77qq8833>>33--77qq::::aaeeaa                                                  ",
"                                          yytt77001177>>33ee--qqiiqq77>>aaeeee                                                  ",
"                                          yytt77001177>>33ee--qqiiqq77>>aaeeee                                                  ",
"                                        88iiyyyy7777ee33ee--  66qq77113333eeee                                                  ",
"                                        88iiyyyy7777ee33ee--  66qq77113333eeee                                                  ",
"                                        ss8888ii11ee>>eeee--  66qqqquu7711>>33ee                                                ",
"                                        ss8888ii11ee>>eeee--  66qqqquu7711>>33ee                                                ",
"                                        dddd888888>>33eeee      888888>>>>----ee                                                ",
"                                        dddd888888>>33eeee      888888>>>>----ee                                                ",
"                                      ffggdddd4444eeeeee          ffwwwwww4444                                                  ",
"                                      ffggdddd4444eeeeee          ffwwwwww4444                                                  ",
"                                    ffgghhjjss4444ee              ffggddss4444                                                  ",
"                                    ffgghhjjss4444ee              ffggddss4444                                                  ",
"                                    ffffhhss444444                  ggggkkss44                                                  ",
"                                    ffffhhss444444                  ggggkkss44                                                  ",
"                                ffggggllhhss4444                    sskkddss4444                                                ",
"                                ffggggllhhss4444                    sskkddss4444                                                ",
"                              ffggggwwss4444                          zzssww44ww                                                ",
"                              ffggggwwss4444                          zzssww44ww                                                ",
"                              ffffkkss4444                            ggff444444                                                ",
"                              ffffkkss4444                            ggff444444                                                ",
"                                ffdd444444                          ffggkk4444444444                                            ",
"                                ffdd444444                          ffggkk4444444444                                            ",
"                                ssffss44444444                      ffggddss444444444444                                        ",
"                                ssffss44444444                      ffggddss444444444444                                        ",
"                                  ssssssss444444                    ffffffss444444444444                                        ",
"                                  ssssssss444444                    ffffffss444444444444                                        "
};
