/* XPM */
static char *oms_262[] = {
/* columns rows colors chars-per-pixel */
"128 54 140 2 ",
"   c #00000000",
".  c #FF0F0F0F",
"X  c #FF101010",
"o  c #FF111111",
"O  c #FF121212",
"+  c #FF131313",
"@  c #FF141414",
"#  c #FF161616",
"$  c #FF171717",
"%  c #FF181818",
"&  c #FF191919",
"*  c #FF1A1A1A",
"=  c #FF1B1B1B",
"-  c #FF1C1C1C",
";  c #FF1D1D1D",
":  c #FF1E1E1E",
">  c #FF1F1F1F",
",  c #FF212121",
"<  c #FF222222",
"1  c #FF232323",
"2  c #FF242424",
"3  c #FF252525",
"4  c #FF262626",
"5  c #FF272727",
"6  c #FF2A2A2A",
"7  c #FF2B2B2B",
"8  c #FF2F2F2F",
"9  c #FF313131",
"0  c #FF323232",
"q  c #FF333333",
"w  c #FF363636",
"e  c #FF3B3B3B",
"r  c #FF3C3C3C",
"t  c #FF3D3D3D",
"y  c #FF3E3E3E",
"u  c #FF404040",
"i  c #FF424242",
"p  c #FF434343",
"a  c #FF444444",
"s  c #FF464646",
"d  c #FF484848",
"f  c #FF494949",
"g  c #FF4B4B4B",
"h  c #FF4C4C4C",
"j  c #FF545454",
"k  c #FF595959",
"l  c #FF5B5B5B",
"z  c #FF606060",
"x  c #FF616161",
"c  c #FF676767",
"v  c #FF686868",
"b  c #FF6B6B6B",
"n  c #FF6E6E6E",
"m  c #FF707070",
"M  c #FF737373",
"N  c #FF767676",
"B  c #FF7A7A7A",
"V  c #FF7C7C7C",
"C  c #FF7E7E7E",
"Z  c #FF828282",
"A  c #FF838383",
"S  c #FF868686",
"D  c #FF878787",
"F  c #FF898989",
"G  c #FF8A8A8A",
"H  c #FF8C8C8C",
"J  c #FF8D8D8D",
"K  c #FF8E8E8E",
"L  c #FF8F8F8F",
"P  c #FF919191",
"I  c #FF949494",
"U  c #FF969696",
"Y  c #FF989898",
"T  c #FF9A9A9A",
"R  c #FF9B9B9B",
"E  c #FF9C9C9C",
"W  c #FF9D9D9D",
"Q  c #FFA3A3A3",
"!  c #FFA6A6A6",
"~  c #FFA9A9A9",
"^  c #FFAEAEAE",
"/  c #FFAFAFAF",
"(  c #FFB0B0B0",
")  c #FFB1B1B1",
"_  c #FFB2B2B2",
"`  c #FFB4B4B4",
"'  c #FFB6B6B6",
"]  c #FFB7B7B7",
"[  c #FFB8B8B8",
"{  c #FFBDBDBD",
"}  c #FF808080",
"|  c #FFBFBFBF",
" . c #FFC0C0C0",
".. c #FFC2C2C2",
"X. c #FFC3C3C3",
"o. c #FFC4C4C4",
"O. c #FFC5C5C5",
"+. c #FFC6C6C6",
"@. c #FFCACACA",
"#. c #FFCBCBCB",
"$. c #FFCCCCCC",
"%. c #FFCDCDCD",
"&. c #FFCECECE",
"*. c #FFD0D0D0",
"=. c #FFD1D1D1",
"-. c #FFD2D2D2",
";. c #FFD3D3D3",
":. c #FFD4D4D4",
">. c #FFD5D5D5",
",. c #FFD6D6D6",
"<. c #FFD9D9D9",
"1. c #FFDADADA",
"2. c #FFDBDBDB",
"3. c #FFDCDCDC",
"4. c #FFDDDDDD",
"5. c #FFDEDEDE",
"6. c #FFDFDFDF",
"7. c #FFE0E0E0",
"8. c #FFE1E1E1",
"9. c #FFE2E2E2",
"0. c #FFE3E3E3",
"q. c #FFE6E6E6",
"w. c #FFE6E6E6",
"e. c #FFE9E9E9",
"r. c #FFEAEAEA",
"t. c #FFEBEBEB",
"y. c #FFECECEC",
"u. c #FFEDEDED",
"i. c #FFEEEEEE",
"p. c #FFEFEFEF",
"a. c #FFF0F0F0",
"s. c #FFF1F1F1",
"d. c #FFF2F2F2",
"f. c #FFF3F3F3",
"g. c #FFF5F5F5",
"h. c #FFF6F6F6",
"j. c #FFF7F7F7",
"k. c #FFF8F8F8",
"l. c #FFF9F9F9",
"z. c #FFFEFEFE",
/* pixels */
"                                                                                                                                                                                                                                                                ",
"                                                                                                                                                                                                                                                                ",
"                                                                                                                                                                                                                                                                ",
"                                                                                                                                                                                                                                                                ",
"                                                                                                                                                                                                                                                                ",
"                                                                                                                                                                                                                                                                ",
"                                                                                                                                                                                                                                                                ",
"                                                                                                                                                                                                                                                                ",
"                                                                                                                                                                                                                                                                ",
"                                                                                                                                                                                                                                                                ",
"                                                                                                                                                                                                                                                                ",
"                                                                                                                                                                                                                                                                ",
"                                                                                                                            j O O O O O O O O O O M                                                                                                             ",
"                                                                                                                          W , O O O O O O O O O , %.g.                                                                                                          ",
"                                                                                                                        f 0 O O O O O O O O O = l g.g.                                                                                                          ",
"                                                                                                                      V O O O O O O O O O . e G S | 2.                                                                                                          ",
"                                                                                                                    f , O O O O O O O O O 7 S ( G M ..                                                                                                          ",
"                                                                                                                  G = O O O O O O O O O 7 ( ^ ( W V =.                                                                                                          ",
"                                                                                                                  S = O O O O O O O O O i 8.=.( W 2.g.                                                                                                          ",
"                                                                                                              i   e O O O O O O O O , O i u.l.( U l.g.                                                                                                          ",
"                                                                                                            j O O O O O O O O O O i G i U u.g.( V l.                                                                                                            ",
"                                                                                                          W , O O O O O O O O O = ( | ( g.u.8.=.                                                                                                                ",
"                                                                                                          W , O O O O O O O O O , | %.=.u.2...2.                                                                                                                ",
"                                                                                                          v = O O O O O O O O O 0 ..2.u.g.%...                                                                                                                  ",
"                                                                                                        W , O O O O O O O O O = ^ 8.8...=.2.                                                                                                                    ",
"                                                                                                      l , O O O O O O O O O e S 2.u.8.u.8.                                                                                                                      ",
"                                                                                                    G , O O O O O O O O O = ( g...%.2.u.                                                                                                                        ",
"                                                                                                  f , O O O O O O O e , 7 U =.g.| ..8.                                                                                                                          ",
"                                                                                            f O O O O O O O O O . f 2.l Q u.( =.....                                                                                                                            ",
"                                                                                          v = O O O O O O O O O 0 ( g.M =.g.%.=.8.                                                                                                                              ",
"                                                                                        V O O O O O O O O O O = Q =.=.V | 8.g.u.                                                                                                                                ",
"                                                                                      G 0 O O O O O O O O O = M ( %.8.x W %.u.                                                                                                                                  ",
"                                                                                      v . O O O O O O O O O 7 | ( =.2.e e %.                                                                                                                                    ",
"                                                                                      x O O O O O O O O O O 0 =.2.2.=.                                                                                                                                          ",
"                                                                                    x 7 O O O O O O O O O e Q 8.8.u.8.                                                                                                                                          ",
"                                                                                  S O O O O O O O O O O = ^ g.=.=.g.g.                                                                                                                                          ",
"                                                                                  j O O O O O O O O O O 7 %.=.....8.                                                                                                                                            ",
"                                                                                  i O O O O O O O O O O i 8.u.=.%.                                                                                                                                              ",
"                                                                                  i O O O O O O O O O O e ( 2.u.                                                                                                                                                ",
"                                                                                  f O O O O O O O O O O e 8.u.                                                                                                                                                  ",
"                                                                                  i O O O O O O O O O O e 8.                                                                                                                                                    ",
"                                                                                                                                                                                                                                                                ",
"                                                                                                                                                                                                                                                                ",
"                                                                                                                                                                                                                                                                ",
"                                                                                                                                                                                                                                                                ",
"                                                                                                                                                                                                                                                                ",
"                                                                                                                                                                                                                                                                ",
"                                                                                                                                                                                                                                                                ",
"                                                                                                                                                                                                                                                                ",
"                                                                                                                                                                                                                                                                ",
"                                                                                                                                                                                                                                                                ",
"                                                                                                                                                                                                                                                                ",
"                                                                                                                                                                                                                                                                ",
"                                                                                                                                                                                                                                                                "
};
