/* XPM */
static char *oms_244[] = {
/* columns rows colors chars-per-pixel */
"128 54 180 2 ",
"   c #00000000",
".  c #FF090909",
"X  c #FF0E0E0E",
"o  c #FF0F0F0F",
"O  c #FF101010",
"+  c #FF111111",
"@  c #FF121212",
"#  c #FF131313",
"$  c #FF141414",
"%  c #FF151515",
"&  c #FF161616",
"*  c #FF171717",
"=  c #FF181818",
"-  c #FF191919",
";  c #FF1A1A1A",
":  c #FF1B1B1B",
">  c #FF1C1C1C",
",  c #FF1D1D1D",
"<  c #FF1E1E1E",
"1  c #FF1F1F1F",
"2  c #FF202020",
"3  c #FF212121",
"4  c #FF222222",
"5  c #FF242424",
"6  c #FF252525",
"7  c #FF272727",
"8  c #FF282828",
"9  c #FF2A2A2A",
"0  c #FF2C2C2C",
"q  c #FF2D2D2D",
"w  c #FF2E2E2E",
"e  c #FF2F2F2F",
"r  c #FF303030",
"t  c #FF313131",
"y  c #FF323232",
"u  c #FF343434",
"i  c #FF353535",
"p  c #FF383838",
"a  c #FF393939",
"s  c #FF3A3A3A",
"d  c #FF3B3B3B",
"f  c #FF3C3C3C",
"g  c #FF3D3D3D",
"h  c #FF3E3E3E",
"j  c #FF3F3F3F",
"k  c #FF404040",
"l  c #FF414141",
"z  c #FF424242",
"x  c #FF434343",
"c  c #FF484848",
"v  c #FF494949",
"b  c #FF4A4A4A",
"n  c #FF4B4B4B",
"m  c #FF4E4E4E",
"M  c #FF4F4F4F",
"N  c #FF515151",
"B  c #FF535353",
"V  c #FF545454",
"C  c #FF575757",
"Z  c #FF585858",
"A  c #FF595959",
"S  c #FF5A5A5A",
"D  c #FF5B5B5B",
"F  c #FF5C5C5C",
"G  c #FF5E5E5E",
"H  c #FF616161",
"J  c #FF626262",
"K  c #FF646464",
"L  c #FF656565",
"P  c #FF676767",
"I  c #FF6A6A6A",
"U  c #FF6D6D6D",
"Y  c #FF6E6E6E",
"T  c #FF707070",
"R  c #FF727272",
"E  c #FF767676",
"W  c #FF777777",
"Q  c #FF787878",
"!  c #FF7A7A7A",
"~  c #FF7B7B7B",
"^  c #FF7C7C7C",
"/  c #FF808080",
"(  c #FF808080",
")  c #FF828282",
"_  c #FF838383",
"`  c #FF858585",
"'  c #FF868686",
"]  c #FF878787",
"[  c #FF898989",
"{  c #FF8B8B8B",
"}  c #FF8D8D8D",
"|  c #FF8E8E8E",
" . c #FF909090",
".. c #FF919191",
"X. c #FF959595",
"o. c #FF9A9A9A",
"O. c #FF9B9B9B",
"+. c #FF9C9C9C",
"@. c #FF9E9E9E",
"#. c #FF9F9F9F",
"$. c #FFA0A0A0",
"%. c #FFA2A2A2",
"&. c #FFA3A3A3",
"*. c #FFA4A4A4",
"=. c #FFA5A5A5",
"-. c #FFA6A6A6",
";. c #FFA7A7A7",
":. c #FFA8A8A8",
">. c #FFA9A9A9",
",. c #FFAAAAAA",
"<. c #FFACACAC",
"1. c #FFAEAEAE",
"2. c #FFAFAFAF",
"3. c #FFB0B0B0",
"4. c #FFB1B1B1",
"5. c #FFB2B2B2",
"6. c #FFB4B4B4",
"7. c #FFB5B5B5",
"8. c #FFB8B8B8",
"9. c #FFBBBBBB",
"0. c #FFBCBCBC",
"q. c #FFBDBDBD",
"w. c #FF808080",
"e. c #FFBFBFBF",
"r. c #FFC0C0C0",
"t. c #FFC2C2C2",
"y. c #FFC3C3C3",
"u. c #FFC4C4C4",
"i. c #FFC8C8C8",
"p. c #FFC9C9C9",
"a. c #FFCBCBCB",
"s. c #FFCCCCCC",
"d. c #FFCDCDCD",
"f. c #FFCFCFCF",
"g. c #FFD0D0D0",
"h. c #FFD1D1D1",
"j. c #FFD2D2D2",
"k. c #FFD3D3D3",
"l. c #FFD4D4D4",
"z. c #FFD5D5D5",
"x. c #FFD6D6D6",
"c. c #FFD8D8D8",
"v. c #FFD9D9D9",
"b. c #FFDADADA",
"n. c #FFDBDBDB",
"m. c #FFDCDCDC",
"M. c #FFDDDDDD",
"N. c #FFDEDEDE",
"B. c #FFDFDFDF",
"V. c #FFE0E0E0",
"C. c #FFE1E1E1",
"Z. c #FFE2E2E2",
"A. c #FFE3E3E3",
"S. c #FFE4E4E4",
"D. c #FFE6E6E6",
"F. c #FFE6E6E6",
"G. c #FFE7E7E7",
"H. c #FFE8E8E8",
"J. c #FFE9E9E9",
"K. c #FFEAEAEA",
"L. c #FFEBEBEB",
"P. c #FFEDEDED",
"I. c #FFEEEEEE",
"U. c #FFEFEFEF",
"Y. c #FFF0F0F0",
"T. c #FFF1F1F1",
"R. c #FFF2F2F2",
"E. c #FFF3F3F3",
"W. c #FFF4F4F4",
"Q. c #FFF5F5F5",
"!. c #FFF6F6F6",
"~. c #FFF7F7F7",
"^. c #FFF8F8F8",
"/. c #FFF9F9F9",
"(. c #FFFAFAFA",
"). c #FFFBFBFB",
"_. c #FFFCFCFC",
"`. c #FFFDFDFD",
"'. c #FFFEFEFE",
"]. c #FFFFFFFF",
/* pixels */
"                                                                                                                                                                                                                                                                ",
"                                                                                                                                                                                                                                                                ",
"                                                                                                                                                                                                                                                                ",
"                                                                                                                                                                                                                                                                ",
"                                                                                                                                                                                                                                                                ",
"                                                                                                                                                                                                                                                                ",
"                                                                                                                                                                                                                                                                ",
"                                                                                                                                                                                                                                                                ",
"                                                                                                                                                                                                                                                                ",
"                                                                                                                                                                                                                                                                ",
"                                                                                                                                                              V 5 # #                                                                                           ",
"                                                                                                                                                          ..r # # # # # # # # o                                                                                 ",
"                                                                                                                                                          r # # # # # # # # # A q.J.~.                                                                          ",
"                                                                                                                                                A r # # 9 # # # # # # # # # W J.].].].~.                                                                        ",
"                                                                                                                                              A # # # # # # # # # > M V # r S.].x.S.].].                                                                        ",
"                                                                                                                                      U d > > > # # # # # # # # 9 4.~.#.o ~ ].r.5 W ].].                                                                        ",
"                                                                                                                                      5 # # # # # # # # # d _ r P ].].#.# #.]._ o ~ ].~.                                                                        ",
"                                                                                                                                      5 # # # # # # # # U J.].W ..].].#.# 1.].&.M x.].                                                                          ",
"                                                                                                                        V >         W 5 # # # # # # # # [ ].].r.a.].].#.# &.].~.~.].~.                                                                          ",
"                                                                                                                    x 9 # # # # # # > # # > M 9 # # # # [ ].].~.~.~.].#.o ~ ].].].~.                                                                            ",
"                                                                                                                  d # # # # # # # # # 9 P 1.J.M > W q.&.#.].~.].~.a.].a.  x S.~.~.                                                                              ",
"                                                                                                                  d # # # # # # # # 5 r.J.S.~.A &.~.~.~.x.].x.~.S.&.].~.                                                                                        ",
"                                                                                                                P 9 # # # # # # # # 9 c.~.S.J.&.~.a.S.~.c.].&.x.a.[ ].                                                                                          ",
"                                                                                                            W > # # # # # # # # # r M c.J.S.~.c.].c.S.~.x.].&.4.J.                                                                                              ",
"                                                                                                      x > 9 5 # # # # # # # # o A S.S.~.J.S.~.S.c.#.c.S.4.].                                                                                                    ",
"                                                                                                  P 5 # # # # # # # # # 9 ~ &.A q.].S.~.J.S.~.S.~.~.].                                                                                                          ",
"                                                                                            U 9 > > # # # # # # # # > M x.].].c.S.J.P S.J.S.~.a.~.~.                                                                                                            ",
"                                                                            V 9 # # # # > 5 > # # # 9 9 # # # > d #.[ a.J.q.~.J.J.S.x c.~.S.~.                                                                                                                  ",
"                                                                        _ r # # # # # # # # # # M &.S.x.d o V r.a.].a.~.4.M J.S.J.S.M c.~.                                                                                                                      ",
"                                                                  [ d > > # # # # # # # # 5 > ~ J.].].].A > r.].~.~.S.].q._ ].q.c.~.                                                                                                                            ",
"                                                                  M # # # # # # # # # # U r._ J.J.1.~.~.V 9 S.c.1.].c.~.~.~.].                                                                                                                                  ",
"                                                              r # # # # # # # # # # d V q.J.4.c.x.x.].x.9 r c.#._ ].r.S.].~.                                                                                                                                    ",
"                                                            _ # # # # # # # # # o A J.4.&.x.W r.~.].S.[ r > d # ~ ].                                                                                                                                            ",
"                                                            M # # # # # # # # # o ~ ].S.S.~.4.~.J.1.x.J.                                                                                                                                                        ",
"                                                      d # > # # # # # # # # 5 M d a.].~.J.~.S.].c.&.~.~.                                                                                                                                                        ",
"                                                  ..5 # # # # # # # # # # U c.~.a.S.].r.a.~.S.].].].].                                                                                                                                                          ",
"                                                  M # # # # # # # # # o P ~.c.~.S.1.].1.q.~.r.~.~.~.                                                                                                                                                            ",
"                                                q.9 # # # # # # # # # > q.].x.~.S.q.].&.q.].                                                                                                                                                                    ",
"                                                  r # # # # # # # # # 5 x.S.4.J.J.J.].1.                                                                                                                                                                        ",
"                                                  r # # # # # # # # # 5 q.S.a.~.r.c.                                                                                                                                                                            ",
"                                                  d # # # # # # # # # 5 a.].].~.                                                                                                                                                                                ",
"                                                                          ~.                                                                                                                                                                                    ",
"                                                                                                                                                                                                                                                                ",
"                                                                                                                                                                                                                                                                ",
"                                                                                                                                                                                                                                                                ",
"                                                                                                                                                                                                                                                                ",
"                                                                                                                                                                                                                                                                ",
"                                                                                                                                                                                                                                                                ",
"                                                                                                                                                                                                                                                                ",
"                                                                                                                                                                                                                                                                ",
"                                                                                                                                                                                                                                                                ",
"                                                                                                                                                                                                                                                                ",
"                                                                                                                                                                                                                                                                ",
"                                                                                                                                                                                                                                                                "
};
