/* XPM */
static char *oms_183[] = {
/* columns rows colors chars-per-pixel */
"128 54 208 2 ",
"   c #00000000",
".  c #FF040404",
"X  c #FF0D0D0D",
"o  c #FF0E0E0E",
"O  c #FF0F0F0F",
"+  c #FF101010",
"@  c #FF111111",
"#  c #FF121212",
"$  c #FF131313",
"%  c #FF141414",
"&  c #FF151515",
"*  c #FF161616",
"=  c #FF171717",
"-  c #FF181818",
";  c #FF191919",
":  c #FF1A1A1A",
">  c #FF1B1B1B",
",  c #FF1C1C1C",
"<  c #FF1D1D1D",
"1  c #FF1E1E1E",
"2  c #FF1F1F1F",
"3  c #FF202020",
"4  c #FF212121",
"5  c #FF222222",
"6  c #FF232323",
"7  c #FF242424",
"8  c #FF252525",
"9  c #FF262626",
"0  c #FF272727",
"q  c #FF282828",
"w  c #FF292929",
"e  c #FF2A2A2A",
"r  c #FF2C2C2C",
"t  c #FF2D2D2D",
"y  c #FF2E2E2E",
"u  c #FF2F2F2F",
"i  c #FF303030",
"p  c #FF323232",
"a  c #FF333333",
"s  c #FF343434",
"d  c #FF353535",
"f  c #FF363636",
"g  c #FF373737",
"h  c #FF393939",
"j  c #FF3A3A3A",
"k  c #FF3B3B3B",
"l  c #FF3C3C3C",
"z  c #FF3D3D3D",
"x  c #FF3E3E3E",
"c  c #FF3F3F3F",
"v  c #FF404040",
"b  c #FF414141",
"n  c #FF424242",
"m  c #FF434343",
"M  c #FF444444",
"N  c #FF454545",
"B  c #FF464646",
"V  c #FF484848",
"C  c #FF494949",
"Z  c #FF4C4C4C",
"A  c #FF4C4C4C",
"S  c #FF4E4E4E",
"D  c #FF4F4F4F",
"F  c #FF505050",
"G  c #FF515151",
"H  c #FF525252",
"J  c #FF535353",
"K  c #FF545454",
"L  c #FF555555",
"P  c #FF565656",
"I  c #FF575757",
"U  c #FF585858",
"Y  c #FF595959",
"T  c #FF5A5A5A",
"R  c #FF5B5B5B",
"E  c #FF5C5C5C",
"W  c #FF5D5D5D",
"Q  c #FF5E5E5E",
"!  c #FF5F5F5F",
"~  c #FF606060",
"^  c #FF616161",
"/  c #FF636363",
"(  c #FF646464",
")  c #FF656565",
"_  c #FF666666",
"`  c #FF676767",
"'  c #FF696969",
"]  c #FF6C6C6C",
"[  c #FF6D6D6D",
"{  c #FF6E6E6E",
"}  c #FF707070",
"|  c #FF717171",
" . c #FF727272",
".. c #FF747474",
"X. c #FF757575",
"o. c #FF767676",
"O. c #FF787878",
"+. c #FF797979",
"@. c #FF7A7A7A",
"#. c #FF7B7B7B",
"$. c #FF7C7C7C",
"%. c #FF7E7E7E",
"&. c #FF808080",
"*. c #FF808080",
"=. c #FF818181",
"-. c #FF838383",
";. c #FF848484",
":. c #FF888888",
">. c #FF898989",
",. c #FF8C8C8C",
"<. c #FF8D8D8D",
"1. c #FF8F8F8F",
"2. c #FF909090",
"3. c #FF919191",
"4. c #FF929292",
"5. c #FF939393",
"6. c #FF949494",
"7. c #FF959595",
"8. c #FF969696",
"9. c #FF979797",
"0. c #FF989898",
"q. c #FF999999",
"w. c #FF9A9A9A",
"e. c #FF9D9D9D",
"r. c #FF9F9F9F",
"t. c #FFA0A0A0",
"y. c #FFA2A2A2",
"u. c #FFA3A3A3",
"i. c #FFA6A6A6",
"p. c #FFA7A7A7",
"a. c #FFA8A8A8",
"s. c #FFA9A9A9",
"d. c #FFAAAAAA",
"f. c #FFABABAB",
"g. c #FFACACAC",
"h. c #FFADADAD",
"j. c #FFAEAEAE",
"k. c #FFB0B0B0",
"l. c #FFB1B1B1",
"z. c #FFB2B2B2",
"x. c #FFB2B2B2",
"c. c #FFB5B5B5",
"v. c #FFB7B7B7",
"b. c #FFBABABA",
"n. c #FFBCBCBC",
"m. c #FFBDBDBD",
"M. c #FF808080",
"N. c #FFBFBFBF",
"B. c #FFC0C0C0",
"V. c #FFC1C1C1",
"C. c #FFC2C2C2",
"Z. c #FFC3C3C3",
"A. c #FFC4C4C4",
"S. c #FFC5C5C5",
"D. c #FFC6C6C6",
"F. c #FFC7C7C7",
"G. c #FFC8C8C8",
"H. c #FFCACACA",
"J. c #FFCBCBCB",
"K. c #FFCCCCCC",
"L. c #FFCDCDCD",
"P. c #FFCFCFCF",
"I. c #FFD1D1D1",
"U. c #FFD2D2D2",
"Y. c #FFD3D3D3",
"T. c #FFD4D4D4",
"R. c #FFD6D6D6",
"E. c #FFD7D7D7",
"W. c #FFD8D8D8",
"Q. c #FFD9D9D9",
"!. c #FFDADADA",
"~. c #FFDBDBDB",
"^. c #FFDCDCDC",
"/. c #FFDDDDDD",
"(. c #FFDEDEDE",
"). c #FFDFDFDF",
"_. c #FFE0E0E0",
"`. c #FFE1E1E1",
"'. c #FFE2E2E2",
"]. c #FFE3E3E3",
"[. c #FFE4E4E4",
"{. c #FFE6E6E6",
"}. c #FFE6E6E6",
"|. c #FFE7E7E7",
" X c #FFE8E8E8",
".X c #FFE9E9E9",
"XX c #FFEAEAEA",
"oX c #FFEBEBEB",
"OX c #FFECECEC",
"+X c #FFEDEDED",
"@X c #FFEEEEEE",
"#X c #FFEFEFEF",
"$X c #FFF0F0F0",
"%X c #FFF1F1F1",
"&X c #FFF2F2F2",
"*X c #FFF3F3F3",
"=X c #FFF4F4F4",
"-X c #FFF5F5F5",
";X c #FFF6F6F6",
":X c #FFF7F7F7",
">X c #FFF8F8F8",
",X c #FFF9F9F9",
"<X c #FFFAFAFA",
"1X c #FFFBFBFB",
"2X c #FFFCFCFC",
"3X c #FFFDFDFD",
"4X c #FFFEFEFE",
"5X c #FFFFFFFF",
/* pixels */
"                                                                                                                                                                                                                                                                ",
"                                                                                                                                                                                                                                                                ",
"                                                                                                                                                                                                                                                                ",
"                                                                                                                                                                                                                                                                ",
"                                                                                                                                                                                                                                                                ",
"                                                                                                                                                                                                                                                                ",
"                                                                                                                                                                                                                                                                ",
"                                                                                                                                                                                                                                                                ",
"                                                                                                                                                                                                                                                                ",
"                                                                                                                                                                                                                                                                ",
"                                                                                                                                                                                                                                                                ",
"                                                                                                                                                                                                                                                                ",
"                                                                                                                                                                                                                                                                ",
"                                                                                                                                                                                                                                                                ",
"                                                                                                                                                                                                                                                                ",
"                                                                                                                                                                                                                                                                ",
"                                                                                                                                                                                                                                                                ",
"                                                                                                                                                                                                                                                                ",
"                                                              R     R                                                                         R G G     R ~ ~                         G V V V G         m m m m x V               x x f f f m V                 ",
"                                m m x f     < < < <   G w < < < # # < < < w                                                                 # # # # w < # # #                       # # # # # # x     # # # # # # w           0 # # # # # # # # < x             ",
"                                < # # # #   # # # # 0 < # # # # # # # # # # <                                                               # # # # 0 # # # #                       # # # # # # <     # # # # # # w         # # # # # # # # # # # # x           ",
"            x w 0 0 0 0 f V   0 < # # # # < # # O O O # # # # O O O O O O O #         f < < 0 m w 0 0 0     w < < < # < < w G     0 < < < x 0 O # O 0 # O # #     0 < # # # # < w V # # # # # # # w 0 # # # # # # w       O O # < < 0 0 < # # # # # <           ",
"          < # # # # # # # # < # # # # # # # # f R R R f # 0 V ~  .&.&.&. .R f         # # # # # # # # # < # # # # # # # # # < x # # # # # # ~ 3.3.>.&.3.3.3.-.f # # # # # # # # # x p.h.h.h.p.x # # V h.h.h.h.h.G 0       w [ p.M.P.W.W.P.z.&.f # # <           ",
"        w # # # # # # # # # # # # < 3.z.z.h.w 3.1X1X1X>.G P.;X1X1X1X1X1X1X;XW.p.      # # O O # # O O O # # # # O O O O O # # < # # O O O # h.1X1X1XB.;X1X1X{.f # O # # # # # # O G 1X1X1X1X1Xz.< < B.1X1X1X1X1X .0       P.1X1X1X1X1X1X1X1X1XW.G # <           ",
"        0 # # # < f V V V m w # # m W.1X1X;X~ >.W.U.U.-.M.@X@X@X@Xh.r.@X1X1X1X;X      # w ~ ~ m 0 G G R m # 0 V [ &.-.-. .V 0 < < V &.-.~ w p.1X1X1XB.@X1X1XW.w w ~ >.r.p.r.-.G < G ;X1X1X1X1X;XR [ ;X1X1X1X1X1X .0     ;X1X1X1X;XB.h.B.@X1X1X1XU.0 <           ",
"        < # # R B.{.;X;X;X@XW.r.V U.1X1X1X1X@X{.;X@X@X>.V r.M.U.U.z.B.;X1X1X1X1X      m U.1X1X@XB.@X;X;XB.V B.;X1X1X1X1X1X;XB.V -.;X1X1X1XU.W.1X1X1XB.@X1X1XW.~ U.1X1X;X@X1X1X;Xh.[ ;X1X1X1X1X1XW.W.1X1X1X1X1X1X .0     ;X1X1X1X3.< # #  .;X1X1X@XV             ",
"          # x @X1X1X@Xh.P.1X1X1XB.U.;X1X1X1X{.{.1X1X1Xp.z.;X1X1X1X1X1X1X1X;XW.3.      z.1X1X1X;X@X1X1X1XU.B.1X1X1XM.&.M.1X1X1XU.{.1X1X1X;X1X1X1X1X1XB.@X1X1X{.P.1X1X1XP.z.{.1X1X;XM.;X1X1X;X@X1X1X1X1X;X;X1X1X1X .<     ;X1X1X1X&.O O O ~ ;X1X1X;X              ",
"            [ @X;X;X@XW.{.1X1X1XU.V W.1X1X;X~ r.1X1X1XU.;X1X1X1X@Xp.3.W.W.M.>.~       ;X;X;X;X{.3.;X1X1X@X@X1X1X1XR . ~ 1X1X1X;X;X1X1X;X    1X1X1X1XW.;X1X1X@X{.;X;X@XP.M.{.1X1X1X@X;X1X1XW.p.1X1X1X1X;X;X1X1X1X&.      ;X1X1X1X{.3. .>.W.1X1X1X;X              ",
"            >.P.W.@XP. .h.1X1X1XU.p.;X1X1X1X[ r.1X1X1X@X;X1X1X1X@X3.3.@X;X;X;X;X                  ;X1X1X@X@X1X1X1XB. .B.1X1X1X;X;X1X1X;X    1X1X1X1X{.;X1X1X;X@X;X;X;Xz.3.{.1X1X;X@X1X1X1XW.  1X1X1X;X  ;X1X1X1X3.        1X1X1X1X1X1X1X1X1X1X1X                ",
"              ;X1X1X;X@X;X1X1X1Xz.{.1X1X1X;X  B.1X1X1X;X  ;X1X1X1X1X1X1X1X1X;X                    ;X1X1X@X  ;X1X1X1X1X1X1X1X;X  ;X1X1X;X    1X1X1X1X{.;X1X1X;X  ;X1X1X1X1X1X1X;X    ;X1X1X@X    ;X;X    ;X;X;X;X            ;X1X1X1X1X1X;X;X;X                  ",
"                  ;X1X1X1X;X                                  ;X;X;X;X;X                                                                                                                                                                                        ",
"                                                                                                                                                                                                                                                                ",
"                                                                                                                                                                                                                                                                ",
"                                                                                                                                                                                                                                                                ",
"                                                                                                                                                                                                                                                                ",
"                                                                                                                                                                                                                                                                ",
"                                                                                                                                                                                                                                                                ",
"                                                                                                                                                                                                                                                                ",
"                                                                                                                                                                                                                                                                ",
"                                                                                                                                                                                                                                                                ",
"                                                                                                                                                                                                                                                                ",
"                                                                                                                                                                                                                                                                ",
"                                                                                                                                                                                                                                                                ",
"                                                                                                                                                                                                                                                                ",
"                                                                                                                                                                                                                                                                ",
"                                                                                                                                                                                                                                                                ",
"                                                                                                                                                                                                                                                                ",
"                                                                                                                                                                                                                                                                ",
"                                                                                                                                                                                                                                                                ",
"                                                                                                                                                                                                                                                                ",
"                                                                                                                                                                                                                                                                ",
"                                                                                                                                                                                                                                                                ",
"                                                                                                                                                                                                                                                                ",
"                                                                                                                                                                                                                                                                "
};
