/* XPM */
static char *oms_040[] = {
/* columns rows colors chars-per-pixel */
"128 54 202 2 ",
"   c #00000000",
".  c #FF060606",
"X  c #FF0C0C0C",
"o  c #FF0D0D0D",
"O  c #FF0E0E0E",
"+  c #FF0F0F0F",
"@  c #FF101010",
"#  c #FF111111",
"$  c #FF121212",
"%  c #FF131313",
"&  c #FF141414",
"*  c #FF151515",
"=  c #FF161616",
"-  c #FF171717",
";  c #FF181818",
":  c #FF191919",
">  c #FF1A1A1A",
",  c #FF1B1B1B",
"<  c #FF1C1C1C",
"1  c #FF1D1D1D",
"2  c #FF1E1E1E",
"3  c #FF1F1F1F",
"4  c #FF202020",
"5  c #FF212121",
"6  c #FF222222",
"7  c #FF232323",
"8  c #FF242424",
"9  c #FF252525",
"0  c #FF262626",
"q  c #FF272727",
"w  c #FF282828",
"e  c #FF292929",
"r  c #FF2B2B2B",
"t  c #FF2C2C2C",
"y  c #FF2D2D2D",
"u  c #FF2E2E2E",
"i  c #FF303030",
"p  c #FF313131",
"a  c #FF363636",
"s  c #FF383838",
"d  c #FF3A3A3A",
"f  c #FF3B3B3B",
"g  c #FF3D3D3D",
"h  c #FF3F3F3F",
"j  c #FF404040",
"k  c #FF414141",
"l  c #FF424242",
"z  c #FF434343",
"x  c #FF474747",
"c  c #FF484848",
"v  c #FF4A4A4A",
"b  c #FF4B4B4B",
"n  c #FF4C4C4C",
"m  c #FF4E4E4E",
"M  c #FF4F4F4F",
"N  c #FF505050",
"B  c #FF515151",
"V  c #FF525252",
"C  c #FF535353",
"Z  c #FF545454",
"A  c #FF555555",
"S  c #FF565656",
"D  c #FF575757",
"F  c #FF585858",
"G  c #FF595959",
"H  c #FF5B5B5B",
"J  c #FF5D5D5D",
"K  c #FF5E5E5E",
"L  c #FF5F5F5F",
"P  c #FF606060",
"I  c #FF626262",
"U  c #FF636363",
"Y  c #FF646464",
"T  c #FF656565",
"R  c #FF666666",
"E  c #FF676767",
"W  c #FF686868",
"Q  c #FF696969",
"!  c #FF6A6A6A",
"~  c #FF6B6B6B",
"^  c #FF6C6C6C",
"/  c #FF6E6E6E",
"(  c #FF6F6F6F",
")  c #FF707070",
"_  c #FF727272",
"`  c #FF737373",
"'  c #FF747474",
"]  c #FF757575",
"[  c #FF777777",
"{  c #FF787878",
"}  c #FF797979",
"|  c #FF7A7A7A",
" . c #FF7E7E7E",
".. c #FF808080",
"X. c #FF818181",
"o. c #FF828282",
"O. c #FF838383",
"+. c #FF848484",
"@. c #FF858585",
"#. c #FF868686",
"$. c #FF878787",
"%. c #FF898989",
"&. c #FF8A8A8A",
"*. c #FF8B8B8B",
"=. c #FF8D8D8D",
"-. c #FF8E8E8E",
";. c #FF8F8F8F",
":. c #FF919191",
">. c #FF929292",
",. c #FF949494",
"<. c #FF969696",
"1. c #FF999999",
"2. c #FF9A9A9A",
"3. c #FF9C9C9C",
"4. c #FF9F9F9F",
"5. c #FFA0A0A0",
"6. c #FFA1A1A1",
"7. c #FFA2A2A2",
"8. c #FFA3A3A3",
"9. c #FFA4A4A4",
"0. c #FFA5A5A5",
"q. c #FFA7A7A7",
"w. c #FFAAAAAA",
"e. c #FFABABAB",
"r. c #FFACACAC",
"t. c #FFADADAD",
"y. c #FFAEAEAE",
"u. c #FFAFAFAF",
"i. c #FFB0B0B0",
"p. c #FFB1B1B1",
"a. c #FFB2B2B2",
"s. c #FFB4B4B4",
"d. c #FFB5B5B5",
"f. c #FFB6B6B6",
"g. c #FFB7B7B7",
"h. c #FFB8B8B8",
"j. c #FFB9B9B9",
"k. c #FFBABABA",
"l. c #FFBBBBBB",
"z. c #FFBCBCBC",
"x. c #FFBDBDBD",
"c. c #FF808080",
"v. c #FFBFBFBF",
"b. c #FFC0C0C0",
"n. c #FFC1C1C1",
"m. c #FFC2C2C2",
"M. c #FFC3C3C3",
"N. c #FFC4C4C4",
"B. c #FFC5C5C5",
"V. c #FFC6C6C6",
"C. c #FFC8C8C8",
"Z. c #FFC9C9C9",
"A. c #FFCACACA",
"S. c #FFCBCBCB",
"D. c #FFCCCCCC",
"F. c #FFCDCDCD",
"G. c #FFCECECE",
"H. c #FFCFCFCF",
"J. c #FFD0D0D0",
"K. c #FFD1D1D1",
"L. c #FFD2D2D2",
"P. c #FFD3D3D3",
"I. c #FFD4D4D4",
"U. c #FFD6D6D6",
"Y. c #FFD7D7D7",
"T. c #FFD8D8D8",
"R. c #FFD9D9D9",
"E. c #FFDADADA",
"W. c #FFDBDBDB",
"Q. c #FFDCDCDC",
"!. c #FFDDDDDD",
"~. c #FFDEDEDE",
"^. c #FFE0E0E0",
"/. c #FFE2E2E2",
"(. c #FFE3E3E3",
"). c #FFE4E4E4",
"_. c #FFE6E6E6",
"`. c #FFE6E6E6",
"'. c #FFE7E7E7",
"]. c #FFE8E8E8",
"[. c #FFE9E9E9",
"{. c #FFEAEAEA",
"}. c #FFEBEBEB",
"|. c #FFECECEC",
" X c #FFEDEDED",
".X c #FFEEEEEE",
"XX c #FFEFEFEF",
"oX c #FFF0F0F0",
"OX c #FFF1F1F1",
"+X c #FFF2F2F2",
"@X c #FFF3F3F3",
"#X c #FFF4F4F4",
"$X c #FFF5F5F5",
"%X c #FFF6F6F6",
"&X c #FFF7F7F7",
"*X c #FFF8F8F8",
"=X c #FFF9F9F9",
"-X c #FFFAFAFA",
";X c #FFFBFBFB",
":X c #FFFCFCFC",
">X c #FFFDFDFD",
",X c #FFFEFEFE",
/* pixels */
"                                                                                                                                                                                                                                                                ",
"                                                                                                                                                                                                                                                                ",
"                                                                                                                                                                                                                                                                ",
"                                                                                                                                                                                                                                                                ",
"                                                                                                                                                                                                                                                                ",
"                                                                                                                                                                                                                                                                ",
"                                                                                                                                                                                                                                                                ",
"                                                                                                                                                                                                                                                                ",
"                                                                                                                                                                                                                                                                ",
"                                                                                                                                                                                                                                                                ",
"                                                                                                                                                                                                                                                                ",
"                                                                                                                                                                                                                                                                ",
"                                                                                                                                                                                                                                                                ",
"                                                                                                                                                                                                                                                                ",
"                                                                                                                                                                                                                                                                ",
"                                                                                                                                                                                                                                                                ",
"                                                                                                                                                                                                                                                                ",
"                                                                                                                                                                                                                                                                ",
"                                                                                                                                                                                                                                                                ",
"                                                                                                                                                                                                                                                                ",
"                                                                                                                                                                                                                                                                ",
"                                                                                                                                                                            : : % % % % % d l v V F V a % d                                                     ",
"                                                                                                                                                                        a % % % % % % 7 -.H.). X#X#X XW.] R #X:X Xl q. X#XK.                                    ",
"                                                                                                        t % % % % % a V ~ R +.k.                                      ~ % + + % % % % 4.:X:X:X XW.#X:X:X X+.W.W.H.F V.:X:XH.v : ~ k.#X:X#X#X                    ",
"                                              %               d + % % % : v R V F d % % l 4.k.). X      t % % % % % i.#X#XH.W.:X:X).      +       7 : 7 7 7 % % 7 a d l 7 V V 7 % % 7 H.:X:X#X4.] W.K.i.+.] ). X).K.#X:X:X:Xr.q.#X:X X).:X:X#X                  ",
"                                      7 % % % % t ~ q.V.).#X#X:.t % % % v  X X#X#Xk.: : k.:X:X:X#XR     7 % % % % % k.:X:XK.W.:X:X:.t F ] V % % v :.i.H.H.V.+.t :.K.).k.k.#X#Xi.: % : V.:X:X:X#X#X#X#X).q.{ #X:X XW.:X:X:X#XH.#X:X#Xk.k.:X:X:X                  ",
"                                    t % % % % v K.:X:X:X:X:X:X:Xk.t % + V :X:X:X:X#XV v #X:X:X:X Xd 7 ] q.k.V.i.] 7 k.:X:XK.W.:X:Xk.H.:X:X#X~ R  X:X:X:X:X:X:Xr.V.:X:X:X:X:X:X#Xv % % R W.#X#X:X:X:X:X:X:XV.#X:X XR V.:X:Xi.] :X:X#XW.H.W.).#X                  ",
"                                    : % % % t H.:X:X:X X).#X:X:X:X+.% % V :X:X:X:X:Xi.r.:X:X:X:X XF k.:X:X X#X:X:Xq.k.:X:XK.W.:X:X:X#X:X:X:XV.H.:X:XH.V k.:X:X XW.:X:XK.+.:X:X:XF + : v +.k.W.-.{ ).:X:X:XK.#X:X Xl i.:X:XW.r.#X:X#X4.+.W. X#X                  ",
"                                  F % % % + F #X:X:Xk.l t { #X:X:Xi.% + V :X:X:X:X:X#X#X:X:X:X:X Xr.:X:X Xq.K.:X:X XW.:X:XK.W.:X:XV.V K.:X:XW. X:X:X-.. +.:X:X X).:X:XH.d :.:.+.t % 7 K.:X#X#Xk.q. X:X:X Xr.#X:X Xl r.:X:X:Xk.V.:X:X#X:X:X:X#X                  ",
"                                  F % % % + ] :X:X:XF + + 7 W.:X:XV.% + V #X:X:X#X:X:X:X#X).:X:X XV.:X:X#XW.K.W.W.K.).:X:XK.W.:X:X-.+ r.:X:XH.W.:X:XH.] H.:X:XK.H.:X:X:X    + + % % % -.#X:X:X:X:X:X:X:Xr.] #X#X Xv -.:X#X#Xi.   X#X:X#X#X                      ",
"                                    : % % + ] :X:X:X-.: : R #X:X:Xr.% + V :X:X#Xq. X:X:XK.4.:X:X).k.:X:X).] 4.).).W.W.:X:XK.W.:X:X-.% r.:X:Xk.-.#X:X:X:X:X:X#X~ i.:X:X:X                  #X:X:X#X#X                                                            ",
"                                    7 % % % V #X:X:X#XV.V. X:X:X#X~ % % V :X:X:X~ r.:X:X+.{ :X:X).{ ).:X:X#X#X:X:Xq.V.:X:XK.W.:X:Xq.% r.:X:XK.    #X#X#X#X                                                                                                      ",
"                                        % % : i.:X:X:X:X:X:X:X:XW.7 % + V #X:X:X~ F #X#Xv { :X:X#X    #X#X#X#X#X                                                                                                                                                ",
"                                                ).#X#X:X#X#X#X                                                                                                                                                                                                  ",
"                                                                                                                                                                                                                                                                ",
"                                                                                                                                                                                                                                                                ",
"                                                                                                                                                                                                                                                                ",
"                                                                                                                                                                                                                                                                ",
"                                                                                                                                                                                                                                                                ",
"                                                                                                                                                                                                                                                                ",
"                                                                                                                                                                                                                                                                ",
"                                                                                                                                                                                                                                                                ",
"                                                                                                                                                                                                                                                                ",
"                                                                                                                                                                                                                                                                ",
"                                                                                                                                                                                                                                                                ",
"                                                                                                                                                                                                                                                                ",
"                                                                                                                                                                                                                                                                ",
"                                                                                                                                                                                                                                                                ",
"                                                                                                                                                                                                                                                                ",
"                                                                                                                                                                                                                                                                ",
"                                                                                                                                                                                                                                                                ",
"                                                                                                                                                                                                                                                                ",
"                                                                                                                                                                                                                                                                ",
"                                                                                                                                                                                                                                                                "
};
