/* XPM */
static char *oms_328[] = {
/* columns rows colors chars-per-pixel */
"128 54 192 2 ",
"   c #00000000",
".  c #FF0C0C0C",
"X  c #FF0D0D0D",
"o  c #FF0E0E0E",
"O  c #FF0F0F0F",
"+  c #FF101010",
"@  c #FF111111",
"#  c #FF121212",
"$  c #FF131313",
"%  c #FF141414",
"&  c #FF151515",
"*  c #FF161616",
"=  c #FF171717",
"-  c #FF181818",
";  c #FF191919",
":  c #FF1A1A1A",
">  c #FF1B1B1B",
",  c #FF1C1C1C",
"<  c #FF1D1D1D",
"1  c #FF1F1F1F",
"2  c #FF202020",
"3  c #FF212121",
"4  c #FF222222",
"5  c #FF232323",
"6  c #FF242424",
"7  c #FF252525",
"8  c #FF262626",
"9  c #FF272727",
"0  c #FF282828",
"q  c #FF292929",
"w  c #FF2A2A2A",
"e  c #FF2B2B2B",
"r  c #FF2C2C2C",
"t  c #FF2D2D2D",
"y  c #FF2E2E2E",
"u  c #FF2F2F2F",
"i  c #FF303030",
"p  c #FF313131",
"a  c #FF323232",
"s  c #FF343434",
"d  c #FF363636",
"f  c #FF373737",
"g  c #FF383838",
"h  c #FF393939",
"j  c #FF3B3B3B",
"k  c #FF3D3D3D",
"l  c #FF3E3E3E",
"z  c #FF404040",
"x  c #FF414141",
"c  c #FF424242",
"v  c #FF434343",
"b  c #FF494949",
"n  c #FF4A4A4A",
"m  c #FF4B4B4B",
"M  c #FF4C4C4C",
"N  c #FF4F4F4F",
"B  c #FF505050",
"V  c #FF545454",
"C  c #FF555555",
"Z  c #FF565656",
"A  c #FF575757",
"S  c #FF585858",
"D  c #FF5A5A5A",
"F  c #FF5D5D5D",
"G  c #FF5E5E5E",
"H  c #FF616161",
"J  c #FF636363",
"K  c #FF656565",
"L  c #FF666666",
"P  c #FF676767",
"I  c #FF686868",
"U  c #FF696969",
"Y  c #FF6B6B6B",
"T  c #FF6D6D6D",
"R  c #FF6F6F6F",
"E  c #FF717171",
"W  c #FF737373",
"Q  c #FF757575",
"!  c #FF767676",
"~  c #FF777777",
"^  c #FF797979",
"/  c #FF7A7A7A",
"(  c #FF7B7B7B",
")  c #FF7D7D7D",
"_  c #FF808080",
"`  c #FF818181",
"'  c #FF828282",
"]  c #FF838383",
"[  c #FF858585",
"{  c #FF878787",
"}  c #FF888888",
"|  c #FF898989",
" . c #FF8B8B8B",
".. c #FF8C8C8C",
"X. c #FF8D8D8D",
"o. c #FF8F8F8F",
"O. c #FF909090",
"+. c #FF919191",
"@. c #FF939393",
"#. c #FF949494",
"$. c #FF979797",
"%. c #FF989898",
"&. c #FF9B9B9B",
"*. c #FF9C9C9C",
"=. c #FF9D9D9D",
"-. c #FF9E9E9E",
";. c #FF9F9F9F",
":. c #FFA0A0A0",
">. c #FFA2A2A2",
",. c #FFA3A3A3",
"<. c #FFA4A4A4",
"1. c #FFA7A7A7",
"2. c #FFA8A8A8",
"3. c #FFA9A9A9",
"4. c #FFAAAAAA",
"5. c #FFABABAB",
"6. c #FFACACAC",
"7. c #FFAEAEAE",
"8. c #FFAFAFAF",
"9. c #FFB0B0B0",
"0. c #FFB2B2B2",
"q. c #FFB2B2B2",
"w. c #FFB4B4B4",
"e. c #FFB5B5B5",
"r. c #FFB6B6B6",
"t. c #FFB7B7B7",
"y. c #FFB8B8B8",
"u. c #FFB9B9B9",
"i. c #FFBABABA",
"p. c #FFBBBBBB",
"a. c #FFBDBDBD",
"s. c #FF808080",
"d. c #FFBFBFBF",
"f. c #FFC0C0C0",
"g. c #FFC1C1C1",
"h. c #FFC2C2C2",
"j. c #FFC3C3C3",
"k. c #FFC4C4C4",
"l. c #FFC5C5C5",
"z. c #FFC6C6C6",
"x. c #FFC7C7C7",
"c. c #FFC8C8C8",
"v. c #FFC9C9C9",
"b. c #FFCACACA",
"n. c #FFCBCBCB",
"m. c #FFCCCCCC",
"M. c #FFCDCDCD",
"N. c #FFCECECE",
"B. c #FFCFCFCF",
"V. c #FFD0D0D0",
"C. c #FFD1D1D1",
"Z. c #FFD2D2D2",
"A. c #FFD3D3D3",
"S. c #FFD5D5D5",
"D. c #FFD7D7D7",
"F. c #FFD8D8D8",
"G. c #FFDADADA",
"H. c #FFDCDCDC",
"J. c #FFDDDDDD",
"K. c #FFDEDEDE",
"L. c #FFDFDFDF",
"P. c #FFE0E0E0",
"I. c #FFE2E2E2",
"U. c #FFE3E3E3",
"Y. c #FFE4E4E4",
"T. c #FFE6E6E6",
"R. c #FFE6E6E6",
"E. c #FFE7E7E7",
"W. c #FFE8E8E8",
"Q. c #FFE9E9E9",
"!. c #FFEAEAEA",
"~. c #FFEBEBEB",
"^. c #FFECECEC",
"/. c #FFEDEDED",
"(. c #FFEEEEEE",
"). c #FFEFEFEF",
"_. c #FFF0F0F0",
"`. c #FFF1F1F1",
"'. c #FFF2F2F2",
"]. c #FFF3F3F3",
"[. c #FFF4F4F4",
"{. c #FFF5F5F5",
"}. c #FFF6F6F6",
"|. c #FFF7F7F7",
" X c #FFF8F8F8",
".X c #FFF9F9F9",
"XX c #FFFAFAFA",
"oX c #FFFBFBFB",
"OX c #FFFCFCFC",
"+X c #FFFDFDFD",
"@X c #FFFEFEFE",
"#X c #FFFFFFF1",
/* pixels */
"                                                                                                                                                                                                                                                                ",
"                                                                                                                                                                                                                                                                ",
"                                                                                                                                                                                                                                                                ",
"                                                                                                                                                                                                                                                                ",
"                                                                                                                                                                                                                                                                ",
"                                                                                                                                                                                                                                                                ",
"                                                                                                                                                                                                                                                                ",
"                                                                                                                                                                                                                                                                ",
"                                                                                                                                                                                                                                                                ",
"                                                                                                                                                                                                                                                                ",
"                                                                                                                                                                                                                                                                ",
"                                                                                                                                                                                                                                                                ",
"                                                                                                                                                                                                                                                                ",
"                                                                                                                                                                                                                                                                ",
"                                                                                                                                                                                                                                                                ",
"                                                                                                                                                                                                                                                                ",
"                                                                                                                                                                                                                                                                ",
"                                                                                                                                                                                                                                                                ",
"                                                                                                                                                                                                                                                                ",
"                                                                                                                                                                                                                                                                ",
"                                  m + + + + + + > > i                                                                                                                                                                                                           ",
"                      |..X.X.X|.|.L.-.i + + + J 7.>.@.@.q + > m m c l > 7 + + + + + 7                                                                                                                                                                           ",
"                    |..X.X.X.X.X.X.X.Xg.7 + + o..X.X.X.XE o B |.|.Q.Q.J o + + + + + + {     7.J J B c > + + > + + + I                                                                                                                                           ",
"                    |..X.XP.o.{ m..X.X.XI o + o..X.X.X.Xg.7 7..X.X.X.XI o o + + + o + I |..X|.d.P.|.L.l + + + + + + J                                                                                                                                           ",
"                    .X.X.X{ o o l P..X.X-.+ + o..X.X.X.XQ.{ Q..X.X.X.XI 7 E -.-.o.J q > g..X.Xd.Q..XQ.c o + + + + + c                                           d.o.D q + + 7 > > 7 7 o + + q                                                                   ",
"                    .X.X.X@.+ o i P..X.X>.+ + o..X.X.X.X.X|..X.X.X.X.X{ d..X.X|..X.XD.B g..X.Xd.Q..XQ.I o.7.@.i + > m J J B m 7 + > > > + + 7   o +     |..X.X.X.X|.|.D.E l m.D.g.l q l q > + 7 + + +                                                           ",
"                    |..X.XQ.o.I 9..X.X.Xo.+ + o..X.XQ.P..X.X.XQ.|..X.Xg.|..X|.7.g..X.Xg.m..X.Xd.Q..X|.Q..X.X.Xd.i 9.|..X.X|.Q.7.i { g.9.E I >.{ 7 + + B |..X.XQ.9.P..X.X|.( L.|.|.m >.Q.P.{ o + + + + B                                                         ",
"                      .X.X.X.X.X.X.X.X|.B + + o..X.XD.-..X.X.X>.P..X.XL..X.X|.P.P.|.|.P.P..X.Xd.Q..X.Xm.D..X.XQ.7..X.X|.g.P..X.Xd.9..X.XQ.|..X.X-.+ o B |..X.XL.o.9.L.g.7.E g.D.m.( m..X.X7.7 + 7 i i q i o + + + >                                             ",
"                        |..X.X.X.X.XQ.o.+ + o -..X.XD.m P..XL.B L..X.Xd.|..XQ.( o.m.D.g.L..X.Xd.Q..X|.m m |..XQ.D..X.Xg.7 I .X.XQ.D..X.XP.D..X.XL.7 + 7 m..X.X.X.X.X|.P.>.B Q..X|.|..X.X.X|.E E D.P.Q.L.9.D + + + + + l                                         ",
"                                                |..XD.7 g..X-.l P..X.X{ d..X.XQ.Q..X.Xm.D..X.Xd.Q..XQ.l c |..XQ.g..X.XD.q E .X.X|.L..X.X7.D |.|.P.q + 7 J m.P.P.Q.|..X.X.X9.Q..X|.L.|..X.X|.9.Q..X|.m.P..X|.J + + + + >                                         ",
"                                                                            |..X.X.XQ.E m..X.Xd.Q..XQ.c c |..XQ.( P..X|.D.P..X.XD.d..X.X7.> m D B > + @.Q.P.P.9.m 7..X.X.XP.Q..X|.D d..X.X9.@..X.X|.d.P..X.Xd.> + + + +                                         ",
"                                                                                                          |..XQ.B   .X.X.X.X.X|.( 9..X.X7.+ + o o + +   .X.X.X|.m.P..X.X.Xm.Q..XQ.m 9..X.Xd.-..X.XQ.9.g.L.L.d.> + + + +                                         ",
"                                                                                                                                                          |..X.X.X.X.X.XP.( Q..XQ.m 7..X.X.Xd.Q..X|.-.d.P.P.9.> + + + q                                         ",
"                                                                                                                                                                  Q.Q.      |.|.Q.B   .X|..X{ 7..X.X.X.X.X.X@.+ + +                                             ",
"                                                                                                                                                                                                    |.|.Q.                                                      ",
"                                                                                                                                                                                                                                                                ",
"                                                                                                                                                                                                                                                                ",
"                                                                                                                                                                                                                                                                ",
"                                                                                                                                                                                                                                                                ",
"                                                                                                                                                                                                                                                                ",
"                                                                                                                                                                                                                                                                ",
"                                                                                                                                                                                                                                                                ",
"                                                                                                                                                                                                                                                                ",
"                                                                                                                                                                                                                                                                ",
"                                                                                                                                                                                                                                                                ",
"                                                                                                                                                                                                                                                                ",
"                                                                                                                                                                                                                                                                ",
"                                                                                                                                                                                                                                                                ",
"                                                                                                                                                                                                                                                                ",
"                                                                                                                                                                                                                                                                ",
"                                                                                                                                                                                                                                                                ",
"                                                                                                                                                                                                                                                                ",
"                                                                                                                                                                                                                                                                ",
"                                                                                                                                                                                                                                                                "
};
