/* XPM */
static char *oms_255[] = {
/* columns rows colors chars-per-pixel */
"128 54 167 2 ",
"   c #00000000",
".  c #FF0D0D0D",
"X  c #FF0E0E0E",
"o  c #FF0F0F0F",
"O  c #FF101010",
"+  c #FF111111",
"@  c #FF121212",
"#  c #FF131313",
"$  c #FF141414",
"%  c #FF151515",
"&  c #FF171717",
"*  c #FF181818",
"=  c #FF191919",
"-  c #FF1A1A1A",
";  c #FF1B1B1B",
":  c #FF1C1C1C",
">  c #FF1D1D1D",
",  c #FF1E1E1E",
"<  c #FF1F1F1F",
"1  c #FF202020",
"2  c #FF212121",
"3  c #FF222222",
"4  c #FF242424",
"5  c #FF252525",
"6  c #FF262626",
"7  c #FF272727",
"8  c #FF292929",
"9  c #FF2A2A2A",
"0  c #FF2B2B2B",
"q  c #FF2C2C2C",
"w  c #FF2D2D2D",
"e  c #FF2E2E2E",
"r  c #FF323232",
"t  c #FF333333",
"y  c #FF343434",
"u  c #FF353535",
"i  c #FF383838",
"p  c #FF3A3A3A",
"a  c #FF3C3C3C",
"s  c #FF3D3D3D",
"d  c #FF3E3E3E",
"f  c #FF3F3F3F",
"g  c #FF414141",
"h  c #FF424242",
"j  c #FF444444",
"k  c #FF454545",
"l  c #FF464646",
"z  c #FF474747",
"x  c #FF484848",
"c  c #FF4A4A4A",
"v  c #FF4C4C4C",
"b  c #FF4E4E4E",
"n  c #FF4F4F4F",
"m  c #FF505050",
"M  c #FF515151",
"N  c #FF555555",
"B  c #FF565656",
"V  c #FF575757",
"C  c #FF595959",
"Z  c #FF5A5A5A",
"A  c #FF5B5B5B",
"S  c #FF5C5C5C",
"D  c #FF5F5F5F",
"F  c #FF606060",
"G  c #FF656565",
"H  c #FF666666",
"J  c #FF676767",
"K  c #FF6A6A6A",
"L  c #FF6C6C6C",
"P  c #FF6F6F6F",
"I  c #FF717171",
"U  c #FF737373",
"Y  c #FF767676",
"T  c #FF7A7A7A",
"R  c #FF7D7D7D",
"E  c #FF7E7E7E",
"W  c #FF808080",
"Q  c #FF808080",
"!  c #FF818181",
"~  c #FF838383",
"^  c #FF858585",
"/  c #FF888888",
"(  c #FF8A8A8A",
")  c #FF8B8B8B",
"_  c #FF8C8C8C",
"`  c #FF909090",
"'  c #FF919191",
"]  c #FF939393",
"[  c #FF969696",
"{  c #FF999999",
"}  c #FF9A9A9A",
"|  c #FF9C9C9C",
" . c #FFA0A0A0",
".. c #FFA2A2A2",
"X. c #FFA3A3A3",
"o. c #FFA6A6A6",
"O. c #FFA7A7A7",
"+. c #FFA8A8A8",
"@. c #FFA9A9A9",
"#. c #FFABABAB",
"$. c #FFACACAC",
"%. c #FFADADAD",
"&. c #FFAFAFAF",
"*. c #FFB0B0B0",
"=. c #FFB2B2B2",
"-. c #FFB4B4B4",
";. c #FFB5B5B5",
":. c #FFB7B7B7",
">. c #FFB8B8B8",
",. c #FFB9B9B9",
"<. c #FFBABABA",
"1. c #FFBBBBBB",
"2. c #FFBCBCBC",
"3. c #FF808080",
"4. c #FFC2C2C2",
"5. c #FFC6C6C6",
"6. c #FFC8C8C8",
"7. c #FFCACACA",
"8. c #FFCBCBCB",
"9. c #FFCCCCCC",
"0. c #FFCDCDCD",
"q. c #FFCECECE",
"w. c #FFCFCFCF",
"e. c #FFD0D0D0",
"r. c #FFD1D1D1",
"t. c #FFD2D2D2",
"y. c #FFD3D3D3",
"u. c #FFD5D5D5",
"i. c #FFD6D6D6",
"p. c #FFD7D7D7",
"a. c #FFD8D8D8",
"s. c #FFD9D9D9",
"d. c #FFDADADA",
"f. c #FFDBDBDB",
"g. c #FFDCDCDC",
"h. c #FFDDDDDD",
"j. c #FFDEDEDE",
"k. c #FFDFDFDF",
"l. c #FFE0E0E0",
"z. c #FFE2E2E2",
"x. c #FFE3E3E3",
"c. c #FFE4E4E4",
"v. c #FFE6E6E6",
"b. c #FFE6E6E6",
"n. c #FFE7E7E7",
"m. c #FFE8E8E8",
"M. c #FFE9E9E9",
"N. c #FFEAEAEA",
"B. c #FFEBEBEB",
"V. c #FFECECEC",
"C. c #FFEDEDED",
"Z. c #FFEEEEEE",
"A. c #FFF0F0F0",
"S. c #FFF1F1F1",
"D. c #FFF2F2F2",
"F. c #FFF3F3F3",
"G. c #FFF4F4F4",
"H. c #FFF5F5F5",
"J. c #FFF6F6F6",
"K. c #FFF7F7F7",
"L. c #FFF8F8F8",
"P. c #FFF9F9F9",
"I. c #FFFAFAFA",
"U. c #FFFBFBFB",
"Y. c #FFFCFCFC",
"T. c #FFFDFDFD",
"R. c #FFFEFEFE",
/* pixels */
"                                                                                                                                                                                                                                                                ",
"                                                                                                                                                                                                                                                                ",
"                                                                                                                                                                                                                                                                ",
"                                                                                                                                                                                                                                                                ",
"                                                                                                                                                                                                                                                                ",
"                                                                                                                                                                                                                                                                ",
"                                                                                                                                                                                                                                                                ",
"                                                                                                                                                                                                                                                                ",
"                                                                                                                                                                                                                                                                ",
"                                                                                                                                                                                                                                                                ",
"                                                                                                                                                                                                                                                                ",
"                                                                                                                                        K 2 @ @ @ @ @                                                                                                           ",
"                                                                                                                                      ' - @ @ @ @ @ @ @ @ @ p 9.A.                                                                                              ",
"                                                                                                                                      z @ @ @ @ @ @ @ @ @ 2 <.R.R.                                                                                              ",
"                                                                                                                                N - @ @ @ @ @ @ @ @ @ p 2 Z A.c.A.                                                                                              ",
"                                                                                                                              Z - @ @ @ @ @ @ @ @ X N h.x _ u.Z c.                                                                                              ",
"                                                                                                                          N - @ @ @ @ @ @ @ @ @ z z | A.N X.$.u c.                                                                                              ",
"                                                                                                                          u @ @ @ @ @ @ @ @ @ z c.X.<.A.N $.-.K A.                                                                                              ",
"                                                                                                                          u @ @ @ @ @ @ @ @ X N R.u.h.A.N $.A.Z.A.                                                                                              ",
"                                                                                                                K - @ @ 2 - @ @ @ @ @ 2 u @ X N A.A.A.A.x ' R.R.                                                                                                ",
"                                                                                                              z @ @ @ @ @ @ @ @ @ @ z -.T u X.| A.R.Z.Z.Z J A.A.                                                                                                ",
"                                                                                                            -.8 @ @ @ @ @ @ @ @ @ p u.c.' -.R.c.Z.Z.9.c.                                                                                                        ",
"                                                                                                            -.8 @ @ @ @ @ @ @ @ X z c.h.5.h.h.R.c.9.-.h.                                                                                                        ",
"                                                                                                          _ p - @ @ @ @ @ @ @ @ - J c.h.c.Z.Z.Z.c.$.                                                                                                            ",
"                                                                                                          z @ @ @ @ @ @ @ @ @ @ _ Z.Z.h.A.5.9.9.Z.                                                                                                              ",
"                                                                                                    T 2 @ @ @ @ @ @ @ @ @ 2 Q T u.A.Z.h.Z.A.A.                                                                                                                  ",
"                                                                                                  J 8 @ @ @ @ @ @ @ @ @ - | R.c.c.| c.h.h.A.                                                                                                                    ",
"                                                                                        8 @ @ p u @ @ @ @ @ @ u 2 @ - J X.h.u.Z.c.Q h.h.                                                                                                                        ",
"                                                                                    Q 8 @ @ @ @ @ @ @ @ @ - T c.Q - X.c.A.9.Q Z.c._ c.                                                                                                                          ",
"                                                                                  Z 8 @ @ @ @ @ @ @ @ @ 2 I A.R.| x A.R.R.h.$.u.h.                                                                                                                              ",
"                                                                                x @ @ @ @ @ @ @ @ @ X x <.u.u.c.| Z h.u.R.A.A.u.                                                                                                                                ",
"                                                                              p - @ @ @ @ @ @ @ @ @ z ' h.9.u.A.I Z $.<.h.Z.R.                                                                                                                                  ",
"                                                                            K @ @ @ @ @ @ @ @ @ @ 8 9.$.<.-.R.h.Z 2 2 -.                                                                                                                                        ",
"                                                                            Z @ @ @ @ @ @ @ @ @ X p c.Z.c.c.u.9.u.                                                                                                                                              ",
"                                                                          x 2 @ @ @ @ @ @ @ @ - x Q A.Z.A.R.5.c.A.                                                                                                                                              ",
"                                                                      Q - @ @ @ @ @ @ @ @ @ - ' A.h.Z.<.A.A.R.A.                                                                                                                                                ",
"                                                                      z @ @ @ @ @ @ @ @ @ @ x h.Z.9.h.$.c.c.A.                                                                                                                                                  ",
"                                                                    -.2 @ @ @ @ @ @ @ @ @ X I A.Z.h.c.$.Z.                                                                                                                                                      ",
"                                                                    $.2 @ @ @ @ @ @ @ @ @ @ _ u.u.c.A.                                                                                                                                                          ",
"                                                                      8 @ @ @ @ @ @ @ @ @ @ T c.Z.9.                                                                                                                                                            ",
"                                                                    -.2 @ @ @ @ @ @ @ @ @ @ T R.A.                                                                                                                                                              ",
"                                                                                                                                                                                                                                                                ",
"                                                                                                                                                                                                                                                                ",
"                                                                                                                                                                                                                                                                ",
"                                                                                                                                                                                                                                                                ",
"                                                                                                                                                                                                                                                                ",
"                                                                                                                                                                                                                                                                ",
"                                                                                                                                                                                                                                                                ",
"                                                                                                                                                                                                                                                                ",
"                                                                                                                                                                                                                                                                ",
"                                                                                                                                                                                                                                                                ",
"                                                                                                                                                                                                                                                                ",
"                                                                                                                                                                                                                                                                ",
"                                                                                                                                                                                                                                                                "
};
