/* XPM */
static char *oms_132[] = {
/* columns rows colors chars-per-pixel */
"128 54 191 2 ",
"   c #00000000",
".  c #FF0D0D0D",
"X  c #FF0E0E0E",
"o  c #FF0F0F0F",
"O  c #FF101010",
"+  c #FF111111",
"@  c #FF121212",
"#  c #FF131313",
"$  c #FF141414",
"%  c #FF151515",
"&  c #FF161616",
"*  c #FF171717",
"=  c #FF181818",
"-  c #FF191919",
";  c #FF1A1A1A",
":  c #FF1B1B1B",
">  c #FF1C1C1C",
",  c #FF1D1D1D",
"<  c #FF1E1E1E",
"1  c #FF1F1F1F",
"2  c #FF202020",
"3  c #FF212121",
"4  c #FF222222",
"5  c #FF232323",
"6  c #FF242424",
"7  c #FF252525",
"8  c #FF262626",
"9  c #FF272727",
"0  c #FF282828",
"q  c #FF292929",
"w  c #FF2A2A2A",
"e  c #FF2B2B2B",
"r  c #FF2C2C2C",
"t  c #FF2D2D2D",
"y  c #FF2E2E2E",
"u  c #FF303030",
"i  c #FF313131",
"p  c #FF323232",
"a  c #FF333333",
"s  c #FF343434",
"d  c #FF353535",
"f  c #FF373737",
"g  c #FF383838",
"h  c #FF393939",
"j  c #FF3F3F3F",
"k  c #FF404040",
"l  c #FF414141",
"z  c #FF424242",
"x  c #FF434343",
"c  c #FF444444",
"v  c #FF464646",
"b  c #FF474747",
"n  c #FF484848",
"m  c #FF494949",
"M  c #FF4B4B4B",
"N  c #FF4C4C4C",
"B  c #FF505050",
"V  c #FF525252",
"C  c #FF545454",
"Z  c #FF565656",
"A  c #FF575757",
"S  c #FF5A5A5A",
"D  c #FF5C5C5C",
"F  c #FF5D5D5D",
"G  c #FF5E5E5E",
"H  c #FF5F5F5F",
"J  c #FF616161",
"K  c #FF626262",
"L  c #FF646464",
"P  c #FF656565",
"I  c #FF676767",
"U  c #FF6A6A6A",
"Y  c #FF6B6B6B",
"T  c #FF6C6C6C",
"R  c #FF6E6E6E",
"E  c #FF717171",
"W  c #FF727272",
"Q  c #FF757575",
"!  c #FF777777",
"~  c #FF787878",
"^  c #FF797979",
"/  c #FF7B7B7B",
"(  c #FF7D7D7D",
")  c #FF7E7E7E",
"_  c #FF808080",
"`  c #FF828282",
"'  c #FF838383",
"]  c #FF858585",
"[  c #FF868686",
"{  c #FF878787",
"}  c #FF888888",
"|  c #FF898989",
" . c #FF8A8A8A",
".. c #FF8C8C8C",
"X. c #FF8D8D8D",
"o. c #FF909090",
"O. c #FF929292",
"+. c #FF949494",
"@. c #FF959595",
"#. c #FF969696",
"$. c #FF979797",
"%. c #FF999999",
"&. c #FF9A9A9A",
"*. c #FF9B9B9B",
"=. c #FF9C9C9C",
"-. c #FF9D9D9D",
";. c #FF9E9E9E",
":. c #FF9F9F9F",
">. c #FFA0A0A0",
",. c #FFA1A1A1",
"<. c #FFA3A3A3",
"1. c #FFA5A5A5",
"2. c #FFA6A6A6",
"3. c #FFA7A7A7",
"4. c #FFA8A8A8",
"5. c #FFAAAAAA",
"6. c #FFACACAC",
"7. c #FFAEAEAE",
"8. c #FFB0B0B0",
"9. c #FFB1B1B1",
"0. c #FFB2B2B2",
"q. c #FFB2B2B2",
"w. c #FFB4B4B4",
"e. c #FFB5B5B5",
"r. c #FFB6B6B6",
"t. c #FFB7B7B7",
"y. c #FFB8B8B8",
"u. c #FFB9B9B9",
"i. c #FFBABABA",
"p. c #FFBBBBBB",
"a. c #FFBCBCBC",
"s. c #FFBDBDBD",
"d. c #FF808080",
"f. c #FFBFBFBF",
"g. c #FFC0C0C0",
"h. c #FFC1C1C1",
"j. c #FFC4C4C4",
"k. c #FFC5C5C5",
"l. c #FFC7C7C7",
"z. c #FFC8C8C8",
"x. c #FFC9C9C9",
"c. c #FFCACACA",
"v. c #FFCBCBCB",
"b. c #FFCCCCCC",
"n. c #FFCECECE",
"m. c #FFCFCFCF",
"M. c #FFD0D0D0",
"N. c #FFD1D1D1",
"B. c #FFD2D2D2",
"V. c #FFD3D3D3",
"C. c #FFD6D6D6",
"Z. c #FFD7D7D7",
"A. c #FFD8D8D8",
"S. c #FFDADADA",
"D. c #FFDBDBDB",
"F. c #FFDCDCDC",
"G. c #FFDDDDDD",
"H. c #FFDEDEDE",
"J. c #FFDFDFDF",
"K. c #FFE0E0E0",
"L. c #FFE1E1E1",
"P. c #FFE2E2E2",
"I. c #FFE3E3E3",
"U. c #FFE4E4E4",
"Y. c #FFE6E6E6",
"T. c #FFE6E6E6",
"R. c #FFE7E7E7",
"E. c #FFE8E8E8",
"W. c #FFE9E9E9",
"Q. c #FFEAEAEA",
"!. c #FFEBEBEB",
"~. c #FFECECEC",
"^. c #FFEDEDED",
"/. c #FFEEEEEE",
"(. c #FFEFEFEF",
"). c #FFF0F0F0",
"_. c #FFF1F1F1",
"`. c #FFF2F2F2",
"'. c #FFF3F3F3",
"]. c #FFF4F4F4",
"[. c #FFF5F5F5",
"{. c #FFF6F6F6",
"}. c #FFF7F7F7",
"|. c #FFF8F8F8",
" X c #FFF9F9F9",
".X c #FFFAFAFA",
"XX c #FFFBFBFB",
"oX c #FFFCFCFC",
"OX c #FFFDFDFD",
"+X c #FFFEFEFE",
"@X c #FFFFFFFF",
/* pixels */
"                                                                                                                                                                                                                                                                ",
"                                                                                                                                                                                                                                                                ",
"                                                                                                                                                                                                                                                                ",
"                                                                                                                                                                                                                                                                ",
"                                                                                                                                                                                                                                                                ",
"                                                                                                                                                                                                                                                                ",
"                                                                                                                                                                                                                                                                ",
"                                                                                                                                                                                                                                                                ",
"                                                                                                                                                                                                                                                                ",
"                                                                                                                                                                                                                                                                ",
"                                                                                                                                                                                                                                                                ",
"                                                                                                                                                                                                                                                                ",
"                                                                      # # e n       1 x Y                                                                                                                                                                       ",
"                                                                # # # # o # # 1 # # # # 1 1 # e G                                                                                                                                                               ",
"                                                          ~.7.G 1 o a @.K 8 a 8 # # # # # # # o 8 j 1 e n !                                                                                                                                                     ",
"                                                        |.|.{.{.s.a K {.|.! 7.F.} 1 1 # # o # # # # # # # 1 a Y                                                                                                                                                 ",
"                                                        {.{.g.B.|.8.n.|.|.,.7.{.n.K s.s.} A 8 # # # # # # # # # Y                                                                                                                                               ",
"                                                        U.F.n.U.|.{.F.|.|.{.F.F.8.g.|.|.|.{.n.G # # # # # # # # e                                                                                                                                               ",
"                                                        |.{.,.s.|.~.( ~.|.~.~.|.n.K s.U.s.B.|.{.G # # # # # # # 8 ,.                                                                                                                                            ",
"                                                          |.|.{.|.~.s.{.|.} s.|.B.8.~.~.s.g.|.|.8.# # # # # # # e       # A                                                                                                                                     ",
"                                                              {.{.B.~.|.|.( 7.|.U.~.|.|.|.|.|.|.g.1 # 1 1 # # # # # # # # 1 e e n                                                                                                                               ",
"                                                                      {.|.( s.|.U.U.|.|.n.B.{.{.} # 1 @.n.K e 1 # # # # # # # # # A     n                                                                                                                       ",
"                                                                            ~.|.B.8.|.|.@.} F.:.a # a U.|.~.B.n.( # # # # # # # # # # # # 8 x           # e A                                                                                                   ",
"                                                                                    {.|.|.{.|.{.8.1 j ~.|.U.~.|.F.Y s.s.[ j # # # # # 1 a 1 o 8 1 # # # # # # 8 e n }                                                                                           ",
"                                                                                        {.{.|.|.7.# 8   |.:.n.|.~.U.|.|.|.~.} 1 # 1 # e n.g.Y x 8 # # # # # # # # o G                                                                                           ",
"                                                                                                            {.|.{.{.|.F.@.~.|.! [ n.} x F.|.F.U.n.A # # # # # # # o G                                                                                           ",
"                                                                                                            |.|.~.U.|.8.1 g.|.B.F.|.|.g.U.|.F.{.|.! o # # # # # # o n           # # e A                                                                         ",
"                                                                                                              |.F.7.|.U.( B.|.~.~.|.{.~.|.|.F.{.|.! # 1 # # # # A x 8 # # # # # # # # # 1 (                                                                     ",
"                                                                                                                    {.|.|.|.|.B.U.|.7.G {.|.F.{.|.[ @.s.:.G 1 # 8.~.g.Y # # # # # # # # # 8 1 # 8 j G                                                           ",
"                                                                                                                        {.{.{.:.U.|.:.e F.|.F.{.{.g.{.|.{.{.8.a 8.|.|.B.8 a @.G e # # # # # # # # # # [                                                         ",
"                                                                                                                                {.|.:.a U.|.F.{.|.F.{.{.s.F.|.7.s.|.|.{.A ( |.{.F.! # # # # # # # # # Y         # n                                             ",
"                                                                                                                                        {.|.F.{.|.B.F.F.n.~.|.U.B.|.|.|.7.g.|.|.|.:.# # # j x e # # # 1 # # # # # # 8 x                                         ",
"                                                                                                                                              {.{.8.~.{.:.g.|.~.F.|.{.{.{.{.|.|.|.:.# # } ~.{.F.7.A # # # # # # # # # # e :.                                    ",
"                                                                                                                                                      |.{.{.|.F.B.|.F.B.|.|.{.|.|.:.o a U.|.|.|.|.{.@.1 # # # # # # # # # x                                     ",
"                                                                                                                                                        {.{.|.8.B.|.B.@.|.|.n.~.|.:.o n {.|.~.s.U.|.|.( # # # # # # # # # 1 :.                                  ",
"                                                                                                                                                                  |.B.G {.~.( U.|.:.o n {.|.,.# j F.|.B.8 # # # # # # # # # [                                   ",
"                                                                                                                                                                        {.n.G ~.|.:.o a U.|.7.# o :.|.~.j # # # # # # # # # (                                   ",
"                                                                                                                                                                              {.|.:.o 1 n.|.~.[ x g.|.{.n # # # # # # # # # [                                   ",
"                                                                                                                                                                                          |.|.|.~.|.|.~.x # # # # # # # # e ,.                                  ",
"                                                                                                                                                                                            {.|.|.|.|.g.8 # # # # # # # 1                                       ",
"                                                                                                                                                                                                {.{.{.Y                                                         ",
"                                                                                                                                                                                                                                                                ",
"                                                                                                                                                                                                                                                                ",
"                                                                                                                                                                                                                                                                ",
"                                                                                                                                                                                                                                                                ",
"                                                                                                                                                                                                                                                                ",
"                                                                                                                                                                                                                                                                ",
"                                                                                                                                                                                                                                                                ",
"                                                                                                                                                                                                                                                                ",
"                                                                                                                                                                                                                                                                ",
"                                                                                                                                                                                                                                                                ",
"                                                                                                                                                                                                                                                                ",
"                                                                                                                                                                                                                                                                ",
"                                                                                                                                                                                                                                                                "
};
