/* XPM */
static char *oms_264[] = {
/* columns rows colors chars-per-pixel */
"128 54 128 2 ",
"   c #00000000",
".  c #FF0F0F0F",
"X  c #FF101010",
"o  c #FF111111",
"O  c #FF121212",
"+  c #FF131313",
"@  c #FF141414",
"#  c #FF151515",
"$  c #FF171717",
"%  c #FF181818",
"&  c #FF191919",
"*  c #FF1A1A1A",
"=  c #FF1B1B1B",
"-  c #FF1C1C1C",
";  c #FF1D1D1D",
":  c #FF1F1F1F",
">  c #FF212121",
",  c #FF242424",
"<  c #FF252525",
"1  c #FF262626",
"2  c #FF272727",
"3  c #FF282828",
"4  c #FF2A2A2A",
"5  c #FF303030",
"6  c #FF323232",
"7  c #FF333333",
"8  c #FF363636",
"9  c #FF373737",
"0  c #FF3A3A3A",
"q  c #FF3B3B3B",
"w  c #FF3E3E3E",
"e  c #FF404040",
"r  c #FF434343",
"t  c #FF444444",
"y  c #FF454545",
"u  c #FF474747",
"i  c #FF4A4A4A",
"p  c #FF4F4F4F",
"a  c #FF515151",
"s  c #FF525252",
"d  c #FF545454",
"f  c #FF555555",
"g  c #FF565656",
"h  c #FF5B5B5B",
"j  c #FF646464",
"k  c #FF6B6B6B",
"l  c #FF6C6C6C",
"z  c #FF6D6D6D",
"x  c #FF6E6E6E",
"c  c #FF6F6F6F",
"v  c #FF717171",
"b  c #FF727272",
"n  c #FF737373",
"m  c #FF747474",
"M  c #FF757575",
"N  c #FF767676",
"B  c #FF777777",
"V  c #FF7A7A7A",
"C  c #FF7C7C7C",
"Z  c #FF7D7D7D",
"A  c #FF7E7E7E",
"S  c #FF808080",
"D  c #FF828282",
"F  c #FF838383",
"G  c #FF848484",
"H  c #FF888888",
"J  c #FF898989",
"K  c #FF8A8A8A",
"L  c #FF8C8C8C",
"P  c #FF8E8E8E",
"I  c #FF939393",
"U  c #FF959595",
"Y  c #FF979797",
"T  c #FF999999",
"R  c #FF9E9E9E",
"E  c #FFA1A1A1",
"W  c #FFA2A2A2",
"Q  c #FFA3A3A3",
"!  c #FFA6A6A6",
"~  c #FFA9A9A9",
"^  c #FFACACAC",
"/  c #FFAEAEAE",
"(  c #FFAFAFAF",
")  c #FFB1B1B1",
"_  c #FFB6B6B6",
"`  c #FFB7B7B7",
"'  c #FFBFBFBF",
"]  c #FFC0C0C0",
"[  c #FFC2C2C2",
"{  c #FFC4C4C4",
"}  c #FFC7C7C7",
"|  c #FFC8C8C8",
" . c #FFCACACA",
".. c #FFCBCBCB",
"X. c #FFCCCCCC",
"o. c #FFCDCDCD",
"O. c #FFCECECE",
"+. c #FFD0D0D0",
"@. c #FFD1D1D1",
"#. c #FFD2D2D2",
"$. c #FFD6D6D6",
"%. c #FFD7D7D7",
"&. c #FFD8D8D8",
"*. c #FFD9D9D9",
"=. c #FFDADADA",
"-. c #FFDCDCDC",
";. c #FFDDDDDD",
":. c #FFDFDFDF",
">. c #FFE2E2E2",
",. c #FFE3E3E3",
"<. c #FFE4E4E4",
"1. c #FFE6E6E6",
"2. c #FFE7E7E7",
"3. c #FFE8E8E8",
"4. c #FFE9E9E9",
"5. c #FFEAEAEA",
"6. c #FFEBEBEB",
"7. c #FFECECEC",
"8. c #FFEDEDED",
"9. c #FFEFEFEF",
"0. c #FFF0F0F0",
"q. c #FFF2F2F2",
"w. c #FFF3F3F3",
"e. c #FFF4F4F4",
"r. c #FFF5F5F5",
"t. c #FFF6F6F6",
"y. c #FFF7F7F7",
"u. c #FFF9F9F9",
/* pixels */
"                                                                                                                                                                                                                                                                ",
"                                                                                                                                                                                                                                                                ",
"                                                                                                                                                                                                                                                                ",
"                                                                                                                                                                                                                                                                ",
"                                                                                                                                                                                                                                                                ",
"                                                                                                                                                                                                                                                                ",
"                                                                                                                                                                                                                                                                ",
"                                                                                                                                                                                                                                                                ",
"                                                                                                                                                                                                                                                                ",
"                                                                                                                                                                                                                                                                ",
"                                                                                                                                                                                                                                                                ",
"                                                                                                                                                                                                                                                                ",
"                                                                                                                        p O O O O O O O O O                                                                                                                     ",
"                                                                                                                      E > O O O O O O O O O = { q.                                                                                                              ",
"                                                                                                                      s O O O O O O O O O O t 5.u.                                                                                                              ",
"                                                                                                                    9 O O O O O O O O O O j A ..5.                                                                                                              ",
"                                                                                                                  s = O O O O O O O O O 3 ` K K :.                                                                                                              ",
"                                                                                                                A O O O O O O O O O O 9 E ' R K :.                                                                                                              ",
"                                                                                                                n O O O O O O O O O O p :...R ..<.                                                                                                              ",
"                                                                                                                t O O O O O O O O = = t 5.:.U u.                                                                                                                ",
"                                                                                                          E 9 O O O O O O O O O O c s D q.:.D q.                                                                                                                ",
"                                                                                                          n O O O O O O O O O O q ' ^ q.q.<.U                                                                                                                   ",
"                                                                                                          n O O O O O O O O O O t ....5.:.:.                                                                                                                    ",
"                                                                                                          h O O O O O O O O O O p @.<.q.@.                                                                                                                      ",
"                                                                                                        K = O O O O O O O O O = ` <.:.:.5.                                                                                                                      ",
"                                                                                                      A 3 O O O O O O O O O > D :.:.5.<.                                                                                                                        ",
"                                                                                                      q . O O O O O O O O O n q...@.5.                                                                                                                          ",
"                                                                                                  9 q = O O O O O O O q > s ' <.{ @.                                                                                                                            ",
"                                                                                              c O O O O O O O O O O 3 { c ..{ ' ..:.                                                                                                                            ",
"                                                                                              9 O O O O O O O O O = D 5.D :.....<.                                                                                                                              ",
"                                                                                            t O O O O O O O O O O p :.@.K ..<.q.                                                                                                                                ",
"                                                                                          A = O O O O O O O O O > U ..:.c ^ :.                                                                                                                                  ",
"                                                                                          s . O O O O O O O O O 9 ..@.:.t n                                                                                                                                     ",
"                                                                                          p O O O O O O O O O O t <.q...                                                                                                                                        ",
"                                                                                        c > O O O O O O O O O 9 ^ 5.q.<.                                                                                                                                        ",
"                                                                                      E > O O O O O O O O O O D 5.@.q.q.                                                                                                                                        ",
"                                                                                      K O O O O O O O O O O O R @...<.                                                                                                                                          ",
"                                                                                      n O O O O O O O O O O O ^ 5.:.                                                                                                                                            ",
"                                                                                      n = O O O O O O O O O = U :.                                                                                                                                              ",
"                                                                                      n = O O O O O O O O O O ` q.                                                                                                                                              ",
"                                                                                      n O O O O O O O O O O O ^                                                                                                                                                 ",
"                                                                                                                                                                                                                                                                ",
"                                                                                                                                                                                                                                                                ",
"                                                                                                                                                                                                                                                                ",
"                                                                                                                                                                                                                                                                ",
"                                                                                                                                                                                                                                                                ",
"                                                                                                                                                                                                                                                                ",
"                                                                                                                                                                                                                                                                ",
"                                                                                                                                                                                                                                                                ",
"                                                                                                                                                                                                                                                                ",
"                                                                                                                                                                                                                                                                ",
"                                                                                                                                                                                                                                                                ",
"                                                                                                                                                                                                                                                                ",
"                                                                                                                                                                                                                                                                "
};
