/* XPM */
static char *oms_258[] = {
/* columns rows colors chars-per-pixel */
"128 54 157 2 ",
"   c #00000000",
".  c #FF0E0E0E",
"X  c #FF0F0F0F",
"o  c #FF101010",
"O  c #FF111111",
"+  c #FF121212",
"@  c #FF131313",
"#  c #FF141414",
"$  c #FF151515",
"%  c #FF161616",
"&  c #FF171717",
"*  c #FF181818",
"=  c #FF191919",
"-  c #FF1A1A1A",
";  c #FF1D1D1D",
":  c #FF1E1E1E",
">  c #FF1F1F1F",
",  c #FF202020",
"<  c #FF222222",
"1  c #FF232323",
"2  c #FF252525",
"3  c #FF262626",
"4  c #FF272727",
"5  c #FF292929",
"6  c #FF2A2A2A",
"7  c #FF2B2B2B",
"8  c #FF303030",
"9  c #FF323232",
"0  c #FF333333",
"q  c #FF343434",
"w  c #FF363636",
"e  c #FF383838",
"r  c #FF393939",
"t  c #FF3A3A3A",
"y  c #FF3E3E3E",
"u  c #FF3F3F3F",
"i  c #FF414141",
"p  c #FF434343",
"a  c #FF444444",
"s  c #FF454545",
"d  c #FF484848",
"f  c #FF4B4B4B",
"g  c #FF4C4C4C",
"h  c #FF505050",
"j  c #FF515151",
"k  c #FF535353",
"l  c #FF545454",
"z  c #FF555555",
"x  c #FF575757",
"c  c #FF5A5A5A",
"v  c #FF5B5B5B",
"b  c #FF5E5E5E",
"n  c #FF606060",
"m  c #FF656565",
"M  c #FF696969",
"N  c #FF6A6A6A",
"B  c #FF6C6C6C",
"V  c #FF6D6D6D",
"C  c #FF6F6F6F",
"Z  c #FF707070",
"A  c #FF717171",
"S  c #FF777777",
"D  c #FF787878",
"F  c #FF797979",
"G  c #FF7B7B7B",
"H  c #FF7E7E7E",
"J  c #FF838383",
"K  c #FF848484",
"L  c #FF858585",
"P  c #FF878787",
"I  c #FF888888",
"U  c #FF8A8A8A",
"Y  c #FF8B8B8B",
"T  c #FF8C8C8C",
"R  c #FF8E8E8E",
"E  c #FF8F8F8F",
"W  c #FF909090",
"Q  c #FF919191",
"!  c #FF929292",
"~  c #FF959595",
"^  c #FF979797",
"/  c #FF9A9A9A",
"(  c #FF9C9C9C",
")  c #FF9D9D9D",
"_  c #FF9E9E9E",
"`  c #FFA4A4A4",
"'  c #FFA7A7A7",
"]  c #FFABABAB",
"[  c #FFAEAEAE",
"{  c #FFAFAFAF",
"}  c #FFB0B0B0",
"|  c #FFB2B2B2",
" . c #FFB2B2B2",
".. c #FFB5B5B5",
"X. c #FFB7B7B7",
"o. c #FFB8B8B8",
"O. c #FFBABABA",
"+. c #FFBBBBBB",
"@. c #FFBCBCBC",
"#. c #FFBDBDBD",
"$. c #FFBFBFBF",
"%. c #FFC0C0C0",
"&. c #FFC1C1C1",
"*. c #FFC2C2C2",
"=. c #FFC3C3C3",
"-. c #FFC4C4C4",
";. c #FFC5C5C5",
":. c #FFC6C6C6",
">. c #FFC7C7C7",
",. c #FFC9C9C9",
"<. c #FFCACACA",
"1. c #FFCBCBCB",
"2. c #FFCCCCCC",
"3. c #FFCDCDCD",
"4. c #FFCFCFCF",
"5. c #FFD1D1D1",
"6. c #FFD2D2D2",
"7. c #FFD3D3D3",
"8. c #FFD4D4D4",
"9. c #FFD5D5D5",
"0. c #FFD6D6D6",
"q. c #FFD7D7D7",
"w. c #FFD8D8D8",
"e. c #FFD9D9D9",
"r. c #FFDADADA",
"t. c #FFDBDBDB",
"y. c #FFDCDCDC",
"u. c #FFDDDDDD",
"i. c #FFDFDFDF",
"p. c #FFE0E0E0",
"a. c #FFE1E1E1",
"s. c #FFE2E2E2",
"d. c #FFE3E3E3",
"f. c #FFE4E4E4",
"g. c #FFE6E6E6",
"h. c #FFE6E6E6",
"j. c #FFE7E7E7",
"k. c #FFE8E8E8",
"l. c #FFEAEAEA",
"z. c #FFEBEBEB",
"x. c #FFECECEC",
"c. c #FFEDEDED",
"v. c #FFEEEEEE",
"b. c #FFEFEFEF",
"n. c #FFF0F0F0",
"m. c #FFF1F1F1",
"M. c #FFF2F2F2",
"N. c #FFF4F4F4",
"B. c #FFF5F5F5",
"V. c #FFF6F6F6",
"C. c #FFF7F7F7",
"Z. c #FFF8F8F8",
"A. c #FFF9F9F9",
"S. c #FFFAFAFA",
"D. c #FFFBFBFB",
"F. c #FFFEFEFE",
"G. c #FFFFFFF1",
/* pixels */
"                                                                                                                                                                                                                                                                ",
"                                                                                                                                                                                                                                                                ",
"                                                                                                                                                                                                                                                                ",
"                                                                                                                                                                                                                                                                ",
"                                                                                                                                                                                                                                                                ",
"                                                                                                                                                                                                                                                                ",
"                                                                                                                                                                                                                                                                ",
"                                                                                                                                                                                                                                                                ",
"                                                                                                                                                                                                                                                                ",
"                                                                                                                                                                                                                                                                ",
"                                                                                                                                                                                                                                                                ",
"                                                                                                                                    9 & & &                                                                                                                     ",
"                                                                                                                                  g & & & & & & & & & & G B.                                                                                                    ",
"                                                                                                                                J * & & & & & & & & & e g.Z.                                                                                                    ",
"                                                                                                                            n & * & & & & & & & & < * Y B.B.                                                                                                    ",
"                                                                                                                          G < & & & & & & & & X 9 | g | / $.                                                                                                    ",
"                                                                                                                      / 9 & & & & & & & & & * i V c.k *.k `                                                                                                     ",
"                                                                                                                      G & & & & & & & & & X V q.W c.k *.V *.                                                                                                    ",
"                                                                                                                      S & & & & & & & & & X Y c.2.c.k *.g.B.                                                                                                    ",
"                                                                                                                6 & < 9 & & & & & & & 9 & X Y Z.B.c.k *.Z.B.                                                                                                    ",
"                                                                                                            Y 6 & & & & & & & & & * G ` 9 Y | Z.B.g.k ` Z.                                                                                                      ",
"                                                                                                            V X & & & & & & & & X V g.| ` Z.g.B.g.e.                                                                                                            ",
"                                                                                                            V & & & & & & & & & X S g.q.q.g.B.e.*.q.                                                                                                            ",
"                                                                                                          G e & & & & & & & & & * J g.c.c.c.c.*.*.                                                                                                              ",
"                                                                                                          9 & & & & & & & & & & W c.g.B.2.2.q.e.                                                                                                                ",
"                                                                                                      e * & & & & & & & & & n J q.B.g.c.B.B.                                                                                                                    ",
"                                                                                                    g & & & & & & X & & & k c.c.e.] g.g.B.                                                                                                                      ",
"                                                                                                i < & & & & & & < 9 & < J $.e.B.q.Y g.c.                                                                                                                        ",
"                                                                                        k & & & & & & & & & & e 2.| 6 | g.e.Y c.q.W B.                                                                                                                          ",
"                                                                                      b & & & & & & & & & & 9 | Z.*.k c.B.c.] e.g.                                                                                                                              ",
"                                                                                    i X & & & & & & & & X k *.e.2.$.V q.e.c.B.g.                                                                                                                                ",
"                                                                                  i * & & & & & & & & & i / 2.2.c./ b ` 2.e.Z.                                                                                                                                  ",
"                                                                                Y & & & & & & & & & & & ] 2.| q.B.J < 9 2.                                                                                                                                      ",
"                                                                                G & & & & & & & & & X & $.Z.g.c.$.e.                                                                                                                                            ",
"                                                                              g 9 & & & & & & & & & e V e.B.B.c.q.B.                                                                                                                                            ",
"                                                                            b & & & & & & & & & X 6 q.g.g.2.B.Z.Z.                                                                                                                                              ",
"                                                                          ] < & & & & & & & & & X S g.q.2.*.e.c.                                                                                                                                                ",
"                                                                          Y * & & & & & & & & & & / B.e.q.$.c.                                                                                                                                                  ",
"                                                                          Y & & & & & & & & & & & W *.q.g.                                                                                                                                                      ",
"                                                                          / * & & & & & & & & & & W c.e.                                                                                                                                                        ",
"                                                                          Y * & & & & & & & & & & / Z.                                                                                                                                                          ",
"                                                                                                                                                                                                                                                                ",
"                                                                                                                                                                                                                                                                ",
"                                                                                                                                                                                                                                                                ",
"                                                                                                                                                                                                                                                                ",
"                                                                                                                                                                                                                                                                ",
"                                                                                                                                                                                                                                                                ",
"                                                                                                                                                                                                                                                                ",
"                                                                                                                                                                                                                                                                ",
"                                                                                                                                                                                                                                                                ",
"                                                                                                                                                                                                                                                                ",
"                                                                                                                                                                                                                                                                ",
"                                                                                                                                                                                                                                                                ",
"                                                                                                                                                                                                                                                                "
};
