/* XPM */
static char *oms_193[] = {
/* columns rows colors chars-per-pixel */
"128 54 200 2 ",
"   c #00000000",
".  c #FF0C0C0C",
"X  c #FF0E0E0E",
"o  c #FF0F0F0F",
"O  c #FF101010",
"+  c #FF111111",
"@  c #FF121212",
"#  c #FF131313",
"$  c #FF141414",
"%  c #FF151515",
"&  c #FF161616",
"*  c #FF171717",
"=  c #FF181818",
"-  c #FF191919",
";  c #FF1A1A1A",
":  c #FF1B1B1B",
">  c #FF1C1C1C",
",  c #FF1D1D1D",
"<  c #FF1E1E1E",
"1  c #FF1F1F1F",
"2  c #FF202020",
"3  c #FF212121",
"4  c #FF222222",
"5  c #FF232323",
"6  c #FF242424",
"7  c #FF252525",
"8  c #FF262626",
"9  c #FF272727",
"0  c #FF282828",
"q  c #FF292929",
"w  c #FF2A2A2A",
"e  c #FF2B2B2B",
"r  c #FF2C2C2C",
"t  c #FF2D2D2D",
"y  c #FF2E2E2E",
"u  c #FF2F2F2F",
"i  c #FF303030",
"p  c #FF313131",
"a  c #FF323232",
"s  c #FF333333",
"d  c #FF343434",
"f  c #FF363636",
"g  c #FF373737",
"h  c #FF383838",
"j  c #FF393939",
"k  c #FF3A3A3A",
"l  c #FF3B3B3B",
"z  c #FF3C3C3C",
"x  c #FF3D3D3D",
"c  c #FF3E3E3E",
"v  c #FF3F3F3F",
"b  c #FF404040",
"n  c #FF414141",
"m  c #FF424242",
"M  c #FF444444",
"N  c #FF454545",
"B  c #FF464646",
"V  c #FF484848",
"C  c #FF494949",
"Z  c #FF4A4A4A",
"A  c #FF4B4B4B",
"S  c #FF4C4C4C",
"D  c #FF4C4C4C",
"F  c #FF4E4E4E",
"G  c #FF4F4F4F",
"H  c #FF505050",
"J  c #FF515151",
"K  c #FF525252",
"L  c #FF545454",
"P  c #FF555555",
"I  c #FF565656",
"U  c #FF575757",
"Y  c #FF585858",
"T  c #FF5A5A5A",
"R  c #FF5C5C5C",
"E  c #FF5D5D5D",
"W  c #FF5F5F5F",
"Q  c #FF616161",
"!  c #FF636363",
"~  c #FF656565",
"^  c #FF686868",
"/  c #FF696969",
"(  c #FF6A6A6A",
")  c #FF707070",
"_  c #FF767676",
"`  c #FF777777",
"'  c #FF797979",
"]  c #FF7B7B7B",
"[  c #FF7D7D7D",
"{  c #FF808080",
"}  c #FF808080",
"|  c #FF828282",
" . c #FF838383",
".. c #FF848484",
"X. c #FF858585",
"o. c #FF868686",
"O. c #FF878787",
"+. c #FF888888",
"@. c #FF898989",
"#. c #FF8A8A8A",
"$. c #FF8B8B8B",
"%. c #FF8C8C8C",
"&. c #FF8D8D8D",
"*. c #FF8E8E8E",
"=. c #FF8F8F8F",
"-. c #FF929292",
";. c #FF939393",
":. c #FF949494",
">. c #FF959595",
",. c #FF969696",
"<. c #FF979797",
"1. c #FF989898",
"2. c #FF9A9A9A",
"3. c #FF9B9B9B",
"4. c #FF9C9C9C",
"5. c #FF9D9D9D",
"6. c #FF9E9E9E",
"7. c #FF9F9F9F",
"8. c #FFA0A0A0",
"9. c #FFA1A1A1",
"0. c #FFA2A2A2",
"q. c #FFA3A3A3",
"w. c #FFA4A4A4",
"e. c #FFA5A5A5",
"r. c #FFA6A6A6",
"t. c #FFA7A7A7",
"y. c #FFA9A9A9",
"u. c #FFAAAAAA",
"i. c #FFABABAB",
"p. c #FFACACAC",
"a. c #FFAEAEAE",
"s. c #FFAFAFAF",
"d. c #FFB0B0B0",
"f. c #FFB1B1B1",
"g. c #FFB2B2B2",
"h. c #FFB5B5B5",
"j. c #FFB7B7B7",
"k. c #FFBABABA",
"l. c #FFBDBDBD",
"z. c #FF808080",
"x. c #FFBFBFBF",
"c. c #FFC0C0C0",
"v. c #FFC1C1C1",
"b. c #FFC2C2C2",
"n. c #FFC3C3C3",
"m. c #FFC4C4C4",
"M. c #FFC5C5C5",
"N. c #FFC6C6C6",
"B. c #FFC7C7C7",
"V. c #FFC9C9C9",
"C. c #FFCACACA",
"Z. c #FFCBCBCB",
"A. c #FFCDCDCD",
"S. c #FFCFCFCF",
"D. c #FFD1D1D1",
"F. c #FFD2D2D2",
"G. c #FFD4D4D4",
"H. c #FFD5D5D5",
"J. c #FFD6D6D6",
"K. c #FFD7D7D7",
"L. c #FFD8D8D8",
"P. c #FFD9D9D9",
"I. c #FFDADADA",
"U. c #FFDBDBDB",
"Y. c #FFDCDCDC",
"T. c #FFDDDDDD",
"R. c #FFDEDEDE",
"E. c #FFDFDFDF",
"W. c #FFE0E0E0",
"Q. c #FFE1E1E1",
"!. c #FFE2E2E2",
"~. c #FFE3E3E3",
"^. c #FFE4E4E4",
"/. c #FFE6E6E6",
"(. c #FFE6E6E6",
"). c #FFE7E7E7",
"_. c #FFE8E8E8",
"`. c #FFE9E9E9",
"'. c #FFEAEAEA",
"]. c #FFEBEBEB",
"[. c #FFECECEC",
"{. c #FFEDEDED",
"}. c #FFEEEEEE",
"|. c #FFEFEFEF",
" X c #FFF0F0F0",
".X c #FFF1F1F1",
"XX c #FFF2F2F2",
"oX c #FFF3F3F3",
"OX c #FFF4F4F4",
"+X c #FFF5F5F5",
"@X c #FFF6F6F6",
"#X c #FFF7F7F7",
"$X c #FFF8F8F8",
"%X c #FFF9F9F9",
"&X c #FFFAFAFA",
"*X c #FFFBFBFB",
"=X c #FFFCFCFC",
"-X c #FFFDFDFD",
";X c #FFFEFEFE",
":X c #FFFFFFF1",
/* pixels */
"                                                                                                                                                                                                                                                                ",
"                                                                                                                                                                                                                                                                ",
"                                                                                                                                                                                                                                                                ",
"                                                                                                                                                                                                                                                                ",
"                                                                                                                                                                                                                                                                ",
"                                                                                                                                                                                                                                                                ",
"                                                                                                                                                                                                                                                                ",
"                                                                                                                                                                                                                                                                ",
"                                                                                                                                                                                                                                                                ",
"                                                                                                                                                                                                                                                                ",
"                                                                                                                                                                                                                                                                ",
"                                                                                                                                                                                                                                                                ",
"                                                                                                                                                                                                                                                                ",
"                                                                                                                                                                                                                                                                ",
"                                                                                                                                                                                                                                                                ",
"                                                                                                                                                                                                                                                                ",
"                                                                                                                                                                                                          K Y             K d 7 7 : : : : 7 j                   ",
"                                                                                                                                                                                  B j y y d       7 : : # # #           y # # # # # # # # # # y                 ",
"                                                                                                                                          G j j j j y y y                       # # # # # # y     # # # # # # #       : # # # # o o o o o # # #                 ",
"                                                                                                                                          # # # # # # # # #                     # # # # # # #   7 # # # # # # 7       # # # y G ! ] o.o._ K 7 #                 ",
"                                                            K K G B G                                                                     # # # # # # o o o   j y : : : : : y   # : y d j B d : # # ! o.<.q.u.j.      # y <.F.OX=X=X=X=X=XOXC.K                 ",
"                                          d y 7 :   K y : # # # # # # # :                                   G d j j d j       d : : : y y # : 7 y y y B G K G # # # # # # # # : : +.^.^.{.{.F.d o G {.=X=X=X=XOX      d c.=X=X=X=X{.{.=X=X=X=XE.                ",
"                              7 7 7 : :   # # # # : # # # # # # # # # # # #         j 7 7 y y 7 : : #   y # # # # # # # :   7 # # # # # # # 6.E.E.E.6.{.{.=Xu.# # o # # # # # # : q.=X=X=X=X=X6.: u.=X=X=X=X=XOX      u.=X=X=X{.] B B +.OX=X=XOX                ",
"                              : # # # # # # # # # o o o # # o # # 7 7 y d y 7     d # # # # # # # # # # # # # # # # # # o # # # # # # # # # c.=X=XOXq.OX=X=Xu.# 7 Y o.6.u.u.<.! : q.=X=X=X=X=X{.<.{.=X=X=X=X=XOX      ^.=X=X=Xu.o o o y ^.=X=XOX                ",
"          K d y : : : 7 y   7 # # # # o o # # # G Y ( ( 7 7 ! 6.z.C.E.E.^.E.c.z.  : # # # # o o # # # # # # # # y j G G G d : # : Y <.q.+.K c.=X=X{.q.OX=X=Xu.K C.OX=X{.^.=X=X=X6.u.=X=X=X=X=X=X=X=X=XOX=X=X=XOX      OX=X=X=XF.B 7 d <.OX=X=XOX                ",
"        y # # # # # # # # : # # # # y ] +.<._ 7 E.=X=X^.K z.=X=X=XOX^.{.=X=X=XOX  # # # 7 Y ] ( d ] <.q.6.7 K j.E.{.OXOXOX{.j.j ] OX=X=X=XOXOX=X=X{.q.OX=X=Xz.C.=X=XOXz.z.OX=X=X^.C.=X=X=X{.OX=X=X=XOXz.=X=X=XOX        =X=X=X=X{.F.^.=X=X=X=XOX                ",
"      B # # # # # # o o # # # o # # Y OX=X=XC.j c.E.F.c.] F.E.E.{.j._ z.=X=X=X=X    # : j.=X=X=XE.OX=X=X^.o.{.=X=X{.j.E.=X=X=Xc.F.=X=X=XE.q.{.=X=X{.q.OX=X=XF.E.^.{.E.c.z.OX=X=X^.C.=X=X=X{.OX=X=X=XOX  OX=X=XOX        OX=X=X=X=X=X=X=X=XOXOX                  ",
"      j # # # # # d ! +.6.6.<._ d B c.=X=X=XOXE.^.OXOXE.G ] C.^.OX{.OX=X=X=X=XOX      G OX=X=X{.c.OX=X=X{.F.=X=X=Xo.o Y OX=X=X{.{.=X=X=X  # c.=X=X{.q.OX=X=X{.^.^.{.E.6.u.OX=X=X^.C.=X=X=X{.  OX=XOX    =X=XOXOX            OXOXOXOXOX                          ",
"      y # # # : +.^.=XOX{.OX=X=XF.<.=X=X=X=XOX^.OX=X=X^.6.OX=X=X=XOX{.{.{.F.q.!       +.OXOX=Xu.d ^.=X=XOX^.=X=X=Xq.j <.=X=X=XC.E.=X=XOX    c.=X=XOXj.OX=X=XOXOX=X=X=X=X=X=XOXOX  ^.OX=X=X                                                                      ",
"        # # o ! =X=X=XF.u.E.=X=X=Xj.6.OX=X=XC.G ^.=X=X{.E.=X=X=X=Xq.G 6.{.E.E.E.                d ^.=X=XOX  =X=X=XOX{.OX=X=X=X  ^.=X=XOX    ^.=XOXOX  OXOXOX                                                                                                    ",
"          # # o.OX^.{.F.c.E.=X=X=Xu.+.OX=X=Xz.y E.=X=XOX^.=X=X=X=X^.F.OX=X=X=XOX                  {.=XOXOX    OXOXOXOX=XOX                                                                                                                                      ",
"              o.{.^.{.z.+.F.=X=XOXu.OX=X=X=XE.d E.=X=X=X  OXOXOX=X=X=X=XOXOXOX                                                                                                                                                                                  ",
"                OX=X=X=X=X=X=X=X    OX=XOXOX    {.OX                                                                                                                                                                                                            ",
"                                                                                                                                                                                                                                                                ",
"                                                                                                                                                                                                                                                                ",
"                                                                                                                                                                                                                                                                ",
"                                                                                                                                                                                                                                                                ",
"                                                                                                                                                                                                                                                                ",
"                                                                                                                                                                                                                                                                ",
"                                                                                                                                                                                                                                                                ",
"                                                                                                                                                                                                                                                                ",
"                                                                                                                                                                                                                                                                ",
"                                                                                                                                                                                                                                                                ",
"                                                                                                                                                                                                                                                                ",
"                                                                                                                                                                                                                                                                ",
"                                                                                                                                                                                                                                                                ",
"                                                                                                                                                                                                                                                                ",
"                                                                                                                                                                                                                                                                ",
"                                                                                                                                                                                                                                                                ",
"                                                                                                                                                                                                                                                                ",
"                                                                                                                                                                                                                                                                ",
"                                                                                                                                                                                                                                                                ",
"                                                                                                                                                                                                                                                                ",
"                                                                                                                                                                                                                                                                "
};
