/* XPM */
static char *oms_253[] = {
/* columns rows colors chars-per-pixel */
"128 54 162 2 ",
"   c #00000000",
".  c #FF0F0F0F",
"X  c #FF101010",
"o  c #FF111111",
"O  c #FF121212",
"+  c #FF131313",
"@  c #FF141414",
"#  c #FF151515",
"$  c #FF161616",
"%  c #FF181818",
"&  c #FF191919",
"*  c #FF1A1A1A",
"=  c #FF1B1B1B",
"-  c #FF1C1C1C",
";  c #FF1D1D1D",
":  c #FF1E1E1E",
">  c #FF1F1F1F",
",  c #FF202020",
"<  c #FF212121",
"1  c #FF222222",
"2  c #FF232323",
"3  c #FF252525",
"4  c #FF272727",
"5  c #FF292929",
"6  c #FF2A2A2A",
"7  c #FF2B2B2B",
"8  c #FF2C2C2C",
"9  c #FF2D2D2D",
"0  c #FF2E2E2E",
"q  c #FF2F2F2F",
"w  c #FF313131",
"e  c #FF323232",
"r  c #FF333333",
"t  c #FF343434",
"y  c #FF363636",
"u  c #FF393939",
"i  c #FF3A3A3A",
"p  c #FF3B3B3B",
"a  c #FF3E3E3E",
"s  c #FF3F3F3F",
"d  c #FF414141",
"f  c #FF424242",
"g  c #FF444444",
"h  c #FF464646",
"j  c #FF484848",
"k  c #FF4B4B4B",
"l  c #FF4C4C4C",
"z  c #FF515151",
"x  c #FF585858",
"c  c #FF595959",
"v  c #FF5C5C5C",
"b  c #FF5E5E5E",
"n  c #FF5F5F5F",
"m  c #FF606060",
"M  c #FF636363",
"N  c #FF646464",
"B  c #FF656565",
"V  c #FF696969",
"C  c #FF6A6A6A",
"Z  c #FF6C6C6C",
"A  c #FF6F6F6F",
"S  c #FF717171",
"D  c #FF727272",
"F  c #FF787878",
"G  c #FF7A7A7A",
"H  c #FF7D7D7D",
"J  c #FF7E7E7E",
"K  c #FF808080",
"L  c #FF818181",
"P  c #FF848484",
"I  c #FF858585",
"U  c #FF868686",
"Y  c #FF878787",
"T  c #FF888888",
"R  c #FF8B8B8B",
"E  c #FF909090",
"W  c #FF919191",
"Q  c #FF939393",
"!  c #FF949494",
"~  c #FF969696",
"^  c #FF979797",
"/  c #FF989898",
"(  c #FF9C9C9C",
")  c #FF9E9E9E",
"_  c #FF9F9F9F",
"`  c #FFA4A4A4",
"'  c #FFA6A6A6",
"]  c #FFA7A7A7",
"[  c #FFA8A8A8",
"{  c #FFAAAAAA",
"}  c #FFACACAC",
"|  c #FFADADAD",
" . c #FFAEAEAE",
".. c #FFB0B0B0",
"X. c #FFB1B1B1",
"o. c #FFB2B2B2",
"O. c #FFB4B4B4",
"+. c #FFB5B5B5",
"@. c #FFB7B7B7",
"#. c #FFB9B9B9",
"$. c #FFBBBBBB",
"%. c #FFBCBCBC",
"&. c #FF808080",
"*. c #FFBFBFBF",
"=. c #FFC0C0C0",
"-. c #FFC1C1C1",
";. c #FFC2C2C2",
":. c #FFC4C4C4",
">. c #FFC5C5C5",
",. c #FFC7C7C7",
"<. c #FFC8C8C8",
"1. c #FFCACACA",
"2. c #FFCBCBCB",
"3. c #FFCCCCCC",
"4. c #FFCDCDCD",
"5. c #FFCECECE",
"6. c #FFCFCFCF",
"7. c #FFD0D0D0",
"8. c #FFD1D1D1",
"9. c #FFD3D3D3",
"0. c #FFD4D4D4",
"q. c #FFD5D5D5",
"w. c #FFD6D6D6",
"e. c #FFD8D8D8",
"r. c #FFD9D9D9",
"t. c #FFDADADA",
"y. c #FFDBDBDB",
"u. c #FFDCDCDC",
"i. c #FFDDDDDD",
"p. c #FFDEDEDE",
"a. c #FFDFDFDF",
"s. c #FFE0E0E0",
"d. c #FFE1E1E1",
"f. c #FFE2E2E2",
"g. c #FFE3E3E3",
"h. c #FFE4E4E4",
"j. c #FFE6E6E6",
"k. c #FFE6E6E6",
"l. c #FFE7E7E7",
"z. c #FFE8E8E8",
"x. c #FFE9E9E9",
"c. c #FFEAEAEA",
"v. c #FFEBEBEB",
"b. c #FFECECEC",
"n. c #FFEDEDED",
"m. c #FFEEEEEE",
"M. c #FFEFEFEF",
"N. c #FFF0F0F0",
"B. c #FFF1F1F1",
"V. c #FFF2F2F2",
"C. c #FFF3F3F3",
"Z. c #FFF4F4F4",
"A. c #FFF5F5F5",
"S. c #FFF6F6F6",
"D. c #FFF7F7F7",
"F. c #FFF8F8F8",
"G. c #FFF9F9F9",
"H. c #FFFAFAFA",
"J. c #FFFCFCFC",
"K. c #FFFDFDFD",
"L. c #FFFEFEFE",
"P. c #FFFFFFF1",
/* pixels */
"                                                                                                                                                                                                                                                                ",
"                                                                                                                                                                                                                                                                ",
"                                                                                                                                                                                                                                                                ",
"                                                                                                                                                                                                                                                                ",
"                                                                                                                                                                                                                                                                ",
"                                                                                                                                                                                                                                                                ",
"                                                                                                                                                                                                                                                                ",
"                                                                                                                                                                                                                                                                ",
"                                                                                                                                                                                                                                                                ",
"                                                                                                                                                                                                                                                                ",
"                                                                                                                                                                                                                                                                ",
"                                                                                                                                            V , $ $ $ $ $ $ $                                                                                                   ",
"                                                                                                                                          R * $ $ $ $ $ $ $ $ $ l 1.S.                                                                                          ",
"                                                                                                                                          s $ $ $ $ $ $ $ $ $ t p.L.L.S.                                                                                        ",
"                                                                                                                                  L , $ $ $ $ $ $ $ $ $ , l $ L L.p.S.S.                                                                                        ",
"                                                                                                                                q t $ $ $ $ $ $ $ $ . q $.1., $.1.h p.S.                                                                                        ",
"                                                                                                                            B * $ $ $ $ $ $ $ $ $ s c z L.1.q w._ , p.S.                                                                                        ",
"                                                                                                                            l $ $ $ $ $ $ $ $ $ s f.1.L L.1.t p.} V S.                                                                                          ",
"                                                                                                                            l $ $ $ $ $ $ $ $ . l S.f.=.L.1.t w.S.c.L.                                                                                          ",
"                                                                                                                  s $ $ $ * * $ $ $ $ $ s , . $ l S.S.S.L.1., =.L.L.S.                                                                                          ",
"                                                                                                              D * $ $ $ $ $ $ $ $ $ t L w.s z +._ S.L.S.f.p.* _ L.S.                                                                                            ",
"                                                                                                              c . $ $ $ $ $ $ $ $ * $.f.f.V p.L.c.S.f.f.=.S.                                                                                                    ",
"                                                                                                              c $ $ $ $ $ $ $ $ $ , 1.f.f.=.p.f.L.c.+.w.+.L.                                                                                                    ",
"                                                                                                            q , $ $ $ $ $ $ $ $ * h 1.f.c.f.c.c.S.S._ p.                                                                                                        ",
"                                                                                                          h $ $ $ $ $ $ $ $ $ $ F c.S.f.S.f.+.w.1.S.                                                                                                            ",
"                                                                                                    B * $ $ $ $ $ $ $ $ $ t R D 1.S.S.p.S.c.S.S.                                                                                                                ",
"                                                                                                  l * $ $ $ $ $ $ $ $ $ t 1.L.p.c._ w.f.c.p.L.                                                                                                                  ",
"                                                                                    D , $ $ * h * $ $ $ $ $ t , $ $ t ^ } f.w.c.c.F 1.f.S.                                                                                                                      ",
"                                                                                  B * $ $ $ $ $ $ $ $ $ , ^ f.L $ L w.c.f.} ^ c.c.R 1.                                                                                                                          ",
"                                                                              c l * $ $ $ $ $ $ $ $ * q ` L.L.} q p.L.S.S.$.$.w.f.                                                                                                                              ",
"                                                                            F * $ $ $ $ $ $ $ $ . * _ ` c.$.c.` s f.=.c.c.S.S.1.                                                                                                                                ",
"                                                                          l , $ $ $ $ $ $ $ $ $ t B p.=.w.1.S.F s =.^ c.1.L.S.                                                                                                                                  ",
"                                                                        ^ * $ $ $ $ $ $ $ $ $ * $.+.=.^ w.L.p.c , q B S.                                                                                                                                        ",
"                                                                        F $ $ $ $ $ $ $ $ $ . , 1.c.c.1.S.=.w.w.                                                                                                                                                ",
"                                                                    V s q $ $ $ $ $ $ $ $ * h c c.S.S.c.S.+.c.L.                                                                                                                                                ",
"                                                                  D * $ $ $ $ $ $ $ $ $ * _ S.1.S.=.f.c.L.L.L.                                                                                                                                                  ",
"                                                                +.q . $ $ $ $ $ $ $ $ $ V f.c.1.p.} p.w.S.S.                                                                                                                                                    ",
"                                                                ^ $ $ $ $ $ $ $ $ $ $ $ } c.c.w.f.} p.f.                                                                                                                                                        ",
"                                                                L $ $ $ $ $ $ $ $ $ $ * $.1.p.p.S.$.                                                                                                                                                            ",
"                                                                ^ * $ $ $ $ $ $ $ $ $ * } w.f.=.c.                                                                                                                                                              ",
"                                                                R * $ $ $ $ $ $ $ $ $ * +.L.S.                                                                                                                                                                  ",
"                                                                                                                                                                                                                                                                ",
"                                                                                                                                                                                                                                                                ",
"                                                                                                                                                                                                                                                                ",
"                                                                                                                                                                                                                                                                ",
"                                                                                                                                                                                                                                                                ",
"                                                                                                                                                                                                                                                                ",
"                                                                                                                                                                                                                                                                ",
"                                                                                                                                                                                                                                                                ",
"                                                                                                                                                                                                                                                                ",
"                                                                                                                                                                                                                                                                ",
"                                                                                                                                                                                                                                                                ",
"                                                                                                                                                                                                                                                                ",
"                                                                                                                                                                                                                                                                "
};
