/* XPM */
static char *oms_038[] = {
/* columns rows colors chars-per-pixel */
"128 54 198 2 ",
"   c #00000000",
".  c #FF090909",
"X  c #FF0D0D0D",
"o  c #FF0E0E0E",
"O  c #FF0F0F0F",
"+  c #FF101010",
"@  c #FF111111",
"#  c #FF121212",
"$  c #FF131313",
"%  c #FF141414",
"&  c #FF151515",
"*  c #FF161616",
"=  c #FF171717",
"-  c #FF181818",
";  c #FF191919",
":  c #FF1A1A1A",
">  c #FF1B1B1B",
",  c #FF1C1C1C",
"<  c #FF1D1D1D",
"1  c #FF1E1E1E",
"2  c #FF1F1F1F",
"3  c #FF202020",
"4  c #FF212121",
"5  c #FF222222",
"6  c #FF242424",
"7  c #FF252525",
"8  c #FF262626",
"9  c #FF272727",
"0  c #FF282828",
"q  c #FF292929",
"w  c #FF2B2B2B",
"e  c #FF2C2C2C",
"r  c #FF2E2E2E",
"t  c #FF2F2F2F",
"y  c #FF303030",
"u  c #FF323232",
"i  c #FF333333",
"p  c #FF343434",
"a  c #FF353535",
"s  c #FF363636",
"d  c #FF373737",
"f  c #FF383838",
"g  c #FF3A3A3A",
"h  c #FF3B3B3B",
"j  c #FF3C3C3C",
"k  c #FF3D3D3D",
"l  c #FF3E3E3E",
"z  c #FF424242",
"x  c #FF434343",
"c  c #FF464646",
"v  c #FF474747",
"b  c #FF484848",
"n  c #FF494949",
"m  c #FF4A4A4A",
"M  c #FF4C4C4C",
"N  c #FF4F4F4F",
"B  c #FF515151",
"V  c #FF545454",
"C  c #FF555555",
"Z  c #FF575757",
"A  c #FF595959",
"S  c #FF5A5A5A",
"D  c #FF5B5B5B",
"F  c #FF5C5C5C",
"G  c #FF5D5D5D",
"H  c #FF5E5E5E",
"J  c #FF5F5F5F",
"K  c #FF606060",
"L  c #FF616161",
"P  c #FF626262",
"I  c #FF646464",
"U  c #FF676767",
"Y  c #FF686868",
"T  c #FF696969",
"R  c #FF6C6C6C",
"E  c #FF6D6D6D",
"W  c #FF6E6E6E",
"Q  c #FF707070",
"!  c #FF717171",
"~  c #FF727272",
"^  c #FF737373",
"/  c #FF747474",
"(  c #FF757575",
")  c #FF767676",
"_  c #FF797979",
"`  c #FF7A7A7A",
"'  c #FF7B7B7B",
"]  c #FF7C7C7C",
"[  c #FF7D7D7D",
"{  c #FF7E7E7E",
"}  c #FF808080",
"|  c #FF838383",
" . c #FF868686",
".. c #FF878787",
"X. c #FF888888",
"o. c #FF898989",
"O. c #FF8B8B8B",
"+. c #FF8C8C8C",
"@. c #FF8D8D8D",
"#. c #FF8E8E8E",
"$. c #FF909090",
"%. c #FF929292",
"&. c #FF939393",
"*. c #FF969696",
"=. c #FF979797",
"-. c #FF989898",
";. c #FF9A9A9A",
":. c #FF9B9B9B",
">. c #FF9D9D9D",
",. c #FF9E9E9E",
"<. c #FF9F9F9F",
"1. c #FFA1A1A1",
"2. c #FFA3A3A3",
"3. c #FFA4A4A4",
"4. c #FFA5A5A5",
"5. c #FFA6A6A6",
"6. c #FFA7A7A7",
"7. c #FFA8A8A8",
"8. c #FFA9A9A9",
"9. c #FFAAAAAA",
"0. c #FFACACAC",
"q. c #FFADADAD",
"w. c #FFAEAEAE",
"e. c #FFAFAFAF",
"r. c #FFB0B0B0",
"t. c #FFB1B1B1",
"y. c #FFB2B2B2",
"u. c #FFB2B2B2",
"i. c #FFB4B4B4",
"p. c #FFB5B5B5",
"a. c #FFB6B6B6",
"s. c #FFB8B8B8",
"d. c #FFB9B9B9",
"f. c #FFBCBCBC",
"g. c #FFBDBDBD",
"h. c #FFBFBFBF",
"j. c #FFC1C1C1",
"k. c #FFC2C2C2",
"l. c #FFC3C3C3",
"z. c #FFC4C4C4",
"x. c #FFC5C5C5",
"c. c #FFC6C6C6",
"v. c #FFC7C7C7",
"b. c #FFC8C8C8",
"n. c #FFC9C9C9",
"m. c #FFCACACA",
"M. c #FFCBCBCB",
"N. c #FFCCCCCC",
"B. c #FFCDCDCD",
"V. c #FFCECECE",
"C. c #FFCFCFCF",
"Z. c #FFD0D0D0",
"A. c #FFD1D1D1",
"S. c #FFD2D2D2",
"D. c #FFD3D3D3",
"F. c #FFD4D4D4",
"G. c #FFD5D5D5",
"H. c #FFD6D6D6",
"J. c #FFD7D7D7",
"K. c #FFD9D9D9",
"L. c #FFDADADA",
"P. c #FFDBDBDB",
"I. c #FFDCDCDC",
"U. c #FFDDDDDD",
"Y. c #FFDEDEDE",
"T. c #FFDFDFDF",
"R. c #FFE0E0E0",
"E. c #FFE1E1E1",
"W. c #FFE2E2E2",
"Q. c #FFE3E3E3",
"!. c #FFE4E4E4",
"~. c #FFE6E6E6",
"^. c #FFE6E6E6",
"/. c #FFE7E7E7",
"(. c #FFE8E8E8",
"). c #FFE9E9E9",
"_. c #FFEAEAEA",
"`. c #FFEBEBEB",
"'. c #FFECECEC",
"]. c #FFEDEDED",
"[. c #FFEEEEEE",
"{. c #FFEFEFEF",
"}. c #FFF0F0F0",
"|. c #FFF1F1F1",
" X c #FFF2F2F2",
".X c #FFF3F3F3",
"XX c #FFF4F4F4",
"oX c #FFF5F5F5",
"OX c #FFF6F6F6",
"+X c #FFF7F7F7",
"@X c #FFF8F8F8",
"#X c #FFF9F9F9",
"$X c #FFFAFAFA",
"%X c #FFFBFBFB",
"&X c #FFFCFCFC",
"*X c #FFFDFDFD",
"=X c #FFFEFEFE",
"-X c #FFFFFFFF",
/* pixels */
"                                                                                                                                                                                                                                                                ",
"                                                                                                                                                                                                                                                                ",
"                                                                                                                                                                                                                                                                ",
"                                                                                                                                                                                                                                                                ",
"                                                                                                                                                                                                                                                                ",
"                                                                                                                                                                                                                                                                ",
"                                                                                                                                                                                                                                                                ",
"                                                                                                                                                                                                                                                                ",
"                                                                                                                                                                                                                                                                ",
"                                                                                                                                                                                                                                                                ",
"                                                                                                                                                                                                                                                                ",
"                                                                                                                                                                                                                                                                ",
"                                                                                                                                                                                                                                                                ",
"                                                                                                                                                                                                                                                                ",
"                                                                                                                                                                                                                                                                ",
"                                                                                                                                                                                                                                                                ",
"                                                                                                                                                                                                                                                                ",
"                                                                                                                                                                                                                                                                ",
"                                                                                                                                                                                                                                                                ",
"                                                                                                                                                                                                                                                                ",
"                                                                                                                                                                                                                                                                ",
"                                                                                                                                                                              % % % % % X   n l x n x q % <                                                     ",
"                                                                                                                                                                        S < % % % % % < E f.U.R.`.`.R.D.+.p D.&X&X%.n R.`.+X                                    ",
"                                                                                                        < % % % % 6 S E ^ I y.n.                                        p X % % % % % ^ +X&X&X+XR.+X&X&X&X+.x.R.U...^ &X&X+X..< 6 ^ f.`.`.+X                    ",
"                                        % % % X %             % % % % q E %.' ' B % % n 0.x.U.`.        < % % % X S +X&X+Xf.+X+X&X        X         < 6 6 < % % 6 q l n q n n 6 % % % y.&X&X&Xy.E x.U.n.4.E x.R.R.x.R.&X&X&XR.I f.+X&X`.+X&X+X+X                ",
"                                    < % % % < I 0.D.R.`.+X+Xf.p % % X S +X+X&X&XD.6 % y.&X&X&X&X+.    x 6 < < % X I &X&X+Xx.+X&X`.n n ^ ^ l % < I 4.f.n.n.y.^ 6 4.D.U.y.y.+X+Xy.6 % % 0.&X&X&X+X`.+X+XR.f.B U.&X&XD.+X&X&X&XR.x.&X&X`.:.n.&X&X+X                ",
"                                  6 % % % 6 4.+X&X&X&X&X&X&X&Xx.q % X S +X&X&X&X+XI x `.&X&X&X+XI < ^ 0.n.D.x.4.x I &X&X+Xx.+X&X`.y.`.&X&XU.x %.+X&X&X+X&X&X&X:.D.&X&X&X&X&X&X+XS X % B R.+X+X&X&X&X&X&X&Xn.R.&X&X4.%.&X&X&X' x.&X&X+XU.R.R.`.+X                ",
"                                  % % % % ^ &X&X&X+Xn.n.`.&X&X&X^ X X S +X&X&X&X&Xx.y.&X&X&X&X+X^ 0.&X&XR.R.&X&XU.%.+X&X+Xx.+X&X&X+X+X&X&X&X0.`.&X&X0.S D.&X&XR.R.&X&XD.+.+X&X&X^ X % l ^ 0.D.4.' D.&X&X&XR.R.&X&X+.S &X&X&X:.x.&X&XU.E :.U.`.+X                ",
"                                l % % % % y.&X&X+XE < < ' +X&X&X:.% X S +X&X&X&X&X&X+X&X+X&X&X+X0.+X&X+Xf.y.&X&X&XD.+X&X+Xx.+X&X+X^ E +X&X+Xx.+X&X+XS X 4.&X&X`.R.&X&XD.n :.:.%.l % < f.+X+X+Xx...D.&X&X&Xx.R.&X&X+.B +X&X&X`.4.`.&X&X`.+X&X&X+X                ",
"                                  % % % < x.&X&XR.q X X n +X&X&X:.% X S +X&X+XR.&X&X&X+Xn.+X&X+Xx.+X&X+XD.n.D.U.D.n.+X&X+Xx.+X&XR.p p R.&X+Xy.+X&X&Xy.^ U.&X&Xn.D.&X&X&X    % % % % % ' +X&X&X&X&X&X&X&XU.S U.&X&X:.p R.+X&X`.S 4.+X+X+X+X+X                    ",
"                                  < % % < f.&X&X+X' q p 0.&X&X&X..% X S +X&X+X%.R.&X&XU.' +X&X+Xy.+X&X+X:...U.`.R.x.+X&X+Xx.+X&XR.p p R.&X&X+.y.&X&X&X&X&X&X`.I n.&X&X+X                  +X+X+X+X+X+X                                                          ",
"                                  p % % % +.&X&X&X+XU.R.&X&X&XR.x % X S +X&X&XE %.&X&X+.S +X&X+X' x.&X&X&X&X&X&Xn.+.+X+X+Xf.+X+X`.x l R.+X+X4.    +X+X+X+X                                                                                                      ",
"                                      % % p n.&X&X&X&X&X&X&X&Xx.% % X I +X&X&X' n `.+XB I +X+X+X      +X+X+X+X                                                                                                                                                  ",
"                                                +X&X&X+X+X                                                                                                                                                                                                      ",
"                                                                                                                                                                                                                                                                ",
"                                                                                                                                                                                                                                                                ",
"                                                                                                                                                                                                                                                                ",
"                                                                                                                                                                                                                                                                ",
"                                                                                                                                                                                                                                                                ",
"                                                                                                                                                                                                                                                                ",
"                                                                                                                                                                                                                                                                ",
"                                                                                                                                                                                                                                                                ",
"                                                                                                                                                                                                                                                                ",
"                                                                                                                                                                                                                                                                ",
"                                                                                                                                                                                                                                                                ",
"                                                                                                                                                                                                                                                                ",
"                                                                                                                                                                                                                                                                ",
"                                                                                                                                                                                                                                                                ",
"                                                                                                                                                                                                                                                                ",
"                                                                                                                                                                                                                                                                ",
"                                                                                                                                                                                                                                                                ",
"                                                                                                                                                                                                                                                                ",
"                                                                                                                                                                                                                                                                ",
"                                                                                                                                                                                                                                                                "
};
