/* XPM */
static char *oms_007[] = {
/* columns rows colors chars-per-pixel */
"128 54 129 2 ",
"   c #00000000",
".  c #FF121212",
"X  c #FF141414",
"o  c #FF161616",
"O  c #FF191919",
"+  c #FF1A1A1A",
"@  c #FF1B1B1B",
"#  c #FF1D1D1D",
"$  c #FF1E1E1E",
"%  c #FF1F1F1F",
"&  c #FF333333",
"*  c #FF343434",
"=  c #FF3B3B3B",
"-  c #FF3F3F3F",
";  c #FF424242",
":  c #FF434343",
">  c #FF444444",
",  c #FF454545",
"<  c #FF494949",
"1  c #FF4C4C4C",
"2  c #FF545454",
"3  c #FF565656",
"4  c #FF575757",
"5  c #FF585858",
"6  c #FF6E6E6E",
"7  c #FF717171",
"8  c #FF737373",
"9  c #FF767676",
"0  c #FF777777",
"q  c #FF797979",
"w  c #FF7C7C7C",
"e  c #FF7D7D7D",
"r  c #FF848484",
"t  c #FF858585",
"y  c #FF8B8B8B",
"u  c #FF8C8C8C",
"i  c #FF8D8D8D",
"p  c #FF8F8F8F",
"a  c #FF929292",
"s  c #FF939393",
"d  c #FF949494",
"f  c #FF979797",
"g  c #FF989898",
"h  c #FF9A9A9A",
"j  c #FF9B9B9B",
"k  c #FF9C9C9C",
"l  c #FF9E9E9E",
"z  c #FF9F9F9F",
"x  c #FFA0A0A0",
"c  c #FFA1A1A1",
"v  c #FFA3A3A3",
"b  c #FFA4A4A4",
"n  c #FFA5A5A5",
"m  c #FFA6A6A6",
"M  c #FFA9A9A9",
"N  c #FFABABAB",
"B  c #FFACACAC",
"V  c #FFAEAEAE",
"C  c #FFAFAFAF",
"Z  c #FFB0B0B0",
"A  c #FFB1B1B1",
"S  c #FFB2B2B2",
"D  c #FFB2B2B2",
"F  c #FFB4B4B4",
"G  c #FFB5B5B5",
"H  c #FFB7B7B7",
"J  c #FFB8B8B8",
"K  c #FFB9B9B9",
"L  c #FFBABABA",
"P  c #FFBBBBBB",
"I  c #FFBDBDBD",
"U  c #FF808080",
"Y  c #FFBFBFBF",
"T  c #FFC0C0C0",
"R  c #FFC1C1C1",
"E  c #FFC4C4C4",
"W  c #FFC5C5C5",
"Q  c #FFC6C6C6",
"!  c #FFC7C7C7",
"~  c #FFC8C8C8",
"^  c #FFC9C9C9",
"/  c #FFCBCBCB",
"(  c #FFCCCCCC",
")  c #FFCECECE",
"_  c #FFD0D0D0",
"`  c #FFD1D1D1",
"'  c #FFD2D2D2",
"]  c #FFD4D4D4",
"[  c #FFD5D5D5",
"{  c #FFD6D6D6",
"}  c #FFD7D7D7",
"|  c #FFD8D8D8",
" . c #FFD9D9D9",
".. c #FFDADADA",
"X. c #FFDBDBDB",
"o. c #FFDDDDDD",
"O. c #FFDEDEDE",
"+. c #FFDFDFDF",
"@. c #FFE0E0E0",
"#. c #FFE1E1E1",
"$. c #FFE2E2E2",
"%. c #FFE3E3E3",
"&. c #FFE4E4E4",
"*. c #FFE6E6E6",
"=. c #FFE6E6E6",
"-. c #FFE7E7E7",
";. c #FFE8E8E8",
":. c #FFE9E9E9",
">. c #FFEAEAEA",
",. c #FFEBEBEB",
"<. c #FFECECEC",
"1. c #FFEDEDED",
"2. c #FFEEEEEE",
"3. c #FFEFEFEF",
"4. c #FFF0F0F0",
"5. c #FFF1F1F1",
"6. c #FFF2F2F2",
"7. c #FFF3F3F3",
"8. c #FFF4F4F4",
"9. c #FFF5F5F5",
"0. c #FFF6F6F6",
"q. c #FFF7F7F7",
"w. c #FFF8F8F8",
"e. c #FFF9F9F9",
"r. c #FFFAFAFA",
"t. c #FFFBFBFB",
"y. c #FFFCFCFC",
"u. c #FFFDFDFD",
"i. c #FFFEFEFE",
/* pixels */
"                                                                                                                                                                                                                                                                ",
"                                                                                                                                                                                                                                                                ",
"                                                                                                                                                                                                                                                                ",
"                                                                                                                                                                                                                                                                ",
"                                                                                                                                                                                                                                                                ",
"                                                                                                                                                                                                                                                                ",
"                                                                                                                                                                                                                                                                ",
"                                                                                                                                                                                                                                                                ",
"                                                                                                                                                                                                                                                                ",
"                                                                                                                                                                                                                                                                ",
"                                                                                                                                                                                                                                                                ",
"                                                                                                                                                                                                                                                                ",
"                                                                                                                                                                                                                                                                ",
"                                                                                                                                                                                                                                                                ",
"                                                                                                                                                                                                                                                                ",
"                                                                                                                                                                                                                                                                ",
"                                                                                                                                                                                                                                                                ",
"                                                                                                                                                                                                                                                                ",
"                                                                                                                                                                                                                                                                ",
"                                                                                                                                                                                                                                                                ",
"                                                                                                                                                                                                                                                                ",
"                                                                                                                                                                                                                                                                ",
"                      8.   .B                                                                                                                                                         u P -.8.-.>.                                                              ",
"              8.8.e.e.e.e.e.8.>.T 4           8.e.e.e.e.v       8.8.8.8.e.B                       8.e.e.8.8.e.e.e.>.                                                              : T 8.8.e.e.e.e.e.e.e.T = Z e.e.e.a * -.8.8.>.                                ",
"            8.e.e.e.e.8.8.e.e.e.e. .:         e.e.e.e.e.>.5   e.e.e.e.e.e.B                       8.e.e.8.8.e.e.e.8.                                                            o v e.e.e.e.>.B ` e.8.8.e.v v -. .-.e 4 8.e.e.8.                                ",
"          8.e.e.e.>.a v   8.e.e.e.e.a O       e.e.e.e.e.e.Z h e.e.e.e.e.e.B   8.>.8.8.8.8.>. .    8.e.e.8.8.e.e.e.-.P -.8.8.8.    7 T >.>.8.8.8.8.8.  = ` >.>.-.a ` 8.8.8.      o Z e.e.e.e.>.v Z >.>.>.h 1 B >.>.>.T -.e.e.e.e.8.4 6 ( -.8.e.e.8.8.8.          ",
"          e.e.e.e.h O       8.e.e.e.Z o       e.e.e.e.e.e.8.>.e.e.e.e.e.e.Z T e.e.e.-.-.8.e.e.>.( 8.e.e.8.8.e.e.e.8.8.e.e.e.e.8.e  .e.e.e.e.>.8.e.e.8.u -.e.e.e.8.e.e.e.e.8.    o 7 8.e.e.e.e.e.e.e.e.e.-.7 Z e.e.e.` 8.e.e.e.e.8.Z 8.e.e.>.Z ` e.e.e.8.        ",
"          e.e.e.e.Z O       8.e.e.e.Z O       e.e.e.>.>.e.e.e.e.>.>.e.e.e.P  .e.e.e.-.-.8.e.e.e. .8.e.e.8.8.e.e.e.8.  -.8.e.e.>.P e.e.e.8.    T e.e.e.` >.e.e.e.v B e.e.e.8.        v  .-.>.8.>.8.e.e.e.e.-.( e.e.e.v e 8.e.e.8.e P e.e.e.8.` -.e.e.e.8.        ",
"          8.e.e.e.8.Z u Z 8.e.e.e.e.t         e.e.e.T h e.e.e.e.B ` e.e.e.T -.e.e.8.( (  .` ` ` T 8.e.e.8.8.e.e.e.8.    >.e.e.>.T e.e.e.8.  O P e.e.e.` >.e.e.e.u 7 8.8.8.>.    O P -. .-.>.T : a e.e.e.e.>. .e.e.e.t * >.e.e.8.7 P e.e.e. .u v ` `  .>.        ",
"            8.e.e.e.e.e.e.e.e.e.e.( :         e.e.e.T 1 8.e.e. .  8.e.e.e.B T e.e.e.` T >.8.8.8.-.8.e.e.8.8.e.e.e.8.    >.e.e.8.P 8.e.e.e. .T 8.e.e.8.a -.e.e.8.                O h e.e.e.e.>.` -.e.e.e.e.P T e.e.e.t * >.e.e.e.>.Z 8.e.e.>.B ( 8.8.8.8.        ",
"              8.8.e.e.e.8.e.e.8.-.            e.e.e.T     e.e.B   e.e.e.e.Z   e.8.e.e.e.e.e.8.8.  8.e.e.8.8.e.e.e.8.    >.e.e.8.    8.8.e.e.e.e.e.8.` 1 -.e.e.8.                     .8.e.e.e.e.e.e.e.8.` = Z e.e.e.v O ( e.e.e.8.7 h 8.e.e.e.e.e.e.8.          ",
"                                                                                                                                                                                                                                                                ",
"                                                                                                                                                                                                                                                                ",
"                                                                                                                                                                                                                                                                ",
"                                                                                                                                                                                                                                                                ",
"                                                                                                                                                                                                                                                                ",
"                                                                                                                                                                                                                                                                ",
"                                                                                                                                                                                                                                                                ",
"                                                                                                                                                                                                                                                                ",
"                                                                                                                                                                                                                                                                ",
"                                                                                                                                                                                                                                                                ",
"                                                                                                                                                                                                                                                                ",
"                                                                                                                                                                                                                                                                ",
"                                                                                                                                                                                                                                                                ",
"                                                                                                                                                                                                                                                                ",
"                                                                                                                                                                                                                                                                ",
"                                                                                                                                                                                                                                                                ",
"                                                                                                                                                                                                                                                                ",
"                                                                                                                                                                                                                                                                ",
"                                                                                                                                                                                                                                                                ",
"                                                                                                                                                                                                                                                                ",
"                                                                                                                                                                                                                                                                ",
"                                                                                                                                                                                                                                                                ",
"                                                                                                                                                                                                                                                                "
};
