/* XPM */
static char *oms_009[] = {
/* columns rows colors chars-per-pixel */
"128 54 136 2 ",
"   c #00000000",
".  c #FF070707",
"X  c #FF0F0F0F",
"o  c #FF101010",
"O  c #FF131313",
"+  c #FF151515",
"@  c #FF1A1A1A",
"#  c #FF1B1B1B",
"$  c #FF1D1D1D",
"%  c #FF1F1F1F",
"&  c #FF202020",
"*  c #FF222222",
"=  c #FF242424",
"-  c #FF292929",
";  c #FF303030",
":  c #FF313131",
">  c #FF373737",
",  c #FF424242",
"<  c #FF4B4B4B",
"1  c #FF4C4C4C",
"2  c #FF555555",
"3  c #FF565656",
"4  c #FF5A5A5A",
"5  c #FF5D5D5D",
"6  c #FF616161",
"7  c #FF636363",
"8  c #FF656565",
"9  c #FF666666",
"0  c #FF676767",
"q  c #FF686868",
"w  c #FF696969",
"e  c #FF6B6B6B",
"r  c #FF737373",
"t  c #FF787878",
"y  c #FF797979",
"u  c #FF7C7C7C",
"i  c #FF808080",
"p  c #FF818181",
"a  c #FF868686",
"s  c #FF888888",
"d  c #FF898989",
"f  c #FF8A8A8A",
"g  c #FF8B8B8B",
"h  c #FF8D8D8D",
"j  c #FF8E8E8E",
"k  c #FF919191",
"l  c #FF939393",
"z  c #FF949494",
"x  c #FF959595",
"c  c #FF9A9A9A",
"v  c #FF9B9B9B",
"b  c #FF9D9D9D",
"n  c #FF9E9E9E",
"m  c #FF9F9F9F",
"M  c #FFA2A2A2",
"N  c #FFA3A3A3",
"B  c #FFA6A6A6",
"V  c #FFA9A9A9",
"C  c #FFAAAAAA",
"Z  c #FFABABAB",
"A  c #FFACACAC",
"S  c #FFADADAD",
"D  c #FFAEAEAE",
"F  c #FFB0B0B0",
"G  c #FFB1B1B1",
"H  c #FFB2B2B2",
"J  c #FFB2B2B2",
"K  c #FFB4B4B4",
"L  c #FFB5B5B5",
"P  c #FFB6B6B6",
"I  c #FFB7B7B7",
"U  c #FFB8B8B8",
"Y  c #FFB9B9B9",
"T  c #FFBBBBBB",
"R  c #FFBCBCBC",
"E  c #FFBDBDBD",
"W  c #FF808080",
"Q  c #FFBFBFBF",
"!  c #FFC0C0C0",
"~  c #FFC1C1C1",
"^  c #FFC2C2C2",
"/  c #FFC3C3C3",
"(  c #FFC5C5C5",
")  c #FFC6C6C6",
"_  c #FFC7C7C7",
"`  c #FFC8C8C8",
"'  c #FFCACACA",
"]  c #FFCBCBCB",
"[  c #FFCCCCCC",
"{  c #FFCDCDCD",
"}  c #FFCFCFCF",
"|  c #FFD0D0D0",
" . c #FFD1D1D1",
".. c #FFD2D2D2",
"X. c #FFD3D3D3",
"o. c #FFD4D4D4",
"O. c #FFD5D5D5",
"+. c #FFD6D6D6",
"@. c #FFD7D7D7",
"#. c #FFD8D8D8",
"$. c #FFD9D9D9",
"%. c #FFDADADA",
"&. c #FFDBDBDB",
"*. c #FFDCDCDC",
"=. c #FFDDDDDD",
"-. c #FFDEDEDE",
";. c #FFE0E0E0",
":. c #FFE1E1E1",
">. c #FFE2E2E2",
",. c #FFE3E3E3",
"<. c #FFE4E4E4",
"1. c #FFE6E6E6",
"2. c #FFE6E6E6",
"3. c #FFE7E7E7",
"4. c #FFE8E8E8",
"5. c #FFE9E9E9",
"6. c #FFEAEAEA",
"7. c #FFEBEBEB",
"8. c #FFECECEC",
"9. c #FFEDEDED",
"0. c #FFEEEEEE",
"q. c #FFEFEFEF",
"w. c #FFF0F0F0",
"e. c #FFF1F1F1",
"r. c #FFF2F2F2",
"t. c #FFF3F3F3",
"y. c #FFF4F4F4",
"u. c #FFF5F5F5",
"i. c #FFF6F6F6",
"p. c #FFF7F7F7",
"a. c #FFF8F8F8",
"s. c #FFF9F9F9",
"d. c #FFFAFAFA",
"f. c #FFFBFBFB",
"g. c #FFFCFCFC",
"h. c #FFFDFDFD",
/* pixels */
"                                                                                                                                                                                                                                                                ",
"                                                                                                                                                                                                                                                                ",
"                                                                                                                                                                                                                                                                ",
"                                                                                                                                                                                                                                                                ",
"                                                                                                                                                                                                                                                                ",
"                                                                                                                                                                                                                                                                ",
"                                                                                                                                                                                                                                                                ",
"                                                                                                                                                                                                                                                                ",
"                                                                                                                                                                                                                                                                ",
"                                                                                                                                                                                                                                                                ",
"                                                                                                                                                                                                                                                                ",
"                                                                                                                                                                                                                                                                ",
"                                                                                                                                                                                                                                                                ",
"                                                                                                                                                                                                                                                                ",
"                                                                                                                                                                                                                                                                ",
"                                                                                                                                                                                                                                                                ",
"                                                                                                                                                                                                                                                                ",
"                                                                                                                                                                                                                                                                ",
"                                                                                                                                                                                                                                                                ",
"                                                                                                                                                                                                                                                                ",
"                                                                                                                                                                                                                                                                ",
"                                                                                                                                                                                                                                                                ",
"                        ) Y A                                                                                                                                                         3 v     u.9.                                                              ",
"                u.a.a.a.u.u.u.u.&.v           u.a.a.a.a.9.f     u.a.a.a.a.u.                      G a.a.a.Y | a.u.u.                                                            + @ f 2.u.a.a.a.a.a.a.a.&.7 7 a.a.a.| = G u.9.9.                                ",
"            u.a.a.a.a.a.a.a.a.a.a.a.B         u.a.a.a.a.a.)     a.a.a.a.a.u.                      Y a.a.a.Y | a.a.a.                                                            + 1 u.a.a.a.u.G Y u.a.a.a.&.r &.&.&.G ; ) a.a.a.u.                              ",
"            a.a.a.a.&.)     u.a.a.a.9.4       u.a.a.a.a.a.9.k 9.a.a.a.a.a.u.    | 2.9.9.u.u.u.9.  Y a.a.a.Y | a.a.a.A Y 9.u.a.u.  = f | 9.9.u.u.a.a.&.; f u.9.u.Y B 9.a.u.      X 4 u.a.a.a.u.A v 2.9.u.A 7 e 2.2.2.| [ u.a.a.a.a.k , A &.9.a.a.u.u.u.          ",
"            a.a.a.u.7         a.a.a.a.y       u.a.a.a.a.a.a.9.u.a.a.a.a.a.u.  9.a.a.u.2.2.a.a.a.&.G a.a.a.Y | a.a.a.u.a.a.a.a.a.v f a.a.a.a.2.9.a.a.a.G A a.a.a.u.a.a.a.a.u.    @ ; | a.a.a.a.a.a.a.a.a.9.v y a.a.a.2.9.a.a.a.a.a.) | a.a.u.Y Y u.a.a.u.        ",
"            a.a.a.u.7         a.a.a.u.y       u.a.a.a.2.u.a.a.a.a.u.a.a.a.u.9.a.a.a.u.2.2.u.a.a.9.| a.a.a.Y | a.a.a.u.G | a.a.a.[ &.a.a.a.u.  e u.a.a.9.[ a.a.a.| a 9.a.a.a.        7 [ &.9.u.2.9.u.a.a.a.u.) u.a.a.&.e &.a.a.a.G f a.a.a.u.| | u.a.a.a.        ",
"            a.a.a.a.&.k f Y u.a.a.a.9.e       u.a.a.a.G 9.a.a.a.u.  a.a.a.u.u.a.a.a.u.| Y ) ) [ [ [ a.a.a.Y | a.a.a.    f a.a.a.[ &.a.a.a.2.. 3 u.a.a.9.| a.a.a.[ - | a.u.u.    + 7 2.| | 2.| 1 4 2.a.a.a.u.| u.a.a.| @ Y a.a.a.A y a.a.a.9.v k ) | | 2.        ",
"            u.a.a.a.a.a.u.a.a.a.a.a.[         u.a.a.a.B   a.a.a.u.  a.a.a.u.9.a.a.a.u.Y ) 9.9.9.2.) a.a.a.Y | a.a.a.    a a.a.a.) G a.a.a.9.G &.a.a.a.[ G a.a.a.u.              + 1 9.a.a.a.u.| | u.a.a.a.2.B a.a.a.| = G a.a.a.a.) &.a.a.u.Y G 9.u.u.u.        ",
"                u.u.a.a.a.a.a.a.u.            u.a.a.u.A   u.a.u.    u.a.a.u.    u.a.a.a.a.a.a.u.  G a.a.a.) | a.a.a.    f a.a.a.2.  9.u.u.a.a.a.u.u.u.3 v a.a.a.u.                  k u.u.u.a.a.a.a.u.u.9.r e a.a.a.&.= a a.a.a.a.G e 2.u.a.a.a.a.a.u.          ",
"                                                                                                                                                                                                                                                                ",
"                                                                                                                                                                                                                                                                ",
"                                                                                                                                                                                                                                                                ",
"                                                                                                                                                                                                                                                                ",
"                                                                                                                                                                                                                                                                ",
"                                                                                                                                                                                                                                                                ",
"                                                                                                                                                                                                                                                                ",
"                                                                                                                                                                                                                                                                ",
"                                                                                                                                                                                                                                                                ",
"                                                                                                                                                                                                                                                                ",
"                                                                                                                                                                                                                                                                ",
"                                                                                                                                                                                                                                                                ",
"                                                                                                                                                                                                                                                                ",
"                                                                                                                                                                                                                                                                ",
"                                                                                                                                                                                                                                                                ",
"                                                                                                                                                                                                                                                                ",
"                                                                                                                                                                                                                                                                ",
"                                                                                                                                                                                                                                                                ",
"                                                                                                                                                                                                                                                                ",
"                                                                                                                                                                                                                                                                ",
"                                                                                                                                                                                                                                                                ",
"                                                                                                                                                                                                                                                                ",
"                                                                                                                                                                                                                                                                "
};
