/* XPM */
static char *oms_017[] = {
/* columns rows colors chars-per-pixel */
"128 54 168 2 ",
"   c #00000000",
".  c #FF0B0B0B",
"X  c #FF0E0E0E",
"o  c #FF0F0F0F",
"O  c #FF101010",
"+  c #FF111111",
"@  c #FF121212",
"#  c #FF141414",
"$  c #FF151515",
"%  c #FF161616",
"&  c #FF171717",
"*  c #FF191919",
"=  c #FF1A1A1A",
"-  c #FF1B1B1B",
";  c #FF1C1C1C",
":  c #FF1E1E1E",
">  c #FF212121",
",  c #FF252525",
"<  c #FF282828",
"1  c #FF2B2B2B",
"2  c #FF2C2C2C",
"3  c #FF2F2F2F",
"4  c #FF323232",
"5  c #FF353535",
"6  c #FF373737",
"7  c #FF393939",
"8  c #FF3A3A3A",
"9  c #FF3B3B3B",
"0  c #FF3F3F3F",
"q  c #FF404040",
"w  c #FF414141",
"e  c #FF424242",
"r  c #FF464646",
"t  c #FF494949",
"y  c #FF4B4B4B",
"u  c #FF4C4C4C",
"i  c #FF505050",
"p  c #FF535353",
"a  c #FF565656",
"s  c #FF575757",
"d  c #FF595959",
"f  c #FF5B5B5B",
"g  c #FF5C5C5C",
"h  c #FF5E5E5E",
"j  c #FF5F5F5F",
"k  c #FF606060",
"l  c #FF646464",
"z  c #FF656565",
"x  c #FF676767",
"c  c #FF6D6D6D",
"v  c #FF6E6E6E",
"b  c #FF6F6F6F",
"n  c #FF747474",
"m  c #FF767676",
"M  c #FF777777",
"N  c #FF787878",
"B  c #FF797979",
"V  c #FF7A7A7A",
"C  c #FF7B7B7B",
"Z  c #FF7C7C7C",
"A  c #FF808080",
"S  c #FF818181",
"D  c #FF828282",
"F  c #FF848484",
"G  c #FF858585",
"H  c #FF868686",
"J  c #FF878787",
"K  c #FF888888",
"L  c #FF898989",
"P  c #FF8B8B8B",
"I  c #FF8C8C8C",
"U  c #FF8E8E8E",
"Y  c #FF909090",
"T  c #FF919191",
"R  c #FF929292",
"E  c #FF949494",
"W  c #FF979797",
"Q  c #FF989898",
"!  c #FF999999",
"~  c #FF9A9A9A",
"^  c #FF9B9B9B",
"/  c #FF9C9C9C",
"(  c #FF9E9E9E",
")  c #FF9F9F9F",
"_  c #FFA1A1A1",
"`  c #FFA2A2A2",
"'  c #FFA3A3A3",
"]  c #FFA4A4A4",
"[  c #FFA5A5A5",
"{  c #FFA7A7A7",
"}  c #FFA8A8A8",
"|  c #FFA9A9A9",
" . c #FFABABAB",
".. c #FFACACAC",
"X. c #FFADADAD",
"o. c #FFAEAEAE",
"O. c #FFAFAFAF",
"+. c #FFB1B1B1",
"@. c #FFB2B2B2",
"#. c #FFB2B2B2",
"$. c #FFB4B4B4",
"%. c #FFB6B6B6",
"&. c #FFB7B7B7",
"*. c #FFB8B8B8",
"=. c #FFB9B9B9",
"-. c #FFBBBBBB",
";. c #FFBCBCBC",
":. c #FF808080",
">. c #FFBFBFBF",
",. c #FFC0C0C0",
"<. c #FFC1C1C1",
"1. c #FFC2C2C2",
"2. c #FFC3C3C3",
"3. c #FFC4C4C4",
"4. c #FFC5C5C5",
"5. c #FFC7C7C7",
"6. c #FFC8C8C8",
"7. c #FFC9C9C9",
"8. c #FFCBCBCB",
"9. c #FFCCCCCC",
"0. c #FFCDCDCD",
"q. c #FFCECECE",
"w. c #FFCFCFCF",
"e. c #FFD0D0D0",
"r. c #FFD1D1D1",
"t. c #FFD2D2D2",
"y. c #FFD3D3D3",
"u. c #FFD4D4D4",
"i. c #FFD5D5D5",
"p. c #FFD6D6D6",
"a. c #FFD7D7D7",
"s. c #FFD9D9D9",
"d. c #FFDADADA",
"f. c #FFDBDBDB",
"g. c #FFDCDCDC",
"h. c #FFDDDDDD",
"j. c #FFDEDEDE",
"k. c #FFDFDFDF",
"l. c #FFE0E0E0",
"z. c #FFE1E1E1",
"x. c #FFE2E2E2",
"c. c #FFE4E4E4",
"v. c #FFE6E6E6",
"b. c #FFE6E6E6",
"n. c #FFE7E7E7",
"m. c #FFE8E8E8",
"M. c #FFE9E9E9",
"N. c #FFEAEAEA",
"B. c #FFEBEBEB",
"V. c #FFECECEC",
"C. c #FFEDEDED",
"Z. c #FFEEEEEE",
"A. c #FFEFEFEF",
"S. c #FFF0F0F0",
"D. c #FFF1F1F1",
"F. c #FFF2F2F2",
"G. c #FFF3F3F3",
"H. c #FFF4F4F4",
"J. c #FFF5F5F5",
"K. c #FFF6F6F6",
"L. c #FFF7F7F7",
"P. c #FFF8F8F8",
"I. c #FFF9F9F9",
"U. c #FFFAFAFA",
"Y. c #FFFBFBFB",
"T. c #FFFCFCFC",
"R. c #FFFDFDFD",
"E. c #FFFEFEFE",
/* pixels */
"                                                                                                                                                                                                                                                                ",
"                                                                                                                                                                                                                                                                ",
"                                                                                                                                                                                                                                                                ",
"                                                                                                                                                                                                                                                                ",
"                                                                                                                                                                                                                                                                ",
"                                                                                                                                                                                                                                                                ",
"                                                                                                                                                                                                                                                                ",
"                                                                                                                                                                                                                                                                ",
"                                                                                                                                                                                                                                                                ",
"                                                                                                                                                                                                                                                                ",
"                                                                                                                                                                                                                                                                ",
"                                                                                                                                                                                                                                                                ",
"                                                                                                                                                                                                                                                                ",
"                                                                                                                                                                                                                                                                ",
"                                                                                                                                                                                                                                                                ",
"                                                                                                                                                                                                                                                                ",
"                                                                                                                                                                                                                                                                ",
"                                                                                                                                                                                                                                                                ",
"                                                                                                                                                                                                                                                                ",
"                                                                                                                                                                                                                                                                ",
"                                                                                                                                                                                                                                                                ",
"                                                                                                                                                                                                                                                                ",
"                                                                                                                                                                                    @ @ 7 m { ;.m.      V < o d                                                 ",
"                    z O.u.v.v.m.m.m.m.            c v.v.v.v.m.    @ i h.m.v.v.L.                  @ @ Y m.v.v.O.h.m.L.L.                                                        @ @ @ m h.L.L.Y.Y.Y.Y.L.L.0.y F Y.Y.Y.( > 5.v.L.L.                              ",
"                  F v.Y.Y.Y.Y.Y.Y.Y.Y.Y.L.        V Y.Y.Y.Y.Y.L.  * $.Y.Y.Y.Y.Y.                  o o { Y.Y.Y.5.m.Y.Y.L.                                                      * @ @ 7 m.Y.Y.Y.m.O.5.L.L.L.Y.5.F h.h.v.K y m.Y.Y.L.K * @ 4                       ",
"                d v.Y.Y.Y.L.L.L.L.Y.Y.Y.Y.L.      V Y.Y.Y.Y.Y.Y.F d L.Y.Y.Y.Y.Y.F * c O.0.h.v.m.L.V * { Y.Y.Y.;.m.Y.Y.v.z ( u.m.L.K @ < F 5.h.v.m.L.m.O.e 7 u.h.h.$.V u.L.L.  < @ o y L.Y.Y.Y.m.( ( v.v.5.Y i F m.m.m.5.h.L.Y.Y.Y.h.y V u.m.L.L.Y.L.L.L.        ",
"                ( Y.Y.Y.L.        5.Y.Y.Y.L.      V Y.Y.Y.Y.Y.Y.h.u.Y.Y.Y.Y.Y.Y.V { L.Y.Y.v.v.Y.Y.L.Y { Y.Y.Y.;.m.Y.Y.L.m.Y.Y.Y.Y.m.i ;.Y.Y.Y.m.m.Y.Y.Y.h.V m.Y.Y.Y.Y.Y.Y.Y.Y.  @ @ < 0.Y.Y.Y.Y.Y.Y.Y.Y.L.v.F Y Y.Y.Y.u.L.Y.Y.Y.Y.m.O.L.Y.Y.h.{ h.Y.Y.Y.        ",
"                O.Y.Y.Y.L.        Y Y.Y.Y.L.      V Y.Y.Y.L.L.Y.Y.Y.Y.L.L.Y.Y.L.O.m.Y.Y.L.;.5.L.Y.Y.m.0.Y.Y.Y.;.m.Y.Y.Y.5.O.L.Y.Y.L.;.L.Y.Y.v.i e 0.Y.Y.Y.;.m.Y.Y.m.Y h.Y.Y.Y.      @ e O.h.v.v.v.m.Y.Y.Y.Y.m.5.Y.Y.Y.O.c m.Y.Y.m.m 5.Y.Y.Y.m.h.m.L.L.L.L.      ",
"                $.L.Y.Y.Y.0.  7 d u.Y.Y.Y.L.      V Y.Y.Y.0.;.Y.Y.Y.Y.;.h.Y.Y.L.5.L.Y.Y.L.u.u.h.u.u.0.u.Y.Y.Y.;.m.Y.Y.m.e * 5.Y.Y.L.0.L.Y.Y.u.* @ $.Y.Y.Y.5.m.Y.Y.m.7 $.L.L.Y.z o o y ;.;.0.h.$.y z m.Y.Y.Y.L.u.Y.Y.Y.( < v.Y.Y.L.m ;.Y.Y.Y.5.V { u.0.v.m.      ",
"                  L.Y.Y.Y.L.v.h.L.Y.Y.Y.L.L.      V Y.Y.Y.u.d m.Y.Y.v.i 0.Y.Y.L.{ v.Y.Y.m.K K h.h.h.u.0.Y.Y.Y.;.m.Y.Y.v.4 @ ;.Y.Y.L.( v.Y.Y.L.O.( m.Y.Y.L.( m.Y.Y.L.            @ @ e v.Y.Y.Y.L.u.h.L.Y.Y.Y.u.O.Y.Y.Y.( < v.Y.Y.Y.m.{ L.Y.Y.v.;.h.L.L.L.L.      ",
"                    L.Y.Y.Y.Y.Y.Y.Y.Y.L.m.        V Y.Y.Y.L.4 O.Y.Y.;.> u.Y.Y.Y.( $.Y.Y.Y.L.L.Y.Y.Y.{ O.Y.Y.Y.;.m.Y.Y.m.e * ;.Y.Y.Y.F Y L.Y.Y.Y.Y.Y.Y.Y.{ i m.Y.L.L.                @ V m.L.Y.Y.Y.Y.L.L.L.v.d K Y.Y.Y.O.* ;.Y.Y.Y.m.d ( L.L.Y.Y.Y.L.L.L.        ",
"                        L.L.L.L.L.L.L.              Y.Y.Y.      L.L.    u.m.m.m.        L.Y.Y.L.L.                                            m.m.L.                                                                                                            ",
"                                                                                                                                                                                                                                                                ",
"                                                                                                                                                                                                                                                                ",
"                                                                                                                                                                                                                                                                ",
"                                                                                                                                                                                                                                                                ",
"                                                                                                                                                                                                                                                                ",
"                                                                                                                                                                                                                                                                ",
"                                                                                                                                                                                                                                                                ",
"                                                                                                                                                                                                                                                                ",
"                                                                                                                                                                                                                                                                ",
"                                                                                                                                                                                                                                                                ",
"                                                                                                                                                                                                                                                                ",
"                                                                                                                                                                                                                                                                ",
"                                                                                                                                                                                                                                                                ",
"                                                                                                                                                                                                                                                                ",
"                                                                                                                                                                                                                                                                ",
"                                                                                                                                                                                                                                                                ",
"                                                                                                                                                                                                                                                                ",
"                                                                                                                                                                                                                                                                ",
"                                                                                                                                                                                                                                                                ",
"                                                                                                                                                                                                                                                                ",
"                                                                                                                                                                                                                                                                ",
"                                                                                                                                                                                                                                                                "
};
