/* XPM */
static char *oms_224[] = {
/* columns rows colors chars-per-pixel */
"128 54 208 2 ",
"   c #00000000",
".  c #FF0B0B0B",
"X  c #FF0C0C0C",
"o  c #FF0D0D0D",
"O  c #FF0E0E0E",
"+  c #FF0F0F0F",
"@  c #FF101010",
"#  c #FF111111",
"$  c #FF121212",
"%  c #FF131313",
"&  c #FF141414",
"*  c #FF151515",
"=  c #FF161616",
"-  c #FF171717",
";  c #FF181818",
":  c #FF191919",
">  c #FF1A1A1A",
",  c #FF1B1B1B",
"<  c #FF1C1C1C",
"1  c #FF1D1D1D",
"2  c #FF1E1E1E",
"3  c #FF1F1F1F",
"4  c #FF202020",
"5  c #FF212121",
"6  c #FF222222",
"7  c #FF232323",
"8  c #FF242424",
"9  c #FF252525",
"0  c #FF262626",
"q  c #FF272727",
"w  c #FF282828",
"e  c #FF292929",
"r  c #FF2B2B2B",
"t  c #FF2C2C2C",
"y  c #FF2D2D2D",
"u  c #FF2E2E2E",
"i  c #FF303030",
"p  c #FF313131",
"a  c #FF323232",
"s  c #FF333333",
"d  c #FF343434",
"f  c #FF353535",
"g  c #FF383838",
"h  c #FF393939",
"j  c #FF3A3A3A",
"k  c #FF3B3B3B",
"l  c #FF3C3C3C",
"z  c #FF3D3D3D",
"x  c #FF3E3E3E",
"c  c #FF404040",
"v  c #FF414141",
"b  c #FF434343",
"n  c #FF444444",
"m  c #FF454545",
"M  c #FF464646",
"N  c #FF484848",
"B  c #FF494949",
"V  c #FF4A4A4A",
"C  c #FF4B4B4B",
"Z  c #FF4C4C4C",
"A  c #FF4C4C4C",
"S  c #FF4E4E4E",
"D  c #FF505050",
"F  c #FF515151",
"G  c #FF525252",
"H  c #FF535353",
"J  c #FF545454",
"K  c #FF555555",
"L  c #FF565656",
"P  c #FF575757",
"I  c #FF585858",
"U  c #FF595959",
"Y  c #FF5A5A5A",
"T  c #FF5B5B5B",
"R  c #FF5C5C5C",
"E  c #FF5D5D5D",
"W  c #FF616161",
"Q  c #FF636363",
"!  c #FF666666",
"~  c #FF676767",
"^  c #FF686868",
"/  c #FF6A6A6A",
"(  c #FF6B6B6B",
")  c #FF6C6C6C",
"_  c #FF6D6D6D",
"`  c #FF6F6F6F",
"'  c #FF707070",
"]  c #FF717171",
"[  c #FF737373",
"{  c #FF747474",
"}  c #FF757575",
"|  c #FF777777",
" . c #FF797979",
".. c #FF7A7A7A",
"X. c #FF7C7C7C",
"o. c #FF808080",
"O. c #FF818181",
"+. c #FF828282",
"@. c #FF838383",
"#. c #FF848484",
"$. c #FF858585",
"%. c #FF868686",
"&. c #FF878787",
"*. c #FF888888",
"=. c #FF8A8A8A",
"-. c #FF8B8B8B",
";. c #FF8C8C8C",
":. c #FF8F8F8F",
">. c #FF909090",
",. c #FF919191",
"<. c #FF929292",
"1. c #FF939393",
"2. c #FF949494",
"3. c #FF959595",
"4. c #FF969696",
"5. c #FF979797",
"6. c #FF9A9A9A",
"7. c #FF9B9B9B",
"8. c #FF9C9C9C",
"9. c #FF9D9D9D",
"0. c #FF9E9E9E",
"q. c #FFA0A0A0",
"w. c #FFA1A1A1",
"e. c #FFA2A2A2",
"r. c #FFA3A3A3",
"t. c #FFA4A4A4",
"y. c #FFA5A5A5",
"u. c #FFA7A7A7",
"i. c #FFA8A8A8",
"p. c #FFA9A9A9",
"a. c #FFAAAAAA",
"s. c #FFABABAB",
"d. c #FFAEAEAE",
"f. c #FFAFAFAF",
"g. c #FFB0B0B0",
"h. c #FFB1B1B1",
"j. c #FFB2B2B2",
"k. c #FFB2B2B2",
"l. c #FFB4B4B4",
"z. c #FFB5B5B5",
"x. c #FFB6B6B6",
"c. c #FFB7B7B7",
"v. c #FFB8B8B8",
"b. c #FFB9B9B9",
"n. c #FFBABABA",
"m. c #FFBCBCBC",
"M. c #FFBDBDBD",
"N. c #FFBFBFBF",
"B. c #FFC0C0C0",
"V. c #FFC1C1C1",
"C. c #FFC2C2C2",
"Z. c #FFC3C3C3",
"A. c #FFC4C4C4",
"S. c #FFC5C5C5",
"D. c #FFC6C6C6",
"F. c #FFC7C7C7",
"G. c #FFC9C9C9",
"H. c #FFCACACA",
"J. c #FFCBCBCB",
"K. c #FFCCCCCC",
"L. c #FFCDCDCD",
"P. c #FFCECECE",
"I. c #FFCFCFCF",
"U. c #FFD0D0D0",
"Y. c #FFD1D1D1",
"T. c #FFD3D3D3",
"R. c #FFD4D4D4",
"E. c #FFD5D5D5",
"W. c #FFD6D6D6",
"Q. c #FFD7D7D7",
"!. c #FFD8D8D8",
"~. c #FFD9D9D9",
"^. c #FFDADADA",
"/. c #FFDBDBDB",
"(. c #FFDCDCDC",
"). c #FFDDDDDD",
"_. c #FFDEDEDE",
"`. c #FFDFDFDF",
"'. c #FFE0E0E0",
"]. c #FFE1E1E1",
"[. c #FFE3E3E3",
"{. c #FFE4E4E4",
"}. c #FFE6E6E6",
"|. c #FFE6E6E6",
" X c #FFE7E7E7",
".X c #FFE8E8E8",
"XX c #FFE9E9E9",
"oX c #FFEBEBEB",
"OX c #FFECECEC",
"+X c #FFEDEDED",
"@X c #FFEEEEEE",
"#X c #FFEFEFEF",
"$X c #FFF0F0F0",
"%X c #FFF1F1F1",
"&X c #FFF2F2F2",
"*X c #FFF3F3F3",
"=X c #FFF4F4F4",
"-X c #FFF5F5F5",
";X c #FFF6F6F6",
":X c #FFF7F7F7",
">X c #FFF8F8F8",
",X c #FFF9F9F9",
"<X c #FFFAFAFA",
"1X c #FFFBFBFB",
"2X c #FFFCFCFC",
"3X c #FFFDFDFD",
"4X c #FFFEFEFE",
"5X c #FFFFFFFF",
/* pixels */
"                                                                                                                                                                                                                                                                ",
"                                                                                                                                                                                                                                                                ",
"                                                                                                                                                                                                                                                                ",
"                                                                                                                                                                                                                                                                ",
"                                                                                                                                                                                                                                                                ",
"                                                                                                                                                                                                                                                                ",
"                                                                                                                                                                                                                                                                ",
"                                                                                                                                                                                                                                                                ",
"                                                                                                                                                                                                                                                                ",
"                                                                                                                                                                                                                                                                ",
"                                                                                                                                                                                                                                                                ",
"                                                                                                                                                                                          { x 5 < % % % %                                                       ",
"                                                                                                                                                                                        V < % % % % % % % + %                                                   ",
"                                                                                                                                                                        Q m d 5 %     Y % % % % % % % % x ( 8.S./.=X                                            ",
"                                                                                                                                                                      Y % % % % % % < < % + % % % % t 1.{.3X3X3X3X3X=X                                          ",
"                                                                                                                                                          x t < % % t 5 % % % % % % % 5 m { m % % t m.3X3X=X{.=X3X3X=X                                          ",
"                                                                                                                                                        ( % % % % % % % + + < < % < 1.U.oX3X{ + % +.3X3X/.Q d +.3X3X=X                                          ",
"                                                                                                                                                        ( % % % % % % t Y :.m.:.% V =X3X3X3X{ + < S.3X3X+.+ + Y 3X3X=X                                          ",
"                                                                                                                              J m d 5 % % %     J x t   J % % % % % % 1.3X3X3X{.d 1.3X3X3X3X{ + 5 U.3X3X1.< x m.3X3X=X                                          ",
"                                                                                                                          Y < % % % % % % % % % % % 5 < % % % % + + % 8.3X3X3X3Xi.U.3X3X3X3X{ + < U.3X3X=XP.{.3X3X=X                                            ",
"                                                                                                                          J % % % % % % % < d m { g.U.V + % < x J J 5 8.3X3X3X3X=X3X=XoX3X3Xm.+ % y.3X3X3X3X3X3X=X                                              ",
"                                                                                                                          m % % % % % % x m.{.P./.3X=XJ 5 ..P.oX=X=Xi.i.3X3X=X3X3X3XP.S.3X3X        =X=X=X=X=X                                                  ",
"                                                                                                                  Y 5 % % < % % % % % + J =X3XU.U.3X=XQ i.3X{.S.=X3XoXP.3X3Xm./.3X3X+.g.3X3X                                                                    ",
"                                                                                                      V d 5 % % V < % % % % % % % % t t Y =X3XU.U.3XoXi.=X3X{.U.=X3XoXU.3X3X1.+.3X=XJ m.3X=X                                                                    ",
"                                                                                                  V < % % % % % % % % + % < % % t y.{.{.P.=X3XU.U.3X=XU.oX{.g.1.oX3XU.g.3X3XP.  oX                                                                              ",
"                                                                  m d 5 % %             V 5 < % % % % % % % % % % % m ..i.m.y.x 8.3X3XoXoX3X3XU.U.3X=XP.{.oXU.U.3X3Xy.i.3X                                                                                      ",
"                                                            m 5 < % % % % % % % < t % % % % % % % % + % % < x d t y.oX3X3X3X3XS./.3X=X( ( =X3XU.U.3X=XS.=X3X3X3X=X                                                                                              ",
"                                                  V d < < 5 % % % % % % % % % < m ( 8.m.g.J % % % 5 Y J ( P.oXy.g.3X=X8.y.3X3X=X=X3XoXx J =X3XU.U.3X=X                                                                                                          ",
"                                                J % % % % % % % % % % 5 < < ( S.oX3X3X3X3XS.< % 5 g.=X=XoX3X3XU.oX3X/.< Y =X3X/.oX3XoXV J =X3X{.                                                                                                                ",
"                                        ..5 % % % % % % % % % + % V y.P...+.3X3XoXi.{.3X3XU.5 + ( 3X3X/./.3X3XoX=X3XoX..m.3X3X1./.3X=X                                                                                                                          ",
"                                        Y % % % % % % % % 5 m { m 1.3X=X8.U.{.{.S.y.oX3X3X8.% % :.3X3X+.1.3X3XP.oX3X3X3X3X=X=X                                                                                                                                  ",
"                                      ( < % % % % % % % % 1.=X3X:.+././.+.{ S.oX3X3X3XoXP.  < % ..8.Q 5 1.3X3XU.  =X=X=X                                                                                                                                        ",
"                          Q d 5 % % % % % % % % % + % + 5 m.3X3X{.P.=X3X8.S.3X3XoXm.P.U.P.oX          + 8.3X=X                                                                                                                                                  ",
"                        J % % % % % % % % % % t Y +.:.J { 3X3X3XoXU.3X3XP.=X3X3Xg.( /.3X3X=X                                                                                                                                                                    ",
"                      :.< % % % % % % % % 5 :./.=X3X3XoXg.=X3X3X8.y.3X3XP.=X3X3X=X=X3X3X=X                                                                                                                                                                      ",
"                      { % % % % % % % % < y.3X=Xg.{.3X3X:.g.3X3X..1.3X3Xg./.3X=X3X=X=X                                                                                                                                                                          ",
"                      ..< % % % % % % % m oX3X=X/.oX3X=Xi./.3X3X{ 1.3X3X                                                                                                                                                                                        ",
"                      { < % % % % % % % J {.{.S...U.3X{.g.3X3X=X                                                                                                                                                                                                ",
"                            % % % % % % V {.=X=X{.=X3XP.1.                                                                                                                                                                                                      ",
"                                        x {.=X=X=X=X                                                                                                                                                                                                            ",
"                                                                                                                                                                                                                                                                ",
"                                                                                                                                                                                                                                                                ",
"                                                                                                                                                                                                                                                                ",
"                                                                                                                                                                                                                                                                ",
"                                                                                                                                                                                                                                                                ",
"                                                                                                                                                                                                                                                                ",
"                                                                                                                                                                                                                                                                ",
"                                                                                                                                                                                                                                                                ",
"                                                                                                                                                                                                                                                                ",
"                                                                                                                                                                                                                                                                ",
"                                                                                                                                                                                                                                                                ",
"                                                                                                                                                                                                                                                                ",
"                                                                                                                                                                                                                                                                ",
"                                                                                                                                                                                                                                                                "
};
