/* XPM */
static char *oms_035[] = {
/* columns rows colors chars-per-pixel */
"128 54 194 2 ",
"   c #00000000",
".  c #FF0A0A0A",
"X  c #FF0D0D0D",
"o  c #FF0E0E0E",
"O  c #FF0F0F0F",
"+  c #FF101010",
"@  c #FF111111",
"#  c #FF121212",
"$  c #FF131313",
"%  c #FF141414",
"&  c #FF151515",
"*  c #FF161616",
"=  c #FF171717",
"-  c #FF181818",
";  c #FF191919",
":  c #FF1B1B1B",
">  c #FF1D1D1D",
",  c #FF1E1E1E",
"<  c #FF1F1F1F",
"1  c #FF202020",
"2  c #FF212121",
"3  c #FF222222",
"4  c #FF232323",
"5  c #FF242424",
"6  c #FF272727",
"7  c #FF282828",
"8  c #FF292929",
"9  c #FF2A2A2A",
"0  c #FF2B2B2B",
"q  c #FF2C2C2C",
"w  c #FF2E2E2E",
"e  c #FF2F2F2F",
"r  c #FF303030",
"t  c #FF313131",
"y  c #FF333333",
"u  c #FF343434",
"i  c #FF353535",
"p  c #FF373737",
"a  c #FF383838",
"s  c #FF393939",
"d  c #FF3B3B3B",
"f  c #FF3C3C3C",
"g  c #FF3D3D3D",
"h  c #FF3F3F3F",
"j  c #FF414141",
"k  c #FF434343",
"l  c #FF444444",
"z  c #FF454545",
"x  c #FF464646",
"c  c #FF474747",
"v  c #FF494949",
"b  c #FF4B4B4B",
"n  c #FF4C4C4C",
"m  c #FF4E4E4E",
"M  c #FF4F4F4F",
"N  c #FF505050",
"B  c #FF525252",
"V  c #FF545454",
"C  c #FF565656",
"Z  c #FF575757",
"A  c #FF585858",
"S  c #FF5A5A5A",
"D  c #FF5B5B5B",
"F  c #FF5C5C5C",
"G  c #FF5D5D5D",
"H  c #FF5E5E5E",
"J  c #FF5F5F5F",
"K  c #FF636363",
"L  c #FF656565",
"P  c #FF696969",
"I  c #FF6A6A6A",
"U  c #FF6B6B6B",
"Y  c #FF6C6C6C",
"T  c #FF6D6D6D",
"R  c #FF6E6E6E",
"E  c #FF707070",
"W  c #FF717171",
"Q  c #FF737373",
"!  c #FF747474",
"~  c #FF767676",
"^  c #FF777777",
"/  c #FF797979",
"(  c #FF7B7B7B",
")  c #FF7C7C7C",
"_  c #FF7E7E7E",
"`  c #FF808080",
"'  c #FF808080",
"]  c #FF828282",
"[  c #FF838383",
"{  c #FF848484",
"}  c #FF868686",
"|  c #FF878787",
" . c #FF888888",
".. c #FF898989",
"X. c #FF8A8A8A",
"o. c #FF8C8C8C",
"O. c #FF8D8D8D",
"+. c #FF929292",
"@. c #FF949494",
"#. c #FF969696",
"$. c #FF989898",
"%. c #FF999999",
"&. c #FF9A9A9A",
"*. c #FF9B9B9B",
"=. c #FF9C9C9C",
"-. c #FF9E9E9E",
";. c #FF9F9F9F",
":. c #FFA0A0A0",
">. c #FFA2A2A2",
",. c #FFA3A3A3",
"<. c #FFA4A4A4",
"1. c #FFA5A5A5",
"2. c #FFA7A7A7",
"3. c #FFA8A8A8",
"4. c #FFAAAAAA",
"5. c #FFABABAB",
"6. c #FFACACAC",
"7. c #FFAFAFAF",
"8. c #FFB0B0B0",
"9. c #FFB2B2B2",
"0. c #FFB2B2B2",
"q. c #FFB4B4B4",
"w. c #FFB5B5B5",
"e. c #FFB6B6B6",
"r. c #FFB7B7B7",
"t. c #FFB8B8B8",
"y. c #FFB9B9B9",
"u. c #FFBABABA",
"i. c #FFBBBBBB",
"p. c #FFBCBCBC",
"a. c #FFBDBDBD",
"s. c #FF808080",
"d. c #FFBFBFBF",
"f. c #FFC0C0C0",
"g. c #FFC1C1C1",
"h. c #FFC2C2C2",
"j. c #FFC3C3C3",
"k. c #FFC4C4C4",
"l. c #FFC5C5C5",
"z. c #FFC6C6C6",
"x. c #FFC7C7C7",
"c. c #FFC8C8C8",
"v. c #FFCBCBCB",
"b. c #FFCCCCCC",
"n. c #FFCECECE",
"m. c #FFCFCFCF",
"M. c #FFD0D0D0",
"N. c #FFD1D1D1",
"B. c #FFD2D2D2",
"V. c #FFD3D3D3",
"C. c #FFD4D4D4",
"Z. c #FFD5D5D5",
"A. c #FFD6D6D6",
"S. c #FFD7D7D7",
"D. c #FFD8D8D8",
"F. c #FFD9D9D9",
"G. c #FFDADADA",
"H. c #FFDBDBDB",
"J. c #FFDCDCDC",
"K. c #FFDDDDDD",
"L. c #FFDEDEDE",
"P. c #FFDFDFDF",
"I. c #FFE0E0E0",
"U. c #FFE1E1E1",
"Y. c #FFE2E2E2",
"T. c #FFE3E3E3",
"R. c #FFE4E4E4",
"E. c #FFE6E6E6",
"W. c #FFE6E6E6",
"Q. c #FFE7E7E7",
"!. c #FFE8E8E8",
"~. c #FFE9E9E9",
"^. c #FFEAEAEA",
"/. c #FFEBEBEB",
"(. c #FFECECEC",
"). c #FFEDEDED",
"_. c #FFEEEEEE",
"`. c #FFEFEFEF",
"'. c #FFF0F0F0",
"]. c #FFF1F1F1",
"[. c #FFF2F2F2",
"{. c #FFF3F3F3",
"}. c #FFF4F4F4",
"|. c #FFF5F5F5",
" X c #FFF6F6F6",
".X c #FFF7F7F7",
"XX c #FFF8F8F8",
"oX c #FFF9F9F9",
"OX c #FFFAFAFA",
"+X c #FFFBFBFB",
"@X c #FFFCFCFC",
"#X c #FFFDFDFD",
"$X c #FFFEFEFE",
"%X c #FFFFFFFF",
/* pixels */
"                                                                                                                                                                                                                                                                ",
"                                                                                                                                                                                                                                                                ",
"                                                                                                                                                                                                                                                                ",
"                                                                                                                                                                                                                                                                ",
"                                                                                                                                                                                                                                                                ",
"                                                                                                                                                                                                                                                                ",
"                                                                                                                                                                                                                                                                ",
"                                                                                                                                                                                                                                                                ",
"                                                                                                                                                                                                                                                                ",
"                                                                                                                                                                                                                                                                ",
"                                                                                                                                                                                                                                                                ",
"                                                                                                                                                                                                                                                                ",
"                                                                                                                                                                                                                                                                ",
"                                                                                                                                                                                                                                                                ",
"                                                                                                                                                                                                                                                                ",
"                                                                                                                                                                                                                                                                ",
"                                                                                                                                                                                                                                                                ",
"                                                                                                                                                                                                                                                                ",
"                                                                                                                                                                                                                                                                ",
"                                                                                                                                                                                                                                                                ",
"                                                                                                                                                                                                                                                                ",
"                                                                                                                                                                                                r a r 5                                                         ",
"                                                                                                                                                                          a $ $ $ $ $ $ j #.f.M.M.K.M.f.&.r T !..X!.b ` K.K..X                                  ",
"                                                                              $ $ $                   j $ $ $ $ w ! ` { ! 7.R..X                                          , O $ $ $ $ b R.OXOXOX.XOXOXOXOXf.{ !.!.R.b ,.OXOX!.b $ , b                           ",
"                                    $ $ O , j T &.v.      w $ $ $ 5 o.7.u.r.,.r $ , 7.M.R.!..X        j $ $ $ O D OXOXOXu..XOXOX                      5 5 , , $ 5 w a   j j j , $ $ $ #.OXOXOXR.! ,..XK.f.,.` M.K.M.7.R.OXOXOXf.a &.R..XOXOXOX.X                ",
"                                , $ $ $ V r.R..X.X.XOX.XOX{ $ $ $ r !.OXOXOXOX{ O D .XOXOXOX!.j O     b w w , O D OXOX.Xu..XOXOX` b { o.K , $ a o.u.v.v.f.7.V w r.v.M.,.7.!.!.r.5 $ $ #.OXOXOX.XK.R..XR.f.K ` OXOX.XR.OXOXOXOXR.r.OXOX!.7.M.OXOX.X              ",
"                              w $ $ $ V !.OXOXOXOXOXOXOXOX.XD $ $ r !.OXOXOXOXK.r r.OXOXOXOXR.r j ,.M.R.!.K.u.V D OXOX.Xu..XOX.Xu.K.OXOXOXo.b K.OXOXOXOXOXOX!.{ K.OXOX.XOXOXOX.XD O $ j K.OXOXOXOXOXOXOXOX!.r.OXOX.X&.M.OXOX!.{ K.OXOX.XR.!..X.X.X              ",
"                              , $ $ , u.OXOXOXv.o.o.M.OXOXOX7.$ $ r !.OXOXOXOX.Xr.!.OXOXOXOXR.T R.OXOXM.K.OXOXR.&..XOX.Xu..XOXOX.X!.OXOXOXM.u.OXOX!.! ! !.OXOXv.R.OXOXv.&.OXOXOX! O $ 5 D ,.M.M.&.u..XOXOX.XK..XOX.Xb &.OXOX!.T M.OXOXR.` &.v.M..X              ",
"                              , $ $ w K.OXOXR.a O O V .XOXOXf., $ r !.OXOX.XOXOXOXOXOX.XOXOXR.u.OXOX.Xu.M.OXOXOXM..XOX.Xu..XOXOX&.a M.OXOXR.R.OXOXM.$ w K.OXOXM.R.OXOXv.D f.7.,.b $ $ &.!.R..XK.T &..XOXOX.Xf..XOX.Xb &.OXOXOXK.u.OXOX.Xf.K.OXOX.X              ",
"                              , $ $ r R.OXOXK.w O O V .XOXOXu., $ r !.OXOXR.R.OXOXOXK.M.OXOXR.v.OXOX.Xf.r.M.M.v.f..XOX.Xu..XOXOXT O u.OXOXM.v.OXOX!.{ #..XOXOXr.K.OXOX.X    , $ $ $ $ T .XOXOXOXOXOXOXOXOX7.o.OXOX.Xb ! OXOXOXK.D M..XOXOXOX.X.X                ",
"                              w $ $ 5 M.OXOX.X7.K ! M.OXOXOX&.$ $ r !.OXOXf.#.OXOXOX{ u.OXOXR.r.OXOX.X,.,.!.!.!.f..XOX.Xu..XOXOXT $ u.OXOXv.! !.OXOXOXOXOXOXM.V K.OXOX.X                ,..X.XOX.X.X.X.X                                                        ",
"                                , $ $ o.OXOXOXOXOXOXOXOXOX!.j $ $ r !.OXOXu.a R.OXK.r u.OXOXR.K K.OXOXOXOXOXOXv.` .XOX.Xf.!..XOX` $ f..X.XR.    OX.X.XOX.X                                                                                                      ",
"                                      w f..XOXOXOXOXOX.X.X      $ r R.OXOXM.  r..Xv.  u.OXOX!.      !.!.!.                                                                                                                                                      ",
"                                              !.!.!.                                                                                                                                                                                                            ",
"                                                                                                                                                                                                                                                                ",
"                                                                                                                                                                                                                                                                ",
"                                                                                                                                                                                                                                                                ",
"                                                                                                                                                                                                                                                                ",
"                                                                                                                                                                                                                                                                ",
"                                                                                                                                                                                                                                                                ",
"                                                                                                                                                                                                                                                                ",
"                                                                                                                                                                                                                                                                ",
"                                                                                                                                                                                                                                                                ",
"                                                                                                                                                                                                                                                                ",
"                                                                                                                                                                                                                                                                ",
"                                                                                                                                                                                                                                                                ",
"                                                                                                                                                                                                                                                                ",
"                                                                                                                                                                                                                                                                ",
"                                                                                                                                                                                                                                                                ",
"                                                                                                                                                                                                                                                                ",
"                                                                                                                                                                                                                                                                ",
"                                                                                                                                                                                                                                                                ",
"                                                                                                                                                                                                                                                                ",
"                                                                                                                                                                                                                                                                "
};
