/* XPM */
static char *oms_204[] = {
/* columns rows colors chars-per-pixel */
"128 54 197 2 ",
"   c #00000000",
".  c #FF0E0E0E",
"X  c #FF0F0F0F",
"o  c #FF101010",
"O  c #FF111111",
"+  c #FF121212",
"@  c #FF131313",
"#  c #FF141414",
"$  c #FF151515",
"%  c #FF161616",
"&  c #FF171717",
"*  c #FF181818",
"=  c #FF191919",
"-  c #FF1A1A1A",
";  c #FF1B1B1B",
":  c #FF1C1C1C",
">  c #FF1D1D1D",
",  c #FF1E1E1E",
"<  c #FF1F1F1F",
"1  c #FF202020",
"2  c #FF212121",
"3  c #FF222222",
"4  c #FF232323",
"5  c #FF242424",
"6  c #FF262626",
"7  c #FF272727",
"8  c #FF282828",
"9  c #FF292929",
"0  c #FF2A2A2A",
"q  c #FF2B2B2B",
"w  c #FF2C2C2C",
"e  c #FF2D2D2D",
"r  c #FF2F2F2F",
"t  c #FF303030",
"y  c #FF313131",
"u  c #FF323232",
"i  c #FF333333",
"p  c #FF343434",
"a  c #FF353535",
"s  c #FF363636",
"d  c #FF373737",
"f  c #FF383838",
"g  c #FF393939",
"h  c #FF3A3A3A",
"j  c #FF3B3B3B",
"k  c #FF3C3C3C",
"l  c #FF3D3D3D",
"z  c #FF3F3F3F",
"x  c #FF404040",
"c  c #FF414141",
"v  c #FF424242",
"b  c #FF454545",
"n  c #FF464646",
"m  c #FF474747",
"M  c #FF484848",
"N  c #FF494949",
"B  c #FF4B4B4B",
"V  c #FF4C4C4C",
"C  c #FF4F4F4F",
"Z  c #FF505050",
"A  c #FF515151",
"S  c #FF525252",
"D  c #FF535353",
"F  c #FF545454",
"G  c #FF555555",
"H  c #FF565656",
"J  c #FF575757",
"K  c #FF585858",
"L  c #FF5B5B5B",
"P  c #FF5D5D5D",
"I  c #FF5E5E5E",
"U  c #FF5F5F5F",
"Y  c #FF606060",
"T  c #FF626262",
"R  c #FF636363",
"E  c #FF646464",
"W  c #FF656565",
"Q  c #FF686868",
"!  c #FF696969",
"~  c #FF6A6A6A",
"^  c #FF6B6B6B",
"/  c #FF6D6D6D",
"(  c #FF6E6E6E",
")  c #FF707070",
"_  c #FF727272",
"`  c #FF737373",
"'  c #FF757575",
"]  c #FF767676",
"[  c #FF797979",
"{  c #FF7A7A7A",
"}  c #FF7B7B7B",
"|  c #FF7C7C7C",
" . c #FF7D7D7D",
".. c #FF808080",
"X. c #FF818181",
"o. c #FF828282",
"O. c #FF838383",
"+. c #FF858585",
"@. c #FF868686",
"#. c #FF878787",
"$. c #FF898989",
"%. c #FF8A8A8A",
"&. c #FF8C8C8C",
"*. c #FF909090",
"=. c #FF929292",
"-. c #FF939393",
";. c #FF949494",
":. c #FF959595",
">. c #FF999999",
",. c #FF9D9D9D",
"<. c #FF9F9F9F",
"1. c #FFA0A0A0",
"2. c #FFA1A1A1",
"3. c #FFA3A3A3",
"4. c #FFA6A6A6",
"5. c #FFA7A7A7",
"6. c #FFA8A8A8",
"7. c #FFABABAB",
"8. c #FFACACAC",
"9. c #FFADADAD",
"0. c #FFAEAEAE",
"q. c #FFAFAFAF",
"w. c #FFB0B0B0",
"e. c #FFB1B1B1",
"r. c #FFB2B2B2",
"t. c #FFB2B2B2",
"y. c #FFB4B4B4",
"u. c #FFB5B5B5",
"i. c #FFB6B6B6",
"p. c #FFB7B7B7",
"a. c #FFB9B9B9",
"s. c #FFBABABA",
"d. c #FFBBBBBB",
"f. c #FFBCBCBC",
"g. c #FFBDBDBD",
"h. c #FF808080",
"j. c #FFBFBFBF",
"k. c #FFC0C0C0",
"l. c #FFC1C1C1",
"z. c #FFC2C2C2",
"x. c #FFC3C3C3",
"c. c #FFC4C4C4",
"v. c #FFC5C5C5",
"b. c #FFC6C6C6",
"n. c #FFC7C7C7",
"m. c #FFC8C8C8",
"M. c #FFC9C9C9",
"N. c #FFCACACA",
"B. c #FFCBCBCB",
"V. c #FFCCCCCC",
"C. c #FFCDCDCD",
"Z. c #FFCECECE",
"A. c #FFCFCFCF",
"S. c #FFD0D0D0",
"D. c #FFD2D2D2",
"F. c #FFD4D4D4",
"G. c #FFD5D5D5",
"H. c #FFD7D7D7",
"J. c #FFD8D8D8",
"K. c #FFD9D9D9",
"L. c #FFDADADA",
"P. c #FFDBDBDB",
"I. c #FFDCDCDC",
"U. c #FFDDDDDD",
"Y. c #FFDEDEDE",
"T. c #FFDFDFDF",
"R. c #FFE0E0E0",
"E. c #FFE1E1E1",
"W. c #FFE2E2E2",
"Q. c #FFE3E3E3",
"!. c #FFE4E4E4",
"~. c #FFE6E6E6",
"^. c #FFE6E6E6",
"/. c #FFE8E8E8",
"(. c #FFE9E9E9",
"). c #FFEAEAEA",
"_. c #FFEBEBEB",
"`. c #FFECECEC",
"'. c #FFEDEDED",
"]. c #FFEEEEEE",
"[. c #FFEFEFEF",
"{. c #FFF0F0F0",
"}. c #FFF1F1F1",
"|. c #FFF2F2F2",
" X c #FFF3F3F3",
".X c #FFF4F4F4",
"XX c #FFF5F5F5",
"oX c #FFF6F6F6",
"OX c #FFF7F7F7",
"+X c #FFF8F8F8",
"@X c #FFF9F9F9",
"#X c #FFFAFAFA",
"$X c #FFFBFBFB",
"%X c #FFFCFCFC",
"&X c #FFFDFDFD",
"*X c #FFFEFEFE",
"=X c #FFFFFFFF",
/* pixels */
"                                                                                                                                                                                                                                                                ",
"                                                                                                                                                                                                                                                                ",
"                                                                                                                                                                                                                                                                ",
"                                                                                                                                                                                                                                                                ",
"                                                                                                                                                                                                                                                                ",
"                                                                                                                                                                                                                                                                ",
"                                                                                                                                                                                                                                                                ",
"                                                                                                                                                                                                                                                                ",
"                                                                                                                                                                                                                                                                ",
"                                                                                                                                                                                                                                                                ",
"                                                                                                                                                                                                                                                                ",
"                                                                                                                                                                                                                                                                ",
"                                                                                                                                                                                                                                                                ",
"                                                                                                                                                                                                                      N b a a 9 z                               ",
"                                                                                                                                                                                                                A 9 ; @ @ @ @ @ @ ;                             ",
"                                                                                                                                                                                          N 9 9 2 ; @         a @ @ @ @ @ @ @ X X X @                           ",
"                                                                                                                                                                          a 9 2 2 ;       2 @ @ @ @ @ @       @ @ @ @ @ @ 9 b I ^ ^ N a                         ",
"                                                                                                                                                                          @ @ @ @ @ @   b @ @ @ @ X @ @ ;   2 @ @ @ ; R r.I._.}.$X$X}.S.                        ",
"                                                                                                                                    I z z 9 9 ; ; @ @                     @ @ @ @ @ @ ; 2 @ @ @ N O.<.r.x.W.@ @ @ 9 6.}.$X$X$X$X$X$X$X$X}.                      ",
"                                                                                                                                    ; @ @ @ @ @ @ @ @ @ z b 9 9 2 2 2     @ @ ; ^ %.4.f.x.b X 9 S.$X$X$X$X$X  @ @ <.$X$X$XI.%.^ ;.}.$X$X$X                      ",
"                                                                                                                                    ; @ @ @ @ X @ @ @ ; 9 9 @ @ @ @ @ @ @ @ @ a W.$X$X$X$Xr.@ [ $X$X$X$X$X$X  @ 2 I.$X$X_.A X X ; Z.$X$X$X                      ",
"                                                                                                                          N 9 2 2 a ; @ @ ; A ^ %.[ 4.Z.I.x.2 @ @ @ @ ; ; ; X a W.$X$X$X$X}.[ S.$X$X$X$X$X}.    a W.$X$X_.N @ @ A _.$X$X$X                      ",
"                                                            R b N b a                                   z 9 2 2 ; ; ;   z @ @ @ @ @ @ @ @ z _.$X$XZ.I.$X$XZ.2 ; A %.r.x.x.x.O.b I.$X$X$X$X$X}.$X$X}.$X$X$X}.      W.$X$X$XI.6.r._.$X$X$X}.                      ",
"                                              I     ^ z 2 ; @ @ @ @ @ @ @           z 9   z 9 2 ; 2 a ; @ @ @ @ @ @ @ ; @ @ @ @ @ @ @ ; @ z }.$X$XZ.I.$X$XZ.z r.}.$XW.W.$X$X$X4.I.$X$X_._.$X$X$X}.f.}.$X$X}.      }.$X$X$X$X$X$X$X$X$X}.                        ",
"                                        ^ ; ; @ @ 2 ; @ @ @ @ @ @ @ @ @ X X     A ; @ @ @ @ @ @ @ @ @ @ @ @ @ @ @ @ ; 2 9 2 @ @ ; _ r.Z.r.;.}.$X$XZ.I.$X$XS.r.$X$X}.f.Z.}.$X$XZ.W.$X$XI.4.}.$X$Xx.^ $X$X$X}.          }.$X$X}.}.}.}.                            ",
"                              I 2 ; ; @ 2 @ @ @ @ @ @ @ X @ @ @ @ 2 z A ^ [ %.4.I @ @ @ @ @ @ X X @ @ ; 9 2 @ a [ 6.Z.I.W.I.6.z O.$X$X$X$X}.$X$X$XZ.I.$X$XW.I.}._.I.r.f.}.$X$Xf.I.$X$X}.  W.$X$Xf._ }.$X$X}.                                                    ",
"                              z @ @ @ @ @ @ @ @ @ @ 9 b I R ; a ;.Z._.}.$X$X$X$X}._ @ @ @ ; I O._ N 6.Z.I.;.I I.$X$X_._.$X$X$Xx.I.$X$X_.[ O.}.$X$XZ.I.$X$XW.Z.W._.I.4.x.$X$X}.O.I.$X$X}.    }.}.                                                                ",
"                N z z 9 2   A @ @ @ @ @ @ 2 a b N 2 r.}.$XI.I I.$X$X$XZ.r._.$X$X$X6.@ @ ; ;.}.$X$X_.$X$X$Xx.I.$X$XI.b A _.$X$X}.}.$X$XI.; z }.$X$XZ.I.$X$X}._.$X$X$X$X$X$X}.                                                                                    ",
"          R 9 @ @ @ @ @ @ @ ; @ @ @ @ @ ; 6._.}.I.z 6.W.I.f.O.Z.S.I.W.<.6.}.$X$X$Xx.X @ z _.$X$XI.f.$X$X$XW.}.$X$Xx.; N _.$X$XZ.W.$X$X}.z z _.$X$XS.I.$X}.$X                                                                                                    ",
"        _ ; @ @ @ @ @ @ @ X @ @ ; ; @ @ b S.$X$X}.f.Z._._.S.b ;.I.}.$X$X$X$X}.W.f.      I }.$X_.O.N }.$X$XS._.$X$X}.x.I.$X$X$XO.I.$X$X}.    _.                                                                                                                  ",
"        z @ @ @ @ @ @ @ a _ <.f.x.x.<.b f.$X$X$X$X}._.$X$XI.4.$X$X$X}.S.r.I.Z.r.4.S.            ; N }.$X$XW.  $X$X$X$X$X}.}.                                                                                                                                    ",
"        a @ @ @ @ @ @ [ W.$X}.I.}.$X$XS.x.}.$X$X_.O.Z.$X$X_.W.$X$X$X_._ _ W.}.$X$X}.              R }.}.}.                                                                                                                                                      ",
"        z @ @ @ @ @ N }.$X$XS.r._.$X$X_.A Z.$X$XI.a f.$X$XW.Z.$X$X$X$X}.$X$X$X$X}.                                                                                                                                                                              ",
"            @ @ @ X O.}._._.Z.r.W.$X$XW.4._.$X$XI.a f.$X$X}.  }.}.$X}.}.}.}.                                                                                                                                                                                    ",
"                @ X _ W.W._.r.4._.$X$X6.Z.$X$X$X_.  Z.$X$X                                                                                                                                                                                                      ",
"                    [ }.$X$X$X$X$X}.                                                                                                                                                                                                                            ",
"                                                                                                                                                                                                                                                                ",
"                                                                                                                                                                                                                                                                ",
"                                                                                                                                                                                                                                                                ",
"                                                                                                                                                                                                                                                                ",
"                                                                                                                                                                                                                                                                ",
"                                                                                                                                                                                                                                                                ",
"                                                                                                                                                                                                                                                                ",
"                                                                                                                                                                                                                                                                ",
"                                                                                                                                                                                                                                                                ",
"                                                                                                                                                                                                                                                                ",
"                                                                                                                                                                                                                                                                ",
"                                                                                                                                                                                                                                                                ",
"                                                                                                                                                                                                                                                                ",
"                                                                                                                                                                                                                                                                ",
"                                                                                                                                                                                                                                                                ",
"                                                                                                                                                                                                                                                                ",
"                                                                                                                                                                                                                                                                ",
"                                                                                                                                                                                                                                                                "
};
