/* XPM */
static char *oms_129[] = {
/* columns rows colors chars-per-pixel */
"128 54 179 2 ",
"   c #00000000",
".  c #FF0E0E0E",
"X  c #FF0F0F0F",
"o  c #FF101010",
"O  c #FF111111",
"+  c #FF121212",
"@  c #FF131313",
"#  c #FF141414",
"$  c #FF151515",
"%  c #FF161616",
"&  c #FF171717",
"*  c #FF181818",
"=  c #FF191919",
"-  c #FF1A1A1A",
";  c #FF1B1B1B",
":  c #FF1C1C1C",
">  c #FF1D1D1D",
",  c #FF1E1E1E",
"<  c #FF1F1F1F",
"1  c #FF202020",
"2  c #FF222222",
"3  c #FF242424",
"4  c #FF252525",
"5  c #FF262626",
"6  c #FF282828",
"7  c #FF292929",
"8  c #FF2A2A2A",
"9  c #FF2B2B2B",
"0  c #FF2C2C2C",
"q  c #FF2D2D2D",
"w  c #FF2E2E2E",
"e  c #FF2F2F2F",
"r  c #FF303030",
"t  c #FF313131",
"y  c #FF323232",
"u  c #FF333333",
"i  c #FF343434",
"p  c #FF363636",
"a  c #FF373737",
"s  c #FF383838",
"d  c #FF3A3A3A",
"f  c #FF3B3B3B",
"g  c #FF3F3F3F",
"h  c #FF424242",
"j  c #FF434343",
"k  c #FF474747",
"l  c #FF484848",
"z  c #FF4A4A4A",
"x  c #FF4B4B4B",
"c  c #FF4C4C4C",
"v  c #FF4C4C4C",
"b  c #FF4E4E4E",
"n  c #FF515151",
"m  c #FF545454",
"M  c #FF555555",
"N  c #FF575757",
"B  c #FF585858",
"V  c #FF595959",
"C  c #FF5B5B5B",
"Z  c #FF5E5E5E",
"A  c #FF5F5F5F",
"S  c #FF606060",
"D  c #FF636363",
"F  c #FF646464",
"G  c #FF656565",
"H  c #FF666666",
"J  c #FF676767",
"K  c #FF686868",
"L  c #FF6A6A6A",
"P  c #FF6B6B6B",
"I  c #FF6C6C6C",
"U  c #FF6E6E6E",
"Y  c #FF707070",
"T  c #FF717171",
"R  c #FF767676",
"E  c #FF797979",
"W  c #FF7B7B7B",
"Q  c #FF7C7C7C",
"!  c #FF808080",
"~  c #FF808080",
"^  c #FF818181",
"/  c #FF828282",
"(  c #FF838383",
")  c #FF848484",
"_  c #FF858585",
"`  c #FF878787",
"'  c #FF888888",
"]  c #FF8A8A8A",
"[  c #FF8B8B8B",
"{  c #FF8C8C8C",
"}  c #FF8D8D8D",
"|  c #FF909090",
" . c #FF919191",
".. c #FF929292",
"X. c #FF949494",
"o. c #FF959595",
"O. c #FF969696",
"+. c #FF979797",
"@. c #FF989898",
"#. c #FF9A9A9A",
"$. c #FF9B9B9B",
"%. c #FF9C9C9C",
"&. c #FF9E9E9E",
"*. c #FFA1A1A1",
"=. c #FFA2A2A2",
"-. c #FFA3A3A3",
";. c #FFA6A6A6",
":. c #FFA7A7A7",
">. c #FFA9A9A9",
",. c #FFADADAD",
"<. c #FFAEAEAE",
"1. c #FFB0B0B0",
"2. c #FFB1B1B1",
"3. c #FFB2B2B2",
"4. c #FFB4B4B4",
"5. c #FFB6B6B6",
"6. c #FFB8B8B8",
"7. c #FFBABABA",
"8. c #FFBDBDBD",
"9. c #FF808080",
"0. c #FFBFBFBF",
"q. c #FFC0C0C0",
"w. c #FFC1C1C1",
"e. c #FFC2C2C2",
"r. c #FFC3C3C3",
"t. c #FFC4C4C4",
"y. c #FFC5C5C5",
"u. c #FFC7C7C7",
"i. c #FFC8C8C8",
"p. c #FFCACACA",
"a. c #FFCBCBCB",
"s. c #FFCCCCCC",
"d. c #FFCECECE",
"f. c #FFCFCFCF",
"g. c #FFD0D0D0",
"h. c #FFD2D2D2",
"j. c #FFD3D3D3",
"k. c #FFD4D4D4",
"l. c #FFD5D5D5",
"z. c #FFD6D6D6",
"x. c #FFD7D7D7",
"c. c #FFD8D8D8",
"v. c #FFD9D9D9",
"b. c #FFDADADA",
"n. c #FFDBDBDB",
"m. c #FFDCDCDC",
"M. c #FFDDDDDD",
"N. c #FFDEDEDE",
"B. c #FFDFDFDF",
"V. c #FFE0E0E0",
"C. c #FFE1E1E1",
"Z. c #FFE2E2E2",
"A. c #FFE3E3E3",
"S. c #FFE4E4E4",
"D. c #FFE6E6E6",
"F. c #FFE6E6E6",
"G. c #FFE7E7E7",
"H. c #FFE8E8E8",
"J. c #FFEAEAEA",
"K. c #FFEBEBEB",
"L. c #FFECECEC",
"P. c #FFEDEDED",
"I. c #FFEFEFEF",
"U. c #FFF0F0F0",
"Y. c #FFF1F1F1",
"T. c #FFF2F2F2",
"R. c #FFF3F3F3",
"E. c #FFF4F4F4",
"W. c #FFF5F5F5",
"Q. c #FFF6F6F6",
"!. c #FFF7F7F7",
"~. c #FFF8F8F8",
"^. c #FFF9F9F9",
"/. c #FFFAFAFA",
"(. c #FFFBFBFB",
"). c #FFFCFCFC",
"_. c #FFFDFDFD",
"`. c #FFFEFEFE",
"'. c #FFFFFFFF",
/* pixels */
"                                                                                                                                                                                                                                                                ",
"                                                                                                                                                                                                                                                                ",
"                                                                                                                                                                                                                                                                ",
"                                                                                                                                                                                                                                                                ",
"                                                                                                                                                                                                                                                                ",
"                                                                                                                                                                                                                                                                ",
"                                                                                                                                                                                                                                                                ",
"                                                                                                                                                                                                                                                                ",
"                                                                                                                                                                                                                                                                ",
"                                                                                                                                                                                                                                                                ",
"                                                                                                                                                                                                                                                                ",
"                                                                                                                                                                                                                                                                ",
"                                                                            @ = u N     @ u H                                                                                                                                                                   ",
"                                                                    @ @ @ @ @ @ . @ = @ @ @ @ = @ q H                                                                                                                                                           ",
"                                                              !.k.[ u . h <.I q l 5 @ @ @ @ @ @ @ @ q f = u V                                                                                                                                                   ",
"                                                            ^.^.K.!.k.l ~ ^.K.H b.k.l @ 5 @ @ @ @ @ @ @ @ @ @ 5 l                                                                                                                                               ",
"                                                            !.!.k.d.^.r.b.^.!...d.K.E <.k.1.R u @ @ @ @ @ @ @ @ @ f                                                                                                                                             ",
"                                                            K.D.r.b.^.K.k.^.^.!.D.k.@.K.^.^.^.b.E = @ @ @ @ @ @ @ @ ~                                                                                                                                           ",
"                                                            !.^.r.8.^.D.~ !.!.b.!.^.E [ b.d.8.^.!.I @ @ @ @ @ @ @ @ R                                                                                                                                           ",
"                                                              !.^.^.^.D.d.^.K.R D.!.1.D.!.b.8.!.^.1.@ @ @ @ @ @ @ @ H     = V                                                                                                                                   ",
"                                                                  !.^.  K.^.K.I b.^.b.^.^.^.^.^.^.8.@ @ = = @ @ @ @ = @ @ @ = u f H                                                                                                                             ",
"                                                                          ^.K.I K.!.d.^.^.k.r.K.K.~ @ 5 8.r.l q = @ @ @ @ @ @ @ @ = V                                                                                                                           ",
"                                                                                !.!.@.D.^.r.~ k.-.f @ l !.^.b.b.1.f @ = @ @ @ @ @ @ @ @ @ = u E           q H                                                                                                   ",
"                                                                                        ^.^.^.^.^.8.= N !.!.b.^.^.[ -.r.@.l @ @ @ @ @ 5 q @ . = q @ @ @ @ @ = u h I                                                                                             ",
"                                                                                          !.!.^.^.-.@ u k.K...K.!.d.^.^.^.!...= @ = . N b.@.l q @ @ @ @ @ @ @ @ @ = [                                                                                           ",
"                                                                                                              ^.!.b.^.K...b.^.E ~ d.R H ^.!.k.b.~ @ @ @ @ @ @ @ @ @ [                                                                                           ",
"                                                                                                              ^.!.k.^.D.q @.^.k.b.^.!.r.^.K.b.^.r.= @ @ @ @ @ @ @ @ E           @ u H                                                                           ",
"                                                                                                              !.!.@.D.!.[ r.^.K.K.^.K.!.^.K.b.^.r.= @ @ @ @ @ h q @ = @ @ @ @ @ @ @ = q [                                                                       ",
"                                                                                                                      ^.^.^.^.b.D.^...[ ^.K.b.^.r.I 1...N = = r.b.-.f @ @ . @ @ @ @ @ @ u q @ f I                                                               ",
"                                                                                                                        !.!.^.-.D.^.E N ^.K.b.^.k.b.^.^.!.<.q r.^.^.@.@ N H q @ @ @ @ @ @ @ @ @ @ f 1.                                                          ",
"                                                                                                                                !.^.~ V ^.K.b.^.K.K.^.d.d.^.@.d.^.^.d.q r.^.b...= @ @ @ @ @ @ @ @ 5 -.                                                          ",
"                                                                                                                                        ^.K.b.^.D.k.b.k.D.^.D.b.^.^.K.[ K.^.^.b.= @ @ 5 q = @ @ @ @ q @ @ @ @ = u I                                             ",
"                                                                                                                                            D.^.k.k.!.-.1.^.K.D.^.^.^.K.^.^.^.k.= @ V k.D.r.E q @ @ @ @ @ @ @ @ @ @ l                                           ",
"                                                                                                                                                    ^.!.!.^.D.D.^.D.K.^.^.^.^.k.= = d.^.^.^.^.k.l @ @ @ @ @ @ @ @ @ @ H                                         ",
"                                                                                                                                                      !.!.!.1.k.^.r.r.^.K.D.^.k.= q b.^.!.b.!.^.k.u @ @ @ @ @ @ @ @ @ q 1.                                      ",
"                                                                                                                                                              !.^.1.[ ^.r.1.^.k.= q D.^.<.5 I K.^.~ @ @ @ @ @ @ @ @ @ @ ..                                      ",
"                                                                                                                                                                      ^.~ <.^.k.= 5 k.^.-.@ = r.^.1.@ @ @ @ @ @ @ @ @ @ ~                                       ",
"                                                                                                                                                                            ^.k.= @ 1.^.D.V u k.^.d.= @ @ @ @ @ @ @ @ @ [                                       ",
"                                                                                                                                                                                      ^.^.K.D.!.^.r.= @ @ @ @ @ @ @ @ 5 -.                                      ",
"                                                                                                                                                                                        !.^.^.^.^.@.@ @ @ @ @ @ @ @ @ N                                         ",
"                                                                                                                                                                                            !.^.D.h @ @                                                         ",
"                                                                                                                                                                                                                                                                ",
"                                                                                                                                                                                                                                                                ",
"                                                                                                                                                                                                                                                                ",
"                                                                                                                                                                                                                                                                ",
"                                                                                                                                                                                                                                                                ",
"                                                                                                                                                                                                                                                                ",
"                                                                                                                                                                                                                                                                ",
"                                                                                                                                                                                                                                                                ",
"                                                                                                                                                                                                                                                                ",
"                                                                                                                                                                                                                                                                ",
"                                                                                                                                                                                                                                                                ",
"                                                                                                                                                                                                                                                                ",
"                                                                                                                                                                                                                                                                "
};
