/* XPM */
static char *oms_247[] = {
/* columns rows colors chars-per-pixel */
"128 54 175 2 ",
"   c #00000000",
".  c #FF0D0D0D",
"X  c #FF0F0F0F",
"o  c #FF101010",
"O  c #FF111111",
"+  c #FF121212",
"@  c #FF131313",
"#  c #FF141414",
"$  c #FF151515",
"%  c #FF161616",
"&  c #FF171717",
"*  c #FF181818",
"=  c #FF191919",
"-  c #FF1A1A1A",
";  c #FF1B1B1B",
":  c #FF1C1C1C",
">  c #FF1D1D1D",
",  c #FF1E1E1E",
"<  c #FF1F1F1F",
"1  c #FF212121",
"2  c #FF222222",
"3  c #FF242424",
"4  c #FF252525",
"5  c #FF262626",
"6  c #FF272727",
"7  c #FF282828",
"8  c #FF2C2C2C",
"9  c #FF2D2D2D",
"0  c #FF2E2E2E",
"q  c #FF2F2F2F",
"w  c #FF303030",
"e  c #FF323232",
"r  c #FF333333",
"t  c #FF353535",
"y  c #FF383838",
"u  c #FF393939",
"i  c #FF3D3D3D",
"p  c #FF3E3E3E",
"a  c #FF3F3F3F",
"s  c #FF404040",
"d  c #FF424242",
"f  c #FF464646",
"g  c #FF474747",
"h  c #FF484848",
"j  c #FF4C4C4C",
"k  c #FF4F4F4F",
"l  c #FF505050",
"z  c #FF515151",
"x  c #FF525252",
"c  c #FF555555",
"v  c #FF575757",
"b  c #FF585858",
"n  c #FF595959",
"m  c #FF5A5A5A",
"M  c #FF5C5C5C",
"N  c #FF5D5D5D",
"B  c #FF5E5E5E",
"V  c #FF606060",
"C  c #FF616161",
"Z  c #FF626262",
"A  c #FF646464",
"S  c #FF656565",
"D  c #FF666666",
"F  c #FF686868",
"G  c #FF696969",
"H  c #FF6B6B6B",
"J  c #FF6C6C6C",
"K  c #FF6D6D6D",
"L  c #FF6E6E6E",
"P  c #FF6F6F6F",
"I  c #FF717171",
"U  c #FF727272",
"Y  c #FF757575",
"T  c #FF767676",
"R  c #FF797979",
"E  c #FF7C7C7C",
"W  c #FF7E7E7E",
"Q  c #FF808080",
"!  c #FF808080",
"~  c #FF848484",
"^  c #FF858585",
"/  c #FF878787",
"(  c #FF898989",
")  c #FF8B8B8B",
"_  c #FF8C8C8C",
"`  c #FF8D8D8D",
"'  c #FF8F8F8F",
"]  c #FF919191",
"[  c #FF939393",
"{  c #FF949494",
"}  c #FF969696",
"|  c #FF9A9A9A",
" . c #FF9D9D9D",
".. c #FFA0A0A0",
"X. c #FFA2A2A2",
"o. c #FFA3A3A3",
"O. c #FFA4A4A4",
"+. c #FFA5A5A5",
"@. c #FFA8A8A8",
"#. c #FFA9A9A9",
"$. c #FFAAAAAA",
"%. c #FFABABAB",
"&. c #FFACACAC",
"*. c #FFB0B0B0",
"=. c #FFB1B1B1",
"-. c #FFB2B2B2",
";. c #FFB2B2B2",
":. c #FFB4B4B4",
">. c #FFB5B5B5",
",. c #FFB6B6B6",
"<. c #FFB7B7B7",
"1. c #FFB8B8B8",
"2. c #FFBBBBBB",
"3. c #FFBCBCBC",
"4. c #FFBDBDBD",
"5. c #FF808080",
"6. c #FFBFBFBF",
"7. c #FFC1C1C1",
"8. c #FFC3C3C3",
"9. c #FFC4C4C4",
"0. c #FFC5C5C5",
"q. c #FFC6C6C6",
"w. c #FFC7C7C7",
"e. c #FFCACACA",
"r. c #FFCBCBCB",
"t. c #FFCCCCCC",
"y. c #FFCDCDCD",
"u. c #FFCECECE",
"i. c #FFCFCFCF",
"p. c #FFD0D0D0",
"a. c #FFD2D2D2",
"s. c #FFD3D3D3",
"d. c #FFD4D4D4",
"f. c #FFD6D6D6",
"g. c #FFD7D7D7",
"h. c #FFD8D8D8",
"j. c #FFD9D9D9",
"k. c #FFDADADA",
"l. c #FFDBDBDB",
"z. c #FFDCDCDC",
"x. c #FFDDDDDD",
"c. c #FFDEDEDE",
"v. c #FFDFDFDF",
"b. c #FFE0E0E0",
"n. c #FFE1E1E1",
"m. c #FFE2E2E2",
"M. c #FFE3E3E3",
"N. c #FFE4E4E4",
"B. c #FFE6E6E6",
"V. c #FFE6E6E6",
"C. c #FFE7E7E7",
"Z. c #FFE8E8E8",
"A. c #FFE9E9E9",
"S. c #FFEAEAEA",
"D. c #FFEBEBEB",
"F. c #FFECECEC",
"G. c #FFEDEDED",
"H. c #FFEEEEEE",
"J. c #FFEFEFEF",
"K. c #FFF0F0F0",
"L. c #FFF1F1F1",
"P. c #FFF2F2F2",
"I. c #FFF3F3F3",
"U. c #FFF4F4F4",
"Y. c #FFF5F5F5",
"T. c #FFF6F6F6",
"R. c #FFF7F7F7",
"E. c #FFF8F8F8",
"W. c #FFF9F9F9",
"Q. c #FFFAFAFA",
"!. c #FFFBFBFB",
"~. c #FFFCFCFC",
"^. c #FFFDFDFD",
"/. c #FFFEFEFE",
"(. c #FFFFFFF1",
/* pixels */
"                                                                                                                                                                                                                                                                ",
"                                                                                                                                                                                                                                                                ",
"                                                                                                                                                                                                                                                                ",
"                                                                                                                                                                                                                                                                ",
"                                                                                                                                                                                                                                                                ",
"                                                                                                                                                                                                                                                                ",
"                                                                                                                                                                                                                                                                ",
"                                                                                                                                                                                                                                                                ",
"                                                                                                                                                                                                                                                                ",
"                                                                                                                                                                                                                                                                ",
"                                                                                                                                                          a &                                                                                                   ",
"                                                                                                                                                      n : & & & & & & & &                                                                                       ",
"                                                                                                                                                    T : & & & & & & & & : E j.U.U.                                                                              ",
"                                                                                                                                            J t & 0 1 & & & & & & & & & ( /./././.                                                                              ",
"                                                                                                                                          Z & & & & & & & & & & a n & f A.U.t.U./.                                                                              ",
"                                                                                                                                    n 1 : : & & & & & & & & & ^ A.-.& ^ /.} 1 t./.                                                                              ",
"                                                                                                                                  Z & & & & & & & & & : n T 0 j./.-.& +./.k : f./.                                                                              ",
"                                                                                                                                  n & & & & & & & & & } U.j.n A./.-.& #./.E E U.U.                                                                              ",
"                                                                                                                      J 1         v X & & & & & & & & -./.A.-.U./.-.& #./.U.U./.                                                                                ",
"                                                                                                                  Z a : & & & & : : & X & t a & X & : -././.U.U./.-.& ( /././.U.                                                                                ",
"                                                                                                                J & X & & & & & & & & f ^ n.( & Z 3. .3./.U./.f.U.j.: k A.U.                                                                                    ",
"                                                                                                                Z & & & & & & & & & f n.n./.( ^ A.U.A.j.A.j./.#.A./.                                                                                            ",
"                                                                                                                k & & & & & & & & X v /.j.U.-.n.f.j.U.n.A.+.A.( n.                                                                                              ",
"                                                                                                            v & & & & & & & & & & t J /.j.U.j.U.n.A.A.j.A.^ n.                                                                                                  ",
"                                                                                                      f & a : & & & & & & X & & Z n.A./.j.U.n.j.+.f.f.7./.                                                                                                      ",
"                                                                                                  ( 0 & & & & & & & & & : Z +.Z 7./.n./.j.U.j.U.U./.                                                                                                            ",
"                                                                                              v 1 1 & & & & & & & X & 1 +././.j.A.t.T U.j.U.f.A.U.                                                                                                              ",
"                                                                                a & & & & : 0 & & & & 1 0 & & & : n +.} U.7.A.A.U.3.n /.n.U.                                                                                                                    ",
"                                                                            n : & & & & & & & & & 1 ^ f.j.k X Z 7.n.A.j.n.f f.n.A.7.Z U.                                                                                                                        ",
"                                                                      E t 0 & & & & & & & & & 1 t 7./././.J : t././.A.A.n.E A.7.j.U.                                                                                                                            ",
"                                                                      t & & & & & & & & & & E -.+./.3.j./.Z t A.t.t.A.n./.U./.                                                                                                                                  ",
"                                                                  t : & & & & & & & & & a v f.f.7.j.t.U.n.a a n.^ 3.A.7./.U.                                                                                                                                    ",
"                                                                E & & & & & & & & & & f n.#.-.3.^ n./.U.+.a : a : 3./.                                                                                                                                          ",
"                                                                v & & & & & & & & & X Z U.A.U.j.t./.7.7.n.7.                                                                                                                                                    ",
"                                                          Z 1 1 : & & & & & & X : a a #./.U./.n.A.U.+.n./.                                                                                                                                                      ",
"                                                        n & & & & & & & & & X 0 #.U.j.j./.3.j.A.A./././.U.                                                                                                                                                      ",
"                                                      } : & & & & & & & & & : #.A.n.U.-.U.+.f.n.f./.U.                                                                                                                                                          ",
"                                                      J & & & & & & & & & X a A.j.n.U.-./. .t.U.                                                                                                                                                                ",
"                                                      J & & & & & & & & & X n A.7.f.U.A./.#.                                                                                                                                                                    ",
"                                                      J & & & & & & & & & X k j.t.n.j.t.                                                                                                                                                                        ",
"                                                      T & & & & & & & & & & v U././.                                                                                                                                                                            ",
"                                                                                                                                                                                                                                                                ",
"                                                                                                                                                                                                                                                                ",
"                                                                                                                                                                                                                                                                ",
"                                                                                                                                                                                                                                                                ",
"                                                                                                                                                                                                                                                                ",
"                                                                                                                                                                                                                                                                ",
"                                                                                                                                                                                                                                                                ",
"                                                                                                                                                                                                                                                                ",
"                                                                                                                                                                                                                                                                ",
"                                                                                                                                                                                                                                                                ",
"                                                                                                                                                                                                                                                                ",
"                                                                                                                                                                                                                                                                ",
"                                                                                                                                                                                                                                                                "
};
