/* XPM */
static char *oms_249[] = {
/* columns rows colors chars-per-pixel */
"128 54 178 2 ",
"   c #00000000",
".  c #FF0D0D0D",
"X  c #FF0E0E0E",
"o  c #FF0F0F0F",
"O  c #FF101010",
"+  c #FF111111",
"@  c #FF121212",
"#  c #FF131313",
"$  c #FF141414",
"%  c #FF151515",
"&  c #FF161616",
"*  c #FF171717",
"=  c #FF181818",
"-  c #FF191919",
";  c #FF1A1A1A",
":  c #FF1B1B1B",
">  c #FF1C1C1C",
",  c #FF1D1D1D",
"<  c #FF1E1E1E",
"1  c #FF202020",
"2  c #FF212121",
"3  c #FF222222",
"4  c #FF232323",
"5  c #FF242424",
"6  c #FF252525",
"7  c #FF272727",
"8  c #FF282828",
"9  c #FF292929",
"0  c #FF2A2A2A",
"q  c #FF2B2B2B",
"w  c #FF2C2C2C",
"e  c #FF2E2E2E",
"r  c #FF2F2F2F",
"t  c #FF303030",
"y  c #FF313131",
"u  c #FF323232",
"i  c #FF333333",
"p  c #FF343434",
"a  c #FF363636",
"s  c #FF373737",
"d  c #FF393939",
"f  c #FF3A3A3A",
"g  c #FF3B3B3B",
"h  c #FF3C3C3C",
"j  c #FF3D3D3D",
"k  c #FF3F3F3F",
"l  c #FF404040",
"z  c #FF414141",
"x  c #FF444444",
"c  c #FF454545",
"v  c #FF464646",
"b  c #FF474747",
"n  c #FF494949",
"m  c #FF4A4A4A",
"M  c #FF4B4B4B",
"N  c #FF4C4C4C",
"B  c #FF4F4F4F",
"V  c #FF505050",
"C  c #FF515151",
"Z  c #FF535353",
"A  c #FF545454",
"S  c #FF555555",
"D  c #FF565656",
"F  c #FF595959",
"G  c #FF5A5A5A",
"H  c #FF5C5C5C",
"J  c #FF5D5D5D",
"K  c #FF5E5E5E",
"L  c #FF606060",
"P  c #FF626262",
"I  c #FF636363",
"U  c #FF656565",
"Y  c #FF666666",
"T  c #FF676767",
"R  c #FF696969",
"E  c #FF6B6B6B",
"W  c #FF6E6E6E",
"Q  c #FF6F6F6F",
"!  c #FF717171",
"~  c #FF727272",
"^  c #FF747474",
"/  c #FF757575",
"(  c #FF767676",
")  c #FF777777",
"_  c #FF787878",
"`  c #FF797979",
"'  c #FF7D7D7D",
"]  c #FF7E7E7E",
"[  c #FF818181",
"{  c #FF868686",
"}  c #FF888888",
"|  c #FF8B8B8B",
" . c #FF8C8C8C",
".. c #FF8D8D8D",
"X. c #FF8E8E8E",
"o. c #FF8F8F8F",
"O. c #FF919191",
"+. c #FF929292",
"@. c #FF959595",
"#. c #FF999999",
"$. c #FF9A9A9A",
"%. c #FF9B9B9B",
"&. c #FF9C9C9C",
"*. c #FF9D9D9D",
"=. c #FF9E9E9E",
"-. c #FFA0A0A0",
";. c #FFA1A1A1",
":. c #FFA2A2A2",
">. c #FFA4A4A4",
",. c #FFA5A5A5",
"<. c #FFA9A9A9",
"1. c #FFACACAC",
"2. c #FFB0B0B0",
"3. c #FFB1B1B1",
"4. c #FFB2B2B2",
"5. c #FFB4B4B4",
"6. c #FFB5B5B5",
"7. c #FFB6B6B6",
"8. c #FFB8B8B8",
"9. c #FFBCBCBC",
"0. c #FF808080",
"q. c #FFBFBFBF",
"w. c #FFC0C0C0",
"e. c #FFC1C1C1",
"r. c #FFC2C2C2",
"t. c #FFC3C3C3",
"y. c #FFC6C6C6",
"u. c #FFC8C8C8",
"i. c #FFC9C9C9",
"p. c #FFCACACA",
"a. c #FFCBCBCB",
"s. c #FFCECECE",
"d. c #FFCFCFCF",
"f. c #FFD0D0D0",
"g. c #FFD1D1D1",
"h. c #FFD2D2D2",
"j. c #FFD3D3D3",
"k. c #FFD4D4D4",
"l. c #FFD5D5D5",
"z. c #FFD7D7D7",
"x. c #FFD9D9D9",
"c. c #FFDADADA",
"v. c #FFDBDBDB",
"b. c #FFDCDCDC",
"n. c #FFDDDDDD",
"m. c #FFDEDEDE",
"M. c #FFE0E0E0",
"N. c #FFE1E1E1",
"B. c #FFE2E2E2",
"V. c #FFE3E3E3",
"C. c #FFE4E4E4",
"Z. c #FFE6E6E6",
"A. c #FFE6E6E6",
"S. c #FFE7E7E7",
"D. c #FFE8E8E8",
"F. c #FFE9E9E9",
"G. c #FFEAEAEA",
"H. c #FFEBEBEB",
"J. c #FFECECEC",
"K. c #FFEDEDED",
"L. c #FFEEEEEE",
"P. c #FFEFEFEF",
"I. c #FFF0F0F0",
"U. c #FFF1F1F1",
"Y. c #FFF2F2F2",
"T. c #FFF3F3F3",
"R. c #FFF4F4F4",
"E. c #FFF5F5F5",
"W. c #FFF6F6F6",
"Q. c #FFF7F7F7",
"!. c #FFF8F8F8",
"~. c #FFF9F9F9",
"^. c #FFFAFAFA",
"/. c #FFFBFBFB",
"(. c #FFFCFCFC",
"). c #FFFDFDFD",
"_. c #FFFEFEFE",
"`. c #FFFFFFFF",
/* pixels */
"                                                                                                                                                                                                                                                                ",
"                                                                                                                                                                                                                                                                ",
"                                                                                                                                                                                                                                                                ",
"                                                                                                                                                                                                                                                                ",
"                                                                                                                                                                                                                                                                ",
"                                                                                                                                                                                                                                                                ",
"                                                                                                                                                                                                                                                                ",
"                                                                                                                                                                                                                                                                ",
"                                                                                                                                                                                                                                                                ",
"                                                                                                                                                                                                                                                                ",
"                                                                                                                                                                                                                                                                ",
"                                                                                                                                                  Y 4 $ $ $ $ $ $ $ $                                                                                           ",
"                                                                                                                                                ` ; $ $ $ $ $ $ $ $ $ W g.`.                                                                                    ",
"                                                                                                                                          B $ p r $ $ $ $ $ $ $ $ $ Y U.`.`.U.                                                                                  ",
"                                                                                                                                        p $ $ $ $ $ $ $ $ $ ; G r 4 u.U.g.U.`.                                                                                  ",
"                                                                                                                                  V ; p $ $ $ $ $ $ $ $ $ r 5.G.B c U.<.r u.`.                                                                                  ",
"                                                                                                                                B $ $ $ $ $ $ $ $ $ ; Y G V U.U.c Y `.W ; g.`.                                                                                  ",
"                                                                                                                                j $ $ $ $ $ $ $ $ $ O.`.5.{ `.U.c W `.O.! U.U.                                                                                  ",
"                                                                                                                                j $ $ $ $ o $ $ $ $ 5.`.c.e.`.U.c Y `.U.U.`.                                                                                    ",
"                                                                                                                  G r $ $ $ $ ; ; $ $ $ ; c ; o $ ; 5.`.U.U.`.G.c B U.`.`.U.                                                                                    ",
"                                                                                                                c $ $ $ $ $ $ $ $ $ ; V <.u.4 B 5.:.q.`.`.U.Z.U.W 4 g.U.                                                                                        ",
"                                                                                                                r $ $ $ $ $ $ $ $ $ ! Z.c.g.G c.`.G.c.G.Z.G.e.`.                                                                                                ",
"                                                                                                                r $ $ $ $ $ $ $ $ o X.U.c.c.q.Z.g.U.Z.c.5.c.<.`.                                                                                                ",
"                                                                                                            c ; $ $ $ $ $ $ $ $ $ p $.U.c.Z.Z.G.Z.G.c.Z.X.G.                                                                                                    ",
"                                                                                                      V   c $ $ $ $ $ $ $ o $ o W Z.G.G.c.G.c.q.e.c.u.`.                                                                                                        ",
"                                                                                                    c $ $ $ $ $ $ $ $ $ $ V $.Y u.U.G.G.c.G.Z.`.`.                                                                                                              ",
"                                                                                                p p $ $ $ $ $ $ $ $ $ ; ` U.`.c.G.5.$.U.c.G.c.`.                                                                                                                ",
"                                                                                  j $ $ $ ; p 4 $ $ $ $ 4 r $ $ $ r X.O.Z.g.Z.G.U.:.X.U.c.U.                                                                                                                    ",
"                                                                              ! 4 $ $ $ $ $ $ $ $ $ ; ! u.c.j $ X.u.U.Z.U.Y q.Z.G.<.X.U.                                                                                                                        ",
"                                                                          B j 4 $ $ $ $ $ $ $ $ ; 4 $.`.`.`.G j G.`.`.U.U.X.c.u.Z.Z.                                                                                                                            ",
"                                                                        Y $ $ $ $ $ $ $ $ $ o j 5.X.U.u.g.U.V G U.5.G.G.`.U.`.                                                                                                                                  ",
"                                                                    ! 4 ; $ $ $ $ $ $ $ $ ; c { G.5.c.u.G.Z.r Y g.` G.u.G.`.                                                                                                                                    ",
"                                                                    B o $ $ $ $ $ $ $ $ $ ! G.$.g.` u.`.U.:.p r r B G.                                                                                                                                          ",
"                                                                    p $ $ $ $ $ $ $ $ $ $ O.`.G.G.q.`.g.q.Z.                                                                                                                                                    ",
"                                                              Y ; r $ $ $ $ $ $ $ $ ; j c u.`.`.U.c.`.5.g.`.                                                                                                                                                    ",
"                                                            G ; $ $ $ $ $ $ $ $ $ r :.U.u.Z.U.e.U.Z.`.`.`.U.                                                                                                                                                    ",
"                                                          $.4 $ $ $ $ $ $ $ $ $ $ O.G.G.Z.e.G.:.U.e.U.U.                                                                                                                                                        ",
"                                                          ! $ $ $ $ $ $ $ $ $ $ r c.G.G.Z.u.G.$.U.                                                                                                                                                              ",
"                                                          Y $ $ $ $ $ $ $ $ $ o j Z.u.c.G.G.G.                                                                                                                                                                  ",
"                                                          ! $ $ $ $ $ $ $ $ $ $ p g.u.G.g.c.                                                                                                                                                                    ",
"                                                          ! $ $ $ $ $ $ $ $ $ $ p Z.`.U.                                                                                                                                                                        ",
"                                                                                                                                                                                                                                                                ",
"                                                                                                                                                                                                                                                                ",
"                                                                                                                                                                                                                                                                ",
"                                                                                                                                                                                                                                                                ",
"                                                                                                                                                                                                                                                                ",
"                                                                                                                                                                                                                                                                ",
"                                                                                                                                                                                                                                                                ",
"                                                                                                                                                                                                                                                                ",
"                                                                                                                                                                                                                                                                ",
"                                                                                                                                                                                                                                                                ",
"                                                                                                                                                                                                                                                                ",
"                                                                                                                                                                                                                                                                ",
"                                                                                                                                                                                                                                                                "
};
