/* XPM */
static char *oms_229[] = {
/* columns rows colors chars-per-pixel */
"128 54 199 2 ",
"   c #00000000",
".  c #FF0A0A0A",
"X  c #FF0C0C0C",
"o  c #FF0D0D0D",
"O  c #FF0E0E0E",
"+  c #FF0F0F0F",
"@  c #FF101010",
"#  c #FF111111",
"$  c #FF121212",
"%  c #FF131313",
"&  c #FF141414",
"*  c #FF151515",
"=  c #FF161616",
"-  c #FF171717",
";  c #FF181818",
":  c #FF191919",
">  c #FF1A1A1A",
",  c #FF1B1B1B",
"<  c #FF1C1C1C",
"1  c #FF1D1D1D",
"2  c #FF1E1E1E",
"3  c #FF1F1F1F",
"4  c #FF202020",
"5  c #FF212121",
"6  c #FF222222",
"7  c #FF232323",
"8  c #FF252525",
"9  c #FF262626",
"0  c #FF272727",
"q  c #FF282828",
"w  c #FF292929",
"e  c #FF2A2A2A",
"r  c #FF2B2B2B",
"t  c #FF2C2C2C",
"y  c #FF2D2D2D",
"u  c #FF2E2E2E",
"i  c #FF2F2F2F",
"p  c #FF303030",
"a  c #FF313131",
"s  c #FF333333",
"d  c #FF343434",
"f  c #FF353535",
"g  c #FF363636",
"h  c #FF373737",
"j  c #FF383838",
"k  c #FF393939",
"l  c #FF3A3A3A",
"z  c #FF3B3B3B",
"x  c #FF3C3C3C",
"c  c #FF3D3D3D",
"v  c #FF3F3F3F",
"b  c #FF404040",
"n  c #FF424242",
"m  c #FF444444",
"M  c #FF454545",
"N  c #FF464646",
"B  c #FF474747",
"V  c #FF484848",
"C  c #FF4A4A4A",
"Z  c #FF4C4C4C",
"A  c #FF4C4C4C",
"S  c #FF4E4E4E",
"D  c #FF505050",
"F  c #FF525252",
"G  c #FF535353",
"H  c #FF545454",
"J  c #FF555555",
"K  c #FF575757",
"L  c #FF585858",
"P  c #FF5A5A5A",
"I  c #FF5B5B5B",
"U  c #FF5C5C5C",
"Y  c #FF5D5D5D",
"T  c #FF5E5E5E",
"R  c #FF5F5F5F",
"E  c #FF606060",
"W  c #FF616161",
"Q  c #FF626262",
"!  c #FF636363",
"~  c #FF646464",
"^  c #FF656565",
"/  c #FF666666",
"(  c #FF676767",
")  c #FF686868",
"_  c #FF6B6B6B",
"`  c #FF6C6C6C",
"'  c #FF6E6E6E",
"]  c #FF707070",
"[  c #FF717171",
"{  c #FF737373",
"}  c #FF747474",
"|  c #FF767676",
" . c #FF777777",
".. c #FF787878",
"X. c #FF7A7A7A",
"o. c #FF7B7B7B",
"O. c #FF7C7C7C",
"+. c #FF7D7D7D",
"@. c #FF7E7E7E",
"#. c #FF808080",
"$. c #FF808080",
"%. c #FF838383",
"&. c #FF868686",
"*. c #FF878787",
"=. c #FF8A8A8A",
"-. c #FF8B8B8B",
";. c #FF8C8C8C",
":. c #FF8D8D8D",
">. c #FF8F8F8F",
",. c #FF919191",
"<. c #FF929292",
"1. c #FF959595",
"2. c #FF969696",
"3. c #FF979797",
"4. c #FF989898",
"5. c #FF999999",
"6. c #FF9A9A9A",
"7. c #FF9C9C9C",
"8. c #FF9D9D9D",
"9. c #FF9E9E9E",
"0. c #FF9F9F9F",
"q. c #FFA0A0A0",
"w. c #FFA2A2A2",
"e. c #FFA3A3A3",
"r. c #FFA4A4A4",
"t. c #FFA5A5A5",
"y. c #FFA6A6A6",
"u. c #FFA9A9A9",
"i. c #FFAEAEAE",
"p. c #FFAFAFAF",
"a. c #FFB0B0B0",
"s. c #FFB1B1B1",
"d. c #FFB2B2B2",
"f. c #FFB4B4B4",
"g. c #FFB5B5B5",
"h. c #FFB9B9B9",
"j. c #FFBBBBBB",
"k. c #FFBCBCBC",
"l. c #FFBDBDBD",
"z. c #FF808080",
"x. c #FFBFBFBF",
"c. c #FFC0C0C0",
"v. c #FFC1C1C1",
"b. c #FFC2C2C2",
"n. c #FFC3C3C3",
"m. c #FFC4C4C4",
"M. c #FFC5C5C5",
"N. c #FFC7C7C7",
"B. c #FFC8C8C8",
"V. c #FFC9C9C9",
"C. c #FFCACACA",
"Z. c #FFCCCCCC",
"A. c #FFCFCFCF",
"S. c #FFD0D0D0",
"D. c #FFD1D1D1",
"F. c #FFD2D2D2",
"G. c #FFD3D3D3",
"H. c #FFD4D4D4",
"J. c #FFD5D5D5",
"K. c #FFD6D6D6",
"L. c #FFD7D7D7",
"P. c #FFD8D8D8",
"I. c #FFD9D9D9",
"U. c #FFDADADA",
"Y. c #FFDCDCDC",
"T. c #FFDDDDDD",
"R. c #FFDEDEDE",
"E. c #FFDFDFDF",
"W. c #FFE0E0E0",
"Q. c #FFE1E1E1",
"!. c #FFE2E2E2",
"~. c #FFE3E3E3",
"^. c #FFE4E4E4",
"/. c #FFE6E6E6",
"(. c #FFE6E6E6",
"). c #FFE7E7E7",
"_. c #FFE8E8E8",
"`. c #FFE9E9E9",
"'. c #FFEBEBEB",
"]. c #FFECECEC",
"[. c #FFEDEDED",
"{. c #FFEEEEEE",
"}. c #FFEFEFEF",
"|. c #FFF0F0F0",
" X c #FFF1F1F1",
".X c #FFF2F2F2",
"XX c #FFF3F3F3",
"oX c #FFF4F4F4",
"OX c #FFF5F5F5",
"+X c #FFF6F6F6",
"@X c #FFF7F7F7",
"#X c #FFF8F8F8",
"$X c #FFF9F9F9",
"%X c #FFFAFAFA",
"&X c #FFFBFBFB",
"*X c #FFFCFCFC",
"=X c #FFFDFDFD",
"-X c #FFFEFEFE",
";X c #FFFFFFFF",
/* pixels */
"                                                                                                                                                                                                                                                                ",
"                                                                                                                                                                                                                                                                ",
"                                                                                                                                                                                                                                                                ",
"                                                                                                                                                                                                                                                                ",
"                                                                                                                                                                                                                                                                ",
"                                                                                                                                                                                                                                                                ",
"                                                                                                                                                                                                                                                                ",
"                                                                                                                                                                                                                                                                ",
"                                                                                                                                                                                                                                                                ",
"                                                                                                                                                                                                                                                                ",
"                                                                                                                                                                                        F q : :                                                                 ",
"                                                                                                                                                                                    k : $ $ $ $ $ $                                                             ",
"                                                                                                                                                                                 .8 $ $ $ $ $ $ $ $ : n ..                                                      ",
"                                                                                                                                                                  U n q : $ $ A q $ $ $ $ $ $ $ 8 ..m.'.@X@X@X                                                  ",
"                                                                                                                                                                 .: $ $ $ $ $ $ $ o $ : $ $ $ g m.-X-X-X-X-X-X@X                                                ",
"                                                                                                                                                    ' g 8 $ $ : 8 $ $ $ $ $ $ $ q U ,.k.g $ : f.-X-XL.,.V.-X-X@X                                                ",
"                                                                                                                                                    n $ $ $ $ $ $ $ $ $ q g $ q V.-X-X@Xk o A @X-XV.g o U -X-X@X                                                ",
"                                                                                                                                                    n $ $ $ $ $ $ 8  .f.Y.V.8 U @X-X-X'.k o  .-X-Xy.o o *.-X-X@X                                                ",
"                                                                                                                              A g : $ $ $     k 8   g $ $ $ $ $ $ k @X-X-X@X' 6.-X-X-X'.k o ..-X-XY.' ;.'.-X@X                                                  ",
"                                                                                                                        F 8 $ $ $ $ $ $ $ $ $ $ : g q $ $ $ o o o k @X-X-X-XL.~.-X-X-X@Xk o ( -X-X-X-X-X-X-X                                                    ",
"                                                                                                                        k $ $ $ $ $ $ $ $ q A ' k.~.( o $ g ( *.( A @X-X-X-X-X-X'.@X-X@X  o g Y.-X-X-X-X@X                                                      ",
"                                                                                                                        k $ $ $ $ $ $ $ ..Y.'.m.-X-X( q 6.~.-X-X@Xi.'.-X'.'.-X-Xk.Y.-X@X          @X                                                            ",
"                                                                                                                  g $ $ : $ $ $ $ $ $ $ y.-X'.k.-X-X..k.-XL.m.-X-XY.@X-XL.i.-X@X' L.-X@X                                                                        ",
"                                                                                                        k :     g $ $ $ $ $ $ $ $ : g q y.-X'.k.-X@Xk.@X-X~.~.-X-XY.@X-XV.U '.@X  L.                                                                            ",
"                                                                                                  U q : $ $ $ $ $ $ $ $ $ $ $ $ g f.~.Y.~.-X'.k.-X@XL.~.~.y.6.@X@Xy.'.-X'.                                                                                      ",
"                                                                                          A g : 8 : $ $ $ $ $ $ $ $ 8 U ,.f.y.n y.-X-X~.@X-X'.k.-X@XL.~.@X~.'.-X'.                                                                                              ",
"                                                                ( k 8 : $ $ $ $ $ n g $ : $ o $ $ $ $ $ $ $ : g : F V.@X-X-X-XV.Y.-X~.n f.-X'.k.-X@Xm.@X@X-X@X                                                                                                  ",
"                                                            ( g $ $ $ $ $ $ $ $ $ $ 8 n  .*.U $ $ $ $ k k ( k.Y. .Y.-XV.6.@X-X'.'.-XV.8 6.-X'.m.-X@X                                                                                                            ",
"                                                     .8 : $ $ $ $ $ $ $ $ $ $ $ k ,.L.@X-X-X'.n $ $ *.'.'.~.-X@Xm.-X@X( q ~.-XL.~.-XL.q y.-X@X                                                                                                                  ",
"                                              U k 8 q $ $ $ $ $ $ $ $ : n ..( F Y.-X'.Y.@X-X@XU o n '.-X~.'.-X@XY.-X-X,.;.@X-X6.L.-X'.                                                                                                                          ",
"                                            ..$ $ $ $ $ $ $ $ $ $ : q F '.-Xi.V.@X'.y.6.@X-X~.k o ( -X-X;.i.-X@Xm.@X-X@X-X-X@X                                                                                                                                  ",
"                                            F $ $ $ $ $ $ $ $ : ;.L.f.U Y.Y.,.;.m.~.'.-X-X@X6.: o U m.;.g 6.-X@X6.'.-X@X@X                                                                                                                                      ",
"                                    n $   F : $ $ $ $ $ $ $ $ q ~.-X~.f.~.@Xy.6.@X-X@X~.Y.k.m.        o $ y.-X-X                                                                                                                                                ",
"                              ;.k : $ $ $ $ $ $ $ $ $ $ q q : *.@X-X-X@X-X-XV.'.-X-X6. .~.@X-X                                                                                                                                                                  ",
"                            6.q $ $ $ $ $ $ $ $ $ 8  .k.Y.~.6.m.-X-X~.i.@X-XY.@X-X-XY.~.-X@X@X                                                                                                                                                                  ",
"                            ( $ $ $ $ $ $ $ $ $ g m.-X~.@X-X'.y.'.-Xm.( @X-Xm.~.-X-X-X-X@X                                                                                                                                                                      ",
"                            A $ $ $ $ $ $ $ $ $ y.-X'.k.'.-X'.*.~.-Xk.( @X-XL.  @X@X                                                                                                                                                                            ",
"                            F $ $ $ $ $ $ $ $ 8 L.@X~.f.Y.-X~.L.-X-Xm.( @X@X                                                                                                                                                                                    ",
"                            U $ $ $ $ $ $ $ $ q m.~.L.y.~.-Xf.m.-X@X                                                                                                                                                                                            ",
"                                    $ $ $ $ $ 8 V.-X-X-X-X@X                                                                                                                                                                                                    ",
"                                                  @X@X                                                                                                                                                                                                          ",
"                                                                                                                                                                                                                                                                ",
"                                                                                                                                                                                                                                                                ",
"                                                                                                                                                                                                                                                                ",
"                                                                                                                                                                                                                                                                ",
"                                                                                                                                                                                                                                                                ",
"                                                                                                                                                                                                                                                                ",
"                                                                                                                                                                                                                                                                ",
"                                                                                                                                                                                                                                                                ",
"                                                                                                                                                                                                                                                                ",
"                                                                                                                                                                                                                                                                ",
"                                                                                                                                                                                                                                                                ",
"                                                                                                                                                                                                                                                                ",
"                                                                                                                                                                                                                                                                "
};
