/* XPM */
static char *oms_220[] = {
/* columns rows colors chars-per-pixel */
"128 54 199 2 ",
"   c #00000000",
".  c #FF090909",
"X  c #FF0C0C0C",
"o  c #FF0E0E0E",
"O  c #FF0F0F0F",
"+  c #FF101010",
"@  c #FF111111",
"#  c #FF121212",
"$  c #FF131313",
"%  c #FF141414",
"&  c #FF151515",
"*  c #FF161616",
"=  c #FF171717",
"-  c #FF181818",
";  c #FF191919",
":  c #FF1A1A1A",
">  c #FF1B1B1B",
",  c #FF1C1C1C",
"<  c #FF1D1D1D",
"1  c #FF1E1E1E",
"2  c #FF1F1F1F",
"3  c #FF202020",
"4  c #FF212121",
"5  c #FF222222",
"6  c #FF232323",
"7  c #FF242424",
"8  c #FF252525",
"9  c #FF262626",
"0  c #FF272727",
"q  c #FF282828",
"w  c #FF292929",
"e  c #FF2A2A2A",
"r  c #FF2B2B2B",
"t  c #FF2C2C2C",
"y  c #FF2D2D2D",
"u  c #FF2E2E2E",
"i  c #FF2F2F2F",
"p  c #FF303030",
"a  c #FF313131",
"s  c #FF323232",
"d  c #FF333333",
"f  c #FF343434",
"g  c #FF353535",
"h  c #FF373737",
"j  c #FF393939",
"k  c #FF3A3A3A",
"l  c #FF3B3B3B",
"z  c #FF3E3E3E",
"x  c #FF414141",
"c  c #FF424242",
"v  c #FF434343",
"b  c #FF444444",
"n  c #FF464646",
"m  c #FF474747",
"M  c #FF494949",
"N  c #FF4B4B4B",
"B  c #FF4C4C4C",
"V  c #FF4C4C4C",
"C  c #FF4E4E4E",
"Z  c #FF4F4F4F",
"A  c #FF505050",
"S  c #FF515151",
"D  c #FF525252",
"F  c #FF535353",
"G  c #FF545454",
"H  c #FF565656",
"J  c #FF5A5A5A",
"K  c #FF5B5B5B",
"L  c #FF5C5C5C",
"P  c #FF5D5D5D",
"I  c #FF5E5E5E",
"U  c #FF606060",
"Y  c #FF616161",
"T  c #FF626262",
"R  c #FF646464",
"E  c #FF656565",
"W  c #FF666666",
"Q  c #FF676767",
"!  c #FF686868",
"~  c #FF6A6A6A",
"^  c #FF6B6B6B",
"/  c #FF6D6D6D",
"(  c #FF6F6F6F",
")  c #FF707070",
"_  c #FF717171",
"`  c #FF757575",
"'  c #FF767676",
"]  c #FF777777",
"[  c #FF787878",
"{  c #FF7D7D7D",
"}  c #FF7E7E7E",
"|  c #FF808080",
" . c #FF808080",
".. c #FF818181",
"X. c #FF828282",
"o. c #FF848484",
"O. c #FF858585",
"+. c #FF868686",
"@. c #FF878787",
"#. c #FF898989",
"$. c #FF8B8B8B",
"%. c #FF8C8C8C",
"&. c #FF8F8F8F",
"*. c #FF919191",
"=. c #FF929292",
"-. c #FF949494",
";. c #FF969696",
":. c #FF999999",
">. c #FF9A9A9A",
",. c #FF9B9B9B",
"<. c #FF9C9C9C",
"1. c #FF9D9D9D",
"2. c #FF9F9F9F",
"3. c #FFA1A1A1",
"4. c #FFA2A2A2",
"5. c #FFA3A3A3",
"6. c #FFA5A5A5",
"7. c #FFA7A7A7",
"8. c #FFA8A8A8",
"9. c #FFA9A9A9",
"0. c #FFABABAB",
"q. c #FFACACAC",
"w. c #FFADADAD",
"e. c #FFAEAEAE",
"r. c #FFAFAFAF",
"t. c #FFB2B2B2",
"y. c #FFB2B2B2",
"u. c #FFB5B5B5",
"i. c #FFB6B6B6",
"p. c #FFB7B7B7",
"a. c #FFB8B8B8",
"s. c #FFB9B9B9",
"d. c #FFBBBBBB",
"f. c #FFBCBCBC",
"g. c #FFBDBDBD",
"h. c #FF808080",
"j. c #FFBFBFBF",
"k. c #FFC0C0C0",
"l. c #FFC1C1C1",
"z. c #FFC2C2C2",
"x. c #FFC3C3C3",
"c. c #FFC4C4C4",
"v. c #FFC5C5C5",
"b. c #FFC6C6C6",
"n. c #FFC7C7C7",
"m. c #FFC8C8C8",
"M. c #FFC9C9C9",
"N. c #FFCACACA",
"B. c #FFCBCBCB",
"V. c #FFCDCDCD",
"C. c #FFCECECE",
"Z. c #FFCFCFCF",
"A. c #FFD0D0D0",
"S. c #FFD1D1D1",
"D. c #FFD2D2D2",
"F. c #FFD3D3D3",
"G. c #FFD4D4D4",
"H. c #FFD5D5D5",
"J. c #FFD6D6D6",
"K. c #FFD7D7D7",
"L. c #FFD8D8D8",
"P. c #FFD9D9D9",
"I. c #FFDADADA",
"U. c #FFDBDBDB",
"Y. c #FFDCDCDC",
"T. c #FFDDDDDD",
"R. c #FFDEDEDE",
"E. c #FFDFDFDF",
"W. c #FFE0E0E0",
"Q. c #FFE1E1E1",
"!. c #FFE2E2E2",
"~. c #FFE4E4E4",
"^. c #FFE6E6E6",
"/. c #FFE6E6E6",
"(. c #FFE7E7E7",
"). c #FFE8E8E8",
"_. c #FFE9E9E9",
"`. c #FFEAEAEA",
"'. c #FFEBEBEB",
"]. c #FFECECEC",
"[. c #FFEDEDED",
"{. c #FFEEEEEE",
"}. c #FFEFEFEF",
"|. c #FFF0F0F0",
" X c #FFF1F1F1",
".X c #FFF2F2F2",
"XX c #FFF3F3F3",
"oX c #FFF4F4F4",
"OX c #FFF5F5F5",
"+X c #FFF6F6F6",
"@X c #FFF7F7F7",
"#X c #FFF8F8F8",
"$X c #FFF9F9F9",
"%X c #FFFAFAFA",
"&X c #FFFBFBFB",
"*X c #FFFCFCFC",
"=X c #FFFDFDFD",
"-X c #FFFEFEFE",
";X c #FFFFFFF1",
/* pixels */
"                                                                                                                                                                                                                                                                ",
"                                                                                                                                                                                                                                                                ",
"                                                                                                                                                                                                                                                                ",
"                                                                                                                                                                                                                                                                ",
"                                                                                                                                                                                                                                                                ",
"                                                                                                                                                                                                                                                                ",
"                                                                                                                                                                                                                                                                ",
"                                                                                                                                                                                                                                                                ",
"                                                                                                                                                                                                                                                                ",
"                                                                                                                                                                                                                                                                ",
"                                                                                                                                                                                                                                                                ",
"                                                                                                                                                                                                  P j t 3 - - #                                                 ",
"                                                                                                                                                                                              Y t # # # # # # # #                                               ",
"                                                                                                                                                                                V j -       P - # # # # # # # - s V ~                                           ",
"                                                                                                                                                                            t - # # # # # b 3 # # # # # # s +.d.P. X X X X                                      ",
"                                                                                                                                                              b s 3 - #   j # # # # # # O # - t - # # # P P.;X;X;X;X;X;X;X X                                    ",
"                                                                                                                                                            D # # # # # # # O O # # # 3 ~ :.x.!.P # # V !.;X;XP.7.8. X;X;X X                                    ",
"                                                                                                                                                            D # # # # # # 3 b ~ +.3 O [ ;X;X;X;XY O # 7.;X;XA.j O - x.;X;X X                                    ",
"                                                                                                                                V s t - # # #       V s 3   V # # # # # Y P.[.;X;X~ - V.;X X;X;XY O - x.;X;X8.O O s P.;X;X X                                    ",
"                                                                                                                            D # # # # # # # # # # # # - # # - # # # # O +.;X;X;X;XV.~  X;X X;X;XY O 3 V.;X;X!.[ ] V.;X;X X                                      ",
"                                                                                                                            V # # # # # # # - s b [ 8.8.3 # # # 3 s t # [ ;X;X;X;X X!.;X;X;X;X;X:.O # u.;X;X;X;X;X;X;X X                                        ",
"                                                                                                                            j # # # # # - -.V.P.u. X;XA.3 3 Y 8.A.!.!.:.-.;X;X;X;X;X;X;XA. X;X;X      &. X;X;X;X;X X X                                          ",
"                                                                                                                    s # # # # # # # # # 3 !.;X Xu. X;XA.b d.;X[.A. X;X XV. X;X[.A.;X;X[.[ [.;X;X                                                                ",
"                                                                                                    Y j t - - # - s # # # # # # # # t t t !.;X Xu. X;XA.8.;X;XP.V. X;X XA. X;XP.~ [.;XV.V [.;X X                                                                ",
"                                                                                            b 3 s j # # # # # # # # O # # - # # t :.P.P.x.[.;X Xu. X;X!.P. X[.x.8.[.;X[.d.;X;X[.V V.;X                                                                          ",
"                                                            V s 3 - # # # #       D 3 3 s # # # # # # # # O O # # t Y -.d.x.7.j :.;X;X X[. X;X Xu. X;X!.A.!.!.d.d. X;Xx.:.;X X X                                                                                ",
"                                                  V 3   V - # # # # # # # # O # 3 t t 3 # # # # # O # # 3 b P 3 ~ A.;X;X;X;X;Xx.P.;X;X-.V !.;X Xu. X;X!.A.;X;X;X;X X                                                                                            ",
"                                              P - # # # # # # # # # # # # t Y -.d.P.!.P.~ # # # t ] +.~ V.[.[.+.[.;X!.] d.;X;X X X;X;XP 3 !.;X Xu. X;X X                                                                                                        ",
"                                      b t - - - # # # # # # # - t V D - [ P.;X;X;X;X;X;Xx.- # t x.;X;X X;X;X[.P.;X;X7.O +.;X;XA.!.;X;X] 3 !.;X Xx.                                                                                                              ",
"                                      3 # # # # # # # # # - - Y !. Xd.[ ;X;X X7.-. X;X;Xu.# O ~ ;X;X!.u. X;X X X;X;XA.[ P.;X X&.P.;X X                                                                                                                          ",
"                                    V # # # # # # # # Y 8.A.] [ [.!.8.:.x.A.!.V.!.;X;X;X+.O O +.;X X7.D  X;X[.x.;X;X;X;X;X X                                                                                                                                    ",
"                        b t 3 - # 3 - # # # # # # # - d.;X;Xx.7.!.[.u.D x. X;X;X;X[.A.8.        -.V 3 D  X;X X  [. X X X                                                                                                                                        ",
"                    Y - # # # # # # # # # # 3 s t # Y !.;X;X;X;X;X;XV.x.;X;X X8.+.P.P.[. X            P  X X                                                                                                                                                    ",
"                  &.- # # # # # # # # 3 ~ 8.A.!.!.:.8.;X;X;XP.V.;X;XP.[.;X;X X:.d.;X;X;X                                                                                                                                                                        ",
"                  Y # # # # # # # # s d.;X[.A. X;X X7.P.;X;X&.[ ;X;XA.P.;X;X;X;X;X;X X                                                                                                                                                                          ",
"                  ] # # # # # # # # 7.;X;XP.V. X;X;X[ V.;X;X+.[ ;X;XP.8. X X X X                                                                                                                                                                                ",
"                  Y # # # # # # # 3 V. X[.x.8.[.;X[.V.;X;X;X[ +.;X X                                                                                                                                                                                            ",
"                      # # # # # # 3 d.!.[.d.d. X;Xd.8.;X X                                                                                                                                                                                                      ",
"                              # # - d.;X;X;X;X X                                                                                                                                                                                                                ",
"                                                                                                                                                                                                                                                                ",
"                                                                                                                                                                                                                                                                ",
"                                                                                                                                                                                                                                                                ",
"                                                                                                                                                                                                                                                                ",
"                                                                                                                                                                                                                                                                ",
"                                                                                                                                                                                                                                                                ",
"                                                                                                                                                                                                                                                                ",
"                                                                                                                                                                                                                                                                ",
"                                                                                                                                                                                                                                                                ",
"                                                                                                                                                                                                                                                                ",
"                                                                                                                                                                                                                                                                ",
"                                                                                                                                                                                                                                                                ",
"                                                                                                                                                                                                                                                                ",
"                                                                                                                                                                                                                                                                ",
"                                                                                                                                                                                                                                                                "
};
