/* XPM */
static char *oms_025[] = {
/* columns rows colors chars-per-pixel */
"128 54 185 2 ",
"   c #00000000",
".  c #FF030303",
"X  c #FF0C0C0C",
"o  c #FF0D0D0D",
"O  c #FF0E0E0E",
"+  c #FF0F0F0F",
"@  c #FF101010",
"#  c #FF111111",
"$  c #FF121212",
"%  c #FF131313",
"&  c #FF141414",
"*  c #FF151515",
"=  c #FF161616",
"-  c #FF191919",
";  c #FF1B1B1B",
":  c #FF1E1E1E",
">  c #FF222222",
",  c #FF232323",
"<  c #FF242424",
"1  c #FF252525",
"2  c #FF262626",
"3  c #FF292929",
"4  c #FF2A2A2A",
"5  c #FF2C2C2C",
"6  c #FF2D2D2D",
"7  c #FF2F2F2F",
"8  c #FF303030",
"9  c #FF313131",
"0  c #FF323232",
"q  c #FF333333",
"w  c #FF343434",
"e  c #FF353535",
"r  c #FF363636",
"t  c #FF373737",
"y  c #FF383838",
"u  c #FF393939",
"i  c #FF3A3A3A",
"p  c #FF3B3B3B",
"a  c #FF3C3C3C",
"s  c #FF3D3D3D",
"d  c #FF3E3E3E",
"f  c #FF434343",
"g  c #FF444444",
"h  c #FF454545",
"j  c #FF474747",
"k  c #FF484848",
"l  c #FF4B4B4B",
"z  c #FF505050",
"x  c #FF515151",
"c  c #FF535353",
"v  c #FF555555",
"b  c #FF565656",
"n  c #FF585858",
"m  c #FF595959",
"M  c #FF5C5C5C",
"N  c #FF5D5D5D",
"B  c #FF5E5E5E",
"V  c #FF636363",
"C  c #FF646464",
"Z  c #FF656565",
"A  c #FF686868",
"S  c #FF696969",
"D  c #FF6C6C6C",
"F  c #FF6D6D6D",
"G  c #FF707070",
"H  c #FF737373",
"J  c #FF757575",
"K  c #FF767676",
"L  c #FF777777",
"P  c #FF787878",
"I  c #FF797979",
"U  c #FF7A7A7A",
"Y  c #FF7B7B7B",
"T  c #FF7C7C7C",
"R  c #FF808080",
"E  c #FF808080",
"W  c #FF818181",
"Q  c #FF848484",
"!  c #FF858585",
"~  c #FF878787",
"^  c #FF888888",
"/  c #FF898989",
"(  c #FF8C8C8C",
")  c #FF8D8D8D",
"_  c #FF8E8E8E",
"`  c #FF8F8F8F",
"'  c #FF939393",
"]  c #FF949494",
"[  c #FF969696",
"{  c #FF979797",
"}  c #FF999999",
"|  c #FF9A9A9A",
" . c #FF9B9B9B",
".. c #FF9C9C9C",
"X. c #FF9D9D9D",
"o. c #FF9E9E9E",
"O. c #FF9F9F9F",
"+. c #FFA0A0A0",
"@. c #FFA2A2A2",
"#. c #FFA3A3A3",
"$. c #FFA4A4A4",
"%. c #FFA5A5A5",
"&. c #FFA8A8A8",
"*. c #FFA9A9A9",
"=. c #FFAAAAAA",
"-. c #FFABABAB",
";. c #FFACACAC",
":. c #FFADADAD",
">. c #FFAFAFAF",
",. c #FFB0B0B0",
"<. c #FFB1B1B1",
"1. c #FFB2B2B2",
"2. c #FFB4B4B4",
"3. c #FFB5B5B5",
"4. c #FFB6B6B6",
"5. c #FFB7B7B7",
"6. c #FFB8B8B8",
"7. c #FFB9B9B9",
"8. c #FFBABABA",
"9. c #FFBBBBBB",
"0. c #FFBCBCBC",
"q. c #FFBDBDBD",
"w. c #FF808080",
"e. c #FFBFBFBF",
"r. c #FFC0C0C0",
"t. c #FFC2C2C2",
"y. c #FFC3C3C3",
"u. c #FFC5C5C5",
"i. c #FFC6C6C6",
"p. c #FFC7C7C7",
"a. c #FFC8C8C8",
"s. c #FFC9C9C9",
"d. c #FFCACACA",
"f. c #FFCBCBCB",
"g. c #FFCCCCCC",
"h. c #FFCDCDCD",
"j. c #FFCECECE",
"k. c #FFCFCFCF",
"l. c #FFD0D0D0",
"z. c #FFD1D1D1",
"x. c #FFD2D2D2",
"c. c #FFD3D3D3",
"v. c #FFD4D4D4",
"b. c #FFD5D5D5",
"n. c #FFD6D6D6",
"m. c #FFD7D7D7",
"M. c #FFD8D8D8",
"N. c #FFD9D9D9",
"B. c #FFDADADA",
"V. c #FFDBDBDB",
"C. c #FFDCDCDC",
"Z. c #FFDDDDDD",
"A. c #FFDEDEDE",
"S. c #FFDFDFDF",
"D. c #FFE0E0E0",
"F. c #FFE1E1E1",
"G. c #FFE2E2E2",
"H. c #FFE3E3E3",
"J. c #FFE4E4E4",
"K. c #FFE6E6E6",
"L. c #FFE6E6E6",
"P. c #FFE7E7E7",
"I. c #FFE8E8E8",
"U. c #FFE9E9E9",
"Y. c #FFEAEAEA",
"T. c #FFEBEBEB",
"R. c #FFECECEC",
"E. c #FFEDEDED",
"W. c #FFEEEEEE",
"Q. c #FFEFEFEF",
"!. c #FFF0F0F0",
"~. c #FFF1F1F1",
"^. c #FFF2F2F2",
"/. c #FFF3F3F3",
"(. c #FFF4F4F4",
"). c #FFF5F5F5",
"_. c #FFF6F6F6",
"`. c #FFF7F7F7",
"'. c #FFF8F8F8",
"]. c #FFF9F9F9",
"[. c #FFFAFAFA",
"{. c #FFFBFBFB",
"}. c #FFFCFCFC",
"|. c #FFFDFDFD",
" X c #FFFEFEFE",
/* pixels */
"                                                                                                                                                                                                                                                                ",
"                                                                                                                                                                                                                                                                ",
"                                                                                                                                                                                                                                                                ",
"                                                                                                                                                                                                                                                                ",
"                                                                                                                                                                                                                                                                ",
"                                                                                                                                                                                                                                                                ",
"                                                                                                                                                                                                                                                                ",
"                                                                                                                                                                                                                                                                ",
"                                                                                                                                                                                                                                                                ",
"                                                                                                                                                                                                                                                                ",
"                                                                                                                                                                                                                                                                ",
"                                                                                                                                                                                                                                                                ",
"                                                                                                                                                                                                                                                                ",
"                                                                                                                                                                                                                                                                ",
"                                                                                                                                                                                                                                                                ",
"                                                                                                                                                                                                                                                                ",
"                                                                                                                                                                                                                                                                ",
"                                                                                                                                                                                                                                                                ",
"                                                                                                                                                                                                                                                                ",
"                                                                                                                                                                                                                                                                ",
"                                                                                                                                                                                                                                                                ",
"                                                                                                                                                                                                                                                                ",
"                                                                                                                                                                                ; % % % > M ' >.r.Q.j.>.W j % x x.(.Q.X.                                        ",
"                            % w M T X.r.            % % w ) ' X.7.    % + i @.>.7.x.Q.              3 % % M j.j.j.) 7.H.Q.(.                                                  ; % % % w 7.(.|.|.|.|.|.|.|.H.G T |.|.|.W i M.(.(.Q.                              ",
"                        % 3 ' M.Q.(.|.|.(.(.(.(.    % + l (.|.|.|.|.>.% % @.|.|.|.|.(.              > + + T |.|.|.5.H.|.|.Q.                                                x % % % % ) |.|.|.(.7.@.H.(.(.(.x.T j.x.x.W G (.|.|.M.M % w T 5.Q.(.(.              ",
"                      % > 7.|.|.|.|.|.|.|.|.|.|.(.  % + x (.|.|.|.|.Q.l j Q.|.|.|.|.H.w % l T @.j.M.T i % T |.|.|.>.M.|.|.x.j ) x.Q.' 3 % i ) 7.x.Q.H.j.@.j 3 5.r.j.5.T M.(.M.M % % % X.|.|.|.(.7.>.x.M.j.X.x T Q.(.(.x.(.|.|.|.|.j.V M.(.(.(.(.|.(.(.          ",
"                      + V (.|.|.|.(.5.W r.|.|.|.(.  + + x (.|.|.|.|.|.5.>.|.|.|.|.|.M.j @.Q.(.|.(.(.|.Q.W W |.|.|.>.M.|.|.Q.H.|.|.|.|.@.x H.|.|.|.(.|.|.|.H.T H.|.|.(.|.|.|.|.x.3 % % M Q.|.|.|.|.|.|.|.|.(.5.) |.|.|.x.Q.|.|.|.(.x.M.|.|.(.>.7.(.|.|.(.        ",
"                      + ) |.|.|.(.    + w H.|.|.|.  + + x (.|.|.|.|.|.(.(.|.|.|.|.|.M.X.|.|.|.j.X.H.|.|.Q.5.|.|.|.>.M.|.|.|.M.M.|.|.|.M.7.|.|.|.X.j >.|.|.|.j.H.|.|.Q.X.H.|.|.(.x + % ; G j.H.H.x.M.(.|.|.|.(.j.(.|.|.' V (.|.|.j.x Q.|.|.(.H.H.H.Q.(.(.        ",
"                      % ' |.|.|.(.  + + i H.|.|.|.  + + x (.|.|.Q.H.|.|.|.|.M.(.|.|.H.r.|.|.|.Q.H.Q.Q.Q.Q.x.(.|.|.>.M.|.|.H.i j Q.|.|.M.M.|.|.(.x . G |.|.|.M.Q.|.|.H.w r.(.Q.7.w % % ) j.x.H.M.F l r.|.|.|.(.x.(.|.|.W j Q.|.|.H.X.Q.|.|.Q.T T j.M.Q.(.        ",
"                      % G |.|.|.|.5.F G r.|.|.|.(.  + + x (.|.|.x.) (.|.|.Q.G Q.|.|.H.7.|.|.|.>.V >.M.x.x.j.|.|.|.>.M.|.|.x.> 3 Q.|.|.x.5.|.|.|.7.G j.|.|.|.>.H.|.|.(.        3 % % % W |.|.|.|.Q.H.(.|.|.|.x.X.|.|.|.W i Q.|.|.|.x.>.(.|.|.Q.Q.|.|.|.(.        ",
"                        w x.|.|.|.|.|.|.|.|.|.|.(.  % + x (.|.|.x.w j.|.|.@.i Q.|.|.M.T Q.|.|.Q.M.(.|.|.M.>.|.|.|.>.H.|.|.x.> 3 H.|.|.M.M x.|.|.|.|.|.|.|.r.x H.|.|.(.              % 3 5.(.|.|.|.|.(.|.(.Q.M T |.|.|.X.; x.|.|.|.M.i 7.(.(.|.|.(.(.            ",
"                            (.|.(.|.|.|.|.(.(.(.      + M (.|.|.H.> W (.(.F i Q.|.|.(.    (.(.(.(.(.(.(.  W (.(.|.5.H.|.|.Q.    Q.(.Q.Q.      (.|.(.(.Q.                                                                                                        ",
"                                    Q.                                                                                                                                                                                                                          ",
"                                                                                                                                                                                                                                                                ",
"                                                                                                                                                                                                                                                                ",
"                                                                                                                                                                                                                                                                ",
"                                                                                                                                                                                                                                                                ",
"                                                                                                                                                                                                                                                                ",
"                                                                                                                                                                                                                                                                ",
"                                                                                                                                                                                                                                                                ",
"                                                                                                                                                                                                                                                                ",
"                                                                                                                                                                                                                                                                ",
"                                                                                                                                                                                                                                                                ",
"                                                                                                                                                                                                                                                                ",
"                                                                                                                                                                                                                                                                ",
"                                                                                                                                                                                                                                                                ",
"                                                                                                                                                                                                                                                                ",
"                                                                                                                                                                                                                                                                ",
"                                                                                                                                                                                                                                                                ",
"                                                                                                                                                                                                                                                                ",
"                                                                                                                                                                                                                                                                ",
"                                                                                                                                                                                                                                                                ",
"                                                                                                                                                                                                                                                                ",
"                                                                                                                                                                                                                                                                "
};
