/* XPM */
static char *oms_261[] = {
/* columns rows colors chars-per-pixel */
"128 54 146 2 ",
"   c #00000000",
".  c #FF0D0D0D",
"X  c #FF0F0F0F",
"o  c #FF101010",
"O  c #FF111111",
"+  c #FF121212",
"@  c #FF131313",
"#  c #FF141414",
"$  c #FF151515",
"%  c #FF161616",
"&  c #FF171717",
"*  c #FF181818",
"=  c #FF191919",
"-  c #FF1A1A1A",
";  c #FF1B1B1B",
":  c #FF1C1C1C",
">  c #FF1D1D1D",
",  c #FF1F1F1F",
"<  c #FF202020",
"1  c #FF212121",
"2  c #FF222222",
"3  c #FF242424",
"4  c #FF252525",
"5  c #FF262626",
"6  c #FF292929",
"7  c #FF2A2A2A",
"8  c #FF2C2C2C",
"9  c #FF2D2D2D",
"0  c #FF363636",
"q  c #FF373737",
"w  c #FF393939",
"e  c #FF3A3A3A",
"r  c #FF3B3B3B",
"t  c #FF3E3E3E",
"y  c #FF3F3F3F",
"u  c #FF404040",
"i  c #FF444444",
"p  c #FF4A4A4A",
"a  c #FF4C4C4C",
"s  c #FF4C4C4C",
"d  c #FF505050",
"f  c #FF515151",
"g  c #FF545454",
"h  c #FF555555",
"j  c #FF565656",
"k  c #FF585858",
"l  c #FF5A5A5A",
"z  c #FF5C5C5C",
"x  c #FF646464",
"c  c #FF696969",
"v  c #FF6A6A6A",
"b  c #FF6C6C6C",
"n  c #FF6E6E6E",
"m  c #FF6F6F6F",
"M  c #FF737373",
"N  c #FF747474",
"B  c #FF757575",
"V  c #FF767676",
"C  c #FF777777",
"Z  c #FF787878",
"A  c #FF797979",
"S  c #FF7B7B7B",
"D  c #FF7D7D7D",
"F  c #FF7E7E7E",
"G  c #FF808080",
"H  c #FF818181",
"J  c #FF848484",
"K  c #FF878787",
"L  c #FF8A8A8A",
"P  c #FF8B8B8B",
"I  c #FF8E8E8E",
"U  c #FF939393",
"Y  c #FF959595",
"T  c #FF979797",
"R  c #FF989898",
"E  c #FF9B9B9B",
"W  c #FF9C9C9C",
"Q  c #FF9E9E9E",
"!  c #FF9F9F9F",
"~  c #FFA0A0A0",
"^  c #FFA1A1A1",
"/  c #FFA5A5A5",
"(  c #FFA7A7A7",
")  c #FFA9A9A9",
"_  c #FFAAAAAA",
"`  c #FFABABAB",
"'  c #FFADADAD",
"]  c #FFAEAEAE",
"[  c #FFAFAFAF",
"{  c #FFBBBBBB",
"}  c #FFBCBCBC",
"|  c #FFBDBDBD",
" . c #FF808080",
".. c #FFC1C1C1",
"X. c #FFC2C2C2",
"o. c #FFC3C3C3",
"O. c #FFC4C4C4",
"+. c #FFC6C6C6",
"@. c #FFC7C7C7",
"#. c #FFC8C8C8",
"$. c #FFC9C9C9",
"%. c #FFCACACA",
"&. c #FFCBCBCB",
"*. c #FFCCCCCC",
"=. c #FFCDCDCD",
"-. c #FFCECECE",
";. c #FFCFCFCF",
":. c #FFD0D0D0",
">. c #FFD1D1D1",
",. c #FFD2D2D2",
"<. c #FFD3D3D3",
"1. c #FFD4D4D4",
"2. c #FFD5D5D5",
"3. c #FFD6D6D6",
"4. c #FFD7D7D7",
"5. c #FFD8D8D8",
"6. c #FFD9D9D9",
"7. c #FFDBDBDB",
"8. c #FFDCDCDC",
"9. c #FFDDDDDD",
"0. c #FFDEDEDE",
"q. c #FFDFDFDF",
"w. c #FFE0E0E0",
"e. c #FFE3E3E3",
"r. c #FFE6E6E6",
"t. c #FFE6E6E6",
"y. c #FFE7E7E7",
"u. c #FFE8E8E8",
"i. c #FFE9E9E9",
"p. c #FFEAEAEA",
"a. c #FFEBEBEB",
"s. c #FFEDEDED",
"d. c #FFEEEEEE",
"f. c #FFEFEFEF",
"g. c #FFF0F0F0",
"h. c #FFF1F1F1",
"j. c #FFF2F2F2",
"k. c #FFF3F3F3",
"l. c #FFF4F4F4",
"z. c #FFF5F5F5",
"x. c #FFF6F6F6",
"c. c #FFF7F7F7",
"v. c #FFF8F8F8",
"b. c #FFF9F9F9",
"n. c #FFFAFAFA",
"m. c #FFFCFCFC",
/* pixels */
"                                                                                                                                                                                                                                                                ",
"                                                                                                                                                                                                                                                                ",
"                                                                                                                                                                                                                                                                ",
"                                                                                                                                                                                                                                                                ",
"                                                                                                                                                                                                                                                                ",
"                                                                                                                                                                                                                                                                ",
"                                                                                                                                                                                                                                                                ",
"                                                                                                                                                                                                                                                                ",
"                                                                                                                                                                                                                                                                ",
"                                                                                                                                                                                                                                                                ",
"                                                                                                                                                                                                                                                                ",
"                                                                                                                                                                                                                                                                ",
"                                                                                                                            U 3 o o o o o o o o o 8 &.                                                                                                          ",
"                                                                                                                            j o o o o o o o o o o Z z.                                                                                                          ",
"                                                                                                                        m q 3 o o o o o o o o - 3 X.b.                                                                                                          ",
"                                                                                                                        8 o o o o o o o o o - L k X.)                                                                                                           ",
"                                                                                                                    m 8 o o o o o o o o o 3 j 4.m ) N                                                                                                           ",
"                                                                                                                    e X o o o o o o o o - ( ( q.N ) L                                                                                                           ",
"                                                                                                                    e o o o o o o o o o - 4.&.r.N 4.q.                                                                                                          ",
"                                                                                                              j 3 j 3 o o o o o o o 3 o - 4.z.r.m a.b.                                                                                                          ",
"                                                                                                            x - o o o o o o o o o e W e Z q.b.r.k 4.b.                                                                                                          ",
"                                                                                                          { 8 o o o o o o o o o - ) 4.W z.z.a.q.                                                                                                                ",
"                                                                                                          { 8 o o o o o o o o o - { q.&.a.a.&.4.                                                                                                                ",
"                                                                                                          Z 3 o o o o o o o o o 8 X.a.r.z.r.X.                                                                                                                  ",
"                                                                                                        W 3 o o o o o o o o o - ( z.a.&.4.r.                                                                                                                    ",
"                                                                                                      j 3 o o o o o o o o o u L q.b.a.r.a.                                                                                                                      ",
"                                                                                                    G - o o o o o o o o o 3 X.z.&.4.a.r.                                                                                                                        ",
"                                                                                                  u 3 o o o o o o - u - q ( 4.z.&.X.z.                                                                                                                          ",
"                                                                                          ( 8 o o o o o o o o o o G 4.u { z.) 4.&.X.                                                                                                                            ",
"                                                                                          s o o o o o o o o o - s q.q.m a.b.X.4.r.                                                                                                                              ",
"                                                                                        e o o o o o o o o o X j X.4.&.N &.a.z.a.                                                                                                                                ",
"                                                                                      k - o o o o o o o o o q U { q.X.k W 4.a.                                                                                                                                  ",
"                                                                                    { 8 o o o o o o o o o X N &.) a.{ 8 s q.                                                                                                                                    ",
"                                                                                    ) 3 o o o o o o o o o X G b.q.4.4.                                                                                                                                          ",
"                                                                                    u o o o o o o o o o - m X.z.z.q.a.                                                                                                                                          ",
"                                                                                  e o o o o o o o o o o j z.z.&.r.b.z.                                                                                                                                          ",
"                                                                                W - o o o o o o o o o o L r.&.X.4.z.                                                                                                                                            ",
"                                                                                Z o o o o o o o o o o o ) z.r.&.r.                                                                                                                                              ",
"                                                                                Z - o o o o o o o o o - U &.z.                                                                                                                                                  ",
"                                                                                L - o o o o o o o o o o ( z.                                                                                                                                                    ",
"                                                                                Z o o o o o o o o o o o ) b.                                                                                                                                                    ",
"                                                                                                                                                                                                                                                                ",
"                                                                                                                                                                                                                                                                ",
"                                                                                                                                                                                                                                                                ",
"                                                                                                                                                                                                                                                                ",
"                                                                                                                                                                                                                                                                ",
"                                                                                                                                                                                                                                                                ",
"                                                                                                                                                                                                                                                                ",
"                                                                                                                                                                                                                                                                ",
"                                                                                                                                                                                                                                                                ",
"                                                                                                                                                                                                                                                                ",
"                                                                                                                                                                                                                                                                ",
"                                                                                                                                                                                                                                                                ",
"                                                                                                                                                                                                                                                                "
};
