/* XPM */
static char *oms_111[] = {
/* columns rows colors chars-per-pixel */
"128 54 175 2 ",
"   c #00000000",
".  c #FF0E0E0E",
"X  c #FF0F0F0F",
"o  c #FF101010",
"O  c #FF111111",
"+  c #FF121212",
"@  c #FF131313",
"#  c #FF141414",
"$  c #FF151515",
"%  c #FF161616",
"&  c #FF171717",
"*  c #FF181818",
"=  c #FF191919",
"-  c #FF1A1A1A",
";  c #FF1B1B1B",
":  c #FF1C1C1C",
">  c #FF1D1D1D",
",  c #FF1E1E1E",
"<  c #FF202020",
"1  c #FF212121",
"2  c #FF232323",
"3  c #FF242424",
"4  c #FF252525",
"5  c #FF262626",
"6  c #FF272727",
"7  c #FF282828",
"8  c #FF292929",
"9  c #FF2A2A2A",
"0  c #FF2B2B2B",
"q  c #FF2C2C2C",
"w  c #FF2D2D2D",
"e  c #FF2E2E2E",
"r  c #FF303030",
"t  c #FF333333",
"y  c #FF343434",
"u  c #FF353535",
"i  c #FF363636",
"p  c #FF373737",
"a  c #FF383838",
"s  c #FF393939",
"d  c #FF3C3C3C",
"f  c #FF3D3D3D",
"g  c #FF3E3E3E",
"h  c #FF404040",
"j  c #FF424242",
"k  c #FF454545",
"l  c #FF474747",
"z  c #FF494949",
"x  c #FF4A4A4A",
"c  c #FF4C4C4C",
"v  c #FF4F4F4F",
"b  c #FF505050",
"n  c #FF515151",
"m  c #FF525252",
"M  c #FF535353",
"N  c #FF545454",
"B  c #FF565656",
"V  c #FF575757",
"C  c #FF585858",
"Z  c #FF5A5A5A",
"A  c #FF5F5F5F",
"S  c #FF606060",
"D  c #FF616161",
"F  c #FF626262",
"G  c #FF666666",
"H  c #FF686868",
"J  c #FF6B6B6B",
"K  c #FF6C6C6C",
"L  c #FF6E6E6E",
"P  c #FF6F6F6F",
"I  c #FF707070",
"U  c #FF717171",
"Y  c #FF727272",
"T  c #FF737373",
"R  c #FF747474",
"E  c #FF777777",
"W  c #FF787878",
"Q  c #FF7A7A7A",
"!  c #FF7B7B7B",
"~  c #FF7D7D7D",
"^  c #FF868686",
"/  c #FF898989",
"(  c #FF8A8A8A",
")  c #FF8B8B8B",
"_  c #FF8C8C8C",
"`  c #FF8F8F8F",
"'  c #FF909090",
"]  c #FF919191",
"[  c #FF929292",
"{  c #FF949494",
"}  c #FF969696",
"|  c #FF979797",
" . c #FF989898",
".. c #FF999999",
"X. c #FF9A9A9A",
"o. c #FF9B9B9B",
"O. c #FF9C9C9C",
"+. c #FFA1A1A1",
"@. c #FFA6A6A6",
"#. c #FFA7A7A7",
"$. c #FFA8A8A8",
"%. c #FFAAAAAA",
"&. c #FFABABAB",
"*. c #FFACACAC",
"=. c #FFADADAD",
"-. c #FFAEAEAE",
";. c #FFAFAFAF",
":. c #FFB0B0B0",
">. c #FFB2B2B2",
",. c #FFB5B5B5",
"<. c #FFB6B6B6",
"1. c #FFB7B7B7",
"2. c #FFB9B9B9",
"3. c #FFBABABA",
"4. c #FFBCBCBC",
"5. c #FF808080",
"6. c #FFBFBFBF",
"7. c #FFC0C0C0",
"8. c #FFC1C1C1",
"9. c #FFC3C3C3",
"0. c #FFC4C4C4",
"q. c #FFC5C5C5",
"w. c #FFC6C6C6",
"e. c #FFC8C8C8",
"r. c #FFC9C9C9",
"t. c #FFCACACA",
"y. c #FFCBCBCB",
"u. c #FFCCCCCC",
"i. c #FFCECECE",
"p. c #FFCFCFCF",
"a. c #FFD0D0D0",
"s. c #FFD1D1D1",
"d. c #FFD3D3D3",
"f. c #FFD4D4D4",
"g. c #FFD6D6D6",
"h. c #FFD7D7D7",
"j. c #FFD9D9D9",
"k. c #FFDADADA",
"l. c #FFDBDBDB",
"z. c #FFDCDCDC",
"x. c #FFDDDDDD",
"c. c #FFDEDEDE",
"v. c #FFDFDFDF",
"b. c #FFE0E0E0",
"n. c #FFE1E1E1",
"m. c #FFE2E2E2",
"M. c #FFE3E3E3",
"N. c #FFE4E4E4",
"B. c #FFE6E6E6",
"V. c #FFE6E6E6",
"C. c #FFE7E7E7",
"Z. c #FFE8E8E8",
"A. c #FFE9E9E9",
"S. c #FFEAEAEA",
"D. c #FFEBEBEB",
"F. c #FFECECEC",
"G. c #FFEDEDED",
"H. c #FFEEEEEE",
"J. c #FFEFEFEF",
"K. c #FFF0F0F0",
"L. c #FFF1F1F1",
"P. c #FFF2F2F2",
"I. c #FFF3F3F3",
"U. c #FFF4F4F4",
"Y. c #FFF5F5F5",
"T. c #FFF6F6F6",
"R. c #FFF7F7F7",
"E. c #FFF8F8F8",
"W. c #FFF9F9F9",
"Q. c #FFFAFAFA",
"!. c #FFFBFBFB",
"~. c #FFFCFCFC",
"^. c #FFFDFDFD",
"/. c #FFFEFEFE",
"(. c #FFFFFFFF",
/* pixels */
"                                                                                                                                                                                                                                                                ",
"                                                                                                                                                                                                                                                                ",
"                                                                                                                                                                                                                                                                ",
"                                                                                                                                                                                                                                                                ",
"                                                                                                                                                                                                                                                                ",
"                                                                                                                                                                                                                                                                ",
"                                                                                                                                                                                                                                                                ",
"                                                                                                                                                                                                                                                                ",
"                                                                                                                                                                                                                                                                ",
"                                                                                                                                                                                                                                                                ",
"                                                                                                                                                                                                                                                                ",
"                                                                                                                                                                                                                                                                ",
"                                                                                                                                                                                                                                                                ",
"                                                                                                        % % % % % 4 4 % g A                                                                                                                                     ",
"                                                                                            R.r.u E ! l , % % % % % % % % % g                                                                                                                                   ",
"                                                                                            R.G.;.;.r.w.E , % % % % % % % % % 4 7 /                                                                                                                             ",
"                                                                                            R.v.G.G.v.r.:.r.{ 7 % % % % % % % % % 4 {                                                                                                                           ",
"                                                                                            M.r.G.M.R.M.w.R.W.;., % % % % % % % % X c                                                                                                                           ",
"                                                                                            R.r.M.5.G.G.;.:.w.G.c % % % % % % % % % 7 5.                                                                                                                        ",
"                                                                                              W.R.G.r.r.v.G.d.R.L X % % % % % % % % 4 5.                                                                                                                        ",
"                                                                                                M.G.r.r.R.W.W.W.E % , % % % % % % % , u % /                                                                                                                     ",
"                                                                                                    w.d.G.R.r.M.c A +.7 % % % % % % % % % 4 b                                                                                                                   ",
"                                                                                                      R.r.G.;.:.7 / R.d.c % X % % % % % % % % b                                                                                                                 ",
"                                                                                                          R.W.W.L / R.R.;.:.A % % , , % % % % % % l l % % b                                                                                                     ",
"                                                                                                            R.R.S c +.d.G.W.G.c % u ;.l % % % % % % % % % % l /                                                                                                 ",
"                                                                                                                      R.W.M.r.;. .E M.G.E % % % % % % % % % X A                                                                                                 ",
"                                                                                                                      W.R.w.^ M.G.v.G.W. .% % % % % % % % % X b                                                                                                 ",
"                                                                                                                      R.d.v.:.G.G.R.W.W. .X % , 7 % % % % % % u b   % 7                                                                                         ",
"                                                                                                                          R.W.M.M.+.G.W.;./ b 7 5.S % % % % % % % % % % g :.                                                                                    ",
"                                                                                                                            W.r.v.E M.W.v.R.M.L v.w.u g % % % % % % % % % 7 7 /                                                                                 ",
"                                                                                                                                G.! M.W.M.G.v.w.M.d.! M.S % % % % % % % % % % u w.                                                                              ",
"                                                                                                                                    R.W.v.v.M.M.G.G.5.W. .% , % % % % % % % % 4 !                                                                               ",
"                                                                                                                                      R.d.d.5.R.R.R.R.W. ., +.;.g % % % % % % % % % % c                                                                         ",
"                                                                                                                                          G.R.G.G.M.W.W.{ l G.W.w.4 % % % % % % % % % % S                                                                       ",
"                                                                                                                                            W.d.M.w.R.R.{ b R.R.W.E % % % % % % % % % % 4 :.                                                                    ",
"                                                                                                                                                G.+.v.d.{ b G.L r.;.% % % % % % % % % % % {                                                                     ",
"                                                                                                                                                    5.w. .b M.g / r., % % % % % % % % % % !                                                                     ",
"                                                                                                                                                      M.{ g G.L { d.4 % % % % % % % % % % E                                                                     ",
"                                                                                                                                                            G.M.M.d.4 % % % % % % % % % % !                                                                     ",
"                                                                                                                                                              W.W.w., % % % % % % % % % % ^                                                                     ",
"                                                                                                                                                              R.W./ % % % % % % % % % % 4 ;.                                                                    ",
"                                                                                                                                                                                                                                                                ",
"                                                                                                                                                                                                                                                                ",
"                                                                                                                                                                                                                                                                ",
"                                                                                                                                                                                                                                                                ",
"                                                                                                                                                                                                                                                                ",
"                                                                                                                                                                                                                                                                ",
"                                                                                                                                                                                                                                                                ",
"                                                                                                                                                                                                                                                                ",
"                                                                                                                                                                                                                                                                ",
"                                                                                                                                                                                                                                                                ",
"                                                                                                                                                                                                                                                                ",
"                                                                                                                                                                                                                                                                ",
"                                                                                                                                                                                                                                                                "
};
