/* XPM */
static char *oms_197[] = {
/* columns rows colors chars-per-pixel */
"128 54 209 2 ",
"   c #00000000",
".  c #FF0E0E0E",
"X  c #FF0F0F0F",
"o  c #FF101010",
"O  c #FF111111",
"+  c #FF121212",
"@  c #FF131313",
"#  c #FF141414",
"$  c #FF151515",
"%  c #FF161616",
"&  c #FF171717",
"*  c #FF181818",
"=  c #FF191919",
"-  c #FF1A1A1A",
";  c #FF1B1B1B",
":  c #FF1C1C1C",
">  c #FF1D1D1D",
",  c #FF1E1E1E",
"<  c #FF1F1F1F",
"1  c #FF202020",
"2  c #FF212121",
"3  c #FF222222",
"4  c #FF232323",
"5  c #FF242424",
"6  c #FF252525",
"7  c #FF262626",
"8  c #FF272727",
"9  c #FF282828",
"0  c #FF292929",
"q  c #FF2A2A2A",
"w  c #FF2B2B2B",
"e  c #FF2C2C2C",
"r  c #FF2D2D2D",
"t  c #FF2E2E2E",
"y  c #FF2F2F2F",
"u  c #FF303030",
"i  c #FF313131",
"p  c #FF323232",
"a  c #FF333333",
"s  c #FF343434",
"d  c #FF353535",
"f  c #FF363636",
"g  c #FF373737",
"h  c #FF383838",
"j  c #FF3A3A3A",
"k  c #FF3B3B3B",
"l  c #FF3C3C3C",
"z  c #FF3D3D3D",
"x  c #FF3E3E3E",
"c  c #FF3F3F3F",
"v  c #FF404040",
"b  c #FF424242",
"n  c #FF444444",
"m  c #FF454545",
"M  c #FF464646",
"N  c #FF474747",
"B  c #FF484848",
"V  c #FF494949",
"C  c #FF4B4B4B",
"Z  c #FF4C4C4C",
"A  c #FF4C4C4C",
"S  c #FF4E4E4E",
"D  c #FF4F4F4F",
"F  c #FF525252",
"G  c #FF535353",
"H  c #FF545454",
"J  c #FF555555",
"K  c #FF565656",
"L  c #FF575757",
"P  c #FF585858",
"I  c #FF595959",
"U  c #FF5C5C5C",
"Y  c #FF5D5D5D",
"T  c #FF616161",
"R  c #FF626262",
"E  c #FF636363",
"W  c #FF646464",
"Q  c #FF666666",
"!  c #FF676767",
"~  c #FF686868",
"^  c #FF696969",
"/  c #FF6A6A6A",
"(  c #FF6B6B6B",
")  c #FF6C6C6C",
"_  c #FF6D6D6D",
"`  c #FF6E6E6E",
"'  c #FF707070",
"]  c #FF717171",
"[  c #FF737373",
"{  c #FF747474",
"}  c #FF757575",
"|  c #FF767676",
" . c #FF7B7B7B",
".. c #FF7C7C7C",
"X. c #FF7D7D7D",
"o. c #FF7E7E7E",
"O. c #FF808080",
"+. c #FF818181",
"@. c #FF828282",
"#. c #FF838383",
"$. c #FF848484",
"%. c #FF858585",
"&. c #FF868686",
"*. c #FF878787",
"=. c #FF888888",
"-. c #FF898989",
";. c #FF8B8B8B",
":. c #FF8C8C8C",
">. c #FF8D8D8D",
",. c #FF8E8E8E",
"<. c #FF8F8F8F",
"1. c #FF909090",
"2. c #FF919191",
"3. c #FF929292",
"4. c #FF939393",
"5. c #FF949494",
"6. c #FF959595",
"7. c #FF969696",
"8. c #FF979797",
"9. c #FF989898",
"0. c #FF9A9A9A",
"q. c #FF9B9B9B",
"w. c #FF9C9C9C",
"e. c #FF9D9D9D",
"r. c #FF9E9E9E",
"t. c #FF9F9F9F",
"y. c #FFA1A1A1",
"u. c #FFA2A2A2",
"i. c #FFA3A3A3",
"p. c #FFA6A6A6",
"a. c #FFA7A7A7",
"s. c #FFA8A8A8",
"d. c #FFABABAB",
"f. c #FFADADAD",
"g. c #FFAFAFAF",
"h. c #FFB0B0B0",
"j. c #FFB1B1B1",
"k. c #FFB2B2B2",
"l. c #FFB2B2B2",
"z. c #FFB4B4B4",
"x. c #FFB6B6B6",
"c. c #FFB7B7B7",
"v. c #FFB8B8B8",
"b. c #FFB9B9B9",
"n. c #FFBABABA",
"m. c #FFBBBBBB",
"M. c #FFBCBCBC",
"N. c #FFBDBDBD",
"B. c #FF808080",
"V. c #FFBFBFBF",
"C. c #FFC0C0C0",
"Z. c #FFC1C1C1",
"A. c #FFC4C4C4",
"S. c #FFC5C5C5",
"D. c #FFC6C6C6",
"F. c #FFC8C8C8",
"G. c #FFC9C9C9",
"H. c #FFCACACA",
"J. c #FFCBCBCB",
"K. c #FFCCCCCC",
"L. c #FFCDCDCD",
"P. c #FFCECECE",
"I. c #FFCFCFCF",
"U. c #FFD1D1D1",
"Y. c #FFD2D2D2",
"T. c #FFD3D3D3",
"R. c #FFD4D4D4",
"E. c #FFD5D5D5",
"W. c #FFD6D6D6",
"Q. c #FFD7D7D7",
"!. c #FFD8D8D8",
"~. c #FFD9D9D9",
"^. c #FFDADADA",
"/. c #FFDBDBDB",
"(. c #FFDCDCDC",
"). c #FFDDDDDD",
"_. c #FFDFDFDF",
"`. c #FFE0E0E0",
"'. c #FFE1E1E1",
"]. c #FFE2E2E2",
"[. c #FFE3E3E3",
"{. c #FFE4E4E4",
"}. c #FFE6E6E6",
"|. c #FFE6E6E6",
" X c #FFE7E7E7",
".X c #FFE8E8E8",
"XX c #FFE9E9E9",
"oX c #FFEAEAEA",
"OX c #FFEBEBEB",
"+X c #FFECECEC",
"@X c #FFEDEDED",
"#X c #FFEEEEEE",
"$X c #FFEFEFEF",
"%X c #FFF0F0F0",
"&X c #FFF1F1F1",
"*X c #FFF2F2F2",
"=X c #FFF3F3F3",
"-X c #FFF4F4F4",
";X c #FFF5F5F5",
":X c #FFF6F6F6",
">X c #FFF7F7F7",
",X c #FFF8F8F8",
"<X c #FFF9F9F9",
"1X c #FFFAFAFA",
"2X c #FFFBFBFB",
"3X c #FFFCFCFC",
"4X c #FFFDFDFD",
"5X c #FFFEFEFE",
"6X c #FFFFFFF1",
/* pixels */
"                                                                                                                                                                                                                                                                ",
"                                                                                                                                                                                                                                                                ",
"                                                                                                                                                                                                                                                                ",
"                                                                                                                                                                                                                                                                ",
"                                                                                                                                                                                                                                                                ",
"                                                                                                                                                                                                                                                                ",
"                                                                                                                                                                                                                                                                ",
"                                                                                                                                                                                                                                                                ",
"                                                                                                                                                                                                                                                                ",
"                                                                                                                                                                                                                                                                ",
"                                                                                                                                                                                                                                                                ",
"                                                                                                                                                                                                                                                                ",
"                                                                                                                                                                                                                                                                ",
"                                                                                                                                                                                                                                                                ",
"                                                                                                                                                                                                                                                                ",
"                                                                                                                                                                                                                        m u 3 = = + = = t                       ",
"                                                                                                                                                                                      U         u t t 3 = =           3 + + + + + + + + + =                     ",
"                                                                                                                                                                              3 = = + + =       + + + + + +         = + + + + X + + + + X + =                   ",
"                                                                                                                                        m z z u t t 3 =                       + + + + + + =   3 + + + X X X X       + + + 3 m ) +.2.a.w.o.m =                   ",
"                                                                                                                                        + + + + + + + + +       C C z z C     + + + + + = 3 t + + 3 G R | +.w.    + + = | L.:X,X,X,X,X,X,X@X2.                  ",
"                                                                                                                                        + + + + + + + X X = t = + + + + + =   + 3 +.w.s.v.L.R + + 2.:X,X,X,X,X      + 2.,X,X,X,X@X].:X,X,X,X:X                  ",
"                                                        G C u z u u u t                                     U C C C C       m 3 = = t t + + t z m C m | +.2.G + + + + + + + + + u ].,X,X,X,XE.3 z ].,X,X,X,X:X      C @X,X,X:X2.z u U ].,X,X,X@X                ",
"                                        m u t 3 =   z = + + + + + + + + +           R m     C z t t   U t = + + + + + =   u + + + + + + + = S.@X:X].v.,X,X,X+.X + = 3 u m z t + u ].,X,X,X,X,X:.w.,X,X,X,X,X:X      :.:X,X,X/.3 X X = L.,X,X,X:X                ",
"                              z t 3 = = 3 + + + + + + + + + + + + + X X X X       u = + + 3 + + + + = = + + + + + + + + + + + + + + + + + = E.,X,X].v.,X,X,Xo.= | v.E.@X@X@X].a.C ].,X,X,X,X,X:X:X,X,X,X,X,X:X        :X,X,X@X) t u :.:X,X,X,X                  ",
"                              = + + + + + + + + + + + + + + + = t m G R | | )   C + + + + + + + + + X X X + + + = 3 u z m u = + = R a.k.w.) /.,X,X].v.,X,X,X:.a.,X,X@Xv./.,X,X,Xs.].,X,X:X:X,X,X,X,X/.@X,X,X:X        :X,X,X,X:X].].,X,X,X,X:X                  ",
"            G m z t t u     t + + + + + X + + + u | +.w.R = ) v.].:X,X,X,X,X,X:Xo.+ + + + = u u = z G R ) 3 t +.v./.@X:X@X].k.z +.,X,X,X,X,X:X,X,X].v.,X,X,XS.:X,X,X@XE.@X,X,X,XL.].,X,X:X@X,X,X,X,X+./.,X,X:X          ,X,X,X,X,X,X,X,X:X                      ",
"        G 3 + + + + + + + 3 = + + + + C :.w.s.C R ,X,X,Xw.:.,X,X,X:XS.v.:X,X,X,XL.= + + m v.].].k.L.:X,X:X) L.,X,X:XL.].,X,X,XS.E.,X,X,Xs.2.:X,X,X].v.,X,X,XS./././.v.o.k.,X,X,Xk.].,X,X:X  :X,X,X:X  ].,X,X:X              :X:X:X:X                            ",
"      R = + + + + + + + X X + X X + + w.,X,X,X:.) E.E./.:.2.v.L.].E.w.k.:X,X,X,X,X  + = v.,X,X,X@X:X,X,X:Xv.,X,X,Xw.= U :X,X,X@X@X,X,X,XC = E.,X,X].v.,X,X,X].@X:X:X@XE.@X,X,X,X  ].,X:X:X    :X,X                                                              ",
"      C + + + + + + 3 C ) +.+.+.U 3 ) ].,X,X,X:X].:X:X,Xw.G S.@X:X,X,X,X,X,X@XL.      t ].,X,X].G E.,X,X:XE.,X,X,Xa.3 o.:X,X,XL./.,X,X,X  3 E.,X,X@XS.,X,X,X:X  :X,X,X,X:X:X                                                                                    ",
"      G + + + + = | E.:X:X:X,X,X:Xk.s.,X,X,X,X:X].,X,X,Xv./.,X,X,X:XL.k./.L.k.:.k.      @X:X  2.= S.,X,X:XE.:X,X,X:X].:X,X,X,X2./.,X,X:X    ].,X,X:X                                                                                                            ",
"        + + + + R :X,X,XL.s.@X,X,X:X2.S.,X,X,X+.| ,X,X,XE.@X,X,X,X].) +.@X:X:X,X:X              = L.,X,X:X    :X,X,X,X:X:X                                                                                                                                      ",
"          + + + a.,X:X@X/.L.@X,X,X:Xo.v.,X,X,X) R ,X,X,X/.@X,X,X,X,X:X,X,X,X,X:X                                                                                                                                                                                ",
"              + 2.].].].a.+.].,X,X/.v.,X,X,X,X+.| ,X,X,X,X  :X:X,X,X,X:X:X:X                                                                                                                                                                                    ",
"                v.,X,X,X,X,X,X,X,X  k.,X,X:X                                                                                                                                                                                                                    ",
"                    :X,X,X:X                                                                                                                                                                                                                                    ",
"                                                                                                                                                                                                                                                                ",
"                                                                                                                                                                                                                                                                ",
"                                                                                                                                                                                                                                                                ",
"                                                                                                                                                                                                                                                                ",
"                                                                                                                                                                                                                                                                ",
"                                                                                                                                                                                                                                                                ",
"                                                                                                                                                                                                                                                                ",
"                                                                                                                                                                                                                                                                ",
"                                                                                                                                                                                                                                                                ",
"                                                                                                                                                                                                                                                                ",
"                                                                                                                                                                                                                                                                ",
"                                                                                                                                                                                                                                                                ",
"                                                                                                                                                                                                                                                                ",
"                                                                                                                                                                                                                                                                ",
"                                                                                                                                                                                                                                                                ",
"                                                                                                                                                                                                                                                                ",
"                                                                                                                                                                                                                                                                ",
"                                                                                                                                                                                                                                                                ",
"                                                                                                                                                                                                                                                                "
};
