/* XPM */
static char *oms_102[] = {
/* columns rows colors chars-per-pixel */
"128 54 135 2 ",
"   c #00000000",
".  c #FF0D0D0D",
"X  c #FF0F0F0F",
"o  c #FF101010",
"O  c #FF111111",
"+  c #FF121212",
"@  c #FF131313",
"#  c #FF141414",
"$  c #FF161616",
"%  c #FF191919",
"&  c #FF1A1A1A",
"*  c #FF1B1B1B",
"=  c #FF1C1C1C",
"-  c #FF1D1D1D",
";  c #FF1E1E1E",
":  c #FF212121",
">  c #FF232323",
",  c #FF252525",
"<  c #FF262626",
"1  c #FF282828",
"2  c #FF292929",
"3  c #FF2B2B2B",
"4  c #FF2C2C2C",
"5  c #FF2D2D2D",
"6  c #FF2E2E2E",
"7  c #FF2F2F2F",
"8  c #FF313131",
"9  c #FF323232",
"0  c #FF343434",
"q  c #FF353535",
"w  c #FF373737",
"e  c #FF3A3A3A",
"r  c #FF3C3C3C",
"t  c #FF414141",
"y  c #FF424242",
"u  c #FF464646",
"i  c #FF494949",
"p  c #FF4E4E4E",
"a  c #FF4F4F4F",
"s  c #FF555555",
"d  c #FF595959",
"f  c #FF5B5B5B",
"g  c #FF5E5E5E",
"h  c #FF616161",
"j  c #FF626262",
"k  c #FF636363",
"l  c #FF656565",
"z  c #FF696969",
"x  c #FF6C6C6C",
"c  c #FF6E6E6E",
"v  c #FF6F6F6F",
"b  c #FF717171",
"n  c #FF757575",
"m  c #FF767676",
"M  c #FF777777",
"N  c #FF787878",
"B  c #FF7A7A7A",
"V  c #FF7B7B7B",
"C  c #FF7E7E7E",
"Z  c #FF808080",
"A  c #FF808080",
"S  c #FF848484",
"D  c #FF868686",
"F  c #FF888888",
"G  c #FF8B8B8B",
"H  c #FF8C8C8C",
"J  c #FF8E8E8E",
"K  c #FF919191",
"L  c #FF929292",
"P  c #FF959595",
"I  c #FF969696",
"U  c #FF979797",
"Y  c #FF989898",
"T  c #FF9A9A9A",
"R  c #FFA2A2A2",
"E  c #FFA3A3A3",
"W  c #FFA4A4A4",
"Q  c #FFAEAEAE",
"!  c #FFB0B0B0",
"~  c #FFB1B1B1",
"^  c #FFB2B2B2",
"/  c #FFB4B4B4",
"(  c #FFB9B9B9",
")  c #FFBABABA",
"_  c #FFBCBCBC",
"`  c #FF808080",
"'  c #FFBFBFBF",
"]  c #FFC1C1C1",
"[  c #FFC2C2C2",
"{  c #FFC3C3C3",
"}  c #FFC4C4C4",
"|  c #FFC5C5C5",
" . c #FFC6C6C6",
".. c #FFC7C7C7",
"X. c #FFC9C9C9",
"o. c #FFCACACA",
"O. c #FFCBCBCB",
"+. c #FFCCCCCC",
"@. c #FFCDCDCD",
"#. c #FFCECECE",
"$. c #FFCFCFCF",
"%. c #FFD1D1D1",
"&. c #FFD2D2D2",
"*. c #FFD3D3D3",
"=. c #FFD4D4D4",
"-. c #FFD5D5D5",
";. c #FFD6D6D6",
":. c #FFD7D7D7",
">. c #FFD8D8D8",
",. c #FFD9D9D9",
"<. c #FFDADADA",
"1. c #FFDDDDDD",
"2. c #FFDEDEDE",
"3. c #FFDFDFDF",
"4. c #FFE0E0E0",
"5. c #FFE1E1E1",
"6. c #FFE3E3E3",
"7. c #FFE6E6E6",
"8. c #FFE6E6E6",
"9. c #FFE7E7E7",
"0. c #FFE8E8E8",
"q. c #FFE9E9E9",
"w. c #FFEAEAEA",
"e. c #FFEBEBEB",
"r. c #FFECECEC",
"t. c #FFEDEDED",
"y. c #FFEEEEEE",
"u. c #FFF0F0F0",
"i. c #FFF2F2F2",
"p. c #FFF3F3F3",
"a. c #FFF5F5F5",
"s. c #FFF7F7F7",
"d. c #FFF8F8F8",
"f. c #FFFCFCFC",
"g. c #FFFEFEFE",
/* pixels */
"                                                                                                                                                                                                                                                                ",
"                                                                                                                                                                                                                                                                ",
"                                                                                                                                                                                                                                                                ",
"                                                                                                                                                                                                                                                                ",
"                                                                                                                                                                                                                                                                ",
"                                                                                                                                                                                                                                                                ",
"                                                                                                                                                                                                                                                                ",
"                                                                                                                                                                                                                                                                ",
"                                                                                                                                                                                                                                                                ",
"                                                                                                                                                                                                                                                                ",
"                                                                                                                                                                                                                                                                ",
"                                                                                                                                                                                                                                                                ",
"                                                                                                                                                                                                                                                                ",
"                                                                                                                                                                                                                                                                ",
"                                                                                                                  q + + + + + + + + * * d                                                                                                                       ",
"                                                                                                              o.K R < + + + + + + + + + * D                                                                                                                     ",
"                                                                                                              >.o.%.K 6 + + + + + + + + + * M                                                                                                                   ",
"                                                                                                              9.9.9.u.Y + + + + + + + + + + q ..                                                                                                                ",
"                                                                                                              o.o.y.o...< + + + + + + + + + * R                                                                                                                 ",
"                                                                                                              y.o.9.%...q + + + + + + + + + * R                                                                                                                 ",
"                                                                                                              y.>.9.f.9.q + + + + + + + + + * J                                                                                                                 ",
"                                                                                                                >.>.u.%.j y + + + + + + + + + * j                                                                                                               ",
"                                                                                                                  y.>.D V ..6 + + + + + + + + + * D                                                                                                             ",
"                                                                                                                    u.%.J y.R q + * + + + + + + + < j                                                                                                           ",
"                                                                                                                      >.z ..f.J q M * + + + + + + + + + < Y                                                                                                     ",
"                                                                                                                          o.y.' K ..i + + + + + + + + + + s                                                                                                     ",
"                                                                                                                            ..' 9.%.d X + + + + + + + + X i                                                                                                     ",
"                                                                                                                            %.%.u.>.d + 6 + + + + + + + + q j                                                                                                   ",
"                                                                                                                            u.u...o.Q j K < + + + + + + + + + + V                                                                                               ",
"                                                                                                                              y./ ..9.' ' z 6 + + + + + + + + + q z                                                                                             ",
"                                                                                                                                / o.9.%.%...z X + + + + + + + + + 6 ..                                                                                          ",
"                                                                                                                                  >.%.>.9.9.M r * + + + + + + + + * V                                                                                           ",
"                                                                                                                                    %.o.9.f.V ' M + + + + + + + + + + 6 /                                                                                       ",
"                                                                                                                                      y.%.u.J >...* + + + + + + + + + + V                                                                                       ",
"                                                                                                                                      9...y.J ..o.6 + + + + + + + + + X d                                                                                       ",
"                                                                                                                                        ..%.J K K r + + + + + + + + + + i                                                                                       ",
"                                                                                                                                            J K J y + + + + + + + + + + r                                                                                       ",
"                                                                                                                                            V / ' i + + + + + + + + + + r                                                                                       ",
"                                                                                                                                              u.y.y + + + + + + + + + + r                                                                                       ",
"                                                                                                                                                9.q + + + + + + + + + + y                                                                                       ",
"                                                                                                                                                  6 + + + + + + + + + X d                                                                                       ",
"                                                                                                                                                                                                                                                                ",
"                                                                                                                                                                                                                                                                ",
"                                                                                                                                                                                                                                                                ",
"                                                                                                                                                                                                                                                                ",
"                                                                                                                                                                                                                                                                ",
"                                                                                                                                                                                                                                                                ",
"                                                                                                                                                                                                                                                                ",
"                                                                                                                                                                                                                                                                ",
"                                                                                                                                                                                                                                                                ",
"                                                                                                                                                                                                                                                                ",
"                                                                                                                                                                                                                                                                ",
"                                                                                                                                                                                                                                                                ",
"                                                                                                                                                                                                                                                                "
};
