/* XPM */
static char *oms_037[] = {
/* columns rows colors chars-per-pixel */
"128 54 192 2 ",
"   c #00000000",
".  c #FF0C0C0C",
"X  c #FF0D0D0D",
"o  c #FF0E0E0E",
"O  c #FF0F0F0F",
"+  c #FF101010",
"@  c #FF111111",
"#  c #FF121212",
"$  c #FF131313",
"%  c #FF141414",
"&  c #FF151515",
"*  c #FF161616",
"=  c #FF181818",
"-  c #FF191919",
";  c #FF1B1B1B",
":  c #FF1C1C1C",
">  c #FF1D1D1D",
",  c #FF1F1F1F",
"<  c #FF202020",
"1  c #FF212121",
"2  c #FF222222",
"3  c #FF232323",
"4  c #FF242424",
"5  c #FF252525",
"6  c #FF272727",
"7  c #FF292929",
"8  c #FF2A2A2A",
"9  c #FF2B2B2B",
"0  c #FF2D2D2D",
"q  c #FF2E2E2E",
"w  c #FF2F2F2F",
"e  c #FF313131",
"r  c #FF323232",
"t  c #FF333333",
"y  c #FF343434",
"u  c #FF363636",
"i  c #FF373737",
"p  c #FF393939",
"a  c #FF3B3B3B",
"s  c #FF3C3C3C",
"d  c #FF3F3F3F",
"f  c #FF404040",
"g  c #FF414141",
"h  c #FF424242",
"j  c #FF434343",
"k  c #FF444444",
"l  c #FF454545",
"z  c #FF474747",
"x  c #FF4A4A4A",
"c  c #FF4B4B4B",
"v  c #FF4C4C4C",
"b  c #FF4E4E4E",
"n  c #FF4F4F4F",
"m  c #FF505050",
"M  c #FF565656",
"N  c #FF575757",
"B  c #FF585858",
"V  c #FF595959",
"C  c #FF5B5B5B",
"Z  c #FF606060",
"A  c #FF616161",
"S  c #FF626262",
"D  c #FF636363",
"F  c #FF646464",
"G  c #FF656565",
"H  c #FF666666",
"J  c #FF686868",
"K  c #FF696969",
"L  c #FF6A6A6A",
"P  c #FF6C6C6C",
"I  c #FF6D6D6D",
"U  c #FF6E6E6E",
"Y  c #FF6F6F6F",
"T  c #FF737373",
"R  c #FF747474",
"E  c #FF757575",
"W  c #FF767676",
"Q  c #FF777777",
"!  c #FF787878",
"~  c #FF797979",
"^  c #FF7A7A7A",
"/  c #FF7C7C7C",
"(  c #FF7E7E7E",
")  c #FF808080",
"_  c #FF808080",
"`  c #FF818181",
"'  c #FF838383",
"]  c #FF858585",
"[  c #FF8A8A8A",
"{  c #FF8B8B8B",
"}  c #FF8D8D8D",
"|  c #FF8E8E8E",
" . c #FF909090",
".. c #FF929292",
"X. c #FF939393",
"o. c #FF949494",
"O. c #FF959595",
"+. c #FF969696",
"@. c #FF999999",
"#. c #FF9F9F9F",
"$. c #FFA0A0A0",
"%. c #FFA1A1A1",
"&. c #FFA2A2A2",
"*. c #FFA3A3A3",
"=. c #FFA4A4A4",
"-. c #FFA5A5A5",
";. c #FFA7A7A7",
":. c #FFA8A8A8",
">. c #FFA9A9A9",
",. c #FFAAAAAA",
"<. c #FFABABAB",
"1. c #FFADADAD",
"2. c #FFAEAEAE",
"3. c #FFAFAFAF",
"4. c #FFB0B0B0",
"5. c #FFB1B1B1",
"6. c #FFB2B2B2",
"7. c #FFB2B2B2",
"8. c #FFB4B4B4",
"9. c #FFB5B5B5",
"0. c #FFB6B6B6",
"q. c #FFB8B8B8",
"w. c #FFB9B9B9",
"e. c #FFBBBBBB",
"r. c #FFBCBCBC",
"t. c #FFBDBDBD",
"y. c #FF808080",
"u. c #FFBFBFBF",
"i. c #FFC0C0C0",
"p. c #FFC1C1C1",
"a. c #FFC2C2C2",
"s. c #FFC3C3C3",
"d. c #FFC4C4C4",
"f. c #FFC5C5C5",
"g. c #FFC6C6C6",
"h. c #FFC7C7C7",
"j. c #FFC8C8C8",
"k. c #FFC9C9C9",
"l. c #FFCACACA",
"z. c #FFCBCBCB",
"x. c #FFCCCCCC",
"c. c #FFCDCDCD",
"v. c #FFCECECE",
"b. c #FFCFCFCF",
"n. c #FFD0D0D0",
"m. c #FFD1D1D1",
"M. c #FFD2D2D2",
"N. c #FFD3D3D3",
"B. c #FFD4D4D4",
"V. c #FFD5D5D5",
"C. c #FFD6D6D6",
"Z. c #FFD7D7D7",
"A. c #FFD8D8D8",
"S. c #FFD9D9D9",
"D. c #FFDADADA",
"F. c #FFDBDBDB",
"G. c #FFDCDCDC",
"H. c #FFDDDDDD",
"J. c #FFDEDEDE",
"K. c #FFDFDFDF",
"L. c #FFE0E0E0",
"P. c #FFE1E1E1",
"I. c #FFE2E2E2",
"U. c #FFE3E3E3",
"Y. c #FFE4E4E4",
"T. c #FFE6E6E6",
"R. c #FFE6E6E6",
"E. c #FFE7E7E7",
"W. c #FFE8E8E8",
"Q. c #FFE9E9E9",
"!. c #FFEAEAEA",
"~. c #FFEBEBEB",
"^. c #FFECECEC",
"/. c #FFEDEDED",
"(. c #FFEEEEEE",
"). c #FFEFEFEF",
"_. c #FFF0F0F0",
"`. c #FFF1F1F1",
"'. c #FFF2F2F2",
"]. c #FFF3F3F3",
"[. c #FFF4F4F4",
"{. c #FFF5F5F5",
"}. c #FFF6F6F6",
"|. c #FFF7F7F7",
" X c #FFF8F8F8",
".X c #FFF9F9F9",
"XX c #FFFAFAFA",
"oX c #FFFBFBFB",
"OX c #FFFCFCFC",
"+X c #FFFDFDFD",
"@X c #FFFEFEFE",
"#X c #FFFFFFF1",
/* pixels */
"                                                                                                                                                                                                                                                                ",
"                                                                                                                                                                                                                                                                ",
"                                                                                                                                                                                                                                                                ",
"                                                                                                                                                                                                                                                                ",
"                                                                                                                                                                                                                                                                ",
"                                                                                                                                                                                                                                                                ",
"                                                                                                                                                                                                                                                                ",
"                                                                                                                                                                                                                                                                ",
"                                                                                                                                                                                                                                                                ",
"                                                                                                                                                                                                                                                                ",
"                                                                                                                                                                                                                                                                ",
"                                                                                                                                                                                                                                                                ",
"                                                                                                                                                                                                                                                                ",
"                                                                                                                                                                                                                                                                ",
"                                                                                                                                                                                                                                                                ",
"                                                                                                                                                                                                                                                                ",
"                                                                                                                                                                                                                                                                ",
"                                                                                                                                                                                                                                                                ",
"                                                                                                                                                                                                                                                                ",
"                                                                                                                                                                                                                                                                ",
"                                                                                                                                                                                                                                                                ",
"                                                                                                                                                                                # # # # O     d d g d 7 #                                                       ",
"                                                                                                                                                                          6 # # # # # # M 1.v.K.U.U.U.v.O.7 1.}.}.h.e u.U.}.                                    ",
"                                                                                                        # # # # # g L R R ( h.).                                        c O # # # # # A }.+X+X}.}.+X+X+X+X-.1.U.U.9.g U.+X+Xu.7 # g O.v.).                      ",
"                                      = = # O = d           = # # # = L O.-.| _ 6 # 6 -.h.n.}.).      L # # # # # 9.+X+XK.v.+X+X}.                  = 6 6 = # # 6 7 e   e g c 6 # # # 1.+X+X+Xv.A 1.U.n.9.( -.K.U.h.v.}.+X+X}.( ( U.}.}.}.+X}.}.                ",
"                                  6 # # # 6 R u.K.).}.}.}.).A # # # e K.+X+X+X+XA O L +X+X+X+Xn.6     c 6 6 = # # 9.+X+XK.v.+X+Xv.e C ( R 7 # 6 R 1.h.v.h.9.L 6 1.v.n.9.9.).}.9.6 # # -.+X+X+X}.K.U.).U.u.M 9.+X+XU.).+X+X+X}.u.).+X+Xu.-.}.+X+X                ",
"                                e # # # 6 1.+X+X+X+X+X+X+X+X).M # # e K.+X+X+X+Xu.7 h.+X+X+X+Xu.= M -.v.n.n.h.| 7 9.+X+XK.v.+X+XK.h.}.+X+Xh.d 9.+X+X+X+X+X+X}.| v.+X+X+X+X+X+X}.C O # c K.}.+X+X+X+X+X+X+Xn.h.+X+Xn._ ).+X+Xu.| +X+X+X).U.).).}.).              ",
"                                = # # # L +X+X+X).u.1.K.+X+X+X9.# # e K.+X+X+X+X).-.}.+X+X+X+Xh.R ).+X}.n.).+X+X1.u.+X+XK.v.+X+X+X).}.+X+X}.1.}.+X}.O.A K.+X+XK.K.+X+Xn.O.+X+X+XR O # e L 9.v.u.| h.+X+X+X).n.+X+Xh.e K.+X+Xu.O.+X+X}.O.R v.n.).).              ",
"                                = # # # -.+X+X}.R # # c ).+X+Xv.6 # e K.+X+X+X+X+X}.+X+X}.+X+Xn.n.+X+X).9.K.+X+X).K.+X+XK.v.+X+XK.c O.+X+X}.n.+X+X).d # u.+X+XU.U.+X+Xv.c -.-.#.g # # 9.}.).}.v.R u.+X+X+XK.v.+X+Xh.e K.+X+X+X1.K.+X+X).U.}.+X+X                ",
"                                = # # # 9.+X+X).g O O 7 K.+X+Xv.= # e K.+X+XK.).+X+X+XK.U.+X+XK.U.+X+X).u.h.K.n.v.K.+X+XK.v.+X+Xu.# A +X+X}.h.}.+X}.#.( ).+X+Xh.n.+X+X+X    # # # # # R }.+X+X+X+X+X+X+X}.( 9.+X+Xv.7 h.+X}.+X#.( ).}.}.}.}.}.                  ",
"                                7 # # # -.+X+X+X1.g g -.}.+X+X9.# # e K.+X+X1.1.+X+X}._ n.+X+Xn.n.+X+XK.( u.).).K.n.+X+XK.v.+X+Xu.# A +X+X}.R v.+X+X+X+X+X+XU.C v.+X+X}.                -.}.}.}.}.}.}.}.                                                        ",
"                                  = # # L +X+X+X+X).}.+X+X+X}.A O # e K.+X+X-.c ).+Xn.e n.+X+Xh.( ).+X+X+X+X+X}.| u.+X+XK.n.}.}.v.= L }.}.}.      }.}.}.}.                                                                                                      ",
"                                      # 6 1.+X+X+X+X+X+X+X+XK.  # # e K.+X+Xu.6 h.+X9.= n.}.+XU.    }.}.+X}.                                                                                                                                                    ",
"                                              }.}.}.}.}.                                                                                                                                                                                                        ",
"                                                                                                                                                                                                                                                                ",
"                                                                                                                                                                                                                                                                ",
"                                                                                                                                                                                                                                                                ",
"                                                                                                                                                                                                                                                                ",
"                                                                                                                                                                                                                                                                ",
"                                                                                                                                                                                                                                                                ",
"                                                                                                                                                                                                                                                                ",
"                                                                                                                                                                                                                                                                ",
"                                                                                                                                                                                                                                                                ",
"                                                                                                                                                                                                                                                                ",
"                                                                                                                                                                                                                                                                ",
"                                                                                                                                                                                                                                                                ",
"                                                                                                                                                                                                                                                                ",
"                                                                                                                                                                                                                                                                ",
"                                                                                                                                                                                                                                                                ",
"                                                                                                                                                                                                                                                                ",
"                                                                                                                                                                                                                                                                ",
"                                                                                                                                                                                                                                                                ",
"                                                                                                                                                                                                                                                                ",
"                                                                                                                                                                                                                                                                "
};
