/* XPM */
static char *oms_276[] = {
/* columns rows colors chars-per-pixel */
"128 54 93 2 ",
"   c #00000000",
".  c #FF0F0F0F",
"X  c #FF101010",
"o  c #FF111111",
"O  c #FF121212",
"+  c #FF131313",
"@  c #FF141414",
"#  c #FF151515",
"$  c #FF161616",
"%  c #FF171717",
"&  c #FF181818",
"*  c #FF191919",
"=  c #FF1A1A1A",
"-  c #FF1C1C1C",
";  c #FF1D1D1D",
":  c #FF1E1E1E",
">  c #FF1F1F1F",
",  c #FF202020",
"<  c #FF212121",
"1  c #FF232323",
"2  c #FF242424",
"3  c #FF262626",
"4  c #FF292929",
"5  c #FF2A2A2A",
"6  c #FF2B2B2B",
"7  c #FF2D2D2D",
"8  c #FF2E2E2E",
"9  c #FF2F2F2F",
"0  c #FF323232",
"q  c #FF333333",
"w  c #FF363636",
"e  c #FF393939",
"r  c #FF3A3A3A",
"t  c #FF3B3B3B",
"y  c #FF3C3C3C",
"u  c #FF3F3F3F",
"i  c #FF414141",
"p  c #FF434343",
"a  c #FF444444",
"s  c #FF484848",
"d  c #FF494949",
"f  c #FF4F4F4F",
"g  c #FF515151",
"h  c #FF535353",
"j  c #FF555555",
"k  c #FF585858",
"l  c #FF5A5A5A",
"z  c #FF5B5B5B",
"x  c #FF5E5E5E",
"c  c #FF5F5F5F",
"v  c #FF606060",
"b  c #FF616161",
"n  c #FF626262",
"m  c #FF656565",
"M  c #FF666666",
"N  c #FF6C6C6C",
"B  c #FF6E6E6E",
"V  c #FF707070",
"C  c #FF747474",
"Z  c #FF787878",
"A  c #FF7E7E7E",
"S  c #FF838383",
"D  c #FF878787",
"F  c #FF939393",
"G  c #FF9A9A9A",
"H  c #FF9B9B9B",
"J  c #FFA7A7A7",
"K  c #FFADADAD",
"L  c #FFB2B2B2",
"P  c #FFB6B6B6",
"I  c #FFB8B8B8",
"U  c #FFBABABA",
"Y  c #FFBFBFBF",
"T  c #FFC4C4C4",
"R  c #FFC6C6C6",
"E  c #FFC7C7C7",
"W  c #FFCCCCCC",
"Q  c #FFCECECE",
"!  c #FFD0D0D0",
"~  c #FFD2D2D2",
"^  c #FFD5D5D5",
"/  c #FFD8D8D8",
"(  c #FFD9D9D9",
")  c #FFDBDBDB",
"_  c #FFDCDCDC",
"`  c #FFDFDFDF",
"'  c #FFE2E2E2",
"]  c #FFE3E3E3",
"[  c #FFE4E4E4",
"{  c #FFE9E9E9",
"}  c #FFEDEDED",
"|  c #FFEEEEEE",
" . c #FFEFEFEF",
/* pixels */
"                                                                                                                                                                                                                                                                ",
"                                                                                                                                                                                                                                                                ",
"                                                                                                                                                                                                                                                                ",
"                                                                                                                                                                                                                                                                ",
"                                                                                                                                                                                                                                                                ",
"                                                                                                                                                                                                                                                                ",
"                                                                                                                                                                                                                                                                ",
"                                                                                                                                                                                                                                                                ",
"                                                                                                                                                                                                                                                                ",
"                                                                                                                                                                                                                                                                ",
"                                                                                                                                                                                                                                                                ",
"                                                                                                                                                                                                                                                                ",
"                                                                                                                                                                                                                                                                ",
"                                                                                                                                                                                                                                                                ",
"                                                                                                  y X X X * * * X X X X b                                                                                                                                       ",
"                                                                                                  a X X X X X X X X X X d                                                                                                                                       ",
"                                                                                                ] F X * 7 * X X , 7 7 , 7                                                                                                                                       ",
"                                                                                                  /   0 d     7 y d                                                                                                                                             ",
"                                                                                                    B 0 0   * 0 y 0 X                                                                                                                                           ",
"                                                                                                  / c , * X X , 7 * X X * 0                                                                                                                                     ",
"                                                                                                  R Z , X X X X X X X X X 7                                                                                                                                     ",
"                                                                                                  Q R c X X X X X X X X X X 0 Y                                                                                                                                 ",
"                                                                                                  ] { B . X X X X X X X X X 7 Y                                                                                                                                 ",
"                                                                                                    ] C . X X X X X X X X X 7 Y                                                                                                                                 ",
"                                                                                                    { H X X X X X X X X X X * H                                                                                                                                 ",
"                                                                                                    ] R 7 X X X X X X X X X X b                                                                                                                                 ",
"                                                                                                      ] c . X X X X X X X X X 0                                                                                                                                 ",
"                                                                                                      / F y X X X X X X X X X * d J                                                                                                                             ",
"                                                                                                      ! R H * X X X X X X X X X * D                                                                                                                             ",
"                                                                                                      ! Q Q a X X X X X X X X X . c                                                                                                                             ",
"                                                                                                        / R j X X X X X X X X X * j                                                                                                                             ",
"                                                                                                        Q P C X X X X X X X X X X y                                                                                                                             ",
"                                                                                                          R D X X X X X X X X X X 7 P                                                                                                                           ",
"                                                                                                          { K * X X X X X X X X X , Z                                                                                                                           ",
"                                                                                                          { ! y X X X X X X X X X X b                                                                                                                           ",
"                                                                                                          { Q a X X X X X X X X X X c                                                                                                                           ",
"                                                                                                            R d X X X X X X X X X X b                                                                                                                           ",
"                                                                                                            ] j X X X X X X X X X X b                                                                                                                           ",
"                                                                                                            / j X X * X X X X * * * b                                                                                                                           ",
"                                                                                                              c 7 , X X X , 0 y y a C                                                                                                                           ",
"                                                                                                                                                                                                                                                                ",
"                                                                                                                                                                                                                                                                ",
"                                                                                                                                                                                                                                                                ",
"                                                                                                                                                                                                                                                                ",
"                                                                                                                                                                                                                                                                ",
"                                                                                                                                                                                                                                                                ",
"                                                                                                                                                                                                                                                                ",
"                                                                                                                                                                                                                                                                ",
"                                                                                                                                                                                                                                                                ",
"                                                                                                                                                                                                                                                                ",
"                                                                                                                                                                                                                                                                ",
"                                                                                                                                                                                                                                                                ",
"                                                                                                                                                                                                                                                                ",
"                                                                                                                                                                                                                                                                "
};
