/* XPM */
static char *oms_326[] = {
/* columns rows colors chars-per-pixel */
"128 54 192 2 ",
"   c #00000000",
".  c #FF0C0C0C",
"X  c #FF0E0E0E",
"o  c #FF0F0F0F",
"O  c #FF101010",
"+  c #FF111111",
"@  c #FF121212",
"#  c #FF131313",
"$  c #FF141414",
"%  c #FF151515",
"&  c #FF161616",
"*  c #FF171717",
"=  c #FF181818",
"-  c #FF191919",
";  c #FF1A1A1A",
":  c #FF1B1B1B",
">  c #FF1C1C1C",
",  c #FF1D1D1D",
"<  c #FF1E1E1E",
"1  c #FF1F1F1F",
"2  c #FF202020",
"3  c #FF222222",
"4  c #FF232323",
"5  c #FF242424",
"6  c #FF252525",
"7  c #FF262626",
"8  c #FF272727",
"9  c #FF282828",
"0  c #FF292929",
"q  c #FF2B2B2B",
"w  c #FF2D2D2D",
"e  c #FF2E2E2E",
"r  c #FF2F2F2F",
"t  c #FF303030",
"y  c #FF313131",
"u  c #FF333333",
"i  c #FF343434",
"p  c #FF353535",
"a  c #FF373737",
"s  c #FF393939",
"d  c #FF3A3A3A",
"f  c #FF3C3C3C",
"g  c #FF3D3D3D",
"h  c #FF404040",
"j  c #FF414141",
"k  c #FF424242",
"l  c #FF434343",
"z  c #FF444444",
"x  c #FF454545",
"c  c #FF484848",
"v  c #FF494949",
"b  c #FF4A4A4A",
"n  c #FF4B4B4B",
"m  c #FF4C4C4C",
"M  c #FF4E4E4E",
"N  c #FF4F4F4F",
"B  c #FF525252",
"V  c #FF535353",
"C  c #FF545454",
"Z  c #FF555555",
"A  c #FF565656",
"S  c #FF575757",
"D  c #FF585858",
"F  c #FF5B5B5B",
"G  c #FF5C5C5C",
"H  c #FF5E5E5E",
"J  c #FF5F5F5F",
"K  c #FF606060",
"L  c #FF626262",
"P  c #FF636363",
"I  c #FF646464",
"U  c #FF656565",
"Y  c #FF666666",
"T  c #FF676767",
"R  c #FF686868",
"E  c #FF696969",
"W  c #FF6A6A6A",
"Q  c #FF6B6B6B",
"!  c #FF6C6C6C",
"~  c #FF6E6E6E",
"^  c #FF707070",
"/  c #FF727272",
"(  c #FF737373",
")  c #FF747474",
"_  c #FF767676",
"`  c #FF777777",
"'  c #FF787878",
"]  c #FF7A7A7A",
"[  c #FF7B7B7B",
"{  c #FF7C7C7C",
"}  c #FF808080",
"|  c #FF808080",
" . c #FF848484",
".. c #FF858585",
"X. c #FF868686",
"o. c #FF898989",
"O. c #FF8B8B8B",
"+. c #FF8C8C8C",
"@. c #FF8D8D8D",
"#. c #FF8F8F8F",
"$. c #FF929292",
"%. c #FF949494",
"&. c #FF999999",
"*. c #FF9A9A9A",
"=. c #FF9C9C9C",
"-. c #FF9D9D9D",
";. c #FFA0A0A0",
":. c #FFA1A1A1",
">. c #FFA3A3A3",
",. c #FFA5A5A5",
"<. c #FFA6A6A6",
"1. c #FFA7A7A7",
"2. c #FFA8A8A8",
"3. c #FFA9A9A9",
"4. c #FFAAAAAA",
"5. c #FFACACAC",
"6. c #FFADADAD",
"7. c #FFAFAFAF",
"8. c #FFB0B0B0",
"9. c #FFB1B1B1",
"0. c #FFB2B2B2",
"q. c #FFB2B2B2",
"w. c #FFB4B4B4",
"e. c #FFB5B5B5",
"r. c #FFB6B6B6",
"t. c #FFB7B7B7",
"y. c #FFB8B8B8",
"u. c #FFB9B9B9",
"i. c #FFBDBDBD",
"p. c #FFBFBFBF",
"a. c #FFC0C0C0",
"s. c #FFC1C1C1",
"d. c #FFC2C2C2",
"f. c #FFC3C3C3",
"g. c #FFC4C4C4",
"h. c #FFC5C5C5",
"j. c #FFC6C6C6",
"k. c #FFC8C8C8",
"l. c #FFC9C9C9",
"z. c #FFCACACA",
"x. c #FFCBCBCB",
"c. c #FFCCCCCC",
"v. c #FFCDCDCD",
"b. c #FFCECECE",
"n. c #FFCFCFCF",
"m. c #FFD0D0D0",
"M. c #FFD1D1D1",
"N. c #FFD2D2D2",
"B. c #FFD3D3D3",
"V. c #FFD4D4D4",
"C. c #FFD6D6D6",
"Z. c #FFD7D7D7",
"A. c #FFD8D8D8",
"S. c #FFD9D9D9",
"D. c #FFDADADA",
"F. c #FFDBDBDB",
"G. c #FFDCDCDC",
"H. c #FFDDDDDD",
"J. c #FFDEDEDE",
"K. c #FFDFDFDF",
"L. c #FFE0E0E0",
"P. c #FFE1E1E1",
"I. c #FFE2E2E2",
"U. c #FFE3E3E3",
"Y. c #FFE4E4E4",
"T. c #FFE6E6E6",
"R. c #FFE6E6E6",
"E. c #FFE7E7E7",
"W. c #FFE8E8E8",
"Q. c #FFE9E9E9",
"!. c #FFEAEAEA",
"~. c #FFEBEBEB",
"^. c #FFECECEC",
"/. c #FFEDEDED",
"(. c #FFEEEEEE",
"). c #FFEFEFEF",
"_. c #FFF0F0F0",
"`. c #FFF1F1F1",
"'. c #FFF2F2F2",
"]. c #FFF3F3F3",
"[. c #FFF4F4F4",
"{. c #FFF5F5F5",
"}. c #FFF6F6F6",
"|. c #FFF7F7F7",
" X c #FFF8F8F8",
".X c #FFF9F9F9",
"XX c #FFFAFAFA",
"oX c #FFFBFBFB",
"OX c #FFFCFCFC",
"+X c #FFFDFDFD",
"@X c #FFFEFEFE",
"#X c #FFFFFFFF",
/* pixels */
"                                                                                                                                                                                                                                                                ",
"                                                                                                                                                                                                                                                                ",
"                                                                                                                                                                                                                                                                ",
"                                                                                                                                                                                                                                                                ",
"                                                                                                                                                                                                                                                                ",
"                                                                                                                                                                                                                                                                ",
"                                                                                                                                                                                                                                                                ",
"                                                                                                                                                                                                                                                                ",
"                                                                                                                                                                                                                                                                ",
"                                                                                                                                                                                                                                                                ",
"                                                                                                                                                                                                                                                                ",
"                                                                                                                                                                                                                                                                ",
"                                                                                                                                                                                                                                                                ",
"                                                                                                                                                                                                                                                                ",
"                                                                                                                                                                                                                                                                ",
"                                                                                                                                                                                                                                                                ",
"                                                                                                                                                                                                                                                                ",
"                                                                                                                                                                                                                                                                ",
"                                                                                                                                                                                                                                                                ",
"                                                                                                                                                                                                                                                                ",
"                            |..XB.%.N @ @ @ @ @ , , , u                                                                                                                                                                                                         ",
"                        |..X.X.X.X.XY.*.6 @ @ 6 t.s.y.4.! @ @ N Y V N q , 6 @ @ @ , @ g                                                                                                                                                                         ",
"                      |..X.X.X|..X.X.X.X*.@ @ 6 Y..X.X.Xc.6 q B..X|.|.*.@ @ @ @ @ @ @ g D.  t.! Y V g @ @ @ @ , @ @ H                                                                                                                                           ",
"                      .X.X.Xt.V Y c..X.XY.u @ 6 Y..X.X.X|.V ! .X.X.X.X<.@ @ @ @ @ . . u D..X|.B.^.|.B.6 @ @ @ @ @ @ V                                                                                                                                           ",
"                      .X.X|.V . . Y .X.X|.N . 6 Y..X.X.X.Xt.s..X.X.X.X<.6 _ <.t.*._ u , s..X.XD.|..XY.6 @ @ @ @ @ @ u                                           _ N , @ @ @ , @ 6                                                                               ",
"                      .X.X.X} @ . ! .X.X|.V . 6 Y..X.X.X.X|.|..X.X.X.X4.4..X.X|.|..XD.H y..X.XB.|..XY.Y *.4.} 6 @ q V Y V h u , @ @ @ @ @ ,           D..X.X.X.X|.Y.s.V g t.t.%.6 6 , , @ @ u @ @ @                                                             ",
"                      .X.X.X^.<.*.Y..X.X^.g . 6 Y..X.XD.|..X.X|.^..X.XB.^..X|.t.y..X.Xc.c..X.XB.|..X|.|..X.X.XO.N B.|..X.X|.B.! g t.4.O.N | | u @ @ q Y..X.X|.c.^..X.XY.} ^..XY.h t.B.s.N . @ @ @ @ V                                                           ",
"                        .X.X.X.X.X.X.X.Xt., @ 6 Y..X.X%.D..X.Xs.c..X.XD.|..X.XY.Y.^.|.Y.D..X.XB.|..X|.s.D..X.Xc.s..X.XY.c.|..X^.%.|..X|.Y..X.Xs.6 @ u Y..X.XY.} 4.D.B.s.| s.B.y.Y D..X.X_ @ @ @ , , , u   @ @ , 6                                               ",
"                          |.|..X.X.X|.B.h @ @ q ^..X.X_ %..X|.! y..X.Xs.D..X|.O.| B.B.s.D..X.XB.|..XY.q } .X.XY.Y..X.X| , s..X.XB.|..X|.D.|..X|.N . , t..X.X.X.X|.^.D.O.H ^.|.Y.B..X.X.XD.h ! t.c.s.<.Y , @ @ @ @ , V                                           ",
"                                                  .X|._ H .XD.q s..X.X<.O..X.X|.|..X.Xc.B..X.XB.|..XY.6 Y .X.XD.D..X.XO., s..X.XD.|..X^.V B..X.XH . @ N y.Y.^.|..X.X.X|.4.^..X^.B..X.X.X|.t.|..X|.Y..X.X<., @ @ @ @ q                                           ",
"                                                                            |.|..X|.^.! c..X.XB.|..XY.6 ! .X.Xc.%.|..X^.c.|..X|.y.|..X^.u N Y _ q . g c.B.D.y.H 4..X.X.XD.|..XY.! D..X.Xt.B..X.XD.<.^..X|.N @ @ @ @ ,                                           ",
"                                                                                                          .X.Xc.h D..X.X.X.X.Xs._ |..X^.u . . . @ @ g |..X.X|.t.B..X.X.XB.^..XY.h c..X.XO.s..X.XY.B.Y.^.^.Y . @ @ @ ,                                           ",
"                                                                                                                                    |.Y.                |..X.X.X.X.X.XY.O.^..XY.h c..X.X^.B..X.Xs._ s.D.B.H @ @ @ @ q                                           ",
"                                                                                                                                                              |..X.X      |..XY.g s..X.X|.} D..X.X|..X.X^.N @ @ @                                               ",
"                                                                                                                                                                                                |.|.|.|.                                                        ",
"                                                                                                                                                                                                                                                                ",
"                                                                                                                                                                                                                                                                ",
"                                                                                                                                                                                                                                                                ",
"                                                                                                                                                                                                                                                                ",
"                                                                                                                                                                                                                                                                ",
"                                                                                                                                                                                                                                                                ",
"                                                                                                                                                                                                                                                                ",
"                                                                                                                                                                                                                                                                ",
"                                                                                                                                                                                                                                                                ",
"                                                                                                                                                                                                                                                                ",
"                                                                                                                                                                                                                                                                ",
"                                                                                                                                                                                                                                                                ",
"                                                                                                                                                                                                                                                                ",
"                                                                                                                                                                                                                                                                ",
"                                                                                                                                                                                                                                                                ",
"                                                                                                                                                                                                                                                                ",
"                                                                                                                                                                                                                                                                ",
"                                                                                                                                                                                                                                                                ",
"                                                                                                                                                                                                                                                                "
};
