/* XPM */
static char *oms_308[] = {
/* columns rows colors chars-per-pixel */
"128 54 181 2 ",
"   c #00000000",
".  c #FF090909",
"X  c #FF0B0B0B",
"o  c #FF0C0C0C",
"O  c #FF0D0D0D",
"+  c #FF0E0E0E",
"@  c #FF0F0F0F",
"#  c #FF101010",
"$  c #FF111111",
"%  c #FF121212",
"&  c #FF131313",
"*  c #FF141414",
"=  c #FF151515",
"-  c #FF161616",
";  c #FF171717",
":  c #FF181818",
">  c #FF191919",
",  c #FF1A1A1A",
"<  c #FF1B1B1B",
"1  c #FF1C1C1C",
"2  c #FF1D1D1D",
"3  c #FF1E1E1E",
"4  c #FF1F1F1F",
"5  c #FF202020",
"6  c #FF212121",
"7  c #FF222222",
"8  c #FF232323",
"9  c #FF242424",
"0  c #FF252525",
"q  c #FF262626",
"w  c #FF292929",
"e  c #FF2A2A2A",
"r  c #FF2B2B2B",
"t  c #FF2C2C2C",
"y  c #FF2F2F2F",
"u  c #FF303030",
"i  c #FF313131",
"p  c #FF333333",
"a  c #FF353535",
"s  c #FF363636",
"d  c #FF3A3A3A",
"f  c #FF3B3B3B",
"g  c #FF3E3E3E",
"h  c #FF3F3F3F",
"j  c #FF414141",
"k  c #FF424242",
"l  c #FF434343",
"z  c #FF444444",
"x  c #FF454545",
"c  c #FF464646",
"v  c #FF484848",
"b  c #FF494949",
"n  c #FF4A4A4A",
"m  c #FF4B4B4B",
"M  c #FF4C4C4C",
"N  c #FF525252",
"B  c #FF555555",
"V  c #FF565656",
"C  c #FF575757",
"Z  c #FF5A5A5A",
"A  c #FF5C5C5C",
"S  c #FF5D5D5D",
"D  c #FF5E5E5E",
"F  c #FF5F5F5F",
"G  c #FF606060",
"H  c #FF616161",
"J  c #FF626262",
"K  c #FF636363",
"L  c #FF656565",
"P  c #FF676767",
"I  c #FF686868",
"U  c #FF696969",
"Y  c #FF6C6C6C",
"T  c #FF707070",
"R  c #FF717171",
"E  c #FF727272",
"W  c #FF747474",
"Q  c #FF757575",
"!  c #FF767676",
"~  c #FF777777",
"^  c #FF7E7E7E",
"/  c #FF808080",
"(  c #FF808080",
")  c #FF848484",
"_  c #FF858585",
"`  c #FF868686",
"'  c #FF878787",
"]  c #FF888888",
"[  c #FF898989",
"{  c #FF8D8D8D",
"}  c #FF8E8E8E",
"|  c #FF8F8F8F",
" . c #FF909090",
".. c #FF919191",
"X. c #FF929292",
"o. c #FF939393",
"O. c #FF949494",
"+. c #FF959595",
"@. c #FF969696",
"#. c #FF979797",
"$. c #FF989898",
"%. c #FF999999",
"&. c #FF9A9A9A",
"*. c #FF9D9D9D",
"=. c #FF9E9E9E",
"-. c #FF9F9F9F",
";. c #FFA0A0A0",
":. c #FFA3A3A3",
">. c #FFA4A4A4",
",. c #FFA5A5A5",
"<. c #FFA6A6A6",
"1. c #FFA7A7A7",
"2. c #FFAAAAAA",
"3. c #FFABABAB",
"4. c #FFADADAD",
"5. c #FFAEAEAE",
"6. c #FFB0B0B0",
"7. c #FFB2B2B2",
"8. c #FFB2B2B2",
"9. c #FFB4B4B4",
"0. c #FFB5B5B5",
"q. c #FFB6B6B6",
"w. c #FFB7B7B7",
"e. c #FFB8B8B8",
"r. c #FFB9B9B9",
"t. c #FFBABABA",
"y. c #FFBCBCBC",
"u. c #FFC0C0C0",
"i. c #FFC2C2C2",
"p. c #FFC3C3C3",
"a. c #FFC4C4C4",
"s. c #FFC8C8C8",
"d. c #FFC9C9C9",
"f. c #FFCCCCCC",
"g. c #FFCECECE",
"h. c #FFCFCFCF",
"j. c #FFD1D1D1",
"k. c #FFD2D2D2",
"l. c #FFD3D3D3",
"z. c #FFD4D4D4",
"x. c #FFD5D5D5",
"c. c #FFD6D6D6",
"v. c #FFD7D7D7",
"b. c #FFD8D8D8",
"n. c #FFD9D9D9",
"m. c #FFDADADA",
"M. c #FFDBDBDB",
"N. c #FFDCDCDC",
"B. c #FFDDDDDD",
"V. c #FFDEDEDE",
"C. c #FFDFDFDF",
"Z. c #FFE0E0E0",
"A. c #FFE1E1E1",
"S. c #FFE2E2E2",
"D. c #FFE4E4E4",
"F. c #FFE6E6E6",
"G. c #FFE7E7E7",
"H. c #FFE8E8E8",
"J. c #FFE9E9E9",
"K. c #FFEAEAEA",
"L. c #FFEBEBEB",
"P. c #FFECECEC",
"I. c #FFEDEDED",
"U. c #FFEEEEEE",
"Y. c #FFEFEFEF",
"T. c #FFF0F0F0",
"R. c #FFF1F1F1",
"E. c #FFF2F2F2",
"W. c #FFF3F3F3",
"Q. c #FFF4F4F4",
"!. c #FFF5F5F5",
"~. c #FFF6F6F6",
"^. c #FFF7F7F7",
"/. c #FFF8F8F8",
"(. c #FFF9F9F9",
"). c #FFFAFAFA",
"_. c #FFFBFBFB",
"`. c #FFFCFCFC",
"'. c #FFFDFDFD",
"]. c #FFFEFEFE",
"[. c #FFFFFFFF",
/* pixels */
"                                                                                                                                                                                                                                                                ",
"                                                                                                                                                                                                                                                                ",
"                                                                                                                                                                                                                                                                ",
"                                                                                                                                                                                                                                                                ",
"                                                                                                                                                                                                                                                                ",
"                                                                                                                                                                                                                                                                ",
"                                                                                                                                                                                                                                                                ",
"                                                                                                                                                                                                                                                                ",
"                                                                                                                                                                                                                                                                ",
"                                                                                                                                                                                                                                                                ",
"                                                                                                                                                                                                                                                                ",
"                                                                                                                                                                                                                                                                ",
"                                                                                                                                                                                                                                                                ",
"                                                                                                                                                                                                                                                                ",
"                                                                                                                                                                                                                                                                ",
"                                                                                                                                                                                                                                                                ",
"                                                                                                                                                                                                                                                                ",
"                                                                                                                                                                                                                                                                ",
"                                            I.    < $ $ $ $ X $ $ $ 0 b                                                                                                                                                                                         ",
"                                        /././.^.I.>.t $ $ i b i < $ $ $ t $ $ $ $ 0                                                                                                                                                                             ",
"                                        /./././././.>.< X ^ ^.I.u.t < P F j 0 $ $ $ $ 0 $ $ < < O.                                                                                                                                                              ",
"                                      ^./.^.>.) b./.I.h X ) /././.F h I./.^.I $ $ $ $ $ $ 0 < $ P           $ <                                                                                                                                                 ",
"                                      /./.A.i X T /./.P X ) /././.*.^ /././.T X $ X $ $ t u.f.] O.T 0 $ $ $ $ $ $ $ $ N                                                                                                                                         ",
"                                      ^./.I.j X P /./.T X ) /././.b.z./././.T i T T b < t b./.z.^.^.b X $ $ $ $ $ $ $ N                                                                                                                                         ",
"                                        /./.u.T u././.P X ) /./.^./././././.O.z././.^.0.j b./.z.^.^.b $ $ $ $ $ $ $ $ t h <                                                                                                                                     ",
"                                        /./././././.I.j X ) /.^.b././.A.^.^.f.^.^.t.A./.>.b./.z.^.^.O.0.5.h $ t h i < $ $ X < 0 $ $ $ t             $ $ X X $ $ < < i                                                                                           ",
"                                          ^././././.>.< X ) /.I.*.^./.>.I.^.z./.^.A.I./.b.A./.z.^././././.5.F b.^.A.u.F 0 N h < 0 $ $ $ j I./.^.I.z.) 0 N F i $ X $ $ < $ $ 0 P                                                                                 ",
"                                                          b./.I.F A.A.I I.^.u.^.^.O.5.z.f.I./.z.^./.0.z./.b.f./.^.I./.A.] I.I.>.f.*.0 X T /./.A.A././.O.f./.*.j F h $ $ $ $ $ $ $ < ]                                                                           ",
"                                                                  b.u.N I./.O.z./.b.A.^.z.A./.z.^.^.b ] /.I.A./.t.b A./.z.^././././.P X T /./.u.) b.A.u.t.A.O.*./.z.0 $ $ $ $ $ $ < T                                                                           ",
"                                                                                /././.^.>.A./.z.^.^.j ) /.A.b./.5.0 z./.^././.0.I./.] X j I././.I.I.u.F u.I.t.z./.I.j $ 0 0 < $ $ $ 0 0 $ < 0 N                                                                 ",
"                                                                                            ^.z.^.I.b ] /.b.5./.I.0.^./.A.^.^.I 5.I.] $ 0 ) b.^./././.t.z./.A.^././.*.] z.b.0.P $ $ $ $ $ $ $ < I                                                               ",
"                                                                                                        /.z.P ^./././.I.*.^.^.F < i t $ T z.b.>.] ^./.^.^./.f.z././.z.^./.A.^.^.P $ $ $ $ $ $ $ h                                                               ",
"                                                                                                                  ^.^.    ^.^.F X $ $ X O././.b.5.^./.^.^./.*.O./.A.*./.^.u.A./.0.$ $ $ $ $ $ $ t                                                               ",
"                                                                                                                                          ^./././././.f.b./.*.O./.I.0./.^.f.z.I.u.< $ $ $ $ $ $ i                                                               ",
"                                                                                                                                              ^.^.^.^.  b./.*.) /./.z.I./.>.0.b.5.< $ $ $ $ $ $ j                                                               ",
"                                                                                                                                                                ^./.5.u././././.0.$ $ $ $ $ $                                                                   ",
"                                                                                                                                                                          ^.^.^.                                                                                ",
"                                                                                                                                                                                                                                                                ",
"                                                                                                                                                                                                                                                                ",
"                                                                                                                                                                                                                                                                ",
"                                                                                                                                                                                                                                                                ",
"                                                                                                                                                                                                                                                                ",
"                                                                                                                                                                                                                                                                ",
"                                                                                                                                                                                                                                                                ",
"                                                                                                                                                                                                                                                                ",
"                                                                                                                                                                                                                                                                ",
"                                                                                                                                                                                                                                                                ",
"                                                                                                                                                                                                                                                                ",
"                                                                                                                                                                                                                                                                ",
"                                                                                                                                                                                                                                                                ",
"                                                                                                                                                                                                                                                                ",
"                                                                                                                                                                                                                                                                ",
"                                                                                                                                                                                                                                                                ",
"                                                                                                                                                                                                                                                                "
};
