/* XPM */
static char *oms_075[] = {
/* columns rows colors chars-per-pixel */
"128 54 164 2 ",
"   c #00000000",
".  c #FF0D0D0D",
"X  c #FF0E0E0E",
"o  c #FF0F0F0F",
"O  c #FF101010",
"+  c #FF111111",
"@  c #FF121212",
"#  c #FF131313",
"$  c #FF141414",
"%  c #FF151515",
"&  c #FF161616",
"*  c #FF171717",
"=  c #FF181818",
"-  c #FF191919",
";  c #FF1A1A1A",
":  c #FF1B1B1B",
">  c #FF1C1C1C",
",  c #FF1D1D1D",
"<  c #FF1F1F1F",
"1  c #FF232323",
"2  c #FF242424",
"3  c #FF262626",
"4  c #FF272727",
"5  c #FF282828",
"6  c #FF2A2A2A",
"7  c #FF2B2B2B",
"8  c #FF2C2C2C",
"9  c #FF2E2E2E",
"0  c #FF2F2F2F",
"q  c #FF313131",
"w  c #FF333333",
"e  c #FF353535",
"r  c #FF363636",
"t  c #FF383838",
"y  c #FF393939",
"u  c #FF3A3A3A",
"i  c #FF3B3B3B",
"p  c #FF3E3E3E",
"a  c #FF3F3F3F",
"s  c #FF404040",
"d  c #FF414141",
"f  c #FF434343",
"g  c #FF444444",
"h  c #FF454545",
"j  c #FF494949",
"k  c #FF4A4A4A",
"l  c #FF4B4B4B",
"z  c #FF4F4F4F",
"x  c #FF525252",
"c  c #FF555555",
"v  c #FF585858",
"b  c #FF5B5B5B",
"n  c #FF5C5C5C",
"m  c #FF5D5D5D",
"M  c #FF606060",
"N  c #FF616161",
"B  c #FF626262",
"V  c #FF636363",
"C  c #FF646464",
"Z  c #FF656565",
"A  c #FF686868",
"S  c #FF6A6A6A",
"D  c #FF6B6B6B",
"F  c #FF6D6D6D",
"G  c #FF717171",
"H  c #FF737373",
"J  c #FF757575",
"K  c #FF767676",
"L  c #FF777777",
"P  c #FF787878",
"I  c #FF797979",
"U  c #FF7A7A7A",
"Y  c #FF7C7C7C",
"T  c #FF7D7D7D",
"R  c #FF7E7E7E",
"E  c #FF808080",
"W  c #FF848484",
"Q  c #FF888888",
"!  c #FF8A8A8A",
"~  c #FF8D8D8D",
"^  c #FF8E8E8E",
"/  c #FF919191",
"(  c #FF959595",
")  c #FF9A9A9A",
"_  c #FF9D9D9D",
"`  c #FF9E9E9E",
"'  c #FF9F9F9F",
"]  c #FFA2A2A2",
"[  c #FFA3A3A3",
"{  c #FFA5A5A5",
"}  c #FFA9A9A9",
"|  c #FFAAAAAA",
" . c #FFABABAB",
".. c #FFACACAC",
"X. c #FFAFAFAF",
"o. c #FFB0B0B0",
"O. c #FFB1B1B1",
"+. c #FFB2B2B2",
"@. c #FFB4B4B4",
"#. c #FFB5B5B5",
"$. c #FFB6B6B6",
"%. c #FFB7B7B7",
"&. c #FFB9B9B9",
"*. c #FFBABABA",
"=. c #FFBCBCBC",
"-. c #FFBDBDBD",
";. c #FFBFBFBF",
":. c #FFC0C0C0",
">. c #FFC1C1C1",
",. c #FFC2C2C2",
"<. c #FFC3C3C3",
"1. c #FFC6C6C6",
"2. c #FFC8C8C8",
"3. c #FFC9C9C9",
"4. c #FFCCCCCC",
"5. c #FFCDCDCD",
"6. c #FFCECECE",
"7. c #FFCFCFCF",
"8. c #FFD1D1D1",
"9. c #FFD2D2D2",
"0. c #FFD3D3D3",
"q. c #FFD4D4D4",
"w. c #FFD5D5D5",
"e. c #FFD6D6D6",
"r. c #FFD7D7D7",
"t. c #FFD8D8D8",
"y. c #FFD9D9D9",
"u. c #FFDADADA",
"i. c #FFDCDCDC",
"p. c #FFDDDDDD",
"a. c #FFDEDEDE",
"s. c #FFDFDFDF",
"d. c #FFE0E0E0",
"f. c #FFE1E1E1",
"g. c #FFE2E2E2",
"h. c #FFE3E3E3",
"j. c #FFE4E4E4",
"k. c #FFE6E6E6",
"l. c #FFE6E6E6",
"z. c #FFE7E7E7",
"x. c #FFE8E8E8",
"c. c #FFE9E9E9",
"v. c #FFEAEAEA",
"b. c #FFEBEBEB",
"n. c #FFECECEC",
"m. c #FFEDEDED",
"M. c #FFEEEEEE",
"N. c #FFEFEFEF",
"B. c #FFF0F0F0",
"V. c #FFF1F1F1",
"C. c #FFF2F2F2",
"Z. c #FFF3F3F3",
"A. c #FFF4F4F4",
"S. c #FFF5F5F5",
"D. c #FFF6F6F6",
"F. c #FFF7F7F7",
"G. c #FFF8F8F8",
"H. c #FFF9F9F9",
"J. c #FFFAFAFA",
"K. c #FFFBFBFB",
"L. c #FFFCFCFC",
"P. c #FFFDFDFD",
"I. c #FFFEFEFE",
"U. c #FFFFFFF1",
/* pixels */
"                                                                                                                                                                                                                                                                ",
"                                                                                                                                                                                                                                                                ",
"                                                                                                                                                                                                                                                                ",
"                                                                                                                                                                                                                                                                ",
"                                                                                                                                                                                                                                                                ",
"                                                                                                                                                                                                                                                                ",
"                                                                                                                                                                                                                                                                ",
"                                                                                                                                                                                                                                                                ",
"                                                                                                                                                                                                                                                                ",
"                                                                                                                                                                                                                                                                ",
"                                                                                                                                                                                                                                                                ",
"                                                                                                                                                                                                                                                                ",
"                                                                                                                                                                                                                                                                ",
"                                                                                                                                                                                                                                                                ",
"                                                                                                                                                                                                                                                                ",
"                                                                                                                                                                                                                                                                ",
"                                                                                                                                                                                                                                                                ",
"                                                                                                                                                        : : @ @ @ @ @ @ o @ : U   u.                                                                            ",
"                                                                                                                                                  i : 4 @ @ @ @ @ @ @ @ i J v 8. .u.d ;.U.                                                                      ",
"                                                                                                                                                i @ @ @ @ @ @ @ @ @ @ v j.U.3.3.;.c.$.j.c.F.                                                                    ",
"                                                                                                                                              ( : @ @ @ @ @ @ @ @ @ : <.F.c.<.8.j.F.j.j.c.c.                                                                    ",
"                                                                                                                                              ! @ @ @ @ @ @ @ @ @ o 5 u.<.;.( j.u.c.8.u.3.j.                                                                    ",
"                                                                                                                                          c : i @ @ @ @ @ @ @ o 4 e 5 u.U.U.c.j.$.j.u.u.u.                                                                      ",
"                                                                                                                                      C 4 @ @ o @ : @ @ @ @ : S $.$.5 8.U.U.U.c. .F.8.U.U.                                                                      ",
"                                                                                                                        i : @ @ @ @ @ @ @ @ : k { v o @ k { W j.U.3.4 U { 8.F.c.) F.$.c.                                                                        ",
"                                                                                                                      ) : @ @ @ @ @ @ @ @ @ v j.c.J d i u.U.u.c.j.8.i 3.u.c.8.j. .                                                                              ",
"                                                                                                              k : @ @ e @ @ @ @ @ @ e 4 @ o S c.j.<.j. .j.3.F.c.! S e u.U.U.                                                                                    ",
"                                                                                                          4 e : @ @ @ @ @ @ @ @ : C u.c @ 5 S c.c.U.F.c.$.! F.c.U   : ;.U.                                                                                      ",
"                                                                                                        e @ @ @ @ @ @ @ @ @ i $.J ) U.C ) j.$.c.c.3.c.F.<.$.j.c.                                                                                                ",
"                                                                                                k : @ 5 : @ @ @ @ @ @ i i @ U U. .;.F. .j.c.j.c.c.! 8.c.F.F.;.j.                                                                                                ",
"                                                                                              J : @ @ @ @ @ @ @ @ @ U c.u.e U U.u.j.F.u.j.j.F.c.j.W 8.<.F.F.                                                                                                    ",
"                                                                                              d @ @ @ @ @ @ @ @ @ d c.U.U.C J U.F.U.U.F.j.<.u.c.j.! 8.                                                                                                          ",
"                                                                                              5 @ @ @ @ @ @ @ @ @ U F.8.F.U J U.U.F.F.F.8.8.u.c.j.                                                                                                              ",
"                                                                                            $.5 @ @ @ @ @ @ @ @ @ { 3.i u.U J F.c.8.c.8.U.F.<.                                                                                                                  ",
"                                                                                            $.5 @ @ @ @ @ @ @ @ @ $. .4 u.U U j.3.$.j.;.F.                                                                                                                      ",
"                                                                                              5 @ @ @ @ @ @ @ @ @ $.<.S c.C J u. .$.                                                                                                                            ",
"                                                                                              i @ @ @ @ @ @ @ @ @  .U.c.F.d U F.                                                                                                                                ",
"                                                                                              C @ @ @ @ @ @ @ @ @ ! U.U.F.                                                                                                                                      ",
"                                                                                                              @ o v F.F.                                                                                                                                        ",
"                                                                                                                                                                                                                                                                ",
"                                                                                                                                                                                                                                                                ",
"                                                                                                                                                                                                                                                                ",
"                                                                                                                                                                                                                                                                ",
"                                                                                                                                                                                                                                                                ",
"                                                                                                                                                                                                                                                                ",
"                                                                                                                                                                                                                                                                ",
"                                                                                                                                                                                                                                                                ",
"                                                                                                                                                                                                                                                                ",
"                                                                                                                                                                                                                                                                ",
"                                                                                                                                                                                                                                                                ",
"                                                                                                                                                                                                                                                                ",
"                                                                                                                                                                                                                                                                ",
"                                                                                                                                                                                                                                                                ",
"                                                                                                                                                                                                                                                                "
};
