/* XPM */
static char *oms_348[] = {
/* columns rows colors chars-per-pixel */
"128 54 194 2 ",
"   c #00000000",
".  c #FF040404",
"X  c #FF0E0E0E",
"o  c #FF0F0F0F",
"O  c #FF101010",
"+  c #FF111111",
"@  c #FF121212",
"#  c #FF131313",
"$  c #FF141414",
"%  c #FF151515",
"&  c #FF161616",
"*  c #FF171717",
"=  c #FF181818",
"-  c #FF191919",
";  c #FF1A1A1A",
":  c #FF1B1B1B",
">  c #FF1C1C1C",
",  c #FF1D1D1D",
"<  c #FF1E1E1E",
"1  c #FF1F1F1F",
"2  c #FF202020",
"3  c #FF212121",
"4  c #FF222222",
"5  c #FF232323",
"6  c #FF242424",
"7  c #FF262626",
"8  c #FF282828",
"9  c #FF292929",
"0  c #FF2A2A2A",
"q  c #FF2B2B2B",
"w  c #FF2C2C2C",
"e  c #FF2D2D2D",
"r  c #FF303030",
"t  c #FF313131",
"y  c #FF323232",
"u  c #FF333333",
"i  c #FF343434",
"p  c #FF363636",
"a  c #FF373737",
"s  c #FF3D3D3D",
"d  c #FF3E3E3E",
"f  c #FF3F3F3F",
"g  c #FF404040",
"h  c #FF414141",
"j  c #FF434343",
"k  c #FF444444",
"l  c #FF454545",
"z  c #FF474747",
"x  c #FF484848",
"c  c #FF4A4A4A",
"v  c #FF4B4B4B",
"b  c #FF4F4F4F",
"n  c #FF505050",
"m  c #FF525252",
"M  c #FF535353",
"N  c #FF545454",
"B  c #FF555555",
"V  c #FF575757",
"C  c #FF595959",
"Z  c #FF5A5A5A",
"A  c #FF5B5B5B",
"S  c #FF5C5C5C",
"D  c #FF5E5E5E",
"F  c #FF5F5F5F",
"G  c #FF616161",
"H  c #FF636363",
"J  c #FF646464",
"K  c #FF656565",
"L  c #FF666666",
"P  c #FF676767",
"I  c #FF686868",
"U  c #FF6B6B6B",
"Y  c #FF6C6C6C",
"T  c #FF6E6E6E",
"R  c #FF707070",
"E  c #FF717171",
"W  c #FF727272",
"Q  c #FF747474",
"!  c #FF787878",
"~  c #FF7A7A7A",
"^  c #FF7B7B7B",
"/  c #FF7E7E7E",
"(  c #FF808080",
")  c #FF818181",
"_  c #FF828282",
"`  c #FF858585",
"'  c #FF868686",
"]  c #FF878787",
"[  c #FF888888",
"{  c #FF8A8A8A",
"}  c #FF8C8C8C",
"|  c #FF8F8F8F",
" . c #FF909090",
".. c #FF919191",
"X. c #FF929292",
"o. c #FF939393",
"O. c #FF959595",
"+. c #FF969696",
"@. c #FF979797",
"#. c #FF989898",
"$. c #FF999999",
"%. c #FF9A9A9A",
"&. c #FF9B9B9B",
"*. c #FF9C9C9C",
"=. c #FF9D9D9D",
"-. c #FF9E9E9E",
";. c #FFA0A0A0",
":. c #FFA3A3A3",
">. c #FFA4A4A4",
",. c #FFA5A5A5",
"<. c #FFA6A6A6",
"1. c #FFA9A9A9",
"2. c #FFAAAAAA",
"3. c #FFABABAB",
"4. c #FFACACAC",
"5. c #FFADADAD",
"6. c #FFAEAEAE",
"7. c #FFB0B0B0",
"8. c #FFB1B1B1",
"9. c #FFB2B2B2",
"0. c #FFB2B2B2",
"q. c #FFB4B4B4",
"w. c #FFB5B5B5",
"e. c #FFB6B6B6",
"r. c #FFB7B7B7",
"t. c #FFB8B8B8",
"y. c #FFB9B9B9",
"u. c #FFBABABA",
"i. c #FFBBBBBB",
"p. c #FFBCBCBC",
"a. c #FFBDBDBD",
"s. c #FF808080",
"d. c #FFBFBFBF",
"f. c #FFC0C0C0",
"g. c #FFC1C1C1",
"h. c #FFC3C3C3",
"j. c #FFC4C4C4",
"k. c #FFC5C5C5",
"l. c #FFC6C6C6",
"z. c #FFC7C7C7",
"x. c #FFC8C8C8",
"c. c #FFC9C9C9",
"v. c #FFCACACA",
"b. c #FFCBCBCB",
"n. c #FFCCCCCC",
"m. c #FFCDCDCD",
"M. c #FFCECECE",
"N. c #FFCFCFCF",
"B. c #FFD0D0D0",
"V. c #FFD1D1D1",
"C. c #FFD2D2D2",
"Z. c #FFD3D3D3",
"A. c #FFD4D4D4",
"S. c #FFD5D5D5",
"D. c #FFD6D6D6",
"F. c #FFD8D8D8",
"G. c #FFD9D9D9",
"H. c #FFDADADA",
"J. c #FFDBDBDB",
"K. c #FFDCDCDC",
"L. c #FFDDDDDD",
"P. c #FFDEDEDE",
"I. c #FFDFDFDF",
"U. c #FFE0E0E0",
"Y. c #FFE1E1E1",
"T. c #FFE2E2E2",
"R. c #FFE4E4E4",
"E. c #FFE6E6E6",
"W. c #FFE6E6E6",
"Q. c #FFE7E7E7",
"!. c #FFE8E8E8",
"~. c #FFE9E9E9",
"^. c #FFEAEAEA",
"/. c #FFEBEBEB",
"(. c #FFECECEC",
"). c #FFEDEDED",
"_. c #FFEEEEEE",
"`. c #FFEFEFEF",
"'. c #FFF0F0F0",
"]. c #FFF1F1F1",
"[. c #FFF2F2F2",
"{. c #FFF3F3F3",
"}. c #FFF4F4F4",
"|. c #FFF5F5F5",
" X c #FFF6F6F6",
".X c #FFF7F7F7",
"XX c #FFF8F8F8",
"oX c #FFF9F9F9",
"OX c #FFFAFAFA",
"+X c #FFFBFBFB",
"@X c #FFFCFCFC",
"#X c #FFFDFDFD",
"$X c #FFFEFEFE",
"%X c #FFFFFFF1",
/* pixels */
"                                                                                                                                                                                                                                                                ",
"                                                                                                                                                                                                                                                                ",
"                                                                                                                                                                                                                                                                ",
"                                                                                                                                                                                                                                                                ",
"                                                                                                                                                                                                                                                                ",
"                                                                                                                                                                                                                                                                ",
"                                                                                                                                                                                                                                                                ",
"                                                                                                                                                                                                                                                                ",
"                                                                                                                                                                                                                                                                ",
"                                                                                                                                                                                                                                                                ",
"                                                                                                                                                                                                                                                                ",
"                                                                                                                                                                                                                                                                ",
"                                                                                                                                                                                                                                                                ",
"                                                                                                                                                                                                                                                                ",
"                                                                                                                                                                                                                                                                ",
"                                                                                                                                                                                                                                                                ",
"                                                                                                                                                                                                                                                                ",
"                                                                                                                                                                                                                                                                ",
"                                                                                                                                                                                                                                                                ",
"                                                                                                                                                                                                                                                                ",
"                                                                                                                                                                                                                                                                ",
"                                                                                                                                                                                                                                                                ",
"               X X/./.G.7.! p O O O = p       G.7.E O O O I y.    7.D O O O =                     c L L I   O O O                                                                                                                                               ",
"           XoXoXoXoXoXoXoXoXG.I O O O 2 b.oXoXoXoXY.f o f Y.oX X XoXO.O O O =              XoX X/.&.Y./. X7.O O O c                                                          X XG.A.b.f.6.! 8 2 b.b.7.&.2 8                                                     ",
"        oXoXoXoXoX/./.oXoXoXoX/.g O O 2 b.oXoXoXoXoX&.O >.oXoXoXoXoX&.O O 2 f         o O f.oXoX X>. XoXoXy.O O = c                                                      XoXoXoXoXoXoXoXoXoXb.m Y.oXoXY.p O.Y.G.G.L O                                           ",
"        oXoXoX X) p p E /.oXoXoX{ O O 2 b.oXoXoXoXoXY.! /.oXoXoXoXoX&.8 &.A./.oX XY.b.! 2 6.oXoX X>. XoXoXf.L 7.A.A.&.8 O g 7. X X/.b.7.) p 2 O.f.6.O.g O.f.>.f O O     oXoXoXoXf.I 6. X/././.{ y.G.A.7.m f.oXoXoXO.2 =       ! E m 8 O                         ",
"        oXoXoXA.2 o O O y.oXoXoX>.O O 2 b.oXoXoXoXoXoX XoXoXoXoXoXoX>.7.oXoX Xb.b.oXoXoX&.7.oXoX X>. XoXoX X XoXoXoXoX&.D Y.oXoXoX XoXoXoXA.D G.oXoX XY.oXoXoXb.8 O = 7.oXoXoXoX/.f.b./.G.y.E f G. X XG.b.oXoXoXoXoX! L G. X X X XY.b.E = 2                     ",
"        oXoXoX/.D = = g G.oXoXoX&.O O 2 b.oXoX XG. XoXoXoX XY.oXoXoXf./.oXoX XA.A. XoXoXY.b.oXoX X>. XoXoX X6.b.oXoXoXA.b.oXoXoX6.m 7.oXoXoXy.G.oXoXoXG./.oXoX XD o =   oX XoXoXoXoXoXoXoXoX/.{ Y.oXoXY.b.oXoXoXoXoXf./.oXoX/.7.A.oXoX XL O                     ",
"        oXoXoXoX/.f.y.Y.oXoXoX XL O O 2 b.oXoX X{ G.oXoXoX7.>.oXoXoXf./.oXoX/.6.6.A.A.A.b.A.oXoX X>. XoXoXb.= c  XoXoXG.G.oXoX XD . I oXoXoXA.G.oXoX/.g >.oXoXoXI o =     6.f.A.y.6.A.oXoXoXoXG./.oXoXY.m y.oXoXoXO.O.oXoXoX XG.Y.oXoXoX>.O                     ",
"          oXoXoXoXoXoXoXoXoX X>.2 O O p G.oXoXoXL ) oXoX Xm O.oXoXoX6.f.oXoX X6.>.Y././.A.b.oXoX X>./.oXoXy.O f  XoXoXA.y.oXoXoXy.L f.oXoXoXy.G.oXoX/.p p L f.           X/././.7.m O.oXoXoXoXG./.oXoXY.p >.oXoXoX6.>.oXoXoXA.) 6.A.A.A.{ =                     ",
"             X X X X X X XY.>.8          X X X XL p Y.oXy.O >.oXoXoX&.c Y.oXoXoXoXoXoX/.) y.oXoX X>. XoXoXf.O g  XoXoXb.m G.oXoXoXoXoXoXoXY.I G.oXoX/.p o =              XoXoXoXoX X XoXoXoX X&.Y.oXoXY.p &.oXoXoXoXy.Y.oXoX/.7.A. X X XO.=                     ",
"                                                                                                                               X X/. X X       XoXoX/.                     X X X X X X X X X     XoXoXY.p   oX X X X{ ) oXoXoXoXoXoX X/.                        ",
"                                                                                                                                                                                                                                                                ",
"                                                                                                                                                                                                                                                                ",
"                                                                                                                                                                                                                                                                ",
"                                                                                                                                                                                                                                                                ",
"                                                                                                                                                                                                                                                                ",
"                                                                                                                                                                                                                                                                ",
"                                                                                                                                                                                                                                                                ",
"                                                                                                                                                                                                                                                                ",
"                                                                                                                                                                                                                                                                ",
"                                                                                                                                                                                                                                                                ",
"                                                                                                                                                                                                                                                                ",
"                                                                                                                                                                                                                                                                ",
"                                                                                                                                                                                                                                                                ",
"                                                                                                                                                                                                                                                                ",
"                                                                                                                                                                                                                                                                ",
"                                                                                                                                                                                                                                                                ",
"                                                                                                                                                                                                                                                                ",
"                                                                                                                                                                                                                                                                ",
"                                                                                                                                                                                                                                                                ",
"                                                                                                                                                                                                                                                                ",
"                                                                                                                                                                                                                                                                ",
"                                                                                                                                                                                                                                                                "
};
