/* XPM */
static char *oms_355[] = {
/* columns rows colors chars-per-pixel */
"128 54 172 2 ",
"   c #00000000",
".  c #FF0D0D0D",
"X  c #FF0E0E0E",
"o  c #FF0F0F0F",
"O  c #FF101010",
"+  c #FF111111",
"@  c #FF121212",
"#  c #FF131313",
"$  c #FF141414",
"%  c #FF151515",
"&  c #FF171717",
"*  c #FF181818",
"=  c #FF191919",
"-  c #FF1A1A1A",
";  c #FF1B1B1B",
":  c #FF1C1C1C",
">  c #FF1D1D1D",
",  c #FF1F1F1F",
"<  c #FF212121",
"1  c #FF222222",
"2  c #FF232323",
"3  c #FF242424",
"4  c #FF252525",
"5  c #FF262626",
"6  c #FF272727",
"7  c #FF323232",
"8  c #FF333333",
"9  c #FF343434",
"0  c #FF363636",
"q  c #FF383838",
"w  c #FF3C3C3C",
"e  c #FF3D3D3D",
"r  c #FF3E3E3E",
"t  c #FF404040",
"y  c #FF414141",
"u  c #FF444444",
"i  c #FF464646",
"p  c #FF474747",
"a  c #FF4A4A4A",
"s  c #FF4B4B4B",
"d  c #FF4F4F4F",
"f  c #FF505050",
"g  c #FF535353",
"h  c #FF555555",
"j  c #FF565656",
"k  c #FF575757",
"l  c #FF595959",
"z  c #FF5B5B5B",
"x  c #FF5C5C5C",
"c  c #FF5E5E5E",
"v  c #FF5F5F5F",
"b  c #FF646464",
"n  c #FF666666",
"m  c #FF676767",
"M  c #FF6B6B6B",
"N  c #FF6D6D6D",
"B  c #FF6E6E6E",
"V  c #FF717171",
"C  c #FF727272",
"Z  c #FF737373",
"A  c #FF747474",
"S  c #FF757575",
"D  c #FF787878",
"F  c #FF7A7A7A",
"G  c #FF7D7D7D",
"H  c #FF808080",
"J  c #FF828282",
"K  c #FF858585",
"L  c #FF868686",
"P  c #FF888888",
"I  c #FF898989",
"U  c #FF8B8B8B",
"Y  c #FF8C8C8C",
"T  c #FF8D8D8D",
"R  c #FF8E8E8E",
"E  c #FF8F8F8F",
"W  c #FF909090",
"Q  c #FF919191",
"!  c #FF969696",
"~  c #FF979797",
"^  c #FF989898",
"/  c #FF999999",
"(  c #FF9B9B9B",
")  c #FF9C9C9C",
"_  c #FF9D9D9D",
"`  c #FF9E9E9E",
"'  c #FF9F9F9F",
"]  c #FFA1A1A1",
"[  c #FFA3A3A3",
"{  c #FFA4A4A4",
"}  c #FFA5A5A5",
"|  c #FFA6A6A6",
" . c #FFA7A7A7",
".. c #FFA9A9A9",
"X. c #FFABABAB",
"o. c #FFACACAC",
"O. c #FFADADAD",
"+. c #FFAEAEAE",
"@. c #FFAFAFAF",
"#. c #FFB0B0B0",
"$. c #FFB1B1B1",
"%. c #FFB4B4B4",
"&. c #FFB5B5B5",
"*. c #FFB6B6B6",
"=. c #FFB7B7B7",
"-. c #FFB8B8B8",
";. c #FFBABABA",
":. c #FFBBBBBB",
">. c #FFBCBCBC",
",. c #FF808080",
"<. c #FFBFBFBF",
"1. c #FFC0C0C0",
"2. c #FFC3C3C3",
"3. c #FFC4C4C4",
"4. c #FFC5C5C5",
"5. c #FFC6C6C6",
"6. c #FFC7C7C7",
"7. c #FFC8C8C8",
"8. c #FFC9C9C9",
"9. c #FFCACACA",
"0. c #FFCBCBCB",
"q. c #FFCCCCCC",
"w. c #FFCDCDCD",
"e. c #FFCECECE",
"r. c #FFCFCFCF",
"t. c #FFD0D0D0",
"y. c #FFD1D1D1",
"u. c #FFD2D2D2",
"i. c #FFD3D3D3",
"p. c #FFD4D4D4",
"a. c #FFD5D5D5",
"s. c #FFD6D6D6",
"d. c #FFD7D7D7",
"f. c #FFD8D8D8",
"g. c #FFD9D9D9",
"h. c #FFDADADA",
"j. c #FFDBDBDB",
"k. c #FFDCDCDC",
"l. c #FFDDDDDD",
"z. c #FFDEDEDE",
"x. c #FFDFDFDF",
"c. c #FFE0E0E0",
"v. c #FFE1E1E1",
"b. c #FFE2E2E2",
"n. c #FFE3E3E3",
"m. c #FFE4E4E4",
"M. c #FFE6E6E6",
"N. c #FFE6E6E6",
"B. c #FFE7E7E7",
"V. c #FFE8E8E8",
"C. c #FFE9E9E9",
"Z. c #FFEAEAEA",
"A. c #FFEBEBEB",
"S. c #FFECECEC",
"D. c #FFEDEDED",
"F. c #FFEEEEEE",
"G. c #FFEFEFEF",
"H. c #FFF0F0F0",
"J. c #FFF1F1F1",
"K. c #FFF2F2F2",
"L. c #FFF3F3F3",
"P. c #FFF4F4F4",
"I. c #FFF5F5F5",
"U. c #FFF6F6F6",
"Y. c #FFF7F7F7",
"T. c #FFF8F8F8",
"R. c #FFF9F9F9",
"E. c #FFFAFAFA",
"W. c #FFFBFBFB",
"Q. c #FFFCFCFC",
"!. c #FFFDFDFD",
"~. c #FFFFFFF1",
/* pixels */
"                                                                                                                                                                                                                                                                ",
"                                                                                                                                                                                                                                                                ",
"                                                                                                                                                                                                                                                                ",
"                                                                                                                                                                                                                                                                ",
"                                                                                                                                                                                                                                                                ",
"                                                                                                                                                                                                                                                                ",
"                                                                                                                                                                                                                                                                ",
"                                                                                                                                                                                                                                                                ",
"                                                                                                                                                                                                                                                                ",
"                                                                                                                                                                                                                                                                ",
"                                                                                                                                                                                                                                                                ",
"                                                                                                                                                                                                                                                                ",
"                                                                                                                                                                                                                                                                ",
"                                                                                                                                                                                                                                                                ",
"                                                                                                                                                                                                                                                                ",
"                                                                                                                                                                                                                                                                ",
"                                                                                                                                                                                                                                                                ",
"                                                                                                                                                                                                                                                                ",
"                                                                                                                                                                                                                                                                ",
"                                                                                                                                                                                                                                                                ",
"                                                                                                                                                                                                                                                                ",
"                                                                                                                                                                                                                                                                ",
"                Y.Y.A.<.P g , O O               =. .1 O O z           1 O O                                                                                                                                                                                     ",
"          Y.R.R.R.R.R.R.R.A.<.t O O ,   Y.R.Y.Y.Y.Y.b . , +.R.R.R.Y.A.q O O z               Y.Y.Y.Y.=.A.Y.Y.3.1 O                                                             Y.Y.Y.Y.Y.Y.A.B.a.` 9  .Y.A.A.W 9   3.3.=.                                        ",
"        R.R.R.R.R.Y.Y.R.R.R.R.a.9 O O , r.R.R.R.R.R.3., g Y.R.R.R.R.Y.q . , M               A.R.R.Y.<.Y.R.R.r.1 O g                                                         Y.R.R.R.Y.B.Y.R.R.R.R.+.L A.A.Y.` t Y.R.R.A.z                                       ",
"      Y.R.R.R.A.P g z +.R.R.R.R.G O O , <.R.R.R.R.R.Y.G <.R.R.R.R.R.Y.q g =.B.R.R.A.k.3.V 1 r.R.R.Y.=.Y.R.R.a.M <.A.A.3.z O a B.Y.Y.A.A.k.3.P 9 g B.r.r.` b a.Y.r.z O       R.R.R.R.k.V P B.B.a.<. .` a.a.k.+.<.Y.R.R.Y.<.a   r.3.a.r.r.=.W                     ",
"      R.R.R.R. .O . . q A.R.R.R.` O O , <.R.R.R.R.R.R.A.Y.R.R.R.R.R.A.G B.R.R.A.<.k.R.R.Y.P r.R.R.Y.=.Y.R.R.Y.R.R.R.R.R.k.g r.R.R.R.Y.Y.R.R.R.3.L R.R.R.Y.Y.R.R.R.B.9 1     R.R.R.R.R.Y.A.Y.A.B.<.g W R.R.R.k.Y.R.R.R.R.Y.W A.R.R.Y.A.Y.R.R.a.V                 ",
"      R.R.R.R.<.1 O O t B.R.R.R.` O O , <.R.R.R.k.Y.R.R.R.R.A.Y.R.R.A.<.R.R.R.A.3.k.R.R.R.k.k.R.R.Y.=.Y.R.R.Y. . .Y.R.R.A.=.R.R.R.k.a z A.R.R.Y.3.Y.R.R.A.+.B.R.R.R.z ,       B.A.Y.Y.R.R.R.R.R.R.k.+.R.R.R.3.3.R.R.R.Y.k.k.R.R.R.k.+.k.R.R.R.3.                ",
"      Y.R.R.R.Y.3.W W a.R.R.R.R.M O O 1 r.R.R.R.` <.R.R.R.A.P Y.R.R.A.3.R.R.R.B. .=.a.a.k.3.k.R.R.Y.=.Y.R.R.a.1 1 B.R.R.A.3.R.R.R.<.O 1 k.R.R.R.a.Y.R.R.a.1 =.R.R.R.b       3. .<.a.=.V +.Y.R.R.R.Y.a.R.R.R. .a R.R.R.Y.b r.R.R.R.A.B.A.A.A.A.r.                ",
"        R.R.R.R.R.R.R.R.R.R.R.<.1 O ,   Y.R.R.R.L z Y.R.R. .a Y.R.R.A.P A.R.R.B.` <.A.A.A.r.k.R.R.Y.=.Y.R.R.r.1 1 k.R.R.A.` Y.R.R.A.` ` Y.R.R.A.+.Y.R.R.a., a               R.R.R.R.A.` +.Y.R.R.R.A.3.R.R.R. .t R.R.R.R.a.r.R.R.R.r.V =.k.k.k.r.                ",
"          Y.Y.R.R.Y.Y.R.R.Y.+.9 O       R.R.R.R.P , r.R.A.t t Y.R.R.Y.t W R.R.R.R.R.R.R.A.G a.R.Y.Y.<.Y.Y.R.r.1 1 B.R.R.A.g ` R.R.R.R.R.R.R.R.=.L R.R.R.a., q               Y.Y.R.R.R.R.R.R.R.R.Y.a.r.R.R.R. .9 R.R.R.R.Y.W A.R.R.R.Y.Y.R.R.Y.                  ",
"                                                                                                                                  Y.A.A.Y.                                        Y.R.R.R.R.Y.        A.A.A.      A.A.Y.A.      Y.Y.Y.Y.Y.Y.                    ",
"                                                                                                                                                                                                                                                                ",
"                                                                                                                                                                                                                                                                ",
"                                                                                                                                                                                                                                                                ",
"                                                                                                                                                                                                                                                                ",
"                                                                                                                                                                                                                                                                ",
"                                                                                                                                                                                                                                                                ",
"                                                                                                                                                                                                                                                                ",
"                                                                                                                                                                                                                                                                ",
"                                                                                                                                                                                                                                                                ",
"                                                                                                                                                                                                                                                                ",
"                                                                                                                                                                                                                                                                ",
"                                                                                                                                                                                                                                                                ",
"                                                                                                                                                                                                                                                                ",
"                                                                                                                                                                                                                                                                ",
"                                                                                                                                                                                                                                                                ",
"                                                                                                                                                                                                                                                                ",
"                                                                                                                                                                                                                                                                ",
"                                                                                                                                                                                                                                                                ",
"                                                                                                                                                                                                                                                                ",
"                                                                                                                                                                                                                                                                ",
"                                                                                                                                                                                                                                                                ",
"                                                                                                                                                                                                                                                                "
};
