/* XPM */
static char *oms_237[] = {
/* columns rows colors chars-per-pixel */
"128 54 193 2 ",
"   c #00000000",
".  c #FF080808",
"X  c #FF0C0C0C",
"o  c #FF0D0D0D",
"O  c #FF0E0E0E",
"+  c #FF0F0F0F",
"@  c #FF101010",
"#  c #FF111111",
"$  c #FF121212",
"%  c #FF131313",
"&  c #FF141414",
"*  c #FF151515",
"=  c #FF161616",
"-  c #FF171717",
";  c #FF181818",
":  c #FF191919",
">  c #FF1A1A1A",
",  c #FF1B1B1B",
"<  c #FF1C1C1C",
"1  c #FF1D1D1D",
"2  c #FF1E1E1E",
"3  c #FF202020",
"4  c #FF212121",
"5  c #FF222222",
"6  c #FF232323",
"7  c #FF242424",
"8  c #FF252525",
"9  c #FF262626",
"0  c #FF272727",
"q  c #FF282828",
"w  c #FF292929",
"e  c #FF2A2A2A",
"r  c #FF2B2B2B",
"t  c #FF2C2C2C",
"y  c #FF2D2D2D",
"u  c #FF2E2E2E",
"i  c #FF2F2F2F",
"p  c #FF313131",
"a  c #FF333333",
"s  c #FF343434",
"d  c #FF353535",
"f  c #FF363636",
"g  c #FF373737",
"h  c #FF393939",
"j  c #FF3A3A3A",
"k  c #FF3B3B3B",
"l  c #FF3C3C3C",
"z  c #FF3D3D3D",
"x  c #FF3F3F3F",
"c  c #FF414141",
"v  c #FF434343",
"b  c #FF444444",
"n  c #FF454545",
"m  c #FF474747",
"M  c #FF484848",
"N  c #FF494949",
"B  c #FF4B4B4B",
"V  c #FF4C4C4C",
"C  c #FF4E4E4E",
"Z  c #FF4F4F4F",
"A  c #FF505050",
"S  c #FF515151",
"D  c #FF525252",
"F  c #FF535353",
"G  c #FF555555",
"H  c #FF585858",
"J  c #FF595959",
"K  c #FF5A5A5A",
"L  c #FF5B5B5B",
"P  c #FF5C5C5C",
"I  c #FF5E5E5E",
"U  c #FF5F5F5F",
"Y  c #FF646464",
"T  c #FF656565",
"R  c #FF676767",
"E  c #FF686868",
"W  c #FF696969",
"Q  c #FF6A6A6A",
"!  c #FF6B6B6B",
"~  c #FF6C6C6C",
"^  c #FF6D6D6D",
"/  c #FF6E6E6E",
"(  c #FF717171",
")  c #FF727272",
"_  c #FF737373",
"`  c #FF757575",
"'  c #FF767676",
"]  c #FF777777",
"[  c #FF787878",
"{  c #FF797979",
"}  c #FF7D7D7D",
"|  c #FF7E7E7E",
" . c #FF808080",
".. c #FF808080",
"X. c #FF828282",
"o. c #FF838383",
"O. c #FF858585",
"+. c #FF898989",
"@. c #FF8C8C8C",
"#. c #FF8D8D8D",
"$. c #FF8E8E8E",
"%. c #FF8F8F8F",
"&. c #FF909090",
"*. c #FF919191",
"=. c #FF929292",
"-. c #FF939393",
";. c #FF969696",
":. c #FF979797",
">. c #FF9B9B9B",
",. c #FF9D9D9D",
"<. c #FF9E9E9E",
"1. c #FF9F9F9F",
"2. c #FFA0A0A0",
"3. c #FFA1A1A1",
"4. c #FFA3A3A3",
"5. c #FFA4A4A4",
"6. c #FFA5A5A5",
"7. c #FFA6A6A6",
"8. c #FFA8A8A8",
"9. c #FFA9A9A9",
"0. c #FFABABAB",
"q. c #FFACACAC",
"w. c #FFADADAD",
"e. c #FFAEAEAE",
"r. c #FFAFAFAF",
"t. c #FFB0B0B0",
"y. c #FFB2B2B2",
"u. c #FFB2B2B2",
"i. c #FFB4B4B4",
"p. c #FFB5B5B5",
"a. c #FFB7B7B7",
"s. c #FFB8B8B8",
"d. c #FFBBBBBB",
"f. c #FFBCBCBC",
"g. c #FFBDBDBD",
"h. c #FF808080",
"j. c #FFBFBFBF",
"k. c #FFC2C2C2",
"l. c #FFC4C4C4",
"z. c #FFC5C5C5",
"x. c #FFC7C7C7",
"c. c #FFC8C8C8",
"v. c #FFC9C9C9",
"b. c #FFCBCBCB",
"n. c #FFCCCCCC",
"m. c #FFCDCDCD",
"M. c #FFCECECE",
"N. c #FFCFCFCF",
"B. c #FFD0D0D0",
"V. c #FFD1D1D1",
"C. c #FFD3D3D3",
"Z. c #FFD5D5D5",
"A. c #FFD6D6D6",
"S. c #FFD7D7D7",
"D. c #FFD8D8D8",
"F. c #FFD9D9D9",
"G. c #FFDBDBDB",
"H. c #FFDCDCDC",
"J. c #FFDDDDDD",
"K. c #FFDEDEDE",
"L. c #FFDFDFDF",
"P. c #FFE0E0E0",
"I. c #FFE1E1E1",
"U. c #FFE2E2E2",
"Y. c #FFE3E3E3",
"T. c #FFE4E4E4",
"R. c #FFE6E6E6",
"E. c #FFE6E6E6",
"W. c #FFE7E7E7",
"Q. c #FFE8E8E8",
"!. c #FFE9E9E9",
"~. c #FFEAEAEA",
"^. c #FFEBEBEB",
"/. c #FFECECEC",
"(. c #FFEDEDED",
"). c #FFEEEEEE",
"_. c #FFEFEFEF",
"`. c #FFF0F0F0",
"'. c #FFF1F1F1",
"]. c #FFF2F2F2",
"[. c #FFF3F3F3",
"{. c #FFF4F4F4",
"}. c #FFF5F5F5",
"|. c #FFF6F6F6",
" X c #FFF7F7F7",
".X c #FFF8F8F8",
"XX c #FFF9F9F9",
"oX c #FFFAFAFA",
"OX c #FFFBFBFB",
"+X c #FFFCFCFC",
"@X c #FFFDFDFD",
"#X c #FFFEFEFE",
"$X c #FFFFFFFF",
/* pixels */
"                                                                                                                                                                                                                                                                ",
"                                                                                                                                                                                                                                                                ",
"                                                                                                                                                                                                                                                                ",
"                                                                                                                                                                                                                                                                ",
"                                                                                                                                                                                                                                                                ",
"                                                                                                                                                                                                                                                                ",
"                                                                                                                                                                                                                                                                ",
"                                                                                                                                                                                                                                                                ",
"                                                                                                                                                                                                                                                                ",
"                                                                                                                                                                                                                                                                ",
"                                                                                                                                                                          b 7 2 $                                                                               ",
"                                                                                                                                                                      b 2 $ $ $ $ $ $ $ +                                                                       ",
"                                                                                                                                                                    M $ $ $ $ $ $ $ $ $ M ,.J.|.                                                                ",
"                                                                                                                                                        U a 2 $ $ a $ $ $ $ $ $ $ $ 7 *.|.@X@X@X@X                                                              ",
"                                                                                                                                                      T $ $ $ $ $ $ $ $ $ 2 z z $ $ %.@X@X/./.@X@X                                                              ",
"                                                                                                                                            ^ a 7 $ $ 2 $ $ $ $ $ $ $ $ T g./.%.+ a P.@Xa.a ` |.@X                                                              ",
"                                                                                                                                            z $ $ $ $ $ $ $ $ 2 z ` a 7 J.@X@X%.+ U |.|.D + U |.@X                                                              ",
"                                                                                                                                            z $ $ $ $ $ $ $ 7 9.P.@Xo.D |.@X@X%.+ ^ @X|.T e a.@X|.                                                              ",
"                                                                                                                          T z 2 $ $         e $ $ $ $ $ $ $ a /.@X@Xm.,.@X@X@X%.+ T @X@XP.J.@X@X|.                                                              ",
"                                                                                                                    o.z 7 2 $ $ $ $ $ $ $ $ $ a b $ $ $ $ $ e /.@X@X|./.|.|.@X%.+ M /.@X@X@X@X|.                                                                ",
"                                                                                                                    U $ $ $ $ $ $ $ $ $ a U *./.9.$ 7 ^ 5.9.^ P.@X@X@X@XJ.P.@Xm.  7 l.|.|.|.                                                                    ",
"                                                                                                                    U $ $ $ $ $ $ $ $ D P.P.V.@X9.z l.|.@X@XJ./.@XJ.|.@X5.V.@X@X                                                                                ",
"                                                                                                                M 7 e $ $ $ $ $ $ $ + ^ @XP.m.@Xa.g.@Xg.J.@X@X@X@X,.V.|.` m.@X                                                                                  ",
"                                                                                                              b $ $ $ $ $ $ $ $ $ 7 z ` @XP.m.@XV./.|.J./.@XP.|.@X*.5.@X                                                                                        ",
"                                                                                                    D e $ $ 2 $ $ $ $ $ $ $ $ + b m./.P.@XP.m.@XP.J.J.%.V.@X9.P.|.                                                                                              ",
"                                                                                                  a $ $ $ $ $ $ $ $ $ 7 U ,.5.M a.@X/.P.@XP.m.@XJ.P.|.|.@X|.                                                                                                    ",
"                                                                          D 7             M 7 $ $ $ $ $ $ $ $ $ 2 2 b l.@X@X@Xm.J.@X*.} @XP.m.@XV.J.@X|.                                                                                                        ",
"                                                                      b 7 $ $ $ $ $ $ 2 $ $ $ a b 7 $ $ $ 7 7 ^ g.o.l.@Xg.V.@X/./.@X` T @XP.m.@X                                                                                                                ",
"                                                                  D 7 $ $ $ $ $ $ $ $ $ 7 ^ a.P.|.9.2 $ M m.m./.@Xl.|./.a %.@XJ.P.@X} ^ |./.                                                                                                                    ",
"                                                            b 2 $ $ $ $ $ $ $ $ $ e a a g.@X@X@X@XJ.e 2 g.@X|.|.|.V.|./.^ m.@X9.J.@X                                                                                                                            ",
"                                                      U a e 2 $ $ $ $ $ $ $ $ $ ` J.9.9.@XP.*.P.@XV.7 e P.@X%.J.@Xm.|.@X|.@X|.                                                                                                                                  ",
"                                                    5.2 $ $ $ $ $ $ $ $ $ a ` U 9.|.a.g.V.J.V.@X@Xo.$ a V.a.M V.@X9.P.@X|.                                                                                                                                      ",
"                                                    ` $ $ $ $ $ $ $ $ $ 2 g.@X5.,.P.5.} /.@X@X/.a.} e 2 z 2 7 V.@X                                                                                                                                              ",
"                                              M   b e $ $ $ $ $ $ $ + + a V.@X/.J.@Xl.J.@X/.*.m./.|.                                                                                                                                                            ",
"                                          U 7 $ $ $ $ $ $ $ $ $ 2 M ` U o.@X@X/.J.@XJ.|.@XP.5.|.@X|.                                                                                                                                                            ",
"                                        ^ $ $ $ $ $ $ $ $ $ $ z a.|.@X/.g.|.@X5.a.@XJ./.@X@X@X@X|.                                                                                                                                                              ",
"                                        e $ $ $ $ $ $ $ $ $ e m.|.l./.@X,.V.@X%.9.@Xm.V.@X|.|.                                                                                                                                                                  ",
"                                      5.7 $ $ $ $ $ $ $ $ + ^ @X|.J.|.@Xg.P.@X%.9.@X/.                                                                                                                                                                          ",
"                                        e $ $ $ $ $ $ $ $ $ %.|.m.%././.g.@X|.                                                                                                                                                                                  ",
"                                        e $ $ $ $ $ $ $ $ $ } |./.J.@XJ.,.                                                                                                                                                                                      ",
"                                              $ $ $ $ $ $ + ` @X@X@X|.                                                                                                                                                                                          ",
"                                                                                                                                                                                                                                                                ",
"                                                                                                                                                                                                                                                                ",
"                                                                                                                                                                                                                                                                ",
"                                                                                                                                                                                                                                                                ",
"                                                                                                                                                                                                                                                                ",
"                                                                                                                                                                                                                                                                ",
"                                                                                                                                                                                                                                                                ",
"                                                                                                                                                                                                                                                                ",
"                                                                                                                                                                                                                                                                ",
"                                                                                                                                                                                                                                                                ",
"                                                                                                                                                                                                                                                                ",
"                                                                                                                                                                                                                                                                ",
"                                                                                                                                                                                                                                                                "
};
