/* XPM */
static char *oms_327[] = {
/* columns rows colors chars-per-pixel */
"128 54 193 2 ",
"   c #00000000",
".  c #FF0E0E0E",
"X  c #FF0F0F0F",
"o  c #FF101010",
"O  c #FF111111",
"+  c #FF121212",
"@  c #FF131313",
"#  c #FF141414",
"$  c #FF151515",
"%  c #FF161616",
"&  c #FF171717",
"*  c #FF181818",
"=  c #FF191919",
"-  c #FF1A1A1A",
";  c #FF1B1B1B",
":  c #FF1C1C1C",
">  c #FF1D1D1D",
",  c #FF1E1E1E",
"<  c #FF1F1F1F",
"1  c #FF202020",
"2  c #FF212121",
"3  c #FF232323",
"4  c #FF242424",
"5  c #FF252525",
"6  c #FF262626",
"7  c #FF272727",
"8  c #FF282828",
"9  c #FF292929",
"0  c #FF2A2A2A",
"q  c #FF2B2B2B",
"w  c #FF2C2C2C",
"e  c #FF2D2D2D",
"r  c #FF2E2E2E",
"t  c #FF2F2F2F",
"y  c #FF303030",
"u  c #FF313131",
"i  c #FF333333",
"p  c #FF343434",
"a  c #FF353535",
"s  c #FF383838",
"d  c #FF3A3A3A",
"f  c #FF3B3B3B",
"g  c #FF3D3D3D",
"h  c #FF3E3E3E",
"j  c #FF3F3F3F",
"k  c #FF404040",
"l  c #FF414141",
"z  c #FF424242",
"x  c #FF454545",
"c  c #FF464646",
"v  c #FF474747",
"b  c #FF4A4A4A",
"n  c #FF4C4C4C",
"m  c #FF4C4C4C",
"M  c #FF4E4E4E",
"N  c #FF4F4F4F",
"B  c #FF515151",
"V  c #FF535353",
"C  c #FF545454",
"Z  c #FF555555",
"A  c #FF575757",
"S  c #FF585858",
"D  c #FF595959",
"F  c #FF5B5B5B",
"G  c #FF5D5D5D",
"H  c #FF5F5F5F",
"J  c #FF606060",
"K  c #FF616161",
"L  c #FF626262",
"P  c #FF636363",
"I  c #FF656565",
"U  c #FF666666",
"Y  c #FF676767",
"T  c #FF686868",
"R  c #FF696969",
"E  c #FF6A6A6A",
"W  c #FF6B6B6B",
"Q  c #FF6E6E6E",
"!  c #FF717171",
"~  c #FF727272",
"^  c #FF747474",
"/  c #FF757575",
"(  c #FF777777",
")  c #FF787878",
"_  c #FF797979",
"`  c #FF7A7A7A",
"'  c #FF7B7B7B",
"]  c #FF7C7C7C",
"[  c #FF808080",
"{  c #FF818181",
"}  c #FF858585",
"|  c #FF868686",
" . c #FF878787",
".. c #FF888888",
"X. c #FF898989",
"o. c #FF8A8A8A",
"O. c #FF8B8B8B",
"+. c #FF8C8C8C",
"@. c #FF8D8D8D",
"#. c #FF8E8E8E",
"$. c #FF8F8F8F",
"%. c #FF909090",
"&. c #FF919191",
"*. c #FF929292",
"=. c #FF979797",
"-. c #FF989898",
";. c #FF999999",
":. c #FF9A9A9A",
">. c #FF9B9B9B",
",. c #FF9E9E9E",
"<. c #FFA0A0A0",
"1. c #FFA1A1A1",
"2. c #FFA2A2A2",
"3. c #FFA5A5A5",
"4. c #FFA7A7A7",
"5. c #FFAAAAAA",
"6. c #FFABABAB",
"7. c #FFACACAC",
"8. c #FFADADAD",
"9. c #FFAEAEAE",
"0. c #FFB1B1B1",
"q. c #FFB2B2B2",
"w. c #FFB4B4B4",
"e. c #FFB5B5B5",
"r. c #FFB6B6B6",
"t. c #FFB8B8B8",
"y. c #FFB9B9B9",
"u. c #FFBABABA",
"i. c #FFBBBBBB",
"p. c #FFBCBCBC",
"a. c #FFBDBDBD",
"s. c #FF808080",
"d. c #FFBFBFBF",
"f. c #FFC0C0C0",
"g. c #FFC2C2C2",
"h. c #FFC3C3C3",
"j. c #FFC4C4C4",
"k. c #FFC5C5C5",
"l. c #FFC6C6C6",
"z. c #FFC9C9C9",
"x. c #FFCACACA",
"c. c #FFCBCBCB",
"v. c #FFCCCCCC",
"b. c #FFCDCDCD",
"n. c #FFCECECE",
"m. c #FFD0D0D0",
"M. c #FFD1D1D1",
"N. c #FFD2D2D2",
"B. c #FFD3D3D3",
"V. c #FFD4D4D4",
"C. c #FFD5D5D5",
"Z. c #FFD6D6D6",
"A. c #FFD7D7D7",
"S. c #FFD8D8D8",
"D. c #FFD9D9D9",
"F. c #FFDADADA",
"G. c #FFDBDBDB",
"H. c #FFDCDCDC",
"J. c #FFDDDDDD",
"K. c #FFDEDEDE",
"L. c #FFDFDFDF",
"P. c #FFE0E0E0",
"I. c #FFE1E1E1",
"U. c #FFE2E2E2",
"Y. c #FFE3E3E3",
"T. c #FFE4E4E4",
"R. c #FFE6E6E6",
"E. c #FFE6E6E6",
"W. c #FFE7E7E7",
"Q. c #FFE8E8E8",
"!. c #FFE9E9E9",
"~. c #FFEAEAEA",
"^. c #FFEBEBEB",
"/. c #FFECECEC",
"(. c #FFEDEDED",
"). c #FFEEEEEE",
"_. c #FFEFEFEF",
"`. c #FFF0F0F0",
"'. c #FFF1F1F1",
"]. c #FFF2F2F2",
"[. c #FFF3F3F3",
"{. c #FFF4F4F4",
"}. c #FFF5F5F5",
"|. c #FFF6F6F6",
" X c #FFF7F7F7",
".X c #FFF8F8F8",
"XX c #FFF9F9F9",
"oX c #FFFAFAFA",
"OX c #FFFBFBFB",
"+X c #FFFCFCFC",
"@X c #FFFDFDFD",
"#X c #FFFEFEFE",
"$X c #FFFFFFFF",
/* pixels */
"                                                                                                                                                                                                                                                                ",
"                                                                                                                                                                                                                                                                ",
"                                                                                                                                                                                                                                                                ",
"                                                                                                                                                                                                                                                                ",
"                                                                                                                                                                                                                                                                ",
"                                                                                                                                                                                                                                                                ",
"                                                                                                                                                                                                                                                                ",
"                                                                                                                                                                                                                                                                ",
"                                                                                                                                                                                                                                                                ",
"                                                                                                                                                                                                                                                                ",
"                                                                                                                                                                                                                                                                ",
"                                                                                                                                                                                                                                                                ",
"                                                                                                                                                                                                                                                                ",
"                                                                                                                                                                                                                                                                ",
"                                                                                                                                                                                                                                                                ",
"                                                                                                                                                                                                                                                                ",
"                                                                                                                                                                                                                                                                ",
"                                                                                                                                                                                                                                                                ",
"                                                                                                                                                                                                                                                                ",
"                                                                                                                                                                                                                                                                ",
"                            ~.  w.Q 2 $ $ $ $ $ $ < 2                                                                                                                                                                                                           ",
"                      .X.X.X.X.X X~.i.b $ $ $ b i.8.1.,.j $ < b Z x j 2 2 < $ $ $ $ $ (                                                                                                                                                                         ",
"                      .X.X.X.X.X.X.X.XI.j $ . I .X.X.X.X*.. x ~. X X~.( . $ $ $ $ $ $ Q     8.Q Q Z x < $ $ < $ $ $ I                                                                                                                                           ",
"                    .X.X.X~.*.Q 8. X.X.X*.$ . I .X.X.X.Xm.r ,..X.X.X.X) . . $ $ $ . $ S ~..X Xi.I. XD.i $ $ $ $ $ $ S                                                                                                                                           ",
"                    .X.X.Xi.$ . < f..X.Xf.< . I .X.X.X.X Xo.D..X.X.X.X) 2 ( ,.,.*.Q r < f..X.Xf.~..X~.i $ $ $ $ $ $ j                                           1.) x < $ < < < < 2   . $ 2                                                                     ",
"                     X.X.Xx.2 . < f..X.Xx.< . I .X.X.X.X.X X.X.X.X.X.Xo.w..X.X X.X.Xm.Z f..X.Xf.~..X~.I *.8.o.r $ 2 b I I b x < $ < < $ $ < 2   $       .X.X.X.X.X X~.i.x Q m.f.o.< i r 2 $ < 2 $ $ 2                                                           ",
"                     X.X.X Xw.( 1. X.X.Xw.$ . I .X.X~.D..X.X.X~. X.X.Xi. X.X Xw.f..X.Xf.x..X.Xf.~..X X X.X.X.X8.j i. X.X.X XI.*.i ,.i.8.S ( 1.Q < $ $ o..X.X.Xm.f. X.X.Xx.o..X.Xi.x D.D.x.j $ $ $ $ 2                                                           ",
"                      .X.X.X.X.X.X.X.X.X( $ . I .X.XI.o. X.X.X8.m..X.Xf. X.X XI.I. X XI.D..X.Xf.~..X.Xx.D..X.XI.w..X.X~.f.~..X.X1.x..X.X~. X.X XQ $ $ o..X.X.Xf.) x.m.f.1.} m.m.1.}  X.X XI $ $ 2 2 2 r 2 . $ $ $ 2                                             ",
"                         X.X.X.X.X.X X,.2 $ . ) .X.XI.b m..X~.S m..X.Xw.~..X X} o.m.m.i.D..X.Xf.~..X Xx S  X.X~.D..X.Xw.< o..X.XD.D..X.XD.I..X.X8.$ $ b ~..X.X.X.X X XD.( } .X.XD.~..X.X.XD.x ,.m.I.D.i.} r $ $ $ $ < I                                         ",
"                                                 X XI.j 1..Xw.r D..X.X} 8..X.X~.~..X.Xx.m..X.Xf.~..X~.i b  X.X~.m..X.Xi.< o..X.XI.D..X.X) }  X.Xi.$ $ r ) D.I.~. X.X.X.X~.w..X.XD.I..X.X.X~.f..X.XI.D..X.Xw.2 $ $ $ $ i                                         ",
"                                                                             X.X.X.X~.( x..X.Xf.~..X~.i Z  X.X~.} ~..X Xm.~..X.Xf.m..X.X( 2 Z I b $ $ 1.~.D.D.o.S D..X.X XD..X.Xf.I  X.X X*.D..X.XD.i. X.X XZ $ $ $ $ r                                         ",
"                                                                                                           X.X~.x i..X.X.X.X.X~.Q x..X.X( . . . . $   f..X.X.XI.i.~..X.X Xx..X.Xi.x  X.X Xo.D..X.Xm.f.m.I.I.I $ $ $ $ r                                         ",
"                                                                                                                                       X                   X.X.X.X.X.X.Xi.,..X.Xi.x ~..X.X~.m..X.Xf.o.m.D.D.S $ $ $ $ j                                         ",
"                                                                                                                                                                ~. X X       X Xi.r D..X.XI.Q ~..X.X.X.X.XI.j $ $ $                                             ",
"                                                                                                                                                                                                   X.X.X                                                        ",
"                                                                                                                                                                                                                                                                ",
"                                                                                                                                                                                                                                                                ",
"                                                                                                                                                                                                                                                                ",
"                                                                                                                                                                                                                                                                ",
"                                                                                                                                                                                                                                                                ",
"                                                                                                                                                                                                                                                                ",
"                                                                                                                                                                                                                                                                ",
"                                                                                                                                                                                                                                                                ",
"                                                                                                                                                                                                                                                                ",
"                                                                                                                                                                                                                                                                ",
"                                                                                                                                                                                                                                                                ",
"                                                                                                                                                                                                                                                                ",
"                                                                                                                                                                                                                                                                ",
"                                                                                                                                                                                                                                                                ",
"                                                                                                                                                                                                                                                                ",
"                                                                                                                                                                                                                                                                ",
"                                                                                                                                                                                                                                                                ",
"                                                                                                                                                                                                                                                                ",
"                                                                                                                                                                                                                                                                "
};
