/* XPM */
static char *oms_216[] = {
/* columns rows colors chars-per-pixel */
"128 54 199 2 ",
"   c #00000000",
".  c #FF0B0B0B",
"X  c #FF0D0D0D",
"o  c #FF0E0E0E",
"O  c #FF0F0F0F",
"+  c #FF101010",
"@  c #FF111111",
"#  c #FF121212",
"$  c #FF131313",
"%  c #FF141414",
"&  c #FF151515",
"*  c #FF161616",
"=  c #FF171717",
"-  c #FF181818",
";  c #FF191919",
":  c #FF1A1A1A",
">  c #FF1B1B1B",
",  c #FF1C1C1C",
"<  c #FF1D1D1D",
"1  c #FF1E1E1E",
"2  c #FF1F1F1F",
"3  c #FF202020",
"4  c #FF222222",
"5  c #FF232323",
"6  c #FF242424",
"7  c #FF252525",
"8  c #FF262626",
"9  c #FF272727",
"0  c #FF282828",
"q  c #FF292929",
"w  c #FF2A2A2A",
"e  c #FF2B2B2B",
"r  c #FF2C2C2C",
"t  c #FF2D2D2D",
"y  c #FF2F2F2F",
"u  c #FF303030",
"i  c #FF313131",
"p  c #FF323232",
"a  c #FF333333",
"s  c #FF343434",
"d  c #FF353535",
"f  c #FF363636",
"g  c #FF373737",
"h  c #FF383838",
"j  c #FF393939",
"k  c #FF3A3A3A",
"l  c #FF3B3B3B",
"z  c #FF3E3E3E",
"x  c #FF404040",
"c  c #FF414141",
"v  c #FF424242",
"b  c #FF434343",
"n  c #FF444444",
"m  c #FF464646",
"M  c #FF474747",
"N  c #FF484848",
"B  c #FF494949",
"V  c #FF4A4A4A",
"C  c #FF4C4C4C",
"Z  c #FF4E4E4E",
"A  c #FF4F4F4F",
"S  c #FF505050",
"D  c #FF515151",
"F  c #FF525252",
"G  c #FF535353",
"H  c #FF545454",
"J  c #FF575757",
"K  c #FF585858",
"L  c #FF595959",
"P  c #FF5A5A5A",
"I  c #FF5C5C5C",
"U  c #FF5D5D5D",
"Y  c #FF5E5E5E",
"T  c #FF5F5F5F",
"R  c #FF606060",
"E  c #FF616161",
"W  c #FF626262",
"Q  c #FF646464",
"!  c #FF656565",
"~  c #FF6A6A6A",
"^  c #FF6B6B6B",
"/  c #FF6D6D6D",
"(  c #FF6F6F6F",
")  c #FF707070",
"_  c #FF747474",
"`  c #FF757575",
"'  c #FF767676",
"]  c #FF797979",
"[  c #FF7A7A7A",
"{  c #FF7B7B7B",
"}  c #FF7C7C7C",
"|  c #FF808080",
" . c #FF808080",
".. c #FF818181",
"X. c #FF828282",
"o. c #FF838383",
"O. c #FF848484",
"+. c #FF858585",
"@. c #FF888888",
"#. c #FF898989",
"$. c #FF8A8A8A",
"%. c #FF8B8B8B",
"&. c #FF8C8C8C",
"*. c #FF8D8D8D",
"=. c #FF8F8F8F",
"-. c #FF909090",
";. c #FF929292",
":. c #FF939393",
">. c #FF949494",
",. c #FF969696",
"<. c #FF9A9A9A",
"1. c #FF9D9D9D",
"2. c #FF9E9E9E",
"3. c #FFA1A1A1",
"4. c #FFA2A2A2",
"5. c #FFA3A3A3",
"6. c #FFA4A4A4",
"7. c #FFA5A5A5",
"8. c #FFA6A6A6",
"9. c #FFA8A8A8",
"0. c #FFA9A9A9",
"q. c #FFAAAAAA",
"w. c #FFABABAB",
"e. c #FFACACAC",
"r. c #FFADADAD",
"t. c #FFAEAEAE",
"y. c #FFB0B0B0",
"u. c #FFB1B1B1",
"i. c #FFB2B2B2",
"p. c #FFB2B2B2",
"a. c #FFB6B6B6",
"s. c #FFB7B7B7",
"d. c #FFB8B8B8",
"f. c #FFB9B9B9",
"g. c #FFBBBBBB",
"h. c #FFBCBCBC",
"j. c #FFBDBDBD",
"k. c #FFBFBFBF",
"l. c #FFC0C0C0",
"z. c #FFC2C2C2",
"x. c #FFC3C3C3",
"c. c #FFC4C4C4",
"v. c #FFC5C5C5",
"b. c #FFC6C6C6",
"n. c #FFC7C7C7",
"m. c #FFC8C8C8",
"M. c #FFC9C9C9",
"N. c #FFCACACA",
"B. c #FFCBCBCB",
"V. c #FFCCCCCC",
"C. c #FFCDCDCD",
"Z. c #FFCECECE",
"A. c #FFD0D0D0",
"S. c #FFD1D1D1",
"D. c #FFD2D2D2",
"F. c #FFD3D3D3",
"G. c #FFD4D4D4",
"H. c #FFD5D5D5",
"J. c #FFD6D6D6",
"K. c #FFD7D7D7",
"L. c #FFD8D8D8",
"P. c #FFD9D9D9",
"I. c #FFDADADA",
"U. c #FFDBDBDB",
"Y. c #FFDCDCDC",
"T. c #FFDDDDDD",
"R. c #FFDEDEDE",
"E. c #FFDFDFDF",
"W. c #FFE0E0E0",
"Q. c #FFE2E2E2",
"!. c #FFE3E3E3",
"~. c #FFE4E4E4",
"^. c #FFE6E6E6",
"/. c #FFE6E6E6",
"(. c #FFE7E7E7",
"). c #FFE8E8E8",
"_. c #FFE9E9E9",
"`. c #FFEAEAEA",
"'. c #FFEBEBEB",
"]. c #FFECECEC",
"[. c #FFEDEDED",
"{. c #FFEEEEEE",
"}. c #FFEFEFEF",
"|. c #FFF0F0F0",
" X c #FFF1F1F1",
".X c #FFF2F2F2",
"XX c #FFF3F3F3",
"oX c #FFF4F4F4",
"OX c #FFF5F5F5",
"+X c #FFF6F6F6",
"@X c #FFF7F7F7",
"#X c #FFF8F8F8",
"$X c #FFF9F9F9",
"%X c #FFFAFAFA",
"&X c #FFFBFBFB",
"*X c #FFFCFCFC",
"=X c #FFFDFDFD",
"-X c #FFFEFEFE",
";X c #FFFFFFF1",
/* pixels */
"                                                                                                                                                                                                                                                                ",
"                                                                                                                                                                                                                                                                ",
"                                                                                                                                                                                                                                                                ",
"                                                                                                                                                                                                                                                                ",
"                                                                                                                                                                                                                                                                ",
"                                                                                                                                                                                                                                                                ",
"                                                                                                                                                                                                                                                                ",
"                                                                                                                                                                                                                                                                ",
"                                                                                                                                                                                                                                                                ",
"                                                                                                                                                                                                                                                                ",
"                                                                                                                                                                                                                                                                ",
"                                                                                                                                                                                                          S M s s                                               ",
"                                                                                                                                                                                                    S e 1 % % % % % %                                           ",
"                                                                                                                                                                                      S s         s % % % % % % % o % % %                                       ",
"                                                                                                                                                                                s 3 1 % % %     M % % % % % % % s R @.q.i.z.                                    ",
"                                                                                                                                                                R M s e 1 %   N % % % % % % % 1 % % % % % % j 8.(.=X=X=X=X=X+X                                  ",
"                                                                                                                                                                3 % % % % % 1 1 % % % % % 3 M R @.o.% % % N Y.=X=X=X[.+X=X=X=X+X                                ",
"                                                                                                                                          P                     3 % % % % % % 1 s M 1 % s V.[.+X=Xz.% % 3 z.=X=X(.) j P [.=X=X=X                                ",
"                                                                                                                                S j s e 1 % % %       S N s     3 % % % % N q.V.(.+X^ o o.=X=X=X=Xz.% % N +X=X=Xo.o o 3 Y.=X=X+X                                ",
"                                                                                                                              j % % % % % % % % % % 1 % % % % 1 % % % % o @.=X=X=X=XV.s V.=X=X=X=Xz.% o S =X=X=X-.1 3 o.+X=X=X+X                                ",
"                                                                                                                              s % % % % % % % 3 e N { 8.P % % o o % 1 % o @.=X=X=X=X+Xh.+X=X=X=X=X[.1 o N +X=X=X+XF.F.+X=X=X+X                                  ",
"                                                                                                                        M e   e % % % % % ^ i.F.i.Y.=X=X{ o 3 P @.i.z.h.R @.=X=X=X=X=X=X=X+X[.=X=X=X    j Y.=X=X=X=X=X=X=X+X                                    ",
"                                                                                                            S       S 1 % % % % % % % % % h.=X=XV.(.=X=X{ M z.+X+X[.=X=X(.h.=X=X+X(.=X=X=Xi.V.=X=X=X        +X=X=X+X+X                                          ",
"                                                                                                    S e 3 1 % % % e 1 % % % % % % % 3 e 1 h.=X=Xz.(.=X=X-.V.=X+Xh.V.=X=X+XF.=X=X(.{ [.=X+XP z.=X=X+X                                                            ",
"                                                              S M e 3 1                   j e 1 1 e % % % % % % % % o % 1 1 % % 3 @.F.Y.h.Y.=X=Xz.(.=X+XV.+X+X[.V.V.+X=X[.z.=X=X+XN z.=X+X  F.=X                                                                ",
"                                                        S e 1 % % % % % % % %   P e % % 1 % % % % % % % % o % % 1 M { 8.z.V.8.j -.=X=X=X+X+X=X=Xz.(.=X=XV.Y.Y.Y.-.i.=X=Xz.1.=X=X+X                                                                              ",
"                                            ^ s 3 1 1 3 % % % % % % % % % % 3 j S P S 1 % % % % % % % 3 N ^ P e q.[.=X=X=X=X=Xz.Y.=X=Xh.M V.=X=Xz.(.=X=XV.[.=X=X=X=X+X+X                                                                                        ",
"                                      M s 1 e % % % % % % % % % % % % e ) q.F.[.+X+X+X8.1 % % e @.i.@.i.+X=Xq.q.=X=Xz.R z.=X=X+X+X=X=Xo.o h.=X=Xz.(.=X+X(.  +X+X+X                                                                                              ",
"                                    3 % % % % % % % % % o % S o.q.R N F.=X=X[.(.=X=X=XY.3 % 1 i.=X=X=X+X=X=XV.(.=X=X^ o q.=X=XF.(.=X=X1.% h.=X=XF.(.                                                                                                            ",
"                                  P % % % % % % % 1 s N R e F.=X=X-.V.+X[.(.o.1.+X=X=Xz.1 % M [.=X+X-.F.=X=XF.[.=X=Xz.-.[.=X+X@.Y.=X=X                                                                                                                          ",
"                      S s e 1 % N 1 % % % % % % o P (.+XY.N h.F.F.o.{ i.Y.[.[.=X=X+X[.    o P [.(.z.s h.=X=Xz.F.=X=X=X=X=X+X                                                                                                                                    ",
"                  M 1 % % % % % % % % % o o % o 1 -.=X=X+XF.(.+X=X@.1.+X=X=X+X(.(.z.8.V.        M 1 % h.=X=X[.  +X+X+X                                                                                                                                          ",
"                N % % % % % % % % % 3 N { -.-.P P [.=X=X=X+X+X=X=Xz.[.=X=X[.) ) (.[.+X+X              V.=X                                                                                                                                                      ",
"                3 % % % % % % % 1 ) F.+X+X=X=X[.q.[.=X=X(.) (.=X=XF.+X=X=X+XV.(.=X=X=X                                                                                                                                                                          ",
"                e % % % % % % % { +X=XF.q.[.=X=Xq.@.=X=XY.j Y.=X=Xh.(.=X=X=X=X=X+X+X                                                                                                                                                                            ",
"                e % % % % % % 3 F.=X+X(.F.+X=X=Xh.z.=X=XY.j Y.=X=XY.    +X                                                                                                                                                                                      ",
"                  % % % % % % e V.(.Y.8.o.[.=X[.8.+X=X=X(.  Y.                                                                                                                                                                                                  ",
"                          % % 3 V.+X=X+X+X=X=X    +X                                                                                                                                                                                                            ",
"                                  +X+X+X+X                                                                                                                                                                                                                      ",
"                                                                                                                                                                                                                                                                ",
"                                                                                                                                                                                                                                                                ",
"                                                                                                                                                                                                                                                                ",
"                                                                                                                                                                                                                                                                ",
"                                                                                                                                                                                                                                                                ",
"                                                                                                                                                                                                                                                                ",
"                                                                                                                                                                                                                                                                ",
"                                                                                                                                                                                                                                                                ",
"                                                                                                                                                                                                                                                                ",
"                                                                                                                                                                                                                                                                ",
"                                                                                                                                                                                                                                                                ",
"                                                                                                                                                                                                                                                                ",
"                                                                                                                                                                                                                                                                ",
"                                                                                                                                                                                                                                                                ",
"                                                                                                                                                                                                                                                                "
};
