/* XPM */
static char *oms_278[] = {
/* columns rows colors chars-per-pixel */
"128 54 110 2 ",
"   c #00000000",
".  c #FF0F0F0F",
"X  c #FF101010",
"o  c #FF111111",
"O  c #FF121212",
"+  c #FF131313",
"@  c #FF141414",
"#  c #FF151515",
"$  c #FF161616",
"%  c #FF171717",
"&  c #FF181818",
"*  c #FF191919",
"=  c #FF1A1A1A",
"-  c #FF1B1B1B",
";  c #FF1C1C1C",
":  c #FF1D1D1D",
">  c #FF1F1F1F",
",  c #FF212121",
"<  c #FF262626",
"1  c #FF272727",
"2  c #FF282828",
"3  c #FF2A2A2A",
"4  c #FF2C2C2C",
"5  c #FF2D2D2D",
"6  c #FF353535",
"7  c #FF363636",
"8  c #FF373737",
"9  c #FF383838",
"0  c #FF393939",
"q  c #FF3D3D3D",
"w  c #FF414141",
"e  c #FF424242",
"r  c #FF444444",
"t  c #FF4A4A4A",
"y  c #FF4C4C4C",
"u  c #FF4E4E4E",
"i  c #FF505050",
"p  c #FF515151",
"a  c #FF525252",
"s  c #FF535353",
"d  c #FF545454",
"f  c #FF565656",
"g  c #FF5C5C5C",
"h  c #FF666666",
"j  c #FF6B6B6B",
"k  c #FF6C6C6C",
"l  c #FF6E6E6E",
"z  c #FF707070",
"x  c #FF717171",
"c  c #FF727272",
"v  c #FF747474",
"b  c #FF757575",
"n  c #FF787878",
"m  c #FF7B7B7B",
"M  c #FF7C7C7C",
"N  c #FF818181",
"B  c #FF828282",
"V  c #FF838383",
"C  c #FF868686",
"Z  c #FF8A8A8A",
"A  c #FF8B8B8B",
"S  c #FF8F8F8F",
"D  c #FF909090",
"F  c #FF969696",
"G  c #FF979797",
"H  c #FF9A9A9A",
"J  c #FF9E9E9E",
"K  c #FFA1A1A1",
"L  c #FFA4A4A4",
"P  c #FFA6A6A6",
"I  c #FFA7A7A7",
"U  c #FFABABAB",
"Y  c #FFB0B0B0",
"T  c #FFB1B1B1",
"R  c #FFB2B2B2",
"E  c #FFB2B2B2",
"W  c #FFB4B4B4",
"Q  c #FFB5B5B5",
"!  c #FFB9B9B9",
"~  c #FFBCBCBC",
"^  c #FF808080",
"/  c #FFC0C0C0",
"(  c #FFC1C1C1",
")  c #FFC3C3C3",
"_  c #FFC6C6C6",
"`  c #FFC8C8C8",
"'  c #FFCACACA",
"]  c #FFCCCCCC",
"[  c #FFCDCDCD",
"{  c #FFCFCFCF",
"}  c #FFD3D3D3",
"|  c #FFD5D5D5",
" . c #FFD9D9D9",
".. c #FFDBDBDB",
"X. c #FFDCDCDC",
"o. c #FFDDDDDD",
"O. c #FFDEDEDE",
"+. c #FFE0E0E0",
"@. c #FFE2E2E2",
"#. c #FFE3E3E3",
"$. c #FFE7E7E7",
"%. c #FFE8E8E8",
"&. c #FFECECEC",
"*. c #FFEDEDED",
"=. c #FFEEEEEE",
"-. c #FFF0F0F0",
";. c #FFF2F2F2",
":. c #FFF3F3F3",
">. c #FFF4F4F4",
",. c #FFFAFAFA",
/* pixels */
"                                                                                                                                                                                                                                                                ",
"                                                                                                                                                                                                                                                                ",
"                                                                                                                                                                                                                                                                ",
"                                                                                                                                                                                                                                                                ",
"                                                                                                                                                                                                                                                                ",
"                                                                                                                                                                                                                                                                ",
"                                                                                                                                                                                                                                                                ",
"                                                                                                                                                                                                                                                                ",
"                                                                                                                                                                                                                                                                ",
"                                                                                                                                                                                                                                                                ",
"                                                                                                                                                                                                                                                                ",
"                                                                                                                                                                                                                                                                ",
"                                                                                                                                                                                                                                                                ",
"                                                                                                                                                                                                                                                                ",
"                                                                                              m . O O O O O O O O O < T                                                                                                                                         ",
"                                                                                              J O O O O O O O O O O & S                                                                                                                                         ",
"                                                                                              ^ s O O O O O O O O O O 8                                                                                                                                         ",
"                                                                                              L S < O O O O O O O O O O z                                                                                                                                       ",
"                                                                                              F T j O O O O O O O O O O 5 T                                                                                                                                     ",
"                                                                                              L ^ m O O O O O O O O O O < T                                                                                                                                     ",
"                                                                                              _ ` B 9 & O O O O O O O O & s                                                                                                                                     ",
"                                                                                              _ ` ^ F w O O O O O O O O O & g                                                                                                                                   ",
"                                                                                              T _ %.} s O O O O O O O O O & s                                                                                                                                   ",
"                                                                                                %.%.O.s O O O O O O O O O O t                                                                                                                                   ",
"                                                                                                @.;.%.B O O O O O O O O O O 5 L                                                                                                                                 ",
"                                                                                                  @.O._ 8 O O O O O O O O O O s                                                                                                                                 ",
"                                                                                                  %.%.@.J O O O O O O O O O O & S                                                                                                                               ",
"                                                                                                    %.O.} t t O O O O O O O O O < 5 L                                                                                                                           ",
"                                                                                                      ` ` U T 5 O O O O O O O O O O j                                                                                                                           ",
"                                                                                                      @.} _ ` z O O O O O O O O O O 8                                                                                                                           ",
"                                                                                                        ;.T _ U & O O O O O O O O O &                                                                                                                           ",
"                                                                                                        ;.F T T 9 O O O O O O O O O & j                                                                                                                         ",
"                                                                                                          z ^ @.w O O O O O O O O O O h                                                                                                                         ",
"                                                                                                            } ;.z O O O O O O O O O O 5 L                                                                                                                       ",
"                                                                                                            ;.%.` < O O O O O O O O O O B                                                                                                                       ",
"                                                                                                            ,.O.` 9 O O O O O O O O & O z                                                                                                                       ",
"                                                                                                              @.O.9 O O O O O O O O O & m                                                                                                                       ",
"                                                                                                                O.w & O O O O O O O O & B                                                                                                                       ",
"                                                                                                                @.w O O O O O O O O O O m                                                                                                                       ",
"                                                                                                                O.w . O O & O O O & O                                                                                                                           ",
"                                                                                                                                                                                                                                                                ",
"                                                                                                                                                                                                                                                                ",
"                                                                                                                                                                                                                                                                ",
"                                                                                                                                                                                                                                                                ",
"                                                                                                                                                                                                                                                                ",
"                                                                                                                                                                                                                                                                ",
"                                                                                                                                                                                                                                                                ",
"                                                                                                                                                                                                                                                                ",
"                                                                                                                                                                                                                                                                ",
"                                                                                                                                                                                                                                                                ",
"                                                                                                                                                                                                                                                                ",
"                                                                                                                                                                                                                                                                ",
"                                                                                                                                                                                                                                                                ",
"                                                                                                                                                                                                                                                                "
};
