/* XPM */
static char *oms_221[] = {
/* columns rows colors chars-per-pixel */
"128 54 196 2 ",
"   c #00000000",
".  c #FF0B0B0B",
"X  c #FF0C0C0C",
"o  c #FF0D0D0D",
"O  c #FF0E0E0E",
"+  c #FF0F0F0F",
"@  c #FF101010",
"#  c #FF111111",
"$  c #FF121212",
"%  c #FF131313",
"&  c #FF141414",
"*  c #FF151515",
"=  c #FF161616",
"-  c #FF171717",
";  c #FF181818",
":  c #FF191919",
">  c #FF1A1A1A",
",  c #FF1B1B1B",
"<  c #FF1C1C1C",
"1  c #FF1D1D1D",
"2  c #FF1E1E1E",
"3  c #FF1F1F1F",
"4  c #FF202020",
"5  c #FF212121",
"6  c #FF222222",
"7  c #FF232323",
"8  c #FF242424",
"9  c #FF252525",
"0  c #FF262626",
"q  c #FF272727",
"w  c #FF282828",
"e  c #FF292929",
"r  c #FF2B2B2B",
"t  c #FF2C2C2C",
"y  c #FF2D2D2D",
"u  c #FF2E2E2E",
"i  c #FF2F2F2F",
"p  c #FF303030",
"a  c #FF313131",
"s  c #FF323232",
"d  c #FF333333",
"f  c #FF343434",
"g  c #FF353535",
"h  c #FF363636",
"j  c #FF373737",
"k  c #FF383838",
"l  c #FF393939",
"z  c #FF3A3A3A",
"x  c #FF3B3B3B",
"c  c #FF3C3C3C",
"v  c #FF3D3D3D",
"b  c #FF3E3E3E",
"n  c #FF3F3F3F",
"m  c #FF404040",
"M  c #FF414141",
"N  c #FF424242",
"B  c #FF434343",
"V  c #FF444444",
"C  c #FF454545",
"Z  c #FF474747",
"A  c #FF4C4C4C",
"S  c #FF4F4F4F",
"D  c #FF505050",
"F  c #FF515151",
"G  c #FF525252",
"H  c #FF535353",
"J  c #FF545454",
"K  c #FF555555",
"L  c #FF565656",
"P  c #FF575757",
"I  c #FF585858",
"U  c #FF5B5B5B",
"Y  c #FF5C5C5C",
"T  c #FF5D5D5D",
"R  c #FF5E5E5E",
"E  c #FF5F5F5F",
"W  c #FF616161",
"Q  c #FF626262",
"!  c #FF646464",
"~  c #FF656565",
"^  c #FF696969",
"/  c #FF6B6B6B",
"(  c #FF6C6C6C",
")  c #FF6D6D6D",
"_  c #FF6E6E6E",
"`  c #FF6F6F6F",
"'  c #FF737373",
"]  c #FF747474",
"[  c #FF777777",
"{  c #FF787878",
"}  c #FF7A7A7A",
"|  c #FF7D7D7D",
" . c #FF7E7E7E",
".. c #FF808080",
"X. c #FF828282",
"o. c #FF848484",
"O. c #FF858585",
"+. c #FF868686",
"@. c #FF888888",
"#. c #FF898989",
"$. c #FF8B8B8B",
"%. c #FF8C8C8C",
"&. c #FF8D8D8D",
"*. c #FF8E8E8E",
"=. c #FF8F8F8F",
"-. c #FF919191",
";. c #FF929292",
":. c #FF949494",
">. c #FF959595",
",. c #FF979797",
"<. c #FF9A9A9A",
"1. c #FF9B9B9B",
"2. c #FF9C9C9C",
"3. c #FF9E9E9E",
"4. c #FF9F9F9F",
"5. c #FFA3A3A3",
"6. c #FFA4A4A4",
"7. c #FFA7A7A7",
"8. c #FFACACAC",
"9. c #FFADADAD",
"0. c #FFAEAEAE",
"q. c #FFAFAFAF",
"w. c #FFB1B1B1",
"e. c #FFB2B2B2",
"r. c #FFB2B2B2",
"t. c #FFB4B4B4",
"y. c #FFB5B5B5",
"u. c #FFB6B6B6",
"i. c #FFB7B7B7",
"p. c #FFB8B8B8",
"a. c #FFB9B9B9",
"s. c #FFBABABA",
"d. c #FFBBBBBB",
"f. c #FFBCBCBC",
"g. c #FFBDBDBD",
"h. c #FF808080",
"j. c #FFBFBFBF",
"k. c #FFC0C0C0",
"l. c #FFC3C3C3",
"z. c #FFC5C5C5",
"x. c #FFC6C6C6",
"c. c #FFC7C7C7",
"v. c #FFC8C8C8",
"b. c #FFCBCBCB",
"n. c #FFCCCCCC",
"m. c #FFCDCDCD",
"M. c #FFCECECE",
"N. c #FFCFCFCF",
"B. c #FFD0D0D0",
"V. c #FFD1D1D1",
"C. c #FFD2D2D2",
"Z. c #FFD3D3D3",
"A. c #FFD4D4D4",
"S. c #FFD5D5D5",
"D. c #FFD6D6D6",
"F. c #FFD7D7D7",
"G. c #FFD8D8D8",
"H. c #FFD9D9D9",
"J. c #FFDADADA",
"K. c #FFDBDBDB",
"L. c #FFDCDCDC",
"P. c #FFDDDDDD",
"I. c #FFDEDEDE",
"U. c #FFDFDFDF",
"Y. c #FFE0E0E0",
"T. c #FFE1E1E1",
"R. c #FFE2E2E2",
"E. c #FFE3E3E3",
"W. c #FFE4E4E4",
"Q. c #FFE6E6E6",
"!. c #FFE6E6E6",
"~. c #FFE7E7E7",
"^. c #FFE8E8E8",
"/. c #FFE9E9E9",
"(. c #FFEAEAEA",
"). c #FFEBEBEB",
"_. c #FFECECEC",
"`. c #FFEDEDED",
"'. c #FFEEEEEE",
"]. c #FFEFEFEF",
"[. c #FFF0F0F0",
"{. c #FFF1F1F1",
"}. c #FFF2F2F2",
"|. c #FFF3F3F3",
" X c #FFF4F4F4",
".X c #FFF5F5F5",
"XX c #FFF6F6F6",
"oX c #FFF7F7F7",
"OX c #FFF8F8F8",
"+X c #FFF9F9F9",
"@X c #FFFAFAFA",
"#X c #FFFBFBFB",
"$X c #FFFCFCFC",
"%X c #FFFDFDFD",
"&X c #FFFEFEFE",
"*X c #FFFFFFFF",
/* pixels */
"                                                                                                                                                                                                                                                                ",
"                                                                                                                                                                                                                                                                ",
"                                                                                                                                                                                                                                                                ",
"                                                                                                                                                                                                                                                                ",
"                                                                                                                                                                                                                                                                ",
"                                                                                                                                                                                                                                                                ",
"                                                                                                                                                                                                                                                                ",
"                                                                                                                                                                                                                                                                ",
"                                                                                                                                                                                                                                                                ",
"                                                                                                                                                                                                                                                                ",
"                                                                                                                                                                                                                                                                ",
"                                                                                                                                                                                                K n 0 ; ; $ $                                                   ",
"                                                                                                                                                                                            / i $ $ $ $ $ $ $ $ +                                               ",
"                                                                                                                                                                              K n 0       [ ; $ $ $ $ $ $ $ ; n I { t.                                          ",
"                                                                                                                                                                          n ; $ $ $ $ $ i i + $ $ $ $ $ i { n.(.[.&X&X[.                                        ",
"                                                                                                                                                            K a 0 ; $ $ B ; $ $ $ $ $ $ $ ; a n $ $ $ n k.&X&X&X&X&X&X&X[.                                      ",
"                                                                                                                                                            0 $ $ $ $ $ $ + + $ $ $ $ K 3.k.Q.t.; $ 0 f.&X&XQ.>.{ F.&X&X[.                                      ",
"                                                                                                                                                            0 $ $ $ $ $ ; n ~ >./ $ i U.&X&X&Xf.; + K [.&X[.I + + ..&X&X[.                                      ",
"                                                                                                                              I B a i ; $ $ $     I B i     0 $ $ $ $ $ 3.(.[.&XU.i ~ [.&X&X&Xf.; + [ &X&X(.a + 0 f.&X&X[.                                      ",
"                                                                                                                            n $ $ $ $ $ $ $ $ $ $ $ ; ; $ ; $ $ $ $ $ ; f.&X&X&X&X>.t.&X&X&X&Xf.; + [ &X&X[.t.&.k.[.&X&X                                        ",
"                                                                                                                            a $ $ $ $ $ $ $ 0 a A &.f.>.$ $ $ ; i n a ; f.&X&X&X&X[.[.&X[.&X&XQ.  + K [.&X&X&X&X&X&X[.                                          ",
"                                                                                                                            i $ $ $ $ $ 0 3.F.U.f.&X&Xt.$ a ..k.Q.(.Q...f.&X&X[.&X&X&X(.k.&X&X&X      U.&X&X&X&X[.[.                                            ",
"                                                                                                                  ..i $ $ $ $ $ $ $ $ + a Q.&X(.f.&X&X9.A U.&XU.U.&X&XQ.F.&X&Xf.U.&X&X9.>.&X&X[.                                                                ",
"                                                                                                    / n i ; $ $ i i $ $ $ $ $ $ $ $ i i n Q.&X(.f.&X&Xf.k.&X&Xn.U.&X&X(.U.&X&X>.>.&X&X[ >.&X[.[.                                                                ",
"                                                                                            A 0   n ; $ $ $ $ $ $ $ + $ $ ; $ $ i 3.U.Q.k.(.&X(.f.&X&XU.Q.(.Q.9.t.[.&Xn.k.&X&Xk.K [.[.                                                                          ",
"                                                            ~ B a 0 ; $ $ $       ~ i 0 n ; $ $ $ $ $ $ $ $ $ $ $ 0 K &.t.k.6.n 3.&X&X[.(.&X&X(.f.&X&XF.F.Q.Q.f.F.&X&X&.f.&X[.                                                                                  ",
"                                                        / a ; $ $ $ $ $ $ $ $ + 0 0 0 0 $ $ $ $ $ $ + $ ; a K 0 K n.[.&X&X&X&Xk.U.&X&X&.K (.&X(.f.&X&XF.Q.&X&X&X&X[.                                                                                            ",
"                                                i ; $ $ $ $ $ $ $ $ $ $ $ $ n / 3.k.U.F.&.; $ $ ; I { I t.Q.[...U.&X(...t.&X&X[.[.&X&XI i Q.&X(.f.&X&X[.                                                                                                        ",
"                                        B a ; 0 $ $ $ $ $ $ $ $ ; i B 0 a 6.(.&X&X&X&X&X(.n $ $ >.[.&X[.[.&X[.F.&X&Xt.+ [ &X&XF.Q.&X&X/ a Q.&X[.k.                                                                                                              ",
"                                      I $ $ $ $ $ $ $ $ + $ $ 0 6.U.(./ k.&X&XF.&.U.&X&XQ.a + n (.&X[.t.[.&X[.(.&X&XF.{ n.&X[.&.U.&X&X                                                                                                                          ",
"                                      i $ $ $ $ $ $ $ 0 / 3.9.B U.(.U.&.n.F.Q.n.k.[.&X&Xf.; + K [.&Xn.B Q.&X[.f.[.&X&X&X&X&X                                                                                                                                    ",
"                          A a 0 ; ; i $ $ $ $ $ $ $ + B [.&X(...k.Q.Q.~ ..Q.[.&X&X[.Q.f.        6.~ a a Q.&X[.  Q.[.[.[.                                                                                                                                        ",
"                      A ; $ $ $ $ $ $ $ $ $ $ ; 0 ; ; >.[.&X&X(.[.&X[.6.(.&X&XU.>.k.U.U.(.            a (.&X                                                                                                                                                    ",
"                    ~ $ $ $ $ $ $ $ $ $ 0 I 3.k.n.f./ Q.&X&X[.n.(.&X[.U.&X&X&Xt.&.Q.&X&X[.                                                                                                                                                                      ",
"                    a $ $ $ $ $ $ $ $ n k.[.(.(.&X&XF.f.[.&XQ.K U.&X[.n.[.&X&X&X&X&X[.[.                                                                                                                                                                        ",
"                    a $ $ $ $ $ $ $ ; f.&X[.f.F.&X&XU./ [.&XU.B U.&X[.t.(.&X[.[.[.                                                                                                                                                                              ",
"                    a $ $ $ $ $ $ $ B (.[.(.k.F.&X&XF.F.&X&XU.B U.&X[.                                                                                                                                                                                          ",
"                      $ $ $ $ $ $ $ B U.Q.U.>.n.&X[.>.U.&X[.                                                                                                                                                                                                    ",
"                              $ $ $ n Q.&X&X&X&X[.                                                                                                                                                                                                              ",
"                                        [.[.[.                                                                                                                                                                                                                  ",
"                                                                                                                                                                                                                                                                ",
"                                                                                                                                                                                                                                                                ",
"                                                                                                                                                                                                                                                                ",
"                                                                                                                                                                                                                                                                ",
"                                                                                                                                                                                                                                                                ",
"                                                                                                                                                                                                                                                                ",
"                                                                                                                                                                                                                                                                ",
"                                                                                                                                                                                                                                                                ",
"                                                                                                                                                                                                                                                                ",
"                                                                                                                                                                                                                                                                ",
"                                                                                                                                                                                                                                                                ",
"                                                                                                                                                                                                                                                                ",
"                                                                                                                                                                                                                                                                ",
"                                                                                                                                                                                                                                                                "
};
