/* XPM */
static char *oms_337[] = {
/* columns rows colors chars-per-pixel */
"128 54 192 2 ",
"   c #00000000",
".  c #FF0C0C0C",
"X  c #FF0E0E0E",
"o  c #FF0F0F0F",
"O  c #FF101010",
"+  c #FF111111",
"@  c #FF121212",
"#  c #FF131313",
"$  c #FF141414",
"%  c #FF151515",
"&  c #FF161616",
"*  c #FF171717",
"=  c #FF181818",
"-  c #FF191919",
";  c #FF1A1A1A",
":  c #FF1B1B1B",
">  c #FF1C1C1C",
",  c #FF1D1D1D",
"<  c #FF1E1E1E",
"1  c #FF202020",
"2  c #FF212121",
"3  c #FF222222",
"4  c #FF232323",
"5  c #FF242424",
"6  c #FF252525",
"7  c #FF262626",
"8  c #FF272727",
"9  c #FF292929",
"0  c #FF2B2B2B",
"q  c #FF2C2C2C",
"w  c #FF303030",
"e  c #FF313131",
"r  c #FF323232",
"t  c #FF333333",
"y  c #FF353535",
"u  c #FF363636",
"i  c #FF393939",
"p  c #FF3B3B3B",
"a  c #FF3C3C3C",
"s  c #FF3D3D3D",
"d  c #FF3E3E3E",
"f  c #FF3F3F3F",
"g  c #FF404040",
"h  c #FF414141",
"j  c #FF444444",
"k  c #FF464646",
"l  c #FF484848",
"z  c #FF494949",
"x  c #FF4A4A4A",
"c  c #FF4E4E4E",
"v  c #FF4F4F4F",
"b  c #FF505050",
"n  c #FF525252",
"m  c #FF535353",
"M  c #FF555555",
"N  c #FF565656",
"B  c #FF575757",
"V  c #FF585858",
"C  c #FF595959",
"Z  c #FF5A5A5A",
"A  c #FF5D5D5D",
"S  c #FF5F5F5F",
"D  c #FF606060",
"F  c #FF616161",
"G  c #FF646464",
"H  c #FF656565",
"J  c #FF676767",
"K  c #FF686868",
"L  c #FF696969",
"P  c #FF6A6A6A",
"I  c #FF6B6B6B",
"U  c #FF6C6C6C",
"Y  c #FF6E6E6E",
"T  c #FF6F6F6F",
"R  c #FF727272",
"E  c #FF747474",
"W  c #FF757575",
"Q  c #FF787878",
"!  c #FF797979",
"~  c #FF7A7A7A",
"^  c #FF7B7B7B",
"/  c #FF7C7C7C",
"(  c #FF7E7E7E",
")  c #FF808080",
"_  c #FF818181",
"`  c #FF828282",
"'  c #FF838383",
"]  c #FF848484",
"[  c #FF858585",
"{  c #FF868686",
"}  c #FF878787",
"|  c #FF888888",
" . c #FF898989",
".. c #FF8C8C8C",
"X. c #FF8D8D8D",
"o. c #FF8E8E8E",
"O. c #FF919191",
"+. c #FF939393",
"@. c #FF949494",
"#. c #FF959595",
"$. c #FF969696",
"%. c #FF979797",
"&. c #FF999999",
"*. c #FF9A9A9A",
"=. c #FF9C9C9C",
"-. c #FF9E9E9E",
";. c #FF9F9F9F",
":. c #FFA1A1A1",
">. c #FFA2A2A2",
",. c #FFA3A3A3",
"<. c #FFA5A5A5",
"1. c #FFA6A6A6",
"2. c #FFA8A8A8",
"3. c #FFAAAAAA",
"4. c #FFACACAC",
"5. c #FFADADAD",
"6. c #FFAEAEAE",
"7. c #FFAFAFAF",
"8. c #FFB0B0B0",
"9. c #FFB2B2B2",
"0. c #FFB2B2B2",
"q. c #FFB4B4B4",
"w. c #FFB5B5B5",
"e. c #FFB6B6B6",
"r. c #FFB7B7B7",
"t. c #FFB8B8B8",
"y. c #FFBABABA",
"u. c #FFBDBDBD",
"i. c #FF808080",
"p. c #FFBFBFBF",
"a. c #FFC0C0C0",
"s. c #FFC1C1C1",
"d. c #FFC2C2C2",
"f. c #FFC3C3C3",
"g. c #FFC5C5C5",
"h. c #FFC6C6C6",
"j. c #FFC7C7C7",
"k. c #FFC8C8C8",
"l. c #FFC9C9C9",
"z. c #FFCACACA",
"x. c #FFCBCBCB",
"c. c #FFCCCCCC",
"v. c #FFCDCDCD",
"b. c #FFCECECE",
"n. c #FFCFCFCF",
"m. c #FFD0D0D0",
"M. c #FFD1D1D1",
"N. c #FFD2D2D2",
"B. c #FFD3D3D3",
"V. c #FFD4D4D4",
"C. c #FFD5D5D5",
"Z. c #FFD6D6D6",
"A. c #FFD7D7D7",
"S. c #FFD8D8D8",
"D. c #FFD9D9D9",
"F. c #FFDADADA",
"G. c #FFDBDBDB",
"H. c #FFDCDCDC",
"J. c #FFDDDDDD",
"K. c #FFDEDEDE",
"L. c #FFDFDFDF",
"P. c #FFE0E0E0",
"I. c #FFE1E1E1",
"U. c #FFE2E2E2",
"Y. c #FFE4E4E4",
"T. c #FFE6E6E6",
"R. c #FFE6E6E6",
"E. c #FFE7E7E7",
"W. c #FFE8E8E8",
"Q. c #FFE9E9E9",
"!. c #FFEAEAEA",
"~. c #FFEBEBEB",
"^. c #FFECECEC",
"/. c #FFEDEDED",
"(. c #FFEEEEEE",
"). c #FFEFEFEF",
"_. c #FFF0F0F0",
"`. c #FFF1F1F1",
"'. c #FFF2F2F2",
"]. c #FFF3F3F3",
"[. c #FFF4F4F4",
"{. c #FFF5F5F5",
"}. c #FFF6F6F6",
"|. c #FFF7F7F7",
" X c #FFF8F8F8",
".X c #FFF9F9F9",
"XX c #FFFAFAFA",
"oX c #FFFBFBFB",
"OX c #FFFCFCFC",
"+X c #FFFDFDFD",
"@X c #FFFEFEFE",
"#X c #FFFFFFF1",
/* pixels */
"                                                                                                                                                                                                                                                                ",
"                                                                                                                                                                                                                                                                ",
"                                                                                                                                                                                                                                                                ",
"                                                                                                                                                                                                                                                                ",
"                                                                                                                                                                                                                                                                ",
"                                                                                                                                                                                                                                                                ",
"                                                                                                                                                                                                                                                                ",
"                                                                                                                                                                                                                                                                ",
"                                                                                                                                                                                                                                                                ",
"                                                                                                                                                                                                                                                                ",
"                                                                                                                                                                                                                                                                ",
"                                                                                                                                                                                                                                                                ",
"                                                                                                                                                                                                                                                                ",
"                                                                                                                                                                                                                                                                ",
"                                                                                                                                                                                                                                                                ",
"                                                                                                                                                                                                                                                                ",
"                                                                                                                                                                                                                                                                ",
"                                                                                                                                                                                                                                                                ",
"                                                                                                                                                                                                                                                                ",
"                                                                                                                                                                                                                                                                ",
"                                                                                                                                                                                                                                                                ",
"                      ~.~.i.U t % % % % % t Z           % %                                                                                                                                                                                                     ",
"                }. X X X X X}.A.^ ; % % % #.I.~.I.K.' % % Z i.r.7.i.U % % % % % 7               z H z f ; % ; % % 7                                                                                                                                             ",
"               X X X X X X X X X}.^ % % % 1. X X X XK.t ; d. X X X X#.% % % . . ;       ~.}.}.I.r.~.~.K.f % % % % 7                                                         h 7 % . % ;                                                                         ",
"            }. X X Xd.U H 7.}. X XA.7 % % 1. X X X X X^ Z }. X X X X#.% 7 z Z Z b Z ; . r. X X~.d. X X~.f . % % % 7                                               }.}.}.~.~.I.k.#.t f r.i.d.Z ; t 0 f t % % %                                                   ",
"             X X X}.z . . 7 A. X X~.f % % 1. X X X X XK.k. X X X X X#.Z A.}. X X}.I.7.t 1. X X~.d. X X~.H ' r.7.U ; % f U ..7.i.' z ; ; f h z t ; h f ; % % . .. X X X}.I.}. X X Xk.U }. X X^ b I.I.K.Z . % % z                                                 ",
"             X X X}.H . . 0 A. X X}.h % % 1. X X}.}. X X X X}. X X X7.A. X XK.1.I. X Xi.r. X X~.d. X X}.~. X X X}.U H I. X X X X X~.&.z K.~.I.7.r.I.K.#.; % % .. X X XI.E ' ~.K.A.k.^ d.A.A.^ #. X X X..; % 7 h '   f ; % % %                                   ",
"            }. X X XI.#.' d. X X XK.0 % % 1. X X}.d. X X X}.i.}. X Xd.~. X X~.K.~. X X~.A. X X~.d. X X XA.k. X X Xi.A. X X~.1.d. X X X1.I. X X}. X X X}.b % % H }. X X X~.I.}.I.i.U Z ~.}.}.A.}. X X X~.H ^ A.I.}.~.K.r.Z % % % 7                               ",
"              }. X X X X X X X X X#.% % % 1. X X}.U K. X XA.U }. X Xi.~. X Xk.^ 7.A.A.k.A. X X~.d. X X~.z t I. X XK.~. X Xi.% h ~. X XK.~. X Xk.#. X X XE . % ; &.~.}.}. X X X X X~.&.}. X XA.~. X X X}.i.}. X Xk.d. X X~.b % % % Z                             ",
"                }.}. X X X X X}.1.7 % % % k. X X}.h .. X X' b }. X X1.r. X X~.i.I.}.}.K.k. X X~.d. X X~.f 0 K. X Xd.K. X XA.h U }. X XA.~. X X&.t r.k.k.E 7   ..r.d.A.k.^ &.}. X X XA.}. X X..^  X X X#.r. X X}.A.k.}. X X&.% % % z                             ",
"                                            }.}.~.    }.~.  U ~.}. X#.h ~. X X X X X}...r. X X~.d. X X~.f 0 K. X X7.' }. X X~.~. X X}...I. X X#.% ; ; ; h        X X X}.&.&.}. X X Xd.~. X X^ H  X X X&.r. X X}.r.1.k.A.K.#.% % % z                             ",
"                                                                                                            ~. X X7.    }.}.}.}.}.}.7.b ~. X X&.% % %           }. X X X X X X X XK.' ~. X X^ Z }. X X}.i.}. X Xi.7.I.~.~.#.% % 7                               ",
"                                                                                                                                                                    }.}.}.}.}.}.}.    }. X X' f ~.}.}.}.E 7. X X X X X X~.Z .                                   ",
"                                                                                                                                                                                                                  ~.                                            ",
"                                                                                                                                                                                                                                                                ",
"                                                                                                                                                                                                                                                                ",
"                                                                                                                                                                                                                                                                ",
"                                                                                                                                                                                                                                                                ",
"                                                                                                                                                                                                                                                                ",
"                                                                                                                                                                                                                                                                ",
"                                                                                                                                                                                                                                                                ",
"                                                                                                                                                                                                                                                                ",
"                                                                                                                                                                                                                                                                ",
"                                                                                                                                                                                                                                                                ",
"                                                                                                                                                                                                                                                                ",
"                                                                                                                                                                                                                                                                ",
"                                                                                                                                                                                                                                                                ",
"                                                                                                                                                                                                                                                                ",
"                                                                                                                                                                                                                                                                ",
"                                                                                                                                                                                                                                                                ",
"                                                                                                                                                                                                                                                                ",
"                                                                                                                                                                                                                                                                ",
"                                                                                                                                                                                                                                                                ",
"                                                                                                                                                                                                                                                                "
};
