/* XPM */
static char *oms_300[] = {
/* columns rows colors chars-per-pixel */
"128 54 181 2 ",
"   c #00000000",
".  c #FF0C0C0C",
"X  c #FF0E0E0E",
"o  c #FF0F0F0F",
"O  c #FF101010",
"+  c #FF111111",
"@  c #FF121212",
"#  c #FF131313",
"$  c #FF141414",
"%  c #FF151515",
"&  c #FF161616",
"*  c #FF171717",
"=  c #FF181818",
"-  c #FF191919",
";  c #FF1A1A1A",
":  c #FF1B1B1B",
">  c #FF1C1C1C",
",  c #FF1D1D1D",
"<  c #FF1E1E1E",
"1  c #FF1F1F1F",
"2  c #FF202020",
"3  c #FF212121",
"4  c #FF222222",
"5  c #FF232323",
"6  c #FF242424",
"7  c #FF252525",
"8  c #FF272727",
"9  c #FF282828",
"0  c #FF292929",
"q  c #FF2A2A2A",
"w  c #FF2B2B2B",
"e  c #FF2C2C2C",
"r  c #FF2E2E2E",
"t  c #FF2F2F2F",
"y  c #FF303030",
"u  c #FF313131",
"i  c #FF333333",
"p  c #FF343434",
"a  c #FF353535",
"s  c #FF363636",
"d  c #FF373737",
"f  c #FF393939",
"g  c #FF3A3A3A",
"h  c #FF3C3C3C",
"j  c #FF3D3D3D",
"k  c #FF3E3E3E",
"l  c #FF3F3F3F",
"z  c #FF404040",
"x  c #FF434343",
"c  c #FF444444",
"v  c #FF454545",
"b  c #FF484848",
"n  c #FF494949",
"m  c #FF4A4A4A",
"M  c #FF4B4B4B",
"N  c #FF4C4C4C",
"B  c #FF4C4C4C",
"V  c #FF4E4E4E",
"C  c #FF565656",
"Z  c #FF575757",
"A  c #FF595959",
"S  c #FF5B5B5B",
"D  c #FF5C5C5C",
"F  c #FF5D5D5D",
"G  c #FF5E5E5E",
"H  c #FF5F5F5F",
"J  c #FF646464",
"K  c #FF656565",
"L  c #FF666666",
"P  c #FF686868",
"I  c #FF696969",
"U  c #FF6A6A6A",
"Y  c #FF6C6C6C",
"T  c #FF6E6E6E",
"R  c #FF717171",
"E  c #FF737373",
"W  c #FF747474",
"Q  c #FF757575",
"!  c #FF767676",
"~  c #FF797979",
"^  c #FF7C7C7C",
"/  c #FF818181",
"(  c #FF828282",
")  c #FF838383",
"_  c #FF848484",
"`  c #FF868686",
"'  c #FF878787",
"]  c #FF898989",
"[  c #FF8A8A8A",
"{  c #FF8C8C8C",
"}  c #FF8E8E8E",
"|  c #FF8F8F8F",
" . c #FF909090",
".. c #FF919191",
"X. c #FF979797",
"o. c #FF999999",
"O. c #FF9C9C9C",
"+. c #FF9D9D9D",
"@. c #FFA0A0A0",
"#. c #FFA1A1A1",
"$. c #FFA2A2A2",
"%. c #FFA4A4A4",
"&. c #FFA7A7A7",
"*. c #FFA9A9A9",
"=. c #FFAAAAAA",
"-. c #FFABABAB",
";. c #FFAFAFAF",
":. c #FFB0B0B0",
">. c #FFB2B2B2",
",. c #FFB7B7B7",
"<. c #FFB8B8B8",
"1. c #FFBABABA",
"2. c #FFBBBBBB",
"3. c #FFBCBCBC",
"4. c #FFBDBDBD",
"5. c #FF808080",
"6. c #FFBFBFBF",
"7. c #FFC0C0C0",
"8. c #FFC1C1C1",
"9. c #FFC2C2C2",
"0. c #FFC3C3C3",
"q. c #FFC4C4C4",
"w. c #FFC5C5C5",
"e. c #FFC6C6C6",
"r. c #FFC7C7C7",
"t. c #FFC8C8C8",
"y. c #FFC9C9C9",
"u. c #FFCACACA",
"i. c #FFCBCBCB",
"p. c #FFCCCCCC",
"a. c #FFCDCDCD",
"s. c #FFCECECE",
"d. c #FFCFCFCF",
"f. c #FFD0D0D0",
"g. c #FFD1D1D1",
"h. c #FFD2D2D2",
"j. c #FFD3D3D3",
"k. c #FFD4D4D4",
"l. c #FFD5D5D5",
"z. c #FFD6D6D6",
"x. c #FFD7D7D7",
"c. c #FFD8D8D8",
"v. c #FFD9D9D9",
"b. c #FFDADADA",
"n. c #FFDBDBDB",
"m. c #FFDCDCDC",
"M. c #FFDDDDDD",
"N. c #FFDEDEDE",
"B. c #FFDFDFDF",
"V. c #FFE0E0E0",
"C. c #FFE1E1E1",
"Z. c #FFE2E2E2",
"A. c #FFE3E3E3",
"S. c #FFE4E4E4",
"D. c #FFE6E6E6",
"F. c #FFE6E6E6",
"G. c #FFE7E7E7",
"H. c #FFE8E8E8",
"J. c #FFE9E9E9",
"K. c #FFEAEAEA",
"L. c #FFEBEBEB",
"P. c #FFECECEC",
"I. c #FFEDEDED",
"U. c #FFEEEEEE",
"Y. c #FFEFEFEF",
"T. c #FFF0F0F0",
"R. c #FFF1F1F1",
"E. c #FFF2F2F2",
"W. c #FFF3F3F3",
"Q. c #FFF4F4F4",
"!. c #FFF5F5F5",
"~. c #FFF6F6F6",
"^. c #FFF7F7F7",
"/. c #FFF8F8F8",
"(. c #FFF9F9F9",
"). c #FFFAFAFA",
"_. c #FFFBFBFB",
"`. c #FFFCFCFC",
"'. c #FFFDFDFD",
"]. c #FFFEFEFE",
"[. c #FFFFFFFF",
/* pixels */
"                                                                                                                                                                                                                                                                ",
"                                                                                                                                                                                                                                                                ",
"                                                                                                                                                                                                                                                                ",
"                                                                                                                                                                                                                                                                ",
"                                                                                                                                                                                                                                                                ",
"                                                                                                                                                                                                                                                                ",
"                                                                                                                                                                                                                                                                ",
"                                                                                                                                                                                                                                                                ",
"                                                                                                                                                                                                                                                                ",
"                                                                                                                                                                                                                                                                ",
"                                                                                                                                                                                                                                                                ",
"                                                                                                                                                                                                                                                                ",
"                                                                                                                                                                                                                                                                ",
"                                                                                                                                                                                                                                                                ",
"                                                                                                                                                                                                                                                                ",
"                                                                                                                                                                                                                                                                ",
"                                                                                                                                                                                                                                                                ",
"                                                      ^.^.8.x + + + + + + + + + > G                                                                                                                                                                             ",
"                                                    ^./././.f.k + 8 x w + + + + + + k > + 8                                                                                                                                                                     ",
"                                                    /./.^.^./.*.+ k C.C.^ + k u > + + + + + + u 8 > u                                                                                                                                                           ",
"                                                    /.P.L ` ^.b.w k P./.8.w d.C.@.> + + + + + o + + + G                                                                                                                                                         ",
"                                                    /.b.8 8 b.P.k k P./.b.L P./.d.8 + + + > G k > + + 8 8 + + + + 8 u                                                                                                                                           ",
"                                                    /.P.b w b.^.x k P./.^.1.^./.d.8 w 8 + w b.C.1.@.8 + + + + + + + + + !                                                                                                                                       ",
"                                                    /./.f.1.^.P.k k P.^.^.^././.d.} C.f.` k b.P.P.P.k o + + + + + + + + !                                                                                                                                       ",
"                                                      /./././.b.w k P.C.C./.^.^.b.C.^.C.^. .b.P.P.C.x 8 + + + + + + + + u 8 L                                                                                                                                   ",
"                                                        ^./.^. .+ x P.f.1./.8.P.C.P.^.8.^.b.C.P.C.P.1.f.I + u u > + + + + + > w + > k                                                                                                                           ",
"                                                                    /.d.} ^.} P.C.P.^.d.C.P.^.P.C./././.d.! C.P.1.x w w + + + + w +.1.*.G > + o + + + + + > u                                                                                                   ",
"                                                                        ` b.I ^.f.d.^.@.d.f.^.P.C.^.+.P.P.f./.P./.8.+.b.` ` u o I /././.P.` C ` u + + + + + + + + w I                                                                                           ",
"                                                                                8. ./././.b.P.P.C.P.b d.^.P.^.! 8.^.d./.^./.@.+ ^ /.C.1./.C.*./.` G b > + + + + + + + + !                                                                                       ",
"                                                                                      ^.^.*.P.P.P.P.b d.P.b.^.b *./.b./.b.^.d.> I /.P.*.f.8.@.b.` f.C.w + + + + + + + + G                                                                                       ",
"                                                                                                P.C.b f.C.>./.8.b.^.b./.} b.C.8 u f././.^.*.} P.8.P.^.b + > + + + + + + > w + w                                                                                 ",
"                                                                                                        b.^ ^././.C.1./.! b ! > b @.f.b./.^.8./.C././.@.+.d.+.k + + + + + + + + 8  .                                                                            ",
"                                                                                                                ^.  1./.I o + o } /.f.! P./.b./.1.C./.C.^.^.^.d.w + + + + + + + + G                                                                             ",
"                                                                                                                                  /.^.C.^.^.b./.} d.P.*./.f.d./.L o + + + + + + + b                                                                             ",
"                                                                                                                                    ^././.C.>./.} d.^.8./.C.C.^.` + + + + + + + + C                                                                             ",
"                                                                                                                                              /.} d./.C.^.8.+.f.I + + + + + + + + C                                                                             ",
"                                                                                                                                                    /.>.b./.^./.! o + + + + + + >                                                                               ",
"                                                                                                                                                          ^.^.P.b                                                                                               ",
"                                                                                                                                                                                                                                                                ",
"                                                                                                                                                                                                                                                                ",
"                                                                                                                                                                                                                                                                ",
"                                                                                                                                                                                                                                                                ",
"                                                                                                                                                                                                                                                                ",
"                                                                                                                                                                                                                                                                ",
"                                                                                                                                                                                                                                                                ",
"                                                                                                                                                                                                                                                                ",
"                                                                                                                                                                                                                                                                ",
"                                                                                                                                                                                                                                                                ",
"                                                                                                                                                                                                                                                                ",
"                                                                                                                                                                                                                                                                ",
"                                                                                                                                                                                                                                                                ",
"                                                                                                                                                                                                                                                                ",
"                                                                                                                                                                                                                                                                ",
"                                                                                                                                                                                                                                                                "
};
