/* XPM */
static char *oms_036[] = {
/* columns rows colors chars-per-pixel */
"128 54 198 2 ",
"   c #00000000",
".  c #FF0B0B0B",
"X  c #FF0C0C0C",
"o  c #FF0D0D0D",
"O  c #FF0E0E0E",
"+  c #FF0F0F0F",
"@  c #FF101010",
"#  c #FF111111",
"$  c #FF121212",
"%  c #FF131313",
"&  c #FF141414",
"*  c #FF151515",
"=  c #FF161616",
"-  c #FF171717",
";  c #FF181818",
":  c #FF1A1A1A",
">  c #FF1B1B1B",
",  c #FF1C1C1C",
"<  c #FF1D1D1D",
"1  c #FF1E1E1E",
"2  c #FF1F1F1F",
"3  c #FF202020",
"4  c #FF212121",
"5  c #FF222222",
"6  c #FF232323",
"7  c #FF242424",
"8  c #FF272727",
"9  c #FF282828",
"0  c #FF292929",
"q  c #FF2A2A2A",
"w  c #FF2B2B2B",
"e  c #FF2C2C2C",
"r  c #FF2E2E2E",
"t  c #FF2F2F2F",
"y  c #FF303030",
"u  c #FF313131",
"i  c #FF323232",
"p  c #FF333333",
"a  c #FF343434",
"s  c #FF353535",
"d  c #FF363636",
"f  c #FF373737",
"g  c #FF383838",
"h  c #FF393939",
"j  c #FF3A3A3A",
"k  c #FF3B3B3B",
"l  c #FF3C3C3C",
"z  c #FF3E3E3E",
"x  c #FF3F3F3F",
"c  c #FF404040",
"v  c #FF414141",
"b  c #FF424242",
"n  c #FF434343",
"m  c #FF444444",
"M  c #FF464646",
"N  c #FF474747",
"B  c #FF484848",
"V  c #FF494949",
"C  c #FF4A4A4A",
"Z  c #FF4C4C4C",
"A  c #FF515151",
"S  c #FF545454",
"D  c #FF595959",
"F  c #FF5A5A5A",
"G  c #FF5C5C5C",
"H  c #FF5D5D5D",
"J  c #FF606060",
"K  c #FF636363",
"L  c #FF666666",
"P  c #FF676767",
"I  c #FF686868",
"U  c #FF696969",
"Y  c #FF6A6A6A",
"T  c #FF6C6C6C",
"R  c #FF6D6D6D",
"E  c #FF6E6E6E",
"W  c #FF6F6F6F",
"Q  c #FF707070",
"!  c #FF717171",
"~  c #FF747474",
"^  c #FF767676",
"/  c #FF7A7A7A",
"(  c #FF808080",
")  c #FF808080",
"_  c #FF818181",
"`  c #FF838383",
"'  c #FF858585",
"]  c #FF868686",
"[  c #FF878787",
"{  c #FF888888",
"}  c #FF898989",
"|  c #FF8A8A8A",
" . c #FF8B8B8B",
".. c #FF8D8D8D",
"X. c #FF8E8E8E",
"o. c #FF8F8F8F",
"O. c #FF909090",
"+. c #FF929292",
"@. c #FF939393",
"#. c #FF949494",
"$. c #FF959595",
"%. c #FF969696",
"&. c #FF979797",
"*. c #FF989898",
"=. c #FF999999",
"-. c #FF9D9D9D",
";. c #FFA0A0A0",
":. c #FFA1A1A1",
">. c #FFA2A2A2",
",. c #FFA3A3A3",
"<. c #FFA4A4A4",
"1. c #FFA6A6A6",
"2. c #FFA7A7A7",
"3. c #FFA8A8A8",
"4. c #FFA9A9A9",
"5. c #FFAAAAAA",
"6. c #FFABABAB",
"7. c #FFACACAC",
"8. c #FFADADAD",
"9. c #FFAEAEAE",
"0. c #FFAFAFAF",
"q. c #FFB0B0B0",
"w. c #FFB1B1B1",
"e. c #FFB2B2B2",
"r. c #FFB2B2B2",
"t. c #FFB4B4B4",
"y. c #FFB5B5B5",
"u. c #FFB6B6B6",
"i. c #FFB7B7B7",
"p. c #FFB8B8B8",
"a. c #FFB9B9B9",
"s. c #FFBABABA",
"d. c #FFBBBBBB",
"f. c #FFBCBCBC",
"g. c #FFBFBFBF",
"h. c #FFC0C0C0",
"j. c #FFC1C1C1",
"k. c #FFC2C2C2",
"l. c #FFC3C3C3",
"z. c #FFC4C4C4",
"x. c #FFC5C5C5",
"c. c #FFC6C6C6",
"v. c #FFC7C7C7",
"b. c #FFC8C8C8",
"n. c #FFCACACA",
"m. c #FFCBCBCB",
"M. c #FFCCCCCC",
"N. c #FFCDCDCD",
"B. c #FFCECECE",
"V. c #FFCFCFCF",
"C. c #FFD0D0D0",
"Z. c #FFD1D1D1",
"A. c #FFD2D2D2",
"S. c #FFD3D3D3",
"D. c #FFD4D4D4",
"F. c #FFD5D5D5",
"G. c #FFD6D6D6",
"H. c #FFD7D7D7",
"J. c #FFD8D8D8",
"K. c #FFD9D9D9",
"L. c #FFDADADA",
"P. c #FFDBDBDB",
"I. c #FFDCDCDC",
"U. c #FFDDDDDD",
"Y. c #FFDEDEDE",
"T. c #FFDFDFDF",
"R. c #FFE0E0E0",
"E. c #FFE1E1E1",
"W. c #FFE2E2E2",
"Q. c #FFE3E3E3",
"!. c #FFE4E4E4",
"~. c #FFE6E6E6",
"^. c #FFE6E6E6",
"/. c #FFE7E7E7",
"(. c #FFE8E8E8",
"). c #FFE9E9E9",
"_. c #FFEAEAEA",
"`. c #FFEBEBEB",
"'. c #FFECECEC",
"]. c #FFEDEDED",
"[. c #FFEEEEEE",
"{. c #FFEFEFEF",
"}. c #FFF0F0F0",
"|. c #FFF1F1F1",
" X c #FFF2F2F2",
".X c #FFF3F3F3",
"XX c #FFF4F4F4",
"oX c #FFF5F5F5",
"OX c #FFF6F6F6",
"+X c #FFF7F7F7",
"@X c #FFF8F8F8",
"#X c #FFF9F9F9",
"$X c #FFFAFAFA",
"%X c #FFFBFBFB",
"&X c #FFFCFCFC",
"*X c #FFFDFDFD",
"=X c #FFFEFEFE",
"-X c #FFFFFFFF",
/* pixels */
"                                                                                                                                                                                                                                                                ",
"                                                                                                                                                                                                                                                                ",
"                                                                                                                                                                                                                                                                ",
"                                                                                                                                                                                                                                                                ",
"                                                                                                                                                                                                                                                                ",
"                                                                                                                                                                                                                                                                ",
"                                                                                                                                                                                                                                                                ",
"                                                                                                                                                                                                                                                                ",
"                                                                                                                                                                                                                                                                ",
"                                                                                                                                                                                                                                                                ",
"                                                                                                                                                                                                                                                                ",
"                                                                                                                                                                                                                                                                ",
"                                                                                                                                                                                                                                                                ",
"                                                                                                                                                                                                                                                                ",
"                                                                                                                                                                                                                                                                ",
"                                                                                                                                                                                                                                                                ",
"                                                                                                                                                                                                                                                                ",
"                                                                                                                                                                                                                                                                ",
"                                                                                                                                                                                                                                                                ",
"                                                                                                                                                                                                                                                                ",
"                                                                                                                                                                                                                                                                ",
"                                                                                                                                                                                  & & &       m k k k t &                                                       ",
"                                                                                                                                                                          t & & & & & & S <.V.A././.K.A.&.t &. X XK.d <. X X(.                                  ",
"                                                                                  &                     & & & & ; S U ) ^ { K. X                                        D & & & & & & D (.$X$X$X X$X$X$X$X6.*.(./.c.k V.$X$XA.d & d (                           ",
"                                    4 & & & & d J           ; & & & k { <.6.*.U & & m d.A./. X/.      k & & & & 4 V.$X$Xc./.$X$X X                  4 4 4 ; ; & ; t k   k m V 4 & & & <.$X$X$XA.U 6.K.A.c.{ &.K.K.V.d. X$X$X$X<.D V. X X X$X$X X                ",
"                                  ; & & & V 6.K.(. X X$X$XA.m & & + U $X$X$X$X/.d & 6.$X$X$X$X<.&     k 4 4 ; & 4 V.$X$Xc.K.$X$Xy.d U ) ^ t & t ( y.c.V.c.y.J 4 y.V.A.y.6.(. Xy.4 & & *.$X$X$X X/./.(./.c.D <.$X$X(.(.$X$X$X$XA./.$X$XV.<.(.$X$X X              ",
"                                ; & & & D (.$X$X$X$X$X$X$X$XV.t & + U $X$X$X$X$X) m (.$X$X$X$X{ ; U y.A.K.K.c.( d V.$X$Xc.K.$X$XA.V. X$X$X6.k c.$X$X$X$X$X$X X{ K.$X$X$X$X$X$X$XD + & V K.$X$X$X$X$X$X$X$XK.c.$X$XK.) /.$X$XA.)  X$X$X(./.(. X X X              ",
"                                & & & 4 c.$X$X$XV.<.y.(.$X$X$XU + + U $X$X$X$X$XK.y.$X$X$X$X$X&.&.$X$X(.A. X$X$X*.V.$X$Xc.K.$X$X$X(. X$X$X(.y.$X$X X) U (.$X$XK./.$X$XA.&.$X$X$X^ + & t J y.K.d.{ c.$X$X$X XA.$X$XA.d V.$X$XA.)  X$X$Xy.U d.A./. X              ",
"                              d & & & k (.$X$XA.t & & { $X$X$X{ & + U $X$X$X$X$X$X$X$X X X$X$Xd./.$X$XK.y.(.$X$XK.K.$X$Xc.K.$X$XV.m 6.$X$X XK.$X$X/.t & V.$X$X/.(.$X$XV.S 6.<.<.m & & 6.(.(. XA.^ y.$X$X$X/.c.$X$XA.d V.$X$X$XV.K.$X$X(.A. X$X$X X              ",
"                                & & & m (.$X$Xd.& + + ^ $X$X$X{ & & U $X$X$XK. X$X$X$Xc.(.$X$Xc.(.$X$XK.y.V.A.A.c./.$X$Xc.K.$X$X6.+ ) $X$X(.c.$X$X X&.) (.$X$Xc./.$X$X X    ; & & & & ^  X$X$X$X$X$X$X$X X{ <.$X$XK.d 6.$X$X$Xc.U /. X X$X X X                  ",
"                                ; & & d /.$X$X(.) V U K.$X$X$XJ + + U $X$X$X{ A.$X$X/.U (.$X$Xy./.$X$XV.) A.(. Xc.K.$X$XV./.$X$X6.+ { $X$X(.U K.$X$X$X$X$X$XK.D K.$X$X X                <. X X X X X X X                                                        ",
"                                  & & ; y.$X$X$X$X X X$X$X$XV.t & + U $X$X$XU ( $X$X*.m (.$X$X*.&. X$X$X$X$X$X X^ V.$X$XV./. X$Xd.+ &.$X X X     X X X X X                                                                                                      ",
"                                      + V K.$X$X$X$X$X$X$X X    & + U  X X X) k (.$X  V (.$X$X       X X X X                                                                                                                                                    ",
"                                               X X X X X                                                                                                                                                                                                        ",
"                                                                                                                                                                                                                                                                ",
"                                                                                                                                                                                                                                                                ",
"                                                                                                                                                                                                                                                                ",
"                                                                                                                                                                                                                                                                ",
"                                                                                                                                                                                                                                                                ",
"                                                                                                                                                                                                                                                                ",
"                                                                                                                                                                                                                                                                ",
"                                                                                                                                                                                                                                                                ",
"                                                                                                                                                                                                                                                                ",
"                                                                                                                                                                                                                                                                ",
"                                                                                                                                                                                                                                                                ",
"                                                                                                                                                                                                                                                                ",
"                                                                                                                                                                                                                                                                ",
"                                                                                                                                                                                                                                                                ",
"                                                                                                                                                                                                                                                                ",
"                                                                                                                                                                                                                                                                ",
"                                                                                                                                                                                                                                                                ",
"                                                                                                                                                                                                                                                                ",
"                                                                                                                                                                                                                                                                ",
"                                                                                                                                                                                                                                                                "
};
