/* XPM */
static char *oms_310[] = {
/* columns rows colors chars-per-pixel */
"128 54 189 2 ",
"   c #00000000",
".  c #FF0B0B0B",
"X  c #FF0C0C0C",
"o  c #FF0D0D0D",
"O  c #FF0E0E0E",
"+  c #FF0F0F0F",
"@  c #FF101010",
"#  c #FF111111",
"$  c #FF121212",
"%  c #FF131313",
"&  c #FF141414",
"*  c #FF151515",
"=  c #FF161616",
"-  c #FF171717",
";  c #FF181818",
":  c #FF191919",
">  c #FF1A1A1A",
",  c #FF1B1B1B",
"<  c #FF1C1C1C",
"1  c #FF1D1D1D",
"2  c #FF1E1E1E",
"3  c #FF1F1F1F",
"4  c #FF202020",
"5  c #FF212121",
"6  c #FF222222",
"7  c #FF232323",
"8  c #FF242424",
"9  c #FF252525",
"0  c #FF272727",
"q  c #FF282828",
"w  c #FF292929",
"e  c #FF2A2A2A",
"r  c #FF2B2B2B",
"t  c #FF2C2C2C",
"y  c #FF2D2D2D",
"u  c #FF2E2E2E",
"i  c #FF2F2F2F",
"p  c #FF303030",
"a  c #FF333333",
"s  c #FF343434",
"d  c #FF363636",
"f  c #FF373737",
"g  c #FF383838",
"h  c #FF393939",
"j  c #FF3A3A3A",
"k  c #FF3B3B3B",
"l  c #FF3C3C3C",
"z  c #FF3D3D3D",
"x  c #FF3E3E3E",
"c  c #FF404040",
"v  c #FF434343",
"b  c #FF474747",
"n  c #FF494949",
"m  c #FF4B4B4B",
"M  c #FF4C4C4C",
"N  c #FF4C4C4C",
"B  c #FF4F4F4F",
"V  c #FF505050",
"C  c #FF515151",
"Z  c #FF525252",
"A  c #FF535353",
"S  c #FF545454",
"D  c #FF555555",
"F  c #FF585858",
"G  c #FF595959",
"H  c #FF5B5B5B",
"J  c #FF5C5C5C",
"K  c #FF616161",
"L  c #FF626262",
"P  c #FF636363",
"I  c #FF646464",
"U  c #FF656565",
"Y  c #FF666666",
"T  c #FF686868",
"R  c #FF696969",
"E  c #FF6B6B6B",
"W  c #FF6C6C6C",
"Q  c #FF707070",
"!  c #FF717171",
"~  c #FF727272",
"^  c #FF747474",
"/  c #FF767676",
"(  c #FF777777",
")  c #FF787878",
"_  c #FF797979",
"`  c #FF7A7A7A",
"'  c #FF7B7B7B",
"]  c #FF818181",
"[  c #FF828282",
"{  c #FF848484",
"}  c #FF858585",
"|  c #FF868686",
" . c #FF878787",
".. c #FF888888",
"X. c #FF898989",
"o. c #FF8A8A8A",
"O. c #FF8B8B8B",
"+. c #FF8C8C8C",
"@. c #FF8D8D8D",
"#. c #FF8F8F8F",
"$. c #FF909090",
"%. c #FF919191",
"&. c #FF959595",
"*. c #FF969696",
"=. c #FF989898",
"-. c #FF9B9B9B",
";. c #FFA0A0A0",
":. c #FFA1A1A1",
">. c #FFA2A2A2",
",. c #FFA4A4A4",
"<. c #FFA5A5A5",
"1. c #FFA6A6A6",
"2. c #FFA7A7A7",
"3. c #FFA9A9A9",
"4. c #FFAAAAAA",
"5. c #FFABABAB",
"6. c #FFACACAC",
"7. c #FFAEAEAE",
"8. c #FFAFAFAF",
"9. c #FFB0B0B0",
"0. c #FFB2B2B2",
"q. c #FFB2B2B2",
"w. c #FFB4B4B4",
"e. c #FFB5B5B5",
"r. c #FFB7B7B7",
"t. c #FFBABABA",
"y. c #FFBBBBBB",
"u. c #FFBCBCBC",
"i. c #FFBDBDBD",
"p. c #FF808080",
"a. c #FFBFBFBF",
"s. c #FFC0C0C0",
"d. c #FFC2C2C2",
"f. c #FFC4C4C4",
"g. c #FFC5C5C5",
"h. c #FFC6C6C6",
"j. c #FFC8C8C8",
"k. c #FFC9C9C9",
"l. c #FFCACACA",
"z. c #FFCBCBCB",
"x. c #FFCCCCCC",
"c. c #FFCDCDCD",
"v. c #FFCFCFCF",
"b. c #FFD0D0D0",
"n. c #FFD1D1D1",
"m. c #FFD2D2D2",
"M. c #FFD3D3D3",
"N. c #FFD4D4D4",
"B. c #FFD6D6D6",
"V. c #FFD7D7D7",
"C. c #FFD8D8D8",
"Z. c #FFD9D9D9",
"A. c #FFDADADA",
"S. c #FFDBDBDB",
"D. c #FFDCDCDC",
"F. c #FFDDDDDD",
"G. c #FFDFDFDF",
"H. c #FFE0E0E0",
"J. c #FFE1E1E1",
"K. c #FFE2E2E2",
"L. c #FFE3E3E3",
"P. c #FFE4E4E4",
"I. c #FFE6E6E6",
"U. c #FFE6E6E6",
"Y. c #FFE7E7E7",
"T. c #FFE8E8E8",
"R. c #FFE9E9E9",
"E. c #FFEAEAEA",
"W. c #FFEBEBEB",
"Q. c #FFECECEC",
"!. c #FFEDEDED",
"~. c #FFEEEEEE",
"^. c #FFEFEFEF",
"/. c #FFF0F0F0",
"(. c #FFF1F1F1",
"). c #FFF2F2F2",
"_. c #FFF3F3F3",
"`. c #FFF4F4F4",
"'. c #FFF5F5F5",
"]. c #FFF6F6F6",
"[. c #FFF7F7F7",
"{. c #FFF8F8F8",
"}. c #FFF9F9F9",
"|. c #FFFAFAFA",
" X c #FFFBFBFB",
".X c #FFFCFCFC",
"XX c #FFFDFDFD",
"oX c #FFFEFEFE",
"OX c #FFFFFFFF",
/* pixels */
"                                                                                                                                                                                                                                                                ",
"                                                                                                                                                                                                                                                                ",
"                                                                                                                                                                                                                                                                ",
"                                                                                                                                                                                                                                                                ",
"                                                                                                                                                                                                                                                                ",
"                                                                                                                                                                                                                                                                ",
"                                                                                                                                                                                                                                                                ",
"                                                                                                                                                                                                                                                                ",
"                                                                                                                                                                                                                                                                ",
"                                                                                                                                                                                                                                                                ",
"                                                                                                                                                                                                                                                                ",
"                                                                                                                                                                                                                                                                ",
"                                                                                                                                                                                                                                                                ",
"                                                                                                                                                                                                                                                                ",
"                                                                                                                                                                                                                                                                ",
"                                                                                                                                                                                                                                                                ",
"                                                                                                                                                                                                                                                                ",
"                                                                                                                                                                                                                                                                ",
"                                                    - - - - - - < e                                                                                                                                                                                             ",
"                                      [.[.[.^.n.) < - - < e 5 - - - < x   . - 5                                                                                                                                                                                 ",
"                                    [.}.}.}.}.}.}.+.- . G U.n.p.c . p m p 5 - - - - e - - < < Z                                                                                                                                                                 ",
"                                    }.}.[.h.p.[.}.^.x . Y }.}.}.&.- 6.}.^.h.e - - - - - - < - x             - e                                                                                                                                                 ",
"                                    }.}.C.e - =.}.}.T . Y [.}.}.z.c U.}.}.C.e . . . - - c z.p.} +.T 5 - - - - - - - - T                                                                                                                                         ",
"                                    }.}.n.5 . Y }.}.) . Y }.}.}.^.6.[.}.}.C.e x Y Z p - m [.}.z.[.[.Z . - - - - - - - Y                                                                                                                                         ",
"                                    }.}.[.} x 6.}.}.( . Y [.}.}.}.[.}.}.}.C.} ^.}.[.U.} Z ^.[.h.[.}.Z - - - - - . - - x e 5                                                                                                                                     ",
"                                      }.}.[.^.}.}.[.G . Y [.}.C.[.}.[.[.}.U.n.}.^.p.[.[.=.^.[.h.[.[.&.6.9.m - 5 c x 5 - - - 5 5 - - - 5 m         &.m < - - . . - - < e                                                                                         ",
"                                      }.}.}.}.}.}.h.5 . Y [.}.;.U.}.n.z.}.^.^.}.[.C.[.}.n.^.[.h.[.}.[.}.}.z.m h.^.^.C.=.e m G x < e - - - Y [.}.}.[.U.6.p Y +.G < - . - - - - < m                                                                               ",
"                                          [.[.}.U.      =.}.}.) p.}.&.9.}.U.C.}.C.+.z.C.z.^.[.h.[.}.p.n.}.^.p.}.}.^.[.}.6.6.}.n.9.U.+.- - &.}.}.C.n.}.}.9.9.}.n.m +.( e - - - - - - - (                                                                         ",
"                                                            [.( ;.[.G p.}.C.=.}.^.h.^.^.z.^.[.h.[.}.Z ( }.^.C.}.U.m 6.}.U.n.}.}.}.}.^.x . &.}.}.h.+.C.n.p.;.C.9.T }.}.Y . - - . - - - m                                                                         ",
"                                                                          C.  ^.}.}.}.[.;.^.[.h.[.}.m ( }.^.n.}.U.p +.}.[.U.}.U.;.}.}.G . Z ^.}.}.[.[.n.T ;.[.n.z.}.}.;.< p m x 5 - - - < - - - e                                                               ",
"                                                                                          [.[.z.[.[.Z ) }.^.=.[.[.p.C.}.^.C.}.n.Z h.U.G - e +.C.^.[.}.}.n.h.}.U.^.}.}.U.} U.[.^.z.Y - - - - - - - e                                                             ",
"                                                                                                        [.^.Y C.}.}.}.}.p.h.}.C.5 < e < - &.U.U.=.( ^.}.^.C.}.C.6.}.}.C.C.}.U.h.[.^.m . - - - - - - )                                                           ",
"                                                                                                                    ^.    n.}.C.5 - -       }.}.U.h.[.}.^.C.}.n.Y [.}.} z.}.^.n.[.}.+.. - - - - - - )                                                           ",
"                                                                                                                                            [.}.}.}.}.}.z.p.}.n.Y [.}.z.C.}.C.;.n.U.+.- - - - - - - (                                                           ",
"                                                                                                                                                  [.}.    z.}.n.Z ^.}.U.p.}.^.9.U.U.} - - - - - - 5                                                             ",
"                                                                                                                                                                    }.C.( [.}.}.}.[.T - - - -                                                                   ",
"                                                                                                                                                                                                                                                                ",
"                                                                                                                                                                                                                                                                ",
"                                                                                                                                                                                                                                                                ",
"                                                                                                                                                                                                                                                                ",
"                                                                                                                                                                                                                                                                ",
"                                                                                                                                                                                                                                                                ",
"                                                                                                                                                                                                                                                                ",
"                                                                                                                                                                                                                                                                ",
"                                                                                                                                                                                                                                                                ",
"                                                                                                                                                                                                                                                                ",
"                                                                                                                                                                                                                                                                ",
"                                                                                                                                                                                                                                                                ",
"                                                                                                                                                                                                                                                                ",
"                                                                                                                                                                                                                                                                ",
"                                                                                                                                                                                                                                                                ",
"                                                                                                                                                                                                                                                                ",
"                                                                                                                                                                                                                                                                ",
"                                                                                                                                                                                                                                                                "
};
