/* XPM */
static char *oms_088[] = {
/* columns rows colors chars-per-pixel */
"128 54 102 2 ",
"   c #00000000",
".  c #FF0D0D0D",
"X  c #FF0F0F0F",
"o  c #FF101010",
"O  c #FF111111",
"+  c #FF121212",
"@  c #FF131313",
"#  c #FF141414",
"$  c #FF151515",
"%  c #FF161616",
"&  c #FF171717",
"*  c #FF181818",
"=  c #FF191919",
"-  c #FF1A1A1A",
";  c #FF1D1D1D",
":  c #FF1F1F1F",
">  c #FF232323",
",  c #FF252525",
"<  c #FF262626",
"1  c #FF2C2C2C",
"2  c #FF2F2F2F",
"3  c #FF313131",
"4  c #FF323232",
"5  c #FF393939",
"6  c #FF3A3A3A",
"7  c #FF3B3B3B",
"8  c #FF3C3C3C",
"9  c #FF434343",
"0  c #FF444444",
"q  c #FF4A4A4A",
"w  c #FF4C4C4C",
"e  c #FF4E4E4E",
"r  c #FF535353",
"t  c #FF545454",
"y  c #FF555555",
"u  c #FF575757",
"i  c #FF585858",
"p  c #FF5A5A5A",
"a  c #FF5C5C5C",
"s  c #FF626262",
"d  c #FF636363",
"f  c #FF656565",
"g  c #FF666666",
"h  c #FF696969",
"j  c #FF6A6A6A",
"k  c #FF717171",
"l  c #FF737373",
"z  c #FF7C7C7C",
"x  c #FF808080",
"c  c #FF808080",
"v  c #FF828282",
"b  c #FF838383",
"n  c #FF848484",
"m  c #FF8A8A8A",
"M  c #FF8C8C8C",
"N  c #FF8E8E8E",
"B  c #FF909090",
"V  c #FF999999",
"C  c #FF9A9A9A",
"Z  c #FF9C9C9C",
"A  c #FF9D9D9D",
"S  c #FF9F9F9F",
"D  c #FFA3A3A3",
"F  c #FFA8A8A8",
"G  c #FFABABAB",
"H  c #FFADADAD",
"J  c #FFAFAFAF",
"K  c #FFB0B0B0",
"L  c #FFB4B4B4",
"P  c #FFB8B8B8",
"I  c #FFBDBDBD",
"U  c #FFBFBFBF",
"Y  c #FFC0C0C0",
"T  c #FFC2C2C2",
"R  c #FFC4C4C4",
"E  c #FFC6C6C6",
"W  c #FFC8C8C8",
"Q  c #FFCACACA",
"!  c #FFCCCCCC",
"~  c #FFCDCDCD",
"^  c #FFD2D2D2",
"/  c #FFD8D8D8",
"(  c #FFD9D9D9",
")  c #FFDBDBDB",
"_  c #FFDCDCDC",
"`  c #FFDDDDDD",
"'  c #FFDEDEDE",
"]  c #FFE0E0E0",
"[  c #FFE2E2E2",
"{  c #FFE4E4E4",
"}  c #FFE6E6E6",
"|  c #FFE6E6E6",
" . c #FFE7E7E7",
".. c #FFE8E8E8",
"X. c #FFE9E9E9",
"o. c #FFEBEBEB",
"O. c #FFECECEC",
"+. c #FFEEEEEE",
"@. c #FFEFEFEF",
"#. c #FFF1F1F1",
"$. c #FFF3F3F3",
"%. c #FFF5F5F5",
/* pixels */
"                                                                                                                                                                                                                                                                ",
"                                                                                                                                                                                                                                                                ",
"                                                                                                                                                                                                                                                                ",
"                                                                                                                                                                                                                                                                ",
"                                                                                                                                                                                                                                                                ",
"                                                                                                                                                                                                                                                                ",
"                                                                                                                                                                                                                                                                ",
"                                                                                                                                                                                                                                                                ",
"                                                                                                                                                                                                                                                                ",
"                                                                                                                                                                                                                                                                ",
"                                                                                                                                                                                                                                                                ",
"                                                                                                                                                                                                                                                                ",
"                                                                                                                                                                                                                                                                ",
"                                                                                                                                                                                                                                                                ",
"                                                                                                                                                                                                                                                                ",
"                                                                                                                                                                                                                                                                ",
"                                                                                                                                        4 @ @ @ @ @ @ @ @ @ @ b L                                                                                               ",
"                                                                                                                                      5 = @ @ @ @ @ @ @ @ @ u Y '                                                                                               ",
"                                                                                                                                    N = @ @ @ @ @ @ @ @ @ @ D ] %.                                                                                              ",
"                                                                                                                                    b = @ @ @ @ @ @ @ @ @ = L ] ..                                                                                              ",
"                                                                                                                                    z @ @ @ @ @ @ @ @ @ @ = U ' ]                                                                                               ",
"                                                                                                                                    h @ @ @ @ @ @ @ @ @ @ < ! ' ..                                                                                              ",
"                                                                                                                                  N 4 @ @ @ @ @ @ @ @ @ = h ! ] ..                                                                                              ",
"                                                                                                                                  0 @ @ @ @ @ @ @ @ @ @ w H H ..                                                                                                ",
"                                                                                                                              h 2 @ @ @ @ @ @ @ @ @ 2 w H Y ! %.                                                                                                ",
"                                                                                                                              5 X @ @ @ @ @ @ @ @ @ f S ' S Y                                                                                                   ",
"                                                                                                                              4 @ @ @ @ @ @ @ @ @ @ l ' ! S                                                                                                     ",
"                                                                                                                          B 5 = @ @ @ @ @ @ @ @ = 5 l ..'                                                                                                       ",
"                                                                                                                          i @ @ @ @ @ @ @ @ @ @ 4 N H ^ ..                                                                                                      ",
"                                                                                                                        S = @ @ @ @ @ @ @ @ @ = b Y ] Y ]                                                                                                       ",
"                                                                                                                        i @ @ @ @ @ @ @ @ @ @ < H ' ] '                                                                                                         ",
"                                                                                                                      z @ @ @ @ @ @ @ @ @ @ < b U %.] ]                                                                                                         ",
"                                                                                                                      f @ @ @ @ @ @ @ @ @ @ 0 Y Y ..]                                                                                                           ",
"                                                                                                                      u @ @ @ @ @ @ @ @ @ X u ! U ....                                                                                                          ",
"                                                                                                                      f @ @ @ @ @ @ @ @ @ @ i S U ]                                                                                                             ",
"                                                                                                                      f @ @ @ @ @ @ @ @ @ @ w b H                                                                                                               ",
"                                                                                                                      i @ @ @ @ @ @ @ @ @ @ u S L                                                                                                               ",
"                                                                                                                      u @ @ @ @ @ @ @ @ @ X f !                                                                                                                 ",
"                                                                                                                      i @ @ @ @ @ @ @ @ @ X h %.                                                                                                                ",
"                                                                                                                                @ = = @ @ X i                                                                                                                   ",
"                                                                                                                                                                                                                                                                ",
"                                                                                                                                                                                                                                                                ",
"                                                                                                                                                                                                                                                                ",
"                                                                                                                                                                                                                                                                ",
"                                                                                                                                                                                                                                                                ",
"                                                                                                                                                                                                                                                                ",
"                                                                                                                                                                                                                                                                ",
"                                                                                                                                                                                                                                                                ",
"                                                                                                                                                                                                                                                                ",
"                                                                                                                                                                                                                                                                ",
"                                                                                                                                                                                                                                                                ",
"                                                                                                                                                                                                                                                                ",
"                                                                                                                                                                                                                                                                ",
"                                                                                                                                                                                                                                                                "
};
