/* XPM */
static char *oms_125[] = {
/* columns rows colors chars-per-pixel */
"128 54 185 2 ",
"   c #00000000",
".  c #FF0C0C0C",
"X  c #FF0E0E0E",
"o  c #FF0F0F0F",
"O  c #FF101010",
"+  c #FF111111",
"@  c #FF121212",
"#  c #FF131313",
"$  c #FF141414",
"%  c #FF151515",
"&  c #FF161616",
"*  c #FF171717",
"=  c #FF181818",
"-  c #FF191919",
";  c #FF1A1A1A",
":  c #FF1B1B1B",
">  c #FF1C1C1C",
",  c #FF1D1D1D",
"<  c #FF1E1E1E",
"1  c #FF1F1F1F",
"2  c #FF202020",
"3  c #FF212121",
"4  c #FF222222",
"5  c #FF232323",
"6  c #FF242424",
"7  c #FF252525",
"8  c #FF272727",
"9  c #FF282828",
"0  c #FF292929",
"q  c #FF2A2A2A",
"w  c #FF2B2B2B",
"e  c #FF2C2C2C",
"r  c #FF2D2D2D",
"t  c #FF2F2F2F",
"y  c #FF303030",
"u  c #FF313131",
"i  c #FF333333",
"p  c #FF353535",
"a  c #FF363636",
"s  c #FF373737",
"d  c #FF383838",
"f  c #FF393939",
"g  c #FF3A3A3A",
"h  c #FF3B3B3B",
"j  c #FF3D3D3D",
"k  c #FF3F3F3F",
"l  c #FF404040",
"z  c #FF414141",
"x  c #FF434343",
"c  c #FF464646",
"v  c #FF474747",
"b  c #FF494949",
"n  c #FF4A4A4A",
"m  c #FF4B4B4B",
"M  c #FF4C4C4C",
"N  c #FF4C4C4C",
"B  c #FF4E4E4E",
"V  c #FF4F4F4F",
"C  c #FF505050",
"Z  c #FF515151",
"A  c #FF525252",
"S  c #FF535353",
"D  c #FF545454",
"F  c #FF585858",
"G  c #FF5A5A5A",
"H  c #FF5B5B5B",
"J  c #FF5C5C5C",
"K  c #FF5D5D5D",
"L  c #FF5F5F5F",
"P  c #FF616161",
"I  c #FF646464",
"U  c #FF656565",
"Y  c #FF666666",
"T  c #FF676767",
"R  c #FF6A6A6A",
"E  c #FF6B6B6B",
"W  c #FF6C6C6C",
"Q  c #FF6D6D6D",
"!  c #FF717171",
"~  c #FF737373",
"^  c #FF767676",
"/  c #FF777777",
"(  c #FF787878",
")  c #FF7C7C7C",
"_  c #FF7D7D7D",
"`  c #FF7E7E7E",
"'  c #FF808080",
"]  c #FF828282",
"[  c #FF858585",
"{  c #FF868686",
"}  c #FF888888",
"|  c #FF898989",
" . c #FF8A8A8A",
".. c #FF8C8C8C",
"X. c #FF959595",
"o. c #FF969696",
"O. c #FF9A9A9A",
"+. c #FF9B9B9B",
"@. c #FF9C9C9C",
"#. c #FF9D9D9D",
"$. c #FF9E9E9E",
"%. c #FF9F9F9F",
"&. c #FFA0A0A0",
"*. c #FFA1A1A1",
"=. c #FFA2A2A2",
"-. c #FFA4A4A4",
";. c #FFA5A5A5",
":. c #FFA6A6A6",
">. c #FFA7A7A7",
",. c #FFA8A8A8",
"<. c #FFA9A9A9",
"1. c #FFAAAAAA",
"2. c #FFABABAB",
"3. c #FFACACAC",
"4. c #FFAFAFAF",
"5. c #FFB0B0B0",
"6. c #FFB1B1B1",
"7. c #FFB2B2B2",
"8. c #FFB2B2B2",
"9. c #FFB4B4B4",
"0. c #FFB6B6B6",
"q. c #FFBABABA",
"w. c #FFBCBCBC",
"e. c #FFBDBDBD",
"r. c #FF808080",
"t. c #FFBFBFBF",
"y. c #FFC0C0C0",
"u. c #FFC1C1C1",
"i. c #FFC2C2C2",
"p. c #FFC3C3C3",
"a. c #FFC4C4C4",
"s. c #FFC5C5C5",
"d. c #FFC7C7C7",
"f. c #FFC9C9C9",
"g. c #FFCACACA",
"h. c #FFCBCBCB",
"j. c #FFCCCCCC",
"k. c #FFCFCFCF",
"l. c #FFD0D0D0",
"z. c #FFD1D1D1",
"x. c #FFD2D2D2",
"c. c #FFD3D3D3",
"v. c #FFD4D4D4",
"b. c #FFD5D5D5",
"n. c #FFD6D6D6",
"m. c #FFD7D7D7",
"M. c #FFD8D8D8",
"N. c #FFDADADA",
"B. c #FFDBDBDB",
"V. c #FFDCDCDC",
"C. c #FFDDDDDD",
"Z. c #FFDEDEDE",
"A. c #FFDFDFDF",
"S. c #FFE0E0E0",
"D. c #FFE1E1E1",
"F. c #FFE2E2E2",
"G. c #FFE3E3E3",
"H. c #FFE4E4E4",
"J. c #FFE6E6E6",
"K. c #FFE6E6E6",
"L. c #FFE7E7E7",
"P. c #FFE8E8E8",
"I. c #FFE9E9E9",
"U. c #FFEAEAEA",
"Y. c #FFEBEBEB",
"T. c #FFECECEC",
"R. c #FFEDEDED",
"E. c #FFEEEEEE",
"W. c #FFEFEFEF",
"Q. c #FFF0F0F0",
"!. c #FFF1F1F1",
"~. c #FFF2F2F2",
"^. c #FFF3F3F3",
"/. c #FFF4F4F4",
"(. c #FFF5F5F5",
"). c #FFF6F6F6",
"_. c #FFF7F7F7",
"`. c #FFF8F8F8",
"'. c #FFF9F9F9",
"]. c #FFFAFAFA",
"[. c #FFFBFBFB",
"{. c #FFFCFCFC",
"}. c #FFFDFDFD",
"|. c #FFFEFEFE",
" X c #FFFFFFFF",
/* pixels */
"                                                                                                                                                                                                                                                                ",
"                                                                                                                                                                                                                                                                ",
"                                                                                                                                                                                                                                                                ",
"                                                                                                                                                                                                                                                                ",
"                                                                                                                                                                                                                                                                ",
"                                                                                                                                                                                                                                                                ",
"                                                                                                                                                                                                                                                                ",
"                                                                                                                                                                                                                                                                ",
"                                                                                                                                                                                                                                                                ",
"                                                                                                                                                                                                                                                                ",
"                                                                                                                                                                                                                                                                ",
"                                                                                                                                                                                                                                                                ",
"                                                                                    # 1 h Y     7 Y                                                                                                                                                             ",
"                                                                          o # 1 1 # # # # # # # # # 1 1 y [                                                                                                                                                     ",
"                                                                    _.I.0.b o E r.H b v 1 # # # # # # # # h y 7 C                                                                                                                                               ",
"                                                                    ].I.K.K.H 0.].4.$._.) 1 e 1 # # # # # # # # # 7 C                                                                                                                                           ",
"                                                                    _.K.l.].k.I.].l.4.K.-.0.K.r.~ e # # # # # # # # # v                                                                                                                                         ",
"                                                                    I.r.u.].K.l.].].K.K.4.M.].].].k.b # # # # # # # # # }                                                                                                                                       ",
"                                                                    ].K.u.].l.$.].M.l.].-.) M.0.u.].k.7 # # # # # # # # ~                                                                                                                                       ",
"                                                                      ].].].l.K.].4.-.].l.K._.M.l.]._.v # # # # # # # # Y                                                                                                                                       ",
"                                                                          _.  _.].4.$.]._._.].].].]._.b o 7 7 # # # # # 1 # # # y v                                                                                                                             ",
"                                                                                ].4.0.].K._.].u.r.I.u.e # -.k.C e # # # # # # # # # 1 H                                                                                                                         ",
"                                                                                      ].r.M.].r.$.k.~ 1 e M.].K.M.$.7 1 # # # # # # # # # 1 e Y                                                                                                                 ",
"                                                                                            _.].].]._.C e M._.M.].K.) u.0.Y 1 # # # # e 1 # # # e # # # # # e b                                                                                                 ",
"                                                                                              _._.].K.h 1 $.I.$._.K.M.].].].4.7 # 1 # $.r.H e # # # # # # # # # # b                                                                                             ",
"                                                                                                                ].I.I.].0.u.].[ } r.C 4.].M.M.} 1 # # # # # # # # h k.                                                                                          ",
"                                                                                                                ].K.l.].E Y ].l.K.].M.l.].M.].k.7 # # # # # # # # h u.                                                                                          ",
"                                                                                                                ].M.-.].r.$.].I.I.].I._.].M._.k.1 # # # # e e # # 1 y # # # # # 1 y Y                                                                           ",
"                                                                                                                      _.].].].M.K._.~ u.].M._.k.Y -.) y o E M.$.h # o # # # # # # # 7 Y   C                                                                     ",
"                                                                                                                          _.].0.K._.b -.].M._.M.M.].].M.H E ].].-.# b v 1 # # # # # # # # # e H                                                                 ",
"                                                                                                                                ].I.b 4.].M._.K.K.].u.I.M.o.].].l.y k.I.0.v # # # # # # # # # e                                                                 ",
"                                                                                                                                      M.].M._.K.l.M.M._._.l.].].I.[ I.].].~ o # # 1 # # # # # 1 v # # # 1 b                                                     ",
"                                                                                                                                          K.].l.l._.o.l.]._.].].].K.].].].~ o e 4.k.$.C # # # # # # # # # # 7 ~                                                 ",
"                                                                                                                                                  ]._._.].K.].I.I.].].].].~ o [ ].].]._.o.1 # # # # # # # # # 1 }                                               ",
"                                                                                                                                                    _.].I.r.].M.u.].I.I.].~ o -.]._.I.].].[ # # # # # # # # # # v                                               ",
"                                                                                                                                                            ].l.} ].r.l.].~ # 4.].u.v -.].M.e # # # # # # # # # 7 0.                                            ",
"                                                                                                                                                                  _.) k.].~ o -.].4.o y K._.C # # # # # # # # # 1 $.                                            ",
"                                                                                                                                                                      I.].~ o ) ].M.h h K.].Y o # # # # # # # # 1 $.                                            ",
"                                                                                                                                                                                _.].M.l.].].Y o # # # # # # # # 1 4.                                            ",
"                                                                                                                                                                                  ].].].]._.b # # # # # # # # # v                                               ",
"                                                                                                                                                                                    _.].].u.7 # # # # # #                                                       ",
"                                                                                                                                                                                                                                                                ",
"                                                                                                                                                                                                                                                                ",
"                                                                                                                                                                                                                                                                ",
"                                                                                                                                                                                                                                                                ",
"                                                                                                                                                                                                                                                                ",
"                                                                                                                                                                                                                                                                ",
"                                                                                                                                                                                                                                                                ",
"                                                                                                                                                                                                                                                                ",
"                                                                                                                                                                                                                                                                ",
"                                                                                                                                                                                                                                                                ",
"                                                                                                                                                                                                                                                                ",
"                                                                                                                                                                                                                                                                ",
"                                                                                                                                                                                                                                                                "
};
