/* XPM */
static char *oms_089[] = {
/* columns rows colors chars-per-pixel */
"128 54 101 2 ",
"   c #00000000",
".  c #FF0F0F0F",
"X  c #FF101010",
"o  c #FF111111",
"O  c #FF121212",
"+  c #FF131313",
"@  c #FF141414",
"#  c #FF151515",
"$  c #FF161616",
"%  c #FF171717",
"&  c #FF181818",
"*  c #FF191919",
"=  c #FF1A1A1A",
"-  c #FF1B1B1B",
";  c #FF1C1C1C",
":  c #FF1D1D1D",
">  c #FF1F1F1F",
",  c #FF202020",
"<  c #FF222222",
"1  c #FF252525",
"2  c #FF262626",
"3  c #FF272727",
"4  c #FF282828",
"5  c #FF2A2A2A",
"6  c #FF2B2B2B",
"7  c #FF2E2E2E",
"8  c #FF2F2F2F",
"9  c #FF313131",
"0  c #FF323232",
"q  c #FF333333",
"w  c #FF343434",
"e  c #FF353535",
"r  c #FF373737",
"t  c #FF393939",
"y  c #FF3A3A3A",
"u  c #FF3C3C3C",
"i  c #FF3D3D3D",
"p  c #FF3F3F3F",
"a  c #FF404040",
"s  c #FF434343",
"d  c #FF484848",
"f  c #FF4C4C4C",
"g  c #FF4C4C4C",
"h  c #FF505050",
"j  c #FF545454",
"k  c #FF585858",
"l  c #FF5A5A5A",
"z  c #FF5D5D5D",
"x  c #FF606060",
"c  c #FF616161",
"v  c #FF666666",
"b  c #FF6C6C6C",
"n  c #FF717171",
"m  c #FF747474",
"M  c #FF757575",
"N  c #FF767676",
"B  c #FF787878",
"V  c #FF7C7C7C",
"C  c #FF808080",
"Z  c #FF818181",
"A  c #FF898989",
"S  c #FF8E8E8E",
"D  c #FF959595",
"F  c #FF9C9C9C",
"G  c #FF9D9D9D",
"H  c #FF9E9E9E",
"J  c #FFA0A0A0",
"K  c #FFAAAAAA",
"L  c #FFAFAFAF",
"P  c #FFB6B6B6",
"I  c #FFBABABA",
"U  c #FFBBBBBB",
"Y  c #FFBCBCBC",
"T  c #FFBFBFBF",
"R  c #FFC3C3C3",
"E  c #FFCACACA",
"W  c #FFCBCBCB",
"Q  c #FFCCCCCC",
"!  c #FFCDCDCD",
"~  c #FFCFCFCF",
"^  c #FFD3D3D3",
"/  c #FFD4D4D4",
"(  c #FFD6D6D6",
")  c #FFD9D9D9",
"_  c #FFDADADA",
"`  c #FFDBDBDB",
"'  c #FFDCDCDC",
"]  c #FFDFDFDF",
"[  c #FFE0E0E0",
"{  c #FFE3E3E3",
"}  c #FFE4E4E4",
"|  c #FFE6E6E6",
" . c #FFE6E6E6",
".. c #FFE7E7E7",
"X. c #FFEAEAEA",
"o. c #FFECECEC",
"O. c #FFEEEEEE",
"+. c #FFF0F0F0",
"@. c #FFF1F1F1",
"#. c #FFF4F4F4",
"$. c #FFF7F7F7",
/* pixels */
"                                                                                                                                                                                                                                                                ",
"                                                                                                                                                                                                                                                                ",
"                                                                                                                                                                                                                                                                ",
"                                                                                                                                                                                                                                                                ",
"                                                                                                                                                                                                                                                                ",
"                                                                                                                                                                                                                                                                ",
"                                                                                                                                                                                                                                                                ",
"                                                                                                                                                                                                                                                                ",
"                                                                                                                                                                                                                                                                ",
"                                                                                                                                                                                                                                                                ",
"                                                                                                                                                                                                                                                                ",
"                                                                                                                                                                                                                                                                ",
"                                                                                                                                                                                                                                                                ",
"                                                                                                                                                                                                                                                                ",
"                                                                                                                                                                                                                                                                ",
"                                                                                                                                                                                                                                                                ",
"                                                                                                                                      g O O O O O O O O O O m ~                                                                                                 ",
"                                                                                                                                    v - O O O O O O O O O 4 U /                                                                                                 ",
"                                                                                                                                    s O O O O O O O O O O j  . .                                                                                                ",
"                                                                                                                                    i O O O O O O O O O O j ' $.                                                                                                ",
"                                                                                                                                    i O O O O O O O O O O l O.$.                                                                                                ",
"                                                                                                                                  P q O O O O O O O O O O b $. .                                                                                                ",
"                                                                                                                                  v - O O O O O O O O O q G O.                                                                                                  ",
"                                                                                                                                  4 O O O O O O O O O O m U '                                                                                                   ",
"                                                                                                                              A 4 O O O O O O O O O - s U ~ O.                                                                                                  ",
"                                                                                                                              v . O O O O O O O O O q A / L                                                                                                     ",
"                                                                                                                              v O O O O O O O O O O q R ~                                                                                                       ",
"                                                                                                                              q O O O O O O O O O , g ~ ~                                                                                                       ",
"                                                                                                                            i O O O O O O O O O O j J ~ O.                                                                                                      ",
"                                                                                                                          Z - O O O O O O O O O - G ' ~ O.                                                                                                      ",
"                                                                                                                          l O O O O O O O O O O 4 U  ./                                                                                                         ",
"                                                                                                                        D , O O O O O O O O O - m ~  .'                                                                                                         ",
"                                                                                                                        B O O O O O O O O O O 4 L '  .                                                                                                          ",
"                                                                                                                        B , O O O O O O O O O q U ' $.                                                                                                          ",
"                                                                                                                        Z q O O O O O O O O O q J / $.                                                                                                          ",
"                                                                                                                        Z i O O O O O O O O O i G ~                                                                                                             ",
"                                                                                                                        B , O O O O O O O O , s U  .                                                                                                            ",
"                                                                                                                        m O O O O O O O O O O s /                                                                                                               ",
"                                                                                                                        m O O O O O O O O O O i '                                                                                                               ",
"                                                                                                                                  - - O - - O i ~                                                                                                               ",
"                                                                                                                                                                                                                                                                ",
"                                                                                                                                                                                                                                                                ",
"                                                                                                                                                                                                                                                                ",
"                                                                                                                                                                                                                                                                ",
"                                                                                                                                                                                                                                                                ",
"                                                                                                                                                                                                                                                                ",
"                                                                                                                                                                                                                                                                ",
"                                                                                                                                                                                                                                                                ",
"                                                                                                                                                                                                                                                                ",
"                                                                                                                                                                                                                                                                ",
"                                                                                                                                                                                                                                                                ",
"                                                                                                                                                                                                                                                                ",
"                                                                                                                                                                                                                                                                ",
"                                                                                                                                                                                                                                                                "
};
