/* XPM */
static char *oms_191[] = {
/* columns rows colors chars-per-pixel */
"128 54 197 2 ",
"   c #00000000",
".  c #FF090909",
"X  c #FF0E0E0E",
"o  c #FF0F0F0F",
"O  c #FF101010",
"+  c #FF111111",
"@  c #FF121212",
"#  c #FF131313",
"$  c #FF141414",
"%  c #FF151515",
"&  c #FF161616",
"*  c #FF171717",
"=  c #FF181818",
"-  c #FF191919",
";  c #FF1A1A1A",
":  c #FF1B1B1B",
">  c #FF1C1C1C",
",  c #FF1D1D1D",
"<  c #FF1E1E1E",
"1  c #FF1F1F1F",
"2  c #FF202020",
"3  c #FF212121",
"4  c #FF222222",
"5  c #FF232323",
"6  c #FF242424",
"7  c #FF252525",
"8  c #FF262626",
"9  c #FF272727",
"0  c #FF282828",
"q  c #FF292929",
"w  c #FF2A2A2A",
"e  c #FF2B2B2B",
"r  c #FF2C2C2C",
"t  c #FF2D2D2D",
"y  c #FF2E2E2E",
"u  c #FF303030",
"i  c #FF313131",
"p  c #FF323232",
"a  c #FF333333",
"s  c #FF343434",
"d  c #FF353535",
"f  c #FF363636",
"g  c #FF373737",
"h  c #FF383838",
"j  c #FF393939",
"k  c #FF3A3A3A",
"l  c #FF3B3B3B",
"z  c #FF3C3C3C",
"x  c #FF3D3D3D",
"c  c #FF3E3E3E",
"v  c #FF3F3F3F",
"b  c #FF404040",
"n  c #FF414141",
"m  c #FF434343",
"M  c #FF444444",
"N  c #FF454545",
"B  c #FF464646",
"V  c #FF474747",
"C  c #FF484848",
"Z  c #FF494949",
"A  c #FF4A4A4A",
"S  c #FF4B4B4B",
"D  c #FF4C4C4C",
"F  c #FF4E4E4E",
"G  c #FF4F4F4F",
"H  c #FF505050",
"J  c #FF515151",
"K  c #FF525252",
"L  c #FF535353",
"P  c #FF545454",
"I  c #FF585858",
"U  c #FF595959",
"Y  c #FF5A5A5A",
"T  c #FF5B5B5B",
"R  c #FF5C5C5C",
"E  c #FF5D5D5D",
"W  c #FF616161",
"Q  c #FF626262",
"!  c #FF636363",
"~  c #FF676767",
"^  c #FF696969",
"/  c #FF6A6A6A",
"(  c #FF6B6B6B",
")  c #FF6C6C6C",
"_  c #FF6D6D6D",
"`  c #FF6E6E6E",
"'  c #FF6F6F6F",
"]  c #FF707070",
"[  c #FF747474",
"{  c #FF757575",
"}  c #FF787878",
"|  c #FF7D7D7D",
" . c #FF7E7E7E",
".. c #FF808080",
"X. c #FF808080",
"o. c #FF838383",
"O. c #FF868686",
"+. c #FF898989",
"@. c #FF8A8A8A",
"#. c #FF8C8C8C",
"$. c #FF8D8D8D",
"%. c #FF909090",
"&. c #FF919191",
"*. c #FF929292",
"=. c #FF949494",
"-. c #FF969696",
";. c #FF989898",
":. c #FF999999",
">. c #FF9B9B9B",
",. c #FF9C9C9C",
"<. c #FF9F9F9F",
"1. c #FFA0A0A0",
"2. c #FFA2A2A2",
"3. c #FFA3A3A3",
"4. c #FFA5A5A5",
"5. c #FFA7A7A7",
"6. c #FFA8A8A8",
"7. c #FFA9A9A9",
"8. c #FFAAAAAA",
"9. c #FFACACAC",
"0. c #FFADADAD",
"q. c #FFAEAEAE",
"w. c #FFAFAFAF",
"e. c #FFB1B1B1",
"r. c #FFB2B2B2",
"t. c #FFB4B4B4",
"y. c #FFB5B5B5",
"u. c #FFB6B6B6",
"i. c #FFB7B7B7",
"p. c #FFB8B8B8",
"a. c #FFB9B9B9",
"s. c #FFBABABA",
"d. c #FFBBBBBB",
"f. c #FFBCBCBC",
"g. c #FFBDBDBD",
"h. c #FFBFBFBF",
"j. c #FFC0C0C0",
"k. c #FFC1C1C1",
"l. c #FFC2C2C2",
"z. c #FFC3C3C3",
"x. c #FFC4C4C4",
"c. c #FFC6C6C6",
"v. c #FFC7C7C7",
"b. c #FFC8C8C8",
"n. c #FFC9C9C9",
"m. c #FFCACACA",
"M. c #FFCBCBCB",
"N. c #FFCDCDCD",
"B. c #FFCECECE",
"V. c #FFCFCFCF",
"C. c #FFD0D0D0",
"Z. c #FFD1D1D1",
"A. c #FFD2D2D2",
"S. c #FFD3D3D3",
"D. c #FFD4D4D4",
"F. c #FFD5D5D5",
"G. c #FFD6D6D6",
"H. c #FFD7D7D7",
"J. c #FFD8D8D8",
"K. c #FFD9D9D9",
"L. c #FFDADADA",
"P. c #FFDBDBDB",
"I. c #FFDCDCDC",
"U. c #FFDDDDDD",
"Y. c #FFDEDEDE",
"T. c #FFDFDFDF",
"R. c #FFE0E0E0",
"E. c #FFE2E2E2",
"W. c #FFE3E3E3",
"Q. c #FFE4E4E4",
"!. c #FFE6E6E6",
"~. c #FFE6E6E6",
"^. c #FFE7E7E7",
"/. c #FFE8E8E8",
"(. c #FFE9E9E9",
"). c #FFEAEAEA",
"_. c #FFEBEBEB",
"`. c #FFECECEC",
"'. c #FFEDEDED",
"]. c #FFEEEEEE",
"[. c #FFEFEFEF",
"{. c #FFF0F0F0",
"}. c #FFF1F1F1",
"|. c #FFF2F2F2",
" X c #FFF3F3F3",
".X c #FFF4F4F4",
"XX c #FFF5F5F5",
"oX c #FFF6F6F6",
"OX c #FFF7F7F7",
"+X c #FFF8F8F8",
"@X c #FFF9F9F9",
"#X c #FFFAFAFA",
"$X c #FFFBFBFB",
"%X c #FFFCFCFC",
"&X c #FFFDFDFD",
"*X c #FFFEFEFE",
"=X c #FFFFFFFF",
/* pixels */
"                                                                                                                                                                                                                                                                ",
"                                                                                                                                                                                                                                                                ",
"                                                                                                                                                                                                                                                                ",
"                                                                                                                                                                                                                                                                ",
"                                                                                                                                                                                                                                                                ",
"                                                                                                                                                                                                                                                                ",
"                                                                                                                                                                                                                                                                ",
"                                                                                                                                                                                                                                                                ",
"                                                                                                                                                                                                                                                                ",
"                                                                                                                                                                                                                                                                ",
"                                                                                                                                                                                                                                                                ",
"                                                                                                                                                                                                                                                                ",
"                                                                                                                                                                                                                                                                ",
"                                                                                                                                                                                                                                                                ",
"                                                                                                                                                                                                                                                                ",
"                                                                                                                                                                                                                                                                ",
"                                                                                                                                                                                                                              D v v q q i v Y                   ",
"                                                                                                                                                                                  Y J V i v         i q q 3 1 3           i 1 @ @ @ @ @ @ @ @ q                 ",
"                                                                                                                                          J V v v v v i q 3                       @ @ @ @ @ 1     3 @ @ @ @ @ @         1 @ @ @ @ @ @ @ @ @ @ @ q               ",
"                                                                                                                                          @ @ @ @ @ @ @ @ @                       @ @ @ @ @ @ i   @ @ @ @ @ o o         @ @ @ @ 1 3 q q 3 1 @ @ 1               ",
"                                            ^ Y       ! D i i q 3 3 3 i v                                                                 @ @ @ @ @ @ @ @ @     v 3 3 1 1 3 q J   @ @ 1 1 1 1 1 q @ q V D J Y !         @ i [ u.m.Z.K.K.K.v.X.q @               ",
"                                D J D     1 @ @ @ i v 1 @ @ @ @ @ @ @ @ @ 1                       !       Y v i i q q i V     v 3 1 1 3 i @ 1 1 3 3 3 q i v V 1 @ @ @ @ @ @ @ 1 3 ^ f.f.v.Z.f.i o 3 v.(.{.{.{.{.        ! K.&X&X&X&X&X&X&X&X&Xv.i               ",
"                              q @ @ @ @ q @ @ @ @ @ @ @ @ @ @ @ @ @ o o o o         i 1 1 3 q 1 @ @ @ i q @ @ @ @ @ @ @ @ 3   @ @ @ @ @ @ @ -.m.Z.Z.>.~.~.{.f.@ @ @ o o o o o @ @ >.&X&X&X&X&X-.o ^ &X&X&X&X&X{.        ~.&X&X&X~.6.1.m.{.&X&X&X>.              ",
"            Y V D V V v     i 1 @ @ @ @ @ @ @ @ @ @ @ 1 @ @ @ q v D J Y Y D v     i @ @ @ @ @ @ @ @ @ @ @ @ @ @ @ @ @ o o @ 1 @ @ @ @ @ @ @ v.&X&X{.f.{.&X&Xv.@ 1 v Y [  . .^ v @ -.&X&X&X&X&X(.! m.&X&X&X&X&X{.        &X&X&X~.V @ @ 3 v.&X&X&XK.              ",
"        D 3 @ @ @ @ @ @ @ 3 @ @ @ @ 1 3 3 q 1 i >.u.u.>.1 Y u.K.(.{.{.{.&X{.~.Z.  3 @ @ @ @ @ @ @ @ @ @ 1 @ @ 1 i D J Y J v 1 @ 1 Y -.>.X.D v.&X&X{.u.{.&X&Xv.v 6.(.{.{.{.&X&X(.$.-.&X&X&X&X&X&X(.{.&X{.&X&X&X{.        &X&X&XK.q o @ q m.&X&X&X(.              ",
"      Y 1 @ @ @ @ @ @ @ o @ @ @ @ o ^ Z.K.~. .V {.{.&Xm.[ {.&X&X&XK.u.~.&X&X&X&X  @ @ @ v $.1.X.D >.6.f.1.q ^ v.~.{.&X{.{.(.f.v  .{.&X&X&X(.(.&X&X{.u.{.&X&Xm.f.&X&X{.f.6.{.&X&X(.f.&X&X&X{.{.&X&X&X&X(.{.&X&X{.        &X&X&X{.v.X.X.m.&X&X&X{.                ",
"      v @ @ @ @ @ @ 3 i v v i 1 @ q 1.&X&X&Xv. .Z.Z.Z.u.^ 1.v.Z.K.6.-.K.&X&X&X&X    @ i Z.&X&X&X(.&X&X&XZ.$.{.&X&X~.6.Z.&X&X&Xv.Z.&X&X&X{.u.(.&X&X{.u.{.&X&X~.(.(.(.(.Z.Z.{.&X&X{.m.&X&X&X{.{.&X&X&X{.  {.&X&X{.        {.&X&X&X&X&X&X&X&X&X&X{.                ",
"      v @ @ @ @ Y 6.Z.~.(.(.~.v.! $.&X&X&X&X&X{.{.&X&XZ.D f.(.{.{.&X&X&X&X&X(.m.      ^ &X&X&XZ.6.{.&X&XK.Z.&X&X&X[ o ! &X&X&X(.(.&X&X&X    v.&X&X{.u.{.&X&X(.~.~.K.~.$.-.{.&X&X{.m.&X&X&X{.  {.&X&X    {.&X&X{.          {.{.&X{.{.{.&X{.{.                    ",
"        @ @ @ ^ {.&X&XZ.u.(.&X&X(.u.(.&X&X&XK.f.{.&X&XK.m.&X&X&X&X~.f.Z.K.v.-.^       u.{.{.&X-.v {.&X&X(.~.&X&X&X1.V 1.&X&X&Xm.K.&X&X{.    v.&X&X{.v.{.&X&X{.{.&X&X&X&X&X&X&X{.    {.&X&X{.    &X{.    {.                                                      ",
"          @ 1 f.&X&X{.K.K.{.&X&X&X[ -.&X&X&X-.V {.&X&X~.~.&X&X&X{.-.Y v.(.(.{.{.                D (.&X&X{.  &X&X&X&X(.&X&X{.{.  ~.&X&X{.    (.&X&X{.  {.&X&X{.      {.{.                                                                                        ",
"            1 6.K.(.Z.-.X.K.&X&X{.6.K.&X&X&X>.V {.&X&X{.(.&X&X&X&X{.{.&X&X&X&X{.                  (.&X&X{.    {.&X{.&X&X{.                                                                                                                                      ",
"              Z.{.&X&X~.K.{.&X&XZ.6.&X&X&X&X    {.&X{.{.    {.&X&X&X{.{.{.{.                                                                                                                                                                                    ",
"                  {.&X&X&X{.{.                                                                                                                                                                                                                                  ",
"                                                                                                                                                                                                                                                                ",
"                                                                                                                                                                                                                                                                ",
"                                                                                                                                                                                                                                                                ",
"                                                                                                                                                                                                                                                                ",
"                                                                                                                                                                                                                                                                ",
"                                                                                                                                                                                                                                                                ",
"                                                                                                                                                                                                                                                                ",
"                                                                                                                                                                                                                                                                ",
"                                                                                                                                                                                                                                                                ",
"                                                                                                                                                                                                                                                                ",
"                                                                                                                                                                                                                                                                ",
"                                                                                                                                                                                                                                                                ",
"                                                                                                                                                                                                                                                                ",
"                                                                                                                                                                                                                                                                ",
"                                                                                                                                                                                                                                                                ",
"                                                                                                                                                                                                                                                                ",
"                                                                                                                                                                                                                                                                ",
"                                                                                                                                                                                                                                                                ",
"                                                                                                                                                                                                                                                                ",
"                                                                                                                                                                                                                                                                ",
"                                                                                                                                                                                                                                                                "
};
