/* XPM */
static char *oms_084[] = {
/* columns rows colors chars-per-pixel */
"128 54 135 2 ",
"   c #00000000",
".  c #FF0E0E0E",
"X  c #FF0F0F0F",
"o  c #FF101010",
"O  c #FF111111",
"+  c #FF121212",
"@  c #FF131313",
"#  c #FF141414",
"$  c #FF151515",
"%  c #FF161616",
"&  c #FF171717",
"*  c #FF181818",
"=  c #FF191919",
"-  c #FF1A1A1A",
";  c #FF1B1B1B",
":  c #FF1C1C1C",
">  c #FF1D1D1D",
",  c #FF1F1F1F",
"<  c #FF202020",
"1  c #FF222222",
"2  c #FF232323",
"3  c #FF272727",
"4  c #FF282828",
"5  c #FF292929",
"6  c #FF2A2A2A",
"7  c #FF2B2B2B",
"8  c #FF2D2D2D",
"9  c #FF303030",
"0  c #FF323232",
"q  c #FF373737",
"w  c #FF383838",
"e  c #FF393939",
"r  c #FF3B3B3B",
"t  c #FF3C3C3C",
"y  c #FF3D3D3D",
"u  c #FF404040",
"i  c #FF444444",
"p  c #FF4A4A4A",
"a  c #FF4F4F4F",
"s  c #FF535353",
"d  c #FF565656",
"f  c #FF5C5C5C",
"g  c #FF606060",
"h  c #FF616161",
"j  c #FF626262",
"k  c #FF646464",
"l  c #FF6A6A6A",
"z  c #FF6B6B6B",
"x  c #FF6C6C6C",
"c  c #FF717171",
"v  c #FF727272",
"b  c #FF737373",
"n  c #FF747474",
"m  c #FF797979",
"M  c #FF7B7B7B",
"N  c #FF7C7C7C",
"B  c #FF808080",
"V  c #FF838383",
"C  c #FF858585",
"Z  c #FF898989",
"A  c #FF8A8A8A",
"S  c #FF8B8B8B",
"D  c #FF8C8C8C",
"F  c #FF8D8D8D",
"G  c #FF8E8E8E",
"H  c #FF8F8F8F",
"J  c #FF929292",
"K  c #FF939393",
"L  c #FF959595",
"P  c #FF969696",
"I  c #FF979797",
"U  c #FF989898",
"Y  c #FF999999",
"T  c #FF9A9A9A",
"R  c #FF9D9D9D",
"E  c #FFA2A2A2",
"W  c #FFA3A3A3",
"Q  c #FFA7A7A7",
"!  c #FFADADAD",
"~  c #FFB0B0B0",
"^  c #FFB1B1B1",
"/  c #FFB2B2B2",
"(  c #FFB5B5B5",
")  c #FFB7B7B7",
"_  c #FFB8B8B8",
"`  c #FFB9B9B9",
"'  c #FF808080",
"]  c #FFC0C0C0",
"[  c #FFC3C3C3",
"{  c #FFC4C4C4",
"}  c #FFC5C5C5",
"|  c #FFC6C6C6",
" . c #FFC7C7C7",
".. c #FFC8C8C8",
"X. c #FFC9C9C9",
"o. c #FFCACACA",
"O. c #FFCCCCCC",
"+. c #FFCECECE",
"@. c #FFCFCFCF",
"#. c #FFD0D0D0",
"$. c #FFD2D2D2",
"%. c #FFD3D3D3",
"&. c #FFD4D4D4",
"*. c #FFD5D5D5",
"=. c #FFD6D6D6",
"-. c #FFD8D8D8",
";. c #FFD9D9D9",
":. c #FFDADADA",
">. c #FFDBDBDB",
",. c #FFDCDCDC",
"<. c #FFDEDEDE",
"1. c #FFDFDFDF",
"2. c #FFE0E0E0",
"3. c #FFE1E1E1",
"4. c #FFE2E2E2",
"5. c #FFE4E4E4",
"6. c #FFE6E6E6",
"7. c #FFE7E7E7",
"8. c #FFE8E8E8",
"9. c #FFE9E9E9",
"0. c #FFEAEAEA",
"q. c #FFEBEBEB",
"w. c #FFECECEC",
"e. c #FFEDEDED",
"r. c #FFEEEEEE",
"t. c #FFEFEFEF",
"y. c #FFF0F0F0",
"u. c #FFF2F2F2",
"i. c #FFF3F3F3",
"p. c #FFF4F4F4",
"a. c #FFF6F6F6",
"s. c #FFF7F7F7",
"d. c #FFF8F8F8",
"f. c #FFF9F9F9",
"g. c #FFFBFBFB",
/* pixels */
"                                                                                                                                                                                                                                                                ",
"                                                                                                                                                                                                                                                                ",
"                                                                                                                                                                                                                                                                ",
"                                                                                                                                                                                                                                                                ",
"                                                                                                                                                                                                                                                                ",
"                                                                                                                                                                                                                                                                ",
"                                                                                                                                                                                                                                                                ",
"                                                                                                                                                                                                                                                                ",
"                                                                                                                                                                                                                                                                ",
"                                                                                                                                                                                                                                                                ",
"                                                                                                                                                                                                                                                                ",
"                                                                                                                                                                                                                                                                ",
"                                                                                                                                                                                                                                                                ",
"                                                                                                                                                                                                                                                                ",
"                                                                                                                                                                                                                                                                ",
"                                                                                                                                                                                                                                                                ",
"                                                                                                                                            d * O O O * * * O O * a ' C                                                                                         ",
"                                                                                                                                          d * O O O O O O O O O w R O.! a.                                                                                      ",
"                                                                                                                                        k O O O O O O O O O O 7 O.<.<.<.6.                                                                                      ",
"                                                                                                                                        w O O O O O O O O O O d 8.<.a.8.8.                                                                                      ",
"                                                                                                                                        9 O O O O O O O O O O z [ [ 8.<.*.                                                                                      ",
"                                                                                                                                      R 7 O O O O O O O O O O v a.8.<.8.a.                                                                                      ",
"                                                                                                                                    v 2 O O O O O O O O O * z C d.a.<.6.                                                                                        ",
"                                                                                                                                  z 7 O O O O O O O * O * v <.k ' 8.*.                                                                                          ",
"                                                                                                                            k * * * O O O O O O O 7 M * Z <.6.C *.6.                                                                                            ",
"                                                                                                                            w O O O O O O O O O O C O.k *.a.' Z d.                                                                                              ",
"                                                                                                                            9 O O O O O O O O O O I 8.*.[ 8.M k a.                                                                                              ",
"                                                                                                                      Z * O O O O O O O O O 2 k * I d.a.^ 8.                                                                                                    ",
"                                                                                                                    v 7 O O O O O O O O O 2 f E C *.8.8.6.6.                                                                                                    ",
"                                                                                                                    u O O O O O O O O O . M ^ [ *.d.*.*.a.                                                                                                      ",
"                                                                                                                k * * O O O O O O O O 2 w I *.<.<.a.*.[ 8.                                                                                                      ",
"                                                                                                                w O O O O O O O O O O Z ^ I a.6.<.8.6.O.                                                                                                        ",
"                                                                                                              E 2 O O O O O O O O O 2 *.O.R d.<.O.8.a.                                                                                                          ",
"                                                                                                              Z * O O O O O O O O O 9 *.' E 8.*.8.8.                                                                                                            ",
"                                                                                                              Z * O O O O O O O O O u I I E <.[ 6.                                                                                                              ",
"                                                                                                              I O O O O O O O O O O a Z Z R O.O.                                                                                                                ",
"                                                                                                              Z * O O O O O O O O O a ^ E I <.                                                                                                                  ",
"                                                                                                              Z * O O O O O O O O O a 8.O.                                                                                                                      ",
"                                                                                                                7 O O O O O O O O O w 8.a.                                                                                                                      ",
"                                                                                                                                O O 7 *.                                                                                                                        ",
"                                                                                                                                                                                                                                                                ",
"                                                                                                                                                                                                                                                                ",
"                                                                                                                                                                                                                                                                ",
"                                                                                                                                                                                                                                                                ",
"                                                                                                                                                                                                                                                                ",
"                                                                                                                                                                                                                                                                ",
"                                                                                                                                                                                                                                                                ",
"                                                                                                                                                                                                                                                                ",
"                                                                                                                                                                                                                                                                ",
"                                                                                                                                                                                                                                                                ",
"                                                                                                                                                                                                                                                                ",
"                                                                                                                                                                                                                                                                ",
"                                                                                                                                                                                                                                                                ",
"                                                                                                                                                                                                                                                                "
};
