/* XPM */
static char *oms_059[] = {
/* columns rows colors chars-per-pixel */
"128 54 182 2 ",
"   c #00000000",
".  c #FF0D0D0D",
"X  c #FF0E0E0E",
"o  c #FF0F0F0F",
"O  c #FF101010",
"+  c #FF111111",
"@  c #FF121212",
"#  c #FF131313",
"$  c #FF141414",
"%  c #FF151515",
"&  c #FF161616",
"*  c #FF171717",
"=  c #FF181818",
"-  c #FF191919",
";  c #FF1A1A1A",
":  c #FF1B1B1B",
">  c #FF1C1C1C",
",  c #FF1D1D1D",
"<  c #FF1E1E1E",
"1  c #FF1F1F1F",
"2  c #FF202020",
"3  c #FF222222",
"4  c #FF232323",
"5  c #FF242424",
"6  c #FF252525",
"7  c #FF262626",
"8  c #FF272727",
"9  c #FF282828",
"0  c #FF292929",
"q  c #FF2A2A2A",
"w  c #FF2B2B2B",
"e  c #FF2C2C2C",
"r  c #FF2D2D2D",
"t  c #FF2F2F2F",
"y  c #FF303030",
"u  c #FF313131",
"i  c #FF333333",
"p  c #FF353535",
"a  c #FF363636",
"s  c #FF373737",
"d  c #FF393939",
"f  c #FF3A3A3A",
"g  c #FF3B3B3B",
"h  c #FF3C3C3C",
"j  c #FF3E3E3E",
"k  c #FF3F3F3F",
"l  c #FF404040",
"z  c #FF434343",
"x  c #FF474747",
"c  c #FF484848",
"v  c #FF494949",
"b  c #FF4A4A4A",
"n  c #FF4B4B4B",
"m  c #FF4C4C4C",
"M  c #FF535353",
"N  c #FF545454",
"B  c #FF565656",
"V  c #FF585858",
"C  c #FF595959",
"Z  c #FF5D5D5D",
"A  c #FF5E5E5E",
"S  c #FF5F5F5F",
"D  c #FF616161",
"F  c #FF646464",
"G  c #FF676767",
"H  c #FF686868",
"J  c #FF6A6A6A",
"K  c #FF6B6B6B",
"L  c #FF6E6E6E",
"P  c #FF6F6F6F",
"I  c #FF707070",
"U  c #FF717171",
"Y  c #FF737373",
"T  c #FF747474",
"R  c #FF797979",
"E  c #FF7A7A7A",
"W  c #FF7D7D7D",
"Q  c #FF7E7E7E",
"!  c #FF808080",
"~  c #FF808080",
"^  c #FF848484",
"/  c #FF858585",
"(  c #FF8A8A8A",
")  c #FF8C8C8C",
"_  c #FF8D8D8D",
"`  c #FF8F8F8F",
"'  c #FF909090",
"]  c #FF939393",
"[  c #FF979797",
"{  c #FF989898",
"}  c #FF999999",
"|  c #FF9B9B9B",
" . c #FF9D9D9D",
".. c #FF9F9F9F",
"X. c #FFA0A0A0",
"o. c #FFA1A1A1",
"O. c #FFA2A2A2",
"+. c #FFA3A3A3",
"@. c #FFA4A4A4",
"#. c #FFA5A5A5",
"$. c #FFA7A7A7",
"%. c #FFA8A8A8",
"&. c #FFA9A9A9",
"*. c #FFAAAAAA",
"=. c #FFABABAB",
"-. c #FFACACAC",
";. c #FFADADAD",
":. c #FFAEAEAE",
">. c #FFB0B0B0",
",. c #FFB2B2B2",
"<. c #FFB4B4B4",
"1. c #FFB5B5B5",
"2. c #FFB6B6B6",
"3. c #FFB7B7B7",
"4. c #FFB8B8B8",
"5. c #FFB9B9B9",
"6. c #FFBABABA",
"7. c #FFBCBCBC",
"8. c #FFBDBDBD",
"9. c #FF808080",
"0. c #FFBFBFBF",
"q. c #FFC0C0C0",
"w. c #FFC1C1C1",
"e. c #FFC2C2C2",
"r. c #FFC3C3C3",
"t. c #FFC4C4C4",
"y. c #FFC6C6C6",
"u. c #FFC7C7C7",
"i. c #FFC8C8C8",
"p. c #FFCACACA",
"a. c #FFCBCBCB",
"s. c #FFCCCCCC",
"d. c #FFCDCDCD",
"f. c #FFCECECE",
"g. c #FFCFCFCF",
"h. c #FFD0D0D0",
"j. c #FFD1D1D1",
"k. c #FFD2D2D2",
"l. c #FFD4D4D4",
"z. c #FFD5D5D5",
"x. c #FFD6D6D6",
"c. c #FFD7D7D7",
"v. c #FFD8D8D8",
"b. c #FFD9D9D9",
"n. c #FFDADADA",
"m. c #FFDBDBDB",
"M. c #FFDCDCDC",
"N. c #FFDDDDDD",
"B. c #FFDEDEDE",
"V. c #FFDFDFDF",
"C. c #FFE0E0E0",
"Z. c #FFE1E1E1",
"A. c #FFE2E2E2",
"S. c #FFE3E3E3",
"D. c #FFE4E4E4",
"F. c #FFE6E6E6",
"G. c #FFE6E6E6",
"H. c #FFE7E7E7",
"J. c #FFE8E8E8",
"K. c #FFE9E9E9",
"L. c #FFEAEAEA",
"P. c #FFEBEBEB",
"I. c #FFECECEC",
"U. c #FFEDEDED",
"Y. c #FFEEEEEE",
"T. c #FFEFEFEF",
"R. c #FFF0F0F0",
"E. c #FFF1F1F1",
"W. c #FFF2F2F2",
"Q. c #FFF3F3F3",
"!. c #FFF4F4F4",
"~. c #FFF5F5F5",
"^. c #FFF6F6F6",
"/. c #FFF7F7F7",
"(. c #FFF8F8F8",
"). c #FFF9F9F9",
"_. c #FFFAFAFA",
"`. c #FFFBFBFB",
"'. c #FFFCFCFC",
"]. c #FFFDFDFD",
"[. c #FFFEFEFE",
"{. c #FFFFFFF1",
/* pixels */
"                                                                                                                                                                                                                                                                ",
"                                                                                                                                                                                                                                                                ",
"                                                                                                                                                                                                                                                                ",
"                                                                                                                                                                                                                                                                ",
"                                                                                                                                                                                                                                                                ",
"                                                                                                                                                                                                                                                                ",
"                                                                                                                                                                                                                                                                ",
"                                                                                                                                                                                                                                                                ",
"                                                                                                                                                                                                                                                                ",
"                                                                                                                                                                                                                                                                ",
"                                                                                                                                                                                                                                                                ",
"                                                                                                                                                                                                                                                                ",
"                                                                                                                                                                                                                                                                ",
"                                                                                                                                                                                                                                                                ",
"                                                                                                                                                                                                                                                                ",
"                                                                                                                                                                                                                                                                ",
"                                                                                                                                                                                                                                                                ",
"                                                                                                                                                                                                                                                                ",
"                                                                                                                                                                                                                                                                ",
"                                                                                                                                                                          2 - @ @ @ X @ @ @ X                                                                   ",
"                                                                                                                                                              t @ @ @ @ @ @ @ @ @ z Q X.3.X.m =.].=.Q ].b.t @ C                                                 ",
"                                                                                                                                                            g @ @ @ @ @ @ @ @ @ K L.].].].].f.3.D.X.X.].L.D Q D.!.].!.                                          ",
"                                                                                                                                                          X.2 @ @ @ @ @ @ @ @ 2 l.].D.X.D.b.X.3.D.L.!.].].9.L.!.3.L.].!.                                        ",
"                                                                                                                      2 - @ @                     u - @ @ t @ @ @ @ @ - z - @ u L.].L.3.b.l.Q 9.].!.!.].L.q.].!.D.L.!.!.                                        ",
"                                                                                                                - @ @ @ @ @ @ @ - K } X.D.D.m @ X @ @ @ 2 g g - B } ] =.!.] @ t b.].].].].].L.D.].9.X.].f.` ].L.` 9.L.!.                                        ",
"                                                                                              - - @ @ X X @ @ m u z g @ @ @ @ @ t b.].b.!.D.u u z - 2 ] b.L.L.] =.].!.].].f.2 @ Q b.D.l.!.].!.!.].=.` ].!.q.!.!.b.!.].                                          ",
"                                                                                  C @ @ X X @ @ @ @ t m K g @ ~ D.!.X.@ @ @ @ @ t b.].l.!.D.] D.!.Y } ].!.L.].L.f.].D.f.].b.2 2 ~ q.9.C D.].!.D.].=.~ ].].=.l.].].!.                                            ",
"                                                                    2 @ @ @ @ @ - 2 - g B B t @ @ t f.!.].} 2 f.].].X.- C } 3.} m b.].l.!.!.!.].].f.D.].` Y ].!.b.].q.D =.Q @ g L.].!.L.!.].3.q.].q.K !.!.                                                      ",
"                                                                K - @ @ @ @ @ @ @ m 9.L.!.!.l.g X u D.].].f.C L.].].X.~ !.!.!.].9.b.].l.!.!.=.b.].D.!.].D B ].L.b.].l.- @ @ @ - 3.].].].!.!.                                                                    ",
"                                                                u @ @ @ @ @ @ @ g b.].].].].].X.@ u b.].].L.q.!.].].q.b.].9.l.].D.D.].l.!.L.g =.].l.L.].f.f.].l.9.].].                                                                                          ",
"                                                                2 @ @ @ @ @ @ @ ] ].!.q.=.!.].f.- u b.].].].].].!.].l.L.].D.b.b.q.L.].l.!.D.u =.].3.9.].].].].} X.].                                                                                            ",
"                                                              ] - @ @ @ @ @ @ - q.].f.t - 9.].l.2 t b.].D.!.].D.D.].l.L.].} =.L.l.D.].l.!.D.g =.].f.    !.                                                                                                      ",
"                                                                2 @ @ @ @ @ @ - l.].=.@ @ 3.].f.2 t b.].3.D.].=.f.].q.b.].!.!.].X.b.].b.!.                                                                                                                      ",
"                                                                t @ @ @ @ @ @ - l.].b.C Y L.].3.@ u b.].` 9.].K q.].9.} !.!.!.                                                                                                                                  ",
"                                                                B @ @ @ @ @ @ - 3.].].!.!.].].Y X u b.].} ` !.  f.                                                                                                                                              ",
"                                                                    @ @ @ @ @ @ K !.].].].].!.                                                                                                                                                                  ",
"                                                                                    !.!.!.                                                                                                                                                                      ",
"                                                                                                                                                                                                                                                                ",
"                                                                                                                                                                                                                                                                ",
"                                                                                                                                                                                                                                                                ",
"                                                                                                                                                                                                                                                                ",
"                                                                                                                                                                                                                                                                ",
"                                                                                                                                                                                                                                                                ",
"                                                                                                                                                                                                                                                                ",
"                                                                                                                                                                                                                                                                ",
"                                                                                                                                                                                                                                                                ",
"                                                                                                                                                                                                                                                                ",
"                                                                                                                                                                                                                                                                ",
"                                                                                                                                                                                                                                                                ",
"                                                                                                                                                                                                                                                                ",
"                                                                                                                                                                                                                                                                ",
"                                                                                                                                                                                                                                                                ",
"                                                                                                                                                                                                                                                                ",
"                                                                                                                                                                                                                                                                "
};
