/* XPM */
static char *oms_283[] = {
/* columns rows colors chars-per-pixel */
"128 54 139 2 ",
"   c #00000000",
".  c #FF0E0E0E",
"X  c #FF0F0F0F",
"o  c #FF101010",
"O  c #FF111111",
"+  c #FF121212",
"@  c #FF131313",
"#  c #FF141414",
"$  c #FF151515",
"%  c #FF161616",
"&  c #FF171717",
"*  c #FF1A1A1A",
"=  c #FF1C1C1C",
"-  c #FF1D1D1D",
";  c #FF1E1E1E",
":  c #FF1F1F1F",
">  c #FF222222",
",  c #FF252525",
"<  c #FF2A2A2A",
"1  c #FF2B2B2B",
"2  c #FF2C2C2C",
"3  c #FF2E2E2E",
"4  c #FF303030",
"5  c #FF323232",
"6  c #FF353535",
"7  c #FF373737",
"8  c #FF383838",
"9  c #FF393939",
"0  c #FF3D3D3D",
"q  c #FF3F3F3F",
"w  c #FF414141",
"e  c #FF434343",
"r  c #FF444444",
"t  c #FF454545",
"y  c #FF464646",
"u  c #FF484848",
"i  c #FF494949",
"p  c #FF4A4A4A",
"a  c #FF4C4C4C",
"s  c #FF4E4E4E",
"d  c #FF525252",
"f  c #FF595959",
"g  c #FF5E5E5E",
"h  c #FF636363",
"j  c #FF6C6C6C",
"k  c #FF6D6D6D",
"l  c #FF707070",
"z  c #FF737373",
"x  c #FF747474",
"c  c #FF767676",
"v  c #FF787878",
"b  c #FF797979",
"n  c #FF7A7A7A",
"m  c #FF7B7B7B",
"M  c #FF808080",
"N  c #FF818181",
"B  c #FF858585",
"V  c #FF868686",
"C  c #FF878787",
"Z  c #FF888888",
"A  c #FF8A8A8A",
"S  c #FF8B8B8B",
"D  c #FF8C8C8C",
"F  c #FF909090",
"G  c #FF929292",
"H  c #FF949494",
"J  c #FF959595",
"K  c #FF969696",
"L  c #FF979797",
"P  c #FF989898",
"I  c #FF999999",
"U  c #FF9A9A9A",
"Y  c #FF9B9B9B",
"T  c #FF9E9E9E",
"R  c #FFA0A0A0",
"E  c #FFA2A2A2",
"W  c #FFA4A4A4",
"Q  c #FFA7A7A7",
"!  c #FFA8A8A8",
"~  c #FFAAAAAA",
"^  c #FFAFAFAF",
"/  c #FFB2B2B2",
"(  c #FFB6B6B6",
")  c #FFB9B9B9",
"_  c #FFBABABA",
"`  c #FFBBBBBB",
"'  c #FFBDBDBD",
"]  c #FF808080",
"[  c #FFC0C0C0",
"{  c #FFC1C1C1",
"}  c #FFC2C2C2",
"|  c #FFC3C3C3",
" . c #FFC4C4C4",
".. c #FFC6C6C6",
"X. c #FFC8C8C8",
"o. c #FFC9C9C9",
"O. c #FFCACACA",
"+. c #FFCCCCCC",
"@. c #FFCECECE",
"#. c #FFD0D0D0",
"$. c #FFD1D1D1",
"%. c #FFD2D2D2",
"&. c #FFD4D4D4",
"*. c #FFD5D5D5",
"=. c #FFD6D6D6",
"-. c #FFD7D7D7",
";. c #FFD8D8D8",
":. c #FFDADADA",
">. c #FFDBDBDB",
",. c #FFDCDCDC",
"<. c #FFDDDDDD",
"1. c #FFDEDEDE",
"2. c #FFDFDFDF",
"3. c #FFE0E0E0",
"4. c #FFE1E1E1",
"5. c #FFE2E2E2",
"6. c #FFE3E3E3",
"7. c #FFE4E4E4",
"8. c #FFE6E6E6",
"9. c #FFE7E7E7",
"0. c #FFE8E8E8",
"q. c #FFE9E9E9",
"w. c #FFEAEAEA",
"e. c #FFEBEBEB",
"r. c #FFECECEC",
"t. c #FFEDEDED",
"y. c #FFEEEEEE",
"u. c #FFEFEFEF",
"i. c #FFF0F0F0",
"p. c #FFF1F1F1",
"a. c #FFF5F5F5",
"s. c #FFF6F6F6",
"d. c #FFF7F7F7",
"f. c #FFF8F8F8",
"g. c #FFF9F9F9",
"h. c #FFFAFAFA",
"j. c #FFFBFBFB",
"k. c #FFFDFDFD",
"l. c #FFFEFEFE",
/* pixels */
"                                                                                                                                                                                                                                                                ",
"                                                                                                                                                                                                                                                                ",
"                                                                                                                                                                                                                                                                ",
"                                                                                                                                                                                                                                                                ",
"                                                                                                                                                                                                                                                                ",
"                                                                                                                                                                                                                                                                ",
"                                                                                                                                                                                                                                                                ",
"                                                                                                                                                                                                                                                                ",
"                                                                                                                                                                                                                                                                ",
"                                                                                                                                                                                                                                                                ",
"                                                                                                                                                                                                                                                                ",
"                                                                                                                                                                                                                                                                ",
"                                                                                                                                                                                                                                                                ",
"                                                                                                                                                                                                                                                                ",
"                                                                                                            a                                                                                                                                                   ",
"                                                                                    h.D O O O O O O O O O O - K                                                                                                                                                 ",
"                                                                                    h.O.9 5 O O O O O O O O O y                                                                                                                                                 ",
"                                                                                    =. .x ~ - O O O O O O O O O O x                                                                                                                                             ",
"                                                                                    K I N  .D y O O O O O O O O O - a                                                                                                                                           ",
"                                                                                    I I D =.O.m O O O O O O O O O O 3                                                                                                                                           ",
"                                                                                    =. .D 3.e.x X 5 O O O O O O O O > f                                                                                                                                         ",
"                                                                                    h.e.m e.h.I 9 I N O O O O O O O O O O 3 ~                                                                                                                                   ",
"                                                                                    h.>.k >.s.3. .(  .- O O O O O O O O O O K                                                                                                                                   ",
"                                                                                      _ m O.e.s.>.=. .- O O O O O O O O O O K                                                                                                                                   ",
"                                                                                           .=.s.e.3.=.d O O O O O O O O O O 9                                                                                                                                   ",
"                                                                                            O.3. .>.h. .a - O O O O O O O O O 5 x                                                                                                                               ",
"                                                                                              >.=.>.s.>.>.m O O O O O O O O O O 5 m                                                                                                                             ",
"                                                                                                s.3.=.O.h.=.m - m k O O O O O O O O O O 9                                                                                                                       ",
"                                                                                                  e.O. .O.O.e.x ( 3.y O O O O O O O O O O 9                                                                                                                     ",
"                                                                                                     .O. .O.h.W ~ 3._ a O O O O O O O O O O h                                                                                                                   ",
"                                                                                                      3.>.s.>.I W =.O.W 3 O O O O O O O O O - I                                                                                                                 ",
"                                                                                                        s.e._ x D e.W =.a O O O O O O O O O O K                                                                                                                 ",
"                                                                                                          3.I > N 3.=.e.f O O O O O O O O O O y D                                                                                                               ",
"                                                                                                                 . .3.s._ x O O O O O O O O O O 9                                                                                                               ",
"                                                                                                                h.e.>.>.e.=.3 O O O O O O O O O > W                                                                                                             ",
"                                                                                                                  s.>.=.>.>.y O O O O O O O O O - K                                                                                                             ",
"                                                                                                                    =.=.e.3.a O O O O O O O O O > K                                                                                                             ",
"                                                                                                                      =.>._ y O O O O O O O O O - K                                                                                                             ",
"                                                                                                                        >.e.a O O O O O O O O O - W                                                                                                             ",
"                                                                                                                          3.a X O O                                                                                                                             ",
"                                                                                                                                                                                                                                                                ",
"                                                                                                                                                                                                                                                                ",
"                                                                                                                                                                                                                                                                ",
"                                                                                                                                                                                                                                                                ",
"                                                                                                                                                                                                                                                                ",
"                                                                                                                                                                                                                                                                ",
"                                                                                                                                                                                                                                                                ",
"                                                                                                                                                                                                                                                                ",
"                                                                                                                                                                                                                                                                ",
"                                                                                                                                                                                                                                                                ",
"                                                                                                                                                                                                                                                                ",
"                                                                                                                                                                                                                                                                ",
"                                                                                                                                                                                                                                                                ",
"                                                                                                                                                                                                                                                                "
};
