/* XPM */
static char *oms_034[] = {
/* columns rows colors chars-per-pixel */
"128 54 193 2 ",
"   c #00000000",
".  c #FF0B0B0B",
"X  c #FF0D0D0D",
"o  c #FF0E0E0E",
"O  c #FF0F0F0F",
"+  c #FF101010",
"@  c #FF111111",
"#  c #FF121212",
"$  c #FF131313",
"%  c #FF141414",
"&  c #FF151515",
"*  c #FF161616",
"=  c #FF171717",
"-  c #FF181818",
";  c #FF191919",
":  c #FF1A1A1A",
">  c #FF1C1C1C",
",  c #FF1D1D1D",
"<  c #FF1E1E1E",
"1  c #FF1F1F1F",
"2  c #FF202020",
"3  c #FF212121",
"4  c #FF222222",
"5  c #FF232323",
"6  c #FF242424",
"7  c #FF252525",
"8  c #FF262626",
"9  c #FF292929",
"0  c #FF2B2B2B",
"q  c #FF2C2C2C",
"w  c #FF2E2E2E",
"e  c #FF313131",
"r  c #FF323232",
"t  c #FF353535",
"y  c #FF363636",
"u  c #FF373737",
"i  c #FF383838",
"p  c #FF393939",
"a  c #FF3B3B3B",
"s  c #FF3C3C3C",
"d  c #FF3E3E3E",
"f  c #FF3F3F3F",
"g  c #FF424242",
"h  c #FF434343",
"j  c #FF464646",
"k  c #FF474747",
"l  c #FF494949",
"z  c #FF4A4A4A",
"x  c #FF4B4B4B",
"c  c #FF4C4C4C",
"v  c #FF4E4E4E",
"b  c #FF4F4F4F",
"n  c #FF505050",
"m  c #FF545454",
"M  c #FF555555",
"N  c #FF565656",
"B  c #FF585858",
"V  c #FF5B5B5B",
"C  c #FF5D5D5D",
"Z  c #FF5E5E5E",
"A  c #FF5F5F5F",
"S  c #FF606060",
"D  c #FF646464",
"F  c #FF656565",
"G  c #FF666666",
"H  c #FF676767",
"J  c #FF686868",
"K  c #FF696969",
"L  c #FF6A6A6A",
"P  c #FF6D6D6D",
"I  c #FF6E6E6E",
"U  c #FF6F6F6F",
"Y  c #FF707070",
"T  c #FF717171",
"R  c #FF727272",
"E  c #FF737373",
"W  c #FF747474",
"Q  c #FF757575",
"!  c #FF767676",
"~  c #FF787878",
"^  c #FF797979",
"/  c #FF7B7B7B",
"(  c #FF7D7D7D",
")  c #FF7E7E7E",
"_  c #FF808080",
"`  c #FF828282",
"'  c #FF838383",
"]  c #FF848484",
"[  c #FF858585",
"{  c #FF868686",
"}  c #FF878787",
"|  c #FF888888",
" . c #FF898989",
".. c #FF8B8B8B",
"X. c #FF8C8C8C",
"o. c #FF8E8E8E",
"O. c #FF929292",
"+. c #FF939393",
"@. c #FF949494",
"#. c #FF969696",
"$. c #FF989898",
"%. c #FF9B9B9B",
"&. c #FF9C9C9C",
"*. c #FF9E9E9E",
"=. c #FF9F9F9F",
"-. c #FFA0A0A0",
";. c #FFA1A1A1",
":. c #FFA2A2A2",
">. c #FFA3A3A3",
",. c #FFA5A5A5",
"<. c #FFA6A6A6",
"1. c #FFA7A7A7",
"2. c #FFA8A8A8",
"3. c #FFA9A9A9",
"4. c #FFAAAAAA",
"5. c #FFABABAB",
"6. c #FFACACAC",
"7. c #FFADADAD",
"8. c #FFAEAEAE",
"9. c #FFAFAFAF",
"0. c #FFB0B0B0",
"q. c #FFB1B1B1",
"w. c #FFB2B2B2",
"e. c #FFB2B2B2",
"r. c #FFB7B7B7",
"t. c #FFBABABA",
"y. c #FFBBBBBB",
"u. c #FFBDBDBD",
"i. c #FF808080",
"p. c #FFBFBFBF",
"a. c #FFC0C0C0",
"s. c #FFC1C1C1",
"d. c #FFC2C2C2",
"f. c #FFC3C3C3",
"g. c #FFC4C4C4",
"h. c #FFC5C5C5",
"j. c #FFC6C6C6",
"k. c #FFC7C7C7",
"l. c #FFC8C8C8",
"z. c #FFC9C9C9",
"x. c #FFCACACA",
"c. c #FFCBCBCB",
"v. c #FFCCCCCC",
"b. c #FFCDCDCD",
"n. c #FFCECECE",
"m. c #FFCFCFCF",
"M. c #FFD0D0D0",
"N. c #FFD1D1D1",
"B. c #FFD2D2D2",
"V. c #FFD3D3D3",
"C. c #FFD4D4D4",
"Z. c #FFD5D5D5",
"A. c #FFD6D6D6",
"S. c #FFD7D7D7",
"D. c #FFD8D8D8",
"F. c #FFD9D9D9",
"G. c #FFDADADA",
"H. c #FFDBDBDB",
"J. c #FFDCDCDC",
"K. c #FFDDDDDD",
"L. c #FFDEDEDE",
"P. c #FFDFDFDF",
"I. c #FFE0E0E0",
"U. c #FFE1E1E1",
"Y. c #FFE2E2E2",
"T. c #FFE4E4E4",
"R. c #FFE6E6E6",
"E. c #FFE6E6E6",
"W. c #FFE7E7E7",
"Q. c #FFE8E8E8",
"!. c #FFE9E9E9",
"~. c #FFEAEAEA",
"^. c #FFEBEBEB",
"/. c #FFECECEC",
"(. c #FFEDEDED",
"). c #FFEEEEEE",
"_. c #FFEFEFEF",
"`. c #FFF0F0F0",
"'. c #FFF1F1F1",
"]. c #FFF2F2F2",
"[. c #FFF3F3F3",
"{. c #FFF4F4F4",
"}. c #FFF5F5F5",
"|. c #FFF6F6F6",
" X c #FFF7F7F7",
".X c #FFF8F8F8",
"XX c #FFF9F9F9",
"oX c #FFFAFAFA",
"OX c #FFFBFBFB",
"+X c #FFFCFCFC",
"@X c #FFFDFDFD",
"#X c #FFFEFEFE",
"$X c #FFFFFFFF",
/* pixels */
"                                                                                                                                                                                                                                                                ",
"                                                                                                                                                                                                                                                                ",
"                                                                                                                                                                                                                                                                ",
"                                                                                                                                                                                                                                                                ",
"                                                                                                                                                                                                                                                                ",
"                                                                                                                                                                                                                                                                ",
"                                                                                                                                                                                                                                                                ",
"                                                                                                                                                                                                                                                                ",
"                                                                                                                                                                                                                                                                ",
"                                                                                                                                                                                                                                                                ",
"                                                                                                                                                                                                                                                                ",
"                                                                                                                                                                                                                                                                ",
"                                                                                                                                                                                                                                                                ",
"                                                                                                                                                                                                                                                                ",
"                                                                                                                                                                                                                                                                ",
"                                                                                                                                                                                                                                                                ",
"                                                                                                                                                                                                                                                                ",
"                                                                                                                                                                                                                                                                ",
"                                                                                                                                                                                                                                                                ",
"                                                                                                                                                                                                                                                                ",
"                                                                                                                                                                                                                                                                ",
"                                                                                                                                                                                                    w                                                           ",
"                                                                                                                                                                            - $ $ $ $ $ a { w.A.A.A.A.f.=.a x W.`.@X) g f.P.`.                                  ",
"                                                                            $ $ $ -                   u $ $ $ $ M {  . .{ f.W._.                                          w o $ $ $ $ g P.@X@X@X@X@X@X@X@XA.Q W.`._.P P @X@X@X{ $ o                             ",
"                                  $ $ $ - x ) <.f.W.      - $ $ $ Q y.f.A.b.Q $ $ P P.P.W.`._.        u o $ $ $ 7.@X@X_.f.@X@X`.                        -   - - 6 6 u   x g a - $ $ $  .@X@X@XW.) #.P.W.A.y.) b.A.A.<.A.@X@X@XP.x S b._.`.@X@X`.`.              ",
"                              6 $ $ $ M f._.@X@X`.`.@X@XW.u $ $ $ 7.@X@X@X@XP.w 6 A.@X@X@X@X<.o o   P x u w $ o 7.@X@X_.f.@X@XW.x S #. .M $ $ x =.f.b.b.f.<.x u y.b.b.=.w._._.7.6 $ $  .@X@X@X`.A.b.P.W.f.Q C `.@X`.P.@X@X@X@X@Xw._.@X@Xf.y.`.@X@X              ",
"                              $ $ $ x W.@X@X@X@X@X@X@X@X@X=.$ $ $ 7.@X@X@X@X@XQ P `.@X@X@X@X .6 { f.W._._.P.<.a 7.@X@X_.f.@X@X_.y._.@X@X_.S P _.@X@X@X@X@X@XW.) _.@X@X`.@X@X@X`.C o $ g P.@X@X@X@X@X@X@X@X`.<.`.@X@Xw.f.@X@X@X7.f.@X@X`.P.P.`.@X@X`.            ",
"                            6 $ $ $ <.@X@X@Xb.Q S <.`.@X@XW.w $ $ 7.@X@X@X@X@XA.A.@X@X@X@X@X=.7.@X@X_.y._.@X@Xy.y.@X@X_.f.@X@X@X_._.@X@X@Xy.A.@X@XP.C  .`.@X@Xb._.@X@Xb.=.@X@X@X) o $ 6 C 7.b.A.<.y.`.@X@X@XA.`.@X@XQ S @X@X@X) 7.@X@X`.<. .b.A.W.`.            ",
"                            $ $ $ - b.@X@X`.x o o 6 A.@X@X_.a o $ 7.@X@X`.`.@X@X@X@X`.`.@X@Xy.W.@X@XW.f.W.@X@X_.A.@X@XW.f.@X@X`.P M _.@X@XA._.@X@Xw.o a _.@X@XP._.@X@Xy.C b.w.<.x $ $ #.W.W._.P.P { `.@X@X@Xf._.@X@XQ S @X@X@X_.f.`.@X@Xf.f.`.`.`.`.            ",
"                            w $ $ - b.@X@X`.x o o u P.@X@XW.u $ $ 7.@X@X_.b.`.@X@X`.7.`.@X@Xf._.@X@XA.<.f.A.b.f.A.@X@XW.f.@X@XW.u w P.@X@Xf.P.@X@XW.Q <.`.@X@X7._.@X@X`.    6 $ $ $ $ S `.@X@X@X`.`.@X@X@Xb.Q `.@X@XQ x `.@X@X`.) 7.`.@X@X@X@X`.`.              ",
"                              - $ $ w.@X@X@XA.{ { b.@X@X@Xf.- $ $ 7.@X@X_.P W.@X@Xf.P `.@X@X7.P.@X@XP.#.A._.`.P.b.@X@XW.f.@X@XW.a w P.@X@X7.{ `.@X@X@X@X@X@Xf.C _.@X`.`.              - <.`.@X`.`.@X`.`.    C _._.                                              ",
"                                $ $ S `.@X@X@X@X@X@X@X@X`.P o $ $ 7.@X@X`.g #.@X@XP M `.@X@X=.{ `.`.@X@X@X@X`.{ w.@X`.W.f.@X@X_.x u P.`.`.      `.`.`.@X`.                                                                                                      ",
"                                      =.`.@X@X@X@X@X`.`.        $ w.@X@X`.    `.`.    _._._.        _._.                                                                                                                                                        ",
"                                                                                                                                                                                                                                                                ",
"                                                                                                                                                                                                                                                                ",
"                                                                                                                                                                                                                                                                ",
"                                                                                                                                                                                                                                                                ",
"                                                                                                                                                                                                                                                                ",
"                                                                                                                                                                                                                                                                ",
"                                                                                                                                                                                                                                                                ",
"                                                                                                                                                                                                                                                                ",
"                                                                                                                                                                                                                                                                ",
"                                                                                                                                                                                                                                                                ",
"                                                                                                                                                                                                                                                                ",
"                                                                                                                                                                                                                                                                ",
"                                                                                                                                                                                                                                                                ",
"                                                                                                                                                                                                                                                                ",
"                                                                                                                                                                                                                                                                ",
"                                                                                                                                                                                                                                                                ",
"                                                                                                                                                                                                                                                                ",
"                                                                                                                                                                                                                                                                ",
"                                                                                                                                                                                                                                                                ",
"                                                                                                                                                                                                                                                                ",
"                                                                                                                                                                                                                                                                "
};
