/* XPM */
static char *oms_072[] = {
/* columns rows colors chars-per-pixel */
"128 54 169 2 ",
"   c #00000000",
".  c #FF0C0C0C",
"X  c #FF0E0E0E",
"o  c #FF0F0F0F",
"O  c #FF101010",
"+  c #FF111111",
"@  c #FF121212",
"#  c #FF131313",
"$  c #FF141414",
"%  c #FF151515",
"&  c #FF161616",
"*  c #FF171717",
"=  c #FF181818",
"-  c #FF191919",
";  c #FF1A1A1A",
":  c #FF1B1B1B",
">  c #FF1C1C1C",
",  c #FF1D1D1D",
"<  c #FF1E1E1E",
"1  c #FF1F1F1F",
"2  c #FF202020",
"3  c #FF222222",
"4  c #FF242424",
"5  c #FF262626",
"6  c #FF272727",
"7  c #FF282828",
"8  c #FF292929",
"9  c #FF2A2A2A",
"0  c #FF2B2B2B",
"q  c #FF2C2C2C",
"w  c #FF2D2D2D",
"e  c #FF2F2F2F",
"r  c #FF303030",
"t  c #FF313131",
"y  c #FF323232",
"u  c #FF333333",
"i  c #FF343434",
"p  c #FF353535",
"a  c #FF373737",
"s  c #FF3A3A3A",
"d  c #FF3B3B3B",
"f  c #FF3C3C3C",
"g  c #FF3F3F3F",
"h  c #FF404040",
"j  c #FF424242",
"k  c #FF434343",
"l  c #FF454545",
"z  c #FF484848",
"x  c #FF4A4A4A",
"c  c #FF4B4B4B",
"v  c #FF4F4F4F",
"b  c #FF505050",
"n  c #FF515151",
"m  c #FF535353",
"M  c #FF565656",
"N  c #FF585858",
"B  c #FF5C5C5C",
"V  c #FF606060",
"C  c #FF626262",
"Z  c #FF636363",
"A  c #FF656565",
"S  c #FF676767",
"D  c #FF696969",
"F  c #FF6D6D6D",
"G  c #FF6F6F6F",
"H  c #FF777777",
"J  c #FF7A7A7A",
"K  c #FF7B7B7B",
"L  c #FF7D7D7D",
"P  c #FF7E7E7E",
"I  c #FF808080",
"U  c #FF828282",
"Y  c #FF848484",
"T  c #FF868686",
"R  c #FF888888",
"E  c #FF898989",
"W  c #FF8D8D8D",
"Q  c #FF8E8E8E",
"!  c #FF919191",
"~  c #FF949494",
"^  c #FF969696",
"/  c #FF989898",
"(  c #FF9A9A9A",
")  c #FF9B9B9B",
"_  c #FF9F9F9F",
"`  c #FFA1A1A1",
"'  c #FFA2A2A2",
"]  c #FFA3A3A3",
"[  c #FFA4A4A4",
"{  c #FFA5A5A5",
"}  c #FFA6A6A6",
"|  c #FFA7A7A7",
" . c #FFA8A8A8",
".. c #FFA9A9A9",
"X. c #FFABABAB",
"o. c #FFACACAC",
"O. c #FFAEAEAE",
"+. c #FFAFAFAF",
"@. c #FFB0B0B0",
"#. c #FFB1B1B1",
"$. c #FFB2B2B2",
"%. c #FFB2B2B2",
"&. c #FFB4B4B4",
"*. c #FFB5B5B5",
"=. c #FFB7B7B7",
"-. c #FFBABABA",
";. c #FFBBBBBB",
":. c #FFBCBCBC",
">. c #FFBDBDBD",
",. c #FF808080",
"<. c #FFBFBFBF",
"1. c #FFC1C1C1",
"2. c #FFC2C2C2",
"3. c #FFC3C3C3",
"4. c #FFC5C5C5",
"5. c #FFC6C6C6",
"6. c #FFC7C7C7",
"7. c #FFC8C8C8",
"8. c #FFC9C9C9",
"9. c #FFCACACA",
"0. c #FFCBCBCB",
"q. c #FFCDCDCD",
"w. c #FFCECECE",
"e. c #FFCFCFCF",
"r. c #FFD0D0D0",
"t. c #FFD1D1D1",
"y. c #FFD2D2D2",
"u. c #FFD3D3D3",
"i. c #FFD4D4D4",
"p. c #FFD5D5D5",
"a. c #FFD7D7D7",
"s. c #FFD8D8D8",
"d. c #FFD9D9D9",
"f. c #FFDADADA",
"g. c #FFDBDBDB",
"h. c #FFDCDCDC",
"j. c #FFDDDDDD",
"k. c #FFDFDFDF",
"l. c #FFE0E0E0",
"z. c #FFE1E1E1",
"x. c #FFE2E2E2",
"c. c #FFE3E3E3",
"v. c #FFE4E4E4",
"b. c #FFE6E6E6",
"n. c #FFE6E6E6",
"m. c #FFE7E7E7",
"M. c #FFE8E8E8",
"N. c #FFE9E9E9",
"B. c #FFEAEAEA",
"V. c #FFEBEBEB",
"C. c #FFECECEC",
"Z. c #FFEDEDED",
"A. c #FFEFEFEF",
"S. c #FFF0F0F0",
"D. c #FFF1F1F1",
"F. c #FFF2F2F2",
"G. c #FFF3F3F3",
"H. c #FFF4F4F4",
"J. c #FFF5F5F5",
"K. c #FFF6F6F6",
"L. c #FFF7F7F7",
"P. c #FFF8F8F8",
"I. c #FFF9F9F9",
"U. c #FFFAFAFA",
"Y. c #FFFBFBFB",
"T. c #FFFCFCFC",
"R. c #FFFDFDFD",
"E. c #FFFEFEFE",
"W. c #FFFFFFFF",
/* pixels */
"                                                                                                                                                                                                                                                                ",
"                                                                                                                                                                                                                                                                ",
"                                                                                                                                                                                                                                                                ",
"                                                                                                                                                                                                                                                                ",
"                                                                                                                                                                                                                                                                ",
"                                                                                                                                                                                                                                                                ",
"                                                                                                                                                                                                                                                                ",
"                                                                                                                                                                                                                                                                ",
"                                                                                                                                                                                                                                                                ",
"                                                                                                                                                                                                                                                                ",
"                                                                                                                                                                                                                                                                ",
"                                                                                                                                                                                                                                                                ",
"                                                                                                                                                                                                                                                                ",
"                                                                                                                                                                                                                                                                ",
"                                                                                                                                                                                                                                                                ",
"                                                                                                                                                                                                                                                                ",
"                                                                                                                                                                                                                                                                ",
"                                                                                                                                                                                                                                                                ",
"                                                                                                                                                        7 7 % % % % % % % % i i Z e._ n.l x n.H.                                                                ",
"                                                                                                                                                  Z : % % % % % % % % % 7 } n.k.O.k.O.H.H 5.H.H.                                                                ",
"                                                                                                                                                  i % % % % % % % % % % } E.H.H.;.e.n.E.e.M.e.H.                                                                ",
"                                                                                                                                                O.5 % % % % % % % % % 7 k.k.} O._ H.H.H.k.H.n.M.                                                                ",
"                                                                                                                                                x : % % % % % % o : : i n.H.n.M.5.M.e.n.#.M.} M.                                                                ",
"                                                                                                                                        d : % % : % % % % o % i B #.J 5 k.E.E.E.H.n.} H.i.H.H.H.                                                                ",
"                                                                                                                      l : % % % % % % % % : x W } : % % d W G #.H.E.#.% U e.5.E.H.n.} E.;.M.E.                                                                  ",
"                                                                                                                      i % % % % % % % % o n M.n.5.i l d k.E.n.i.M.M.;.7 } 5.#.H.i.n.^ H.                                                                        ",
"                                                                                                          B : % % % 5 : % % % % d x % % o Z H.n.i.5.i.O.M.i.H.H.5._ J i n.E.E.M.O.H.                                                                            ",
"                                                                                                    n : : : % % % % % % % 7 7 n M.O.% 7 d Z H.n.H.E.H.n.;.G H.H.e.7 % : ;.E.H.                                                                                  ",
"                                                                                                    7 % % % % % o o % % J n.U U E.O.n k.M.O.M.n.M.e.H.H.5.^ M.k.H.                                                                                              ",
"                                                                                          x % % % % % % % % % 5 G W i % #.E.#.O.E.;.e.n.H.k.H.n.5.J H.n.H.H.i.5.E.                                                                                              ",
"                                                                                        J % % % % % % % % % : O.E.E.} % #.E.n.k.E.k.M.k.M.k.H.n.5.J M.#.H.E.                                                                                                    ",
"                                                                                        x o % % % % % % % o G E.E.E.i.5 O.E.E.E.E.n.H.5.5.i.H.n.e.J H.                                                                                                          ",
"                                                                                        d % % % % % % % % % } H.^ i.n.i O.E.E.M.M.n.H.e.n.e.H.n.                                                                                                                ",
"                                                                                        7 % % % % % % % % : 5.e.: _ n.i O.M.M.i.k.e.n.E.H.                                                                                                                      ",
"                                                                                        i % % % % % % % % : i.;.: #.k.7 #.k.5.#.e.i.  E.                                                                                                                        ",
"                                                                                        l % % % % % % % % : e.n.^ M.;.: #.k.} 5.                                                                                                                                ",
"                                                                                        Z % % % % % % % % : ;.E.E.E.#.o O.                                                                                                                                      ",
"                                                                                              % % % % % % % U E.E.H.                                                                                                                                            ",
"                                                                                                              M.                                                                                                                                                ",
"                                                                                                                                                                                                                                                                ",
"                                                                                                                                                                                                                                                                ",
"                                                                                                                                                                                                                                                                ",
"                                                                                                                                                                                                                                                                ",
"                                                                                                                                                                                                                                                                ",
"                                                                                                                                                                                                                                                                ",
"                                                                                                                                                                                                                                                                ",
"                                                                                                                                                                                                                                                                ",
"                                                                                                                                                                                                                                                                ",
"                                                                                                                                                                                                                                                                ",
"                                                                                                                                                                                                                                                                ",
"                                                                                                                                                                                                                                                                ",
"                                                                                                                                                                                                                                                                ",
"                                                                                                                                                                                                                                                                ",
"                                                                                                                                                                                                                                                                "
};
