/* XPM */
static char *oms_103[] = {
/* columns rows colors chars-per-pixel */
"128 54 134 2 ",
"   c #00000000",
".  c #FF0E0E0E",
"X  c #FF0F0F0F",
"o  c #FF101010",
"O  c #FF111111",
"+  c #FF121212",
"@  c #FF131313",
"#  c #FF141414",
"$  c #FF151515",
"%  c #FF161616",
"&  c #FF171717",
"*  c #FF181818",
"=  c #FF191919",
"-  c #FF1A1A1A",
";  c #FF1B1B1B",
":  c #FF1C1C1C",
">  c #FF1E1E1E",
",  c #FF1F1F1F",
"<  c #FF202020",
"1  c #FF212121",
"2  c #FF262626",
"3  c #FF292929",
"4  c #FF2B2B2B",
"5  c #FF2C2C2C",
"6  c #FF303030",
"7  c #FF323232",
"8  c #FF343434",
"9  c #FF353535",
"0  c #FF373737",
"q  c #FF3B3B3B",
"w  c #FF3D3D3D",
"e  c #FF404040",
"r  c #FF464646",
"t  c #FF4C4C4C",
"y  c #FF505050",
"u  c #FF555555",
"i  c #FF595959",
"p  c #FF5D5D5D",
"a  c #FF5F5F5F",
"s  c #FF606060",
"d  c #FF636363",
"f  c #FF676767",
"g  c #FF6A6A6A",
"h  c #FF6C6C6C",
"j  c #FF6D6D6D",
"k  c #FF727272",
"l  c #FF747474",
"z  c #FF757575",
"x  c #FF7B7B7B",
"c  c #FF7C7C7C",
"v  c #FF808080",
"b  c #FF808080",
"n  c #FF818181",
"m  c #FF828282",
"M  c #FF848484",
"N  c #FF858585",
"B  c #FF878787",
"V  c #FF888888",
"C  c #FF898989",
"Z  c #FF8A8A8A",
"A  c #FF8C8C8C",
"S  c #FF8E8E8E",
"D  c #FF8F8F8F",
"F  c #FF939393",
"G  c #FF949494",
"H  c #FF959595",
"J  c #FF979797",
"K  c #FF989898",
"L  c #FF9C9C9C",
"P  c #FF9D9D9D",
"I  c #FF9E9E9E",
"U  c #FFA0A0A0",
"Y  c #FFA4A4A4",
"T  c #FFA9A9A9",
"R  c #FFADADAD",
"E  c #FFAFAFAF",
"W  c #FFB0B0B0",
"Q  c #FFB2B2B2",
"!  c #FFB4B4B4",
"~  c #FFB5B5B5",
"^  c #FFB6B6B6",
"/  c #FFB8B8B8",
"(  c #FFB9B9B9",
")  c #FFBABABA",
"_  c #FFBBBBBB",
"`  c #FFBDBDBD",
"'  c #FF808080",
"]  c #FFC1C1C1",
"[  c #FFC4C4C4",
"{  c #FFC5C5C5",
"}  c #FFC7C7C7",
"|  c #FFC8C8C8",
" . c #FFC9C9C9",
".. c #FFCACACA",
"X. c #FFCBCBCB",
"o. c #FFCCCCCC",
"O. c #FFCDCDCD",
"+. c #FFCECECE",
"@. c #FFCFCFCF",
"#. c #FFD0D0D0",
"$. c #FFD1D1D1",
"%. c #FFD2D2D2",
"&. c #FFD4D4D4",
"*. c #FFD5D5D5",
"=. c #FFD7D7D7",
"-. c #FFD8D8D8",
";. c #FFD9D9D9",
":. c #FFDBDBDB",
">. c #FFDCDCDC",
",. c #FFDDDDDD",
"<. c #FFDEDEDE",
"1. c #FFDFDFDF",
"2. c #FFE0E0E0",
"3. c #FFE2E2E2",
"4. c #FFE3E3E3",
"5. c #FFE6E6E6",
"6. c #FFE6E6E6",
"7. c #FFE7E7E7",
"8. c #FFE9E9E9",
"9. c #FFECECEC",
"0. c #FFEEEEEE",
"q. c #FFEFEFEF",
"w. c #FFF1F1F1",
"e. c #FFF2F2F2",
"r. c #FFF3F3F3",
"t. c #FFF4F4F4",
"y. c #FFF5F5F5",
"u. c #FFF7F7F7",
"i. c #FFFAFAFA",
"p. c #FFFBFBFB",
"a. c #FFFCFCFC",
"s. c #FFFDFDFD",
"d. c #FFFEFEFE",
"f. c #FFFFFFFF",
/* pixels */
"                                                                                                                                                                                                                                                                ",
"                                                                                                                                                                                                                                                                ",
"                                                                                                                                                                                                                                                                ",
"                                                                                                                                                                                                                                                                ",
"                                                                                                                                                                                                                                                                ",
"                                                                                                                                                                                                                                                                ",
"                                                                                                                                                                                                                                                                ",
"                                                                                                                                                                                                                                                                ",
"                                                                                                                                                                                                                                                                ",
"                                                                                                                                                                                                                                                                ",
"                                                                                                                                                                                                                                                                ",
"                                                                                                                                                                                                                                                                ",
"                                                                                                                                                                                                                                                                ",
"                                                                                                                                                                                                                                                                ",
"                                                                                                              y p = + + + + + + + + = 8 N                                                                                                                       ",
"                                                                                                            y.H R j + + + + + + + + + + w L                                                                                                                     ",
"                                                                                                            7.X.X.^ x = + + + + + + + + + 2 L                                                                                                                   ",
"                                                                                                            8.7.7.1.y.d + + + + + + + + + + y                                                                                                                   ",
"                                                                                                            =.{ 7.=.X.U + + + + + + + + + + 8 {                                                                                                                 ",
"                                                                                                            y.1.X.X.X.^ = + + + + + + + + + 8 _                                                                                                                 ",
"                                                                                                              1.X.1.f._ = + + + + + + + + + 4 H                                                                                                                 ",
"                                                                                                                X.1.y.R p 8 + + + + + + + + + = l                                                                                                               ",
"                                                                                                                  7.X.j L R = + + + + + + + + + 2 V                                                                                                             ",
"                                                                                                                    y.^ R 8.L 8 + = + + + + + + + 2 d                                                                                                           ",
"                                                                                                                    f._ l =.f.V 8 N = + + + + + + + + + = x                                                                                                     ",
"                                                                                                                          =.7._ H X.j + + + + + + + + + + e =.                                                                                                  ",
"                                                                                                                            { { 8.7.x X + + + + + + + + + w =.                                                                                                  ",
"                                                                                                                            =.1.y.7.N + 8 + + + + + + + + 4 l                                                                                                   ",
"                                                                                                                            y.f.{ X._ j H t X + + + + + + + + + y                                                                                               ",
"                                                                                                                              8.^ X.8.=._ V e + + + + + + + + + = p                                                                                             ",
"                                                                                                                                ^ X.7.1.1._ _ = + + + + + + + + + + x                                                                                           ",
"                                                                                                                                  1.1.7.8.7.X.8 8 + + + + + + + + + y                                                                                           ",
"                                                                                                                                    7.1.y.f.X.x X.4 + + + + + + + + + + j                                                                                       ",
"                                                                                                                                      y.7.y.X.H f.d X + + + + + + + + + 4 _                                                                                     ",
"                                                                                                                                      8.=.1._ H 7.V + + + + + + + + + + = L                                                                                     ",
"                                                                                                                                          { ^ V N H + + + + + + + + + + + V                                                                                     ",
"                                                                                                                                          X.^ V x L + + + + + + + + + + + N                                                                                     ",
"                                                                                                                                            _ V _ U = + + + + + + + + + + x                                                                                     ",
"                                                                                                                                                f.^ + + + + + + + + + + + N                                                                                     ",
"                                                                                                                                                f.U + + + + + + + + + + + N                                                                                     ",
"                                                                                                                                                  V + + + + + + + + + + = L                                                                                     ",
"                                                                                                                                                                                                                                                                ",
"                                                                                                                                                                                                                                                                ",
"                                                                                                                                                                                                                                                                ",
"                                                                                                                                                                                                                                                                ",
"                                                                                                                                                                                                                                                                ",
"                                                                                                                                                                                                                                                                ",
"                                                                                                                                                                                                                                                                ",
"                                                                                                                                                                                                                                                                ",
"                                                                                                                                                                                                                                                                ",
"                                                                                                                                                                                                                                                                ",
"                                                                                                                                                                                                                                                                ",
"                                                                                                                                                                                                                                                                ",
"                                                                                                                                                                                                                                                                "
};
