/* XPM */
static char *oms_147[] = {
/* columns rows colors chars-per-pixel */
"128 54 207 2 ",
"   c #00000000",
".  c #FF0B0B0B",
"X  c #FF0C0C0C",
"o  c #FF0D0D0D",
"O  c #FF0E0E0E",
"+  c #FF0F0F0F",
"@  c #FF101010",
"#  c #FF111111",
"$  c #FF121212",
"%  c #FF131313",
"&  c #FF141414",
"*  c #FF151515",
"=  c #FF161616",
"-  c #FF171717",
";  c #FF181818",
":  c #FF191919",
">  c #FF1A1A1A",
",  c #FF1B1B1B",
"<  c #FF1C1C1C",
"1  c #FF1D1D1D",
"2  c #FF1E1E1E",
"3  c #FF1F1F1F",
"4  c #FF202020",
"5  c #FF212121",
"6  c #FF222222",
"7  c #FF232323",
"8  c #FF242424",
"9  c #FF252525",
"0  c #FF262626",
"q  c #FF272727",
"w  c #FF282828",
"e  c #FF292929",
"r  c #FF2A2A2A",
"t  c #FF2B2B2B",
"y  c #FF2C2C2C",
"u  c #FF2D2D2D",
"i  c #FF2E2E2E",
"p  c #FF2F2F2F",
"a  c #FF303030",
"s  c #FF323232",
"d  c #FF343434",
"f  c #FF353535",
"g  c #FF363636",
"h  c #FF373737",
"j  c #FF383838",
"k  c #FF3A3A3A",
"l  c #FF3C3C3C",
"z  c #FF3D3D3D",
"x  c #FF3E3E3E",
"c  c #FF3F3F3F",
"v  c #FF404040",
"b  c #FF414141",
"n  c #FF424242",
"m  c #FF434343",
"M  c #FF444444",
"N  c #FF454545",
"B  c #FF464646",
"V  c #FF474747",
"C  c #FF484848",
"Z  c #FF4B4B4B",
"A  c #FF4C4C4C",
"S  c #FF4F4F4F",
"D  c #FF505050",
"F  c #FF515151",
"G  c #FF525252",
"H  c #FF535353",
"J  c #FF545454",
"K  c #FF555555",
"L  c #FF565656",
"P  c #FF575757",
"I  c #FF585858",
"U  c #FF595959",
"Y  c #FF5A5A5A",
"T  c #FF5C5C5C",
"R  c #FF5D5D5D",
"E  c #FF5E5E5E",
"W  c #FF5F5F5F",
"Q  c #FF606060",
"!  c #FF616161",
"~  c #FF626262",
"^  c #FF636363",
"/  c #FF646464",
"(  c #FF676767",
")  c #FF686868",
"_  c #FF696969",
"`  c #FF6A6A6A",
"'  c #FF6B6B6B",
"]  c #FF6C6C6C",
"[  c #FF6D6D6D",
"{  c #FF6F6F6F",
"}  c #FF707070",
"|  c #FF727272",
" . c #FF737373",
".. c #FF757575",
"X. c #FF767676",
"o. c #FF777777",
"O. c #FF787878",
"+. c #FF797979",
"@. c #FF7B7B7B",
"#. c #FF7D7D7D",
"$. c #FF808080",
"%. c #FF808080",
"&. c #FF838383",
"*. c #FF858585",
"=. c #FF868686",
"-. c #FF8A8A8A",
";. c #FF8B8B8B",
":. c #FF8C8C8C",
">. c #FF8D8D8D",
",. c #FF8E8E8E",
"<. c #FF8F8F8F",
"1. c #FF919191",
"2. c #FF929292",
"3. c #FF939393",
"4. c #FF949494",
"5. c #FF959595",
"6. c #FF989898",
"7. c #FF999999",
"8. c #FF9A9A9A",
"9. c #FF9B9B9B",
"0. c #FF9C9C9C",
"q. c #FF9F9F9F",
"w. c #FFA0A0A0",
"e. c #FFA1A1A1",
"r. c #FFA6A6A6",
"t. c #FFA7A7A7",
"y. c #FFA8A8A8",
"u. c #FFAAAAAA",
"i. c #FFADADAD",
"p. c #FFAEAEAE",
"a. c #FFAFAFAF",
"s. c #FFB0B0B0",
"d. c #FFB1B1B1",
"f. c #FFB4B4B4",
"g. c #FFB5B5B5",
"h. c #FFB6B6B6",
"j. c #FFB7B7B7",
"k. c #FFB8B8B8",
"l. c #FFB9B9B9",
"z. c #FFBABABA",
"x. c #FFBBBBBB",
"c. c #FFBCBCBC",
"v. c #FFBDBDBD",
"b. c #FF808080",
"n. c #FFBFBFBF",
"m. c #FFC0C0C0",
"M. c #FFC2C2C2",
"N. c #FFC3C3C3",
"B. c #FFC5C5C5",
"V. c #FFC6C6C6",
"C. c #FFC7C7C7",
"Z. c #FFC8C8C8",
"A. c #FFC9C9C9",
"S. c #FFCACACA",
"D. c #FFCBCBCB",
"F. c #FFCCCCCC",
"G. c #FFCDCDCD",
"H. c #FFCECECE",
"J. c #FFCFCFCF",
"K. c #FFD0D0D0",
"L. c #FFD1D1D1",
"P. c #FFD2D2D2",
"I. c #FFD3D3D3",
"U. c #FFD4D4D4",
"Y. c #FFD5D5D5",
"T. c #FFD6D6D6",
"R. c #FFD7D7D7",
"E. c #FFD8D8D8",
"W. c #FFD9D9D9",
"Q. c #FFDADADA",
"!. c #FFDBDBDB",
"~. c #FFDCDCDC",
"^. c #FFDDDDDD",
"/. c #FFDEDEDE",
"(. c #FFDFDFDF",
"). c #FFE0E0E0",
"_. c #FFE1E1E1",
"`. c #FFE2E2E2",
"'. c #FFE3E3E3",
"]. c #FFE4E4E4",
"[. c #FFE6E6E6",
"{. c #FFE6E6E6",
"}. c #FFE7E7E7",
"|. c #FFE8E8E8",
" X c #FFE9E9E9",
".X c #FFEAEAEA",
"XX c #FFEBEBEB",
"oX c #FFECECEC",
"OX c #FFEDEDED",
"+X c #FFEEEEEE",
"@X c #FFEFEFEF",
"#X c #FFF0F0F0",
"$X c #FFF1F1F1",
"%X c #FFF2F2F2",
"&X c #FFF3F3F3",
"*X c #FFF4F4F4",
"=X c #FFF5F5F5",
"-X c #FFF6F6F6",
";X c #FFF7F7F7",
":X c #FFF8F8F8",
">X c #FFF9F9F9",
",X c #FFFAFAFA",
"<X c #FFFBFBFB",
"1X c #FFFCFCFC",
"2X c #FFFDFDFD",
"3X c #FFFEFEFE",
"4X c #FFFFFFFF",
/* pixels */
"                                                                                                                                                                                                                                                                ",
"                                                                                                                                                                                                                                                                ",
"                                                                                                                                                                                                                                                                ",
"                                                                                                                                                                                                                                                                ",
"                                                                                                                                                                                                                                                                ",
"                                                                                                                                                                                                                                                                ",
"                                                                                                                                                                                                                                                                ",
"                                                                                                                                                                                                                                                                ",
"                                                                                                                                                                                                                                                                ",
"                                                                                                                                                                                                                                                                ",
"                                                                                                                                                                                                                                                                ",
"                                                                                                                                                                                                                                                                ",
"                                                                                                                                                                                                                                                                ",
"                                              2 2 i f F       @ 2 i x F 2 x F                                                                                                                                                                                   ",
"                                          @ @ @ @ @ @ @ 2 6 @ @ @ @ @ @ @ @ @ f     x N (                                                                                                                                                                       ",
"                                        x 6 @ @ @ @ i S i 2 @ 6 2 @ @ @ @ @ @ 2 6 @ @ @ @ 2 i N {                                                                                                                                                               ",
"                                    -XXXXXQ.d.( 2 @ ( -X].d.f v.v.4.x + @ @ @ + @ @ @ @ @ @ @ @ 2 S                                                                                                                                                             ",
"                                  -X<X<XXXA.-X<Xi.F A.<X<X].F R.-X<X{ { v.v.i.=.T f @ @ @ @ @ @ @ @  .                                                                                                                                                          ",
"                                    XX-XXXC.].<X<Xv.-X<X<X-XQ.R.Q.R.=.].<X<X<X<X<X].i.N @ @ @ @ @ @ T                                                                                                                                                           ",
"                                    XX].v.4.Q.<X<XC.q.<X<X<X-X<X<X-X+. .C.].Q.q.R.<X<XQ.x @ @ @ @ @         2 6 F                                                                                                                                               ",
"                                    <X<XXXv.].<X<Xv.4.<X<XXX .].<X-X4.v.XXXX].i.A.<X<X<X=.+ @ @ 6     @ @ @ @ @ @ 2 2 6 x                                                                                                                                       ",
"                                      -X<X<X<X<X-XA.-X<X<X].N Q.<X-XR.<X<X<X<X<X<X<X<X<X=.@ @ 6 { +.i @ @ + @ @ @ @ @ @ @ N 2 @ 2 6 x F               @ i N F                                                                                                   ",
"                                                    <X<X<XQ.N ].<X-XA.-X<X<X].i.A.].].v.f @ @ +.-X-XC.+.4.{ N @ @ @ @ + @ @ @ @ @ @ @ @ 6  .      @ @ @ @ @ @ 2 6 f S                                                                                           ",
"                                                              -X<X-X4.Q.<X<XQ. .i.Q.C.+.x @ @ d.<X<X<X-X<X<XR.f  .q.:.( x 2 @ @ @ @ @ @ @ ( ( i @ @ + @ @ @ @ @ @ @ 2 4.                                                                                        ",
"                                                                        -X<X<X<X<X<X<X<X4.@ @ R.<X<Xv.v.<X<XQ.d.<X<X<X<XXXv.F @ @ 6 6 @ 6 A.XXQ.:.:.{ N 2 @ @ @ @ @ 2 4.                  S                                                                     ",
"                                                                            -X-X-X<X<X-X                <X<XXXXX<X<XR.e.XX<XXXT  .Q.R.4.x A.<X<Xd.-X<XQ.f @ @ @ @ @ 2 {   @ f N S @ @ @ @ @ 2 6 N                                                               ",
"                                                                                                        <X<XXX].<X<X4.+ 4.<X<XA.Q.<X<X<XR.].<X-Xd.XX<X].x + + + @ @ @ @ 2 N i 2 @ @ @ @ @ @ @ @ @ F 2 @ 2 f N F                                                 ",
"                                                                                                        -X<XR.q.<X<XA.F d.<X<X-X-X<X<XQ.R.<X<X-Xd.XX<X].x N { T N 6 @ + N ].Q.v.4.f @ @ @ @ + @ @ @ @ @ @ @ @ @ F                                               ",
"                                                                                                                -X<X<X-X<X<X<XR.].<X<X+.f Q.<X-Xd.XX<X].:.XX<X<X-XR.:.i x XX<X<X<Xq.@ 6 e.q.{ N 6 @ @ @ @ @ @ @ S         @ 2 6 f N (                           ",
"                                                                                                                    -X-X-X<X-X  XX<X<X{ 2 A.<X-Xd.XX<XXXQ.<X<X].d.XX<XC.T XX<X<X<XQ.i { <X<X<X-Xd.2 @ @ @ @ @ @ i f + @ @ @ @ @ @ @ @ i T                       ",
"                                                                                                                                  -X<X+.6 ].<X-Xd.XX<XXXA.].XX].Q.XX<X<Xd.XX<X<X<X-X:.A.<X<X<X<XA.2 @ @ i =.e.e.:.T f @ @ @ @ @ @ @ @ @ @ S                     ",
"                                                                                                                                            <X-Xv.-X<XXXv.-XXXv.+.Q.<X<XR.XX<X<X-X<X-X-X<X<X<X<XA.2 @ 6 v.<X<X<X<X<X].i.N @ @ @ @ @ @ @ @ @  .                  ",
"                                                                                                                                                    -X].=.-X<X-XQ.-X<X<Xv.XX<X-XC.-X<X<X<X-X<X<XC.2 + F -X<X<X<XXX<X<X<X].T @ @ @ @ @ @ @ @ N                   ",
"                                                                                                                                                              -X<X<X<XXXq.XX<X<X+.A.<X<XR.A.<X<XC.2 + ( <X<X<Xq.N { R.<X<XR.i @ @ @ @ @ @ @ f                   ",
"                                                                                                                                                                          -X-X<X{ 4.<X<X+.e.<X<XA.2 + T -X<X-XF + + T -X<X-XT + @ @ @ @ @ @ x                   ",
"                                                                                                                                                                                    <X].x C.<X<XC.2 @ f XX<X<Xi.i @ T -X<X<X .+ @ @ @ @ @ @ T                   ",
"                                                                                                                                                                                            -X<XA.2       <X<X<XQ.v.].<X<X<X{ + @ @ @ @ @ 6                     ",
"                                                                                                                                                                                                            -X<X<X<X<X<X<X].N @ @ @                             ",
"                                                                                                                                                                                                                -X-X-X-X-Xe.                                    ",
"                                                                                                                                                                                                                                                                ",
"                                                                                                                                                                                                                                                                ",
"                                                                                                                                                                                                                                                                ",
"                                                                                                                                                                                                                                                                ",
"                                                                                                                                                                                                                                                                ",
"                                                                                                                                                                                                                                                                ",
"                                                                                                                                                                                                                                                                ",
"                                                                                                                                                                                                                                                                ",
"                                                                                                                                                                                                                                                                ",
"                                                                                                                                                                                                                                                                ",
"                                                                                                                                                                                                                                                                ",
"                                                                                                                                                                                                                                                                ",
"                                                                                                                                                                                                                                                                ",
"                                                                                                                                                                                                                                                                ",
"                                                                                                                                                                                                                                                                "
};
