/* XPM */
static char *oms_054[] = {
/* columns rows colors chars-per-pixel */
"128 54 185 2 ",
"   c #00000000",
".  c #FF0C0C0C",
"X  c #FF0D0D0D",
"o  c #FF0E0E0E",
"O  c #FF0F0F0F",
"+  c #FF101010",
"@  c #FF111111",
"#  c #FF121212",
"$  c #FF131313",
"%  c #FF141414",
"&  c #FF151515",
"*  c #FF161616",
"=  c #FF171717",
"-  c #FF181818",
";  c #FF191919",
":  c #FF1A1A1A",
">  c #FF1B1B1B",
",  c #FF1C1C1C",
"<  c #FF1D1D1D",
"1  c #FF1E1E1E",
"2  c #FF1F1F1F",
"3  c #FF202020",
"4  c #FF212121",
"5  c #FF222222",
"6  c #FF242424",
"7  c #FF252525",
"8  c #FF262626",
"9  c #FF282828",
"0  c #FF292929",
"q  c #FF2A2A2A",
"w  c #FF2B2B2B",
"e  c #FF2C2C2C",
"r  c #FF2D2D2D",
"t  c #FF2E2E2E",
"y  c #FF2F2F2F",
"u  c #FF303030",
"i  c #FF313131",
"p  c #FF323232",
"a  c #FF333333",
"s  c #FF343434",
"d  c #FF353535",
"f  c #FF373737",
"g  c #FF383838",
"h  c #FF393939",
"j  c #FF3B3B3B",
"k  c #FF3C3C3C",
"l  c #FF3D3D3D",
"z  c #FF414141",
"x  c #FF444444",
"c  c #FF464646",
"v  c #FF474747",
"b  c #FF494949",
"n  c #FF4A4A4A",
"m  c #FF4C4C4C",
"M  c #FF4E4E4E",
"N  c #FF4F4F4F",
"B  c #FF505050",
"V  c #FF515151",
"C  c #FF525252",
"Z  c #FF595959",
"A  c #FF5B5B5B",
"S  c #FF5C5C5C",
"D  c #FF5E5E5E",
"F  c #FF616161",
"G  c #FF646464",
"H  c #FF656565",
"J  c #FF686868",
"K  c #FF6A6A6A",
"L  c #FF6C6C6C",
"P  c #FF6F6F6F",
"I  c #FF717171",
"U  c #FF737373",
"Y  c #FF747474",
"T  c #FF767676",
"R  c #FF777777",
"E  c #FF7A7A7A",
"W  c #FF7B7B7B",
"Q  c #FF7E7E7E",
"!  c #FF808080",
"~  c #FF808080",
"^  c #FF848484",
"/  c #FF858585",
"(  c #FF878787",
")  c #FF888888",
"_  c #FF898989",
"`  c #FF8A8A8A",
"'  c #FF8C8C8C",
"]  c #FF8F8F8F",
"[  c #FF929292",
"{  c #FF949494",
"}  c #FF959595",
"|  c #FF969696",
" . c #FF979797",
".. c #FF989898",
"X. c #FF999999",
"o. c #FF9A9A9A",
"O. c #FF9C9C9C",
"+. c #FF9D9D9D",
"@. c #FF9E9E9E",
"#. c #FFA0A0A0",
"$. c #FFA2A2A2",
"%. c #FFA4A4A4",
"&. c #FFA5A5A5",
"*. c #FFA6A6A6",
"=. c #FFA9A9A9",
"-. c #FFAAAAAA",
";. c #FFABABAB",
":. c #FFACACAC",
">. c #FFADADAD",
",. c #FFAEAEAE",
"<. c #FFAFAFAF",
"1. c #FFB0B0B0",
"2. c #FFB1B1B1",
"3. c #FFB2B2B2",
"4. c #FFB4B4B4",
"5. c #FFB5B5B5",
"6. c #FFB6B6B6",
"7. c #FFB7B7B7",
"8. c #FFB8B8B8",
"9. c #FFB9B9B9",
"0. c #FFBBBBBB",
"q. c #FFBCBCBC",
"w. c #FFBDBDBD",
"e. c #FF808080",
"r. c #FFBFBFBF",
"t. c #FFC0C0C0",
"y. c #FFC1C1C1",
"u. c #FFC2C2C2",
"i. c #FFC3C3C3",
"p. c #FFC4C4C4",
"a. c #FFC6C6C6",
"s. c #FFC7C7C7",
"d. c #FFC9C9C9",
"f. c #FFCACACA",
"g. c #FFCBCBCB",
"h. c #FFCCCCCC",
"j. c #FFCDCDCD",
"k. c #FFCECECE",
"l. c #FFCFCFCF",
"z. c #FFD0D0D0",
"x. c #FFD1D1D1",
"c. c #FFD2D2D2",
"v. c #FFD3D3D3",
"b. c #FFD6D6D6",
"n. c #FFD7D7D7",
"m. c #FFD8D8D8",
"M. c #FFD9D9D9",
"N. c #FFDADADA",
"B. c #FFDBDBDB",
"V. c #FFDCDCDC",
"C. c #FFDDDDDD",
"Z. c #FFDEDEDE",
"A. c #FFDFDFDF",
"S. c #FFE0E0E0",
"D. c #FFE1E1E1",
"F. c #FFE2E2E2",
"G. c #FFE3E3E3",
"H. c #FFE4E4E4",
"J. c #FFE6E6E6",
"K. c #FFE6E6E6",
"L. c #FFE7E7E7",
"P. c #FFE8E8E8",
"I. c #FFE9E9E9",
"U. c #FFEAEAEA",
"Y. c #FFEBEBEB",
"T. c #FFECECEC",
"R. c #FFEDEDED",
"E. c #FFEEEEEE",
"W. c #FFEFEFEF",
"Q. c #FFF0F0F0",
"!. c #FFF1F1F1",
"~. c #FFF2F2F2",
"^. c #FFF3F3F3",
"/. c #FFF4F4F4",
"(. c #FFF5F5F5",
"). c #FFF6F6F6",
"_. c #FFF7F7F7",
"`. c #FFF8F8F8",
"'. c #FFF9F9F9",
"]. c #FFFAFAFA",
"[. c #FFFBFBFB",
"{. c #FFFCFCFC",
"}. c #FFFDFDFD",
"|. c #FFFEFEFE",
" X c #FFFFFFF1",
/* pixels */
"                                                                                                                                                                                                                                                                ",
"                                                                                                                                                                                                                                                                ",
"                                                                                                                                                                                                                                                                ",
"                                                                                                                                                                                                                                                                ",
"                                                                                                                                                                                                                                                                ",
"                                                                                                                                                                                                                                                                ",
"                                                                                                                                                                                                                                                                ",
"                                                                                                                                                                                                                                                                ",
"                                                                                                                                                                                                                                                                ",
"                                                                                                                                                                                                                                                                ",
"                                                                                                                                                                                                                                                                ",
"                                                                                                                                                                                                                                                                ",
"                                                                                                                                                                                                                                                                ",
"                                                                                                                                                                                                                                                                ",
"                                                                                                                                                                                                                                                                ",
"                                                                                                                                                                                                                                                                ",
"                                                                                                                                                                                                                                                                ",
"                                                                                                                                                                                                                                                                ",
"                                                                                                                                                                                                                                                                ",
"                                                                                                                                                                                                                                                                ",
"                                                                                                                                                                  y < < $ $ $ < $ $ $ y x S F x < ) B.j.M e.Y.                                                  ",
"                                                                                                                                                                y $ $ $ $ $ $ $ $ f #.B.^.].^.Y.W i.].j.S ^.].#.$ l o.B.^.^.                                    ",
"                                                                                                                                                              J $ $ $ $ $ $ $ $ < >.].].J.J.].^.i.>.x.e.>.^.].Y.J j.].Y.^.].^.                                  ",
"                                                                                                                y < 4 $ $ $ $                         < $     l $ X $ $ < < $ $ y B.].^.{ o.B.6.S i.].J.Y.].].^.B.].^.>.J.].^.                                  ",
"                                                                                                            ) < $ $ $ $ $ $ $ F >.6.6.^.J.f < 4 $ $ $ $ 4 f y $ y F W S 6.i.M X y B.].].^.^.^.^.6.j.].J.i.^.].6.x.].^.B.B.J.^.                                  ",
"                                                                                4 $ $   f $ $ $ $ < $ $ y ) >.{ f $ $ $ $ $ $ >.].Y.x.].J.y f M 4 $ M >.B.J.B.( ) ].].Y.].].#.$ $ o.^.^.].].].].^.^.].j.F ^.].>.j.].Y.W e.Y.^.                                  ",
"                                                              4 $ $ $       M < 4 < $ $ $ $ x #.e.j.F X ( ].].^.V X $ 4 y 4 $ >.].J.j.].Y.{ J.^.>.V J.].^.^.].Y.i.].].B.^.].i.< $ M #.x.W o.].].^.^.].j.S ^.].^.j.^.].^.].].^.                                  ",
"                                                          y $ $ $ $ $ $ $ x o.i.x.x.o.y $ X R ].].].6.4 j.].].^.V l #.x.B.j.J >.].J.j.].].].].].J.e.].^.J { ].].^.].^.J e.B.{ $ f B.^.^.e.i.].].j.x.].x.V J.].^.( x.^.^.^.                                      ",
"                                                        V $ $ $ $ $ $ $ J Y.].].].].].>.< X R ].].].J.R Y.].].^.R x.].J.Y.].B.j.].J.j.].^.o.x.].Y.J.].J.y R ].^.Y.].^.S y 4 < $ 4 i.].].].].].^.R i.].Y.                                                        ",
"                                                        y $ $ $ $ $ $ f B.].].Y.J.].].J.l X R ].].].^.J.].].].^.e.].^.i.B.].^.^.].J.j.].J.y o.].Y.x.].^.#.j.].J.6.].].              ^.].^.^.                                                                    ",
"                                                        y $ $ $ $ $ X J ].].e.l l x.].^.M X R ].].^.].].].^.].^.x.].^.j.i.x.j.Y.].J.j.].J.y { ].J.) Y.].].].].>.) ].].                                                                                          ",
"                                                        y $ $ $ $ $ X ( ].].R X $ 6.].^.M X R ].^.j.^.].J.i.].^.x.].^.#.e.^.J.B.].J.j.].Y.y { ].Y.    ^.^.^.                                                                                                    ",
"                                                        f $ $ $ $ $ X ( ].].o.< x B.].Y.l X R ].^.) B.].>.o.].Y.{ Y.].].].].6.6.].J.j.^.                                                                                                                        ",
"                                                        V $ $ $ $ $ X R ].].^.j.J.].].e.< X R ].].J #.].R { ].^.    ^.^.^.                                                                                                                                      ",
"                                                            $ $ $ $ $ l B.].].].].].].) X X W ].].                                                                                                                                                              ",
"                                                                      $ ( ^.].].^.^.                                                                                                                                                                            ",
"                                                                                                                                                                                                                                                                ",
"                                                                                                                                                                                                                                                                ",
"                                                                                                                                                                                                                                                                ",
"                                                                                                                                                                                                                                                                ",
"                                                                                                                                                                                                                                                                ",
"                                                                                                                                                                                                                                                                ",
"                                                                                                                                                                                                                                                                ",
"                                                                                                                                                                                                                                                                ",
"                                                                                                                                                                                                                                                                ",
"                                                                                                                                                                                                                                                                ",
"                                                                                                                                                                                                                                                                ",
"                                                                                                                                                                                                                                                                ",
"                                                                                                                                                                                                                                                                ",
"                                                                                                                                                                                                                                                                ",
"                                                                                                                                                                                                                                                                ",
"                                                                                                                                                                                                                                                                ",
"                                                                                                                                                                                                                                                                ",
"                                                                                                                                                                                                                                                                "
};
