/* XPM */
static char *oms_063[] = {
/* columns rows colors chars-per-pixel */
"128 54 176 2 ",
"   c #00000000",
".  c #FF0C0C0C",
"X  c #FF0D0D0D",
"o  c #FF0E0E0E",
"O  c #FF0F0F0F",
"+  c #FF101010",
"@  c #FF111111",
"#  c #FF121212",
"$  c #FF131313",
"%  c #FF141414",
"&  c #FF151515",
"*  c #FF161616",
"=  c #FF171717",
"-  c #FF181818",
";  c #FF191919",
":  c #FF1A1A1A",
">  c #FF1B1B1B",
",  c #FF1C1C1C",
"<  c #FF1D1D1D",
"1  c #FF1F1F1F",
"2  c #FF202020",
"3  c #FF212121",
"4  c #FF222222",
"5  c #FF232323",
"6  c #FF242424",
"7  c #FF252525",
"8  c #FF272727",
"9  c #FF282828",
"0  c #FF292929",
"q  c #FF2A2A2A",
"w  c #FF2B2B2B",
"e  c #FF2D2D2D",
"r  c #FF2E2E2E",
"t  c #FF2F2F2F",
"y  c #FF343434",
"u  c #FF353535",
"i  c #FF373737",
"p  c #FF393939",
"a  c #FF3A3A3A",
"s  c #FF3B3B3B",
"d  c #FF3C3C3C",
"f  c #FF404040",
"g  c #FF414141",
"h  c #FF424242",
"j  c #FF454545",
"k  c #FF474747",
"l  c #FF4B4B4B",
"z  c #FF4C4C4C",
"x  c #FF4C4C4C",
"c  c #FF505050",
"v  c #FF525252",
"b  c #FF535353",
"n  c #FF565656",
"m  c #FF575757",
"M  c #FF5A5A5A",
"N  c #FF5B5B5B",
"B  c #FF5C5C5C",
"V  c #FF5F5F5F",
"C  c #FF626262",
"Z  c #FF696969",
"A  c #FF6A6A6A",
"S  c #FF6B6B6B",
"D  c #FF6C6C6C",
"F  c #FF6E6E6E",
"G  c #FF727272",
"H  c #FF737373",
"J  c #FF757575",
"K  c #FF777777",
"L  c #FF797979",
"P  c #FF7A7A7A",
"I  c #FF7D7D7D",
"U  c #FF808080",
"Y  c #FF828282",
"T  c #FF868686",
"R  c #FF878787",
"E  c #FF888888",
"W  c #FF898989",
"Q  c #FF8C8C8C",
"!  c #FF8D8D8D",
"~  c #FF8E8E8E",
"^  c #FF8F8F8F",
"/  c #FF919191",
"(  c #FF929292",
")  c #FF939393",
"_  c #FF959595",
"`  c #FF969696",
"'  c #FF979797",
"]  c #FF989898",
"[  c #FF999999",
"{  c #FF9A9A9A",
"}  c #FF9B9B9B",
"|  c #FF9C9C9C",
" . c #FF9F9F9F",
".. c #FFA0A0A0",
"X. c #FFA4A4A4",
"o. c #FFA5A5A5",
"O. c #FFA6A6A6",
"+. c #FFA7A7A7",
"@. c #FFA9A9A9",
"#. c #FFAAAAAA",
"$. c #FFABABAB",
"%. c #FFACACAC",
"&. c #FFAEAEAE",
"*. c #FFAFAFAF",
"=. c #FFB0B0B0",
"-. c #FFB1B1B1",
";. c #FFB2B2B2",
":. c #FFB2B2B2",
">. c #FFB4B4B4",
",. c #FFB6B6B6",
"<. c #FFB7B7B7",
"1. c #FFB8B8B8",
"2. c #FFB9B9B9",
"3. c #FFBABABA",
"4. c #FFBCBCBC",
"5. c #FFBDBDBD",
"6. c #FFC0C0C0",
"7. c #FFC1C1C1",
"8. c #FFC2C2C2",
"9. c #FFC3C3C3",
"0. c #FFC4C4C4",
"q. c #FFC6C6C6",
"w. c #FFC7C7C7",
"e. c #FFC8C8C8",
"r. c #FFC9C9C9",
"t. c #FFCACACA",
"y. c #FFCBCBCB",
"u. c #FFCCCCCC",
"i. c #FFCECECE",
"p. c #FFCFCFCF",
"a. c #FFD0D0D0",
"s. c #FFD1D1D1",
"d. c #FFD2D2D2",
"f. c #FFD3D3D3",
"g. c #FFD5D5D5",
"h. c #FFD6D6D6",
"j. c #FFD7D7D7",
"k. c #FFD8D8D8",
"l. c #FFD9D9D9",
"z. c #FFDADADA",
"x. c #FFDBDBDB",
"c. c #FFDCDCDC",
"v. c #FFDDDDDD",
"b. c #FFDEDEDE",
"n. c #FFDFDFDF",
"m. c #FFE0E0E0",
"M. c #FFE1E1E1",
"N. c #FFE2E2E2",
"B. c #FFE3E3E3",
"V. c #FFE4E4E4",
"C. c #FFE6E6E6",
"Z. c #FFE6E6E6",
"A. c #FFE7E7E7",
"S. c #FFE8E8E8",
"D. c #FFE9E9E9",
"F. c #FFEAEAEA",
"G. c #FFEBEBEB",
"H. c #FFECECEC",
"J. c #FFEDEDED",
"K. c #FFEEEEEE",
"L. c #FFEFEFEF",
"P. c #FFF1F1F1",
"I. c #FFF2F2F2",
"U. c #FFF3F3F3",
"Y. c #FFF4F4F4",
"T. c #FFF5F5F5",
"R. c #FFF6F6F6",
"E. c #FFF7F7F7",
"W. c #FFF8F8F8",
"Q. c #FFF9F9F9",
"!. c #FFFAFAFA",
"~. c #FFFBFBFB",
"^. c #FFFCFCFC",
"/. c #FFFDFDFD",
"(. c #FFFEFEFE",
"). c #FFFFFFFF",
/* pixels */
"                                                                                                                                                                                                                                                                ",
"                                                                                                                                                                                                                                                                ",
"                                                                                                                                                                                                                                                                ",
"                                                                                                                                                                                                                                                                ",
"                                                                                                                                                                                                                                                                ",
"                                                                                                                                                                                                                                                                ",
"                                                                                                                                                                                                                                                                ",
"                                                                                                                                                                                                                                                                ",
"                                                                                                                                                                                                                                                                ",
"                                                                                                                                                                                                                                                                ",
"                                                                                                                                                                                                                                                                ",
"                                                                                                                                                                                                                                                                ",
"                                                                                                                                                                                                                                                                ",
"                                                                                                                                                                                                                                                                ",
"                                                                                                                                                                                                                                                                ",
"                                                                                                                                                                                                                                                                ",
"                                                                                                                                                                                                                                                                ",
"                                                                                                                                                                                                                                                                ",
"                                                                                                                                                                                                                                                                ",
"                                                                                                                                                              3 $ $ i , $ $ $ $ $ 3 a h , F x.Q Q Y.*.                                                          ",
"                                                                                                                                                          i $ $ $ $ $ $ $ $ $ w _ s.L.L.+.+.Q._ 2.Q._ w  .L.Q.Y.                                                ",
"                                                                                                                                                        J $ $ $ $ $ $ $ $ $ , *.Q.Y.Y.Q.M.*.s.<.M.Q.s.+.Q.x.L.Q.                                                ",
"                                                                                                                                                        V $ $ $ $ $ $ $ $ $ a M.Q.<.+.s.Y +.Q.M.Y.Q.M.M.Q.s.L.Y.                                                ",
"                                                                                                                        , $                   3 w $ $ , , $ $ $ $ , 3 V h $ h L.Q.L.L.Y.u.2.Q.8.M.Q.+.x.Q.8.8.L.                                                ",
"                                                                                                                _ 3 $ $ $ $ $ $ $ $ i L Q s.8.3 O $ $ $ w z z 3 Q 8.<.Y.u.3 w x.Q.Q.Q.Q.Y.x.Q. .2.Q.8.M.Q.<.x.Q.                                                ",
"                                                                                                    , $ $       v , $ , 3 $ $ $ $ $ Q Q.s.Y.x.w h i $ J x.Y.Y.+.s.Q.Q.Q.M.i $ F u.*.<.Q.Y.M.Q. .2.Q.M.8.Q.Q.Q.Y.                                                ",
"                                                                                          3 , , w $ $ $ $ $ , w $ 3 _ u.+.$ $ O $ O _ Q.u.L.x. .L.u.F L.Y.M.Q.M.M.Q.<.L.L.i a 8.L.<.<.Q.M.u.Q. .+.Q.L.  L.Y.                                                    ",
"                                                                              , $     V 3 $ $ $ $ $ $ $ , Q u.x.h v Q.Q.<., a L _ v _ Q.u.L.Y.Q.Q.Y.u.Q.+.V Y.L.M.Y.F J V , a L.Q.Q.Q.Q.8.*.Q.                                                                  ",
"                                                                        C 3 $ $ $ $ $ $ $ $ v  .<. .i $ 3 s.Q.Q.L Q Q.Q.2.V M.Q.Q.x.<.Q.u.L.Y.<.L.Q.Y.Q._ v Y.M.M.Q.Y   O $ , *.Y.Y.Y.                                                                          ",
"                                                                        w $ $ $ $ $ $ $ $ Y Y.Q.Q.Q.2., 3 u.Q.Q.8.u.Q.Q.s.u.Q.2.L.Y.x.Q.u.L.x.h x.Y.M.Q.M.s.Q.2.s.Q.                                                                                            ",
"                                                                      F $ $ $ $ $ $ $ $ z L.Q.Y.Y.Q.L.a 3 u.Q.Q.Y.Y.Q.Q.M.L.Q.M.M.x.s.Q.u.L.s.a x.Y.+.L.Q.Q.Y.                                                                                                  ",
"                                                                      v $ $ $ $ $ $ $ $ _ Q.M.C Y Y.Y.z 3 s.Q.Y.Q.Q.M.Q.M.L.Y._ 8.x.s.Q.u.L.x.h x.Q.                                                                                                            ",
"                                                                      z $ $ $ $ $ $ $ $ *.Q.+.O a L.Y.z 3 u.Y.u.Q.L.*.Q.x.M.Q.M.Y.x.<.Q.s.L.                                                                                                                    ",
"                                                                      V $ $ $ $ $ $ $ $ 2.Q.+.$ C Y.L.h 3 u.Y._ L.u.Q Q.u.+.Q.Q.Q.                                                                                                                              ",
"                                                                      J , $ $ $ $ $ $ $ *.Q.L.*.x.Q.u.3 3 u.Q.J u.2.Y Q.                                                                                                                                        ",
"                                                                        a $ $ $ $ $ $ $ Y Q.Q.Q.Q.Q.<.O 3 s.Q.                                                                                                                                                  ",
"                                                                                  $ $ $ a M.Q.Q.Y.Y.                                                                                                                                                            ",
"                                                                                                                                                                                                                                                                ",
"                                                                                                                                                                                                                                                                ",
"                                                                                                                                                                                                                                                                ",
"                                                                                                                                                                                                                                                                ",
"                                                                                                                                                                                                                                                                ",
"                                                                                                                                                                                                                                                                ",
"                                                                                                                                                                                                                                                                ",
"                                                                                                                                                                                                                                                                ",
"                                                                                                                                                                                                                                                                ",
"                                                                                                                                                                                                                                                                ",
"                                                                                                                                                                                                                                                                ",
"                                                                                                                                                                                                                                                                ",
"                                                                                                                                                                                                                                                                ",
"                                                                                                                                                                                                                                                                ",
"                                                                                                                                                                                                                                                                ",
"                                                                                                                                                                                                                                                                ",
"                                                                                                                                                                                                                                                                "
};
