/* XPM */
static char *oms_023[] = {
/* columns rows colors chars-per-pixel */
"128 54 188 2 ",
"   c #00000000",
".  c #FF0A0A0A",
"X  c #FF0D0D0D",
"o  c #FF0E0E0E",
"O  c #FF0F0F0F",
"+  c #FF101010",
"@  c #FF111111",
"#  c #FF121212",
"$  c #FF131313",
"%  c #FF141414",
"&  c #FF151515",
"*  c #FF171717",
"=  c #FF181818",
"-  c #FF191919",
";  c #FF1B1B1B",
":  c #FF1C1C1C",
">  c #FF1D1D1D",
",  c #FF1F1F1F",
"<  c #FF202020",
"1  c #FF212121",
"2  c #FF232323",
"3  c #FF242424",
"4  c #FF262626",
"5  c #FF272727",
"6  c #FF282828",
"7  c #FF292929",
"8  c #FF2A2A2A",
"9  c #FF2E2E2E",
"0  c #FF303030",
"q  c #FF323232",
"w  c #FF333333",
"e  c #FF343434",
"r  c #FF353535",
"t  c #FF373737",
"y  c #FF3A3A3A",
"u  c #FF3B3B3B",
"i  c #FF3C3C3C",
"p  c #FF404040",
"a  c #FF414141",
"s  c #FF444444",
"d  c #FF474747",
"f  c #FF4B4B4B",
"g  c #FF4C4C4C",
"h  c #FF4C4C4C",
"j  c #FF4F4F4F",
"k  c #FF525252",
"l  c #FF565656",
"z  c #FF585858",
"x  c #FF595959",
"c  c #FF5C5C5C",
"v  c #FF5F5F5F",
"b  c #FF606060",
"n  c #FF626262",
"m  c #FF636363",
"M  c #FF646464",
"N  c #FF666666",
"B  c #FF686868",
"V  c #FF696969",
"C  c #FF6A6A6A",
"Z  c #FF6B6B6B",
"A  c #FF6C6C6C",
"S  c #FF6E6E6E",
"D  c #FF6F6F6F",
"F  c #FF707070",
"G  c #FF717171",
"H  c #FF737373",
"J  c #FF747474",
"K  c #FF757575",
"L  c #FF767676",
"P  c #FF777777",
"I  c #FF787878",
"U  c #FF797979",
"Y  c #FF7A7A7A",
"T  c #FF7E7E7E",
"R  c #FF808080",
"E  c #FF808080",
"W  c #FF818181",
"Q  c #FF838383",
"!  c #FF858585",
"~  c #FF868686",
"^  c #FF878787",
"/  c #FF888888",
"(  c #FF898989",
")  c #FF8A8A8A",
"_  c #FF8B8B8B",
"`  c #FF8C8C8C",
"'  c #FF8D8D8D",
"]  c #FF8E8E8E",
"[  c #FF8F8F8F",
"{  c #FF909090",
"}  c #FF919191",
"|  c #FF929292",
" . c #FF939393",
".. c #FF959595",
"X. c #FF979797",
"o. c #FF989898",
"O. c #FF999999",
"+. c #FF9A9A9A",
"@. c #FF9B9B9B",
"#. c #FF9C9C9C",
"$. c #FF9F9F9F",
"%. c #FFA1A1A1",
"&. c #FFA2A2A2",
"*. c #FFA3A3A3",
"=. c #FFA4A4A4",
"-. c #FFA6A6A6",
";. c #FFA7A7A7",
":. c #FFA8A8A8",
">. c #FFA9A9A9",
",. c #FFACACAC",
"<. c #FFADADAD",
"1. c #FFAEAEAE",
"2. c #FFAFAFAF",
"3. c #FFB0B0B0",
"4. c #FFB1B1B1",
"5. c #FFB2B2B2",
"6. c #FFB6B6B6",
"7. c #FFB7B7B7",
"8. c #FFB8B8B8",
"9. c #FFB9B9B9",
"0. c #FFBABABA",
"q. c #FFBBBBBB",
"w. c #FFBCBCBC",
"e. c #FFBDBDBD",
"r. c #FF808080",
"t. c #FFBFBFBF",
"y. c #FFC0C0C0",
"u. c #FFC1C1C1",
"i. c #FFC2C2C2",
"p. c #FFC4C4C4",
"a. c #FFC5C5C5",
"s. c #FFC6C6C6",
"d. c #FFC7C7C7",
"f. c #FFC8C8C8",
"g. c #FFC9C9C9",
"h. c #FFCACACA",
"j. c #FFCBCBCB",
"k. c #FFCCCCCC",
"l. c #FFCDCDCD",
"z. c #FFCECECE",
"x. c #FFCFCFCF",
"c. c #FFD0D0D0",
"v. c #FFD1D1D1",
"b. c #FFD2D2D2",
"n. c #FFD3D3D3",
"m. c #FFD4D4D4",
"M. c #FFD5D5D5",
"N. c #FFD6D6D6",
"B. c #FFD7D7D7",
"V. c #FFD8D8D8",
"C. c #FFD9D9D9",
"Z. c #FFDADADA",
"A. c #FFDBDBDB",
"S. c #FFDCDCDC",
"D. c #FFDDDDDD",
"F. c #FFDEDEDE",
"G. c #FFDFDFDF",
"H. c #FFE0E0E0",
"J. c #FFE1E1E1",
"K. c #FFE2E2E2",
"L. c #FFE3E3E3",
"P. c #FFE4E4E4",
"I. c #FFE6E6E6",
"U. c #FFE6E6E6",
"Y. c #FFE7E7E7",
"T. c #FFE8E8E8",
"R. c #FFE9E9E9",
"E. c #FFEAEAEA",
"W. c #FFEBEBEB",
"Q. c #FFECECEC",
"!. c #FFEDEDED",
"~. c #FFEEEEEE",
"^. c #FFEFEFEF",
"/. c #FFF0F0F0",
"(. c #FFF1F1F1",
"). c #FFF2F2F2",
"_. c #FFF3F3F3",
"`. c #FFF4F4F4",
"'. c #FFF5F5F5",
"]. c #FFF6F6F6",
"[. c #FFF7F7F7",
"{. c #FFF8F8F8",
"}. c #FFF9F9F9",
"|. c #FFFAFAFA",
" X c #FFFBFBFB",
".X c #FFFCFCFC",
"XX c #FFFDFDFD",
"oX c #FFFEFEFE",
/* pixels */
"                                                                                                                                                                                                                                                                ",
"                                                                                                                                                                                                                                                                ",
"                                                                                                                                                                                                                                                                ",
"                                                                                                                                                                                                                                                                ",
"                                                                                                                                                                                                                                                                ",
"                                                                                                                                                                                                                                                                ",
"                                                                                                                                                                                                                                                                ",
"                                                                                                                                                                                                                                                                ",
"                                                                                                                                                                                                                                                                ",
"                                                                                                                                                                                                                                                                ",
"                                                                                                                                                                                                                                                                ",
"                                                                                                                                                                                                                                                                ",
"                                                                                                                                                                                                                                                                ",
"                                                                                                                                                                                                                                                                ",
"                                                                                                                                                                                                                                                                ",
"                                                                                                                                                                                                                                                                ",
"                                                                                                                                                                                                                                                                ",
"                                                                                                                                                                                                                                                                ",
"                                                                                                                                                                                                                                                                ",
"                                                                                                                                                                                                                                                                ",
"                                                                                                                                                                                                                                                                ",
"                                                                                                                                                                                                                                                                ",
"                                                                                                                                                                                  + + + 1 c  .>.n.K.G.;.! p + g G.  ].                                          ",
"                          : g ! >.3.8.n.            + 1 +.>.>.8.^.  1 + 1 ;.8.8.n.^.                + + 1 3.n.n.u. .K.^.].                                                    : + + + y u.].XXXXXXXXXXXX].K.F F XXXXXX+.q n.].].^.                              ",
"                      + y 3.^.].XXXXXXXX].].].      + q K.XXXXXXXXK.q O F XXXXXXXXXX                O + 8 G.XXXXK.>.XXXXXXh.                                                  + + + + +.XXXXXX].u.>.^.].].].n.I n.n.G.' N ^.XXXXK.A + 1 c ;.h.                  ",
"                    + 8 h.XXXXXXXX].XXXXXXXXXX].    + q K.XXXXXXXXXX! 1 n.XXXXXXXXXXI O p I >.u.^.n.A 8 1 n.XXXXK.>.XXXXXX .c u.^.K.F : : c ;.h.K.].K.u. .q g u.u.n.+.' K.XXG.g + + + 3.XXXXXX].8.+.h.n.8.+.l F ^.^.^.h.K.XXXXXXXXG.l 8.^.].].].].].].          ",
"                    + F XXXXXX].].  A ;.].XXXX].    + q K.XXXXXXXXXXG.;.XXXXXXXXXXXXF I K.XXXX].].XXXXh.l n.XXXXK.>.XXXXXXK.].XXXXXX].N ! ].XXXX].].XXXXXXh.I ].XXXX].XXXXXXXXu.1 + + A ].XXXXXXXXXXXXXXXX].>.! XXXXXXn.^.XXXXXXXXK.h.XXXXXX8.;.^.XXXX].        ",
"                    +  .XXXXXX].    O 1 n.XXXXXX    + q K.XXXXXXXXXXXX].XXXX].XXXXXX;.K.XXXXK.+.8.XXXXXX8.G.XXXXK.>.XXXXXX^.8.K.XXXXXX3.K.XXXX^.A g n.XXXX].u.].XXXXK.+.^.XXXX].g O + : ! h.K.^.K.K.].XXXXXX].8.].XXXX;.c ^.XXXXG.c G.XXXXXX^.K.^.^.^.].        ",
"                    +  .XXXXXX].  O O y K.XXXXXX    + q K.XXXX].n.XXXXXXXXG.G.XXXX].u.].XXXX].K.K.^.K.K.h.K.XXXXG.>.XXXXXX+.+ ' XXXXXXh.^.XXXXG.1 O >.XXXX].h.].XXXXu.8 G.].^.8.1 + :  .h.n.G.K.A p u.XXXXXX].h.].XXXX+.q K.XXXX^.' G.XXXX]. .A u.n.G.^.        ",
"                    O N XXXXXXXXn.'  .n.XXXXXX].    + q K.XXXX^.A K.XXXXXX! 8.XXXX].3.^.XXXXG.A ' n.h.n.u.K.XXXXK.>.XXXXXX! O F XXXXXX>.G.XXXX].;.' K.XXXX^.;.].XXXX].        q + + + +.XXXXXXXXK.n.].XXXXXXG.+.].XXXX+.q K.XXXXXXK.;.].XXXX^.K.].XXXX].        ",
"                      8 h.XXXXXXXXXXXXXXXXXX].].    + q K.XXXX^.y  .XXXXn.8 u.XXXXXX' 8.XXXX].K.^.XXXX]. .n.XXXXK.>.XXXXXX' O I XXXXXX;.I ^.XXXXXXXXXXXXXX+.A ].XXXX].              + q u.].XXXXXXXX].XX].^.N F ].].XX>.: 3.XXXXXXK.p 3.].].].].].].].          ",
"                          ^.].].].].XXXX].].          q K.XX].].  l ^.XX3.+ h.XX].].    ^.].XXXXXX].].    n.XXXXK.3.XXXXXX      ^.^.].        ].].].^.                                                                                                          ",
"                                                                                                                                                                                                                                                                ",
"                                                                                                                                                                                                                                                                ",
"                                                                                                                                                                                                                                                                ",
"                                                                                                                                                                                                                                                                ",
"                                                                                                                                                                                                                                                                ",
"                                                                                                                                                                                                                                                                ",
"                                                                                                                                                                                                                                                                ",
"                                                                                                                                                                                                                                                                ",
"                                                                                                                                                                                                                                                                ",
"                                                                                                                                                                                                                                                                ",
"                                                                                                                                                                                                                                                                ",
"                                                                                                                                                                                                                                                                ",
"                                                                                                                                                                                                                                                                ",
"                                                                                                                                                                                                                                                                ",
"                                                                                                                                                                                                                                                                ",
"                                                                                                                                                                                                                                                                ",
"                                                                                                                                                                                                                                                                ",
"                                                                                                                                                                                                                                                                ",
"                                                                                                                                                                                                                                                                ",
"                                                                                                                                                                                                                                                                ",
"                                                                                                                                                                                                                                                                ",
"                                                                                                                                                                                                                                                                "
};
