/* XPM */
static char *oms_138[] = {
/* columns rows colors chars-per-pixel */
"128 54 199 2 ",
"   c #00000000",
".  c #FF0A0A0A",
"X  c #FF0E0E0E",
"o  c #FF0F0F0F",
"O  c #FF101010",
"+  c #FF111111",
"@  c #FF121212",
"#  c #FF131313",
"$  c #FF141414",
"%  c #FF151515",
"&  c #FF161616",
"*  c #FF171717",
"=  c #FF181818",
"-  c #FF191919",
";  c #FF1A1A1A",
":  c #FF1B1B1B",
">  c #FF1C1C1C",
",  c #FF1D1D1D",
"<  c #FF1E1E1E",
"1  c #FF1F1F1F",
"2  c #FF202020",
"3  c #FF212121",
"4  c #FF222222",
"5  c #FF232323",
"6  c #FF242424",
"7  c #FF252525",
"8  c #FF262626",
"9  c #FF272727",
"0  c #FF282828",
"q  c #FF2B2B2B",
"w  c #FF2C2C2C",
"e  c #FF2D2D2D",
"r  c #FF2F2F2F",
"t  c #FF303030",
"y  c #FF313131",
"u  c #FF323232",
"i  c #FF333333",
"p  c #FF353535",
"a  c #FF363636",
"s  c #FF373737",
"d  c #FF383838",
"f  c #FF393939",
"g  c #FF3B3B3B",
"h  c #FF3C3C3C",
"j  c #FF3D3D3D",
"k  c #FF3E3E3E",
"l  c #FF3F3F3F",
"z  c #FF414141",
"x  c #FF424242",
"c  c #FF434343",
"v  c #FF444444",
"b  c #FF464646",
"n  c #FF474747",
"m  c #FF4A4A4A",
"M  c #FF4C4C4C",
"N  c #FF4C4C4C",
"B  c #FF4F4F4F",
"V  c #FF505050",
"C  c #FF535353",
"Z  c #FF545454",
"A  c #FF565656",
"S  c #FF575757",
"D  c #FF585858",
"F  c #FF595959",
"G  c #FF5C5C5C",
"H  c #FF5D5D5D",
"J  c #FF606060",
"K  c #FF616161",
"L  c #FF636363",
"P  c #FF646464",
"I  c #FF656565",
"U  c #FF666666",
"Y  c #FF676767",
"T  c #FF696969",
"R  c #FF6A6A6A",
"E  c #FF6B6B6B",
"W  c #FF6C6C6C",
"Q  c #FF6D6D6D",
"!  c #FF6F6F6F",
"~  c #FF717171",
"^  c #FF727272",
"/  c #FF737373",
"(  c #FF747474",
")  c #FF757575",
"_  c #FF777777",
"`  c #FF787878",
"'  c #FF797979",
"]  c #FF7A7A7A",
"[  c #FF7B7B7B",
"{  c #FF808080",
"}  c #FF838383",
"|  c #FF848484",
" . c #FF868686",
".. c #FF878787",
"X. c #FF898989",
"o. c #FF8A8A8A",
"O. c #FF8B8B8B",
"+. c #FF8E8E8E",
"@. c #FF909090",
"#. c #FF919191",
"$. c #FF939393",
"%. c #FF959595",
"&. c #FF969696",
"*. c #FF989898",
"=. c #FF999999",
"-. c #FF9A9A9A",
";. c #FF9B9B9B",
":. c #FF9D9D9D",
">. c #FF9E9E9E",
",. c #FF9F9F9F",
"<. c #FFA0A0A0",
"1. c #FFA1A1A1",
"2. c #FFA2A2A2",
"3. c #FFA4A4A4",
"4. c #FFA5A5A5",
"5. c #FFA6A6A6",
"6. c #FFA8A8A8",
"7. c #FFA9A9A9",
"8. c #FFAAAAAA",
"9. c #FFABABAB",
"0. c #FFADADAD",
"q. c #FFAEAEAE",
"w. c #FFAFAFAF",
"e. c #FFB0B0B0",
"r. c #FFB2B2B2",
"t. c #FFB2B2B2",
"y. c #FFB4B4B4",
"u. c #FFB5B5B5",
"i. c #FFB6B6B6",
"p. c #FFB9B9B9",
"a. c #FFBABABA",
"s. c #FFBBBBBB",
"d. c #FFBCBCBC",
"f. c #FFBDBDBD",
"g. c #FF808080",
"h. c #FFBFBFBF",
"j. c #FFC0C0C0",
"k. c #FFC1C1C1",
"l. c #FFC2C2C2",
"z. c #FFC3C3C3",
"x. c #FFC4C4C4",
"c. c #FFC5C5C5",
"v. c #FFC6C6C6",
"b. c #FFC7C7C7",
"n. c #FFC8C8C8",
"m. c #FFC9C9C9",
"M. c #FFCACACA",
"N. c #FFCBCBCB",
"B. c #FFCCCCCC",
"V. c #FFCDCDCD",
"C. c #FFCECECE",
"Z. c #FFCFCFCF",
"A. c #FFD0D0D0",
"S. c #FFD1D1D1",
"D. c #FFD3D3D3",
"F. c #FFD4D4D4",
"G. c #FFD5D5D5",
"H. c #FFD6D6D6",
"J. c #FFD7D7D7",
"K. c #FFD8D8D8",
"L. c #FFD9D9D9",
"P. c #FFDADADA",
"I. c #FFDBDBDB",
"U. c #FFDCDCDC",
"Y. c #FFDDDDDD",
"T. c #FFDEDEDE",
"R. c #FFDFDFDF",
"E. c #FFE0E0E0",
"W. c #FFE1E1E1",
"Q. c #FFE2E2E2",
"!. c #FFE3E3E3",
"~. c #FFE4E4E4",
"^. c #FFE6E6E6",
"/. c #FFE6E6E6",
"(. c #FFE7E7E7",
"). c #FFE8E8E8",
"_. c #FFE9E9E9",
"`. c #FFEAEAEA",
"'. c #FFEBEBEB",
"]. c #FFECECEC",
"[. c #FFEDEDED",
"{. c #FFEEEEEE",
"}. c #FFEFEFEF",
"|. c #FFF0F0F0",
" X c #FFF1F1F1",
".X c #FFF2F2F2",
"XX c #FFF3F3F3",
"oX c #FFF4F4F4",
"OX c #FFF5F5F5",
"+X c #FFF6F6F6",
"@X c #FFF7F7F7",
"#X c #FFF8F8F8",
"$X c #FFF9F9F9",
"%X c #FFFAFAFA",
"&X c #FFFBFBFB",
"*X c #FFFCFCFC",
"=X c #FFFDFDFD",
"-X c #FFFEFEFE",
";X c #FFFFFFFF",
/* pixels */
"                                                                                                                                                                                                                                                                ",
"                                                                                                                                                                                                                                                                ",
"                                                                                                                                                                                                                                                                ",
"                                                                                                                                                                                                                                                                ",
"                                                                                                                                                                                                                                                                ",
"                                                                                                                                                                                                                                                                ",
"                                                                                                                                                                                                                                                                ",
"                                                                                                                                                                                                                                                                ",
"                                                                                                                                                                                                                                                                ",
"                                                                                                                                                                                                                                                                ",
"                                                                                                                                                                                                                                                                ",
"                                                                                                                                                                                                                                                                ",
"                                                              2 v F         s K                                                                                                                                                                                 ",
"                                                        % % % % % % 2 q % % % % > > > q M                                                                                                                                                                       ",
"                                                    v > % % % j s > % % % % % % % % % % > M % 2 s V                                                                                                                                                             ",
"                                                .X.X].M.) 2 % 0.].h.v >.#.F > o o o % % % % % % % % > q F                                                                                                                                                       ",
"                                              #X#X.Xb.E.#X1.W E.#X.XK b.#XE.j K  .W v 2 % % % % % % % % % M                                                                                                                                                     ",
"                                              ].].].J.E.#X.XM.#X#X#XJ.M.R.b.#.#X#X#X].M.o.s % % % % % % % > o.                                                                                                                                                  ",
"                                              .X].R.#.M.#X#X0.M.#X#X.X.X.XR.[ b.]..XR..X#XR.V % % % % % % % [                                                                                                                                                   ",
"                                                #X#XJ.R.#X#X>.b.#X.X#.R.#X].) h.R.R. .b.#X#Xh.> % % % % % >       % 2 F                                                                                                                                         ",
"                                                  .X#X#X#X].M.#X#X.XF b.#X].R.#X#X#X.X.X#X#XR.2 % % % % > > > % % % % % > 2 s W                                                                                                                                 ",
"                                                              #X#X].V M.#X].E.#X#X.X]..X#X#Xh.> % j 0.#.s > % % % % % % % % % q v % > v K                                                                                                                       ",
"                                                                      ].#X].y.#X#XR.K 1.J.1.v % % #.#X#XM.b.y.) > % % % o % % % % % % % % q )       % % % > s M                                                                                                 ",
"                                                                          E.  .X#X.XE.]..XE.0.2 % 0.#X.X]..X#X].F >.y.>.K q % % % % % % s s 2 2 o % % % % % % % % 2 v                                                                                           ",
"                                                                                  .X#X#X#X#XM.2 %   #X.X .E.#X].M.#X#X#X#XR.) % % 2 > o o.E.h.W V q % % % % % % % % 2                                                                                           ",
"                                                                                        .X.X              .X#X.X.X#X#X0.y.#X.XK [ J.y.M o.#X#Xh..XE.) % % % % % % % 2                 j                                                                         ",
"                                                                                                          #X#X.XR.#X.XM j ].#XM.R.#X#XE.M.#X.Xh..X#X>.o % % % % % % > j % 2 s > % % % % > 2 v                                                                   ",
"                                                                                                          #X#X].>..X#X1.[ .X#X].].#X.XR..X#X.Xh..X#X#.% 2 2 % % % % [ ) v 2 % % % % % % % % % V   % s F                                                         ",
"                                                                                                                    #X#X.X#X#XJ.R.#XE.j 0.#X.Xh..X#X1.#.R.J.y.W 2 % b.#X].M.j % > 2 % o % % % % % % % % > M                                                     ",
"                                                                                                                        .X.X.X1.E.#XR.2 o.#X.Xh..X#XJ..X#X.XE..Xb.j h.#X#X#X .o  .J.1.W s % % % % % % % o j                                                     ",
"                                                                                                                                #X#XR.2 >.#X.Xh..X#X].]..XE.h.].#Xy.b.#X#X#XM.j J.#X#X#X0.% % % % % % o o 2 j % % % % % % 2 v [                                 ",
"                                                                                                                                          #X.Xh..X#XR.R.E.b.h..X#X].E.#X#X#X].y..X#X#X#Xy.% % > K 1.1.[ v > o % % % % % % % % > F                               ",
"                                                                                                                                                .X#Xy.R.#XR.>.].#X.X.X#X.X].#X#X#X#X#X#Xy.% % W .X#X#X#X.Xb.F % % % % % % % % % % )                             ",
"                                                                                                                                                        .X#X#X#X#XJ.J.#X.X0..X#X#X].#X#Xy.% % y.#X#X#X.X#X#X].) % % % % % % % % % s h.                          ",
"                                                                                                                                                              .X.X  E.#X.XW J.#X].1..X#Xy.% > b.#X#X0.V #..X#XE.j % % % % % % % % > >.                          ",
"                                                                                                                                                                      .X.XK h.#Xh.W .X#Xy.% > h.#X#XW o % 1.#X#X[ o % % % % % % % > #.                          ",
"                                                                                                                                                                              #X#. ..X#Xy.% % o.#X#X0.2 % #.#X#X>.% % % % % % % % > >.                          ",
"                                                                                                                                                                                      #Xh.%     #X#X#XM.0.E.#X#X>.% % % % % % % % j                             ",
"                                                                                                                                                                                                  #X#X#X#X#X#X#X) o % % % % % % >                               ",
"                                                                                                                                                                                                      #X.X.X#XR.s % %                                           ",
"                                                                                                                                                                                                                                                                ",
"                                                                                                                                                                                                                                                                ",
"                                                                                                                                                                                                                                                                ",
"                                                                                                                                                                                                                                                                ",
"                                                                                                                                                                                                                                                                ",
"                                                                                                                                                                                                                                                                ",
"                                                                                                                                                                                                                                                                ",
"                                                                                                                                                                                                                                                                ",
"                                                                                                                                                                                                                                                                ",
"                                                                                                                                                                                                                                                                ",
"                                                                                                                                                                                                                                                                ",
"                                                                                                                                                                                                                                                                ",
"                                                                                                                                                                                                                                                                ",
"                                                                                                                                                                                                                                                                "
};
