/* XPM */
static char *oms_235[] = {
/* columns rows colors chars-per-pixel */
"128 54 196 2 ",
"   c #00000000",
".  c #FF0B0B0B",
"X  c #FF0C0C0C",
"o  c #FF0D0D0D",
"O  c #FF0E0E0E",
"+  c #FF0F0F0F",
"@  c #FF101010",
"#  c #FF111111",
"$  c #FF121212",
"%  c #FF131313",
"&  c #FF141414",
"*  c #FF151515",
"=  c #FF161616",
"-  c #FF171717",
";  c #FF181818",
":  c #FF191919",
">  c #FF1A1A1A",
",  c #FF1B1B1B",
"<  c #FF1C1C1C",
"1  c #FF1D1D1D",
"2  c #FF1E1E1E",
"3  c #FF1F1F1F",
"4  c #FF202020",
"5  c #FF212121",
"6  c #FF222222",
"7  c #FF232323",
"8  c #FF242424",
"9  c #FF252525",
"0  c #FF262626",
"q  c #FF272727",
"w  c #FF282828",
"e  c #FF292929",
"r  c #FF2A2A2A",
"t  c #FF2B2B2B",
"y  c #FF2C2C2C",
"u  c #FF2D2D2D",
"i  c #FF2E2E2E",
"p  c #FF2F2F2F",
"a  c #FF303030",
"s  c #FF323232",
"d  c #FF333333",
"f  c #FF343434",
"g  c #FF353535",
"h  c #FF363636",
"j  c #FF373737",
"k  c #FF393939",
"l  c #FF3A3A3A",
"z  c #FF3C3C3C",
"x  c #FF3D3D3D",
"c  c #FF3E3E3E",
"v  c #FF3F3F3F",
"b  c #FF404040",
"n  c #FF424242",
"m  c #FF444444",
"M  c #FF454545",
"N  c #FF464646",
"B  c #FF474747",
"V  c #FF484848",
"C  c #FF494949",
"Z  c #FF4A4A4A",
"A  c #FF4B4B4B",
"S  c #FF505050",
"D  c #FF515151",
"F  c #FF525252",
"G  c #FF535353",
"H  c #FF545454",
"J  c #FF565656",
"K  c #FF595959",
"L  c #FF5B5B5B",
"P  c #FF5E5E5E",
"I  c #FF616161",
"U  c #FF636363",
"Y  c #FF646464",
"T  c #FF656565",
"R  c #FF666666",
"E  c #FF6A6A6A",
"W  c #FF6B6B6B",
"Q  c #FF6C6C6C",
"!  c #FF6D6D6D",
"~  c #FF6E6E6E",
"^  c #FF6F6F6F",
"/  c #FF707070",
"(  c #FF717171",
")  c #FF727272",
"_  c #FF747474",
"`  c #FF767676",
"'  c #FF777777",
"]  c #FF7B7B7B",
"[  c #FF7C7C7C",
"{  c #FF808080",
"}  c #FF818181",
"|  c #FF828282",
" . c #FF848484",
".. c #FF858585",
"X. c #FF878787",
"o. c #FF888888",
"O. c #FF898989",
"+. c #FF8A8A8A",
"@. c #FF8B8B8B",
"#. c #FF8C8C8C",
"$. c #FF8D8D8D",
"%. c #FF8E8E8E",
"&. c #FF8F8F8F",
"*. c #FF929292",
"=. c #FF949494",
"-. c #FF959595",
";. c #FF979797",
":. c #FF989898",
">. c #FF999999",
",. c #FF9B9B9B",
"<. c #FF9D9D9D",
"1. c #FF9F9F9F",
"2. c #FFA1A1A1",
"3. c #FFA5A5A5",
"4. c #FFA7A7A7",
"5. c #FFA8A8A8",
"6. c #FFA9A9A9",
"7. c #FFAAAAAA",
"8. c #FFABABAB",
"9. c #FFACACAC",
"0. c #FFADADAD",
"q. c #FFAEAEAE",
"w. c #FFB0B0B0",
"e. c #FFB2B2B2",
"r. c #FFB4B4B4",
"t. c #FFB5B5B5",
"y. c #FFB6B6B6",
"u. c #FFB7B7B7",
"i. c #FFBBBBBB",
"p. c #FFBDBDBD",
"a. c #FF808080",
"s. c #FFBFBFBF",
"d. c #FFC0C0C0",
"f. c #FFC1C1C1",
"g. c #FFC2C2C2",
"h. c #FFC3C3C3",
"j. c #FFC4C4C4",
"k. c #FFC5C5C5",
"l. c #FFC6C6C6",
"z. c #FFC7C7C7",
"x. c #FFC8C8C8",
"c. c #FFC9C9C9",
"v. c #FFCACACA",
"b. c #FFCBCBCB",
"n. c #FFCCCCCC",
"m. c #FFCDCDCD",
"M. c #FFCECECE",
"N. c #FFCFCFCF",
"B. c #FFD0D0D0",
"V. c #FFD1D1D1",
"C. c #FFD2D2D2",
"Z. c #FFD3D3D3",
"A. c #FFD4D4D4",
"S. c #FFD5D5D5",
"D. c #FFD6D6D6",
"F. c #FFD7D7D7",
"G. c #FFD8D8D8",
"H. c #FFD9D9D9",
"J. c #FFDADADA",
"K. c #FFDBDBDB",
"L. c #FFDCDCDC",
"P. c #FFDDDDDD",
"I. c #FFDEDEDE",
"U. c #FFDFDFDF",
"Y. c #FFE0E0E0",
"T. c #FFE1E1E1",
"R. c #FFE2E2E2",
"E. c #FFE3E3E3",
"W. c #FFE4E4E4",
"Q. c #FFE6E6E6",
"!. c #FFE6E6E6",
"~. c #FFE7E7E7",
"^. c #FFE8E8E8",
"/. c #FFE9E9E9",
"(. c #FFEAEAEA",
"). c #FFEBEBEB",
"_. c #FFECECEC",
"`. c #FFEDEDED",
"'. c #FFEEEEEE",
"]. c #FFEFEFEF",
"[. c #FFF0F0F0",
"{. c #FFF1F1F1",
"}. c #FFF2F2F2",
"|. c #FFF3F3F3",
" X c #FFF4F4F4",
".X c #FFF5F5F5",
"XX c #FFF6F6F6",
"oX c #FFF7F7F7",
"OX c #FFF8F8F8",
"+X c #FFF9F9F9",
"@X c #FFFAFAFA",
"#X c #FFFBFBFB",
"$X c #FFFCFCFC",
"%X c #FFFDFDFD",
"&X c #FFFEFEFE",
"*X c #FFFFFFFF",
/* pixels */
"                                                                                                                                                                                                                                                                ",
"                                                                                                                                                                                                                                                                ",
"                                                                                                                                                                                                                                                                ",
"                                                                                                                                                                                                                                                                ",
"                                                                                                                                                                                                                                                                ",
"                                                                                                                                                                                                                                                                ",
"                                                                                                                                                                                                                                                                ",
"                                                                                                                                                                                                                                                                ",
"                                                                                                                                                                                                                                                                ",
"                                                                                                                                                                                                                                                                ",
"                                                                                                                                                                            Q n r : $                                                                           ",
"                                                                                                                                                                          n : $ $ $ $ $ $ $ +                                                                   ",
"                                                                                                                                                                        z $ $ $ $ $ $ $ $ : S 1.P.XX                                                            ",
"                                                                                                                                                            n r : $ $ g $ $ $ $ $ $ $ $ z r.XX&X&X&XXX                                                          ",
"                                                                                                                                                          r $ $ $ $ $ $ $ $ $ 4 z : $ r m.&X&X'.XX&X&X                                                          ",
"                                                                                                                                                z 4 $ $ : $ $ $ $ $ + $ $ n 1.V.d.4 $ X.&XXX1.z 3.&X&X                                                          ",
"                                                                                                                                              S $ $ $ $ $ $ $ $ $ g R g $ a.&X&Xm.4 : d.&XV.4 + X.&XXX                                                          ",
"                                                                                                                                              S $ $ $ $ $ $ $ r 7.~.&XO.g ~.&X&Xm.4 4 V.&XV.4 g d.&XXX                                                          ",
"                                                                                                                            V r $ $ $         z + $ $ $ $ $ + n '.&X&Xm.X.XX&X&Xm.4 4 V.&XXXm.P.&XXXXX                                                          ",
"                                                                                                                      S r : $ $ $ $ $ $ $ $ $ 4 n 4 $ $ + $ + n '.&X&XXX'.&XXX&Xm.4 $ r.&X&X&X&X&XXX                                                            ",
"                                                                                                                      4 $ $ $ $ $ $ $ $ 4 S / m.~.V + g / 7.*.R '.&XXX&X&X'.V.&X'.  + / XX&XXXXX                                                                ",
"                                                                                                                      r $ $ $ $ $ $ $ g m.XXd.XX'.V Q P.XX&X&Xa.'.&XV.XX&Xa.r.&X&X                                                                              ",
"                                                                                                                S 4 r : $ $ $ $ $ $ + n '.XXd.XX'.X.'.XXr.'.&XP.'.&X*.V.&XX.7.&XXX                                                                              ",
"                                                                                                              K $ $ $ $ $ $ $ $ $ 4 z S '.XXd.XX'.m.&XXXP.XX&Xm.'.&XO.1.&X                                                                                      ",
"                                                                                                    n 4 : $ $ $ $ $ $ $ $ $ $ $ n d.'.P.XXXXd.XXXXV.~.d.O.'.XX1.~.&X                                                                                            ",
"                                                                                                n r $ $ $ $ $ $ $ $ $ r Q 3.3.V r.&XXX~.&XXXd.XXXXV.XXXXXX&XXX                                                                                                  ",
"                                                                        n 4 $ $         g g $ $ $ $ $ $ $ $ $ $ 4 : Q P.&X&X&Xm.P.&X7.S XXXXd.XXXXd.XXXXXX                                                                                                      ",
"                                                                  / g : $ $ $ $ $ $ : $ $ : z S g $ $ $ : r n 3.d./ '.XX7.P.&X'.'.&XO.z '.XXd.XXXX                                                                                                              ",
"                                                            V : g : $ $ $ $ $ $ + $ $ r X.d.'.&XV.r $ r 7.P.V.&X'.m.&Xm.: 7.&XP.~.&X1.n '.XX                                                                                                                    ",
"                                                          r $ $ $ $ $ $ $ $ $ : z g S P.&XXXXX&XXXn + X.&XXXXX&X'.P.&XP.R P.&X3.V.&X                                                                                                                            ",
"                                                    z 4 $ $ $ $ $ $ $ $ + $ r a.'.*.V.&XP.X.~.&X~.g $ r.&Xm.1.&X~.V.&X&XXX&XXX                                                                                                                                  ",
"                                                  / + $ $ $ $ $ $ $ $ 4 R 1.K ~.~.1.a.V.P.P.&X&X1.$ : 7.m.Q X.&X~.3.XXXXXX                                                                                                                                      ",
"                                                  z $ $ $ $ $ $ $ $ + Q &XXXO.m.~.X.*.XX&X&X'.a.O.V $ g : + O.&XXX                                                                                                                                              ",
"                                          n 4 $ g $ $ $ $ $ $ $ $ $ $ *.&X&X'.XX&Xr.'.&X~.X.m.'.XX                                                                                                                                                              ",
"                                      K : $ $ $ $ $ $ $ $ $ : S O.O.K P.&X&X~.XXXXV.XX&XP.7.XX&XXX                                                                                                                                                              ",
"                                    X.$ $ $ $ $ $ $ $ $ $ n a.XX&X&Xm.V.&XXX[ '.&Xm.XX&X&X&XXXXX                                                                                                                                                                ",
"                                    V $ $ $ $ $ $ $ $ $ r m.&Xa.~.&Xd.O.&X'.Q '.&Xr.~.XXXXXX                                                                                                                                                                    ",
"                                    n $ $ $ $ $ $ $ $ + R &XXXP.'.&XV.m.&X~.R '.&X                                                                                                                                                                              ",
"                                    n $ $ $ $ $ $ $ $ $ [ '.V.X.V.&Xr.~.&X'.                                                                                                                                                                                    ",
"                                    S $ $ $ $ $ $ $ $ $ Q '.XX'.XXXX                                                                                                                                                                                            ",
"                                                $ $ $ + R XX&XXXXX                                                                                                                                                                                              ",
"                                                                                                                                                                                                                                                                ",
"                                                                                                                                                                                                                                                                ",
"                                                                                                                                                                                                                                                                ",
"                                                                                                                                                                                                                                                                ",
"                                                                                                                                                                                                                                                                ",
"                                                                                                                                                                                                                                                                ",
"                                                                                                                                                                                                                                                                ",
"                                                                                                                                                                                                                                                                ",
"                                                                                                                                                                                                                                                                ",
"                                                                                                                                                                                                                                                                ",
"                                                                                                                                                                                                                                                                ",
"                                                                                                                                                                                                                                                                ",
"                                                                                                                                                                                                                                                                "
};
