/* XPM */
static char *oms_260[] = {
/* columns rows colors chars-per-pixel */
"128 54 143 2 ",
"   c #00000000",
".  c #FF0C0C0C",
"X  c #FF0D0D0D",
"o  c #FF0F0F0F",
"O  c #FF101010",
"+  c #FF111111",
"@  c #FF121212",
"#  c #FF131313",
"$  c #FF141414",
"%  c #FF151515",
"&  c #FF161616",
"*  c #FF171717",
"=  c #FF181818",
"-  c #FF1B1B1B",
";  c #FF1C1C1C",
":  c #FF1D1D1D",
">  c #FF1E1E1E",
",  c #FF1F1F1F",
"<  c #FF202020",
"1  c #FF212121",
"2  c #FF222222",
"3  c #FF232323",
"4  c #FF242424",
"5  c #FF252525",
"6  c #FF262626",
"7  c #FF272727",
"8  c #FF282828",
"9  c #FF292929",
"0  c #FF2A2A2A",
"q  c #FF2C2C2C",
"w  c #FF2E2E2E",
"e  c #FF303030",
"r  c #FF323232",
"t  c #FF333333",
"y  c #FF343434",
"u  c #FF363636",
"i  c #FF373737",
"p  c #FF383838",
"a  c #FF393939",
"s  c #FF3A3A3A",
"d  c #FF3F3F3F",
"f  c #FF434343",
"g  c #FF444444",
"h  c #FF494949",
"j  c #FF4C4C4C",
"k  c #FF505050",
"l  c #FF515151",
"z  c #FF535353",
"x  c #FF545454",
"c  c #FF595959",
"v  c #FF5C5C5C",
"b  c #FF5D5D5D",
"n  c #FF606060",
"m  c #FF616161",
"M  c #FF626262",
"N  c #FF636363",
"B  c #FF656565",
"V  c #FF666666",
"C  c #FF676767",
"Z  c #FF686868",
"A  c #FF6A6A6A",
"S  c #FF6E6E6E",
"D  c #FF717171",
"F  c #FF727272",
"G  c #FF767676",
"H  c #FF787878",
"J  c #FF808080",
"K  c #FF808080",
"L  c #FF818181",
"P  c #FF828282",
"I  c #FF838383",
"U  c #FF848484",
"Y  c #FF878787",
"T  c #FF888888",
"R  c #FF8A8A8A",
"E  c #FF909090",
"W  c #FF919191",
"Q  c #FF929292",
"!  c #FF959595",
"~  c #FF969696",
"^  c #FF979797",
"/  c #FF9C9C9C",
"(  c #FF9F9F9F",
")  c #FFA0A0A0",
"_  c #FFA4A4A4",
"`  c #FFA5A5A5",
"'  c #FFA6A6A6",
"]  c #FFA7A7A7",
"[  c #FFAFAFAF",
"{  c #FFB0B0B0",
"}  c #FFB1B1B1",
"|  c #FFB2B2B2",
" . c #FFB2B2B2",
".. c #FFB5B5B5",
"X. c #FFB6B6B6",
"o. c #FFBCBCBC",
"O. c #FFC1C1C1",
"+. c #FFC2C2C2",
"@. c #FFC3C3C3",
"#. c #FFC4C4C4",
"$. c #FFC5C5C5",
"%. c #FFC6C6C6",
"&. c #FFC7C7C7",
"*. c #FFC9C9C9",
"=. c #FFCACACA",
"-. c #FFCBCBCB",
";. c #FFCCCCCC",
":. c #FFCDCDCD",
">. c #FFCECECE",
",. c #FFD1D1D1",
"<. c #FFD3D3D3",
"1. c #FFD4D4D4",
"2. c #FFD5D5D5",
"3. c #FFD6D6D6",
"4. c #FFD7D7D7",
"5. c #FFD8D8D8",
"6. c #FFDBDBDB",
"7. c #FFDCDCDC",
"8. c #FFDDDDDD",
"9. c #FFDFDFDF",
"0. c #FFE0E0E0",
"q. c #FFE1E1E1",
"w. c #FFE2E2E2",
"e. c #FFE3E3E3",
"r. c #FFE4E4E4",
"t. c #FFE6E6E6",
"y. c #FFE7E7E7",
"u. c #FFE8E8E8",
"i. c #FFE9E9E9",
"p. c #FFEBEBEB",
"a. c #FFEEEEEE",
"s. c #FFEFEFEF",
"d. c #FFF0F0F0",
"f. c #FFF1F1F1",
"g. c #FFF2F2F2",
"h. c #FFF3F3F3",
"j. c #FFF4F4F4",
"k. c #FFF5F5F5",
"l. c #FFF6F6F6",
"z. c #FFF8F8F8",
"x. c #FFF9F9F9",
"c. c #FFFAFAFA",
"v. c #FFFEFEFE",
/* pixels */
"                                                                                                                                                                                                                                                                ",
"                                                                                                                                                                                                                                                                ",
"                                                                                                                                                                                                                                                                ",
"                                                                                                                                                                                                                                                                ",
"                                                                                                                                                                                                                                                                ",
"                                                                                                                                                                                                                                                                ",
"                                                                                                                                                                                                                                                                ",
"                                                                                                                                                                                                                                                                ",
"                                                                                                                                                                                                                                                                ",
"                                                                                                                                                                                                                                                                ",
"                                                                                                                                                                                                                                                                ",
"                                                                                                                                S @                                                                                                                             ",
"                                                                                                                              ! 5 @ @ @ @ @ @ @ @ @ 0 @.                                                                                                        ",
"                                                                                                                              x @ @ @ @ @ @ @ @ @ @ U c.g.                                                                                                      ",
"                                                                                                                          x 5 ; @ @ @ @ @ @ @ @ 5 0 =.c.c.                                                                                                      ",
"                                                                                                                        U ; @ @ @ @ @ @ @ @ o t ) x =./ g.                                                                                                      ",
"                                                                                                                      s ; @ @ @ @ @ @ @ @ @ t J 2.V ] V g.                                                                                                      ",
"                                                                                                                    U @ @ @ @ @ @ @ @ @ @ h @.) 2.S ..U g.                                                                                                      ",
"                                                                                                                    J ; @ @ @ @ @ @ @ @ o V p.=.2.V e.e.g.                                                                                                      ",
"                                                                                                              S @ @ s @ @ @ @ @ @ @ 5 5 o V g.g.2.V g.c.                                                                                                        ",
"                                                                                                            S 5 @ @ @ @ @ @ @ @ @ 0 ] c V / g.g.2.h 5.g.                                                                                                        ",
"                                                                                                            s @ @ @ @ @ @ @ @ @ @ ! p.! e.e.g.e.e.                                                                                                              ",
"                                                                                                            s @ @ @ @ @ @ @ @ @ @ ) g.=.5.p.5.@.5.                                                                                                              ",
"                                                                                                          G 5 @ @ @ @ @ @ @ @ @ 5 ..g.e.p.e.=.@.                                                                                                                ",
"                                                                                                        ! 0 @ @ @ @ @ @ @ @ @ @ ) p.g.e.@.2.e.                                                                                                                  ",
"                                                                                                      f ; @ @ @ @ @ @ @ @ @ x T 2.g.g.p.g.2.                                                                                                                    ",
"                                                                                                    V @ @ @ @ @ @ @ @ @ @ t 2.g.=.@.g.e.g.                                                                                                                      ",
"                                                                                                s t @ @ @ @ @ @ @ t 0 @ c ..2.g.@...g.                                                                                                                          ",
"                                                                                          x @ @ @ @ @ @ @ @ @ o f 2.U c e.p./ e.=...                                                                                                                            ",
"                                                                                        V ; @ @ @ @ @ @ @ @ @ t ..c.! ! c.c...5.e.                                                                                                                              ",
"                                                                                      c @ @ @ @ @ @ @ @ @ @ t o.2.2.! ) 2.g.g.e.                                                                                                                                ",
"                                                                                    S 5 @ @ @ @ @ @ @ @ @ 0 U @.=.p.G T ..5.g.                                                                                                                                  ",
"                                                                                    0 @ @ @ @ @ @ @ @ @ o V =...2.p.V 5 T                                                                                                                                       ",
"                                                                                    0 @ @ @ @ @ @ @ @ @ o G g.e.e.@.@.                                                                                                                                          ",
"                                                                                  s ; @ @ @ @ @ @ @ @ ; S o.g.p.p.5.                                                                                                                                            ",
"                                                                                t @ @ @ @ @ @ @ @ @ @ V g.g.=.e.g.c.                                                                                                                                            ",
"                                                                              U @ @ @ @ @ @ @ @ @ @ @ ) e.=.@.2.p.                                                                                                                                              ",
"                                                                              S @ @ @ @ @ @ @ @ @ @ ; @.p.e.@.5.                                                                                                                                                ",
"                                                                              c @ @ @ @ @ @ @ @ @ @ 5 ..=.g.e.                                                                                                                                                  ",
"                                                                              S @ @ @ @ @ @ @ @ @ @ 5 @.g.                                                                                                                                                      ",
"                                                                              V @ @ @ @ @ @ @ @ @ @ ; @.c.                                                                                                                                                      ",
"                                                                                                                                                                                                                                                                ",
"                                                                                                                                                                                                                                                                ",
"                                                                                                                                                                                                                                                                ",
"                                                                                                                                                                                                                                                                ",
"                                                                                                                                                                                                                                                                ",
"                                                                                                                                                                                                                                                                ",
"                                                                                                                                                                                                                                                                ",
"                                                                                                                                                                                                                                                                ",
"                                                                                                                                                                                                                                                                ",
"                                                                                                                                                                                                                                                                ",
"                                                                                                                                                                                                                                                                ",
"                                                                                                                                                                                                                                                                ",
"                                                                                                                                                                                                                                                                "
};
