/* XPM */
static char *oms_275[] = {
/* columns rows colors chars-per-pixel */
"128 54 84 1 ",
"  c #00000000",
". c #FF0D0D0D",
"X c #FF101010",
"o c #FF111111",
"O c #FF121212",
"+ c #FF131313",
"@ c #FF141414",
"# c #FF151515",
"$ c #FF161616",
"% c #FF171717",
"& c #FF181818",
"* c #FF191919",
"= c #FF1A1A1A",
"- c #FF1B1B1B",
"; c #FF1E1E1E",
": c #FF1F1F1F",
"> c #FF222222",
", c #FF232323",
"< c #FF252525",
"1 c #FF262626",
"2 c #FF272727",
"3 c #FF282828",
"4 c #FF292929",
"5 c #FF2A2A2A",
"6 c #FF2C2C2C",
"7 c #FF2D2D2D",
"8 c #FF2E2E2E",
"9 c #FF303030",
"0 c #FF313131",
"q c #FF333333",
"w c #FF343434",
"e c #FF353535",
"r c #FF363636",
"t c #FF393939",
"y c #FF3A3A3A",
"u c #FF3C3C3C",
"i c #FF3D3D3D",
"p c #FF434343",
"a c #FF464646",
"s c #FF474747",
"d c #FF484848",
"f c #FF4B4B4B",
"g c #FF4C4C4C",
"h c #FF4F4F4F",
"j c #FF535353",
"k c #FF565656",
"l c #FF575757",
"z c #FF5E5E5E",
"x c #FF606060",
"c c #FF636363",
"v c #FF6B6B6B",
"b c #FF6C6C6C",
"n c #FF6D6D6D",
"m c #FF737373",
"M c #FF777777",
"N c #FF7C7C7C",
"B c #FF7E7E7E",
"V c #FF808080",
"C c #FF818181",
"Z c #FF848484",
"A c #FF888888",
"S c #FF8F8F8F",
"D c #FF979797",
"F c #FF999999",
"G c #FF9B9B9B",
"H c #FF9C9C9C",
"J c #FF9D9D9D",
"K c #FFA2A2A2",
"L c #FFA3A3A3",
"P c #FFADADAD",
"I c #FFAEAEAE",
"U c #FFB2B2B2",
"Y c #FFB6B6B6",
"T c #FFB9B9B9",
"R c #FFBABABA",
"E c #FFC0C0C0",
"W c #FFC3C3C3",
"Q c #FFC7C7C7",
"! c #FFC9C9C9",
"~ c #FFCACACA",
"^ c #FFD4D4D4",
"/ c #FFDBDBDB",
"( c #FFEDEDED",
") c #FFF6F6F6",
/* pixels */
"                                                                                                                                ",
"                                                                                                                                ",
"                                                                                                                                ",
"                                                                                                                                ",
"                                                                                                                                ",
"                                                                                                                                ",
"                                                                                                                                ",
"                                                                                                                                ",
"                                                                                                                                ",
"                                                                                                                                ",
"                                                                                                                                ",
"                                                                                                                                ",
"                                                                                                                                ",
"                                                                                                                                ",
"                                                  g4i :,ws                                                                      ",
"                                                  gw,++ww:+ .s                                                                  ",
"                                                  x,+++w:++++iU                                                                 ",
"                                                  N:+++:+++++4H                                                                 ",
"                                                  D:+++++++++:N                                                                 ",
"                                                  K:++++++++++V                                                                 ",
"                                                  Uw++++++++++v                                                                 ",
"                                                  ^x++++++++++iU                                                                ",
"                                                  (M++++++++++wP                                                                ",
"                                                  )A++++++++++4P                                                                ",
"                                                   K++++++++++:A                                                                ",
"                                                   T,++++++++++v                                                                ",
"                                                   ~i++++++++++j                                                                ",
"                                                   /M:+++++++++iH                                                               ",
"                                                    Uw++++++++++j                                                               ",
"                                                    Eg++++++++++g                                                               ",
"                                                    Ez++++++++++g                                                               ",
"                                                    ~v+++++++++:i                                                               ",
"                                                    ^V++::++++++wE                                                              ",
"                                                     H++++++++++4H                                                              ",
"                                                     E,++++++++++V                                                              ",
"                                                     T4++++++++++V                                                              ",
"                                                     E4++++++++++V                                                              ",
"                                                     Ei:++,:,,++                                                                ",
"                                                      s4:+,,4w                                                                  ",
"                                                       j    j                                                                   ",
"                                                                                                                                ",
"                                                                                                                                ",
"                                                                                                                                ",
"                                                                                                                                ",
"                                                                                                                                ",
"                                                                                                                                ",
"                                                                                                                                ",
"                                                                                                                                ",
"                                                                                                                                ",
"                                                                                                                                ",
"                                                                                                                                ",
"                                                                                                                                ",
"                                                                                                                                ",
"                                                                                                                                "
};
