/* XPM */
static char *oms_117[] = {
/* columns rows colors chars-per-pixel */
"128 54 177 2 ",
"   c #00000000",
".  c #FF0F0F0F",
"X  c #FF101010",
"o  c #FF111111",
"O  c #FF121212",
"+  c #FF131313",
"@  c #FF141414",
"#  c #FF151515",
"$  c #FF161616",
"%  c #FF171717",
"&  c #FF181818",
"*  c #FF191919",
"=  c #FF1A1A1A",
"-  c #FF1B1B1B",
";  c #FF1C1C1C",
":  c #FF1D1D1D",
">  c #FF1E1E1E",
",  c #FF1F1F1F",
"<  c #FF202020",
"1  c #FF212121",
"2  c #FF222222",
"3  c #FF242424",
"4  c #FF252525",
"5  c #FF262626",
"6  c #FF272727",
"7  c #FF292929",
"8  c #FF2A2A2A",
"9  c #FF2C2C2C",
"0  c #FF2D2D2D",
"q  c #FF2F2F2F",
"w  c #FF303030",
"e  c #FF323232",
"r  c #FF333333",
"t  c #FF343434",
"y  c #FF353535",
"u  c #FF363636",
"i  c #FF373737",
"p  c #FF383838",
"a  c #FF393939",
"s  c #FF3C3C3C",
"d  c #FF3D3D3D",
"f  c #FF3E3E3E",
"g  c #FF3F3F3F",
"h  c #FF424242",
"j  c #FF434343",
"k  c #FF444444",
"l  c #FF464646",
"z  c #FF474747",
"x  c #FF4A4A4A",
"c  c #FF4F4F4F",
"v  c #FF505050",
"b  c #FF515151",
"n  c #FF525252",
"m  c #FF545454",
"M  c #FF565656",
"N  c #FF575757",
"B  c #FF585858",
"V  c #FF595959",
"C  c #FF5B5B5B",
"Z  c #FF5D5D5D",
"A  c #FF5E5E5E",
"S  c #FF636363",
"D  c #FF6B6B6B",
"F  c #FF6C6C6C",
"G  c #FF6D6D6D",
"H  c #FF6E6E6E",
"J  c #FF707070",
"K  c #FF727272",
"L  c #FF737373",
"P  c #FF747474",
"I  c #FF767676",
"U  c #FF787878",
"Y  c #FF7C7C7C",
"T  c #FF7D7D7D",
"R  c #FF808080",
"E  c #FF808080",
"W  c #FF818181",
"Q  c #FF828282",
"!  c #FF848484",
"~  c #FF878787",
"^  c #FF888888",
"/  c #FF898989",
"(  c #FF8A8A8A",
")  c #FF8B8B8B",
"_  c #FF8E8E8E",
"`  c #FF919191",
"'  c #FF929292",
"]  c #FF949494",
"[  c #FF959595",
"{  c #FF969696",
"}  c #FF979797",
"|  c #FF989898",
" . c #FF999999",
".. c #FF9C9C9C",
"X. c #FFA0A0A0",
"o. c #FFA3A3A3",
"O. c #FFA4A4A4",
"+. c #FFA6A6A6",
"@. c #FFA7A7A7",
"#. c #FFA9A9A9",
"$. c #FFAAAAAA",
"%. c #FFABABAB",
"&. c #FFACACAC",
"*. c #FFADADAD",
"=. c #FFAFAFAF",
"-. c #FFB1B1B1",
";. c #FFB2B2B2",
":. c #FFB2B2B2",
">. c #FFB6B6B6",
",. c #FFB7B7B7",
"<. c #FFB8B8B8",
"1. c #FFB9B9B9",
"2. c #FFBABABA",
"3. c #FFBBBBBB",
"4. c #FFBDBDBD",
"5. c #FF808080",
"6. c #FFBFBFBF",
"7. c #FFC0C0C0",
"8. c #FFC1C1C1",
"9. c #FFC2C2C2",
"0. c #FFC3C3C3",
"q. c #FFC4C4C4",
"w. c #FFC5C5C5",
"e. c #FFC6C6C6",
"r. c #FFC8C8C8",
"t. c #FFCACACA",
"y. c #FFCBCBCB",
"u. c #FFCCCCCC",
"i. c #FFCDCDCD",
"p. c #FFCECECE",
"a. c #FFCFCFCF",
"s. c #FFD0D0D0",
"d. c #FFD1D1D1",
"f. c #FFD2D2D2",
"g. c #FFD3D3D3",
"h. c #FFD4D4D4",
"j. c #FFD5D5D5",
"k. c #FFD6D6D6",
"l. c #FFD7D7D7",
"z. c #FFD8D8D8",
"x. c #FFD9D9D9",
"c. c #FFDADADA",
"v. c #FFDBDBDB",
"b. c #FFDCDCDC",
"n. c #FFDEDEDE",
"m. c #FFDFDFDF",
"M. c #FFE0E0E0",
"N. c #FFE1E1E1",
"B. c #FFE2E2E2",
"V. c #FFE4E4E4",
"C. c #FFE6E6E6",
"Z. c #FFE6E6E6",
"A. c #FFE7E7E7",
"S. c #FFE8E8E8",
"D. c #FFE9E9E9",
"F. c #FFEAEAEA",
"G. c #FFEBEBEB",
"H. c #FFECECEC",
"J. c #FFEDEDED",
"K. c #FFEEEEEE",
"L. c #FFEFEFEF",
"P. c #FFF0F0F0",
"I. c #FFF1F1F1",
"U. c #FFF2F2F2",
"Y. c #FFF3F3F3",
"T. c #FFF4F4F4",
"R. c #FFF5F5F5",
"E. c #FFF6F6F6",
"W. c #FFF7F7F7",
"Q. c #FFF8F8F8",
"!. c #FFF9F9F9",
"~. c #FFFAFAFA",
"^. c #FFFBFBFB",
"/. c #FFFCFCFC",
"(. c #FFFDFDFD",
"). c #FFFEFEFE",
"_. c #FFFFFFFF",
/* pixels */
"                                                                                                                                                                                                                                                                ",
"                                                                                                                                                                                                                                                                ",
"                                                                                                                                                                                                                                                                ",
"                                                                                                                                                                                                                                                                ",
"                                                                                                                                                                                                                                                                ",
"                                                                                                                                                                                                                                                                ",
"                                                                                                                                                                                                                                                                ",
"                                                                                                                                                                                                                                                                ",
"                                                                                                                                                                                                                                                                ",
"                                                                                                                                                                                                                                                                ",
"                                                                                                                                                                                                                                                                ",
"                                                                                                                                                                                                                                                                ",
"                                                                                                      p                                                                                                                                                         ",
"                                                                                        - 9 X X X X X X - X X 1 r p ~                                                                                                                                           ",
"                                                                                  !.d.b 9 1.K b r X X X X X X X X X r                                                                                                                                           ",
"                                                                                !.R.N.d.K L.1.9.u.9 9 X X X X X X X X X X r K                                                                                                                                   ",
"                                                                                  L.m.R.u.!.m.9.u.-.N.$.z X X X X X X X X X - K                                                                                                                                 ",
"                                                                                R.m.1.R.u.L.!.R.d.u.!.!.N.A X X X X X X X X X r 1.                                                                                                                              ",
"                                                                                  R.d.R.$.m.N.L.N.T u.$.L.9.- X X X X X X X X - O.                                                                                                                              ",
"                                                                                  R.!.R.u.R.1.9.L.N.R.d.R.N.r X X X X X X X X - [                                                                                                                               ",
"                                                                                          !.-.9.!.!.!.!.!.N.p - 1 X X X X X X X 1 X - G                                                                                                                         ",
"                                                                                          !.-.d.R.L.R.-.N.1.- A u.b 1 X X X X X X X X X 1 K                                                                                                                     ",
"                                                                                                m.u.R.$.u.T X ( !.N.u.z - X X X X X X X X 1 1 r ~                                                                                                               ",
"                                                                                                    R.!.!.L.r ( !.N.!...1...p X X X 1 - X X X X 1 p X X X 1 G                                                                                                   ",
"                                                                                                      R.!.m.1 z 9.$.R.d.!.!.d.r X X K -.x - X X X X X X X X - 9 K                                                                                               ",
"                                                                                                                    R.N.R.$.L.....( ( R.d.$.1 X X X X X X X X . z                                                                                               ",
"                                                                                                                    R.d.R.A 9.N.L.R.u.R.N.N.r X X X X X X X X X z                                                                                               ",
"                                                                                                                    R.-.R.O.m.L.L.R.R.R.m.N.r . X X 9 1 X X X X 1 r X X X X b                                                                                   ",
"                                                                                                                        R.!.!.N.L.1.O.R.m.N.K [ x X T 9.A X X X X X X X X X X x                                                                                 ",
"                                                                                                                          R.!.9.L.$.T R.m.L.d.!.L.K ~ !.u.1 z 1 X X X X X X X X - - b                                                                           ",
"                                                                                                                                !.$.~ R.m.L.N.L.d.m.O.!.N.b d.u.b X X X X X X X X X X A                                                                         ",
"                                                                                                                                    u.R.m.L.d.N.N.R.d.!.R...L.!.[ X X - X X X X X X X z                                                                         ",
"                                                                                                                                        L.N.d.d.$.R.N.!.!.N.!.!.[ . b 1.( r X X X X X X X X X - z                                                               ",
"                                                                                                                                            9.R.L.R.m.R.L.!.!.!.[ - 1.!.!.d.p X X X X X X X X X X z                                                             ",
"                                                                                                                                                !.L.1.R.9.R.R.!.[ 1 m.!.R.!.-.- X X X X X X X X X X (                                                           ",
"                                                                                                                                                      R...L.9.R.[ 9 m.m.S u.R.z X X X X X X X X X . A                                                           ",
"                                                                                                                                                          N.( R.[ 1 m.u.- K !.G X X X X X X X X X X z                                                           ",
"                                                                                                                                                              !.[ - 1.L.p G !.~ X X X X X X X X X X z                                                           ",
"                                                                                                                                                                    1.!.d.d.!.~ X X X X X X X X X X z                                                           ",
"                                                                                                                                                                      R.!.!.!.G X X X X X X X X X X A                                                           ",
"                                                                                                                                                                        R.!.N.p X X X X X X X X X - (                                                           ",
"                                                                                                                                                                                                                                                                ",
"                                                                                                                                                                                                                                                                ",
"                                                                                                                                                                                                                                                                ",
"                                                                                                                                                                                                                                                                ",
"                                                                                                                                                                                                                                                                ",
"                                                                                                                                                                                                                                                                ",
"                                                                                                                                                                                                                                                                ",
"                                                                                                                                                                                                                                                                ",
"                                                                                                                                                                                                                                                                ",
"                                                                                                                                                                                                                                                                ",
"                                                                                                                                                                                                                                                                ",
"                                                                                                                                                                                                                                                                ",
"                                                                                                                                                                                                                                                                "
};
