/* XPM */
static char *oms_209[] = {
/* columns rows colors chars-per-pixel */
"128 54 211 2 ",
"   c #00000000",
".  c #FF0C0C0C",
"X  c #FF0D0D0D",
"o  c #FF0E0E0E",
"O  c #FF0F0F0F",
"+  c #FF101010",
"@  c #FF111111",
"#  c #FF121212",
"$  c #FF131313",
"%  c #FF141414",
"&  c #FF151515",
"*  c #FF161616",
"=  c #FF171717",
"-  c #FF181818",
";  c #FF191919",
":  c #FF1A1A1A",
">  c #FF1B1B1B",
",  c #FF1C1C1C",
"<  c #FF1D1D1D",
"1  c #FF1E1E1E",
"2  c #FF1F1F1F",
"3  c #FF202020",
"4  c #FF212121",
"5  c #FF222222",
"6  c #FF232323",
"7  c #FF242424",
"8  c #FF252525",
"9  c #FF262626",
"0  c #FF272727",
"q  c #FF282828",
"w  c #FF292929",
"e  c #FF2A2A2A",
"r  c #FF2B2B2B",
"t  c #FF2D2D2D",
"y  c #FF2E2E2E",
"u  c #FF2F2F2F",
"i  c #FF303030",
"p  c #FF313131",
"a  c #FF323232",
"s  c #FF333333",
"d  c #FF343434",
"f  c #FF363636",
"g  c #FF373737",
"h  c #FF383838",
"j  c #FF393939",
"k  c #FF3A3A3A",
"l  c #FF3B3B3B",
"z  c #FF3C3C3C",
"x  c #FF3D3D3D",
"c  c #FF3E3E3E",
"v  c #FF3F3F3F",
"b  c #FF414141",
"n  c #FF424242",
"m  c #FF434343",
"M  c #FF464646",
"N  c #FF474747",
"B  c #FF484848",
"V  c #FF4A4A4A",
"C  c #FF4B4B4B",
"Z  c #FF4C4C4C",
"A  c #FF4C4C4C",
"S  c #FF4E4E4E",
"D  c #FF4F4F4F",
"F  c #FF505050",
"G  c #FF515151",
"H  c #FF525252",
"J  c #FF535353",
"K  c #FF545454",
"L  c #FF555555",
"P  c #FF565656",
"I  c #FF575757",
"U  c #FF585858",
"Y  c #FF5A5A5A",
"T  c #FF5C5C5C",
"R  c #FF5E5E5E",
"E  c #FF5F5F5F",
"W  c #FF606060",
"Q  c #FF616161",
"!  c #FF626262",
"~  c #FF636363",
"^  c #FF646464",
"/  c #FF656565",
"(  c #FF666666",
")  c #FF676767",
"_  c #FF686868",
"`  c #FF696969",
"'  c #FF6B6B6B",
"]  c #FF6D6D6D",
"[  c #FF6E6E6E",
"{  c #FF707070",
"}  c #FF717171",
"|  c #FF737373",
" . c #FF747474",
".. c #FF757575",
"X. c #FF767676",
"o. c #FF777777",
"O. c #FF787878",
"+. c #FF797979",
"@. c #FF7A7A7A",
"#. c #FF7B7B7B",
"$. c #FF7C7C7C",
"%. c #FF7D7D7D",
"&. c #FF7E7E7E",
"*. c #FF808080",
"=. c #FF808080",
"-. c #FF828282",
";. c #FF838383",
":. c #FF848484",
">. c #FF868686",
",. c #FF878787",
"<. c #FF888888",
"1. c #FF898989",
"2. c #FF8A8A8A",
"3. c #FF8B8B8B",
"4. c #FF8C8C8C",
"5. c #FF8D8D8D",
"6. c #FF8F8F8F",
"7. c #FF909090",
"8. c #FF939393",
"9. c #FF969696",
"0. c #FF979797",
"q. c #FF989898",
"w. c #FF9A9A9A",
"e. c #FF9B9B9B",
"r. c #FF9C9C9C",
"t. c #FF9D9D9D",
"y. c #FF9F9F9F",
"u. c #FFA1A1A1",
"i. c #FFA2A2A2",
"p. c #FFA3A3A3",
"a. c #FFA5A5A5",
"s. c #FFA6A6A6",
"d. c #FFA7A7A7",
"f. c #FFA8A8A8",
"g. c #FFA9A9A9",
"h. c #FFAAAAAA",
"j. c #FFB0B0B0",
"k. c #FFB1B1B1",
"l. c #FFB2B2B2",
"z. c #FFB2B2B2",
"x. c #FFB4B4B4",
"c. c #FFB5B5B5",
"v. c #FFB6B6B6",
"b. c #FFB7B7B7",
"n. c #FFB8B8B8",
"m. c #FFB9B9B9",
"M. c #FFBABABA",
"N. c #FFBBBBBB",
"B. c #FFBCBCBC",
"V. c #FFBDBDBD",
"C. c #FF808080",
"Z. c #FFC0C0C0",
"A. c #FFC1C1C1",
"S. c #FFC2C2C2",
"D. c #FFC3C3C3",
"F. c #FFC4C4C4",
"G. c #FFC5C5C5",
"H. c #FFC6C6C6",
"J. c #FFC7C7C7",
"K. c #FFC8C8C8",
"L. c #FFC9C9C9",
"P. c #FFCACACA",
"I. c #FFCBCBCB",
"U. c #FFCCCCCC",
"Y. c #FFCDCDCD",
"T. c #FFCFCFCF",
"R. c #FFD0D0D0",
"E. c #FFD2D2D2",
"W. c #FFD3D3D3",
"Q. c #FFD4D4D4",
"!. c #FFD5D5D5",
"~. c #FFD6D6D6",
"^. c #FFD7D7D7",
"/. c #FFD8D8D8",
"(. c #FFD9D9D9",
"). c #FFDADADA",
"_. c #FFDBDBDB",
"`. c #FFDCDCDC",
"'. c #FFDDDDDD",
"]. c #FFDEDEDE",
"[. c #FFDFDFDF",
"{. c #FFE0E0E0",
"}. c #FFE1E1E1",
"|. c #FFE2E2E2",
" X c #FFE3E3E3",
".X c #FFE4E4E4",
"XX c #FFE6E6E6",
"oX c #FFE6E6E6",
"OX c #FFE7E7E7",
"+X c #FFE8E8E8",
"@X c #FFE9E9E9",
"#X c #FFEBEBEB",
"$X c #FFECECEC",
"%X c #FFEDEDED",
"&X c #FFEEEEEE",
"*X c #FFEFEFEF",
"=X c #FFF0F0F0",
"-X c #FFF1F1F1",
";X c #FFF2F2F2",
":X c #FFF3F3F3",
">X c #FFF4F4F4",
",X c #FFF5F5F5",
"<X c #FFF6F6F6",
"1X c #FFF7F7F7",
"2X c #FFF8F8F8",
"3X c #FFF9F9F9",
"4X c #FFFAFAFA",
"5X c #FFFBFBFB",
"6X c #FFFCFCFC",
"7X c #FFFDFDFD",
"8X c #FFFEFEFE",
/* pixels */
"                                                                                                                                                                                                                                                                ",
"                                                                                                                                                                                                                                                                ",
"                                                                                                                                                                                                                                                                ",
"                                                                                                                                                                                                                                                                ",
"                                                                                                                                                                                                                                                                ",
"                                                                                                                                                                                                                                                                ",
"                                                                                                                                                                                                                                                                ",
"                                                                                                                                                                                                                                                                ",
"                                                                                                                                                                                                                                                                ",
"                                                                                                                                                                                                                                                                ",
"                                                                                                                                                                                                                                                                ",
"                                                                                                                                                                                                                                                                ",
"                                                                                                                                                                                                                  L B k s k                                     ",
"                                                                                                                                                                                                            L u : $ $ $ $ $ $ :                                 ",
"                                                                                                                                                                                        Y M k s 0         s $ $ $ $ $ $ $ $ O O O                               ",
"                                                                                                                                                                            B s       u $ $ $ $ $ $     M $ $ $ $ $ $ : s B ( [ (                               ",
"                                                                                                                                                                      s : $ $ $ $   L $ $ $ $ $ $ O O   : $ $ $ $ s <.I.XX=X3X3X3X+X                            ",
"                                                                                                                                                                      0 $ $ $ $ $ $ $ O $ $ $ u B ( >.s.M $ $ $ Y _.3X3X3X3X3X3X3X3X=X                          ",
"                                                                                                                                  L k s 0 0 : : $ $                   0 $ $ $ 0 s B ( | 0 $ u I.=X3X3X=XY O $ s _.3X3X=Xg.| &.XX3X3X3X                          ",
"                                                                                                                                  0 $ $ $ $ $ $ $ $ $ 0 u : : $ : $ k 0 $ $ : x.XX=X3X3X&.O &.3X3X3X3X3X( O O | 3X3X3Xy.$ O O s.3X3X3X                          ",
"                                                                                                                                  : $ $ $ $ O $ $ : u M Y s $ $ $ $ $ $ O $ 0 _.3X3X3X3X_.M I.3X3X3X3X3XC.O $ <.3X3X3X>.$ $ k !.3X3X3X                          ",
"                                                                                                                        ( s u 0 k : $ $ $ u &.y.x.8._.+X3X| O $ : u M L L s 0 _.3X3X3X3X3X!.=X3X3X3X3X=X    O >.3X3X3X+Xg.g._.3X3X3X=X                          ",
"                                                                                                        L M u u 0 :   L : $ $ $ $ $ $ $ O ( 3X3X3XC.=X3X3X[ : | C.XX=X=X=X_.| !.3X3X=X3X3X3X3X=X!.3X3X=X        =X3X3X3X3X3X3X3X3X=X                            ",
"                                                          ( M k u u 0 :                     B k 0   k : $ $ $ $ $ $ : : $ $ $ $ $ $ : 0 $ Y =X3X=XC.=X3X3X&.s.3X3X!.C.=X3X3X!.XX3X3XXXI.3X3X3XC.8.3X3X=X          =X3X3X3X=X=X=X                                ",
"                                              Y k     k 0 $ $ $ $ $ $ $ $ $       k 0 : s : $ $ $ $ $ $ $ $ $ $ $ $ $ : 0 0 $ $ 0 &.J.!.C.g.=X3X=XC.=X3X=Xx.=X3X3X_._.=X3X3X_.XX3X3X_.[ +X3X3X| <.3X3X=X                                                        ",
"                                          M : $ $ $ : $ $ $ $ $ $ $ $ O $ : 0 B M $ $ $ $ $ $ $ $ $ $ $ $ : $ : M >.x.I.!.!.g.k <.3X3X3X3X3X3X3X=XC.=X3X=XI.XXXX_.y.>.XX3X3Xx._.3X3X=X  I.3X=X    3X                                                            ",
"                                B 0 : $ : : $ $ $ $ $ $ $ $ $ $ $ 0 B &.s.J.!._.!.s.u $ $ $ $ s M u B <.s.g.s y.+X3X3X=X3X3X3XJ._.3X3XXXY y.3X3X=XC.=X3X=XI.+X=X=X_.XX3X3X=X  _.3X=X                                                                            ",
"                                s $ $ $ $ $ $ $ $ O $ u [ <.y.k L J.=X3X3X=X3X3X3X3X| O $ : <.XX=X!._.3X3XXXs.3X3X+X| L _.3X3X=X=X3X3XJ.$ Y 3X3X=XC.=X3X3XXX=X3X3X3X3X=X                                                                                        ",
"                    B k       M $ $ $ $ $ $ : k L | k &.3X3X+X| _.3X=X+Xy.>.+X3X3X3X&.O $ Y =X3X3XXX=X3X3X+XXX3X3X_.u u !.3X3XI.XX3X3XXX$ ( =X3X=XJ.=X3X=X                                                                                                      ",
"              M 0 : $ $ $ $ : : $ $ $ $ $ O B +X=X3X&.| _.!.I.| y.x.!.XX!.XX3X3X3X=X  O O <.3X3X=XY C.3X3X+X_.3X3X=XC.J.=X3X=X>._.3X3X3X                                                                                                                        ",
"            s $ $ $ $ $ $ $ $ O $ $ : : $ : <.=X3X3XXX_.=X=X+X( s.+X3X3X3X3X=XXXx.8.        3XC.[ : x.3X3X+XJ.=X3X3X3X3X3X=X                                                                                                                                    ",
"          ( $ $ $ $ $ $ $ $ s [ y.C.J.J.>.( =X3X3X3X3X+X3X3X+Xx.3X3X3X=Xy.| !._._.+X=X            $ C.3X3X=X                                                                                                                                                    ",
"          Y $ $ $ $ $ $ $ | XX3X+XXX3X3X3Xx.!.3X3X3Xy.y.3X3X+XI.3X3X3X=Xg.C.=X3X3X3X                                                                                                                                                                            ",
"          Y $ $ $ $ $ $ L =X3X=XJ.J.=X3X3Xg.[ =X3X3X[ &.3X3X=Xx.=X3X3X3X3X3X3X3X=X                                                                                                                                                                              ",
"            $ $ $ $ $ $ <.3X=X+XJ.C.=X3X3XJ.I.3X3X3X[ &.3X3X3X    =X=X=X=X                                                                                                                                                                                      ",
"                  $ $ $ &.XXXXXXs.x.=X3X+X8.=X3X=X=X    3X                                                                                                                                                                                                      ",
"                        >.3X3X3X3X3X=X=X                                                                                                                                                                                                                        ",
"                                                                                                                                                                                                                                                                ",
"                                                                                                                                                                                                                                                                ",
"                                                                                                                                                                                                                                                                ",
"                                                                                                                                                                                                                                                                ",
"                                                                                                                                                                                                                                                                ",
"                                                                                                                                                                                                                                                                ",
"                                                                                                                                                                                                                                                                ",
"                                                                                                                                                                                                                                                                ",
"                                                                                                                                                                                                                                                                ",
"                                                                                                                                                                                                                                                                ",
"                                                                                                                                                                                                                                                                ",
"                                                                                                                                                                                                                                                                ",
"                                                                                                                                                                                                                                                                ",
"                                                                                                                                                                                                                                                                ",
"                                                                                                                                                                                                                                                                ",
"                                                                                                                                                                                                                                                                ",
"                                                                                                                                                                                                                                                                "
};
