/* XPM */
static char *oms_064[] = {
/* columns rows colors chars-per-pixel */
"128 54 185 2 ",
"   c #00000000",
".  c #FF0A0A0A",
"X  c #FF0C0C0C",
"o  c #FF0D0D0D",
"O  c #FF0E0E0E",
"+  c #FF0F0F0F",
"@  c #FF101010",
"#  c #FF111111",
"$  c #FF121212",
"%  c #FF131313",
"&  c #FF141414",
"*  c #FF151515",
"=  c #FF161616",
"-  c #FF171717",
";  c #FF181818",
":  c #FF191919",
">  c #FF1A1A1A",
",  c #FF1C1C1C",
"<  c #FF1D1D1D",
"1  c #FF1E1E1E",
"2  c #FF1F1F1F",
"3  c #FF202020",
"4  c #FF212121",
"5  c #FF222222",
"6  c #FF232323",
"7  c #FF242424",
"8  c #FF252525",
"9  c #FF262626",
"0  c #FF272727",
"q  c #FF292929",
"w  c #FF2A2A2A",
"e  c #FF2B2B2B",
"r  c #FF2C2C2C",
"t  c #FF2F2F2F",
"y  c #FF323232",
"u  c #FF353535",
"i  c #FF363636",
"p  c #FF393939",
"a  c #FF3A3A3A",
"s  c #FF3B3B3B",
"d  c #FF3C3C3C",
"f  c #FF3D3D3D",
"g  c #FF3F3F3F",
"h  c #FF404040",
"j  c #FF414141",
"k  c #FF424242",
"l  c #FF434343",
"z  c #FF464646",
"x  c #FF474747",
"c  c #FF484848",
"v  c #FF494949",
"b  c #FF4B4B4B",
"n  c #FF4C4C4C",
"m  c #FF4E4E4E",
"M  c #FF4F4F4F",
"N  c #FF505050",
"B  c #FF515151",
"V  c #FF535353",
"C  c #FF545454",
"Z  c #FF555555",
"A  c #FF575757",
"S  c #FF595959",
"D  c #FF5B5B5B",
"F  c #FF5C5C5C",
"G  c #FF5D5D5D",
"H  c #FF5F5F5F",
"J  c #FF606060",
"K  c #FF616161",
"L  c #FF626262",
"P  c #FF646464",
"I  c #FF656565",
"U  c #FF666666",
"Y  c #FF676767",
"T  c #FF6A6A6A",
"R  c #FF6B6B6B",
"E  c #FF6C6C6C",
"W  c #FF6D6D6D",
"Q  c #FF707070",
"!  c #FF717171",
"~  c #FF737373",
"^  c #FF777777",
"/  c #FF797979",
"(  c #FF7A7A7A",
")  c #FF7B7B7B",
"_  c #FF848484",
"`  c #FF858585",
"'  c #FF868686",
"]  c #FF878787",
"[  c #FF898989",
"{  c #FF8A8A8A",
"}  c #FF8B8B8B",
"|  c #FF8C8C8C",
" . c #FF8D8D8D",
".. c #FF909090",
"X. c #FF929292",
"o. c #FF939393",
"O. c #FF959595",
"+. c #FF969696",
"@. c #FF989898",
"#. c #FF9A9A9A",
"$. c #FF9B9B9B",
"%. c #FF9D9D9D",
"&. c #FF9F9F9F",
"*. c #FFA0A0A0",
"=. c #FFA4A4A4",
"-. c #FFA5A5A5",
";. c #FFA6A6A6",
":. c #FFA7A7A7",
">. c #FFA8A8A8",
",. c #FFA9A9A9",
"<. c #FFAAAAAA",
"1. c #FFABABAB",
"2. c #FFACACAC",
"3. c #FFAEAEAE",
"4. c #FFAFAFAF",
"5. c #FFB0B0B0",
"6. c #FFB2B2B2",
"7. c #FFB4B4B4",
"8. c #FFB5B5B5",
"9. c #FFB6B6B6",
"0. c #FFB7B7B7",
"q. c #FFB8B8B8",
"w. c #FFB9B9B9",
"e. c #FFBCBCBC",
"r. c #FFBDBDBD",
"t. c #FFBFBFBF",
"y. c #FFC0C0C0",
"u. c #FFC1C1C1",
"i. c #FFC2C2C2",
"p. c #FFC3C3C3",
"a. c #FFC4C4C4",
"s. c #FFC5C5C5",
"d. c #FFC6C6C6",
"f. c #FFC7C7C7",
"g. c #FFC8C8C8",
"h. c #FFCBCBCB",
"j. c #FFCCCCCC",
"k. c #FFCDCDCD",
"l. c #FFCECECE",
"z. c #FFCFCFCF",
"x. c #FFD0D0D0",
"c. c #FFD1D1D1",
"v. c #FFD2D2D2",
"b. c #FFD3D3D3",
"n. c #FFD4D4D4",
"m. c #FFD5D5D5",
"M. c #FFD6D6D6",
"N. c #FFD7D7D7",
"B. c #FFD8D8D8",
"V. c #FFD9D9D9",
"C. c #FFDADADA",
"Z. c #FFDDDDDD",
"A. c #FFDEDEDE",
"S. c #FFDFDFDF",
"D. c #FFE0E0E0",
"F. c #FFE1E1E1",
"G. c #FFE3E3E3",
"H. c #FFE4E4E4",
"J. c #FFE6E6E6",
"K. c #FFE6E6E6",
"L. c #FFE7E7E7",
"P. c #FFE8E8E8",
"I. c #FFE9E9E9",
"U. c #FFEAEAEA",
"Y. c #FFEBEBEB",
"T. c #FFECECEC",
"R. c #FFEDEDED",
"E. c #FFEEEEEE",
"W. c #FFEFEFEF",
"Q. c #FFF0F0F0",
"!. c #FFF1F1F1",
"~. c #FFF2F2F2",
"^. c #FFF3F3F3",
"/. c #FFF4F4F4",
"(. c #FFF5F5F5",
"). c #FFF6F6F6",
"_. c #FFF7F7F7",
"`. c #FFF8F8F8",
"'. c #FFF9F9F9",
"]. c #FFFAFAFA",
"[. c #FFFBFBFB",
"{. c #FFFCFCFC",
"}. c #FFFDFDFD",
"|. c #FFFEFEFE",
" X c #FFFFFFF1",
/* pixels */
"                                                                                                                                                                                                                                                                ",
"                                                                                                                                                                                                                                                                ",
"                                                                                                                                                                                                                                                                ",
"                                                                                                                                                                                                                                                                ",
"                                                                                                                                                                                                                                                                ",
"                                                                                                                                                                                                                                                                ",
"                                                                                                                                                                                                                                                                ",
"                                                                                                                                                                                                                                                                ",
"                                                                                                                                                                                                                                                                ",
"                                                                                                                                                                                                                                                                ",
"                                                                                                                                                                                                                                                                ",
"                                                                                                                                                                                                                                                                ",
"                                                                                                                                                                                                                                                                ",
"                                                                                                                                                                                                                                                                ",
"                                                                                                                                                                                                                                                                ",
"                                                                                                                                                                                                                                                                ",
"                                                                                                                                                                                                                                                                ",
"                                                                                                                                                                                                                                                                ",
"                                                                                                                                                                                                                                                                ",
"                                                                                                                                                              0 % 2 r % % % % % % r b h 0 %.U.R a.^.                                                            ",
"                                                                                                                                                        | 0 % % % % % % % % % h 8.K.^.^.X.z.^./ K.^.B B z. X X                                                  ",
"                                                                                                                                                        B % % % % % % % % % r z. X^.^. Xz.8.n.a.^. X8.n.^.z. X^.                                                ",
"                                                                                                                                                        h % % % % % % + % % B ^.^.X.8.a.R z. X^. X^.A.^.U.A.^.^.                                                ",
"                                                                                                                        2 %                   0 r % % 2 % + % % % 2 0 R h + S  X XU.^.^.q.n. Xa.U.U.%.^.K.=.n.U.                                                ",
"                                                                                                                  0 % % % % % % % % 0 R | q.z.i + % % % r b b 0 X.a.8. Xq.2 a U. X X X XU.K.^./ K.^.a. XK.q.^.^.                                                ",
"                                                                                                    0 % %       b 2 % % 0 % % % % + Y  XU.^.K.a a a % ! A.^.^.%.n. X^. XA.0 % / z.%.z. XU.K.^./ K. Xa.K. X X^.                                                  ",
"                                                                                          0 2 % i 2 % % % % % 0 2 % Y 8.a.i % + + + Y  XK.U.K.X.U.n.R U.^.K. XK.K.^.,.^.A.0 b n.U.=.n. Xn.n. X! n. Xa.  ^.                                                      ",
"                                                                                %       a % % + % % % % % b ,.n._ 0 n. XU.a 0 Y | S R  XK.U.^.^. X^.z. X,.S ^.U.K.^.Y ! b % B ^. X X X XX.a. X                                                                  ",
"                                                                          h % % % % % % % % 0 Y %.=.Y % + _  X Xa.B U. XK.S a. X XU.,.^.K.U.^.8.K.^.A. X%.B ^.K.K. X/   + % 0 z. X^.^.                                                                          ",
"                                                                        S % % % % % % % % r q. X X XU.b + _  X XK.=.^. XK.8. Xa.A. XA.^.K.U.U.b a.^.n. XK.n. X8.n. X                                                                                            ",
"                                                                        i % % % % % % % % X. X X^. X XX.+ _  X X^.^. X XU.A. XU.K.K.n.^.K.U.K.h z.^.=.U. X X^.                                                                                                  ",
"                                                                        r % % % % % % % 0 n. X8.Y n. X,.% _  X^. X XU.^.U.K. X,.,.K.n.^.K.U.U.h a. X                                                                                                            ",
"                                                                        0 % % % % % % % a U.^.b + %. X8.% _  XK.U. Xq.U.U.n. XK.^.^.,.^.K.U.^.                                                                                                                  ",
"                                                                        r % % % % % % % h U.^.h % 8. X%.+ _  Xa.a.^._ U.U.X.^. X X                                                                                                                              ",
"                                                                        a % % % % % % % a U. Xq.=.^. X! + _  X8.| U.Y U.^.                                                                                                                                      ",
"                                                                          2 % % % % % % 0 n. X X X XU.h + |  X                                                                                                                                                  ",
"                                                                                  % % % % | ^. X X^.                                                                                                                                                            ",
"                                                                                                                                                                                                                                                                ",
"                                                                                                                                                                                                                                                                ",
"                                                                                                                                                                                                                                                                ",
"                                                                                                                                                                                                                                                                ",
"                                                                                                                                                                                                                                                                ",
"                                                                                                                                                                                                                                                                ",
"                                                                                                                                                                                                                                                                ",
"                                                                                                                                                                                                                                                                ",
"                                                                                                                                                                                                                                                                ",
"                                                                                                                                                                                                                                                                ",
"                                                                                                                                                                                                                                                                ",
"                                                                                                                                                                                                                                                                ",
"                                                                                                                                                                                                                                                                ",
"                                                                                                                                                                                                                                                                ",
"                                                                                                                                                                                                                                                                ",
"                                                                                                                                                                                                                                                                ",
"                                                                                                                                                                                                                                                                "
};
