/* XPM */
static char *oms_339[] = {
/* columns rows colors chars-per-pixel */
"128 54 203 2 ",
"   c #00000000",
".  c #FF080808",
"X  c #FF0A0A0A",
"o  c #FF0C0C0C",
"O  c #FF0D0D0D",
"+  c #FF0E0E0E",
"@  c #FF0F0F0F",
"#  c #FF101010",
"$  c #FF111111",
"%  c #FF121212",
"&  c #FF131313",
"*  c #FF141414",
"=  c #FF151515",
"-  c #FF161616",
";  c #FF181818",
":  c #FF191919",
">  c #FF1A1A1A",
",  c #FF1B1B1B",
"<  c #FF1D1D1D",
"1  c #FF1E1E1E",
"2  c #FF1F1F1F",
"3  c #FF202020",
"4  c #FF222222",
"5  c #FF232323",
"6  c #FF252525",
"7  c #FF262626",
"8  c #FF272727",
"9  c #FF282828",
"0  c #FF292929",
"q  c #FF2A2A2A",
"w  c #FF2C2C2C",
"e  c #FF2D2D2D",
"r  c #FF2E2E2E",
"t  c #FF2F2F2F",
"y  c #FF303030",
"u  c #FF323232",
"i  c #FF333333",
"p  c #FF343434",
"a  c #FF353535",
"s  c #FF363636",
"d  c #FF373737",
"f  c #FF3A3A3A",
"g  c #FF3B3B3B",
"h  c #FF3C3C3C",
"j  c #FF3F3F3F",
"k  c #FF404040",
"l  c #FF414141",
"z  c #FF424242",
"x  c #FF434343",
"c  c #FF474747",
"v  c #FF484848",
"b  c #FF494949",
"n  c #FF4A4A4A",
"m  c #FF4C4C4C",
"M  c #FF4C4C4C",
"N  c #FF4E4E4E",
"B  c #FF4F4F4F",
"V  c #FF535353",
"C  c #FF545454",
"Z  c #FF575757",
"A  c #FF595959",
"S  c #FF5C5C5C",
"D  c #FF5D5D5D",
"F  c #FF5F5F5F",
"G  c #FF606060",
"H  c #FF616161",
"J  c #FF636363",
"K  c #FF646464",
"L  c #FF676767",
"P  c #FF696969",
"I  c #FF6A6A6A",
"U  c #FF6B6B6B",
"Y  c #FF6D6D6D",
"T  c #FF6E6E6E",
"R  c #FF6F6F6F",
"E  c #FF707070",
"W  c #FF727272",
"Q  c #FF737373",
"!  c #FF747474",
"~  c #FF757575",
"^  c #FF767676",
"/  c #FF777777",
"(  c #FF787878",
")  c #FF797979",
"_  c #FF7A7A7A",
"`  c #FF7B7B7B",
"'  c #FF7C7C7C",
"]  c #FF7E7E7E",
"[  c #FF808080",
"{  c #FF818181",
"}  c #FF828282",
"|  c #FF848484",
" . c #FF868686",
".. c #FF898989",
"X. c #FF8A8A8A",
"o. c #FF8C8C8C",
"O. c #FF8D8D8D",
"+. c #FF8E8E8E",
"@. c #FF8F8F8F",
"#. c #FF909090",
"$. c #FF929292",
"%. c #FF939393",
"&. c #FF949494",
"*. c #FF959595",
"=. c #FF979797",
"-. c #FF999999",
";. c #FF9A9A9A",
":. c #FF9B9B9B",
">. c #FF9C9C9C",
",. c #FF9D9D9D",
"<. c #FF9E9E9E",
"1. c #FF9F9F9F",
"2. c #FFA1A1A1",
"3. c #FFA2A2A2",
"4. c #FFA3A3A3",
"5. c #FFA5A5A5",
"6. c #FFA6A6A6",
"7. c #FFA7A7A7",
"8. c #FFA8A8A8",
"9. c #FFAAAAAA",
"0. c #FFABABAB",
"q. c #FFADADAD",
"w. c #FFAEAEAE",
"e. c #FFAFAFAF",
"r. c #FFB0B0B0",
"t. c #FFB1B1B1",
"y. c #FFB2B2B2",
"u. c #FFB4B4B4",
"i. c #FFB5B5B5",
"p. c #FFB6B6B6",
"a. c #FFB7B7B7",
"s. c #FFB8B8B8",
"d. c #FFB9B9B9",
"f. c #FFBABABA",
"g. c #FFBBBBBB",
"h. c #FFBCBCBC",
"j. c #FFBDBDBD",
"k. c #FF808080",
"l. c #FFBFBFBF",
"z. c #FFC0C0C0",
"x. c #FFC1C1C1",
"c. c #FFC2C2C2",
"v. c #FFC3C3C3",
"b. c #FFC4C4C4",
"n. c #FFC5C5C5",
"m. c #FFC6C6C6",
"M. c #FFC7C7C7",
"N. c #FFC8C8C8",
"B. c #FFC9C9C9",
"V. c #FFCACACA",
"C. c #FFCBCBCB",
"Z. c #FFCCCCCC",
"A. c #FFCDCDCD",
"S. c #FFCECECE",
"D. c #FFCFCFCF",
"F. c #FFD0D0D0",
"G. c #FFD1D1D1",
"H. c #FFD2D2D2",
"J. c #FFD3D3D3",
"K. c #FFD4D4D4",
"L. c #FFD5D5D5",
"P. c #FFD6D6D6",
"I. c #FFD7D7D7",
"U. c #FFD8D8D8",
"Y. c #FFD9D9D9",
"T. c #FFDADADA",
"R. c #FFDBDBDB",
"E. c #FFDCDCDC",
"W. c #FFDDDDDD",
"Q. c #FFDEDEDE",
"!. c #FFDFDFDF",
"~. c #FFE0E0E0",
"^. c #FFE1E1E1",
"/. c #FFE2E2E2",
"(. c #FFE3E3E3",
"). c #FFE4E4E4",
"_. c #FFE6E6E6",
"`. c #FFE6E6E6",
"'. c #FFE7E7E7",
"]. c #FFE8E8E8",
"[. c #FFE9E9E9",
"{. c #FFEAEAEA",
"}. c #FFEBEBEB",
"|. c #FFECECEC",
" X c #FFEDEDED",
".X c #FFEEEEEE",
"XX c #FFEFEFEF",
"oX c #FFF0F0F0",
"OX c #FFF1F1F1",
"+X c #FFF2F2F2",
"@X c #FFF3F3F3",
"#X c #FFF4F4F4",
"$X c #FFF5F5F5",
"%X c #FFF6F6F6",
"&X c #FFF7F7F7",
"*X c #FFF8F8F8",
"=X c #FFF9F9F9",
"-X c #FFFAFAFA",
";X c #FFFBFBFB",
":X c #FFFCFCFC",
">X c #FFFDFDFD",
",X c #FFFEFEFE",
"<X c #FFFFFFFF",
/* pixels */
"                                                                                                                                                                                                                                                                ",
"                                                                                                                                                                                                                                                                ",
"                                                                                                                                                                                                                                                                ",
"                                                                                                                                                                                                                                                                ",
"                                                                                                                                                                                                                                                                ",
"                                                                                                                                                                                                                                                                ",
"                                                                                                                                                                                                                                                                ",
"                                                                                                                                                                                                                                                                ",
"                                                                                                                                                                                                                                                                ",
"                                                                                                                                                                                                                                                                ",
"                                                                                                                                                                                                                                                                ",
"                                                                                                                                                                                                                                                                ",
"                                                                                                                                                                                                                                                                ",
"                                                                                                                                                                                                                                                                ",
"                                                                                                                                                                                                                                                                ",
"                                                                                                                                                                                                                                                                ",
"                                                                                                                                                                                                                                                                ",
"                                                                                                                                                                                                                                                                ",
"                                                                                                                                                                                                                                                                ",
"                                                                                                                                                                                                                                                                ",
"                                                                                                                                                                                                                                                                ",
"                          R d & & & & & 2                                                                                                                                                                                                                       ",
"              %X=X%X=X=X%X.XE.*.r & & & r b..X.XL.Z.m & & R 0.5.r.s.Z & & & & & m                 D m l 8 & & & & d                                                                                                                                             ",
"            %X=X=X=X=X=X=X=X=X=Xb.8 & & d (.=X=X=X=X0.& r E.=X=X=X=X .@ & & & @ m         %X%X.X0..X.X.XR @ & & & d                                                          .D g 2 & & d                                                                       ",
"            =X=X=X.X5. .0.%X=X=X=X/ & & d (.=X=X=X=X.Xl  .=X=X=X=X=X .@ 8 l m m H D & @ >.=X=X%Xs.%X=X=X/ @ & & & r                                               %X%X=X=X=X%X.X(.b.H r b.E.E.*.2 m m H m & & &                                                 ",
"            =X=X=X>.& @ & *.=X=X=X5.& & d (.=X=X=X=X=Xs.E.=X=X=X=X=X .Z Z..X%X=X%X(.0.g @.=X=X%Xs.%X=X=X@.R r.s.*.d & 8 H @.b.(.0.] g & r Z Z H r d D m 2 & & & >.=X=X=X%XL.E.=X=X=X%X/ L.%X%Xr.d E.%X%X0.& & & m                                               ",
"            =X=X=X>.& @ @ ] =X=X=Xr.& & d (.=X=X=X=X=X=X=X=X=X=X=X=X5.L.=X=X(.r.(.=X=Xb.5.=X=X%Xs.%X=X=X.X=X=X=X=Xs.g s.=X=X=X=X=X=X(./ ] %X.X.X5.L..X(.*.2 & & *.=X=X=X.X . .L.E.Z.r./ s.L.L.0.@..X=X=XL.m & r H 0.r. .Z 8 & & 2                               ",
"            =X=X=X.X@.D / E.=X=X=X*.& & d (.=X=X(.L.=X=X=X%XE.=X=X=Xb.%X=X=X.XL.(.=X=X%XL.=X=X%Xs.%X=X=X(.s..X=X=X.X0.=X=X=Xb.@.E.=X=X(.r.=X=X=X%X=X=X=X.Xl & & H %X=X=X=X=X%X%X.XE.>.m E.=X=XE..X=X=X=X=Xr.R (.%X=X=X%X%XZ.D & & 2                             ",
"            %X=X=X=X=X=X=X=X=X=X.Xm & & d (.=X=XZ./ %X=X=Xs.@.=X=X=Xs.%X=X=XZ.@.r.L.L.Z.L.=X=X%Xs.%X=X=X@.& 0.=X=X.XL.=X=X%XZ @ @.=X=X%XL.=X=X=X>.5.=X=X=XD @ & 2 *.E..X%X%X=X=X=X=X=X0.E.=X=XE.Z.%X=X=X%Xb.(.=X=X(.>.L.=X=XE.d & & g                           ",
"              %X=X=X=X=X=X=X=X(.R & & & l .X=X=XZ.r Z.=X%XH / =X=X=X*.b.=X=X(.0.L.%X%X(.b.=X=X%Xs.%X=X=X/ @ >.=X=X.Xr.=X=X=X*.g s.=X=X%XL.=X=X=XR l 0.r.s.]     r.L.b.L.L.H ] .X=X=X=XE.(.=X=Xs.l (.=X=Xs.D %X=X=X%XE..X%X%X%XD @ & d                           ",
"                      .X%X                =X=X=XZ.  0.%XL.8 @.=X=X=X .Z %X=X=X=X=X=X%X5.5.=X=X%Xs.%X=X=X] @ 5.=X=X.XH L.=X=X%X.X=X=X=XZ.>.=X=X=XR @ & & 8         =X=X=X%Xs.r.%X=X=X=XZ.(.=X=Xs.d (.=X=X(.>..X=X=XL./ 5.L.Z.L.Z & & g                           ",
"                                                                                                              %X=X.Xm   %X%X=X%X%X=X.X  >.=X%X%X/ @ &             %X=X=X=X=X=X=X=X=X(.] (.=X=Xs.r E.=X=X=Xs.r.=X=X%XZ.(.=X%X.Xm & 2                             ",
"                                                                                                                                                                        %X%X%X%X%X      %X=X=Xs.    %X%X=Xr.m .X%X=X=X=X%X=Xb.                                  ",
"                                                                                                                                                                                                                                                                ",
"                                                                                                                                                                                                                                                                ",
"                                                                                                                                                                                                                                                                ",
"                                                                                                                                                                                                                                                                ",
"                                                                                                                                                                                                                                                                ",
"                                                                                                                                                                                                                                                                ",
"                                                                                                                                                                                                                                                                ",
"                                                                                                                                                                                                                                                                ",
"                                                                                                                                                                                                                                                                ",
"                                                                                                                                                                                                                                                                ",
"                                                                                                                                                                                                                                                                ",
"                                                                                                                                                                                                                                                                ",
"                                                                                                                                                                                                                                                                ",
"                                                                                                                                                                                                                                                                ",
"                                                                                                                                                                                                                                                                ",
"                                                                                                                                                                                                                                                                ",
"                                                                                                                                                                                                                                                                ",
"                                                                                                                                                                                                                                                                ",
"                                                                                                                                                                                                                                                                ",
"                                                                                                                                                                                                                                                                ",
"                                                                                                                                                                                                                                                                "
};
