/* XPM */
static char *oms_094[] = {
/* columns rows colors chars-per-pixel */
"128 54 82 1 ",
"  c #00000000",
". c #FF101010",
"X c #FF111111",
"o c #FF121212",
"O c #FF131313",
"+ c #FF141414",
"@ c #FF151515",
"# c #FF161616",
"$ c #FF171717",
"% c #FF181818",
"& c #FF191919",
"* c #FF1A1A1A",
"= c #FF1B1B1B",
"- c #FF1C1C1C",
"; c #FF1D1D1D",
": c #FF1E1E1E",
"> c #FF1F1F1F",
", c #FF202020",
"< c #FF212121",
"1 c #FF222222",
"2 c #FF232323",
"3 c #FF242424",
"4 c #FF252525",
"5 c #FF262626",
"6 c #FF272727",
"7 c #FF282828",
"8 c #FF292929",
"9 c #FF2A2A2A",
"0 c #FF2B2B2B",
"q c #FF2C2C2C",
"w c #FF2D2D2D",
"e c #FF2E2E2E",
"r c #FF2F2F2F",
"t c #FF303030",
"y c #FF313131",
"u c #FF323232",
"i c #FF333333",
"p c #FF343434",
"a c #FF353535",
"s c #FF363636",
"d c #FF373737",
"f c #FF383838",
"g c #FF393939",
"h c #FF3A3A3A",
"j c #FF3B3B3B",
"k c #FF3C3C3C",
"l c #FF3E3E3E",
"z c #FF3F3F3F",
"x c #FF404040",
"c c #FF414141",
"v c #FF434343",
"b c #FF454545",
"n c #FF4B4B4B",
"m c #FF4E4E4E",
"M c #FF4F4F4F",
"N c #FF505050",
"B c #FF515151",
"V c #FF535353",
"C c #FF5C5C5C",
"Z c #FF606060",
"A c #FF6B6B6B",
"S c #FF6D6D6D",
"D c #FF727272",
"F c #FF787878",
"G c #FF7A7A7A",
"H c #FF7C7C7C",
"J c #FF7E7E7E",
"K c #FF818181",
"L c #FF929292",
"P c #FF969696",
"I c #FF979797",
"U c #FF999999",
"Y c #FF9C9C9C",
"T c #FF9E9E9E",
"R c #FFA0A0A0",
"E c #FFAAAAAA",
"W c #FFABABAB",
"Q c #FFB1B1B1",
"! c #FFB8B8B8",
"~ c #FFBDBDBD",
"^ c #FFC7C7C7",
"/ c #FFCCCCCC",
/* pixels */
"                                                                                                                                ",
"                                                                                                                                ",
"                                                                                                                                ",
"                                                                                                                                ",
"                                                                                                                                ",
"                                                                                                                                ",
"                                                                                                                                ",
"                                                                                                                                ",
"                                                                                                                                ",
"                                                                                                                                ",
"                                                                                                                                ",
"                                                                                                                                ",
"                                                                                                                                ",
"                                                                                                                                ",
"                                                                                                                                ",
"                                                                                                                                ",
"                                                                ::   0v   M                                                     ",
"                                                               J6::60:O :6g                                                     ",
"                                                               J6666OO::6Og^                                                    ",
"                                                               K6: OO:g66OM!                                                    ",
"                                                               AOOO66OOO:O6                                                     ",
"                                                               J66tg6OOO0::                                                     ",
"                                                               I000vg6  606                                                     ",
"                                                                g000t66O0t6W                                                    ",
"                                                               !g::OOOOO6:OI                                                    ",
"                                                               /M:O OO660O:J                                                    ",
"                                                                Ct: :Og0v:OA                                                    ",
"                                                                C6OO:Ot0t::C                                                    ",
"                                                                M.OOt:0t666N                                                    ",
"                                                                N:OO:O666:Ot                                                    ",
"                                                                D6OO::OOt:O0                                                    ",
"                                                                I:OOOOOOt:O6R                                                   ",
"                                                                Y0OOOOOOg6O:Y                                                   ",
"                                                                QvOOOO 6v6O6Y                                                   ",
"                                                                 MOOO  6g6:0W                                                   ",
"                                                                 MO 6  t 000                                                    ",
"                                                                       v   t                                                    ",
"                                                                       N   t                                                    ",
"                                                                                                                                ",
"                                                                                                                                ",
"                                                                                                                                ",
"                                                                                                                                ",
"                                                                                                                                ",
"                                                                                                                                ",
"                                                                                                                                ",
"                                                                                                                                ",
"                                                                                                                                ",
"                                                                                                                                ",
"                                                                                                                                ",
"                                                                                                                                ",
"                                                                                                                                ",
"                                                                                                                                ",
"                                                                                                                                ",
"                                                                                                                                "
};
