/* XPM */
static char *oms_230[] = {
/* columns rows colors chars-per-pixel */
"128 54 199 2 ",
"   c #00000000",
".  c #FF0B0B0B",
"X  c #FF0C0C0C",
"o  c #FF0D0D0D",
"O  c #FF0E0E0E",
"+  c #FF0F0F0F",
"@  c #FF101010",
"#  c #FF111111",
"$  c #FF121212",
"%  c #FF131313",
"&  c #FF141414",
"*  c #FF151515",
"=  c #FF161616",
"-  c #FF171717",
";  c #FF181818",
":  c #FF191919",
">  c #FF1A1A1A",
",  c #FF1B1B1B",
"<  c #FF1C1C1C",
"1  c #FF1D1D1D",
"2  c #FF1E1E1E",
"3  c #FF1F1F1F",
"4  c #FF202020",
"5  c #FF212121",
"6  c #FF222222",
"7  c #FF232323",
"8  c #FF242424",
"9  c #FF252525",
"0  c #FF262626",
"q  c #FF272727",
"w  c #FF282828",
"e  c #FF292929",
"r  c #FF2A2A2A",
"t  c #FF2C2C2C",
"y  c #FF2D2D2D",
"u  c #FF2E2E2E",
"i  c #FF2F2F2F",
"p  c #FF303030",
"a  c #FF313131",
"s  c #FF323232",
"d  c #FF333333",
"f  c #FF343434",
"g  c #FF363636",
"h  c #FF373737",
"j  c #FF383838",
"k  c #FF393939",
"l  c #FF3A3A3A",
"z  c #FF3B3B3B",
"x  c #FF3C3C3C",
"c  c #FF3D3D3D",
"v  c #FF3E3E3E",
"b  c #FF3F3F3F",
"n  c #FF414141",
"m  c #FF424242",
"M  c #FF434343",
"N  c #FF444444",
"B  c #FF454545",
"V  c #FF464646",
"C  c #FF474747",
"Z  c #FF484848",
"A  c #FF494949",
"S  c #FF4B4B4B",
"D  c #FF4C4C4C",
"F  c #FF4C4C4C",
"G  c #FF4E4E4E",
"H  c #FF4F4F4F",
"J  c #FF505050",
"K  c #FF525252",
"L  c #FF545454",
"P  c #FF565656",
"I  c #FF575757",
"U  c #FF595959",
"Y  c #FF5A5A5A",
"T  c #FF5B5B5B",
"R  c #FF5E5E5E",
"E  c #FF606060",
"W  c #FF666666",
"Q  c #FF6A6A6A",
"!  c #FF6C6C6C",
"~  c #FF737373",
"^  c #FF747474",
"/  c #FF767676",
"(  c #FF777777",
")  c #FF787878",
"_  c #FF797979",
"`  c #FF7A7A7A",
"'  c #FF7B7B7B",
"]  c #FF7C7C7C",
"[  c #FF7D7D7D",
"{  c #FF7E7E7E",
"}  c #FF808080",
"|  c #FF808080",
" . c #FF818181",
".. c #FF828282",
"X. c #FF838383",
"o. c #FF848484",
"O. c #FF858585",
"+. c #FF868686",
"@. c #FF888888",
"#. c #FF898989",
"$. c #FF8A8A8A",
"%. c #FF8B8B8B",
"&. c #FF8C8C8C",
"*. c #FF8D8D8D",
"=. c #FF8E8E8E",
"-. c #FF8F8F8F",
";. c #FF919191",
":. c #FF939393",
">. c #FF959595",
",. c #FF979797",
"<. c #FF989898",
"1. c #FF999999",
"2. c #FF9A9A9A",
"3. c #FF9D9D9D",
"4. c #FF9E9E9E",
"5. c #FFA0A0A0",
"6. c #FFA1A1A1",
"7. c #FFA2A2A2",
"8. c #FFA3A3A3",
"9. c #FFA4A4A4",
"0. c #FFA5A5A5",
"q. c #FFA6A6A6",
"w. c #FFA7A7A7",
"e. c #FFA9A9A9",
"r. c #FFAAAAAA",
"t. c #FFABABAB",
"y. c #FFADADAD",
"u. c #FFAEAEAE",
"i. c #FFAFAFAF",
"p. c #FFB1B1B1",
"a. c #FFB2B2B2",
"s. c #FFB2B2B2",
"d. c #FFB5B5B5",
"f. c #FFB6B6B6",
"g. c #FFB7B7B7",
"h. c #FFB9B9B9",
"j. c #FFBBBBBB",
"k. c #FFBCBCBC",
"l. c #FFBDBDBD",
"z. c #FF808080",
"x. c #FFC0C0C0",
"c. c #FFC2C2C2",
"v. c #FFC3C3C3",
"b. c #FFC4C4C4",
"n. c #FFC5C5C5",
"m. c #FFC6C6C6",
"M. c #FFC7C7C7",
"N. c #FFC9C9C9",
"B. c #FFCACACA",
"V. c #FFCBCBCB",
"C. c #FFCCCCCC",
"Z. c #FFCECECE",
"A. c #FFCFCFCF",
"S. c #FFD0D0D0",
"D. c #FFD1D1D1",
"F. c #FFD2D2D2",
"G. c #FFD3D3D3",
"H. c #FFD4D4D4",
"J. c #FFD5D5D5",
"K. c #FFD6D6D6",
"L. c #FFD7D7D7",
"P. c #FFD8D8D8",
"I. c #FFDADADA",
"U. c #FFDBDBDB",
"Y. c #FFDCDCDC",
"T. c #FFDDDDDD",
"R. c #FFDEDEDE",
"E. c #FFDFDFDF",
"W. c #FFE0E0E0",
"Q. c #FFE1E1E1",
"!. c #FFE2E2E2",
"~. c #FFE3E3E3",
"^. c #FFE4E4E4",
"/. c #FFE6E6E6",
"(. c #FFE7E7E7",
"). c #FFE8E8E8",
"_. c #FFE9E9E9",
"`. c #FFEAEAEA",
"'. c #FFEBEBEB",
"]. c #FFECECEC",
"[. c #FFEDEDED",
"{. c #FFEEEEEE",
"}. c #FFEFEFEF",
"|. c #FFF0F0F0",
" X c #FFF1F1F1",
".X c #FFF2F2F2",
"XX c #FFF3F3F3",
"oX c #FFF4F4F4",
"OX c #FFF5F5F5",
"+X c #FFF6F6F6",
"@X c #FFF7F7F7",
"#X c #FFF8F8F8",
"$X c #FFF9F9F9",
"%X c #FFFAFAFA",
"&X c #FFFBFBFB",
"*X c #FFFCFCFC",
"=X c #FFFDFDFD",
"-X c #FFFEFEFE",
";X c #FFFFFFF1",
/* pixels */
"                                                                                                                                                                                                                                                                ",
"                                                                                                                                                                                                                                                                ",
"                                                                                                                                                                                                                                                                ",
"                                                                                                                                                                                                                                                                ",
"                                                                                                                                                                                                                                                                ",
"                                                                                                                                                                                                                                                                ",
"                                                                                                                                                                                                                                                                ",
"                                                                                                                                                                                                                                                                ",
"                                                                                                                                                                                                                                                                ",
"                                                                                                                                                                                                                                                                ",
"                                                                                                                                                                                      H s : *                                                                   ",
"                                                                                                                                                                                  z : * * * * * * *                                                             ",
"                                                                                                                                                                              ` q * * * * * * * * q B ..K.                                                      ",
"                                                                                                                                                                  B w : * * z s * * * * * * * : ( B.'.oX;XoX                                                    ",
"                                                                                                                                                                w * * * * * * * * * : : * * q e.;X;X;X;X;X;XoX                                                  ",
"                                                                                                                                                    B w : * * q * * * * + * * q K %.m.` * * ..;X;XK.%.q.oX;XoX                                                  ",
"                                                                                                                                                  %.* * * * * * * * * q B q + ` oX;X;X%.+ q K.;XQ.B + z '.;XoX                                                  ",
"                                                                                                                                                  >.* * * * * * * B 1.B.'.` : m.;X;X;X%.+ z Q.;XK.q + Q oX;XoX                                                  ",
"                                                                                                                              B w : * * *   H s   K * * * * * * + %.;X;X;XB.R '.;X;X;X%.+ z '.;XoX1.%.Q.;XoX                                                    ",
"                                                                                                                        B q * * * * * * * * * * : z q * * + + + + %.;X;X;XoXK.;XoX;X;X%.+ w E.;X;X;X;X;XoXoX                                                    ",
"                                                                                                                        w * * * * * * * : s K ..B.E.B + : H ` %.K %.;X;X;X;X;XoXK.oX;XB.  * e.;X;X;X;XoX                                                        ",
"                                                                                                                        w * * * * * * * %.Q.'.Q.;X'.B H m.oX;X;XQ.k.;XoXQ.;X;XQ.1.oX;X                                                                          ",
"                                                                                                                ` s : : : * * * * * * * a.;XoXE.;X'.( Q.;Xk.K.;XoXE.;X;X1.Q.;Xa.( oXoX                                                                          ",
"                                                                                                        B q     w * * * * * * * * : s s a.;XoXE.;X'.m.;XoXE.'.;XoXK.;X;X( q.;Xa.                                                                                ",
"                                                                                                  Q w : * * * * * * * * + * * + s a.'.E.Q.;XoXE.;XoXE.Q.K...m.;XE.e.;X;X                                                                                        ",
"                                                                                          K s : w : * * * * * * * * : H %.a.q.B q.;X;XQ.oX;X'.E.;XoXK.'.oXQ.oX;X                                                                                                ",
"                                                                  K s q * * * * *   z : : * + * * * * * * * * w q z k.oX;X;X;XB.E.;XE.B k.;X'.E.;X'.m.;X;X;XoX                                                                                                  ",
"                                                              R q * * * * * * * * * * w K ` Q q * * * w z H e.E.` m.;XK.1.'.;X'.'.;XB.: e.;XoXQ.;XoX                                                                                                            ",
"                                                      B q * : * * * * * * * * * : R e.E.oX;X;X..* * K K.'.E.;XoXk.oX;X( q E.;XE.Q.;XK.: a.;XoX                                                                                                                  ",
"                                                R s z : * * * * * * * * q H ` s >.oX;XQ.'.;X;Xq.* : m.;XoX'.;XoXK.oX;Xq.` oX;X1.K.;XoX                                                                                                                          ",
"                                              z * * * * * * * * * * : : >.oX'.%.oXoXK...E.;X;X..+ s '.;Xk.%.;XoXm.oX;XoX;X;XoX                                                                                                                                  ",
"                                              q * * * * * * * * s >.B.` >.Q.B...e.K.Q.'.;X;XB.s + s m.q.H ` ;XoXe.Q.;XoXoX                                                                                                                                      ",
"                                            B * * * * * * * * + E ;X;Xm.k.'.'.Q B.;X;X'.Q.B.a.a.    w * + ..;XoX                                                                                                                                                ",
"                                ..z : * * * * * * * * + * q : q e.;X;X;XoX;X'.B.;X;XE.E k.oX;X;X                                                                                                                                                                ",
"                              %.q * * * * * * * * * q Q a.K.B...Q.;X;XK.K.;XoX'.;X;X'.B.oX;XoX                                                                                                                                                                  ",
"                              B + * * * * * * * * z m.oX'.oX;XE.k.oX;X%.q.;XoXB.;X;X;X;XoXoX                                                                                                                                                                    ",
"                              w * * * * * * * * : a.;XQ.k.oX;XK.%.;X;X..1.;XoXq.'.oXoX                                                                                                                                                                          ",
"                              z * * * * * * * * s Q.oXQ.m.'.;XE.Q.;X;X` q.;X                                                                                                                                                                                    ",
"                              z * * * * * * * * s K.Q.m.1.oX;Xq.Q.;XoX                                                                                                                                                                                          ",
"                                    * * * * * * s Q.;X;X;X;X                                                                                                                                                                                                    ",
"                                                  m.oXoX                                                                                                                                                                                                        ",
"                                                                                                                                                                                                                                                                ",
"                                                                                                                                                                                                                                                                ",
"                                                                                                                                                                                                                                                                ",
"                                                                                                                                                                                                                                                                ",
"                                                                                                                                                                                                                                                                ",
"                                                                                                                                                                                                                                                                ",
"                                                                                                                                                                                                                                                                ",
"                                                                                                                                                                                                                                                                ",
"                                                                                                                                                                                                                                                                ",
"                                                                                                                                                                                                                                                                ",
"                                                                                                                                                                                                                                                                ",
"                                                                                                                                                                                                                                                                ",
"                                                                                                                                                                                                                                                                "
};
