/* XPM */
static char *oms_028[] = {
/* columns rows colors chars-per-pixel */
"128 54 192 2 ",
"   c #00000000",
".  c #FF0C0C0C",
"X  c #FF0D0D0D",
"o  c #FF0E0E0E",
"O  c #FF0F0F0F",
"+  c #FF101010",
"@  c #FF111111",
"#  c #FF121212",
"$  c #FF131313",
"%  c #FF141414",
"&  c #FF151515",
"*  c #FF161616",
"=  c #FF181818",
"-  c #FF191919",
";  c #FF1B1B1B",
":  c #FF1D1D1D",
">  c #FF1E1E1E",
",  c #FF1F1F1F",
"<  c #FF202020",
"1  c #FF212121",
"2  c #FF222222",
"3  c #FF232323",
"4  c #FF242424",
"5  c #FF252525",
"6  c #FF262626",
"7  c #FF272727",
"8  c #FF2A2A2A",
"9  c #FF2B2B2B",
"0  c #FF2C2C2C",
"q  c #FF2F2F2F",
"w  c #FF303030",
"e  c #FF323232",
"r  c #FF373737",
"t  c #FF393939",
"y  c #FF3A3A3A",
"u  c #FF3E3E3E",
"i  c #FF404040",
"p  c #FF414141",
"a  c #FF424242",
"s  c #FF434343",
"d  c #FF454545",
"f  c #FF484848",
"g  c #FF494949",
"h  c #FF4B4B4B",
"j  c #FF4C4C4C",
"k  c #FF535353",
"l  c #FF545454",
"z  c #FF555555",
"x  c #FF565656",
"c  c #FF575757",
"v  c #FF585858",
"b  c #FF595959",
"n  c #FF5A5A5A",
"m  c #FF5C5C5C",
"M  c #FF5D5D5D",
"N  c #FF5F5F5F",
"B  c #FF606060",
"V  c #FF616161",
"C  c #FF626262",
"Z  c #FF646464",
"A  c #FF676767",
"S  c #FF686868",
"D  c #FF696969",
"F  c #FF6B6B6B",
"G  c #FF6C6C6C",
"H  c #FF6D6D6D",
"J  c #FF6E6E6E",
"K  c #FF6F6F6F",
"L  c #FF717171",
"P  c #FF727272",
"I  c #FF737373",
"U  c #FF747474",
"Y  c #FF757575",
"T  c #FF767676",
"R  c #FF777777",
"E  c #FF787878",
"W  c #FF7A7A7A",
"Q  c #FF7D7D7D",
"!  c #FF7E7E7E",
"~  c #FF808080",
"^  c #FF838383",
"/  c #FF848484",
"(  c #FF858585",
")  c #FF878787",
"_  c #FF888888",
"`  c #FF8A8A8A",
"'  c #FF8B8B8B",
"]  c #FF8C8C8C",
"[  c #FF8D8D8D",
"{  c #FF909090",
"}  c #FF919191",
"|  c #FF929292",
" . c #FF939393",
".. c #FF959595",
"X. c #FF969696",
"o. c #FF979797",
"O. c #FF989898",
"+. c #FF999999",
"@. c #FF9A9A9A",
"#. c #FF9B9B9B",
"$. c #FF9C9C9C",
"%. c #FF9D9D9D",
"&. c #FFA0A0A0",
"*. c #FFA1A1A1",
"=. c #FFA2A2A2",
"-. c #FFA3A3A3",
";. c #FFA4A4A4",
":. c #FFA5A5A5",
">. c #FFA6A6A6",
",. c #FFA7A7A7",
"<. c #FFA8A8A8",
"1. c #FFAAAAAA",
"2. c #FFABABAB",
"3. c #FFACACAC",
"4. c #FFADADAD",
"5. c #FFAFAFAF",
"6. c #FFB0B0B0",
"7. c #FFB1B1B1",
"8. c #FFB2B2B2",
"9. c #FFB2B2B2",
"0. c #FFB4B4B4",
"q. c #FFB6B6B6",
"w. c #FFB7B7B7",
"e. c #FFB8B8B8",
"r. c #FFB9B9B9",
"t. c #FFBBBBBB",
"y. c #FFBCBCBC",
"u. c #FFBDBDBD",
"i. c #FF808080",
"p. c #FFBFBFBF",
"a. c #FFC0C0C0",
"s. c #FFC1C1C1",
"d. c #FFC2C2C2",
"f. c #FFC3C3C3",
"g. c #FFC4C4C4",
"h. c #FFC5C5C5",
"j. c #FFC6C6C6",
"k. c #FFC7C7C7",
"l. c #FFC8C8C8",
"z. c #FFC9C9C9",
"x. c #FFCACACA",
"c. c #FFCBCBCB",
"v. c #FFCCCCCC",
"b. c #FFCDCDCD",
"n. c #FFCECECE",
"m. c #FFCFCFCF",
"M. c #FFD0D0D0",
"N. c #FFD1D1D1",
"B. c #FFD2D2D2",
"V. c #FFD3D3D3",
"C. c #FFD4D4D4",
"Z. c #FFD5D5D5",
"A. c #FFD6D6D6",
"S. c #FFD7D7D7",
"D. c #FFD8D8D8",
"F. c #FFD9D9D9",
"G. c #FFDADADA",
"H. c #FFDBDBDB",
"J. c #FFDDDDDD",
"K. c #FFDEDEDE",
"L. c #FFDFDFDF",
"P. c #FFE1E1E1",
"I. c #FFE2E2E2",
"U. c #FFE3E3E3",
"Y. c #FFE4E4E4",
"T. c #FFE6E6E6",
"R. c #FFE6E6E6",
"E. c #FFE7E7E7",
"W. c #FFE8E8E8",
"Q. c #FFE9E9E9",
"!. c #FFEAEAEA",
"~. c #FFEBEBEB",
"^. c #FFECECEC",
"/. c #FFEDEDED",
"(. c #FFEEEEEE",
"). c #FFEFEFEF",
"_. c #FFF0F0F0",
"`. c #FFF1F1F1",
"'. c #FFF2F2F2",
"]. c #FFF3F3F3",
"[. c #FFF4F4F4",
"{. c #FFF5F5F5",
"}. c #FFF6F6F6",
"|. c #FFF7F7F7",
" X c #FFF8F8F8",
".X c #FFF9F9F9",
"XX c #FFFAFAFA",
"oX c #FFFBFBFB",
"OX c #FFFCFCFC",
"+X c #FFFDFDFD",
"@X c #FFFEFEFE",
"#X c #FFFFFFFF",
/* pixels */
"                                                                                                                                                                                                                                                                ",
"                                                                                                                                                                                                                                                                ",
"                                                                                                                                                                                                                                                                ",
"                                                                                                                                                                                                                                                                ",
"                                                                                                                                                                                                                                                                ",
"                                                                                                                                                                                                                                                                ",
"                                                                                                                                                                                                                                                                ",
"                                                                                                                                                                                                                                                                ",
"                                                                                                                                                                                                                                                                ",
"                                                                                                                                                                                                                                                                ",
"                                                                                                                                                                                                                                                                ",
"                                                                                                                                                                                                                                                                ",
"                                                                                                                                                                                                                                                                ",
"                                                                                                                                                                                                                                                                ",
"                                                                                                                                                                                                                                                                ",
"                                                                                                                                                                                                                                                                ",
"                                                                                                                                                                                                                                                                ",
"                                                                                                                                                                                                                                                                ",
"                                                                                                                                                                                                                                                                ",
"                                                                                                                                                                                                                                                                ",
"                                                                                                                                                                                                                                                                ",
"                                                                                                                                                                                                                                                                ",
"                                                                                                                                                                              4 $ $ $ $ 4 v  .s.M.s.7.5._ g $ ! F.F.{.v                                         ",
"                                X - t z               - $ $ g B H     B $ $ - H _ 5.                r $ $ $ B 7.7.7._ l.T.{.{.                                              r $ $ $ $ 9 r.{.+X+X+X+X+X+X+XQ.U ,.+X{.{.z H {.{.{.7.                              ",
"                          $ $ 4 U r.F.T.Q.Q.{.{.{.    4 $ - r.{.{.{.{.l.4 X B {.{.{.{.{.            9 $ $ $ _ +X+X+Xr.{.+X+XT.                                  4 4         t $ $ $ X U +X+X+X{.7.+.F.Q.Q.Q.s. .l.M.l.U 5.+X+X+Xs.t - H 7.F.{.+X{.              ",
"                        - $ 4 7.+X+X+X+X+X+X+X+X+X{.  - $ - l.+X+X+X+X{.H - r.+X+X+X+XQ.g X 9 B  .  _ z 9 X _ +X+X{.r.{.+X+X,.s 5.F.5.z $ $ v ,.l.F.M.l.7.H 4 ) s.l.l.! s.Q.F.! $ $ X ) +X+X+X+Xl.5.l.F.l. .s ,.{.{.{.M.+X+X+X+X+X_ 5.{.+X{.F.{.+X+X{.          ",
"                        $ $ ! +X+X+X+XT.7.s.{.+X+X+XM.4 $ - s.+X+X+X+X+Xl.U {.+X+X+X+XQ.s U F.{.{.+X+X{.F.B _ +X+X{.r.{.+X+XF.T.+X+X+XQ.z _ {.+X+X+X+X+X+X+X .7.+X+X+X+X+X+X+XQ.s X $ g T.+X+X+X+X+X+X+X+X{.7.7.+X+X{.s.Q.+X+X+XT.r.{.+X+XM.+.F.+X+X+X          ",
"                        $ $ r.+X+X+X+X  $ - +.+X+X+XF.9 $ - s.+X+X+X+X+X{.Q.+X+X+X+X+XQ._ Q.+X+Xl.,.T.+X+XF.5.+X+X{.r.{.+X+X{.M.Q.+X+X+Xr.T.+X+XT.B H Q.+X+XT.M.+X+X+X5.l.+X+X+XU X $ - B 5.M.Q.F.M.{.+X+X+XQ.M.+X+X{.B ) +X+X+X) ) +X+X+XT.l.F.T.T.{.          ",
"                        $ - s.+X+X+X  $ X X U +X+X+XF.9 $ - s.+X+X{.Q.+X+X+X+XQ.Q.+X+XQ.s.+X+X+XQ.T.Q.{.{.Q.M.+X+X{.r.{.+X+Xr.4 ) +X+X+XM.{.+X+Xs.$ 4 F.+X+XQ.F.+X+X{.v  .{.M.7.s X $ ) M.l.F.Q.U g l.+X+X+XQ.M.+X+X{.z U +X+X+XM.7.{.+X+Xs.H 7.T.T.{.          ",
"                        $ $ 7.+X+X+XF.z r v M.+X+X+XM.4 $ - s.+X+X{.+.Q.+X+X+X+.M.+X+XQ.s.+X+X+Xr.U 5.M.M.l.l.+X+X{.r.{.+X+X,.X B +X+X+Xr.T.+X+XQ.) +.{.+X+Xl.s.+X+X+X        4 $ $ $ H +X+X+X+XQ.T.{.+X+X+Xr.7.+X+X{.z H +X+X+X+X .s.+X+X+X{.+X+X+X{.          ",
"                          $ H {.+X+X+X{.T.{.+X+X+X+Xr.- $ - s.+X+X{.z 5.+X+XF.s M.+X+XQ.) Q.+X+XT.s.Q.+X+XM.7.+X+X{.r.{.+X+X,.X H +X+X+X ._ {.+X+X+X+X+X+XQ.B 7.+X+X{.              $ 4 ,.{.{.+X+X+X+X{.{.F.s ,.+X{.{.!   T.+X+X+X .    {.{.Q.{.{.              ",
"                            4 7.{.+X+X+X+X+X+X{.{.    - $ - l.+X+X{.v z {.+X5.- M.+X+X{.H ,.{.{.+X+X+X{.{.U  .+X+X{.s.Q.{.{.s.  U {.+X+X      {.{.+X+X{.                                                                                                        ",
"                                  Q.{.{.{.{.{.                                                                                                                                                                                                                  ",
"                                                                                                                                                                                                                                                                ",
"                                                                                                                                                                                                                                                                ",
"                                                                                                                                                                                                                                                                ",
"                                                                                                                                                                                                                                                                ",
"                                                                                                                                                                                                                                                                ",
"                                                                                                                                                                                                                                                                ",
"                                                                                                                                                                                                                                                                ",
"                                                                                                                                                                                                                                                                ",
"                                                                                                                                                                                                                                                                ",
"                                                                                                                                                                                                                                                                ",
"                                                                                                                                                                                                                                                                ",
"                                                                                                                                                                                                                                                                ",
"                                                                                                                                                                                                                                                                ",
"                                                                                                                                                                                                                                                                ",
"                                                                                                                                                                                                                                                                ",
"                                                                                                                                                                                                                                                                ",
"                                                                                                                                                                                                                                                                ",
"                                                                                                                                                                                                                                                                ",
"                                                                                                                                                                                                                                                                ",
"                                                                                                                                                                                                                                                                ",
"                                                                                                                                                                                                                                                                "
};
