/* XPM */
static char *oms_311[] = {
/* columns rows colors chars-per-pixel */
"128 54 186 2 ",
"   c #00000000",
".  c #FF0C0C0C",
"X  c #FF0D0D0D",
"o  c #FF0E0E0E",
"O  c #FF0F0F0F",
"+  c #FF101010",
"@  c #FF111111",
"#  c #FF121212",
"$  c #FF131313",
"%  c #FF141414",
"&  c #FF151515",
"*  c #FF161616",
"=  c #FF171717",
"-  c #FF181818",
";  c #FF191919",
":  c #FF1A1A1A",
">  c #FF1B1B1B",
",  c #FF1C1C1C",
"<  c #FF1D1D1D",
"1  c #FF1E1E1E",
"2  c #FF1F1F1F",
"3  c #FF202020",
"4  c #FF212121",
"5  c #FF222222",
"6  c #FF242424",
"7  c #FF252525",
"8  c #FF272727",
"9  c #FF282828",
"0  c #FF292929",
"q  c #FF2A2A2A",
"w  c #FF2B2B2B",
"e  c #FF2C2C2C",
"r  c #FF2D2D2D",
"t  c #FF2F2F2F",
"y  c #FF303030",
"u  c #FF323232",
"i  c #FF343434",
"p  c #FF373737",
"a  c #FF3A3A3A",
"s  c #FF3B3B3B",
"d  c #FF3D3D3D",
"f  c #FF3E3E3E",
"g  c #FF414141",
"h  c #FF424242",
"j  c #FF454545",
"k  c #FF464646",
"l  c #FF494949",
"z  c #FF4A4A4A",
"x  c #FF4B4B4B",
"c  c #FF4E4E4E",
"v  c #FF515151",
"b  c #FF535353",
"n  c #FF565656",
"m  c #FF575757",
"M  c #FF5A5A5A",
"N  c #FF5B5B5B",
"B  c #FF5C5C5C",
"V  c #FF5D5D5D",
"C  c #FF5E5E5E",
"Z  c #FF5F5F5F",
"A  c #FF606060",
"S  c #FF616161",
"D  c #FF626262",
"F  c #FF636363",
"G  c #FF656565",
"H  c #FF666666",
"J  c #FF676767",
"K  c #FF686868",
"L  c #FF696969",
"P  c #FF6A6A6A",
"I  c #FF6C6C6C",
"U  c #FF6E6E6E",
"Y  c #FF707070",
"T  c #FF717171",
"R  c #FF727272",
"E  c #FF737373",
"W  c #FF747474",
"Q  c #FF757575",
"!  c #FF767676",
"~  c #FF787878",
"^  c #FF797979",
"/  c #FF7D7D7D",
"(  c #FF7E7E7E",
")  c #FF808080",
"_  c #FF838383",
"`  c #FF868686",
"'  c #FF888888",
"]  c #FF8A8A8A",
"[  c #FF8C8C8C",
"{  c #FF8D8D8D",
"}  c #FF8E8E8E",
"|  c #FF929292",
" . c #FF939393",
".. c #FF969696",
"X. c #FF999999",
"o. c #FF9B9B9B",
"O. c #FF9C9C9C",
"+. c #FF9D9D9D",
"@. c #FF9F9F9F",
"#. c #FFA0A0A0",
"$. c #FFA2A2A2",
"%. c #FFA3A3A3",
"&. c #FFA4A4A4",
"*. c #FFA7A7A7",
"=. c #FFA8A8A8",
"-. c #FFA9A9A9",
";. c #FFABABAB",
":. c #FFACACAC",
">. c #FFADADAD",
",. c #FFAEAEAE",
"<. c #FFB0B0B0",
"1. c #FFB1B1B1",
"2. c #FFB2B2B2",
"3. c #FFB2B2B2",
"4. c #FFB4B4B4",
"5. c #FFB5B5B5",
"6. c #FFB7B7B7",
"7. c #FFB8B8B8",
"8. c #FFB9B9B9",
"9. c #FFBBBBBB",
"0. c #FFBCBCBC",
"q. c #FFBDBDBD",
"w. c #FF808080",
"e. c #FFBFBFBF",
"r. c #FFC0C0C0",
"t. c #FFC3C3C3",
"y. c #FFC4C4C4",
"u. c #FFC5C5C5",
"i. c #FFC6C6C6",
"p. c #FFC7C7C7",
"a. c #FFC8C8C8",
"s. c #FFC9C9C9",
"d. c #FFCACACA",
"f. c #FFCBCBCB",
"g. c #FFCCCCCC",
"h. c #FFCDCDCD",
"j. c #FFCECECE",
"k. c #FFCFCFCF",
"l. c #FFD0D0D0",
"z. c #FFD1D1D1",
"x. c #FFD2D2D2",
"c. c #FFD3D3D3",
"v. c #FFD4D4D4",
"b. c #FFD5D5D5",
"n. c #FFD6D6D6",
"m. c #FFD7D7D7",
"M. c #FFD8D8D8",
"N. c #FFD9D9D9",
"B. c #FFDADADA",
"V. c #FFDBDBDB",
"C. c #FFDCDCDC",
"Z. c #FFDDDDDD",
"A. c #FFDEDEDE",
"S. c #FFDFDFDF",
"D. c #FFE0E0E0",
"F. c #FFE1E1E1",
"G. c #FFE2E2E2",
"H. c #FFE3E3E3",
"J. c #FFE4E4E4",
"K. c #FFE6E6E6",
"L. c #FFE6E6E6",
"P. c #FFE7E7E7",
"I. c #FFE8E8E8",
"U. c #FFE9E9E9",
"Y. c #FFEAEAEA",
"T. c #FFEBEBEB",
"R. c #FFECECEC",
"E. c #FFEDEDED",
"W. c #FFEEEEEE",
"Q. c #FFEFEFEF",
"!. c #FFF0F0F0",
"~. c #FFF1F1F1",
"^. c #FFF2F2F2",
"/. c #FFF3F3F3",
"(. c #FFF4F4F4",
"). c #FFF5F5F5",
"_. c #FFF6F6F6",
"`. c #FFF7F7F7",
"'. c #FFF8F8F8",
"]. c #FFF9F9F9",
"[. c #FFFAFAFA",
"{. c #FFFBFBFB",
"}. c #FFFCFCFC",
"|. c #FFFDFDFD",
" X c #FFFEFEFE",
".X c #FFFFFFF1",
/* pixels */
"                                                                                                                                                                                                                                                                ",
"                                                                                                                                                                                                                                                                ",
"                                                                                                                                                                                                                                                                ",
"                                                                                                                                                                                                                                                                ",
"                                                                                                                                                                                                                                                                ",
"                                                                                                                                                                                                                                                                ",
"                                                                                                                                                                                                                                                                ",
"                                                                                                                                                                                                                                                                ",
"                                                                                                                                                                                                                                                                ",
"                                                                                                                                                                                                                                                                ",
"                                                                                                                                                                                                                                                                ",
"                                                                                                                                                                                                                                                                ",
"                                                                                                                                                                                                                                                                ",
"                                                                                                                                                                                                                                                                ",
"                                                                                                                                                                                                                                                                ",
"                                                                                                                                                                                                                                                                ",
"                                                                                                                                                                                                                                                                ",
"                                                                                                                                                                                                                                                                ",
"                                                        & & & >                                                                                                                                                                                                 ",
"                                      `.`.`.l._ 8 & & & 8 > & & & > j                                                                                                                                                                                           ",
"                                    [.[.[.[.[.[.7.8 & > 3.k.3.) > & d y 8 > & & & 8 t & & 8 8                                                                                                                                                                   ",
"                                  [.[.[.L.k.Q.[.[.) & > l.[.[.Q.d t C.Q.C.] & & & & & & & > > R                                                                                                                                                                 ",
"                                  `.[.`.A > R `.[.7.& > l.[.[.[.R L [.[.[.3.& . . & & & c k.3._ ] L t & & & & & & & & )                                                                                                                                         ",
"                                  `.[.Q.d . t L.[.k.> > l.[.[.[.7.7.[.[.[.,.& j n j 8 . V [.[.p.`.`.V . & & & & & & & )                                                                                                                                         ",
"                                  [.[.[.| 8 A `.[.k.> > l.[.[.[.`.`.[.[.[.3.] Q.`.`.k.A V [.`.7.`.`.V . & & & & . & . j t 8                                                                                                                                     ",
"                                    [.[.`.C.Q.[.[.3.& > l.[.Q.Q.[.[.`.[.[.l.L.[.C.p.[.L.| `.`.7.`.`.| *.3.V & > d j y > . & > > & & & > j         p.| c > & & & & & & > d                                                                                       ",
"                                      [.[.[.[.[.`.A & > l.[.C.,.[.[.p.Q.[.L.Q.[.Q.l.`.[.C.`.`.7.`.[.`.[.[.C.c ,.Q.`.L.7.c y L c 8 t 8 & & > 7.[.[.[.`.Q.*.y ] O.A & & & & & & & t d                                                                             ",
"                                        `.`.`.`.*.> &   L.[.l.L `.Q.R Q.[.C.Q.[.k.O.l.C.L.[.`.7.`.[.p.k.[.`.3.`.[.Q.Q.[.C.| [.`.7.C.k.j . t L.[.`.p.C.[.[.O.k.[.7.n ,.] y & & & & & & > |                                                                       ",
"                                                          [.l.j Q.k.c Q.[.7.7.[.L.7.Q.L.C.[.`.7.`.[.A L [.`.l.[.`.L R `.`.l.`.[.[.[.[.O.& t C.[.`.,.,.C.k.O.,.C.*._ [.[.V . & . . & & & c                                                                       ",
"                                                                        [.,.R [.[.[.[.Q.,.`.`.7.`.`.V V [.`.k.[.`.n c `.[.[.[.[.*.C.[.7.> & | [.[.[.[.`.k.V p.`.l.C.[.[.,.8 c L V y & & & & & & & 8 A                                                           ",
"                                                                                          [.`.p.`.`.V A [.`.O.L.[.k.k.[.[.C.[.`.A ] l.,.& > n ,.C.L.`.[.[.p.l.[.L.Q.[.[.L.O.Q.[.[.L.| > & & & & & & t                                                           ",
"                                                                                                        `.`.R 7.[.[.[.[.C.O.[.`.V & 8 8 & y C.L.C.L O.[.[.Q.L.[.p.*.[.`.k.L.[.L.3.`.[.L . & & & & & & )                                                         ",
"                                                                                                                    Q.Q.    [.`.A . &       `.[.[.C.C.[.[.L.L.[.3.R [.`.) l.[.`.C.`.[.,.& & & & & & &                                                           ",
"                                                                                                                                              `.[.[.[.[.[.,.l.[.7.R [.[.l.L.[.l.] p.C.*.& & & & & & > )                                                         ",
"                                                                                                                                                    `.`.    L.[.7.V `.[.L.3.[.`.k.Q.`.*.& & & & & & y                                                           ",
"                                                                                                                                                                            `.[.[.[.`.R . & &                                                                   ",
"                                                                                                                                                                                                                                                                ",
"                                                                                                                                                                                                                                                                ",
"                                                                                                                                                                                                                                                                ",
"                                                                                                                                                                                                                                                                ",
"                                                                                                                                                                                                                                                                ",
"                                                                                                                                                                                                                                                                ",
"                                                                                                                                                                                                                                                                ",
"                                                                                                                                                                                                                                                                ",
"                                                                                                                                                                                                                                                                ",
"                                                                                                                                                                                                                                                                ",
"                                                                                                                                                                                                                                                                ",
"                                                                                                                                                                                                                                                                ",
"                                                                                                                                                                                                                                                                ",
"                                                                                                                                                                                                                                                                ",
"                                                                                                                                                                                                                                                                ",
"                                                                                                                                                                                                                                                                ",
"                                                                                                                                                                                                                                                                ",
"                                                                                                                                                                                                                                                                "
};
