/* XPM */
static char *oms_312[] = {
/* columns rows colors chars-per-pixel */
"128 54 197 2 ",
"   c #00000000",
".  c #FF0B0B0B",
"X  c #FF0C0C0C",
"o  c #FF0D0D0D",
"O  c #FF0E0E0E",
"+  c #FF0F0F0F",
"@  c #FF101010",
"#  c #FF111111",
"$  c #FF121212",
"%  c #FF131313",
"&  c #FF141414",
"*  c #FF151515",
"=  c #FF161616",
"-  c #FF171717",
";  c #FF181818",
":  c #FF191919",
">  c #FF1A1A1A",
",  c #FF1B1B1B",
"<  c #FF1C1C1C",
"1  c #FF1D1D1D",
"2  c #FF1E1E1E",
"3  c #FF1F1F1F",
"4  c #FF202020",
"5  c #FF212121",
"6  c #FF222222",
"7  c #FF232323",
"8  c #FF252525",
"9  c #FF262626",
"0  c #FF282828",
"q  c #FF292929",
"w  c #FF2A2A2A",
"e  c #FF2D2D2D",
"r  c #FF2F2F2F",
"t  c #FF303030",
"y  c #FF313131",
"u  c #FF333333",
"i  c #FF343434",
"p  c #FF363636",
"a  c #FF373737",
"s  c #FF383838",
"d  c #FF3A3A3A",
"f  c #FF3B3B3B",
"g  c #FF3D3D3D",
"h  c #FF3E3E3E",
"j  c #FF3F3F3F",
"k  c #FF414141",
"l  c #FF424242",
"z  c #FF434343",
"x  c #FF444444",
"c  c #FF464646",
"v  c #FF474747",
"b  c #FF484848",
"n  c #FF494949",
"m  c #FF4A4A4A",
"M  c #FF4B4B4B",
"N  c #FF4E4E4E",
"B  c #FF505050",
"V  c #FF515151",
"C  c #FF525252",
"Z  c #FF535353",
"A  c #FF545454",
"S  c #FF555555",
"D  c #FF565656",
"F  c #FF575757",
"G  c #FF585858",
"H  c #FF5B5B5B",
"J  c #FF5C5C5C",
"K  c #FF606060",
"L  c #FF626262",
"P  c #FF636363",
"I  c #FF646464",
"U  c #FF656565",
"Y  c #FF666666",
"T  c #FF676767",
"R  c #FF686868",
"E  c #FF696969",
"W  c #FF6A6A6A",
"Q  c #FF6C6C6C",
"!  c #FF6D6D6D",
"~  c #FF6E6E6E",
"^  c #FF707070",
"/  c #FF737373",
"(  c #FF767676",
")  c #FF787878",
"_  c #FF7D7D7D",
"`  c #FF7E7E7E",
"'  c #FF808080",
"]  c #FF808080",
"[  c #FF818181",
"{  c #FF828282",
"}  c #FF848484",
"|  c #FF858585",
" . c #FF868686",
".. c #FF878787",
"X. c #FF888888",
"o. c #FF898989",
"O. c #FF8A8A8A",
"+. c #FF8B8B8B",
"@. c #FF8C8C8C",
"#. c #FF8D8D8D",
"$. c #FF8E8E8E",
"%. c #FF8F8F8F",
"&. c #FF909090",
"*. c #FF939393",
"=. c #FF949494",
"-. c #FF959595",
";. c #FF969696",
":. c #FF979797",
">. c #FF989898",
",. c #FF999999",
"<. c #FF9A9A9A",
"1. c #FF9B9B9B",
"2. c #FF9D9D9D",
"3. c #FF9E9E9E",
"4. c #FF9F9F9F",
"5. c #FFA0A0A0",
"6. c #FFA2A2A2",
"7. c #FFA3A3A3",
"8. c #FFA5A5A5",
"9. c #FFA6A6A6",
"0. c #FFA7A7A7",
"q. c #FFAAAAAA",
"w. c #FFACACAC",
"e. c #FFADADAD",
"r. c #FFAEAEAE",
"t. c #FFB0B0B0",
"y. c #FFB1B1B1",
"u. c #FFB2B2B2",
"i. c #FFB2B2B2",
"p. c #FFB4B4B4",
"a. c #FFB5B5B5",
"s. c #FFB6B6B6",
"d. c #FFB7B7B7",
"f. c #FFB8B8B8",
"g. c #FFBABABA",
"h. c #FFBBBBBB",
"j. c #FFBDBDBD",
"k. c #FF808080",
"l. c #FFC0C0C0",
"z. c #FFC1C1C1",
"x. c #FFC2C2C2",
"c. c #FFC3C3C3",
"v. c #FFC5C5C5",
"b. c #FFC7C7C7",
"n. c #FFC8C8C8",
"m. c #FFC9C9C9",
"M. c #FFCACACA",
"N. c #FFCBCBCB",
"B. c #FFCCCCCC",
"V. c #FFCDCDCD",
"C. c #FFCECECE",
"Z. c #FFCFCFCF",
"A. c #FFD0D0D0",
"S. c #FFD1D1D1",
"D. c #FFD2D2D2",
"F. c #FFD3D3D3",
"G. c #FFD4D4D4",
"H. c #FFD6D6D6",
"J. c #FFD8D8D8",
"K. c #FFD9D9D9",
"L. c #FFDADADA",
"P. c #FFDBDBDB",
"I. c #FFDCDCDC",
"U. c #FFDDDDDD",
"Y. c #FFDEDEDE",
"T. c #FFDFDFDF",
"R. c #FFE0E0E0",
"E. c #FFE2E2E2",
"W. c #FFE3E3E3",
"Q. c #FFE4E4E4",
"!. c #FFE6E6E6",
"~. c #FFE6E6E6",
"^. c #FFE7E7E7",
"/. c #FFE8E8E8",
"(. c #FFE9E9E9",
"). c #FFEAEAEA",
"_. c #FFEBEBEB",
"`. c #FFECECEC",
"'. c #FFEDEDED",
"]. c #FFEEEEEE",
"[. c #FFEFEFEF",
"{. c #FFF0F0F0",
"}. c #FFF1F1F1",
"|. c #FFF2F2F2",
" X c #FFF3F3F3",
".X c #FFF4F4F4",
"XX c #FFF5F5F5",
"oX c #FFF6F6F6",
"OX c #FFF7F7F7",
"+X c #FFF8F8F8",
"@X c #FFF9F9F9",
"#X c #FFFAFAFA",
"$X c #FFFBFBFB",
"%X c #FFFCFCFC",
"&X c #FFFDFDFD",
"*X c #FFFEFEFE",
"=X c #FFFFFFF1",
/* pixels */
"                                                                                                                                                                                                                                                                ",
"                                                                                                                                                                                                                                                                ",
"                                                                                                                                                                                                                                                                ",
"                                                                                                                                                                                                                                                                ",
"                                                                                                                                                                                                                                                                ",
"                                                                                                                                                                                                                                                                ",
"                                                                                                                                                                                                                                                                ",
"                                                                                                                                                                                                                                                                ",
"                                                                                                                                                                                                                                                                ",
"                                                                                                                                                                                                                                                                ",
"                                                                                                                                                                                                                                                                ",
"                                                                                                                                                                                                                                                                ",
"                                                                                                                                                                                                                                                                ",
"                                                                                                                                                                                                                                                                ",
"                                                                                                                                                                                                                                                                ",
"                                                                                                                                                                                                                                                                ",
"                                                                                                                                                                                                                                                                ",
"                                                                                                                                                                                                                                                                ",
"                                                                                                                                                                                                                                                                ",
"                                    XX+XXXV.O.y $ $ $ $ $ $ $ $ 1 b                                                                                                                                                                                             ",
"                                  +X+X+X+X+X+XS.x $ $ F k.9.O.j $ 1 y 6 1 $ $ $ 1 y $ $ 6 $                                                                                                                                                                     ",
"                                  +X+XXXQ.XX+X+Xk.1 X Q +X+X+X9.$ I Q.I.V.F $ $ $ $ $ $ $ $ y                                                                                                                                                                   ",
"                                +X+X+X9.y J Q.+X'.j X Q +X+X+XI.y u.+X+X+X^ X $ $ $ $ $ F b.e.O.} I q $ $ $ $ $ $ $ 1 O.                                                                                                                                        ",
"                                +X+X+XQ X $ u.+XXXF X Q +X+X+XXXO.Q.+X+X+XQ 1 j x y 1 X Q +X+XI.+XXXI X $ $ $ $ $ $ $ O.                                                                                                                                        ",
"                                  +X+Xe.6 6 b.+XXXF X Q +X+X+X+X'.+X+X+X+X) 9.'.XX'.k.b Q +XXXI.+X+XI X $ $ $ $ $ $ $ x   q                                                                                                                                     ",
"                                  +X+XXXV.V.XX+XXXx X Q +X+XI.XX+X+XXX+XXXu.XX+XS.S.+XS.O.XX+XI.+XXXO.>.u.Q $ 1 j x j 6 $ $ 6 1 X $ $ 1 y       XXXXV.O.b $ $ 1 $ $ $ $ 1 y $ 1 6                                                                               ",
"                                    +X+X+X+X+X+Xb.6 X Q +X+X9.Q.+XXXV.+XXXV.XX+XI.I.+X+Xb.XXXXI.+X+XXX+X+X'.F =.'.XX'.S.) 6 I I j 6 y 1 $ $ F XX+X+X+X+X'.=.x u.u.I 1 1 $ $ $ $ $ q 1 1                                                                         ",
"                                      XXXXXXXXI.F $ X O.+X+X} u.+XV.=.+XXXb.XX+Xb.e.I.I.V.XXXXI.+X+XV.b.+X+Xu.'.+X'.Q.+XXXO.Q.+XS.V.'.=.1 X ) +X+XQ.u.'.+X+X=.Q.+X>.Q b.9.y $ $ $ $ $ $ y                                                                       ",
"                                                        XX+X) } +XO.} +XXX>.I.+XV.k.Q.Q.b.XXXXI.+X+XQ F XX+XI.+X+X=.b Q.+XI.'.+X+X+X+X'.x X Q +X+X'.>.b.S.k.O.b.S.O.>.+X+XF X $ $ X $ $ 1 F                                                                     ",
"                                                                      XX+X^ e.+X+X+X+X'.9.XXXXI.+X+XI b XX+XV.XX+X} q I.+XQ.'.+XS.9.+X+XJ X y S.+X+X+X+XXXk.I Q.XXS.'.+X+Xu.q Q O.} J 6 $ $ $ $ $ $ 1 I                                                         ",
"                                                                                          XXXXI.XX+XI F XX+X>.S.+XQ.k.XX+XI.'.+Xk.b k.V.F X y ^ b.I.I.XX+X+Xb.'.+XI.'.+X+XQ.u.+X+X+XXXk.y $ $ $ $ $ $ q                                                         ",
"                                                                                                        XX+X} >.+X+X+X+XXX=.Q.+Xb.$ 1 6 1 X } XX'.V.F V.+X+XQ.'.+Xe.9.+XXXb.'.+XQ.e.XX+X=.$ $ $ $ $ $ 1 }                                                       ",
"                                                                                                                            '.+Xb.1 $ $       +X+XXXI.'.+X+XI.'.+X>.} +XXX} Q.+XXXQ.XX+Xb.1 $ $ $ $ $ 1                                                         ",
"                                                                                                                                                XX+X+X+X+X'.=.'.+X>.) +X+XQ.'.+XI.) k.S.e.1 $ $ $ $ $ 1 O.                                                      ",
"                                                                                                                                                              XX+X>.Q +X+XI.9.+XXXI.XXXXk.1 $ $ $ $ $ j                                                         ",
"                                                                                                                                                                                XX+X+XXX) $                                                                     ",
"                                                                                                                                                                                                                                                                ",
"                                                                                                                                                                                                                                                                ",
"                                                                                                                                                                                                                                                                ",
"                                                                                                                                                                                                                                                                ",
"                                                                                                                                                                                                                                                                ",
"                                                                                                                                                                                                                                                                ",
"                                                                                                                                                                                                                                                                ",
"                                                                                                                                                                                                                                                                ",
"                                                                                                                                                                                                                                                                ",
"                                                                                                                                                                                                                                                                ",
"                                                                                                                                                                                                                                                                ",
"                                                                                                                                                                                                                                                                ",
"                                                                                                                                                                                                                                                                ",
"                                                                                                                                                                                                                                                                ",
"                                                                                                                                                                                                                                                                ",
"                                                                                                                                                                                                                                                                ",
"                                                                                                                                                                                                                                                                ",
"                                                                                                                                                                                                                                                                "
};
