/* XPM */
static char *oms_340[] = {
/* columns rows colors chars-per-pixel */
"128 54 200 2 ",
"   c #00000000",
".  c #FF060606",
"X  c #FF0A0A0A",
"o  c #FF0C0C0C",
"O  c #FF0D0D0D",
"+  c #FF0E0E0E",
"@  c #FF0F0F0F",
"#  c #FF101010",
"$  c #FF111111",
"%  c #FF121212",
"&  c #FF131313",
"*  c #FF141414",
"=  c #FF151515",
"-  c #FF161616",
";  c #FF171717",
":  c #FF191919",
">  c #FF1B1B1B",
",  c #FF1C1C1C",
"<  c #FF1D1D1D",
"1  c #FF1E1E1E",
"2  c #FF1F1F1F",
"3  c #FF212121",
"4  c #FF222222",
"5  c #FF232323",
"6  c #FF252525",
"7  c #FF262626",
"8  c #FF292929",
"9  c #FF2C2C2C",
"0  c #FF2D2D2D",
"q  c #FF2E2E2E",
"w  c #FF2F2F2F",
"e  c #FF303030",
"r  c #FF313131",
"t  c #FF323232",
"y  c #FF333333",
"u  c #FF343434",
"i  c #FF373737",
"p  c #FF393939",
"a  c #FF3B3B3B",
"s  c #FF3C3C3C",
"d  c #FF3D3D3D",
"f  c #FF3E3E3E",
"g  c #FF404040",
"h  c #FF424242",
"j  c #FF434343",
"k  c #FF444444",
"l  c #FF454545",
"z  c #FF464646",
"x  c #FF474747",
"c  c #FF4C4C4C",
"v  c #FF4F4F4F",
"b  c #FF515151",
"n  c #FF525252",
"m  c #FF535353",
"M  c #FF545454",
"N  c #FF575757",
"B  c #FF585858",
"V  c #FF595959",
"C  c #FF5A5A5A",
"Z  c #FF5B5B5B",
"A  c #FF5C5C5C",
"S  c #FF5D5D5D",
"D  c #FF5E5E5E",
"F  c #FF5F5F5F",
"G  c #FF616161",
"H  c #FF626262",
"J  c #FF656565",
"K  c #FF666666",
"L  c #FF686868",
"P  c #FF696969",
"I  c #FF6A6A6A",
"U  c #FF6C6C6C",
"Y  c #FF6D6D6D",
"T  c #FF6E6E6E",
"R  c #FF707070",
"E  c #FF717171",
"W  c #FF727272",
"Q  c #FF747474",
"!  c #FF757575",
"~  c #FF767676",
"^  c #FF787878",
"/  c #FF797979",
"(  c #FF7A7A7A",
")  c #FF7B7B7B",
"_  c #FF7C7C7C",
"`  c #FF7D7D7D",
"'  c #FF808080",
"]  c #FF808080",
"[  c #FF828282",
"{  c #FF838383",
"}  c #FF848484",
"|  c #FF868686",
" . c #FF878787",
".. c #FF888888",
"X. c #FF8A8A8A",
"o. c #FF8B8B8B",
"O. c #FF8C8C8C",
"+. c #FF8D8D8D",
"@. c #FF8E8E8E",
"#. c #FF8F8F8F",
"$. c #FF909090",
"%. c #FF919191",
"&. c #FF939393",
"*. c #FF949494",
"=. c #FF959595",
"-. c #FF969696",
";. c #FF979797",
":. c #FF999999",
">. c #FF9A9A9A",
",. c #FF9B9B9B",
"<. c #FF9C9C9C",
"1. c #FF9E9E9E",
"2. c #FF9F9F9F",
"3. c #FFA0A0A0",
"4. c #FFA1A1A1",
"5. c #FFA2A2A2",
"6. c #FFA4A4A4",
"7. c #FFA5A5A5",
"8. c #FFA6A6A6",
"9. c #FFA7A7A7",
"0. c #FFA9A9A9",
"q. c #FFABABAB",
"w. c #FFACACAC",
"e. c #FFADADAD",
"r. c #FFAEAEAE",
"t. c #FFB0B0B0",
"y. c #FFB1B1B1",
"u. c #FFB2B2B2",
"i. c #FFB2B2B2",
"p. c #FFB6B6B6",
"a. c #FFB7B7B7",
"s. c #FFB8B8B8",
"d. c #FFB9B9B9",
"f. c #FFBABABA",
"g. c #FFBBBBBB",
"h. c #FFBCBCBC",
"j. c #FFBDBDBD",
"k. c #FF808080",
"l. c #FFBFBFBF",
"z. c #FFC1C1C1",
"x. c #FFC2C2C2",
"c. c #FFC3C3C3",
"v. c #FFC4C4C4",
"b. c #FFC6C6C6",
"n. c #FFC7C7C7",
"m. c #FFC8C8C8",
"M. c #FFC9C9C9",
"N. c #FFCACACA",
"B. c #FFCBCBCB",
"V. c #FFCCCCCC",
"C. c #FFCDCDCD",
"Z. c #FFCECECE",
"A. c #FFCFCFCF",
"S. c #FFD0D0D0",
"D. c #FFD1D1D1",
"F. c #FFD2D2D2",
"G. c #FFD3D3D3",
"H. c #FFD4D4D4",
"J. c #FFD5D5D5",
"K. c #FFD6D6D6",
"L. c #FFD7D7D7",
"P. c #FFD8D8D8",
"I. c #FFDADADA",
"U. c #FFDBDBDB",
"Y. c #FFDCDCDC",
"T. c #FFDDDDDD",
"R. c #FFDEDEDE",
"E. c #FFDFDFDF",
"W. c #FFE0E0E0",
"Q. c #FFE1E1E1",
"!. c #FFE2E2E2",
"~. c #FFE3E3E3",
"^. c #FFE4E4E4",
"/. c #FFE6E6E6",
"(. c #FFE6E6E6",
"). c #FFE7E7E7",
"_. c #FFE8E8E8",
"`. c #FFE9E9E9",
"'. c #FFEAEAEA",
"]. c #FFEBEBEB",
"[. c #FFECECEC",
"{. c #FFEDEDED",
"}. c #FFEEEEEE",
"|. c #FFEFEFEF",
" X c #FFF0F0F0",
".X c #FFF1F1F1",
"XX c #FFF2F2F2",
"oX c #FFF3F3F3",
"OX c #FFF4F4F4",
"+X c #FFF5F5F5",
"@X c #FFF6F6F6",
"#X c #FFF7F7F7",
"$X c #FFF8F8F8",
"%X c #FFF9F9F9",
"&X c #FFFAFAFA",
"*X c #FFFBFBFB",
"=X c #FFFCFCFC",
"-X c #FFFDFDFD",
";X c #FFFEFEFE",
":X c #FFFFFFF1",
/* pixels */
"                                                                                                                                                                                                                                                                ",
"                                                                                                                                                                                                                                                                ",
"                                                                                                                                                                                                                                                                ",
"                                                                                                                                                                                                                                                                ",
"                                                                                                                                                                                                                                                                ",
"                                                                                                                                                                                                                                                                ",
"                                                                                                                                                                                                                                                                ",
"                                                                                                                                                                                                                                                                ",
"                                                                                                                                                                                                                                                                ",
"                                                                                                                                                                                                                                                                ",
"                                                                                                                                                                                                                                                                ",
"                                                                                                                                                                                                                                                                ",
"                                                                                                                                                                                                                                                                ",
"                                                                                                                                                                                                                                                                ",
"                                                                                                                                                                                                                                                                ",
"                                                                                                                                                                                                                                                                ",
"                                                                                                                                                                                                                                                                ",
"                                                                                                                                                                                                                                                                ",
"                                                                                                                                                                                                                                                                ",
"                                                                                                                                                                                                                                                                ",
"                                                                                                                                                                                                                                                                ",
"                            0 # # # # # 4                                                                                                                                                                                                                       ",
"              @X@X%X@X@X@X_.V./ 4 # # # i V._.^.H.b.j # # L w.6.t.k.n # # # # # D                 D n j 0 # # # # i                                                                                                                                             ",
"            @X%X%X%X%X%X%X%X%X%Xw.> # # j _.%X%X%X%X,.# i E.%X%X%X%X{ O # # # O n         @X@X@Xt._._._./ # # # # 0                                                         $.~ c 0 # # 0         O                                                             ",
"          @X%X%X%X_.6.$.k.@X%X%X@XD # # j _.%X%X%X%X^.f { %X%X%X%X%X{ O > f c c L   > O X.%X%X@Xk.@X%X%X{ O # # # 4                                               @X@X%X%X@X@X@X_.H.X.4 6.^.^.b.0 j D K L > # # f                                               ",
"          %X%X%X%X{ # # > t.%X%X%X$.# # j _.%X%X%X%X%Xt.E.%X%X%X%X%X{ n V._.@X%X@X^.w.f / %X%X@Xk.@X%X%X$.K w.k.,.j # > D X.b._.t.{ j # 4 D D L f 0 K D 4 # # O ~ %X%X%X%XE.H.@X%X%X%X$.t.@X@XE.i w.%X@X^.0 # # 0                                               ",
"          %X%X%X%X/ O O O $.%X%X%X,.# # j _.%X%X@X%X%X%X%X%X%X%X%X%X6.E.%X%X^.w.E.%X%XV.$.%X%X@Xk.@X%X%X^.@X%X%X%XV.f w.@X%X%X%X%X%X_.X.D @X@X_.k.V.@X_.t.4 # O K %X%X%X@X6.~ V.H.b.k.{ 6.H.H.b.X.E.%X%X@X{ > 4 D 6.b.$.L f # # # 0                             ",
"            %X%X%XE.~ n / ^.%X%X%X{ # # j _.%X%XE.E.%X%X%X@XH.%X%X%Xk.@X%X%X_.V.^.%X%X@Xb.%X%X@Xk.@X%X%X_.k._.%X%X@Xw.@X%X%XH.{ H.%X%X@X6.@X%X%X%X@X%X%X%XL O # f ^.%X%X%X%X@X@X_.^.k.c k.%X%X_.^.%X%X%X%X^.K V.@X%X@X%X@X^.,.4 # # f                           ",
"            %X%X%X%X%X@X%X%X%X%X^.f # # j _.%X%Xb.{ %X%X%Xk.X.%X%X%Xk.@X%X%XH.X.t.H.V.V.V.%X%X@Xk.@X%X%X$.# ,.%X%X@XH.%X%X%X~ . ~ %X%X%XH.@X%X%Xt.{ %X%X%X{ # # # L E.^._.@X%X%X%X%X%XH.V.%X%X_.k._.%X%X%XH.V.%X%X@Xw.k.%X%X%X/ # # 0                           ",
"              @X%X%X%X%X%X%X@XE.L # # O D @X%X%Xb.i H.%X@XD / %X%X%X$.V.%X%X_.w.H.@X@X^.k.%X%X@Xk.@X%X%X{ O X.%X%X@Xt.@X%X%Xw.f 6.%X%X%XV.@X%X%XX.i ,.6.k.X.      E.H.V.V.~ D H.%X%X%X_.^.%X%X^.f t.%X%X_.n V.%X%X@X^.^.@X@X%Xw.# # 4                           ",
"                    @X@X_._.              @X%X%XV.# t.@XH.4 X.%X%X%X{ D @X%X%X%X%X@X@Xw.$.%X%X@Xk.@X%X%X{ O $.%X%X@XL b.%X%X%X_.@X%X%XE.{ @X%X%XX.O # # >         %X%X%X%XV.w._.%X%X%XE.H.%X%X^.i w.%X%X@Xw.H.%X%X_.{ / b.H.H.$.# # 0                           ",
"                                                                                                              @X@X@X      @X%X@X@X@X_.  / @X%X%X$.O #               @X%X%X%X%X%X%X%X@XX.b.%X%X^.i ,.%X%X%X^.$.@X%X%X^.E.@X@X%XX.# #                             ",
"                                                                                                                                                                          _.@X@X_.        @X%X^.    %X@X@XE.j   %X@X%X%X%X@X^.                                  ",
"                                                                                                                                                                                                                                                                ",
"                                                                                                                                                                                                                                                                ",
"                                                                                                                                                                                                                                                                ",
"                                                                                                                                                                                                                                                                ",
"                                                                                                                                                                                                                                                                ",
"                                                                                                                                                                                                                                                                ",
"                                                                                                                                                                                                                                                                ",
"                                                                                                                                                                                                                                                                ",
"                                                                                                                                                                                                                                                                ",
"                                                                                                                                                                                                                                                                ",
"                                                                                                                                                                                                                                                                ",
"                                                                                                                                                                                                                                                                ",
"                                                                                                                                                                                                                                                                ",
"                                                                                                                                                                                                                                                                ",
"                                                                                                                                                                                                                                                                ",
"                                                                                                                                                                                                                                                                ",
"                                                                                                                                                                                                                                                                ",
"                                                                                                                                                                                                                                                                ",
"                                                                                                                                                                                                                                                                ",
"                                                                                                                                                                                                                                                                ",
"                                                                                                                                                                                                                                                                "
};
