/* XPM */
static char *oms_029[] = {
/* columns rows colors chars-per-pixel */
"128 54 191 2 ",
"   c #00000000",
".  c #FF0B0B0B",
"X  c #FF0D0D0D",
"o  c #FF0E0E0E",
"O  c #FF0F0F0F",
"+  c #FF101010",
"@  c #FF111111",
"#  c #FF121212",
"$  c #FF131313",
"%  c #FF141414",
"&  c #FF151515",
"*  c #FF161616",
"=  c #FF171717",
"-  c #FF181818",
";  c #FF191919",
":  c #FF1A1A1A",
">  c #FF1B1B1B",
",  c #FF1C1C1C",
"<  c #FF1D1D1D",
"1  c #FF1E1E1E",
"2  c #FF1F1F1F",
"3  c #FF212121",
"4  c #FF222222",
"5  c #FF232323",
"6  c #FF242424",
"7  c #FF252525",
"8  c #FF262626",
"9  c #FF292929",
"0  c #FF2A2A2A",
"q  c #FF2B2B2B",
"w  c #FF2C2C2C",
"e  c #FF2D2D2D",
"r  c #FF303030",
"t  c #FF313131",
"y  c #FF323232",
"u  c #FF333333",
"i  c #FF343434",
"p  c #FF353535",
"a  c #FF363636",
"s  c #FF3A3A3A",
"d  c #FF3B3B3B",
"f  c #FF3C3C3C",
"g  c #FF3F3F3F",
"h  c #FF404040",
"j  c #FF424242",
"k  c #FF444444",
"l  c #FF454545",
"z  c #FF464646",
"x  c #FF474747",
"c  c #FF494949",
"v  c #FF4A4A4A",
"b  c #FF4B4B4B",
"n  c #FF4C4C4C",
"m  c #FF4C4C4C",
"M  c #FF4E4E4E",
"N  c #FF515151",
"B  c #FF525252",
"V  c #FF535353",
"C  c #FF555555",
"Z  c #FF5C5C5C",
"A  c #FF5D5D5D",
"S  c #FF5E5E5E",
"D  c #FF5F5F5F",
"F  c #FF626262",
"G  c #FF666666",
"H  c #FF696969",
"J  c #FF6B6B6B",
"K  c #FF6C6C6C",
"L  c #FF6F6F6F",
"P  c #FF707070",
"I  c #FF717171",
"U  c #FF727272",
"Y  c #FF737373",
"T  c #FF747474",
"R  c #FF757575",
"E  c #FF767676",
"W  c #FF787878",
"Q  c #FF797979",
"!  c #FF7A7A7A",
"~  c #FF7B7B7B",
"^  c #FF7C7C7C",
"/  c #FF808080",
"(  c #FF808080",
")  c #FF818181",
"_  c #FF848484",
"`  c #FF858585",
"'  c #FF878787",
"]  c #FF888888",
"[  c #FF898989",
"{  c #FF8A8A8A",
"}  c #FF8B8B8B",
"|  c #FF8C8C8C",
" . c #FF8E8E8E",
".. c #FF8F8F8F",
"X. c #FF909090",
"o. c #FF929292",
"O. c #FF939393",
"+. c #FF949494",
"@. c #FF969696",
"#. c #FF989898",
"$. c #FF999999",
"%. c #FF9A9A9A",
"&. c #FF9C9C9C",
"*. c #FF9F9F9F",
"=. c #FFA0A0A0",
"-. c #FFA2A2A2",
";. c #FFA3A3A3",
":. c #FFA5A5A5",
">. c #FFA6A6A6",
",. c #FFA7A7A7",
"<. c #FFA9A9A9",
"1. c #FFAAAAAA",
"2. c #FFABABAB",
"3. c #FFACACAC",
"4. c #FFADADAD",
"5. c #FFAEAEAE",
"6. c #FFAFAFAF",
"7. c #FFB0B0B0",
"8. c #FFB1B1B1",
"9. c #FFB2B2B2",
"0. c #FFB2B2B2",
"q. c #FFB4B4B4",
"w. c #FFB5B5B5",
"e. c #FFB7B7B7",
"r. c #FFB8B8B8",
"t. c #FFB9B9B9",
"y. c #FFBBBBBB",
"u. c #FF808080",
"i. c #FFBFBFBF",
"p. c #FFC0C0C0",
"a. c #FFC1C1C1",
"s. c #FFC2C2C2",
"d. c #FFC3C3C3",
"f. c #FFC4C4C4",
"g. c #FFC6C6C6",
"h. c #FFC7C7C7",
"j. c #FFC8C8C8",
"k. c #FFC9C9C9",
"l. c #FFCACACA",
"z. c #FFCBCBCB",
"x. c #FFCCCCCC",
"c. c #FFCDCDCD",
"v. c #FFCECECE",
"b. c #FFCFCFCF",
"n. c #FFD0D0D0",
"m. c #FFD1D1D1",
"M. c #FFD2D2D2",
"N. c #FFD3D3D3",
"B. c #FFD4D4D4",
"V. c #FFD5D5D5",
"C. c #FFD7D7D7",
"Z. c #FFD8D8D8",
"A. c #FFD9D9D9",
"S. c #FFDADADA",
"D. c #FFDBDBDB",
"F. c #FFDCDCDC",
"G. c #FFDDDDDD",
"H. c #FFDEDEDE",
"J. c #FFDFDFDF",
"K. c #FFE0E0E0",
"L. c #FFE1E1E1",
"P. c #FFE2E2E2",
"I. c #FFE3E3E3",
"U. c #FFE4E4E4",
"Y. c #FFE6E6E6",
"T. c #FFE6E6E6",
"R. c #FFE7E7E7",
"E. c #FFE8E8E8",
"W. c #FFE9E9E9",
"Q. c #FFEAEAEA",
"!. c #FFEBEBEB",
"~. c #FFECECEC",
"^. c #FFEDEDED",
"/. c #FFEEEEEE",
"(. c #FFEFEFEF",
"). c #FFF0F0F0",
"_. c #FFF1F1F1",
"`. c #FFF2F2F2",
"'. c #FFF3F3F3",
"]. c #FFF4F4F4",
"[. c #FFF5F5F5",
"{. c #FFF6F6F6",
"}. c #FFF7F7F7",
"|. c #FFF8F8F8",
" X c #FFF9F9F9",
".X c #FFFAFAFA",
"XX c #FFFBFBFB",
"oX c #FFFCFCFC",
"OX c #FFFDFDFD",
"+X c #FFFEFEFE",
"@X c #FFFFFFFF",
/* pixels */
"                                                                                                                                                                                                                                                                ",
"                                                                                                                                                                                                                                                                ",
"                                                                                                                                                                                                                                                                ",
"                                                                                                                                                                                                                                                                ",
"                                                                                                                                                                                                                                                                ",
"                                                                                                                                                                                                                                                                ",
"                                                                                                                                                                                                                                                                ",
"                                                                                                                                                                                                                                                                ",
"                                                                                                                                                                                                                                                                ",
"                                                                                                                                                                                                                                                                ",
"                                                                                                                                                                                                                                                                ",
"                                                                                                                                                                                                                                                                ",
"                                                                                                                                                                                                                                                                ",
"                                                                                                                                                                                                                                                                ",
"                                                                                                                                                                                                                                                                ",
"                                                                                                                                                                                                                                                                ",
"                                                                                                                                                                                                                                                                ",
"                                                                                                                                                                                                                                                                ",
"                                                                                                                                                                                                                                                                ",
"                                                                                                                                                                                                                                                                ",
"                                                                                                                                                                                                                                                                ",
"                                                                                                                                                                                                                                                                ",
"                                                                                                                                                                              1 = = = = 5 G &.r.C.b.h.5...n = ..W.}.P.n V                                       ",
"                                  . =                   = = 1 n V       5 = = g T ..                x = = = t :.0.0...:.C.W.}.                                              5 = = = = q h.XXXXXXXXXXXXXXXXW.J 5.XXXXW.g &.XX}.}.)                               ",
"                            = = 5 T 0.b.H.P.}.}.}.    q = . x H.W.W.}.}.J . 1 0.XX}.}.XXW.          g . = . x W.XXXXb.H.XXXX}.                                5 5 5         t = = = . T XXXXXX}.5.O.P.}.W.P.:.O.C.C.b./ b.XXXXXX0.t t ..h.W.}.}.}.              ",
"                          = = t h.XXXXXXXXXXXXXXXX}.}.t = . n }.XXXXXXXXb.1 V }.XXXXXXXX5.. 1 x T   O.V t = x W.XXXXb.H.XXXXH.g ) H.0.J 1 = x &.h.H.C.b.r./ 5 T h.b.b./ h.W.P...1 = . ) XXXXXXXXb.0.P.P.b...g 5.XX}.W.H.XXXXXXXXXX..C.XXXXW.H.}.XX}.}.          ",
"                        1 = = :.XXXXXX}.C.h.P.XXXXXX}.S . . n }.XXXXXXXX}.T 0.XXXXXXXXXX&.t 5.P.}.}.XX}.P...V W.XXXXb.H.XXXXW.C.}.XXXX}./ G W.XXXXXX}.XXXXXX:.:.XXXXXX}.XXXXXXW.n . . x P.XXXXXXXXXXXXXXXX}.5.0.XXXXW.h.W.XXXXXXC.b.XXXXXXb.0.W.XXXX}.          ",
"                        = = q H.XXXXXXP.q 1 x H.XXXXXXT . . n }.XXXXXXXXXXP.}.XXXXXXXXXX5.r.XXXXW.5.h.XXXXXX:.W.XXXXb.H.XXXXXXP.P.XXXXXXb.C.XXXXW./ S H.XXXXW.h.XXXXXX5.h.XXXXXX/ . = 1 S 5.H.H.h.b.W.XXXXXXW.H.XXXXW.n 5.XXXX}.G 5.XXXXXXC.h.C.H.P.}.          ",
"                        = = t W.XXXXXX  = . = r.XXXXXX/ . . n }.XXXX}.}.XXXXXXXXW.}.XXXXr.P.XXXX}.H.P.}.}.}.C.W.XXXXb.C.XXXXW.x V }.XXXXH.P.XXXXH.5 = h.XXXX}.C.XXXXXXT / }.h.0.n . = / C.H.P.P.T V C.XXXXXXW.C.XXXXW.x &.XXXXXXb.h.XXXXXX5.T C.P.W.}.          ",
"                        5 = q P.XXXXXX&.t q G P.XXXXXXJ . = n }.XXXXb.r.XXXXXXH.&.XXXXXXh.P.XXXXP.) O.b.b.b.r.W.XXXXb.C.XXXXH.5 t W.XXXXC.C.XXXX}.O.) W.XXXXH.0.XXXXXX        1 = = . J }.XXXXXX}.W.}.XXXX}.:.0.XXXXW.x ) XXXXXXXX) b.XXXXXX}.XXXXXX            ",
"                          = = 5.XXXXXX}.P.H.}.XXXXXX}.n = = n }.XXXXr.V W.XXXX..T XXXXXX5.r.XXXX}.b.H.}.}.}.5.W.XXXXb.C.XXXXH.5 t W.XXXXh.J W.XXXXXXXXXXXX}.T &.XXXXXX              = 1 :.}.}.XXXXXX}.}.XXb.t 5.}.}.W.    }.XXXX}.      }.XX}.}.                ",
"                              x C.XXXXXXXXXXXXXXXX}.    = . n }.XXXXb.1 0.XXW.g T XXXXXX0.S P.XXXXXXXX}.}.r.S W.XXXXb.C.}.}.P.    W.XXXX        }.XXXX}.                                                                                                        ",
"                                    }.}.XX}.}.}.                                                                                                                                                                                                                ",
"                                                                                                                                                                                                                                                                ",
"                                                                                                                                                                                                                                                                ",
"                                                                                                                                                                                                                                                                ",
"                                                                                                                                                                                                                                                                ",
"                                                                                                                                                                                                                                                                ",
"                                                                                                                                                                                                                                                                ",
"                                                                                                                                                                                                                                                                ",
"                                                                                                                                                                                                                                                                ",
"                                                                                                                                                                                                                                                                ",
"                                                                                                                                                                                                                                                                ",
"                                                                                                                                                                                                                                                                ",
"                                                                                                                                                                                                                                                                ",
"                                                                                                                                                                                                                                                                ",
"                                                                                                                                                                                                                                                                ",
"                                                                                                                                                                                                                                                                ",
"                                                                                                                                                                                                                                                                ",
"                                                                                                                                                                                                                                                                ",
"                                                                                                                                                                                                                                                                ",
"                                                                                                                                                                                                                                                                ",
"                                                                                                                                                                                                                                                                ",
"                                                                                                                                                                                                                                                                "
};
