/* XPM */
static char *oms_162[] = {
/* columns rows colors chars-per-pixel */
"128 54 202 2 ",
"   c #00000000",
".  c #FF0B0B0B",
"X  c #FF0E0E0E",
"o  c #FF0F0F0F",
"O  c #FF101010",
"+  c #FF111111",
"@  c #FF121212",
"#  c #FF131313",
"$  c #FF141414",
"%  c #FF151515",
"&  c #FF161616",
"*  c #FF171717",
"=  c #FF181818",
"-  c #FF191919",
";  c #FF1A1A1A",
":  c #FF1B1B1B",
">  c #FF1C1C1C",
",  c #FF1E1E1E",
"<  c #FF1F1F1F",
"1  c #FF202020",
"2  c #FF212121",
"3  c #FF222222",
"4  c #FF232323",
"5  c #FF252525",
"6  c #FF262626",
"7  c #FF272727",
"8  c #FF282828",
"9  c #FF2A2A2A",
"0  c #FF2B2B2B",
"q  c #FF2C2C2C",
"w  c #FF2D2D2D",
"e  c #FF2E2E2E",
"r  c #FF2F2F2F",
"t  c #FF303030",
"y  c #FF313131",
"u  c #FF323232",
"i  c #FF333333",
"p  c #FF353535",
"a  c #FF373737",
"s  c #FF383838",
"d  c #FF393939",
"f  c #FF3A3A3A",
"g  c #FF3B3B3B",
"h  c #FF3C3C3C",
"j  c #FF3D3D3D",
"k  c #FF3E3E3E",
"l  c #FF3F3F3F",
"z  c #FF404040",
"x  c #FF414141",
"c  c #FF424242",
"v  c #FF434343",
"b  c #FF444444",
"n  c #FF454545",
"m  c #FF464646",
"M  c #FF474747",
"N  c #FF484848",
"B  c #FF494949",
"V  c #FF4A4A4A",
"C  c #FF4C4C4C",
"Z  c #FF4E4E4E",
"A  c #FF505050",
"S  c #FF515151",
"D  c #FF525252",
"F  c #FF535353",
"G  c #FF545454",
"H  c #FF555555",
"J  c #FF565656",
"K  c #FF575757",
"L  c #FF585858",
"P  c #FF595959",
"I  c #FF5B5B5B",
"U  c #FF5C5C5C",
"Y  c #FF5D5D5D",
"T  c #FF5E5E5E",
"R  c #FF5F5F5F",
"E  c #FF606060",
"W  c #FF616161",
"Q  c #FF626262",
"!  c #FF636363",
"~  c #FF646464",
"^  c #FF656565",
"/  c #FF696969",
"(  c #FF6A6A6A",
")  c #FF6C6C6C",
"_  c #FF6D6D6D",
"`  c #FF6E6E6E",
"'  c #FF6F6F6F",
"]  c #FF707070",
"[  c #FF717171",
"{  c #FF727272",
"}  c #FF737373",
"|  c #FF757575",
" . c #FF767676",
".. c #FF787878",
"X. c #FF7A7A7A",
"o. c #FF7B7B7B",
"O. c #FF7C7C7C",
"+. c #FF7D7D7D",
"@. c #FF808080",
"#. c #FF808080",
"$. c #FF828282",
"%. c #FF848484",
"&. c #FF868686",
"*. c #FF878787",
"=. c #FF8A8A8A",
"-. c #FF8B8B8B",
";. c #FF8C8C8C",
":. c #FF8D8D8D",
">. c #FF8E8E8E",
",. c #FF8F8F8F",
"<. c #FF909090",
"1. c #FF939393",
"2. c #FF949494",
"3. c #FF959595",
"4. c #FF969696",
"5. c #FF989898",
"6. c #FF999999",
"7. c #FF9E9E9E",
"8. c #FFA0A0A0",
"9. c #FFA2A2A2",
"0. c #FFA3A3A3",
"q. c #FFA4A4A4",
"w. c #FFA5A5A5",
"e. c #FFA6A6A6",
"r. c #FFA8A8A8",
"t. c #FFA9A9A9",
"y. c #FFABABAB",
"u. c #FFACACAC",
"i. c #FFADADAD",
"p. c #FFB0B0B0",
"a. c #FFB1B1B1",
"s. c #FFB2B2B2",
"d. c #FFB2B2B2",
"f. c #FFB7B7B7",
"g. c #FFB8B8B8",
"h. c #FFBABABA",
"j. c #FFBBBBBB",
"k. c #FFBCBCBC",
"l. c #FFBDBDBD",
"z. c #FF808080",
"x. c #FFBFBFBF",
"c. c #FFC0C0C0",
"v. c #FFC1C1C1",
"b. c #FFC2C2C2",
"n. c #FFC4C4C4",
"m. c #FFC5C5C5",
"M. c #FFC6C6C6",
"N. c #FFC7C7C7",
"B. c #FFC8C8C8",
"V. c #FFCACACA",
"C. c #FFCBCBCB",
"Z. c #FFCCCCCC",
"A. c #FFCDCDCD",
"S. c #FFCECECE",
"D. c #FFCFCFCF",
"F. c #FFD0D0D0",
"G. c #FFD1D1D1",
"H. c #FFD2D2D2",
"J. c #FFD3D3D3",
"K. c #FFD5D5D5",
"L. c #FFD6D6D6",
"P. c #FFD7D7D7",
"I. c #FFD8D8D8",
"U. c #FFD9D9D9",
"Y. c #FFDADADA",
"T. c #FFDBDBDB",
"R. c #FFDCDCDC",
"E. c #FFDDDDDD",
"W. c #FFDEDEDE",
"Q. c #FFDFDFDF",
"!. c #FFE0E0E0",
"~. c #FFE1E1E1",
"^. c #FFE2E2E2",
"/. c #FFE3E3E3",
"(. c #FFE4E4E4",
"). c #FFE6E6E6",
"_. c #FFE6E6E6",
"`. c #FFE7E7E7",
"'. c #FFE8E8E8",
"]. c #FFE9E9E9",
"[. c #FFEAEAEA",
"{. c #FFEBEBEB",
"}. c #FFECECEC",
"|. c #FFEDEDED",
" X c #FFEEEEEE",
".X c #FFEFEFEF",
"XX c #FFF0F0F0",
"oX c #FFF1F1F1",
"OX c #FFF2F2F2",
"+X c #FFF3F3F3",
"@X c #FFF4F4F4",
"#X c #FFF5F5F5",
"$X c #FFF6F6F6",
"%X c #FFF7F7F7",
"&X c #FFF8F8F8",
"*X c #FFF9F9F9",
"=X c #FFFAFAFA",
"-X c #FFFBFBFB",
";X c #FFFCFCFC",
":X c #FFFDFDFD",
">X c #FFFEFEFE",
",X c #FFFFFFF1",
/* pixels */
"                                                                                                                                                                                                                                                                ",
"                                                                                                                                                                                                                                                                ",
"                                                                                                                                                                                                                                                                ",
"                                                                                                                                                                                                                                                                ",
"                                                                                                                                                                                                                                                                ",
"                                                                                                                                                                                                                                                                ",
"                                                                                                                                                                                                                                                                ",
"                                                                                                                                                                                                                                                                ",
"                                                                                                                                                                                                                                                                ",
"                                                                                                                                                                                                                                                                ",
"                                                                                                                                                                                                                                                                ",
"                                                                                                                                                                                                                                                                ",
"                                                                                                                                                                                                                                                                ",
"                                                                                                                                                                                                                                                                ",
"                                                                                                                                                                                                                                                                ",
"                            f f f C           % : 3 8 Q : : 3 8 I       A A                                                                                                                                                                                     ",
"                          % % % % % % 3 x   % % % % % 3 % % % % x   : % % % : : 3 a C                                                                                                                                                                           ",
"                        o % % % % % % % % 3 % % % % : % % % % % 3 % % % % % % % % % % 3                                                                                                                                                                         ",
"                        x C x a 3 % % % 3 x.x.9.{ 8 9.p.4./ % % 3 8 8 3 : % % % % % % % f                                                                                                                                                                       ",
"                      U. X$X$X XH.9.C : /  X&X&XH.a H.&X&XZ.x t.U.!.U.H.x.9.o.x : % % % a         8 f Q                                                                                                                                                         ",
"                    $X&X&X&Xn.x.&X&X!.o.U.&X&X&X$Xt.n.H.H.t.4.$X&X&X&X$X$X&X&X X9.3 % %         % % % % 8 : 3 3 f         A                         : a f x                                                                                                     ",
"                     X!. X XU.U.$X&X&XH.n.$X&X&X&X!.!.&X&Xn.C :.n.U.H.o.:.$X&X&X&Xo.% a       o % % % % % % % % % C % % % % : : 8 x               % % % % % % % : : I                                                                                           ",
"                       X!.U.:.:.$X&X&XH.A !.&X&X!.o.U.&X&XZ.4. X$X$X$X X!.$X&X&X&X4.o % a   $.Q a % : % % % % % % % % % % % % % % % 3 / : % : : % % % % % % % % % % A                     3 f C A                                                               ",
"                      &X&X&X!.!.&X&X&X!.Z.$X&X&XZ.a !.&X&X!.!.&X&X&X&X$X$X$X$X$X!.A o % x $X&X&XU.4.n.x.9.A % 8 x C f 8 : % % % % % % % % 8 9.6.$.I x x a 3 % % % % A     x C I       % % % % % % : I       a x x I                                             ",
"                          $X&X&X&X&X$X  &X&X&X&XH.  &X&X&XU.U.&X&X&X!./ { Z.Z.t.Q 3 %     &X&X&X$X$X&X&X&X4.o.U.$X$X X!.n.:.a % % a f 8 % f  X&X&XZ.U.$X!.x.3 % % % f : % % % % : 3 % % % % % % % % 3 A % % % % % % : :.                                        ",
"                                            &X$X    &X&X&XZ.6.&X&X&X$XZ.n.$X$X X X6.      $X&X&Xx.n.&X&X&Xx.!.&X&X$XH.!.&X&XU.C { !. XU.9.Q !.&X&XH.U.&X&X!.3 % o o % % % % % : :.:.{ I x : % % % % o % o % % % % % : :.        % % % % : : 3 a Q               ",
"                                                                $X$X&X&X&X&X&X&X&X                  &X&X&XZ.$X&X&Xx.3 A  X&X&Xn.H.&X&X&X&X X$X&X&XH.U.&X&XU.3 a Q / Q C a % o 3 !.&X&X&X XQ % % { 6.$./ A a % % % % : :.    o % % % % % % % % % % a :.          ",
"                                                                                                    &X&X&Xt.U.&X&XH.f C  X&X&X X$X&X&X X:.p.&X&X&XH.U.&X&XU.o.!.&X&X$X$X!.p.A 3 U.&X&X&X&XZ.: f !.&X&X&X$Xx.% % % % : :.o.I A f 8 : % % % % % % % % 8           ",
"                                                                                                    $X&X&X9.t.&X&X&X!.!.&X&X&XU. X&X&XU.: f  X&X&XZ.U.&X&X!.U.&X&X$Xx.x.$X&X X{ U.&X&X&X&X$X/ 9.&X&X&X&X&Xn.: % % 8 9. X$X$X$X XU.x.o.8 % % % % % % % /         ",
"                                                                                                                $X$X&X&X$X&X$X  $X&X&XU.3 C $X&X&XH.U.&X&X XH.!.!. XU.U.$X&X&XH.!.&X&X&X&X&X!. X&X&X&X&X&Xn.: % % 6.&X&X&X&X&X&X&X&X&XH.A % % % % % % C         ",
"                                                                                                                                  $X&XU.    &X&X&XH.U.&X&X!.n.$X XU.$.4.$X&X&XU.!.&X&X XH.&X&X&X&X$X&X&X&Xn.: % : Z.&X&X&XZ.$.$.n.$X&X&XU.a % % % % % I         ",
"                                                                                                                                                      &X&X!.  &X&X&X$X X&X&X&Xn.!.&X&XU.{  X&X&X$Xt.$X&X&Xn.: % 3 H.&X&X$XA o o 3 x.&X&X&X/ % % % % :           ",
"                                                                                                                                                                  $X$X$X&X$X    $X&X&XU.f n.&X&Xx.A $X&X&Xn.: % : n.&X&X&X:.: % : p.&X&X&X$.o % % %             ",
"                                                                                                                                                                                      !.    &X$X$.  &X&X&Xn.: %     &X&X&X$Xn.6.p.$X&X&X&X{ o %                 ",
"                                                                                                                                                                                                        &XZ.          $X&X&X&X&X&X&X&X&X!.x                     ",
"                                                                                                                                                                                                                          $X$X&X$X$X&X$X                        ",
"                                                                                                                                                                                                                                                                ",
"                                                                                                                                                                                                                                                                ",
"                                                                                                                                                                                                                                                                ",
"                                                                                                                                                                                                                                                                ",
"                                                                                                                                                                                                                                                                ",
"                                                                                                                                                                                                                                                                ",
"                                                                                                                                                                                                                                                                ",
"                                                                                                                                                                                                                                                                ",
"                                                                                                                                                                                                                                                                ",
"                                                                                                                                                                                                                                                                ",
"                                                                                                                                                                                                                                                                ",
"                                                                                                                                                                                                                                                                ",
"                                                                                                                                                                                                                                                                ",
"                                                                                                                                                                                                                                                                ",
"                                                                                                                                                                                                                                                                ",
"                                                                                                                                                                                                                                                                ",
"                                                                                                                                                                                                                                                                ",
"                                                                                                                                                                                                                                                                "
};
