/* XPM */
static char *oms_214[] = {
/* columns rows colors chars-per-pixel */
"128 54 199 2 ",
"   c #00000000",
".  c #FF0C0C0C",
"X  c #FF0D0D0D",
"o  c #FF0E0E0E",
"O  c #FF0F0F0F",
"+  c #FF101010",
"@  c #FF111111",
"#  c #FF121212",
"$  c #FF131313",
"%  c #FF141414",
"&  c #FF151515",
"*  c #FF161616",
"=  c #FF171717",
"-  c #FF181818",
";  c #FF191919",
":  c #FF1A1A1A",
">  c #FF1B1B1B",
",  c #FF1C1C1C",
"<  c #FF1D1D1D",
"1  c #FF1E1E1E",
"2  c #FF1F1F1F",
"3  c #FF212121",
"4  c #FF222222",
"5  c #FF232323",
"6  c #FF242424",
"7  c #FF252525",
"8  c #FF262626",
"9  c #FF272727",
"0  c #FF282828",
"q  c #FF292929",
"w  c #FF2A2A2A",
"e  c #FF2C2C2C",
"r  c #FF2D2D2D",
"t  c #FF2E2E2E",
"y  c #FF2F2F2F",
"u  c #FF303030",
"i  c #FF313131",
"p  c #FF333333",
"a  c #FF343434",
"s  c #FF353535",
"d  c #FF363636",
"f  c #FF373737",
"g  c #FF383838",
"h  c #FF393939",
"j  c #FF3A3A3A",
"k  c #FF3B3B3B",
"l  c #FF3D3D3D",
"z  c #FF3E3E3E",
"x  c #FF3F3F3F",
"c  c #FF424242",
"v  c #FF434343",
"b  c #FF444444",
"n  c #FF454545",
"m  c #FF474747",
"M  c #FF484848",
"N  c #FF494949",
"B  c #FF4A4A4A",
"V  c #FF4B4B4B",
"C  c #FF4C4C4C",
"Z  c #FF4F4F4F",
"A  c #FF505050",
"S  c #FF515151",
"D  c #FF525252",
"F  c #FF535353",
"G  c #FF555555",
"H  c #FF565656",
"J  c #FF585858",
"K  c #FF595959",
"L  c #FF5A5A5A",
"P  c #FF5B5B5B",
"I  c #FF5C5C5C",
"U  c #FF5D5D5D",
"Y  c #FF5E5E5E",
"T  c #FF5F5F5F",
"R  c #FF606060",
"E  c #FF666666",
"W  c #FF6B6B6B",
"Q  c #FF6C6C6C",
"!  c #FF6E6E6E",
"~  c #FF727272",
"^  c #FF747474",
"/  c #FF757575",
"(  c #FF767676",
")  c #FF787878",
"_  c #FF797979",
"`  c #FF7A7A7A",
"'  c #FF7B7B7B",
"]  c #FF7C7C7C",
"[  c #FF7D7D7D",
"{  c #FF808080",
"}  c #FF818181",
"|  c #FF828282",
" . c #FF838383",
".. c #FF858585",
"X. c #FF868686",
"o. c #FF888888",
"O. c #FF898989",
"+. c #FF8A8A8A",
"@. c #FF8B8B8B",
"#. c #FF8C8C8C",
"$. c #FF8D8D8D",
"%. c #FF8E8E8E",
"&. c #FF8F8F8F",
"*. c #FF909090",
"=. c #FF919191",
"-. c #FF929292",
";. c #FF939393",
":. c #FF949494",
">. c #FF959595",
",. c #FF969696",
"<. c #FF979797",
"1. c #FF999999",
"2. c #FF9C9C9C",
"3. c #FF9D9D9D",
"4. c #FF9F9F9F",
"5. c #FFA0A0A0",
"6. c #FFA1A1A1",
"7. c #FFA3A3A3",
"8. c #FFA4A4A4",
"9. c #FFA5A5A5",
"0. c #FFA6A6A6",
"q. c #FFA8A8A8",
"w. c #FFA9A9A9",
"e. c #FFAAAAAA",
"r. c #FFABABAB",
"t. c #FFACACAC",
"y. c #FFAFAFAF",
"u. c #FFB0B0B0",
"i. c #FFB1B1B1",
"p. c #FFB2B2B2",
"a. c #FFB2B2B2",
"s. c #FFB4B4B4",
"d. c #FFB5B5B5",
"f. c #FFB7B7B7",
"g. c #FFB8B8B8",
"h. c #FFBABABA",
"j. c #FFBBBBBB",
"k. c #FFBCBCBC",
"l. c #FFBDBDBD",
"z. c #FFBFBFBF",
"x. c #FFC0C0C0",
"c. c #FFC1C1C1",
"v. c #FFC2C2C2",
"b. c #FFC3C3C3",
"n. c #FFC4C4C4",
"m. c #FFC6C6C6",
"M. c #FFC8C8C8",
"N. c #FFC9C9C9",
"B. c #FFCACACA",
"V. c #FFCBCBCB",
"C. c #FFCCCCCC",
"Z. c #FFCDCDCD",
"A. c #FFCECECE",
"S. c #FFD0D0D0",
"D. c #FFD1D1D1",
"F. c #FFD2D2D2",
"G. c #FFD3D3D3",
"H. c #FFD4D4D4",
"J. c #FFD5D5D5",
"K. c #FFD6D6D6",
"L. c #FFD8D8D8",
"P. c #FFD9D9D9",
"I. c #FFDADADA",
"U. c #FFDBDBDB",
"Y. c #FFDCDCDC",
"T. c #FFDDDDDD",
"R. c #FFDEDEDE",
"E. c #FFDFDFDF",
"W. c #FFE0E0E0",
"Q. c #FFE1E1E1",
"!. c #FFE2E2E2",
"~. c #FFE3E3E3",
"^. c #FFE4E4E4",
"/. c #FFE6E6E6",
"(. c #FFE6E6E6",
"). c #FFE7E7E7",
"_. c #FFE9E9E9",
"`. c #FFEAEAEA",
"'. c #FFEBEBEB",
"]. c #FFECECEC",
"[. c #FFEDEDED",
"{. c #FFEEEEEE",
"}. c #FFEFEFEF",
"|. c #FFF0F0F0",
" X c #FFF1F1F1",
".X c #FFF2F2F2",
"XX c #FFF3F3F3",
"oX c #FFF4F4F4",
"OX c #FFF5F5F5",
"+X c #FFF6F6F6",
"@X c #FFF7F7F7",
"#X c #FFF8F8F8",
"$X c #FFF9F9F9",
"%X c #FFFAFAFA",
"&X c #FFFBFBFB",
"*X c #FFFCFCFC",
"=X c #FFFDFDFD",
"-X c #FFFEFEFE",
";X c #FFFFFFFF",
/* pixels */
"                                                                                                                                                                                                                                                                ",
"                                                                                                                                                                                                                                                                ",
"                                                                                                                                                                                                                                                                ",
"                                                                                                                                                                                                                                                                ",
"                                                                                                                                                                                                                                                                ",
"                                                                                                                                                                                                                                                                ",
"                                                                                                                                                                                                                                                                ",
"                                                                                                                                                                                                                                                                ",
"                                                                                                                                                                                                                                                                ",
"                                                                                                                                                                                                                                                                ",
"                                                                                                                                                                                                                                                                ",
"                                                                                                                                                                                                                L                                               ",
"                                                                                                                                                                                                        F s 4 > @ @ @ @                                         ",
"                                                                                                                                                                                                      0 @ @ @ @ @ @ @ @ O O                                     ",
"                                                                                                                                                                                  C 0 4 > @ @       4 @ @ @ @ @ @ @ 4 z F L !                                   ",
"                                                                                                                                                                    C z s 4     E @ @ @ @ @ @ @ @ s @ @ @ @ @ > L 0.D.`..X&X.X`.                                ",
"                                                                                                                                                                  0 @ @ @ @ @ > 0 @ @ @ @ @ @ 4 s F C @ @ @ 0 e..X&X&X&X&X&X&X&X.X                              ",
"                                                                                                                                            F                     0 @ @ @ @ @ @ @ 4 4 @ @ z d.D.!.&Xe.@ @ > 0.&X&X.Xb.&.1.`.&X&X&X                              ",
"                                                                                                                                L C z 0 4 > @ @ @         z s     0 @ @ @ > L &.d.D.b.0 @ 1.&X&X&X&Xe.@ @ z `.&X&Xd.4 O @ d.&X&X&X                              ",
"                                                                                                                              ' > @ @ @ @ @ @ @ @ @ > > @ @ @ @ 4 > @ @ @ 4 D.&X&X&X&X' s !.&X&X&X&Xe.@ O L &X&X&X&.O O s D.&X&X.X                              ",
"                                                                                                                              ' > @ @ @ @ @ @ > 4 s L  .' > @ @ @ @ @ @ O 4 D.&X&X&X&XU.0.&X&X&X&X&XU.@ O L &X&X&XU.&.&.D.&X&X&X                                ",
"                                                                                                                        v s 4 C > @ @ @ @ F 0.b.g.b.&X&Xb.> @ 0 L  .0.0.' z D.&X&X&X&X&X&X&X.X.X&X&X.X    v `.&X&X&X&X&X&X&X&X.X                                ",
"                                                                                                          F s 0     ' 4 @ @ @ @ @ @ @ @ @ :.&X&XU.V.&X&Xg.4  .U..X.X&X&X&Xe.D.&X&X`..X&X&X&Xe.U.&X&X.X        .X&X&X&X&X.X.X                                    ",
"                                                                                                    C 0 > @ @ @ @ > 4 @ @ @ @ @ @ @ > 4 > :.&X&XU.V.&X&Xg.:.&X&XU.e.`.&X&XU.!.&X&Xg.d.&X&X!.L D.&X&X.X                                                          ",
"                                                          F z 0 4 > > @ @           v   L 0 4 > @ 4 @ @ @ @ @ @ @ O O @ > > @ @ 4 &.V.U.g.V.&X&XU.V.&X&XD.U.&X.X!.D.`.&X&XD.U.&X&Xb.F `.&X!.z U.&X.X                                                            ",
"                                                C >   C 4 @ @ @ @ @ @ @ @ @ O   v > @ @ @ @ @ @ @ @ @ @ @ @ @ @ 4 L &.d.V.V.0.z :.&X&X&X.X&X&X&XU.V.&X&XU.D.U.!.d. .!.&X&X:.D.&X&X.X    .X                                                                      ",
"                                            s @ @ @ @ @ @ @ @ @ @ @ @ @ > z F ( &.&.F @ @ @ @ @ > > > v E &.C C V..X&X&X&X&X&Xb.U.&X&XV.v g.&X&XU.V.&X&XU.U.&X&X&X.X&X.X.X                                                                                      ",
"                                  F 4 > @ > @ @ @ @ @ @ @ @ > 4 0 @ z &.V.`.&X&X&X&X`.F @ @ > ! g.b.1.!.&X&X:.D.&X&Xe.L D.&X&X.X.X&X&X:.O :.&X&XU.V.&X&X.X  .X&X.X.X                                                                                            ",
"                                  s @ @ @ @ @ @ @ O @ @ > ' g.U.1.F !.&X&X!.b.`.&X&X&X( O @ E .X&X&X.X&X&X.Xb..X&X.XF @ g.&X&XD.!.&X&Xd.O :.&X&X!.U.&X                                                                                                          ",
"                        L       C @ @ @ @ @ @ @ s ! :.0.s g.&X.X0.d.`.!.!.e.:.`.&X&X&XL O @ 0.&X&XD.' .X&X.XV..X&X&Xg.0..X&X.X .U.&X&X                                                                                                                          ",
"                  v 4 > @ @ @ > > @ @ @ @ @ @ O ( &X&X.X! e.U.!.1.F 0.U..X.X&X&X.X!.V.    @ g.`.b.' z `.&X.Xd.`.&X&X&X&X&X.X                                                                                                                                    ",
"              ( 4 @ @ @ @ @ @ @ @ @ @ > 0 4 @ s g.&X&X&X!.U.&X&Xd.0.&X&X&X`.V.D.D.d.b.            @ z `.&X&X    .X.X.X                                                                                                                                          ",
"              z @ @ @ @ @ @ @ @ 0 ( e.D.U.U.1. .&X&X&X&XD.U.&X&XD.`.&X&X&X:.L D..X&X&X                `.                                                                                                                                                        ",
"              0 @ @ @ @ @ @ @ L U.&X`.U.&X&X&Xd.V.&X&X`.F b.&X&XD.`.&X&X&X`..X&X&X&X                                                                                                                                                                            ",
"              s @ @ @ @ @ @ 0 U.&X&XV.b..X&X&X:.&.&X&X`.z g.&X&XV.V.&X&X&X&X.X.X.X                                                                                                                                                                              ",
"              0 @ @ @ @ @ @ F .X.X`.g.e..X&X.Xb.`.&X&X!.z b.&X&X                                                                                                                                                                                                ",
"                    @ @ @ @ C U.!.!.d.g..X&XU.&..X&X.X                                                                                                                                                                                                          ",
"                          O v `.&X&X&X&X.X.X                                                                                                                                                                                                                    ",
"                                                                                                                                                                                                                                                                ",
"                                                                                                                                                                                                                                                                ",
"                                                                                                                                                                                                                                                                ",
"                                                                                                                                                                                                                                                                ",
"                                                                                                                                                                                                                                                                ",
"                                                                                                                                                                                                                                                                ",
"                                                                                                                                                                                                                                                                ",
"                                                                                                                                                                                                                                                                ",
"                                                                                                                                                                                                                                                                ",
"                                                                                                                                                                                                                                                                ",
"                                                                                                                                                                                                                                                                ",
"                                                                                                                                                                                                                                                                ",
"                                                                                                                                                                                                                                                                ",
"                                                                                                                                                                                                                                                                ",
"                                                                                                                                                                                                                                                                ",
"                                                                                                                                                                                                                                                                "
};
