/* XPM */
static char *oms_359[] = {
/* columns rows colors chars-per-pixel */
"128 54 155 2 ",
"   c #00000000",
".  c #FF0E0E0E",
"X  c #FF0F0F0F",
"o  c #FF101010",
"O  c #FF111111",
"+  c #FF121212",
"@  c #FF131313",
"#  c #FF141414",
"$  c #FF151515",
"%  c #FF161616",
"&  c #FF171717",
"*  c #FF181818",
"=  c #FF1A1A1A",
"-  c #FF1B1B1B",
";  c #FF1E1E1E",
":  c #FF1F1F1F",
">  c #FF202020",
",  c #FF222222",
"<  c #FF242424",
"1  c #FF252525",
"2  c #FF262626",
"3  c #FF2A2A2A",
"4  c #FF2B2B2B",
"5  c #FF2C2C2C",
"6  c #FF2E2E2E",
"7  c #FF303030",
"8  c #FF313131",
"9  c #FF343434",
"0  c #FF373737",
"q  c #FF3E3E3E",
"w  c #FF3F3F3F",
"e  c #FF434343",
"r  c #FF454545",
"t  c #FF474747",
"y  c #FF484848",
"u  c #FF505050",
"i  c #FF545454",
"p  c #FF555555",
"a  c #FF575757",
"s  c #FF585858",
"d  c #FF5C5C5C",
"f  c #FF5D5D5D",
"g  c #FF5E5E5E",
"h  c #FF606060",
"j  c #FF616161",
"k  c #FF626262",
"l  c #FF646464",
"z  c #FF6A6A6A",
"x  c #FF6C6C6C",
"c  c #FF737373",
"v  c #FF747474",
"b  c #FF757575",
"n  c #FF777777",
"m  c #FF7C7C7C",
"M  c #FF808080",
"N  c #FF808080",
"B  c #FF818181",
"V  c #FF848484",
"C  c #FF878787",
"Z  c #FF8A8A8A",
"A  c #FF8C8C8C",
"S  c #FF8D8D8D",
"D  c #FF8F8F8F",
"F  c #FF919191",
"G  c #FF929292",
"H  c #FF989898",
"J  c #FF9B9B9B",
"K  c #FF9D9D9D",
"L  c #FF9E9E9E",
"P  c #FF9F9F9F",
"I  c #FFA1A1A1",
"U  c #FFA2A2A2",
"Y  c #FFA5A5A5",
"T  c #FFA7A7A7",
"R  c #FFA8A8A8",
"E  c #FFA9A9A9",
"W  c #FFAAAAAA",
"Q  c #FFABABAB",
"!  c #FFACACAC",
"~  c #FFAEAEAE",
"^  c #FFAFAFAF",
"/  c #FFB1B1B1",
"(  c #FFB2B2B2",
")  c #FFB2B2B2",
"_  c #FFB4B4B4",
"`  c #FFB5B5B5",
"'  c #FFB6B6B6",
"]  c #FFB7B7B7",
"[  c #FFB8B8B8",
"{  c #FFBBBBBB",
"}  c #FFBCBCBC",
"|  c #FFBDBDBD",
" . c #FF808080",
".. c #FFBFBFBF",
"X. c #FFC0C0C0",
"o. c #FFC1C1C1",
"O. c #FFC2C2C2",
"+. c #FFC3C3C3",
"@. c #FFC5C5C5",
"#. c #FFC6C6C6",
"$. c #FFC7C7C7",
"%. c #FFC8C8C8",
"&. c #FFC9C9C9",
"*. c #FFCBCBCB",
"=. c #FFCCCCCC",
"-. c #FFCDCDCD",
";. c #FFCECECE",
":. c #FFCFCFCF",
">. c #FFD0D0D0",
",. c #FFD1D1D1",
"<. c #FFD2D2D2",
"1. c #FFD3D3D3",
"2. c #FFD4D4D4",
"3. c #FFD5D5D5",
"4. c #FFD6D6D6",
"5. c #FFD7D7D7",
"6. c #FFD8D8D8",
"7. c #FFD9D9D9",
"8. c #FFDADADA",
"9. c #FFDBDBDB",
"0. c #FFDCDCDC",
"q. c #FFDDDDDD",
"w. c #FFDEDEDE",
"e. c #FFDFDFDF",
"r. c #FFE0E0E0",
"t. c #FFE1E1E1",
"y. c #FFE2E2E2",
"u. c #FFE3E3E3",
"i. c #FFE4E4E4",
"p. c #FFE6E6E6",
"a. c #FFE6E6E6",
"s. c #FFE7E7E7",
"d. c #FFE8E8E8",
"f. c #FFE9E9E9",
"g. c #FFEAEAEA",
"h. c #FFEBEBEB",
"j. c #FFECECEC",
"k. c #FFEDEDED",
"l. c #FFEEEEEE",
"z. c #FFEFEFEF",
"x. c #FFF0F0F0",
"c. c #FFF1F1F1",
"v. c #FFF2F2F2",
"b. c #FFF3F3F3",
"n. c #FFF4F4F4",
"m. c #FFF5F5F5",
"M. c #FFF6F6F6",
"N. c #FFF7F7F7",
"B. c #FFF8F8F8",
"V. c #FFF9F9F9",
"C. c #FFFAFAFA",
"Z. c #FFFBFBFB",
"A. c #FFFCFCFC",
"S. c #FFFDFDFD",
"D. c #FFFEFEFE",
/* pixels */
"                                                                                                                                                                                                                                                                ",
"                                                                                                                                                                                                                                                                ",
"                                                                                                                                                                                                                                                                ",
"                                                                                                                                                                                                                                                                ",
"                                                                                                                                                                                                                                                                ",
"                                                                                                                                                                                                                                                                ",
"                                                                                                                                                                                                                                                                ",
"                                                                                                                                                                                                                                                                ",
"                                                                                                                                                                                                                                                                ",
"                                                                                                                                                                                                                                                                ",
"                                                                                                                                                                                                                                                                ",
"                                                                                                                                                                                                                                                                ",
"                                                                                                                                                                                                                                                                ",
"                                                                                                                                                                                                                                                                ",
"                                                                                                                                                                                                                                                                ",
"                                                                                                                                                                                                                                                                ",
"                                                                                                                                                                                                                                                                ",
"                                                                                                                                                                                                                                                                ",
"                                                                                                                                                                                                                                                                ",
"                                                                                                                                                                                                                                                                ",
"                                                                                                                                                                                                                                                                ",
"                                                                                                                                                                                                                                                                ",
"                  l.l.r.` n 6 @                     p @ @               @                                                                                                               } }                                                                     ",
"          N.N.B.B.B.B.B.N.l.=.l @ @ ,     N.N.N.N.B.` : @ x B.N.N.N.B.I @ :                   B.B.N.r.} B.N.B.E @                                                               N.N.B.N.B.N.N.N.N.8.K   N.N.N.N.  I +.+.+.                                      ",
"        N.B.B.B.B.B.B.B.B.B.B.N.s @ @ 6   B.B.B.B.B.N.s : } B.B.B.B.B.E @ :                   B.B.B.l.+.B.B.B.` @ p                                                           N.B.B.B.N.r.l.N.B.B.B.l.  r.r.r.8.  +.B.B.B.r.                                    ",
"      N.B.B.B.N.E l l } B.B.B.B.} @ @ , 5.B.B.B.B.B.B.} n N.B.B.B.B.B.E , S l.B.B.N.l.8.` p e l.B.B.l.} B.B.B.+.C 8.N.l.=.p :   N.N.N.N.l.r.5.E y x r.5.5.` C N.l.r.S 6       N.B.B.B.l.E I 5.5.+.} +.  r.r.r.8.=.l.B.B.B.l.=.  K =.8.l.l.r.r.l.                ",
"      B.B.B.B.=.: X @   B.B.B.B.8., @ : +.B.B.B.B.B.B.N.l.B.B.B.B.B.B.E K B.B.B.5.` l.B.B.l.m l.B.B.l.} B.B.B.N.B.B.B.B.B.=.l r.B.B.B.l.N.B.B.B.5.C N.B.B.N.N.B.B.B.N.s       N.B.B.B.B.B.N.N.N.N.r.`   B.B.B.N.B.B.B.B.B.B.5.} N.B.B.r.r.N.B.B.N.              ",
"      B.B.B.B.5.8 X @ e N.B.B.B.5., @ , 5.B.B.B.l.l.B.B.B.B.N.l.B.B.B.+.8.B.B.B.8.=.l.B.B.B.=.l.B.B.l.} B.B.B.l.S } B.B.B.r.} B.B.B.+.q   B.B.B.B.+.N.B.B.l.I l.B.B.B.C         =.8.l.N.N.B.B.B.B.B.N.=.N.B.B.N.  l.B.B.B.N.5.N.B.B.N.5.=.N.B.B.B.              ",
"        B.B.B.B.=.S C } N.B.B.B.E @ @ 8 l.B.B.B.8.F B.B.B.B.` } B.B.B.+.8.B.B.B.` F } 5.+.+.} l.B.B.l.} B.B.B.` @ n B.B.B.r.+.B.B.B.` @   B.B.B.B.=.N.B.B.8.6 8.l.l.N.K       =.+.=.8.5.m   l.B.B.B.B.N.N.B.B.N.  =.B.B.B.8.S N.B.B.N.l.=.=.8.8.8.              ",
"        N.B.B.B.B.B.B.B.B.B.B.r.y @ ,     B.B.B.8.8 =.B.B.l.e E B.B.B.` ` B.B.B.=.K 8.N.l.l.` l.B.B.l.} B.B.B.` @ n B.B.B.r.S N.B.B.N.E } B.B.B.l.I N.B.B.8.6                 B.B.B.B.B.5.=.N.B.B.B.N.l.B.B.B.N.  r.B.B.B.N.8.N.B.B.B.=.K 5.l.l.l.              ",
"          N.N.B.B.B.B.B.B.N.5.s @         B.B.B.8., n B.B.I @ } B.B.B.E e 8.B.B.B.B.B.B.B.=.n l.B.B.l.+.B.B.B.` @ m B.B.B.r.e ` B.B.B.B.B.B.B.N.+.  N.N.B.8.8                   N.N.B.B.B.B.B.B.B.N.l.  B.B.B.N.    B.B.B.B.l.  N.B.B.B.B.B.B.B.N.              ",
"                                                                                                                                                                                        r.r.l.                                        l.l.N.                    ",
"                                                                                                                                                                                                                                                                ",
"                                                                                                                                                                                                                                                                ",
"                                                                                                                                                                                                                                                                ",
"                                                                                                                                                                                                                                                                ",
"                                                                                                                                                                                                                                                                ",
"                                                                                                                                                                                                                                                                ",
"                                                                                                                                                                                                                                                                ",
"                                                                                                                                                                                                                                                                ",
"                                                                                                                                                                                                                                                                ",
"                                                                                                                                                                                                                                                                ",
"                                                                                                                                                                                                                                                                ",
"                                                                                                                                                                                                                                                                ",
"                                                                                                                                                                                                                                                                ",
"                                                                                                                                                                                                                                                                ",
"                                                                                                                                                                                                                                                                ",
"                                                                                                                                                                                                                                                                ",
"                                                                                                                                                                                                                                                                ",
"                                                                                                                                                                                                                                                                ",
"                                                                                                                                                                                                                                                                ",
"                                                                                                                                                                                                                                                                ",
"                                                                                                                                                                                                                                                                ",
"                                                                                                                                                                                                                                                                "
};
