/* XPM */
static char *oms_004[] = {
/* columns rows colors chars-per-pixel */
"128 54 132 2 ",
"   c #00000000",
".  c #FF141414",
"X  c #FF161616",
"o  c #FF181818",
"O  c #FF191919",
"+  c #FF1B1B1B",
"@  c #FF1C1C1C",
"#  c #FF1E1E1E",
"$  c #FF202020",
"%  c #FF222222",
"&  c #FF232323",
"*  c #FF262626",
"=  c #FF2A2A2A",
"-  c #FF2C2C2C",
";  c #FF2F2F2F",
":  c #FF353535",
">  c #FF363636",
",  c #FF393939",
"<  c #FF3E3E3E",
"1  c #FF444444",
"2  c #FF484848",
"3  c #FF4E4E4E",
"4  c #FF545454",
"5  c #FF5C5C5C",
"6  c #FF5D5D5D",
"7  c #FF5E5E5E",
"8  c #FF5F5F5F",
"9  c #FF626262",
"0  c #FF636363",
"q  c #FF666666",
"w  c #FF696969",
"e  c #FF6F6F6F",
"r  c #FF717171",
"t  c #FF727272",
"y  c #FF747474",
"u  c #FF777777",
"i  c #FF787878",
"p  c #FF7B7B7B",
"a  c #FF7C7C7C",
"s  c #FF808080",
"d  c #FF828282",
"f  c #FF848484",
"g  c #FF858585",
"h  c #FF878787",
"j  c #FF888888",
"k  c #FF8B8B8B",
"l  c #FF909090",
"z  c #FF919191",
"x  c #FF939393",
"c  c #FF949494",
"v  c #FF959595",
"b  c #FF979797",
"n  c #FF999999",
"m  c #FF9A9A9A",
"M  c #FF9C9C9C",
"N  c #FF9E9E9E",
"B  c #FF9F9F9F",
"V  c #FFA0A0A0",
"C  c #FFA1A1A1",
"Z  c #FFA2A2A2",
"A  c #FFA5A5A5",
"S  c #FFA9A9A9",
"D  c #FFACACAC",
"F  c #FFB1B1B1",
"G  c #FFB2B2B2",
"H  c #FFB4B4B4",
"J  c #FFB6B6B6",
"K  c #FFB7B7B7",
"L  c #FFBBBBBB",
"P  c #FFBCBCBC",
"I  c #FFBDBDBD",
"U  c #FFBFBFBF",
"Y  c #FFC1C1C1",
"T  c #FFC2C2C2",
"R  c #FFC3C3C3",
"E  c #FFC4C4C4",
"W  c #FFC5C5C5",
"Q  c #FFC6C6C6",
"!  c #FFC7C7C7",
"~  c #FFC8C8C8",
"^  c #FFC9C9C9",
"/  c #FFCBCBCB",
"(  c #FFCCCCCC",
")  c #FFCDCDCD",
"_  c #FFCECECE",
"`  c #FFCFCFCF",
"'  c #FFD0D0D0",
"]  c #FFD1D1D1",
"[  c #FFD2D2D2",
"{  c #FFD3D3D3",
"}  c #FFD4D4D4",
"|  c #FFD5D5D5",
" . c #FFD6D6D6",
".. c #FFD7D7D7",
"X. c #FFD8D8D8",
"o. c #FFD9D9D9",
"O. c #FFDADADA",
"+. c #FFDBDBDB",
"@. c #FFDCDCDC",
"#. c #FFDDDDDD",
"$. c #FFDEDEDE",
"%. c #FFDFDFDF",
"&. c #FFE0E0E0",
"*. c #FFE1E1E1",
"=. c #FFE2E2E2",
"-. c #FFE3E3E3",
";. c #FFE4E4E4",
":. c #FFE6E6E6",
">. c #FFE6E6E6",
",. c #FFE7E7E7",
"<. c #FFE8E8E8",
"1. c #FFE9E9E9",
"2. c #FFEAEAEA",
"3. c #FFEBEBEB",
"4. c #FFECECEC",
"5. c #FFEDEDED",
"6. c #FFEEEEEE",
"7. c #FFEFEFEF",
"8. c #FFF0F0F0",
"9. c #FFF1F1F1",
"0. c #FFF2F2F2",
"q. c #FFF3F3F3",
"w. c #FFF4F4F4",
"e. c #FFF5F5F5",
"r. c #FFF6F6F6",
"t. c #FFF7F7F7",
"y. c #FFF8F8F8",
"u. c #FFF9F9F9",
"i. c #FFFAFAFA",
"p. c #FFFBFBFB",
"a. c #FFFCFCFC",
"s. c #FFFDFDFD",
/* pixels */
"                                                                                                                                                                                                                                                                ",
"                                                                                                                                                                                                                                                                ",
"                                                                                                                                                                                                                                                                ",
"                                                                                                                                                                                                                                                                ",
"                                                                                                                                                                                                                                                                ",
"                                                                                                                                                                                                                                                                ",
"                                                                                                                                                                                                                                                                ",
"                                                                                                                                                                                                                                                                ",
"                                                                                                                                                                                                                                                                ",
"                                                                                                                                                                                                                                                                ",
"                                                                                                                                                                                                                                                                ",
"                                                                                                                                                                                                                                                                ",
"                                                                                                                                                                                                                                                                ",
"                                                                                                                                                                                                                                                                ",
"                                                                                                                                                                                                                                                                ",
"                                                                                                                                                                                                                                                                ",
"                                                                                                                                                                                                                                                                ",
"                                                                                                                                                                                                                                                                ",
"                                                                                                                                                                                                                                                                ",
"                                                                                                                                                                                                                                                                ",
"                                                                                                                                                                                                                                                                ",
"                                                                                                                                                                                                                                                                ",
"                  4.r.r.4.E j                                                                                                                                                         ` ,.4.4.4.r.                                                              ",
"            r.y.y.y.y.y.y.r.r.] e o         r.y.y.y.y.` &     r.y.y.y.y.E &                     r.y.y.r.V 4.y.y.,.0                                                               P r.r.y.y.y.y.y.y.y.y.e i y.y.y.` o ` r.r.r.                                  ",
"          r.y.y.y.y.r.r.y.y.y.y.r.0 X       y.y.y.y.y.y.r o ,.y.y.y.y.y.E &                     r.y.y.r.V 4.y.y.,.5                                                             i y.y.y.y.r.o.E r.r.r.y.` i ] ] o.S , ] y.y.y.,.                                ",
"        r.y.y.y.r.v 5 V r.y.y.y.y.P o -     y.y.y.y.y.y.] r r.y.y.y.y.y.E > ` y.y.y.r.r.4.o.B 3 4.y.y.r.V 4.y.y.4.H r.r.r.4.E     r.r.r.r.r.r.r.4.r.  ] 4.4.4.E ] r.r.r.        f y.y.y.y.r.] H ] 4.4.4.0 i 4.,.4.` ] r.y.y.y.y.v 4 E ,.r.r.y.y.r.r.            ",
"        r.y.y.y.P X &     r.y.y.y.o.& &     y.y.y.y.y.y.r.r.y.y.y.y.y.y.E v y.y.y.o.E r.y.y.r.B ] y.y.r.V 4.y.y.y.y.y.y.y.y.r.H r.y.y.y.r.y.r.y.y.y.] o.y.y.y.r.y.y.y.y.r.        ,.y.y.y.y.y.y.y.y.y.y.V j y.y.y.o.,.y.y.y.y.y.P o.y.y.r.P P r.y.y.r.          ",
"        r.y.y.y.` - X     r.y.y.y.] & -     y.y.y.r.,.y.y.y.y.r.] y.y.y.] ` y.y.y.4.,.r.r.r.y.o.,.y.y.r.V 4.y.y.r.E   r.y.y.r.` r.y.y.r.      y.y.y.,.o.y.y.y.4.H r.y.y.r.          o.] ,.r.r.4.r.y.y.y.r.P y.y.y.` 5 o.y.y.y.V v y.y.y.r.,.,.r.r.r.r.          ",
"        r.y.y.y.y.` v B 4.y.y.y.y.V X       y.y.y.,.f r.y.y.y.H v y.y.y.` ` y.y.y.E v ,.] E E H ,.y.y.r.V 4.y.y.,.0   r.y.y.r.` r.y.y.r.    o.y.y.y.,.o.y.y.y.,.  ,.r.r.4.      v 4.o.o.,.4.  r 4.y.y.y.r.` r.y.y.E o ` y.y.y.V j y.y.y.r.B f P E E ,.          ",
"          r.y.y.y.y.y.y.y.y.y.y.] 1 o       y.y.y.,.> H y.y.4.3 B y.y.y.E v y.y.y.,.H ,.r.r.r.E ,.y.y.r.V 4.y.y.,.0   r.y.y.r.P 4.y.y.y.,.] r.y.y.y.o.o.y.y.y.,.                f r.y.y.y.y.,.,.y.y.y.y.] V y.y.y.E & E y.y.y.y.P o.y.y.r.E P 4.r.r.r.          ",
"            r.r.y.y.r.r.y.r.r.` 5           r.y.y.,.- r y.y.H o o.y.y.y.` , o.r.y.y.y.y.y.r.r.  r.y.y.r.S 4.y.y.,.    r.y.y.r.P   r.y.y.y.y.y.y.r.r.  ,.y.y.y.,.                    r.y.y.y.y.y.r.y.r.y.e f y.y.y.4.  B y.y.y.y.H i 4.y.y.y.y.y.y.r.            ",
"                                                                                                                                                                                                                                                                ",
"                                                                                                                                                                                                                                                                ",
"                                                                                                                                                                                                                                                                ",
"                                                                                                                                                                                                                                                                ",
"                                                                                                                                                                                                                                                                ",
"                                                                                                                                                                                                                                                                ",
"                                                                                                                                                                                                                                                                ",
"                                                                                                                                                                                                                                                                ",
"                                                                                                                                                                                                                                                                ",
"                                                                                                                                                                                                                                                                ",
"                                                                                                                                                                                                                                                                ",
"                                                                                                                                                                                                                                                                ",
"                                                                                                                                                                                                                                                                ",
"                                                                                                                                                                                                                                                                ",
"                                                                                                                                                                                                                                                                ",
"                                                                                                                                                                                                                                                                ",
"                                                                                                                                                                                                                                                                ",
"                                                                                                                                                                                                                                                                ",
"                                                                                                                                                                                                                                                                ",
"                                                                                                                                                                                                                                                                ",
"                                                                                                                                                                                                                                                                ",
"                                                                                                                                                                                                                                                                ",
"                                                                                                                                                                                                                                                                "
};
