/* XPM */
static char *oms_321[] = {
/* columns rows colors chars-per-pixel */
"128 54 189 2 ",
"   c #00000000",
".  c #FF0D0D0D",
"X  c #FF0E0E0E",
"o  c #FF0F0F0F",
"O  c #FF101010",
"+  c #FF111111",
"@  c #FF121212",
"#  c #FF131313",
"$  c #FF141414",
"%  c #FF151515",
"&  c #FF161616",
"*  c #FF171717",
"=  c #FF181818",
"-  c #FF191919",
";  c #FF1A1A1A",
":  c #FF1B1B1B",
">  c #FF1C1C1C",
",  c #FF1D1D1D",
"<  c #FF1E1E1E",
"1  c #FF1F1F1F",
"2  c #FF202020",
"3  c #FF212121",
"4  c #FF242424",
"5  c #FF252525",
"6  c #FF262626",
"7  c #FF272727",
"8  c #FF282828",
"9  c #FF292929",
"0  c #FF2A2A2A",
"q  c #FF2B2B2B",
"w  c #FF2D2D2D",
"e  c #FF2F2F2F",
"r  c #FF303030",
"t  c #FF323232",
"y  c #FF333333",
"u  c #FF343434",
"i  c #FF353535",
"p  c #FF363636",
"a  c #FF373737",
"s  c #FF383838",
"d  c #FF3A3A3A",
"f  c #FF3B3B3B",
"g  c #FF3C3C3C",
"h  c #FF3E3E3E",
"j  c #FF404040",
"k  c #FF434343",
"l  c #FF444444",
"z  c #FF464646",
"x  c #FF484848",
"c  c #FF4A4A4A",
"v  c #FF4B4B4B",
"b  c #FF4C4C4C",
"n  c #FF4E4E4E",
"m  c #FF4F4F4F",
"M  c #FF505050",
"N  c #FF515151",
"B  c #FF545454",
"V  c #FF555555",
"C  c #FF565656",
"Z  c #FF585858",
"A  c #FF595959",
"S  c #FF5B5B5B",
"D  c #FF5D5D5D",
"F  c #FF5E5E5E",
"G  c #FF606060",
"H  c #FF616161",
"J  c #FF626262",
"K  c #FF636363",
"L  c #FF646464",
"P  c #FF676767",
"I  c #FF686868",
"U  c #FF696969",
"Y  c #FF6A6A6A",
"T  c #FF6B6B6B",
"R  c #FF6C6C6C",
"E  c #FF6D6D6D",
"W  c #FF6E6E6E",
"Q  c #FF707070",
"!  c #FF717171",
"~  c #FF727272",
"^  c #FF737373",
"/  c #FF747474",
"(  c #FF757575",
")  c #FF767676",
"_  c #FF7A7A7A",
"`  c #FF7D7D7D",
"'  c #FF808080",
"]  c #FF808080",
"[  c #FF818181",
"{  c #FF848484",
"}  c #FF858585",
"|  c #FF868686",
" . c #FF878787",
".. c #FF888888",
"X. c #FF898989",
"o. c #FF8C8C8C",
"O. c #FF8D8D8D",
"+. c #FF8E8E8E",
"@. c #FF8F8F8F",
"#. c #FF909090",
"$. c #FF919191",
"%. c #FF929292",
"&. c #FF949494",
"*. c #FF959595",
"=. c #FF969696",
"-. c #FF979797",
";. c #FF999999",
":. c #FF9B9B9B",
">. c #FF9D9D9D",
",. c #FF9E9E9E",
"<. c #FFA0A0A0",
"1. c #FFA1A1A1",
"2. c #FFA2A2A2",
"3. c #FFA3A3A3",
"4. c #FFA5A5A5",
"5. c #FFA9A9A9",
"6. c #FFABABAB",
"7. c #FFACACAC",
"8. c #FFAEAEAE",
"9. c #FFAFAFAF",
"0. c #FFB0B0B0",
"q. c #FFB1B1B1",
"w. c #FFB2B2B2",
"e. c #FFB5B5B5",
"r. c #FFB6B6B6",
"t. c #FFB8B8B8",
"y. c #FFB9B9B9",
"u. c #FFBBBBBB",
"i. c #FFBCBCBC",
"p. c #FFBDBDBD",
"a. c #FF808080",
"s. c #FFC1C1C1",
"d. c #FFC2C2C2",
"f. c #FFC3C3C3",
"g. c #FFC4C4C4",
"h. c #FFC5C5C5",
"j. c #FFC7C7C7",
"k. c #FFC9C9C9",
"l. c #FFCACACA",
"z. c #FFCBCBCB",
"x. c #FFCCCCCC",
"c. c #FFCECECE",
"v. c #FFCFCFCF",
"b. c #FFD0D0D0",
"n. c #FFD1D1D1",
"m. c #FFD2D2D2",
"M. c #FFD3D3D3",
"N. c #FFD4D4D4",
"B. c #FFD5D5D5",
"V. c #FFD6D6D6",
"C. c #FFD7D7D7",
"Z. c #FFD8D8D8",
"A. c #FFD9D9D9",
"S. c #FFDADADA",
"D. c #FFDBDBDB",
"F. c #FFDCDCDC",
"G. c #FFDDDDDD",
"H. c #FFDFDFDF",
"J. c #FFE0E0E0",
"K. c #FFE2E2E2",
"L. c #FFE3E3E3",
"P. c #FFE4E4E4",
"I. c #FFE6E6E6",
"U. c #FFE6E6E6",
"Y. c #FFE7E7E7",
"T. c #FFE8E8E8",
"R. c #FFE9E9E9",
"E. c #FFEAEAEA",
"W. c #FFEBEBEB",
"Q. c #FFECECEC",
"!. c #FFEDEDED",
"~. c #FFEEEEEE",
"^. c #FFEFEFEF",
"/. c #FFF0F0F0",
"(. c #FFF1F1F1",
"). c #FFF2F2F2",
"_. c #FFF3F3F3",
"`. c #FFF4F4F4",
"'. c #FFF5F5F5",
"]. c #FFF6F6F6",
"[. c #FFF7F7F7",
"{. c #FFF8F8F8",
"}. c #FFF9F9F9",
"|. c #FFFAFAFA",
" X c #FFFBFBFB",
".X c #FFFCFCFC",
"XX c #FFFDFDFD",
"oX c #FFFEFEFE",
"OX c #FFFFFFF1",
/* pixels */
"                                                                                                                                                                                                                                                                ",
"                                                                                                                                                                                                                                                                ",
"                                                                                                                                                                                                                                                                ",
"                                                                                                                                                                                                                                                                ",
"                                                                                                                                                                                                                                                                ",
"                                                                                                                                                                                                                                                                ",
"                                                                                                                                                                                                                                                                ",
"                                                                                                                                                                                                                                                                ",
"                                                                                                                                                                                                                                                                ",
"                                                                                                                                                                                                                                                                ",
"                                                                                                                                                                                                                                                                ",
"                                                                                                                                                                                                                                                                ",
"                                                                                                                                                                                                                                                                ",
"                                                                                                                                                                                                                                                                ",
"                                                                                                                                                                                                                                                                ",
"                                                                                                                                                                                                                                                                ",
"                                                                                                                                                                                                                                                                ",
"                                                                                                                                                                                                                                                                ",
"                                                                                                                                                                                                                                                                ",
"                                                @ X X                                                                                                                                                                                                           ",
"                            ].].].].S.:.h @ @ @ @ p p 0 2 p p   X X X > >                                                                                                                                                                                       ",
"                          ].}.}.}.}.}.}.P.S @ @ 2 v.!.P.B.G X 2 +.| ! S > @ > @ @ @ @ @ c                                                                                                                                                                       ",
"                          }.}.}.P.B.].}.}.B.0 @ 0 B.}.}.}.p.@ T }.}.}.!.p @ @ @ @ @ @ @ | !.v.! T S p @ @ @ @ @ > @ h                                                                                                                                           ",
"                        ].}.}.v.p 2 ! ].}.].C X 0 B.}.}.}.!.c p.}.}.}.!.h X @ > @ @ @ @ 0.}.].d.].].0.@ @ @ @ @ @ @ h                                                                                                                                           ",
"                        ].}.}.0.@ X 2 S.}.}.T X 0 B.}.}.}.}.p.!.}.}.}.!.l T p.v.p.:.C > 5.}.}.d.].}.p.@ @ @ @ @ @ X 2 c                                         @ X @ @ X > >                                                                                   ",
"                          }.}.P.S 2 S !.}.}.T X 0 B.}.}.].}.}.}.}.}.}.!.$.].}.].!.}.!.! 5.}.}.d.].}.d.T 5.<.C @ @ h C C h 2 2 > @ @ @ @ @ 0         !.}.].].P.v.<.c > ! ! S > @ @ X @ @ 0 c                                                                     ",
"                          }.}.}.!.B.!.}.}.].c X 0 B.}.].v.].}.}.S.!.}.!.B.}.}.B.0.].}.S.d.}.].d.].}.].}.}.}.P.l $.!.].}.!.B.! p $.$.! h T S > @ X G ].}.}.!.].}.}.P.T S.}.!.l ` +.! 2 @ @ @ @ @ l                                                               ",
"                            }.}.}.}.}.}.}.0.> @ 0 B.}.].` P.}.].+.P.}.].S.}.}.P.B.P.!.P.S.}.].d.].}.!.p.!.}.}.5.!.}.].B.!.}.].+.P.}.].S.}.}.+.@ X ! }.}.}.:.| P.P.P.<.p.S.v.C S.}.].l @ @ X X X 2 G                                                             ",
"                              ].].].].].v.h @     !.}.].C 5.}.v.c P.}.!.0.}.}.p.` v.B.v.B.}.].d.].}.d.> 0.}.].S.}.}.d.2 $.}.}.B.!.}.].P.].}.S.0 X c ].}.}.].P.P.B.$.c v.!.S.p.].}.}.:.2 l T ! G h > @ @ @ @ > 0                                                 ",
"                                                      ].    }.<.l !.}.!.G S.}.}.].}.}.v.d.}.].d.].}.p.@ 5.}.].v.].}.v.2 | }.}.S.!.}.P.G P.}.!.p @ > | !.].}.}.}.}.].$.S.}.!.P.}.}.}.!.$.!.}.}.}.!.<.2 @ @ @ @ @ h                                               ",
"                                                                              ].].].].  v.}.].d.].}.p.@ 5.}.}.$.B.}.].v.P.}.}.d.P.}.S.h G +.+.2 @ S 0.d.B.$.:.].}.}.S.P.}.!.$.!.}.}.B.P.}.].p.d.}.}.| @ @ @ @ @ 2                                               ",
"                                                                                                          }.}.|   }.}.}.}.}.S.! P.}.S.0 X @ @ @ X ` }.}.}.0.+.!.}.}.P.P.}.P.c B.}.].T S.}.}.P.!.].}.p.> @ @ @ @ 2                                               ",
"                                                                                                                                !.}.S.p             }.}.}.}.}.}.}.}.5.S.}.P.c B.}.}.v.P.}.].:.$.v.B.<.> @ @ @ @ 2                                               ",
"                                                                                                                                                        ].].].}.}.S.G P.}.P.l p.}.}.P.5.].}.P.S.].].5.@ @ @ @ @                                                 ",
"                                                                                                                                                                                  }.P.    }.}.}.].].! @                                                         ",
"                                                                                                                                                                                                                                                                ",
"                                                                                                                                                                                                                                                                ",
"                                                                                                                                                                                                                                                                ",
"                                                                                                                                                                                                                                                                ",
"                                                                                                                                                                                                                                                                ",
"                                                                                                                                                                                                                                                                ",
"                                                                                                                                                                                                                                                                ",
"                                                                                                                                                                                                                                                                ",
"                                                                                                                                                                                                                                                                ",
"                                                                                                                                                                                                                                                                ",
"                                                                                                                                                                                                                                                                ",
"                                                                                                                                                                                                                                                                ",
"                                                                                                                                                                                                                                                                ",
"                                                                                                                                                                                                                                                                ",
"                                                                                                                                                                                                                                                                ",
"                                                                                                                                                                                                                                                                ",
"                                                                                                                                                                                                                                                                ",
"                                                                                                                                                                                                                                                                ",
"                                                                                                                                                                                                                                                                "
};
