/* XPM */
static char *oms_333[] = {
/* columns rows colors chars-per-pixel */
"128 54 183 2 ",
"   c #00000000",
".  c #FF0C0C0C",
"X  c #FF0E0E0E",
"o  c #FF0F0F0F",
"O  c #FF101010",
"+  c #FF111111",
"@  c #FF121212",
"#  c #FF131313",
"$  c #FF141414",
"%  c #FF151515",
"&  c #FF161616",
"*  c #FF171717",
"=  c #FF181818",
"-  c #FF191919",
";  c #FF1A1A1A",
":  c #FF1B1B1B",
">  c #FF1C1C1C",
",  c #FF1D1D1D",
"<  c #FF1E1E1E",
"1  c #FF1F1F1F",
"2  c #FF212121",
"3  c #FF222222",
"4  c #FF232323",
"5  c #FF242424",
"6  c #FF252525",
"7  c #FF262626",
"8  c #FF272727",
"9  c #FF282828",
"0  c #FF292929",
"q  c #FF2A2A2A",
"w  c #FF2B2B2B",
"e  c #FF2C2C2C",
"r  c #FF2D2D2D",
"t  c #FF2E2E2E",
"y  c #FF2F2F2F",
"u  c #FF303030",
"i  c #FF333333",
"p  c #FF343434",
"a  c #FF353535",
"s  c #FF363636",
"d  c #FF3A3A3A",
"f  c #FF3B3B3B",
"g  c #FF3C3C3C",
"h  c #FF3D3D3D",
"j  c #FF3F3F3F",
"k  c #FF444444",
"l  c #FF454545",
"z  c #FF464646",
"x  c #FF474747",
"c  c #FF484848",
"v  c #FF494949",
"b  c #FF4B4B4B",
"n  c #FF4C4C4C",
"m  c #FF4E4E4E",
"M  c #FF525252",
"N  c #FF535353",
"B  c #FF555555",
"V  c #FF565656",
"C  c #FF575757",
"Z  c #FF585858",
"A  c #FF595959",
"S  c #FF5A5A5A",
"D  c #FF5B5B5B",
"F  c #FF5C5C5C",
"G  c #FF5D5D5D",
"H  c #FF5F5F5F",
"J  c #FF606060",
"K  c #FF626262",
"L  c #FF646464",
"P  c #FF696969",
"I  c #FF6A6A6A",
"U  c #FF6C6C6C",
"Y  c #FF6F6F6F",
"T  c #FF707070",
"R  c #FF717171",
"E  c #FF737373",
"W  c #FF747474",
"Q  c #FF757575",
"!  c #FF767676",
"~  c #FF777777",
"^  c #FF7B7B7B",
"/  c #FF7C7C7C",
"(  c #FF808080",
")  c #FF808080",
"_  c #FF828282",
"`  c #FF858585",
"'  c #FF898989",
"]  c #FF8A8A8A",
"[  c #FF8B8B8B",
"{  c #FF8C8C8C",
"}  c #FF909090",
"|  c #FF939393",
" . c #FF969696",
".. c #FF989898",
"X. c #FF999999",
"o. c #FF9C9C9C",
"O. c #FF9F9F9F",
"+. c #FFA0A0A0",
"@. c #FFA1A1A1",
"#. c #FFA2A2A2",
"$. c #FFA3A3A3",
"%. c #FFA4A4A4",
"&. c #FFA5A5A5",
"*. c #FFA6A6A6",
"=. c #FFA8A8A8",
"-. c #FFA9A9A9",
";. c #FFABABAB",
":. c #FFACACAC",
">. c #FFAEAEAE",
",. c #FFAFAFAF",
"<. c #FFB1B1B1",
"1. c #FFB2B2B2",
"2. c #FFB2B2B2",
"3. c #FFB4B4B4",
"4. c #FFB5B5B5",
"5. c #FFB6B6B6",
"6. c #FFBABABA",
"7. c #FFBBBBBB",
"8. c #FFBCBCBC",
"9. c #FF808080",
"0. c #FFBFBFBF",
"q. c #FFC0C0C0",
"w. c #FFC1C1C1",
"e. c #FFC2C2C2",
"r. c #FFC4C4C4",
"t. c #FFC5C5C5",
"y. c #FFC6C6C6",
"u. c #FFC7C7C7",
"i. c #FFC8C8C8",
"p. c #FFC9C9C9",
"a. c #FFCACACA",
"s. c #FFCBCBCB",
"d. c #FFCDCDCD",
"f. c #FFCECECE",
"g. c #FFCFCFCF",
"h. c #FFD0D0D0",
"j. c #FFD1D1D1",
"k. c #FFD2D2D2",
"l. c #FFD3D3D3",
"z. c #FFD4D4D4",
"x. c #FFD5D5D5",
"c. c #FFD6D6D6",
"v. c #FFD7D7D7",
"b. c #FFD8D8D8",
"n. c #FFD9D9D9",
"m. c #FFDADADA",
"M. c #FFDBDBDB",
"N. c #FFDCDCDC",
"B. c #FFDDDDDD",
"V. c #FFDEDEDE",
"C. c #FFDFDFDF",
"Z. c #FFE0E0E0",
"A. c #FFE1E1E1",
"S. c #FFE2E2E2",
"D. c #FFE3E3E3",
"F. c #FFE4E4E4",
"G. c #FFE6E6E6",
"H. c #FFE6E6E6",
"J. c #FFE7E7E7",
"K. c #FFE8E8E8",
"L. c #FFE9E9E9",
"P. c #FFEAEAEA",
"I. c #FFEBEBEB",
"U. c #FFECECEC",
"Y. c #FFEDEDED",
"T. c #FFEEEEEE",
"R. c #FFEFEFEF",
"E. c #FFF0F0F0",
"W. c #FFF1F1F1",
"Q. c #FFF2F2F2",
"!. c #FFF3F3F3",
"~. c #FFF4F4F4",
"^. c #FFF5F5F5",
"/. c #FFF6F6F6",
"(. c #FFF7F7F7",
"). c #FFF8F8F8",
"_. c #FFF9F9F9",
"`. c #FFFAFAFA",
"'. c #FFFBFBFB",
"]. c #FFFCFCFC",
"[. c #FFFDFDFD",
"{. c #FFFEFEFE",
"}. c #FFFFFFFF",
/* pixels */
"                                                                                                                                                                                                                                                                ",
"                                                                                                                                                                                                                                                                ",
"                                                                                                                                                                                                                                                                ",
"                                                                                                                                                                                                                                                                ",
"                                                                                                                                                                                                                                                                ",
"                                                                                                                                                                                                                                                                ",
"                                                                                                                                                                                                                                                                ",
"                                                                                                                                                                                                                                                                ",
"                                                                                                                                                                                                                                                                ",
"                                                                                                                                                                                                                                                                ",
"                                                                                                                                                                                                                                                                ",
"                                                                                                                                                                                                                                                                ",
"                                                                                                                                                                                                                                                                ",
"                                                                                                                                                                                                                                                                ",
"                                                                                                                                                                                                                                                                ",
"                                                                                                                                                                                                                                                                ",
"                                                                                                                                                                                                                                                                ",
"                                                                                                                                                                                                                                                                ",
"                                                                                                                                                                                                                                                                ",
"                                                                                                                                                                                                                                                                ",
"                                                                                                                                                                                                                                                                ",
"                    (.(.(.R.d.#.H = O O O = v H /     = O O 8 8 8 t v                                                                                                                                                                                           ",
"                (.).).).).).).).(.#.8 O O 8 v.).(.R.S.x . i u.v.d.u.O.= O O O O O t             C H x t O O O O = t                                                                                                                                             ",
"                ).).).).R.S.(.).).).' O O 8 v.).).).).O.O _ ).).).).u.= O . . . . t     (.).).d.d.R.R.#.O O O O O = _                                                         O 8                                                                               ",
"                ).).).;.i t Q R.).).d.8 O 8 v.).).).).S.v v.).).).).u.= t H Q Q H x t O d.).).v.C.).).1.O O O O O = C                                         (.(.(.S.v.u.#.U 8 8 Q Q Q d O O O O d                                                             ",
"              ).).).).J . O = d.).).S.t O 8 v.).).).).).C.(.).).).).u.H C.(.).).).R.1.d 8.).).v.C.).).8.H #.;.' t O 8 H Q _ } _ d O O t t t 8 8 t = O O = 8 v.).).).).).).).).8.C (.).).U v #.#.} t O O O t                                                     ",
"                ).).).;.8 = v S.).).C.t O 8 v.).).R.(.).).).(.(.).).d.u.).).S.#.C.).).1.d.).).v.C.).).(.(.).).).;.d u.(.).).).(.S.' x C.C.v._ #.v.8.v O O t S.).).(.#._ S.R.R.R.' d.C.C.U / ).).(.x O O O = x                                                   ",
"                ).).).(.v.u.S.).).).8.= O 8 v.).).u.u.).).).d.C.).).v.C.).).(.S.R.(.).S.C.).).v.C.).).(.8.R.).).S.;.).).(.8.8.(.).(.#.R.).).(.).).).u.= O 8 v.).).).C.u.C.v.8.Q C C.R.S.8.S.).).(.1.t C O.;.1.1._ d O O O O i                                   ",
"                  ).).).).).).).).R.H O O 8 v.).).1.U (.).(.U d.).).d.v.).).v.Q ;.v.d.u.C.).).v.C.).).8.= } ).).R.C.).).C.8 i C.).).C.(.).).u.8.).).R.i O O J S.).).).).).).).C./ R.).).C.).).).).R.} R.).).R.(.).S.J O O O = J                                 ",
"                    (.(.).(.(.(.S.Q O       R.).).1.t v.).u.t d.).).u.' (.).(.v.S.(.(.v.v.).).v.C.).).1.. / ).).S.u.).).R.v v S.).).C.(.).)./ H C.C.v.i 8 t Q #.u.C.1.8.R.).).).C.(.).).O.1.).).(.1.C.).).S.#.v.).).v.8 O O O x                                 ",
"                                                              S.).).u.i v.).(.).).(.R./ d.).).v.C.).).1.. _ ).).S.Q S.).).R.S.).).(.#.R.).)./ O 8 t t = /   ).(.(.(.} H v.).).).S.(.).).Q Q ).).(.J d.).).R.C.S.R.R.S.i O O O x                                 ",
"                                                                                                            ).).S.d   ).(.).).(.(.;.H (.).)._ . O O .       (.).).).).(.).).).(.;.R.).).Q U ).).).v.v.).).C.U #.C.v.u.i O O = H                                 ",
"                                                                                                                                                                (.(.(.(.(.(.(.u.J (.).).Q C (.).).S./ S.).).(.(.).).d.8 O O                                     ",
"                                                                                                                                                                                                        (.(.).).(.(.                                            ",
"                                                                                                                                                                                                                                                                ",
"                                                                                                                                                                                                                                                                ",
"                                                                                                                                                                                                                                                                ",
"                                                                                                                                                                                                                                                                ",
"                                                                                                                                                                                                                                                                ",
"                                                                                                                                                                                                                                                                ",
"                                                                                                                                                                                                                                                                ",
"                                                                                                                                                                                                                                                                ",
"                                                                                                                                                                                                                                                                ",
"                                                                                                                                                                                                                                                                ",
"                                                                                                                                                                                                                                                                ",
"                                                                                                                                                                                                                                                                ",
"                                                                                                                                                                                                                                                                ",
"                                                                                                                                                                                                                                                                ",
"                                                                                                                                                                                                                                                                ",
"                                                                                                                                                                                                                                                                ",
"                                                                                                                                                                                                                                                                ",
"                                                                                                                                                                                                                                                                ",
"                                                                                                                                                                                                                                                                ",
"                                                                                                                                                                                                                                                                "
};
