/* XPM */
static char *oms_330[] = {
/* columns rows colors chars-per-pixel */
"128 54 192 2 ",
"   c #00000000",
".  c #FF0C0C0C",
"X  c #FF0D0D0D",
"o  c #FF0E0E0E",
"O  c #FF0F0F0F",
"+  c #FF101010",
"@  c #FF111111",
"#  c #FF121212",
"$  c #FF131313",
"%  c #FF141414",
"&  c #FF151515",
"*  c #FF161616",
"=  c #FF171717",
"-  c #FF181818",
";  c #FF191919",
":  c #FF1A1A1A",
">  c #FF1C1C1C",
",  c #FF1D1D1D",
"<  c #FF1E1E1E",
"1  c #FF1F1F1F",
"2  c #FF202020",
"3  c #FF212121",
"4  c #FF222222",
"5  c #FF242424",
"6  c #FF252525",
"7  c #FF262626",
"8  c #FF282828",
"9  c #FF292929",
"0  c #FF2A2A2A",
"q  c #FF2B2B2B",
"w  c #FF2C2C2C",
"e  c #FF2E2E2E",
"r  c #FF303030",
"t  c #FF313131",
"y  c #FF323232",
"u  c #FF343434",
"i  c #FF363636",
"p  c #FF373737",
"a  c #FF383838",
"s  c #FF393939",
"d  c #FF3A3A3A",
"f  c #FF3B3B3B",
"g  c #FF3C3C3C",
"h  c #FF3F3F3F",
"j  c #FF414141",
"k  c #FF424242",
"l  c #FF434343",
"z  c #FF444444",
"x  c #FF454545",
"c  c #FF464646",
"v  c #FF474747",
"b  c #FF484848",
"n  c #FF494949",
"m  c #FF4C4C4C",
"M  c #FF4C4C4C",
"N  c #FF505050",
"B  c #FF515151",
"V  c #FF525252",
"C  c #FF535353",
"Z  c #FF545454",
"A  c #FF555555",
"S  c #FF565656",
"D  c #FF575757",
"F  c #FF595959",
"G  c #FF5C5C5C",
"H  c #FF5E5E5E",
"J  c #FF626262",
"K  c #FF636363",
"L  c #FF646464",
"P  c #FF666666",
"I  c #FF676767",
"U  c #FF686868",
"Y  c #FF696969",
"T  c #FF6A6A6A",
"R  c #FF6B6B6B",
"E  c #FF6E6E6E",
"W  c #FF6F6F6F",
"Q  c #FF707070",
"!  c #FF727272",
"~  c #FF757575",
"^  c #FF767676",
"/  c #FF777777",
"(  c #FF787878",
")  c #FF797979",
"_  c #FF7B7B7B",
"`  c #FF7C7C7C",
"'  c #FF7D7D7D",
"]  c #FF7E7E7E",
"[  c #FF808080",
"{  c #FF818181",
"}  c #FF828282",
"|  c #FF848484",
" . c #FF858585",
".. c #FF878787",
"X. c #FF888888",
"o. c #FF898989",
"O. c #FF8C8C8C",
"+. c #FF8E8E8E",
"@. c #FF909090",
"#. c #FF919191",
"$. c #FF929292",
"%. c #FF969696",
"&. c #FF999999",
"*. c #FF9A9A9A",
"=. c #FF9C9C9C",
"-. c #FF9F9F9F",
";. c #FFA0A0A0",
":. c #FFA1A1A1",
">. c #FFA2A2A2",
",. c #FFA4A4A4",
"<. c #FFA5A5A5",
"1. c #FFA6A6A6",
"2. c #FFA7A7A7",
"3. c #FFA8A8A8",
"4. c #FFA9A9A9",
"5. c #FFAAAAAA",
"6. c #FFABABAB",
"7. c #FFACACAC",
"8. c #FFB0B0B0",
"9. c #FFB2B2B2",
"0. c #FFB2B2B2",
"q. c #FFB4B4B4",
"w. c #FFB5B5B5",
"e. c #FFB6B6B6",
"r. c #FFB8B8B8",
"t. c #FFB9B9B9",
"y. c #FFBABABA",
"u. c #FFBCBCBC",
"i. c #FFBDBDBD",
"p. c #FF808080",
"a. c #FFBFBFBF",
"s. c #FFC0C0C0",
"d. c #FFC1C1C1",
"f. c #FFC3C3C3",
"g. c #FFC4C4C4",
"h. c #FFC5C5C5",
"j. c #FFC6C6C6",
"k. c #FFC8C8C8",
"l. c #FFC9C9C9",
"z. c #FFCACACA",
"x. c #FFCBCBCB",
"c. c #FFCDCDCD",
"v. c #FFCECECE",
"b. c #FFCFCFCF",
"n. c #FFD0D0D0",
"m. c #FFD1D1D1",
"M. c #FFD2D2D2",
"N. c #FFD3D3D3",
"B. c #FFD4D4D4",
"V. c #FFD5D5D5",
"C. c #FFD6D6D6",
"Z. c #FFD7D7D7",
"A. c #FFD8D8D8",
"S. c #FFD9D9D9",
"D. c #FFDADADA",
"F. c #FFDBDBDB",
"G. c #FFDCDCDC",
"H. c #FFDDDDDD",
"J. c #FFDEDEDE",
"K. c #FFDFDFDF",
"L. c #FFE0E0E0",
"P. c #FFE1E1E1",
"I. c #FFE2E2E2",
"U. c #FFE3E3E3",
"Y. c #FFE4E4E4",
"T. c #FFE6E6E6",
"R. c #FFE6E6E6",
"E. c #FFE7E7E7",
"W. c #FFE8E8E8",
"Q. c #FFE9E9E9",
"!. c #FFEAEAEA",
"~. c #FFEBEBEB",
"^. c #FFECECEC",
"/. c #FFEDEDED",
"(. c #FFEEEEEE",
"). c #FFEFEFEF",
"_. c #FFF0F0F0",
"`. c #FFF1F1F1",
"'. c #FFF2F2F2",
"]. c #FFF3F3F3",
"[. c #FFF4F4F4",
"{. c #FFF5F5F5",
"}. c #FFF6F6F6",
"|. c #FFF7F7F7",
" X c #FFF8F8F8",
".X c #FFF9F9F9",
"XX c #FFFAFAFA",
"oX c #FFFBFBFB",
"OX c #FFFCFCFC",
"+X c #FFFDFDFD",
"@X c #FFFEFEFE",
"#X c #FFFFFFFF",
/* pixels */
"                                                                                                                                                                                                                                                                ",
"                                                                                                                                                                                                                                                                ",
"                                                                                                                                                                                                                                                                ",
"                                                                                                                                                                                                                                                                ",
"                                                                                                                                                                                                                                                                ",
"                                                                                                                                                                                                                                                                ",
"                                                                                                                                                                                                                                                                ",
"                                                                                                                                                                                                                                                                ",
"                                                                                                                                                                                                                                                                ",
"                                                                                                                                                                                                                                                                ",
"                                                                                                                                                                                                                                                                ",
"                                                                                                                                                                                                                                                                ",
"                                                                                                                                                                                                                                                                ",
"                                                                                                                                                                                                                                                                ",
"                                                                                                                                                                                                                                                                ",
"                                                                                                                                                                                                                                                                ",
"                                                                                                                                                                                                                                                                ",
"                                                                                                                                                                                                                                                                ",
"                                                                                                                                                                                                                                                                ",
"                                                                                                                                                                                                                                                                ",
"                                    % % % % % :                                                                                                                                                                                                                 ",
"                      |..X.X|.P.k.{ 0 % % % 0 { ` ` #.b % % 7 d r 0 0 r : % % 7 % %                                                                                                                                                                             ",
"                  |..X.X.X.X.X.X.X.Xu.0 % % c |..X.X.Xh.: % *.Q.P.P.h.r % % % % % % c           K N c 7 % : % % % :                                                                                                                                             ",
"                  .X.X.X|.u.0.P..X.X.X{ % % c |..X.X.X|.N r P..X.X.XQ.d . . . % . . d   |..X.Xu.S.Q.Q.K . % % % % % `                                                                                                                                           ",
"                  |..X.X*.: % b P..X.Xu.: % c |..X.X.X.X1.#..X.X.X.XQ.d 0 W { { ^ N 7 : k..X.Xh.P..X.XW . % % % % % b                                         Q.Q.k.0.o.H 7 % d d d r % . % % 7                                                                 ",
"                  |..X.X{ . . : k..X.XM.: % c |..X.X.X.X|.Q..X.X.X.XP.K M..X.X.X.X|.h.c h..X.Xh.P..X.X` ^ 5.1.H % % d K W W ^ b % % 7 7 : : 0   % % %     |..X.X.X.X.X.X|.h.c 0.|.Q.#.0 K H N 7 : % % % N                                                       ",
"                  .X.X.XS.H d ^ Q..X.Xh.: % c |..X.XQ..X.X.X.X|..X.XP.0..X.XQ.1.M..X.Xu.k..X.Xh.P..X.XQ..X.X.XQ.N ^ P..X.X.X|.S.#.r u.k.h.^ o.u.#.0 % . N |..X.XQ.*.k.|.|..X5.5.Q.|.*.N |..XQ.c . % % . d                                                       ",
"                  |..X.X.X|.Q.|..X.X.X#.% % c |..X.X1.P..X.XP.u..X.XP.h..X.X|.P.Q.|.|.P.S..X.Xh.P..X.XP.h.|..X.Xu.P..X.XS.u.|..X.X1.P..X.X|..X.X.X*.% % b |..X.XQ.5.0.S.h.*.W 5.S.S.0.0.|..X|.o.: 7 N K K W d % % % % : d                                       ",
"                    |..X.X.X.X.X.X.Xh.r % % b |..X.X^ 1..X.X1.{ .X.XP.u..X.XP.^ 1.M.M.h.S..X.Xh.P..X.X` 0 S..X.XS.|..X.XK : u..X.XS.Q..X.XM.M..X.XM.7 % : 0..X.X.X.X.X.X|.S.W u..X.XP.|..X.X.XQ.W k.|..X.X|.S.o.: % % % % N                                     ",
"                        |.|..X.X|.            |.|..XW H |.|.N { .X.XP.W P..X|.S.Q..X.Xk.M..X.Xh.P..X.XW : k..X.Xk.Q..X.X` 7 h..X.XP.Q..X.X` ^ Q.|.S.7 : 0 H u.M.P.M.Q..X.X.XS.M..X.XM.h..X.X.XS.S..X.XP.5.P..X.X^ % % % % d                                     ",
"                                                                  |.P.    |.|.|.|.|.Q.^ k..X.Xh.P..X.XW : k..X.X1.0..X.XQ.S.|..X.X0.P..X.X` : d c d % r P.|.Q.Q.M.N o..X.X.XQ.P..X.X5.H |..XQ.K M..X.X|.S.Q..X.X0.% % % % r                                     ",
"                                                                                                            .X.X#.  |.|..X.X.X.XM.H P..X.X` . % . . %     |..X.X.XP.Q..X.X.XM.k..X.X1.N |..X|.0.S..X.Xk.` 0.k.M.*.: % % % d                                     ",
"                                                                                                                                                            |.|..X.X.X.X.XQ.^ k..X.X5.c Q..X.XQ.5.|..XQ.h.P.|.|.1.% % % :                                       ",
"                                                                                                                                                                                  |.      |.|.Q.N k..X.X.X.X.XQ.K .                                             ",
"                                                                                                                                                                                                                                                                ",
"                                                                                                                                                                                                                                                                ",
"                                                                                                                                                                                                                                                                ",
"                                                                                                                                                                                                                                                                ",
"                                                                                                                                                                                                                                                                ",
"                                                                                                                                                                                                                                                                ",
"                                                                                                                                                                                                                                                                ",
"                                                                                                                                                                                                                                                                ",
"                                                                                                                                                                                                                                                                ",
"                                                                                                                                                                                                                                                                ",
"                                                                                                                                                                                                                                                                ",
"                                                                                                                                                                                                                                                                ",
"                                                                                                                                                                                                                                                                ",
"                                                                                                                                                                                                                                                                ",
"                                                                                                                                                                                                                                                                ",
"                                                                                                                                                                                                                                                                ",
"                                                                                                                                                                                                                                                                ",
"                                                                                                                                                                                                                                                                ",
"                                                                                                                                                                                                                                                                ",
"                                                                                                                                                                                                                                                                "
};
