/* XPM */
static char *oms_174[] = {
/* columns rows colors chars-per-pixel */
"128 54 204 2 ",
"   c #00000000",
".  c #FF0B0B0B",
"X  c #FF0E0E0E",
"o  c #FF0F0F0F",
"O  c #FF101010",
"+  c #FF111111",
"@  c #FF121212",
"#  c #FF131313",
"$  c #FF141414",
"%  c #FF151515",
"&  c #FF161616",
"*  c #FF171717",
"=  c #FF181818",
"-  c #FF191919",
";  c #FF1A1A1A",
":  c #FF1B1B1B",
">  c #FF1C1C1C",
",  c #FF1D1D1D",
"<  c #FF1E1E1E",
"1  c #FF1F1F1F",
"2  c #FF202020",
"3  c #FF212121",
"4  c #FF222222",
"5  c #FF232323",
"6  c #FF242424",
"7  c #FF252525",
"8  c #FF262626",
"9  c #FF272727",
"0  c #FF282828",
"q  c #FF292929",
"w  c #FF2A2A2A",
"e  c #FF2B2B2B",
"r  c #FF2C2C2C",
"t  c #FF2D2D2D",
"y  c #FF2E2E2E",
"u  c #FF2F2F2F",
"i  c #FF303030",
"p  c #FF313131",
"a  c #FF323232",
"s  c #FF333333",
"d  c #FF343434",
"f  c #FF353535",
"g  c #FF363636",
"h  c #FF373737",
"j  c #FF383838",
"k  c #FF393939",
"l  c #FF3A3A3A",
"z  c #FF3B3B3B",
"x  c #FF3C3C3C",
"c  c #FF3D3D3D",
"v  c #FF3E3E3E",
"b  c #FF3F3F3F",
"n  c #FF404040",
"m  c #FF414141",
"M  c #FF424242",
"N  c #FF434343",
"B  c #FF444444",
"V  c #FF454545",
"C  c #FF464646",
"Z  c #FF474747",
"A  c #FF484848",
"S  c #FF494949",
"D  c #FF4A4A4A",
"F  c #FF4B4B4B",
"G  c #FF4C4C4C",
"H  c #FF4C4C4C",
"J  c #FF515151",
"K  c #FF535353",
"L  c #FF545454",
"P  c #FF555555",
"I  c #FF565656",
"U  c #FF575757",
"Y  c #FF585858",
"T  c #FF595959",
"R  c #FF5A5A5A",
"E  c #FF5C5C5C",
"W  c #FF5F5F5F",
"Q  c #FF606060",
"!  c #FF626262",
"~  c #FF636363",
"^  c #FF656565",
"/  c #FF666666",
"(  c #FF676767",
")  c #FF696969",
"_  c #FF6B6B6B",
"`  c #FF6C6C6C",
"'  c #FF6F6F6F",
"]  c #FF707070",
"[  c #FF737373",
"{  c #FF747474",
"}  c #FF757575",
"|  c #FF787878",
" . c #FF797979",
".. c #FF7A7A7A",
"X. c #FF7D7D7D",
"o. c #FF828282",
"O. c #FF838383",
"+. c #FF858585",
"@. c #FF878787",
"#. c #FF888888",
"$. c #FF8A8A8A",
"%. c #FF8B8B8B",
"&. c #FF8C8C8C",
"*. c #FF8D8D8D",
"=. c #FF8E8E8E",
"-. c #FF909090",
";. c #FF919191",
":. c #FF929292",
">. c #FF939393",
",. c #FF949494",
"<. c #FF959595",
"1. c #FF969696",
"2. c #FF989898",
"3. c #FF999999",
"4. c #FF9A9A9A",
"5. c #FF9B9B9B",
"6. c #FF9C9C9C",
"7. c #FF9D9D9D",
"8. c #FF9E9E9E",
"9. c #FFA1A1A1",
"0. c #FFA2A2A2",
"q. c #FFA3A3A3",
"w. c #FFA5A5A5",
"e. c #FFA7A7A7",
"r. c #FFA9A9A9",
"t. c #FFAAAAAA",
"y. c #FFABABAB",
"u. c #FFADADAD",
"i. c #FFAFAFAF",
"p. c #FFB0B0B0",
"a. c #FFB1B1B1",
"s. c #FFB2B2B2",
"d. c #FFB2B2B2",
"f. c #FFB4B4B4",
"g. c #FFB5B5B5",
"h. c #FFB6B6B6",
"j. c #FFB7B7B7",
"k. c #FFB8B8B8",
"l. c #FFB9B9B9",
"z. c #FFBABABA",
"x. c #FFBCBCBC",
"c. c #FF808080",
"v. c #FFBFBFBF",
"b. c #FFC0C0C0",
"n. c #FFC1C1C1",
"m. c #FFC2C2C2",
"M. c #FFC3C3C3",
"N. c #FFC6C6C6",
"B. c #FFC7C7C7",
"V. c #FFC8C8C8",
"C. c #FFC9C9C9",
"Z. c #FFCACACA",
"A. c #FFCBCBCB",
"S. c #FFCCCCCC",
"D. c #FFCDCDCD",
"F. c #FFCECECE",
"G. c #FFCFCFCF",
"H. c #FFD0D0D0",
"J. c #FFD1D1D1",
"K. c #FFD3D3D3",
"L. c #FFD4D4D4",
"P. c #FFD5D5D5",
"I. c #FFD6D6D6",
"U. c #FFD7D7D7",
"Y. c #FFD8D8D8",
"T. c #FFD9D9D9",
"R. c #FFDADADA",
"E. c #FFDBDBDB",
"W. c #FFDCDCDC",
"Q. c #FFDDDDDD",
"!. c #FFDEDEDE",
"~. c #FFDFDFDF",
"^. c #FFE0E0E0",
"/. c #FFE1E1E1",
"(. c #FFE2E2E2",
"). c #FFE3E3E3",
"_. c #FFE4E4E4",
"`. c #FFE6E6E6",
"'. c #FFE6E6E6",
"]. c #FFE7E7E7",
"[. c #FFE8E8E8",
"{. c #FFE9E9E9",
"}. c #FFEAEAEA",
"|. c #FFEBEBEB",
" X c #FFECECEC",
".X c #FFEDEDED",
"XX c #FFEEEEEE",
"oX c #FFEFEFEF",
"OX c #FFF0F0F0",
"+X c #FFF1F1F1",
"@X c #FFF2F2F2",
"#X c #FFF3F3F3",
"$X c #FFF4F4F4",
"%X c #FFF5F5F5",
"&X c #FFF6F6F6",
"*X c #FFF7F7F7",
"=X c #FFF8F8F8",
"-X c #FFF9F9F9",
";X c #FFFAFAFA",
":X c #FFFBFBFB",
">X c #FFFCFCFC",
",X c #FFFDFDFD",
"<X c #FFFEFEFE",
"1X c #FFFFFFF1",
/* pixels */
"                                                                                                                                                                                                                                                                ",
"                                                                                                                                                                                                                                                                ",
"                                                                                                                                                                                                                                                                ",
"                                                                                                                                                                                                                                                                ",
"                                                                                                                                                                                                                                                                ",
"                                                                                                                                                                                                                                                                ",
"                                                                                                                                                                                                                                                                ",
"                                                                                                                                                                                                                                                                ",
"                                                                                                                                                                                                                                                                ",
"                                                                                                                                                                                                                                                                ",
"                                                                                                                                                                                                                                                                ",
"                                                                                                                                                                                                                                                                ",
"                                                                                                                                                                                                                                                                ",
"                                                                                                                                                                                                                                                                ",
"                                                                                                                                                                                                                                                                ",
"                                                                                                                                                                                                                                                                ",
"                                                                                                                                                                                                                                                                ",
"                                      0 h 0 0   , , 3 ,     M h 0 0 0 0 k k I                                                                                                                                                                                   ",
"                D k h h k h D       0 $ $ $ 3   $ $ $ $   , $ $ $ $ $ $ $ $ $ , M                                                                                                                                                                               ",
"              3 $ $ $ $ $ $ $ , M 3 $ $ $ $ $ 3 $ o o $ $ $ $ $ $ $ $ $ $ $ $ $ ,                                                               h k k h   M I I                                                                                                 ",
"              $ $ $ $ $ $ $ $ $ $ 3 0 D M k 3 3 X.[ ` I , $ 3 k M k k h 3 , $ $ $           3 3 k   0 h M I             T                       $ $ $ $ $ $ $ $ 3                       0 k h h M ~         ` [                                                 ",
"              $ $ 3 h k k 0 , $ $ o [ +X+X+X;.k [.-X-XI.D 5.Q.[.[.[.[.).Q.z.&.h $         $ $ $ $ $ $ $ $ $   3 , $ $ $ $ , 3 k       0 3 h k , $ $ $ $ $ $ $ $ 3                     $ $ $ $ $ $ 3       $ , , , , 0               k 0 h h k D ~               ",
"              0 ;.I.[.[.[.).A.;.h T A.-X-X-XA.[ A.Q.I.z.5.+X+X-X-X).A.[.-X-X-XA.D         o o $ $ $ $ $ $ $ 0 $ $ $ $ $ $ $ $ $ 3 I $ $ $ $ h k h 0 , 3 , , $ $ 3     3 3 3 3 3 h M 0 o $ $ $ $ $ $ M   $ $ $ $ $ $ ,           $ $ $ $ $ $ $ $ $ 3 I           ",
"              0.-X-X-XI.d.[.-X-XA.i.-X-X-X-X-X[.+X+X+XA.D O.d.Q.).0.X.A.-X-X-X-X~       h T ~ k , h 0 3 3 $ $ $ , , , $ $ o $ $ $ $ o o $ $ d.[.[.Q.5.A.A.A.O.$ , h $ $ $ $ $ $ $ 0 M k h 0 3 $ $ $ , , $ $ $ $ $ $ ,         $ $ o $ $ $ $ $ $ $ $ $ M         ",
"              [.+X[.+X).I.[.-X-X-Xi.z.-X-X-X+X[.-X-X-XI.O.).+X-X-X-X-X-X-X-X-X[.D       Q.+X-X).i.Q.Q.Q.z.0 T 0.z.B.B.d.5.~ 0 $ $ k T I h , z.-X-X+Xd.+X-X-Xz.$ $ $ o o o $ $ $ $ &.+X[.[.Q.B.0 $ , &.d.0.5.;.[ , $ ,       0 k M k k 0 , $ $ $ $ $ $ ,         ",
"              [.).Q.[.5.X.Q.-X-X-X;.;.-X-X-X[.  -X-X-X).Q.-X-X-X-X[.Q.Q.).).B.~ ,       -X-X-X-X-X-X-X-XQ.&.+X-X-X-X[.-X-X-XA.M [ [.+X+X).0.I.-X-X+Xd.+X-X-Xd., k ` &.&.O.` M , o ;.-X-X-X-X-XO.o T +X-X-X-X-XQ.3 $ ,     B.I.[.[.[.[.Q.A.;.D $ $ $ $ $ I       ",
"                +X-X-X[.Q.+X-X-X+X[.+X-X-X-X).  -X-X-X).).-X-X-X-X;.D 0.Q.I.d.0.        +X+X-X[.  +X-X-X[.).-X-X-X5.k 5.-X-X-XB.I.-X-X-X+X+X-X-X-X+Xd.+X-X-Xd.X.[.-X-X+X+X-X[.B.D ;.-X-X-X-X-X).D B.-X-X-X-X-XQ.3 $ , &.-X-X-X-X-X-X-X-X-X-X[.X.$ $ $ $ T       ",
"                    +X+X+X+X+X+X    -X-X+X+X    -X-X-X[.  +X-X-X-X+X).+X-X-X-X-X                  +X-X-X[.Q.-X-X-XX.o ~ -X-X-X[.+X-X-X+X[ ~ -X-X-X+Xd.+X-X-XA.Q.-X-X+Xd.d.+X-X-XA.0.-X-X-X-X-X-XQ.+X-X-X-X-X-XQ.3 $ , d.-X-X-X+Xd.O.&.A.-X-X-X[.D $ $ ,         ",
"                                                              +X+X-X-X-X-X-X+X                    +X-X-X).z.-X-X-X[.d.Q.-X-X-X[.+X-X-X+XM   -X-X-X+Xd.+X-X-XI.A.[.).).A.A.+X-X-X[.B.-X-X-X).+X-X-X-X-X[.+X-X-XQ.3 $ , z.-X-X-XA.3 $ $ 0 I.-X-X-XO.o $           ",
"                                                                                                  +X+X-X+X    +X+X-X-X-X-X+X+X  +X-X-X+X    -X-X-X+Xd.+X-X-XA.A.+X[.).;.;.[.-X-X[.A.-X-X-Xd.i.-X-X-X[.5.+X-X-XQ.3 $   [.-X-X-XQ.k $ $ h I.-X-X-X&.$             ",
"                                                                                                                                              -X-X+XI.-X-X-XI.  -X-X-X-X-X-X-X-X+X+X-X-X-Xi.T -X-X-XB.  -X-X-XQ.3       +X-X-X-X).0.5.I.-X-X-X+XO.              ",
"                                                                                                                                                                        [.+X        -X-X+XI.    -X+X    +X-X-X).          +X-X-X-X-X-X-X-X-X-X+X                ",
"                                                                                                                                                                                                                              +X-X+X+X+X+X+X                    ",
"                                                                                                                                                                                                                                                                ",
"                                                                                                                                                                                                                                                                ",
"                                                                                                                                                                                                                                                                ",
"                                                                                                                                                                                                                                                                ",
"                                                                                                                                                                                                                                                                ",
"                                                                                                                                                                                                                                                                ",
"                                                                                                                                                                                                                                                                ",
"                                                                                                                                                                                                                                                                ",
"                                                                                                                                                                                                                                                                ",
"                                                                                                                                                                                                                                                                ",
"                                                                                                                                                                                                                                                                ",
"                                                                                                                                                                                                                                                                ",
"                                                                                                                                                                                                                                                                ",
"                                                                                                                                                                                                                                                                ",
"                                                                                                                                                                                                                                                                ",
"                                                                                                                                                                                                                                                                ",
"                                                                                                                                                                                                                                                                ",
"                                                                                                                                                                                                                                                                ",
"                                                                                                                                                                                                                                                                ",
"                                                                                                                                                                                                                                                                ",
"                                                                                                                                                                                                                                                                "
};
