/* XPM */
static char *oms_245[] = {
/* columns rows colors chars-per-pixel */
"128 54 180 2 ",
"   c #00000000",
".  c #FF0B0B0B",
"X  c #FF0E0E0E",
"o  c #FF0F0F0F",
"O  c #FF101010",
"+  c #FF111111",
"@  c #FF121212",
"#  c #FF131313",
"$  c #FF141414",
"%  c #FF151515",
"&  c #FF161616",
"*  c #FF171717",
"=  c #FF181818",
"-  c #FF191919",
";  c #FF1A1A1A",
":  c #FF1B1B1B",
">  c #FF1C1C1C",
",  c #FF1D1D1D",
"<  c #FF1E1E1E",
"1  c #FF1F1F1F",
"2  c #FF202020",
"3  c #FF212121",
"4  c #FF222222",
"5  c #FF232323",
"6  c #FF252525",
"7  c #FF262626",
"8  c #FF272727",
"9  c #FF282828",
"0  c #FF292929",
"q  c #FF2A2A2A",
"w  c #FF2B2B2B",
"e  c #FF2C2C2C",
"r  c #FF2D2D2D",
"t  c #FF2E2E2E",
"y  c #FF2F2F2F",
"u  c #FF303030",
"i  c #FF313131",
"p  c #FF323232",
"a  c #FF333333",
"s  c #FF343434",
"d  c #FF353535",
"f  c #FF363636",
"g  c #FF393939",
"h  c #FF3A3A3A",
"j  c #FF3B3B3B",
"k  c #FF3C3C3C",
"l  c #FF3E3E3E",
"z  c #FF3F3F3F",
"x  c #FF424242",
"c  c #FF434343",
"v  c #FF444444",
"b  c #FF474747",
"n  c #FF484848",
"m  c #FF4A4A4A",
"M  c #FF4B4B4B",
"N  c #FF4C4C4C",
"B  c #FF4F4F4F",
"V  c #FF515151",
"C  c #FF525252",
"Z  c #FF555555",
"A  c #FF575757",
"S  c #FF585858",
"D  c #FF595959",
"F  c #FF5B5B5B",
"G  c #FF5C5C5C",
"H  c #FF5E5E5E",
"J  c #FF626262",
"K  c #FF666666",
"L  c #FF676767",
"P  c #FF686868",
"I  c #FF696969",
"U  c #FF6A6A6A",
"Y  c #FF6C6C6C",
"T  c #FF6D6D6D",
"R  c #FF6E6E6E",
"E  c #FF6F6F6F",
"W  c #FF707070",
"Q  c #FF717171",
"!  c #FF737373",
"~  c #FF747474",
"^  c #FF757575",
"/  c #FF767676",
"(  c #FF797979",
")  c #FF7B7B7B",
"_  c #FF7C7C7C",
"`  c #FF7D7D7D",
"'  c #FF808080",
"]  c #FF818181",
"[  c #FF828282",
"{  c #FF868686",
"}  c #FF878787",
"|  c #FF888888",
" . c #FF898989",
".. c #FF8A8A8A",
"X. c #FF8F8F8F",
"o. c #FF929292",
"O. c #FF939393",
"+. c #FF959595",
"@. c #FF979797",
"#. c #FF9A9A9A",
"$. c #FFA2A2A2",
"%. c #FFA5A5A5",
"&. c #FFA7A7A7",
"*. c #FFA9A9A9",
"=. c #FFABABAB",
"-. c #FFACACAC",
";. c #FFADADAD",
":. c #FFAEAEAE",
">. c #FFB2B2B2",
",. c #FFB4B4B4",
"<. c #FFB5B5B5",
"1. c #FFB6B6B6",
"2. c #FFB7B7B7",
"3. c #FFB8B8B8",
"4. c #FFB9B9B9",
"5. c #FFBABABA",
"6. c #FFBBBBBB",
"7. c #FFBCBCBC",
"8. c #FFBDBDBD",
"9. c #FF808080",
"0. c #FFBFBFBF",
"q. c #FFC0C0C0",
"w. c #FFC4C4C4",
"e. c #FFC5C5C5",
"r. c #FFC6C6C6",
"t. c #FFC7C7C7",
"y. c #FFC8C8C8",
"u. c #FFC9C9C9",
"i. c #FFCACACA",
"p. c #FFCBCBCB",
"a. c #FFCCCCCC",
"s. c #FFCDCDCD",
"d. c #FFCECECE",
"f. c #FFD0D0D0",
"g. c #FFD2D2D2",
"h. c #FFD3D3D3",
"j. c #FFD4D4D4",
"k. c #FFD5D5D5",
"l. c #FFD6D6D6",
"z. c #FFD7D7D7",
"x. c #FFD8D8D8",
"c. c #FFD9D9D9",
"v. c #FFDADADA",
"b. c #FFDBDBDB",
"n. c #FFDCDCDC",
"m. c #FFDDDDDD",
"M. c #FFDEDEDE",
"N. c #FFDFDFDF",
"B. c #FFE0E0E0",
"V. c #FFE1E1E1",
"C. c #FFE2E2E2",
"Z. c #FFE3E3E3",
"A. c #FFE4E4E4",
"S. c #FFE6E6E6",
"D. c #FFE6E6E6",
"F. c #FFE7E7E7",
"G. c #FFE8E8E8",
"H. c #FFE9E9E9",
"J. c #FFEAEAEA",
"K. c #FFEBEBEB",
"L. c #FFECECEC",
"P. c #FFEDEDED",
"I. c #FFEEEEEE",
"U. c #FFEFEFEF",
"Y. c #FFF0F0F0",
"T. c #FFF1F1F1",
"R. c #FFF2F2F2",
"E. c #FFF3F3F3",
"W. c #FFF4F4F4",
"Q. c #FFF5F5F5",
"!. c #FFF6F6F6",
"~. c #FFF7F7F7",
"^. c #FFF8F8F8",
"/. c #FFF9F9F9",
"(. c #FFFAFAFA",
"). c #FFFBFBFB",
"_. c #FFFCFCFC",
"`. c #FFFDFDFD",
"'. c #FFFEFEFE",
"]. c #FFFFFFF1",
/* pixels */
"                                                                                                                                                                                                                                                                ",
"                                                                                                                                                                                                                                                                ",
"                                                                                                                                                                                                                                                                ",
"                                                                                                                                                                                                                                                                ",
"                                                                                                                                                                                                                                                                ",
"                                                                                                                                                                                                                                                                ",
"                                                                                                                                                                                                                                                                ",
"                                                                                                                                                                                                                                                                ",
"                                                                                                                                                                                                                                                                ",
"                                                                                                                                                                                                                                                                ",
"                                                                                                                                                            A ; #                                                                                               ",
"                                                                                                                                                        o.s # # # # # # # # o                                                                                   ",
"                                                                                                                                                        s # # # # # # # # # A 9.J.].                                                                            ",
"                                                                                                                                              P k # ; s # # # # # # # # # G J.].].].W.                                                                          ",
"                                                                                                                                            W ; # # # # # # # # # k K ; 7 y.].f.x.].W.                                                                          ",
"                                                                                                                                      n 7 # 7 # # # # # # o # # ..F.y.; A W.f.0 P ].].                                                                          ",
"                                                                                                                                    A # # # # # # # # # 7 P K 0 x.].y.; W ].#.o W ].W.                                                                          ",
"                                                                                                                                    A # # # # # # # # 7 9.].q.G W.].y.; ] ].<.n y.].                                                                            ",
"                                                                                                                        k #         n # # # # # # # # s F.].J.-.].].y.; ` ].W.J.].W.                                                                            ",
"                                                                                                                  W x 7 # # # # # ; ; # # 7 n ; # # ; s x.].].W.].].y.; G W.].].].                                                                              ",
"                                                                                                                -.0 # # # # # # # # # s P q.x.7 s o.q.] x.].].].x.W.F.s 7 f.W.W.                                                                                ",
"                                                                                                                -.7 # # # # # # # # s f.x.J.x.n f.W.].x.F.J.F.].-.J.W.                                                                                          ",
"                                                                                                                W ; # # # # # # # o k J.x.F.F.9.W.q.W.F.J.x.$.W.] J.W.                                                                                          ",
"                                                                                                            P ; # # # # # # # # # s G J.x.F.W.J.W.x.W.x.F.F.` J.                                                                                                ",
"                                                                                                      x # 0 7 # # # # # # # # o G F.F.W.x.F.].F.y.$.W.<.x.].                                                                                                    ",
"                                                                                                  W 7 # # # # # # # # # 7 W $.G q.].F.].x.F.W.J.W.W.W.                                                                                                          ",
"                                                                                              k ; ; # # # # # # # # ; k y.].].x.F.x.K J.x.F.J.x.W.W.                                                                                                            ",
"                                                                              x ; # # # ; 7 7 # # # ; s ; # # ; 7 ] #.<.W.9.W.J.J.f.n J.F.F.W.                                                                                                                  ",
"                                                                          K ; # # # # # # # # # 7 W q.J.] # 0 -.q.W.F.J.y.x F.F.J.f.A F.J.                                                                                                                      ",
"                                                                    P 0 7 ; # # # # # # # # 7 0 9.].].].<.# ` ].W.].W.].f.` W.9.x.W.                                                                                                                            ",
"                                                                    0 # # # # # # # # # ; o.<.$.].q.q.].-.# $.].$.W.W.W.].W.].                                                                                                                                  ",
"                                                              ] 0 # # # # # # # # # ; x G J.f.q.x.y.F.].W # $.y.P W.x.x.].W.                                                                                                                                    ",
"                                                              K # # # # # # # # # # W J.o.q.9.` F.].].q.A # k 7 x W.J.                                                                                                                                          ",
"                                                              s # # # # # # # # # # o.].F.W.x.y.].y.<.F.F.                                                                                                                                                      ",
"                                                        k # ; # # # # # # # # 0 n k f.].W.].W.W.].-.y.].W.                                                                                                                                                      ",
"                                                    ..0 # # # # # # # # # # P x.W.9.F.].-.J.W.W.].].].W.                                                                                                                                                        ",
"                                                    n # # # # # # # # # # G J.x.W.f.<.]...F.F.f.].W.W.                                                                                                                                                          ",
"                                                  9.0 # # # # # # # # # # <.].f.W.f.9.]...F.W.                                                                                                                                                                  ",
"                                                    0 # # # # # # # # # 7 y.F.<.W.x.J.W.o.                                                                                                                                                                      ",
"                                                    0 # # # # # # # # # 7 9.x.y.W.<.x.                                                                                                                                                                          ",
"                                                    k # # # # # # # # # ; y.].].W.                                                                                                                                                                              ",
"                                                                            W.                                                                                                                                                                                  ",
"                                                                                                                                                                                                                                                                ",
"                                                                                                                                                                                                                                                                ",
"                                                                                                                                                                                                                                                                ",
"                                                                                                                                                                                                                                                                ",
"                                                                                                                                                                                                                                                                ",
"                                                                                                                                                                                                                                                                ",
"                                                                                                                                                                                                                                                                ",
"                                                                                                                                                                                                                                                                ",
"                                                                                                                                                                                                                                                                ",
"                                                                                                                                                                                                                                                                ",
"                                                                                                                                                                                                                                                                ",
"                                                                                                                                                                                                                                                                "
};
