/* XPM */
static char *oms_267[] = {
/* columns rows colors chars-per-pixel */
"128 54 120 2 ",
"   c #00000000",
".  c #FF0F0F0F",
"X  c #FF101010",
"o  c #FF111111",
"O  c #FF121212",
"+  c #FF131313",
"@  c #FF141414",
"#  c #FF151515",
"$  c #FF161616",
"%  c #FF171717",
"&  c #FF181818",
"*  c #FF191919",
"=  c #FF1A1A1A",
"-  c #FF1B1B1B",
";  c #FF1C1C1C",
":  c #FF1D1D1D",
">  c #FF1E1E1E",
",  c #FF1F1F1F",
"<  c #FF202020",
"1  c #FF212121",
"2  c #FF222222",
"3  c #FF232323",
"4  c #FF292929",
"5  c #FF2A2A2A",
"6  c #FF2C2C2C",
"7  c #FF2D2D2D",
"8  c #FF333333",
"9  c #FF353535",
"0  c #FF393939",
"q  c #FF3A3A3A",
"w  c #FF3E3E3E",
"e  c #FF3F3F3F",
"r  c #FF404040",
"t  c #FF424242",
"y  c #FF454545",
"u  c #FF474747",
"i  c #FF484848",
"p  c #FF4C4C4C",
"a  c #FF4E4E4E",
"s  c #FF565656",
"d  c #FF575757",
"f  c #FF585858",
"g  c #FF595959",
"h  c #FF5F5F5F",
"j  c #FF626262",
"k  c #FF646464",
"l  c #FF676767",
"z  c #FF696969",
"x  c #FF6F6F6F",
"c  c #FF707070",
"v  c #FF737373",
"b  c #FF7A7A7A",
"n  c #FF7B7B7B",
"m  c #FF7C7C7C",
"M  c #FF7E7E7E",
"N  c #FF828282",
"B  c #FF838383",
"V  c #FF848484",
"C  c #FF868686",
"Z  c #FF898989",
"A  c #FF8B8B8B",
"S  c #FF8D8D8D",
"D  c #FF8E8E8E",
"F  c #FF909090",
"G  c #FF919191",
"H  c #FF929292",
"J  c #FF969696",
"K  c #FF999999",
"L  c #FF9B9B9B",
"P  c #FF9C9C9C",
"I  c #FF9D9D9D",
"U  c #FFA0A0A0",
"Y  c #FFA4A4A4",
"T  c #FFA6A6A6",
"R  c #FFA9A9A9",
"E  c #FFAAAAAA",
"W  c #FFACACAC",
"Q  c #FFADADAD",
"!  c #FFAEAEAE",
"~  c #FFB1B1B1",
"^  c #FFB2B2B2",
"/  c #FFB4B4B4",
"(  c #FFB5B5B5",
")  c #FFB7B7B7",
"_  c #FFB8B8B8",
"`  c #FFBABABA",
"'  c #FFBDBDBD",
"]  c #FF808080",
"[  c #FFC2C2C2",
"{  c #FFC5C5C5",
"}  c #FFC7C7C7",
"|  c #FFC8C8C8",
" . c #FFCCCCCC",
".. c #FFD0D0D0",
"X. c #FFD1D1D1",
"o. c #FFD3D3D3",
"O. c #FFD4D4D4",
"+. c #FFD6D6D6",
"@. c #FFD7D7D7",
"#. c #FFDADADA",
"$. c #FFDBDBDB",
"%. c #FFDCDCDC",
"&. c #FFDDDDDD",
"*. c #FFDEDEDE",
"=. c #FFDFDFDF",
"-. c #FFE1E1E1",
";. c #FFE3E3E3",
":. c #FFE4E4E4",
">. c #FFE6E6E6",
",. c #FFE7E7E7",
"<. c #FFE8E8E8",
"1. c #FFE9E9E9",
"2. c #FFEAEAEA",
"3. c #FFEBEBEB",
"4. c #FFECECEC",
"5. c #FFEDEDED",
"6. c #FFF0F0F0",
"7. c #FFF3F3F3",
"8. c #FFF4F4F4",
"9. c #FFF5F5F5",
/* pixels */
"                                                                                                                                                                                                                                                                ",
"                                                                                                                                                                                                                                                                ",
"                                                                                                                                                                                                                                                                ",
"                                                                                                                                                                                                                                                                ",
"                                                                                                                                                                                                                                                                ",
"                                                                                                                                                                                                                                                                ",
"                                                                                                                                                                                                                                                                ",
"                                                                                                                                                                                                                                                                ",
"                                                                                                                                                                                                                                                                ",
"                                                                                                                                                                                                                                                                ",
"                                                                                                                                                                                                                                                                ",
"                                                                                                                                                                                                                                                                ",
"                                                                                                                  N + + :                                                                                                                                       ",
"                                                                                                                  d + + + + + + + + + . h 1.                                                                                                                    ",
"                                                                                                                  0 + + + + + + + + + . N 6.                                                                                                                    ",
"                                                                                                                p + + + + + + + + + + 0 Y 1.                                                                                                                    ",
"                                                                                                              P 7 + + + + + + + + + : m G `                                                                                                                     ",
"                                                                                                              y + + + + + + + + + + h E G ^                                                                                                                     ",
"                                                                                                              8 + + + + + + + + + + A  .E o.                                                                                                                    ",
"                                                                                                              7 + + + + + + + + + : A o.{                                                                                                                       ",
"                                                                                                          N 3 : + + + + + + + + 8 j E o.^                                                                                                                       ",
"                                                                                                          h : + + + + + + + + . v { 1.&.`                                                                                                                       ",
"                                                                                                          d + + : + + + + + + . m >.>.o.                                                                                                                        ",
"                                                                                                         .p + + + + + + + + + + N 6.1.&.                                                                                                                        ",
"                                                                                                        A : + + + + + + + + + 3 { >.1.                                                                                                                          ",
"                                                                                                        y + + + + + + + + + + x >.1.1.                                                                                                                          ",
"                                                                                                      x + + + + + + + + + + 7 o.>.6.                                                                                                                            ",
"                                                                                                    y 7 + + + + + + + + 3 0 v &.o.1.                                                                                                                            ",
"                                                                                                  0 + + + + + + + + + . j Y { { &.                                                                                                                              ",
"                                                                                                A 3 + + + + + + + + + : Y ` &.&.                                                                                                                                ",
"                                                                                                x + + + + + + + + + + 0 { E o.6.                                                                                                                                ",
"                                                                                              E p : + + + + + + + + + v ` P ^                                                                                                                                   ",
"                                                                                              G 7 + + + + + + + + + + P o.G P                                                                                                                                   ",
"                                                                                              N + + + + + + + + + + : ^ &.o.                                                                                                                                    ",
"                                                                                              y + + + + + + + + + + j o.1.                                                                                                                                      ",
"                                                                                            G : + + + + + + + + + + P o.&.                                                                                                                                      ",
"                                                                                            N 3 + + + + + + + + + : E >.&.                                                                                                                                      ",
"                                                                                            m + + + + + + + + + + : ^ 1.                                                                                                                                        ",
"                                                                                            N + : + + + : + + + + : E 1.                                                                                                                                        ",
"                                                                                            m + + + + + + + + + + : `                                                                                                                                           ",
"                                                                                            m + + + + + + + + + + :                                                                                                                                             ",
"                                                                                                                                                                                                                                                                ",
"                                                                                                                                                                                                                                                                ",
"                                                                                                                                                                                                                                                                ",
"                                                                                                                                                                                                                                                                ",
"                                                                                                                                                                                                                                                                ",
"                                                                                                                                                                                                                                                                ",
"                                                                                                                                                                                                                                                                ",
"                                                                                                                                                                                                                                                                ",
"                                                                                                                                                                                                                                                                ",
"                                                                                                                                                                                                                                                                ",
"                                                                                                                                                                                                                                                                ",
"                                                                                                                                                                                                                                                                ",
"                                                                                                                                                                                                                                                                "
};
