/* XPM */
static char *oms_298[] = {
/* columns rows colors chars-per-pixel */
"128 54 170 2 ",
"   c #00000000",
".  c #FF0D0D0D",
"X  c #FF0E0E0E",
"o  c #FF0F0F0F",
"O  c #FF101010",
"+  c #FF111111",
"@  c #FF121212",
"#  c #FF131313",
"$  c #FF141414",
"%  c #FF151515",
"&  c #FF161616",
"*  c #FF171717",
"=  c #FF181818",
"-  c #FF191919",
";  c #FF1A1A1A",
":  c #FF1B1B1B",
">  c #FF1C1C1C",
",  c #FF1D1D1D",
"<  c #FF1E1E1E",
"1  c #FF1F1F1F",
"2  c #FF212121",
"3  c #FF222222",
"4  c #FF242424",
"5  c #FF252525",
"6  c #FF262626",
"7  c #FF272727",
"8  c #FF292929",
"9  c #FF2A2A2A",
"0  c #FF2B2B2B",
"q  c #FF2C2C2C",
"w  c #FF2D2D2D",
"e  c #FF2E2E2E",
"r  c #FF313131",
"t  c #FF323232",
"y  c #FF353535",
"u  c #FF373737",
"i  c #FF383838",
"p  c #FF3C3C3C",
"a  c #FF3E3E3E",
"s  c #FF3F3F3F",
"d  c #FF404040",
"f  c #FF424242",
"g  c #FF444444",
"h  c #FF464646",
"j  c #FF484848",
"k  c #FF4B4B4B",
"l  c #FF4E4E4E",
"z  c #FF505050",
"x  c #FF515151",
"c  c #FF525252",
"v  c #FF535353",
"b  c #FF545454",
"n  c #FF555555",
"m  c #FF565656",
"M  c #FF585858",
"N  c #FF595959",
"B  c #FF5A5A5A",
"V  c #FF5B5B5B",
"C  c #FF5E5E5E",
"Z  c #FF5F5F5F",
"A  c #FF626262",
"S  c #FF666666",
"D  c #FF6A6A6A",
"F  c #FF6C6C6C",
"G  c #FF6D6D6D",
"H  c #FF6E6E6E",
"J  c #FF737373",
"K  c #FF777777",
"L  c #FF787878",
"P  c #FF797979",
"I  c #FF7A7A7A",
"U  c #FF808080",
"Y  c #FF808080",
"T  c #FF828282",
"R  c #FF838383",
"E  c #FF868686",
"W  c #FF888888",
"Q  c #FF8A8A8A",
"!  c #FF8C8C8C",
"~  c #FF8E8E8E",
"^  c #FF8F8F8F",
"/  c #FF929292",
"(  c #FF949494",
")  c #FF969696",
"_  c #FF979797",
"`  c #FF999999",
"'  c #FF9A9A9A",
"]  c #FF9C9C9C",
"[  c #FF9D9D9D",
"{  c #FF9E9E9E",
"}  c #FF9F9F9F",
"|  c #FFA0A0A0",
" . c #FFA3A3A3",
".. c #FFA5A5A5",
"X. c #FFA6A6A6",
"o. c #FFA7A7A7",
"O. c #FFA9A9A9",
"+. c #FFAAAAAA",
"@. c #FFABABAB",
"#. c #FFACACAC",
"$. c #FFADADAD",
"%. c #FFAFAFAF",
"&. c #FFB0B0B0",
"*. c #FFB1B1B1",
"=. c #FFB2B2B2",
"-. c #FFB2B2B2",
";. c #FFB5B5B5",
":. c #FFB6B6B6",
">. c #FFB8B8B8",
",. c #FFB9B9B9",
"<. c #FFBBBBBB",
"1. c #FFBDBDBD",
"2. c #FF808080",
"3. c #FFC0C0C0",
"4. c #FFC2C2C2",
"5. c #FFC3C3C3",
"6. c #FFC4C4C4",
"7. c #FFC6C6C6",
"8. c #FFC7C7C7",
"9. c #FFC8C8C8",
"0. c #FFCACACA",
"q. c #FFCBCBCB",
"w. c #FFCDCDCD",
"e. c #FFCECECE",
"r. c #FFCFCFCF",
"t. c #FFD0D0D0",
"y. c #FFD1D1D1",
"u. c #FFD2D2D2",
"i. c #FFD3D3D3",
"p. c #FFD4D4D4",
"a. c #FFD5D5D5",
"s. c #FFD6D6D6",
"d. c #FFD7D7D7",
"f. c #FFD9D9D9",
"g. c #FFDADADA",
"h. c #FFDBDBDB",
"j. c #FFDCDCDC",
"k. c #FFDDDDDD",
"l. c #FFDEDEDE",
"z. c #FFE0E0E0",
"x. c #FFE1E1E1",
"c. c #FFE2E2E2",
"v. c #FFE3E3E3",
"b. c #FFE4E4E4",
"n. c #FFE6E6E6",
"m. c #FFE6E6E6",
"M. c #FFE7E7E7",
"N. c #FFE8E8E8",
"B. c #FFEAEAEA",
"V. c #FFEBEBEB",
"C. c #FFECECEC",
"Z. c #FFEDEDED",
"A. c #FFEEEEEE",
"S. c #FFEFEFEF",
"D. c #FFF0F0F0",
"F. c #FFF1F1F1",
"G. c #FFF2F2F2",
"H. c #FFF3F3F3",
"J. c #FFF4F4F4",
"K. c #FFF5F5F5",
"L. c #FFF6F6F6",
"P. c #FFF7F7F7",
"I. c #FFF8F8F8",
"U. c #FFF9F9F9",
"Y. c #FFFAFAFA",
"T. c #FFFBFBFB",
"R. c #FFFCFCFC",
"E. c #FFFDFDFD",
"W. c #FFFEFEFE",
"Q. c #FFFFFFFF",
/* pixels */
"                                                                                                                                                                                                                                                                ",
"                                                                                                                                                                                                                                                                ",
"                                                                                                                                                                                                                                                                ",
"                                                                                                                                                                                                                                                                ",
"                                                                                                                                                                                                                                                                ",
"                                                                                                                                                                                                                                                                ",
"                                                                                                                                                                                                                                                                ",
"                                                                                                                                                                                                                                                                ",
"                                                                                                                                                                                                                                                                ",
"                                                                                                                                                                                                                                                                ",
"                                                                                                                                                                                                                                                                ",
"                                                                                                                                                                                                                                                                ",
"                                                                                                                                                                                                                                                                ",
"                                                                                                                                                                                                                                                                ",
"                                                                                                                                                                                                                                                                ",
"                                                                                                                                                                                                                                                                ",
"                                                                                                                                                                                                                                                                ",
"                                                          L.L.2.a & & & o & & & & & 1 b                                                                                                                                                                         ",
"                                                        I.I.I.I.r.5 & F A q & & o & & & 5 & & 5 M                                                                                                                                                               ",
"                                                        I.L.r.C.I.A & 8.I.&.1 M k 5 & & & & & & 1 5 & q                                                                                                                                                         ",
"                                                        I.r.5 W I./ & 2.I.f.h u.I.W & & & & & & & & & o M                                                                                                                                                       ",
"                                                        I.8.& b I.#.1 2.I.C.Y C.I.` & o & & M M q 1 & & 5 1 & & & & q u                                                                                                                                         ",
"                                                        I.C.M Y I.#.1 2.I.L.u.L.I.` q h 5 & X.C.2.2.q & & & & & & & & & b                                                                                                                                       ",
"                                                        L.I.C.L.I.` 1 2.I.L.I.I.I.&.8.L.u.b X.L.u.L.a o & & & & & & & & b                                                                                                                                       ",
"                                                          I.I.I.I.F 1 2.L.f.I.C.L.u.L.m.m.r.&.C.u.L.h 5 & & & & & & & & 5 q b                                                                                                                                   ",
"                                                            L.L.u.q 1 u.C.#.I.2.C.f.L.m.m.L.f.C.u.L.r.u.b 1 a q & & & & & & 1 q & 1 b                                                                                                                           ",
"                                                                      I.m.Y C.W C.u.L.u.2.m.C.C.u.I.I.I.&./ L.f.P 5 5 & o & & q W W M u & o & & & & & & 5 M                                                                                                     ",
"                                                                            u.J L.2.f.f.8.f.m.C.u.L./ C.m.m.I.L.C./ u.Y J u o Y I.I.L.X.a b q & & & & & & & & 1 F                                                                                               ",
"                                                                                    8.I.I.C.u.C.u.L.b u.L.L.r.P L.f.L.L.I.` & ` I.f.m.I.X.C.` u 5 & & & & & & & 1 1 M                                                                                           ",
"                                                                                            r.C.u.L.b u.C.C.8.k L.L.I.C.L.r.1 W I.r.&.m.&.u.` #.8.q & & & & & & & o k                                                                                           ",
"                                                                                                  C.A f.u.r.C.8.L.L.I.#.r.f.5 b L.I.L.r.P f.&.f.m.u o o & & & & & & 5 b                                                                                         ",
"                                                                                                        8.X.I.I.L.r.L.` b P 5 k &.m.L.I.8.C.m.L.L.P F Y h & & & & & & & & & h                                                                                   ",
"                                                                                                              L.m.` I.` o & & X.L.X.#.I.C.L.u.m.I.u.L.I.C.M & & & & & & & & & Y                                                                                 ",
"                                                                                                                                I.m.f.I.L.I.#.2.C.8.I.8.C.2.1 & & & & & & & o A                                                                                 ",
"                                                                                                                                L.I.I.I.r.L.#.2.C.&.I.C.L.f.q & & & & & & & & F                                                                                 ",
"                                                                                                                                    L.C.` L.#.&.I.m.L.#.&.8.q & & & & & & & & F                                                                                 ",
"                                                                                                                                                I.2.m.C.C.u.q & & & & & & & 1 Y                                                                                 ",
"                                                                                                                                                      I.I.8.1 & & &                                                                                             ",
"                                                                                                                                                                                                                                                                ",
"                                                                                                                                                                                                                                                                ",
"                                                                                                                                                                                                                                                                ",
"                                                                                                                                                                                                                                                                ",
"                                                                                                                                                                                                                                                                ",
"                                                                                                                                                                                                                                                                ",
"                                                                                                                                                                                                                                                                ",
"                                                                                                                                                                                                                                                                ",
"                                                                                                                                                                                                                                                                ",
"                                                                                                                                                                                                                                                                ",
"                                                                                                                                                                                                                                                                ",
"                                                                                                                                                                                                                                                                ",
"                                                                                                                                                                                                                                                                ",
"                                                                                                                                                                                                                                                                ",
"                                                                                                                                                                                                                                                                ",
"                                                                                                                                                                                                                                                                "
};
