/* XPM */
static char *oms_246[] = {
/* columns rows colors chars-per-pixel */
"128 54 183 2 ",
"   c #00000000",
".  c #FF0D0D0D",
"X  c #FF0E0E0E",
"o  c #FF0F0F0F",
"O  c #FF101010",
"+  c #FF111111",
"@  c #FF121212",
"#  c #FF131313",
"$  c #FF141414",
"%  c #FF151515",
"&  c #FF161616",
"*  c #FF171717",
"=  c #FF181818",
"-  c #FF191919",
";  c #FF1A1A1A",
":  c #FF1B1B1B",
">  c #FF1C1C1C",
",  c #FF1D1D1D",
"<  c #FF1E1E1E",
"1  c #FF1F1F1F",
"2  c #FF202020",
"3  c #FF212121",
"4  c #FF222222",
"5  c #FF242424",
"6  c #FF252525",
"7  c #FF262626",
"8  c #FF272727",
"9  c #FF282828",
"0  c #FF292929",
"q  c #FF2A2A2A",
"w  c #FF2B2B2B",
"e  c #FF2C2C2C",
"r  c #FF2D2D2D",
"t  c #FF2E2E2E",
"y  c #FF2F2F2F",
"u  c #FF313131",
"i  c #FF323232",
"p  c #FF333333",
"a  c #FF343434",
"s  c #FF353535",
"d  c #FF373737",
"f  c #FF393939",
"g  c #FF3A3A3A",
"h  c #FF3B3B3B",
"j  c #FF3D3D3D",
"k  c #FF404040",
"l  c #FF424242",
"z  c #FF434343",
"x  c #FF454545",
"c  c #FF464646",
"v  c #FF494949",
"b  c #FF4A4A4A",
"n  c #FF4B4B4B",
"m  c #FF4C4C4C",
"M  c #FF4C4C4C",
"N  c #FF4F4F4F",
"B  c #FF525252",
"V  c #FF535353",
"C  c #FF545454",
"Z  c #FF565656",
"A  c #FF575757",
"S  c #FF585858",
"D  c #FF595959",
"F  c #FF5A5A5A",
"G  c #FF5D5D5D",
"H  c #FF5E5E5E",
"J  c #FF5F5F5F",
"K  c #FF606060",
"L  c #FF626262",
"P  c #FF636363",
"I  c #FF646464",
"U  c #FF656565",
"Y  c #FF666666",
"T  c #FF676767",
"R  c #FF686868",
"E  c #FF696969",
"W  c #FF6A6A6A",
"Q  c #FF6D6D6D",
"!  c #FF6F6F6F",
"~  c #FF717171",
"^  c #FF727272",
"/  c #FF797979",
"(  c #FF7A7A7A",
")  c #FF7E7E7E",
"_  c #FF808080",
"`  c #FF818181",
"'  c #FF828282",
"]  c #FF838383",
"[  c #FF848484",
"{  c #FF858585",
"}  c #FF878787",
"|  c #FF8B8B8B",
" . c #FF8C8C8C",
".. c #FF909090",
"X. c #FF919191",
"o. c #FF929292",
"O. c #FF949494",
"+. c #FF969696",
"@. c #FF979797",
"#. c #FF989898",
"$. c #FF9C9C9C",
"%. c #FF9D9D9D",
"&. c #FF9F9F9F",
"*. c #FFA1A1A1",
"=. c #FFA2A2A2",
"-. c #FFA3A3A3",
";. c #FFA4A4A4",
":. c #FFA5A5A5",
">. c #FFA7A7A7",
",. c #FFABABAB",
"<. c #FFACACAC",
"1. c #FFAEAEAE",
"2. c #FFB0B0B0",
"3. c #FFB2B2B2",
"4. c #FFB2B2B2",
"5. c #FFB4B4B4",
"6. c #FFB5B5B5",
"7. c #FFB6B6B6",
"8. c #FFB7B7B7",
"9. c #FFB8B8B8",
"0. c #FFB9B9B9",
"q. c #FFBBBBBB",
"w. c #FFBCBCBC",
"e. c #FF808080",
"r. c #FFC0C0C0",
"t. c #FFC2C2C2",
"y. c #FFC3C3C3",
"u. c #FFC4C4C4",
"i. c #FFC5C5C5",
"p. c #FFC6C6C6",
"a. c #FFC7C7C7",
"s. c #FFC8C8C8",
"d. c #FFC9C9C9",
"f. c #FFCACACA",
"g. c #FFCBCBCB",
"h. c #FFCCCCCC",
"j. c #FFCDCDCD",
"k. c #FFCECECE",
"l. c #FFD0D0D0",
"z. c #FFD1D1D1",
"x. c #FFD2D2D2",
"c. c #FFD3D3D3",
"v. c #FFD4D4D4",
"b. c #FFD5D5D5",
"n. c #FFD6D6D6",
"m. c #FFD7D7D7",
"M. c #FFD8D8D8",
"N. c #FFD9D9D9",
"B. c #FFDADADA",
"V. c #FFDCDCDC",
"C. c #FFDDDDDD",
"Z. c #FFDEDEDE",
"A. c #FFDFDFDF",
"S. c #FFE0E0E0",
"D. c #FFE1E1E1",
"F. c #FFE2E2E2",
"G. c #FFE4E4E4",
"H. c #FFE6E6E6",
"J. c #FFE6E6E6",
"K. c #FFE7E7E7",
"L. c #FFE8E8E8",
"P. c #FFE9E9E9",
"I. c #FFEAEAEA",
"U. c #FFEBEBEB",
"Y. c #FFECECEC",
"T. c #FFEDEDED",
"R. c #FFEEEEEE",
"E. c #FFEFEFEF",
"W. c #FFF0F0F0",
"Q. c #FFF1F1F1",
"!. c #FFF2F2F2",
"~. c #FFF3F3F3",
"^. c #FFF4F4F4",
"/. c #FFF5F5F5",
"(. c #FFF6F6F6",
"). c #FFF7F7F7",
"_. c #FFF8F8F8",
"`. c #FFF9F9F9",
"'. c #FFFAFAFA",
"]. c #FFFBFBFB",
"[. c #FFFCFCFC",
"{. c #FFFDFDFD",
"}. c #FFFFFFFF",
/* pixels */
"                                                                                                                                                                                                                                                                ",
"                                                                                                                                                                                                                                                                ",
"                                                                                                                                                                                                                                                                ",
"                                                                                                                                                                                                                                                                ",
"                                                                                                                                                                                                                                                                ",
"                                                                                                                                                                                                                                                                ",
"                                                                                                                                                                                                                                                                ",
"                                                                                                                                                                                                                                                                ",
"                                                                                                                                                                                                                                                                ",
"                                                                                                                                                                                                                                                                ",
"                                                                                                                                                          G 2 #                                                                                                 ",
"                                                                                                                                                      O.s # # # # # # # # X                                                                                     ",
"                                                                                                                                                      h X # # # # # # # # k 7.I.}.                                                                              ",
"                                                                                                                                              b = = s # # # # # # # # # k F.}.}.}.W.                                                                            ",
"                                                                                                                                          O.e # # # # # # # # # e T e = 7.}.v.N.}.W.                                                                            ",
"                                                                                                                                    T s # 2 # # # # # # # # # Z v.F.h s I.N.s E }.W.                                                                            ",
"                                                                                                                                  ( = # # # # # # # # # k } e =.}.I.h Z }.,.X ^ }.W.                                                                            ",
"                                                                                                                                  ( = # # # # # # # # E I.W.T r.}.I.h G }.r.b s.}.                                                                              ",
"                                                                                                                        e         T # # # # # # # # X } }.}.9.F.}.I.h Z W.W.I.}.W.                                                                              ",
"                                                                                                                  T k = # # # # # = # # # s k # # # # } }.}.W.W.W.I.h h F.}.}.}.                                                                                ",
"                                                                                                                 .= # # # # # # # # # h ( N.=.# Z 7.,.%.}.}.}.F.N.W.G # 9.}.W.                                                                                  ",
"                                                                                                                } # # # # # # # # # k F.F.W.=.E I.W.W.v.W.N.}.r.r.}.                                                                                            ",
"                                                                                                                T # # # # # # # # X Z W.F.W.9.v.N.v.}.N.W.=.F.=.9.}.                                                                                            ",
"                                                                                                            G = # # # # # # # # # s T W.F.W.N.W.I.F.W.v.}.O.s.                                                                                                  ",
"                                                                                                      k # h = # # # # # # # # # T F.F.W.F.W.F.N.7.r.I.7.}.                                                                                                      ",
"                                                                                                  } e # # # # # # # # # 2 E =.G r.}.F.}.F.W.N.I.W.}.I.                                                                                                          ",
"                                                                                              b 2 2 # # # # # # # # = e 7.}.}.N.I.v.^ W.F.W.v.F.}.                                                                                                              ",
"                                                                              T e # # # # = 2 # # # # e e # # # = E =.%.W.r.W.I.W.r.G W.F.W.                                                                                                                    ",
"                                                                            k # # # # # # # # # # h %.N.s.e # ( r.I.F.N.N.k F.F.I.s.T W.                                                                                                                        ",
"                                                                      G 2 2 # # # # # # # # # = Z F.}.}.W.k s F.}.}.I.I.N.( I.r.N.W.                                                                                                                            ",
"                                                                    E = # # # # # # # # X s ,.O.s.W.,.I.I.h Z }.9.N.I.F.}.W.}.                                                                                                                                  ",
"                                                                E 2 # # # # # # # # # = b E W.7.v.v.s.}.s.= G N.^ s.F.s.}.W.                                                                                                                                    ",
"                                                                b X # # # # # # # # # O.F.} v.O.=.W.}.I. .e e s 2 v.W.                                                                                                                                          ",
"                                                              =.e # # # # # # # # # = 7.}.v.W.9.F.W.7.v.I.                                                                                                                                                      ",
"                                                          k = 2 # # # # # # # # e k b F.}.F.W.N.W.F.=.W.}.                                                                                                                                                      ",
"                                                      %.e # # # # # # # # # # T v.W.9.I.I.=.W.N.W.}.}.}.                                                                                                                                                        ",
"                                                      b # # # # # # # # # # Z I.N.}.v.s.I.} W.s.I.}.W.                                                                                                                                                          ",
"                                                    9.e # # # # # # # # # # =.W.v.}.v.v.I.} W.N.                                                                                                                                                                ",
"                                                    7.e # # # # # # # # # = r.F.9.W.N.W.I.O.                                                                                                                                                                    ",
"                                                    9.e # # # # # # # # # = 7.N.s.W.,.F.                                                                                                                                                                        ",
"                                                      s # # # # # # # # # = 9.}.}.W.                                                                                                                                                                            ",
"                                                                              W.                                                                                                                                                                                ",
"                                                                                                                                                                                                                                                                ",
"                                                                                                                                                                                                                                                                ",
"                                                                                                                                                                                                                                                                ",
"                                                                                                                                                                                                                                                                ",
"                                                                                                                                                                                                                                                                ",
"                                                                                                                                                                                                                                                                ",
"                                                                                                                                                                                                                                                                ",
"                                                                                                                                                                                                                                                                ",
"                                                                                                                                                                                                                                                                ",
"                                                                                                                                                                                                                                                                ",
"                                                                                                                                                                                                                                                                ",
"                                                                                                                                                                                                                                                                "
};
