/* XPM */
static char *oms_074[] = {
/* columns rows colors chars-per-pixel */
"128 54 161 2 ",
"   c #00000000",
".  c #FF0D0D0D",
"X  c #FF0E0E0E",
"o  c #FF0F0F0F",
"O  c #FF101010",
"+  c #FF111111",
"@  c #FF121212",
"#  c #FF131313",
"$  c #FF141414",
"%  c #FF151515",
"&  c #FF161616",
"*  c #FF171717",
"=  c #FF181818",
"-  c #FF191919",
";  c #FF1A1A1A",
":  c #FF1B1B1B",
">  c #FF1C1C1C",
",  c #FF1F1F1F",
"<  c #FF202020",
"1  c #FF222222",
"2  c #FF232323",
"3  c #FF242424",
"4  c #FF252525",
"5  c #FF282828",
"6  c #FF292929",
"7  c #FF2A2A2A",
"8  c #FF2B2B2B",
"9  c #FF2C2C2C",
"0  c #FF2D2D2D",
"q  c #FF2E2E2E",
"w  c #FF2F2F2F",
"e  c #FF303030",
"r  c #FF313131",
"t  c #FF323232",
"y  c #FF343434",
"u  c #FF383838",
"i  c #FF393939",
"p  c #FF3A3A3A",
"a  c #FF3D3D3D",
"s  c #FF3E3E3E",
"d  c #FF414141",
"f  c #FF434343",
"g  c #FF444444",
"h  c #FF464646",
"j  c #FF4C4C4C",
"k  c #FF4E4E4E",
"l  c #FF535353",
"z  c #FF545454",
"x  c #FF575757",
"c  c #FF585858",
"v  c #FF5A5A5A",
"b  c #FF5B5B5B",
"n  c #FF5C5C5C",
"m  c #FF5E5E5E",
"M  c #FF5F5F5F",
"N  c #FF616161",
"B  c #FF626262",
"V  c #FF666666",
"C  c #FF696969",
"Z  c #FF6D6D6D",
"A  c #FF707070",
"S  c #FF727272",
"D  c #FF757575",
"F  c #FF777777",
"G  c #FF787878",
"H  c #FF797979",
"J  c #FF7B7B7B",
"K  c #FF7D7D7D",
"L  c #FF808080",
"P  c #FF818181",
"I  c #FF828282",
"U  c #FF858585",
"Y  c #FF878787",
"T  c #FF898989",
"R  c #FF8B8B8B",
"E  c #FF8C8C8C",
"W  c #FF929292",
"Q  c #FF979797",
"!  c #FF999999",
"~  c #FF9B9B9B",
"^  c #FF9D9D9D",
"/  c #FF9E9E9E",
"(  c #FFA1A1A1",
")  c #FFA2A2A2",
"_  c #FFA3A3A3",
"`  c #FFA4A4A4",
"'  c #FFA5A5A5",
"]  c #FFA6A6A6",
"[  c #FFA8A8A8",
"{  c #FFAAAAAA",
"}  c #FFABABAB",
"|  c #FFACACAC",
" . c #FFB0B0B0",
".. c #FFB1B1B1",
"X. c #FFB2B2B2",
"o. c #FFB4B4B4",
"O. c #FFB6B6B6",
"+. c #FFB7B7B7",
"@. c #FFB8B8B8",
"#. c #FFB9B9B9",
"$. c #FFBBBBBB",
"%. c #FFBCBCBC",
"&. c #FF808080",
"*. c #FFBFBFBF",
"=. c #FFC0C0C0",
"-. c #FFC2C2C2",
";. c #FFC3C3C3",
":. c #FFC4C4C4",
">. c #FFC6C6C6",
",. c #FFC7C7C7",
"<. c #FFC8C8C8",
"1. c #FFCBCBCB",
"2. c #FFCCCCCC",
"3. c #FFCECECE",
"4. c #FFD0D0D0",
"5. c #FFD1D1D1",
"6. c #FFD2D2D2",
"7. c #FFD3D3D3",
"8. c #FFD4D4D4",
"9. c #FFD5D5D5",
"0. c #FFD6D6D6",
"q. c #FFD7D7D7",
"w. c #FFD8D8D8",
"e. c #FFD9D9D9",
"r. c #FFDBDBDB",
"t. c #FFDCDCDC",
"y. c #FFDDDDDD",
"u. c #FFDEDEDE",
"i. c #FFDFDFDF",
"p. c #FFE0E0E0",
"a. c #FFE1E1E1",
"s. c #FFE2E2E2",
"d. c #FFE3E3E3",
"f. c #FFE4E4E4",
"g. c #FFE6E6E6",
"h. c #FFE6E6E6",
"j. c #FFE7E7E7",
"k. c #FFE8E8E8",
"l. c #FFE9E9E9",
"z. c #FFEAEAEA",
"x. c #FFEBEBEB",
"c. c #FFECECEC",
"v. c #FFEDEDED",
"b. c #FFEEEEEE",
"n. c #FFEFEFEF",
"m. c #FFF0F0F0",
"M. c #FFF1F1F1",
"N. c #FFF2F2F2",
"B. c #FFF3F3F3",
"V. c #FFF4F4F4",
"C. c #FFF5F5F5",
"Z. c #FFF6F6F6",
"A. c #FFF7F7F7",
"S. c #FFF8F8F8",
"D. c #FFF9F9F9",
"F. c #FFFAFAFA",
"G. c #FFFBFBFB",
"H. c #FFFCFCFC",
"J. c #FFFDFDFD",
"K. c #FFFEFEFE",
"L. c #FFFFFFFF",
/* pixels */
"                                                                                                                                                                                                                                                                ",
"                                                                                                                                                                                                                                                                ",
"                                                                                                                                                                                                                                                                ",
"                                                                                                                                                                                                                                                                ",
"                                                                                                                                                                                                                                                                ",
"                                                                                                                                                                                                                                                                ",
"                                                                                                                                                                                                                                                                ",
"                                                                                                                                                                                                                                                                ",
"                                                                                                                                                                                                                                                                ",
"                                                                                                                                                                                                                                                                ",
"                                                                                                                                                                                                                                                                ",
"                                                                                                                                                                                                                                                                ",
"                                                                                                                                                                                                                                                                ",
"                                                                                                                                                                                                                                                                ",
"                                                                                                                                                                                                                                                                ",
"                                                                                                                                                                                                                                                                ",
"                                                                                                                                                                                                                                                                ",
"                                                                                                                                                          > > @ @ @ @ @ @ X                                                                                     ",
"                                                                                                                                                    1 6 1 @ @ @ @ @ @ @ > f x D 1.} 1.6 O.H.                                                                    ",
"                                                                                                                                                Y 1 @ @ @ @ @ @ @ @ @ > ~ A.A.O.,.%.k.] k.A.A.                                                                  ",
"                                                                                                                                                j @ @ @ @ @ @ @ @ @ @ N A.k.k.%.9.k.H.A.i.h.H.                                                                  ",
"                                                                                                                                                u @ @ @ @ @ @ @ @ @ @ Q k.] O.~ k.k.k.k.h.9.                                                                    ",
"                                                                                                                                            > u 1 @ @ @ @ @ @ @ @ t @ ] H.A.A.9.9.%.i.h.1.9.H.                                                                  ",
"                                                                                                                                        6 > @ X > > @ @ @ @ @ x T 1.t T H.H.H.A.9.} A.k.H.H.                                                                    ",
"                                                                                                                      T 6 > @ @ @ @ @ @ @ @ 6 N O.f X @ f ~ D 9.H.A.j u %.] A.k.9.} A.%.A.                                                                      ",
"                                                                                                                      D @ @ @ @ @ @ @ @ @ @ ] h.k.x f u i.H.h.h.h.A.m L i.,.A.,.i.]                                                                             ",
"                                                                                                            N 1 @ @ > 6 @ @ @ @ @ 6 u @ @ @ O.h.h.%.h.} h.9.A.A.] Q t ~ H.H.k.                                                                                  ",
"                                                                                                        6 6 1 @ @ @ @ @ @ @ > 1 u i.] @ 6 6 O.h.k.A.A.h.O.Y A.A.~ X X D A.A.                                                                                    ",
"                                                                                                      f @ @ @ @ @ @ @ @ @ u %.~ C H.] N i.,.,.h.k.1.k.h.,.] h.h.k.                                                                                              ",
"                                                                                              u @ @ > > @ @ @ @ @ > x j @ m H.1.~ H.%.9.h.k.i.i.k.L i.i.A.A.,.9.                                                                                                ",
"                                                                                            m @ @ @ @ @ @ @ @ @ 1 } A.h.u m H.k.9.H.i.k.i.k.h.i.h.D h.%.A.A.                                                                                                    ",
"                                                                                            t @ @ @ @ @ @ @ @ @ D H.H.H.C m A.H.A.A.k.A.,.1.i.i.h.L h.                                                                                                          ",
"                                                                                          ~ 1 @ @ @ @ @ @ @ @ > %.k.%.A.L m A.A.k.h.k.k.,.h.9.h.k.                                                                                                              ",
"                                                                                            > @ @ @ @ @ @ @ @ 1 9.] t h.Y m k.h.i.9.i.k.H.h.                                                                                                                    ",
"                                                                                            > @ @ @ @ @ @ @ @ 6 i.Y 6 h.L m h.%.,.,.9.1.                                                                                                                        ",
"                                                                                            1 @ @ @ @ @ @ @ @ 6 i.O.Y A.m m h.~ ,.                                                                                                                              ",
"                                                                                            t @ @ @ @ @ @ @ @ 1 9.H.A.A.f m A.                                                                                                                                  ",
"                                                                                              @ @ @ @ @ @ @ @ @ O.H.H.A.                                                                                                                                        ",
"                                                                                                                L A.A.                                                                                                                                          ",
"                                                                                                                                                                                                                                                                ",
"                                                                                                                                                                                                                                                                ",
"                                                                                                                                                                                                                                                                ",
"                                                                                                                                                                                                                                                                ",
"                                                                                                                                                                                                                                                                ",
"                                                                                                                                                                                                                                                                ",
"                                                                                                                                                                                                                                                                ",
"                                                                                                                                                                                                                                                                ",
"                                                                                                                                                                                                                                                                ",
"                                                                                                                                                                                                                                                                ",
"                                                                                                                                                                                                                                                                ",
"                                                                                                                                                                                                                                                                ",
"                                                                                                                                                                                                                                                                ",
"                                                                                                                                                                                                                                                                ",
"                                                                                                                                                                                                                                                                "
};
