/* XPM */
static char *oms_090[] = {
/* columns rows colors chars-per-pixel */
"128 54 87 1 ",
"  c #00000000",
". c #FF111111",
"X c #FF121212",
"o c #FF131313",
"O c #FF141414",
"+ c #FF151515",
"@ c #FF161616",
"# c #FF171717",
"$ c #FF181818",
"% c #FF1A1A1A",
"& c #FF1B1B1B",
"* c #FF1C1C1C",
"= c #FF1D1D1D",
"- c #FF1E1E1E",
"; c #FF1F1F1F",
": c #FF202020",
"> c #FF222222",
", c #FF232323",
"< c #FF242424",
"1 c #FF262626",
"2 c #FF282828",
"3 c #FF2B2B2B",
"4 c #FF2F2F2F",
"5 c #FF303030",
"6 c #FF313131",
"7 c #FF333333",
"8 c #FF353535",
"9 c #FF3A3A3A",
"0 c #FF3B3B3B",
"q c #FF3C3C3C",
"w c #FF3D3D3D",
"e c #FF404040",
"r c #FF494949",
"t c #FF4B4B4B",
"y c #FF4C4C4C",
"u c #FF5E5E5E",
"i c #FF636363",
"p c #FF656565",
"a c #FF676767",
"s c #FF747474",
"d c #FF797979",
"f c #FF7E7E7E",
"g c #FF818181",
"h c #FF828282",
"j c #FF848484",
"k c #FF898989",
"l c #FF8C8C8C",
"z c #FF8E8E8E",
"x c #FF8F8F8F",
"c c #FF939393",
"v c #FF949494",
"b c #FF979797",
"n c #FF9B9B9B",
"m c #FF9E9E9E",
"M c #FFA0A0A0",
"N c #FFA2A2A2",
"B c #FFA3A3A3",
"V c #FFA4A4A4",
"C c #FFA6A6A6",
"Z c #FFA7A7A7",
"A c #FFA9A9A9",
"S c #FFAAAAAA",
"D c #FFACACAC",
"F c #FFADADAD",
"G c #FFB2B2B2",
"H c #FFB5B5B5",
"J c #FFB6B6B6",
"K c #FFB9B9B9",
"L c #FFBABABA",
"P c #FFBFBFBF",
"I c #FFC2C2C2",
"U c #FFC5C5C5",
"Y c #FFC9C9C9",
"T c #FFCECECE",
"R c #FFD0D0D0",
"E c #FFD1D1D1",
"W c #FFD2D2D2",
"Q c #FFD7D7D7",
"! c #FFD9D9D9",
"~ c #FFDBDBDB",
"^ c #FFDFDFDF",
"/ c #FFE3E3E3",
"( c #FFE6E6E6",
") c #FFE8E8E8",
"_ c #FFE9E9E9",
"` c #FFF5F5F5",
"' c #FFFFFFFF",
/* pixels */
"                                                                                                                                ",
"                                                                                                                                ",
"                                                                                                                                ",
"                                                                                                                                ",
"                                                                                                                                ",
"                                                                                                                                ",
"                                                                                                                                ",
"                                                                                                                                ",
"                                                                                                                                ",
"                                                                                                                                ",
"                                                                                                                                ",
"                                                                                                                                ",
"                                                                                                                                ",
"                                                                                                                                ",
"                                                                                                                                ",
"                                                                                                                                ",
"                                                                  y++&&,+++&&eR                                                 ",
"                                                                 N,++++++++++f^                                                 ",
"                                                                 h++++++++++&A)                                                 ",
"                                                                 l&+++++++++,N)                                                 ",
"                                                                 h++++++++++&A(                                                 ",
"                                                                 s++++++++++,L(                                                 ",
"                                                                 y++++++++++yU                                                  ",
"                                                                 5++++++++++hH                                                  ",
"                                                                w++++++++++wAT                                                  ",
"                                                               l+++++++++++fLU                                                  ",
"                                                               l+++++++++++N(                                                   ",
"                                                               i++++++++++,H'                                                   ",
"                                                              N5++++++++++uT`                                                   ",
"                                                              f&+++++++++,NR                                                    ",
"                                                              i++++++++++5L^                                                    ",
"                                                              5++++++++++iT(                                                    ",
"                                                             v&++++++++++n^^                                                    ",
"                                                             l&+++++++++&A^                                                     ",
"                                                             l2++++++&,+&nT                                                     ",
"                                                             Nw+++  +,w&&NR                                                     ",
"                                                             l,++++++,w,&H                                                      ",
"                                                             v&+++++++&+&H                                                      ",
"                                                             v,&&&++++&+&A                                                      ",
"                                                                     &225                                                       ",
"                                                                                                                                ",
"                                                                                                                                ",
"                                                                                                                                ",
"                                                                                                                                ",
"                                                                                                                                ",
"                                                                                                                                ",
"                                                                                                                                ",
"                                                                                                                                ",
"                                                                                                                                ",
"                                                                                                                                ",
"                                                                                                                                ",
"                                                                                                                                ",
"                                                                                                                                ",
"                                                                                                                                "
};
