/* XPM */
static char *oms_336[] = {
/* columns rows colors chars-per-pixel */
"128 54 199 2 ",
"   c #00000000",
".  c #FF0B0B0B",
"X  c #FF0C0C0C",
"o  c #FF0E0E0E",
"O  c #FF0F0F0F",
"+  c #FF101010",
"@  c #FF111111",
"#  c #FF121212",
"$  c #FF131313",
"%  c #FF141414",
"&  c #FF151515",
"*  c #FF161616",
"=  c #FF171717",
"-  c #FF181818",
";  c #FF191919",
":  c #FF1A1A1A",
">  c #FF1B1B1B",
",  c #FF1C1C1C",
"<  c #FF1D1D1D",
"1  c #FF1E1E1E",
"2  c #FF1F1F1F",
"3  c #FF202020",
"4  c #FF232323",
"5  c #FF242424",
"6  c #FF252525",
"7  c #FF262626",
"8  c #FF272727",
"9  c #FF282828",
"0  c #FF292929",
"q  c #FF2B2B2B",
"w  c #FF2C2C2C",
"e  c #FF2D2D2D",
"r  c #FF2E2E2E",
"t  c #FF2F2F2F",
"y  c #FF303030",
"u  c #FF323232",
"i  c #FF333333",
"p  c #FF353535",
"a  c #FF373737",
"s  c #FF383838",
"d  c #FF393939",
"f  c #FF3C3C3C",
"g  c #FF3D3D3D",
"h  c #FF3E3E3E",
"j  c #FF3F3F3F",
"k  c #FF414141",
"l  c #FF424242",
"z  c #FF434343",
"x  c #FF444444",
"c  c #FF484848",
"v  c #FF494949",
"b  c #FF4B4B4B",
"n  c #FF4C4C4C",
"m  c #FF4C4C4C",
"M  c #FF4E4E4E",
"N  c #FF505050",
"B  c #FF515151",
"V  c #FF525252",
"C  c #FF535353",
"Z  c #FF545454",
"A  c #FF575757",
"S  c #FF585858",
"D  c #FF5A5A5A",
"F  c #FF5B5B5B",
"G  c #FF5C5C5C",
"H  c #FF5E5E5E",
"J  c #FF5F5F5F",
"K  c #FF606060",
"L  c #FF616161",
"P  c #FF626262",
"I  c #FF666666",
"U  c #FF686868",
"Y  c #FF6A6A6A",
"T  c #FF6C6C6C",
"R  c #FF6E6E6E",
"E  c #FF707070",
"W  c #FF727272",
"Q  c #FF737373",
"!  c #FF747474",
"~  c #FF777777",
"^  c #FF787878",
"/  c #FF7A7A7A",
"(  c #FF7C7C7C",
")  c #FF7D7D7D",
"_  c #FF808080",
"`  c #FF808080",
"'  c #FF818181",
"]  c #FF828282",
"[  c #FF848484",
"{  c #FF898989",
"}  c #FF8A8A8A",
"|  c #FF8B8B8B",
" . c #FF8D8D8D",
".. c #FF8E8E8E",
"X. c #FF8F8F8F",
"o. c #FF909090",
"O. c #FF919191",
"+. c #FF929292",
"@. c #FF949494",
"#. c #FF959595",
"$. c #FF969696",
"%. c #FF979797",
"&. c #FF989898",
"*. c #FF999999",
"=. c #FF9A9A9A",
"-. c #FF9B9B9B",
";. c #FF9C9C9C",
":. c #FF9D9D9D",
">. c #FF9E9E9E",
",. c #FFA1A1A1",
"<. c #FFA3A3A3",
"1. c #FFA4A4A4",
"2. c #FFA5A5A5",
"3. c #FFA6A6A6",
"4. c #FFA7A7A7",
"5. c #FFA8A8A8",
"6. c #FFA9A9A9",
"7. c #FFAAAAAA",
"8. c #FFABABAB",
"9. c #FFAEAEAE",
"0. c #FFAFAFAF",
"q. c #FFB0B0B0",
"w. c #FFB1B1B1",
"e. c #FFB2B2B2",
"r. c #FFB2B2B2",
"t. c #FFB4B4B4",
"y. c #FFB5B5B5",
"u. c #FFB6B6B6",
"i. c #FFB7B7B7",
"p. c #FFB8B8B8",
"a. c #FFB9B9B9",
"s. c #FFBABABA",
"d. c #FFBBBBBB",
"f. c #FFBCBCBC",
"g. c #FFBDBDBD",
"h. c #FFBFBFBF",
"j. c #FFC0C0C0",
"k. c #FFC1C1C1",
"l. c #FFC3C3C3",
"z. c #FFC4C4C4",
"x. c #FFC5C5C5",
"c. c #FFC6C6C6",
"v. c #FFC7C7C7",
"b. c #FFC8C8C8",
"n. c #FFC9C9C9",
"m. c #FFCACACA",
"M. c #FFCBCBCB",
"N. c #FFCCCCCC",
"B. c #FFCDCDCD",
"V. c #FFCECECE",
"C. c #FFCFCFCF",
"Z. c #FFD0D0D0",
"A. c #FFD1D1D1",
"S. c #FFD2D2D2",
"D. c #FFD3D3D3",
"F. c #FFD4D4D4",
"G. c #FFD5D5D5",
"H. c #FFD6D6D6",
"J. c #FFD7D7D7",
"K. c #FFD8D8D8",
"L. c #FFD9D9D9",
"P. c #FFDADADA",
"I. c #FFDBDBDB",
"U. c #FFDCDCDC",
"Y. c #FFDDDDDD",
"T. c #FFDEDEDE",
"R. c #FFDFDFDF",
"E. c #FFE0E0E0",
"W. c #FFE1E1E1",
"Q. c #FFE2E2E2",
"!. c #FFE3E3E3",
"~. c #FFE4E4E4",
"^. c #FFE6E6E6",
"/. c #FFE6E6E6",
"(. c #FFE7E7E7",
"). c #FFE8E8E8",
"_. c #FFE9E9E9",
"`. c #FFEAEAEA",
"'. c #FFEBEBEB",
"]. c #FFECECEC",
"[. c #FFEDEDED",
"{. c #FFEEEEEE",
"}. c #FFEFEFEF",
"|. c #FFF0F0F0",
" X c #FFF1F1F1",
".X c #FFF2F2F2",
"XX c #FFF3F3F3",
"oX c #FFF4F4F4",
"OX c #FFF5F5F5",
"+X c #FFF6F6F6",
"@X c #FFF7F7F7",
"#X c #FFF8F8F8",
"$X c #FFF9F9F9",
"%X c #FFFAFAFA",
"&X c #FFFBFBFB",
"*X c #FFFCFCFC",
"=X c #FFFDFDFD",
"-X c #FFFEFEFE",
";X c #FFFFFFF1",
/* pixels */
"                                                                                                                                                                                                                                                                ",
"                                                                                                                                                                                                                                                                ",
"                                                                                                                                                                                                                                                                ",
"                                                                                                                                                                                                                                                                ",
"                                                                                                                                                                                                                                                                ",
"                                                                                                                                                                                                                                                                ",
"                                                                                                                                                                                                                                                                ",
"                                                                                                                                                                                                                                                                ",
"                                                                                                                                                                                                                                                                ",
"                                                                                                                                                                                                                                                                ",
"                                                                                                                                                                                                                                                                ",
"                                                                                                                                                                                                                                                                ",
"                                                                                                                                                                                                                                                                ",
"                                                                                                                                                                                                                                                                ",
"                                                                                                                                                                                                                                                                ",
"                                                                                                                                                                                                                                                                ",
"                                                                                                                                                                                                                                                                ",
"                                                                                                                                                                                                                                                                ",
"                                                                                                                                                                                                                                                                ",
"                                                                                                                                                                                                                                                                ",
"                                                                                                                                                                                                                                                                ",
"                    }.OX}.p.] l % % % % % y A           % % -                                                                                                                                                                                                   ",
"                #X#X#X#X#X#XOX~.%.3 % % % ] ~.}.}.L.%.% % A z.p.i.i.~ % % % % % - /             m I m y % % - - % 3                                                                                                                                             ",
"              #X#X#X#X#X#X#X#X#X#X>.% % % %.#X#X#X#X~.d - p.#X#X#X#X>.% % % X X % ~     }.OXOXJ.i.}.}.J.e % % % % 3                                                         y - X % %                                                                           ",
"              #X#X#XV.I A %.OX#X#X}.d % % %.#X#X#X#X#X .A OX#X#X#X#X>.% 3 m S I A A - % 9.#X#XL.p.#X#X}.y % % % % -                                             OXOX#XOX}.~.J.i.~ - S i.9.2.e - e 3 d 3 % % %                                                   ",
"              #X#X#XY X X % p.#X#XOXA X %  .#X#X#X#X#X~.V.#X#X#X#X#X>.S J.OXOX#XOX~.9.d 2.#X#XL.p.#X#X}.S  .p.2.S % % d ~  .9.p./ d % - d d l e 3 l y % % % % i.#X#X#XOX}.OX#X#X#X>.%.#X#X}.d >.~.J.p.3 % % %                                                   ",
"              #X#X#X .% X 3 z.#X#XOXS X %  .#X#XOXOX#X#X#X#X#X#X#X#Xi.J.#X#XL.2.~.#X#Xp.i.#X#XL.p.#X#XOX}.#X#X#XOXS ~ ~.#X#X#X#XOX~./ S }.~.~.%.p.~.J.Y % % % z.#X#X#XJ.I 9.~.~.L.i. .J.J.p.S z.#X#X}.l % % 3 m     3 % % % -                                   ",
"              #X#X#X}.9. .p.OX#X#X}.d % %  .#X#XOXi.OX#X#XOXV.OX#X#XV.}.#X#X}.J.}.#X#X~.V.#X#XL.p.#X#X#XV.V.#X#X#Xi.L.#X#X~.>.J.#X#XOX9.OX#X#X#X#X#X#XL.y % % >.#X#X#XOX~.}.~.L.i.m %.#XOX~.V.#X#X#X#XV.d >.L.~.}.~.V. .e % % % l                               ",
"              OX#X#X#X#X#X#X#X#X#X2.- % %  .#X#XOXY V.#X#XL.Y OX#X#Xz.~.#X#XJ./ 9.V.J.z.V.#X#XL.p.#X#X}.d l }.#X#XJ.}.#X#X2.X S OX#X#XJ.OX#X#Xi.i.#X#XOXm % % y z.OXOX#X#X#X#X#X#XV.i.#X#X}.z.OX#X#X#X~.z.#X#XOXz.~.#X#Xi.- % % 3                               ",
"                  OX#X#XOX#X#X}.9.e % % X i.#X#XOXA ~ #X#X .m OX#X#X2.9.#X#X}.z.~.OXOXL.z.#X#XL.p.#X#X}.e y }.#X#Xz.~.#X#Xz.y ] #X#X#XJ.OX#X#X~ A V.V.z.A %   %.p.z.V.i.] p.#X#X#XOX}.#X#X}.S z.#X#X}.] ~.#X#XOXz.L.#X#XOXm % % -                               ",
"                                                }.    OX}.m   OXOX#X>.l ~.#X#X#X#X#XOX .i.#X#XL.p.#X#X}.y y }.#X#X>.>.#X#X#X}.OX#X#X~.>.OX#X#X/ % - - - l     #X#X#X#XL./ i.#X#X#XOX~.#X#X}.d 9.#X#X}./ ~.#X#X~.2.z.L.J.L.m % % -                               ",
"                                                                                                            OX#X#X>.    OXOX#XOXOXOX%.~ OX#X#X/ X % %           OX#X#X#X#X#X#X#X#Xp.9.#X#X}.d 2.#X#X#X~.V.#X#X}.%.p.}.}.~.m % % e                               ",
"                                                                                                                                                                    OXOXOXOXOXOX      #X#X}.l ] #X#X#XL.I ~.#X#X#X#X#X#XV.e %                                   ",
"                                                                                                                                                                                                                }.}.                                            ",
"                                                                                                                                                                                                                                                                ",
"                                                                                                                                                                                                                                                                ",
"                                                                                                                                                                                                                                                                ",
"                                                                                                                                                                                                                                                                ",
"                                                                                                                                                                                                                                                                ",
"                                                                                                                                                                                                                                                                ",
"                                                                                                                                                                                                                                                                ",
"                                                                                                                                                                                                                                                                ",
"                                                                                                                                                                                                                                                                ",
"                                                                                                                                                                                                                                                                ",
"                                                                                                                                                                                                                                                                ",
"                                                                                                                                                                                                                                                                ",
"                                                                                                                                                                                                                                                                ",
"                                                                                                                                                                                                                                                                ",
"                                                                                                                                                                                                                                                                ",
"                                                                                                                                                                                                                                                                ",
"                                                                                                                                                                                                                                                                ",
"                                                                                                                                                                                                                                                                ",
"                                                                                                                                                                                                                                                                ",
"                                                                                                                                                                                                                                                                "
};
