/* XPM */
static char *oms_190[] = {
/* columns rows colors chars-per-pixel */
"128 54 203 2 ",
"   c #00000000",
".  c #FF080808",
"X  c #FF0C0C0C",
"o  c #FF0F0F0F",
"O  c #FF101010",
"+  c #FF111111",
"@  c #FF121212",
"#  c #FF131313",
"$  c #FF141414",
"%  c #FF151515",
"&  c #FF161616",
"*  c #FF171717",
"=  c #FF181818",
"-  c #FF191919",
";  c #FF1A1A1A",
":  c #FF1B1B1B",
">  c #FF1C1C1C",
",  c #FF1D1D1D",
"<  c #FF1E1E1E",
"1  c #FF1F1F1F",
"2  c #FF202020",
"3  c #FF212121",
"4  c #FF222222",
"5  c #FF232323",
"6  c #FF242424",
"7  c #FF252525",
"8  c #FF262626",
"9  c #FF272727",
"0  c #FF282828",
"q  c #FF292929",
"w  c #FF2A2A2A",
"e  c #FF2B2B2B",
"r  c #FF2C2C2C",
"t  c #FF2D2D2D",
"y  c #FF2E2E2E",
"u  c #FF2F2F2F",
"i  c #FF303030",
"p  c #FF313131",
"a  c #FF323232",
"s  c #FF333333",
"d  c #FF343434",
"f  c #FF353535",
"g  c #FF363636",
"h  c #FF383838",
"j  c #FF393939",
"k  c #FF3A3A3A",
"l  c #FF3B3B3B",
"z  c #FF3C3C3C",
"x  c #FF3D3D3D",
"c  c #FF3E3E3E",
"v  c #FF3F3F3F",
"b  c #FF404040",
"n  c #FF414141",
"m  c #FF424242",
"M  c #FF434343",
"N  c #FF444444",
"B  c #FF454545",
"V  c #FF464646",
"C  c #FF484848",
"Z  c #FF494949",
"A  c #FF4B4B4B",
"S  c #FF4C4C4C",
"D  c #FF4C4C4C",
"F  c #FF4E4E4E",
"G  c #FF4F4F4F",
"H  c #FF505050",
"J  c #FF515151",
"K  c #FF525252",
"L  c #FF535353",
"P  c #FF555555",
"I  c #FF575757",
"U  c #FF585858",
"Y  c #FF595959",
"T  c #FF5A5A5A",
"R  c #FF5B5B5B",
"E  c #FF5C5C5C",
"W  c #FF5E5E5E",
"Q  c #FF616161",
"!  c #FF626262",
"~  c #FF636363",
"^  c #FF666666",
"/  c #FF676767",
"(  c #FF6F6F6F",
")  c #FF707070",
"_  c #FF717171",
"`  c #FF727272",
"'  c #FF747474",
"]  c #FF757575",
"[  c #FF777777",
"{  c #FF797979",
"}  c #FF7B7B7B",
"|  c #FF7D7D7D",
" . c #FF7E7E7E",
".. c #FF808080",
"X. c #FF808080",
"o. c #FF818181",
"O. c #FF828282",
"+. c #FF858585",
"@. c #FF888888",
"#. c #FF898989",
"$. c #FF8A8A8A",
"%. c #FF8B8B8B",
"&. c #FF8C8C8C",
"*. c #FF8D8D8D",
"=. c #FF8E8E8E",
"-. c #FF919191",
";. c #FF929292",
":. c #FF939393",
">. c #FF959595",
",. c #FF979797",
"<. c #FF989898",
"1. c #FF999999",
"2. c #FF9B9B9B",
"3. c #FF9D9D9D",
"4. c #FF9E9E9E",
"5. c #FF9F9F9F",
"6. c #FFA0A0A0",
"7. c #FFA1A1A1",
"8. c #FFA2A2A2",
"9. c #FFA3A3A3",
"0. c #FFA5A5A5",
"q. c #FFA7A7A7",
"w. c #FFA8A8A8",
"e. c #FFA9A9A9",
"r. c #FFAAAAAA",
"t. c #FFABABAB",
"y. c #FFACACAC",
"u. c #FFAEAEAE",
"i. c #FFAFAFAF",
"p. c #FFB0B0B0",
"a. c #FFB1B1B1",
"s. c #FFB2B2B2",
"d. c #FFB2B2B2",
"f. c #FFB4B4B4",
"g. c #FFB5B5B5",
"h. c #FFB6B6B6",
"j. c #FFB7B7B7",
"k. c #FFB8B8B8",
"l. c #FFBABABA",
"z. c #FFBBBBBB",
"x. c #FFBCBCBC",
"c. c #FFBDBDBD",
"v. c #FF808080",
"b. c #FFBFBFBF",
"n. c #FFC0C0C0",
"m. c #FFC1C1C1",
"M. c #FFC2C2C2",
"N. c #FFC3C3C3",
"B. c #FFC5C5C5",
"V. c #FFC6C6C6",
"C. c #FFC7C7C7",
"Z. c #FFC8C8C8",
"A. c #FFC9C9C9",
"S. c #FFCACACA",
"D. c #FFCCCCCC",
"F. c #FFCDCDCD",
"G. c #FFCECECE",
"H. c #FFD0D0D0",
"J. c #FFD1D1D1",
"K. c #FFD2D2D2",
"L. c #FFD3D3D3",
"P. c #FFD4D4D4",
"I. c #FFD6D6D6",
"U. c #FFD7D7D7",
"Y. c #FFD9D9D9",
"T. c #FFDADADA",
"R. c #FFDBDBDB",
"E. c #FFDCDCDC",
"W. c #FFDDDDDD",
"Q. c #FFDEDEDE",
"!. c #FFDFDFDF",
"~. c #FFE0E0E0",
"^. c #FFE1E1E1",
"/. c #FFE2E2E2",
"(. c #FFE3E3E3",
"). c #FFE4E4E4",
"_. c #FFE6E6E6",
"`. c #FFE6E6E6",
"'. c #FFE7E7E7",
"]. c #FFE8E8E8",
"[. c #FFE9E9E9",
"{. c #FFEAEAEA",
"}. c #FFEBEBEB",
"|. c #FFECECEC",
" X c #FFEDEDED",
".X c #FFEEEEEE",
"XX c #FFEFEFEF",
"oX c #FFF0F0F0",
"OX c #FFF1F1F1",
"+X c #FFF2F2F2",
"@X c #FFF3F3F3",
"#X c #FFF4F4F4",
"$X c #FFF5F5F5",
"%X c #FFF6F6F6",
"&X c #FFF7F7F7",
"*X c #FFF8F8F8",
"=X c #FFF9F9F9",
"-X c #FFFAFAFA",
";X c #FFFBFBFB",
":X c #FFFCFCFC",
">X c #FFFDFDFD",
",X c #FFFEFEFE",
"<X c #FFFFFFF1",
/* pixels */
"                                                                                                                                                                                                                                                                ",
"                                                                                                                                                                                                                                                                ",
"                                                                                                                                                                                                                                                                ",
"                                                                                                                                                                                                                                                                ",
"                                                                                                                                                                                                                                                                ",
"                                                                                                                                                                                                                                                                ",
"                                                                                                                                                                                                                                                                ",
"                                                                                                                                                                                                                                                                ",
"                                                                                                                                                                                                                                                                ",
"                                                                                                                                                                                                                                                                ",
"                                                                                                                                                                                                                                                                ",
"                                                                                                                                                                                                                                                                ",
"                                                                                                                                                                                                                                                                ",
"                                                                                                                                                                                                                                                                ",
"                                                                                                                                                                                                                                                                ",
"                                                                                                                                                                                                                                                                ",
"                                                                                                                                                                                                                                  E E L L E                     ",
"                                                                                                                                                                                        E E           M h s e e             s 2 = @ @ @ @ @ = s                 ",
"                                                                                                                                            D M s   M h h s                       = @ @ @ @ =       @ @ @ @ @ @           = @ @ @ @ @ @ @ @ @ @ 2               ",
"                                                                                                                                          @ @ @ @ @ @ @ @ @                       @ @ @ @ @ @ e   2 @ @ @ @ @ @         @ @ @ o @ @ @ @ @ @ @ @ @ h             ",
"                                          D M s e     L s 2 2 2 = = = 2 e                                                                 @ @ @ @ @ @ @ @ @     M s 2 e 2 2 e D   @ @ @ @ @ @ @ s @ @ 2 e e s s         @ @ s ^ X.3.6.6.3.{ D = @ e             ",
"                              h s e 2 =   @ @ @ @ = 2 @ @ @ @ @ @ @ @ @ @ @             E         h s     L h s 2 2 2 e h     M 2 = = 2 s = @ = = = = 2 e e h 2 @ @ @ @ @ @ @ @ e ^ =.3.6.6.3.e @ @ =.U.U.(.(.R.        e 3.(.,X,X,X,X,X,X,X#X6.2               ",
"                              2 @ @ @ @ = @ @ @ @ @ @ @ @ @ @ @ o o o o o o @       s = @ = e = @ @ @ 2 e @ @ @ @ @ @ @ @ =   @ @ @ @ @ @ @ X.B.B.F.;.U.R.{.g.@ @ @ @ o o o o @ @ 6.,X,X,X,X,X=.o M {.,X,X,X,X#X        B.,X,X,X#X(.R.{.,X,X,X,XX.              ",
"          L h e 2 = = e e   s @ @ @ @ @ @ @ @ @ 2 2 e e @ @ e D ^ _ { { X._ D       @ @ @ @ @ @ @ @ @ @ @ @ @ @ @ @ @ @ o @ @ @ @ @ @ @ o @ g.,X,X,Xx.#X,X,XF.@ @ e M E ^ ^ L e @ 3.,X,X,X,X,X(.D u.,X,X,X,X,X#X        #X,X,X#X=.s 2 M F.,X,X,XF.              ",
"        s @ @ @ @ @ @ @ @ = = @ @ @ e D L L e D U.R.R.6.e ;.R.#X,X,X,X,X,X,X{.R.  @ @ @ @ @ @ @ @ @ = = = @ @ 2 h D E ^ E h = @ = L =.3.X.M g.,X,X#Xg.#X,X,XB.e ;.R.#X#X,X,X#XR.{ =.,X,X,X,X#X,XR.{.,X,X,X,X,X#X        ,X,X,X(.e o o @ 6.,X,X,X#X              ",
"      M @ @ @ @ @ @ o o o o o @ @ @ ;.,X#X,X_ L {.(.{.u.;.,X#X#X#Xx.3.R.,X,X,X,X    @ @ L 6.x.3.E g.x.F.g.e { U.{.#X,X,X#X{.x.h { #X,X,X,X{.{.,X,X#Xg.#X,X,XF.u.,X,X,XB.u.{.,X,X(.u.#X,X,X#X#X,X,X,X,X#X#X,X,X#X        ,X,X,X#X3.M M { {.,X,X,X#X              ",
"        @ @ @ @ = h E _ { _ ^ h @ E F.,X,X,XF.u.R.R.(.u.E ;.x.(.R.x.g.{.,X,X,X,X    o M {.,X,X,X#X,X,X,XR.3.,X,X,XR.3.U.,X,X,XB.U.,X,X,X#XB.{.,X,X#Xg.#X,X,X(.(.#X#X#XR.U.#X,X,X#XB.,X,X,X{.{.,X,X,X,X  #X,X,X,X        #X,X,X,X,X#X#X,X,X,X,X#X                ",
"        @ @ @ s u.{.#X#X#X,X,X{.=.g.,X,X,X,X,X#X,X,X,Xx._ R.#X,X,X,X,X,X#X#XR.6.      =.,X,X,XF.6.#X,X,X(.R.,X,X,X( o ^ ,X,X,X{.{.,X,X#X    x.,X,X#Xg.#X,X,X#X(.U.R.(.=.X.(.,X,X#X(.,X,X,X{.  #X,X,X#X  #X,X,X#X          #X,X,X,X,X,X,X,X#X#X                  ",
"        @ @ = g.,X,X#Xx.u.{.,X,X{.6.U.,X,X,Xx.3.#X,X,XU.R.,X,X,X#XB.3.B.R.x.;.X.        #X#X,X=.h #X,X,X{.{.,X,X,X6.D u.,X,X,XU.(.,X,X#X    B.,X,X#XF.#X,X,X#X#X,X,X,X#X#X,X,X#X    ,X,X,X{.    ,X#X    #X,X,X,X                                                ",
"          o e U.#X#X(.U.U.#X,X,X#X^ u.,X,X,X_ L ,X,X,X(.{.,X,X,X#X;.{ R.#X#X#X,X                E {.,X,X#X  #X,X,X,X#X,X,X,X#X  {.,X,X#X    (.,X,X,X{.#X#X,X#X    #X#X,X#X#X                                                                                    ",
"            s B.(.{.R.=.=.{.,X,XR.x.#X,X,X,X;.^ #X,X,X#X#X#X,X,X,X,X,X,X,X,X#X                    #X#X#X#X    #X#X,X,X#X#X                                                                                                                                      ",
"              #X,X,X,X#X#X,X,X,X  x.,X,X#X#X    #X,X#X#X    #X#X,X,X,X#X#X                                                                                                                                                                                      ",
"                    #X#X#X                                                                                                                                                                                                                                      ",
"                                                                                                                                                                                                                                                                ",
"                                                                                                                                                                                                                                                                ",
"                                                                                                                                                                                                                                                                ",
"                                                                                                                                                                                                                                                                ",
"                                                                                                                                                                                                                                                                ",
"                                                                                                                                                                                                                                                                ",
"                                                                                                                                                                                                                                                                ",
"                                                                                                                                                                                                                                                                ",
"                                                                                                                                                                                                                                                                ",
"                                                                                                                                                                                                                                                                ",
"                                                                                                                                                                                                                                                                ",
"                                                                                                                                                                                                                                                                ",
"                                                                                                                                                                                                                                                                ",
"                                                                                                                                                                                                                                                                ",
"                                                                                                                                                                                                                                                                ",
"                                                                                                                                                                                                                                                                ",
"                                                                                                                                                                                                                                                                ",
"                                                                                                                                                                                                                                                                ",
"                                                                                                                                                                                                                                                                ",
"                                                                                                                                                                                                                                                                ",
"                                                                                                                                                                                                                                                                "
};
