/* XPM */
static char *oms_299[] = {
/* columns rows colors chars-per-pixel */
"128 54 185 2 ",
"   c #00000000",
".  c #FF0B0B0B",
"X  c #FF0D0D0D",
"o  c #FF0E0E0E",
"O  c #FF0F0F0F",
"+  c #FF101010",
"@  c #FF111111",
"#  c #FF121212",
"$  c #FF131313",
"%  c #FF141414",
"&  c #FF151515",
"*  c #FF161616",
"=  c #FF171717",
"-  c #FF181818",
";  c #FF191919",
":  c #FF1B1B1B",
">  c #FF1C1C1C",
",  c #FF1D1D1D",
"<  c #FF1E1E1E",
"1  c #FF1F1F1F",
"2  c #FF212121",
"3  c #FF222222",
"4  c #FF232323",
"5  c #FF252525",
"6  c #FF282828",
"7  c #FF292929",
"8  c #FF2B2B2B",
"9  c #FF2C2C2C",
"0  c #FF2D2D2D",
"q  c #FF2E2E2E",
"w  c #FF2F2F2F",
"e  c #FF303030",
"r  c #FF313131",
"t  c #FF323232",
"y  c #FF333333",
"u  c #FF353535",
"i  c #FF363636",
"p  c #FF373737",
"a  c #FF383838",
"s  c #FF393939",
"d  c #FF3A3A3A",
"f  c #FF3B3B3B",
"g  c #FF3E3E3E",
"h  c #FF3F3F3F",
"j  c #FF404040",
"k  c #FF414141",
"l  c #FF424242",
"z  c #FF434343",
"x  c #FF454545",
"c  c #FF464646",
"v  c #FF474747",
"b  c #FF484848",
"n  c #FF4A4A4A",
"m  c #FF4B4B4B",
"M  c #FF4C4C4C",
"N  c #FF4E4E4E",
"B  c #FF4F4F4F",
"V  c #FF515151",
"C  c #FF525252",
"Z  c #FF545454",
"A  c #FF565656",
"S  c #FF575757",
"D  c #FF585858",
"F  c #FF5A5A5A",
"G  c #FF5C5C5C",
"H  c #FF5E5E5E",
"J  c #FF606060",
"K  c #FF656565",
"L  c #FF666666",
"P  c #FF676767",
"I  c #FF696969",
"U  c #FF6A6A6A",
"Y  c #FF6B6B6B",
"T  c #FF6C6C6C",
"R  c #FF6E6E6E",
"E  c #FF727272",
"W  c #FF757575",
"Q  c #FF767676",
"!  c #FF787878",
"~  c #FF797979",
"^  c #FF7A7A7A",
"/  c #FF7B7B7B",
"(  c #FF7E7E7E",
")  c #FF808080",
"_  c #FF808080",
"`  c #FF818181",
"'  c #FF828282",
"]  c #FF838383",
"[  c #FF888888",
"{  c #FF8C8C8C",
"}  c #FF8F8F8F",
"|  c #FF909090",
" . c #FF919191",
".. c #FF939393",
"X. c #FF949494",
"o. c #FF959595",
"O. c #FF969696",
"+. c #FF979797",
"@. c #FF999999",
"#. c #FF9A9A9A",
"$. c #FF9D9D9D",
"%. c #FF9E9E9E",
"&. c #FFA2A2A2",
"*. c #FFA4A4A4",
"=. c #FFA5A5A5",
"-. c #FFA7A7A7",
";. c #FFA8A8A8",
":. c #FFA9A9A9",
">. c #FFAAAAAA",
",. c #FFACACAC",
"<. c #FFAEAEAE",
"1. c #FFB0B0B0",
"2. c #FFB1B1B1",
"3. c #FFB2B2B2",
"4. c #FFB4B4B4",
"5. c #FFB5B5B5",
"6. c #FFB6B6B6",
"7. c #FFB8B8B8",
"8. c #FFB9B9B9",
"9. c #FFBABABA",
"0. c #FFBBBBBB",
"q. c #FFBCBCBC",
"w. c #FFBDBDBD",
"e. c #FF808080",
"r. c #FFBFBFBF",
"t. c #FFC0C0C0",
"y. c #FFC1C1C1",
"u. c #FFC2C2C2",
"i. c #FFC3C3C3",
"p. c #FFC5C5C5",
"a. c #FFC6C6C6",
"s. c #FFC7C7C7",
"d. c #FFC8C8C8",
"f. c #FFCACACA",
"g. c #FFCCCCCC",
"h. c #FFCDCDCD",
"j. c #FFCECECE",
"k. c #FFCFCFCF",
"l. c #FFD0D0D0",
"z. c #FFD1D1D1",
"x. c #FFD2D2D2",
"c. c #FFD3D3D3",
"v. c #FFD4D4D4",
"b. c #FFD5D5D5",
"n. c #FFD6D6D6",
"m. c #FFD7D7D7",
"M. c #FFD8D8D8",
"N. c #FFD9D9D9",
"B. c #FFDADADA",
"V. c #FFDBDBDB",
"C. c #FFDCDCDC",
"Z. c #FFDDDDDD",
"A. c #FFDEDEDE",
"S. c #FFDFDFDF",
"D. c #FFE0E0E0",
"F. c #FFE1E1E1",
"G. c #FFE2E2E2",
"H. c #FFE3E3E3",
"J. c #FFE4E4E4",
"K. c #FFE6E6E6",
"L. c #FFE6E6E6",
"P. c #FFE7E7E7",
"I. c #FFE8E8E8",
"U. c #FFE9E9E9",
"Y. c #FFEAEAEA",
"T. c #FFEBEBEB",
"R. c #FFECECEC",
"E. c #FFEDEDED",
"W. c #FFEEEEEE",
"Q. c #FFEFEFEF",
"!. c #FFF1F1F1",
"~. c #FFF2F2F2",
"^. c #FFF3F3F3",
"/. c #FFF4F4F4",
"(. c #FFF5F5F5",
"). c #FFF6F6F6",
"_. c #FFF7F7F7",
"`. c #FFF8F8F8",
"'. c #FFF9F9F9",
"]. c #FFFAFAFA",
"[. c #FFFBFBFB",
"{. c #FFFCFCFC",
"}. c #FFFDFDFD",
"|. c #FFFEFEFE",
" X c #FFFFFFF1",
/* pixels */
"                                                                                                                                                                                                                                                                ",
"                                                                                                                                                                                                                                                                ",
"                                                                                                                                                                                                                                                                ",
"                                                                                                                                                                                                                                                                ",
"                                                                                                                                                                                                                                                                ",
"                                                                                                                                                                                                                                                                ",
"                                                                                                                                                                                                                                                                ",
"                                                                                                                                                                                                                                                                ",
"                                                                                                                                                                                                                                                                ",
"                                                                                                                                                                                                                                                                ",
"                                                                                                                                                                                                                                                                ",
"                                                                                                                                                                                                                                                                ",
"                                                                                                                                                                                                                                                                ",
"                                                                                                                                                                                                                                                                ",
"                                                                                                                                                                                                                                                                ",
"                                                                                                                                                                                                                                                                ",
"                                                                                                                                                                                                                                                                ",
"                                                        _._.9.j % % % O % % % % % : V                                                                                                                                                                           ",
"                                                      `.`.`.`.l.t % j V 7 % % % % % % 7 % % 2 j                                                                                                                                                                 ",
"                                                      `.`.F._.`.{ O ' `.A.d 7 V 7 % % % % % % : t % 2 m                                                                                                                                                         ",
"                                                      `.A.j ' `.9.% ~ `.`.I Q _.A.j % % % % O % % % % 7 >.                                                                                                                                                      ",
"                                                      `.l.: d R.l.: ~ `.`.$.>.`._.V O % % % D m 2 % % : 7 % % % % : t                                                                                                                                           ",
"                                                      `.R.m V _.l.2 ~ `.`.A.A.`._.V 7 t : : 9.R.a.>.7 % % % % % % % % % I                                                                                                                                       ",
"                                                      _.`.F.A.`.j.: ~ `._.`.`.`._. .A.R.>.d 9._.F.R.d O % % % % % % % % L                                                                                                                                       ",
"                                                        `.`.`.`.>.% ~ `.A._._.R._.l.`.A._.>.a._.F.R.j 2 % % % % % % % % 7 7 D                                                                                                                                   ",
"                                                          _.`.R.V O  .`.5.F.F.j._.F.`.l.R.F.A._.F.R.a.A.D % d t % % % % % % : 7 % : j                                                                                                                           ",
"                                                                      `. .j.9.5._.A._.a.l.F.F._.F.`.`.`.9.' R.F.$.7 7 : % % % % L &. .I : % O % % % % % % 7 D                                                                                                   ",
"                                                                          l.$.9._.5._.9.j.j.A._.F._. .R.F.A.`._.`.&.9.5.Q L % 2 l.`.`._. .j I 7 O % % % % % % % : ~                                                                                             ",
"                                                                                  { R.`.`.F.A._.F.F.m l._._.F.I F.F.F.`._.R.d 7 F.`.a.R._.&.`. .j t % % % % % % % : : L                                                                                         ",
"                                                                                        _.  A._.F.F.m l.R.R.F.j l._._._.F.`.I 2 A.`.5.a.l.>.A. .a.l.7 % % % % % % % % D                                                                                         ",
"                                                                                                  F.D A.A.9._.9.R._._.A. .`.~ % $.`.`._.9.~ F.a.F.R.j O % O % % % % % 2 j % t                                                                                   ",
"                                                                                                        l. .`.`.`.j.A.A.m Q m 2 ~ j.F._._.a._.R.`.`.{ ' >.I : % % % % % % % % t                                                                                 ",
"                                                                                                                _.  F.A.7 O % t R.R.~ j.`.F._.j.F.`.l._.`._. .% % % % % % % % % I                                                                               ",
"                                                                                                                                _.`.F.R.`.F.`.$.a.R.5.`.j.A.R.t % % % % % % % % V                                                                               ",
"                                                                                                                                  _.`.`._.9._.$.a.R.5.`.R.R._.V O % % % % % % % L                                                                               ",
"                                                                                                                                      _.    `.$.9.`.A._.5.&.j.j % % % % % % % % D                                                                               ",
"                                                                                                                                                  `.>.A._._.R.m % % % % % % % :                                                                                 ",
"                                                                                                                                                        _.`.l.t % %                                                                                             ",
"                                                                                                                                                                                                                                                                ",
"                                                                                                                                                                                                                                                                ",
"                                                                                                                                                                                                                                                                ",
"                                                                                                                                                                                                                                                                ",
"                                                                                                                                                                                                                                                                ",
"                                                                                                                                                                                                                                                                ",
"                                                                                                                                                                                                                                                                ",
"                                                                                                                                                                                                                                                                ",
"                                                                                                                                                                                                                                                                ",
"                                                                                                                                                                                                                                                                ",
"                                                                                                                                                                                                                                                                ",
"                                                                                                                                                                                                                                                                ",
"                                                                                                                                                                                                                                                                ",
"                                                                                                                                                                                                                                                                ",
"                                                                                                                                                                                                                                                                ",
"                                                                                                                                                                                                                                                                "
};
