/* XPM */
static char *oms_152[] = {
/* columns rows colors chars-per-pixel */
"128 54 200 2 ",
"   c #00000000",
".  c #FF0C0C0C",
"X  c #FF0D0D0D",
"o  c #FF0E0E0E",
"O  c #FF0F0F0F",
"+  c #FF101010",
"@  c #FF111111",
"#  c #FF121212",
"$  c #FF131313",
"%  c #FF141414",
"&  c #FF151515",
"*  c #FF161616",
"=  c #FF171717",
"-  c #FF181818",
";  c #FF191919",
":  c #FF1A1A1A",
">  c #FF1B1B1B",
",  c #FF1C1C1C",
"<  c #FF1D1D1D",
"1  c #FF1E1E1E",
"2  c #FF1F1F1F",
"3  c #FF202020",
"4  c #FF212121",
"5  c #FF222222",
"6  c #FF232323",
"7  c #FF242424",
"8  c #FF252525",
"9  c #FF262626",
"0  c #FF272727",
"q  c #FF282828",
"w  c #FF292929",
"e  c #FF2A2A2A",
"r  c #FF2C2C2C",
"t  c #FF2D2D2D",
"y  c #FF2E2E2E",
"u  c #FF2F2F2F",
"i  c #FF303030",
"p  c #FF313131",
"a  c #FF323232",
"s  c #FF333333",
"d  c #FF343434",
"f  c #FF353535",
"g  c #FF373737",
"h  c #FF383838",
"j  c #FF393939",
"k  c #FF3A3A3A",
"l  c #FF3B3B3B",
"z  c #FF3C3C3C",
"x  c #FF3D3D3D",
"c  c #FF3E3E3E",
"v  c #FF404040",
"b  c #FF414141",
"n  c #FF424242",
"m  c #FF434343",
"M  c #FF454545",
"N  c #FF464646",
"B  c #FF474747",
"V  c #FF484848",
"C  c #FF4A4A4A",
"Z  c #FF4B4B4B",
"A  c #FF4C4C4C",
"S  c #FF4E4E4E",
"D  c #FF4F4F4F",
"F  c #FF505050",
"G  c #FF515151",
"H  c #FF525252",
"J  c #FF535353",
"K  c #FF545454",
"L  c #FF555555",
"P  c #FF565656",
"I  c #FF575757",
"U  c #FF5A5A5A",
"Y  c #FF5C5C5C",
"T  c #FF5D5D5D",
"R  c #FF5E5E5E",
"E  c #FF616161",
"W  c #FF626262",
"Q  c #FF646464",
"!  c #FF656565",
"~  c #FF666666",
"^  c #FF686868",
"/  c #FF6B6B6B",
"(  c #FF6D6D6D",
")  c #FF6E6E6E",
"_  c #FF6F6F6F",
"`  c #FF707070",
"'  c #FF717171",
"]  c #FF727272",
"[  c #FF747474",
"{  c #FF777777",
"}  c #FF787878",
"|  c #FF797979",
" . c #FF7A7A7A",
".. c #FF7B7B7B",
"X. c #FF7C7C7C",
"o. c #FF7E7E7E",
"O. c #FF808080",
"+. c #FF808080",
"@. c #FF818181",
"#. c #FF828282",
"$. c #FF838383",
"%. c #FF858585",
"&. c #FF868686",
"*. c #FF898989",
"=. c #FF8D8D8D",
"-. c #FF8E8E8E",
";. c #FF8F8F8F",
":. c #FF909090",
">. c #FF919191",
",. c #FF929292",
"<. c #FF939393",
"1. c #FF949494",
"2. c #FF959595",
"3. c #FF969696",
"4. c #FF979797",
"5. c #FF989898",
"6. c #FF9A9A9A",
"7. c #FF9C9C9C",
"8. c #FF9D9D9D",
"9. c #FF9F9F9F",
"0. c #FFA0A0A0",
"q. c #FFA1A1A1",
"w. c #FFA3A3A3",
"e. c #FFA6A6A6",
"r. c #FFA7A7A7",
"t. c #FFAAAAAA",
"y. c #FFABABAB",
"u. c #FFACACAC",
"i. c #FFADADAD",
"p. c #FFAEAEAE",
"a. c #FFAFAFAF",
"s. c #FFB2B2B2",
"d. c #FFB5B5B5",
"f. c #FFB6B6B6",
"g. c #FFB7B7B7",
"h. c #FFB8B8B8",
"j. c #FFB9B9B9",
"k. c #FFBABABA",
"l. c #FFBCBCBC",
"z. c #FFBDBDBD",
"x. c #FF808080",
"c. c #FFBFBFBF",
"v. c #FFC0C0C0",
"b. c #FFC2C2C2",
"n. c #FFC3C3C3",
"m. c #FFC4C4C4",
"M. c #FFC7C7C7",
"N. c #FFC8C8C8",
"B. c #FFC9C9C9",
"V. c #FFCACACA",
"C. c #FFCBCBCB",
"Z. c #FFCDCDCD",
"A. c #FFD0D0D0",
"S. c #FFD1D1D1",
"D. c #FFD2D2D2",
"F. c #FFD3D3D3",
"G. c #FFD4D4D4",
"H. c #FFD5D5D5",
"J. c #FFD6D6D6",
"K. c #FFD7D7D7",
"L. c #FFD8D8D8",
"P. c #FFD9D9D9",
"I. c #FFDADADA",
"U. c #FFDBDBDB",
"Y. c #FFDCDCDC",
"T. c #FFDDDDDD",
"R. c #FFDEDEDE",
"E. c #FFDFDFDF",
"W. c #FFE0E0E0",
"Q. c #FFE1E1E1",
"!. c #FFE2E2E2",
"~. c #FFE3E3E3",
"^. c #FFE4E4E4",
"/. c #FFE6E6E6",
"(. c #FFE6E6E6",
"). c #FFE7E7E7",
"_. c #FFE8E8E8",
"`. c #FFE9E9E9",
"'. c #FFEAEAEA",
"]. c #FFEBEBEB",
"[. c #FFECECEC",
"{. c #FFEDEDED",
"}. c #FFEEEEEE",
"|. c #FFEFEFEF",
" X c #FFF0F0F0",
".X c #FFF1F1F1",
"XX c #FFF2F2F2",
"oX c #FFF3F3F3",
"OX c #FFF4F4F4",
"+X c #FFF5F5F5",
"@X c #FFF6F6F6",
"#X c #FFF7F7F7",
"$X c #FFF8F8F8",
"%X c #FFF9F9F9",
"&X c #FFFAFAFA",
"*X c #FFFBFBFB",
"=X c #FFFCFCFC",
"-X c #FFFDFDFD",
";X c #FFFEFEFE",
":X c #FFFFFFFF",
/* pixels */
"                                                                                                                                                                                                                                                                ",
"                                                                                                                                                                                                                                                                ",
"                                                                                                                                                                                                                                                                ",
"                                                                                                                                                                                                                                                                ",
"                                                                                                                                                                                                                                                                ",
"                                                                                                                                                                                                                                                                ",
"                                                                                                                                                                                                                                                                ",
"                                                                                                                                                                                                                                                                ",
"                                                                                                                                                                                                                                                                ",
"                                                                                                                                                                                                                                                                ",
"                                                                                                                                                                                                                                                                ",
"                                                                                                                                                                                                                                                                ",
"                                                                                                                                                                                                                                                                ",
"                                                          h G                                                                                                                                                                                                   ",
"                                      @ @ @ 1 3 q V     @ @ @ @ q 1 @ 1 q  .                                                                                                                                                                                    ",
"                                    o @ @ @ @ @ @ @ @ @ @ @ @ @ @ @ @ @ @ V 1 @ @ 1 3 q h G                                                                                                                                                                     ",
"                                  ~ G h 3 @ @ @ G 4.) V 1 G V s 1 @ @ @ o @ @ @ @ @ @ @ @ @ 3 G                                                                                                                                                                 ",
"                               X X X X[.V.$.q 1 4.%X%X(.h c. X[.4.1 b R G b q 1 @ @ @ @ @ @ @ 1 [                                                                                                                                                               ",
"                              %X%X%XV.c.%X%Xc. .[.%X%X X$.i.E.[.e.-. X%X X[.E.b.4.V @ @ @ @ @ @ G                                                                                                                                                               ",
"                              (.(.[.E.E. X%X Xb.[.%X%X%X(.K.[.(.6.e.E.[. X[.(.%X%X X4.1 @ @ @ @         @ 3 b                                                                                                                                                   ",
"                               X[.(.4.-. X%X%X6.-.%X%X Xb.K.%X%Xi.G i.K.(.e. .E.%X%X XR @ @ 3       @ @ @ @ @ 1 1 1 3 b                                                                                                                                         ",
"                                %X%X[.E. X%X%Xf.V.%X%X[.V b.%X%Xb.K.%X%X%X X X%X%X%X%X .o @ 3 R R 1 @ @ o @ @ @ @ @ @ 1 s @ 1 1 3 q b [             @ @ 3 q h V V                                                                                               ",
"                                   X X%X%X%X XE.%X%X%X[.b b.%X%XK.[.%X%X%X[.[. X X%X(.b @ @ G E.(.c.G ) G h 1 @ @ o o @ @ @ @ @ @ @ @ 1 V     1 1 @ @ @ @ @ @ @ @ 1 q                                                                                           ",
"                                                %X%X%X(.   X%X%Xb.K.%X%X%X4.G c.K.i.R 1 @ @ e.%X%X%X[. X X[.~ s [ $.[ G q @ @ @ @ @ @ @ @ ~ ) b q 1 @ @ @ @ @ @ @ @ 3                                                                                           ",
"                                                             X%Xf.6.%X%X%X[.K. X X[.E.[ @ @ E.%X%X(.c.%X%X%X4.K.%X%X%X X(.i.V @ @ q q 1 o 4.%X Xb.6.i.$.G @ @ @ @ @ 3                 @ @ 1 3 s h [                                                             ",
"                                                                       X X%X%X%X%X%X X$.         XK.   X%X XV. X%X%Xb.f. X%X(.G [ E.E.f.G 4.%X%XE.K.%X%Xc.1 @ @ @ @ 1 s @ @ @ 1 3 1 @ @ @ @ @ @ @ q     @ q b G                                                 ",
"                                                                                 X                    %X%X Xb. X%X XG 1 c.%X%XV.E.%X%X%X[.E.%X%XE.V.%X%Xc.1 @ @ @ @ @ @ @ 1 $. .G h 1 @ @ @ @ @ @ @ 1 @ @ @ @ @ @ b                                             ",
"                                                                                                      %X%X X4.E.%X%X6.b V.%X%X X X%X%X(.c. X%X%XE.V.%X%Xc.s $.e.6. .G 3 @ 3 E.%X X[.i.1 @ q V s 3 @ @ @ @ @ @ @ @ h           1 3 3 h b )                       ",
"                                                                                                           X-.  %X%X%X[.%X%X%XK.(.%X%X6.@ i.%X%XE.V.%X%XV.c.%X%X X X XK.) q K.%X%X%X XG o 4. X(.K.f.~ @ @ @ @ @ o q     @ @ @ @ @ @ @ @ 1 q ~                   ",
"                                                                                                                     X X%X%X X   X%X%X4.o 4.%X%XE.V.%X%XE.(.%X%XE.e.[.%X X$.K.%X%X%X%Xi.b (.%X%X%X%Xi.@ @ @ @ h ~ [ ~ b 3 @ @ @ @ @ @ @ @ @ @ G                 ",
"                                                                                                                                   X%X6.@ K.%X%XE.V.%X%XE.V.E.(.K.K.[.%X%XK.E.%X%X%X%X[.V.%X%X%X%X%Xi.@ @ @ $.[.%X%X X[.E.e.G @ @ @ @ @ @ @ @ @ [               ",
"                                                                                                                                             X%XE.K.%X%XV.b.%X Xb. .E.%X%XE.(.%X%X[. X%X%X%X%X%X%X%Xi.@ @ h [.%X%X%X%X%X%X%X X6.1 @ @ @ @ @ @ @ V               ",
"                                                                                                                                                        b.  %X%X%X X%X%X%Xf.E.%X%Xc.c.%X%X%XE.(.%X%Xi.@ o R %X%X%XK. .$.V.%X%X%X$.@ @ @ @ @ @ @ h               ",
"                                                                                                                                                                   X X X X   X%X%Xi.R  X%X X .K.%X%Xi.@ o R %X%X%X$.o o q K.%X%XK.3 @ @ @ @ @ @ b               ",
"                                                                                                                                                                                %Xc.  [.%Xb.h E.%X%Xi.@ @ h [.%X%Xc.3 o 1 c.%X%X[.s @ @ @ @ @ @ ~               ",
"                                                                                                                                                                                               X%X%Xi.@ @   (.%X%X%XV.4.i. X%X%X[.s @ @ @ @ @                   ",
"                                                                                                                                                                                                               X%X%X%X%X%X%X%X%Xb.1 @ @                         ",
"                                                                                                                                                                                                                   X X X%X%X%X X)                               ",
"                                                                                                                                                                                                                                                                ",
"                                                                                                                                                                                                                                                                ",
"                                                                                                                                                                                                                                                                ",
"                                                                                                                                                                                                                                                                ",
"                                                                                                                                                                                                                                                                ",
"                                                                                                                                                                                                                                                                ",
"                                                                                                                                                                                                                                                                ",
"                                                                                                                                                                                                                                                                ",
"                                                                                                                                                                                                                                                                ",
"                                                                                                                                                                                                                                                                ",
"                                                                                                                                                                                                                                                                ",
"                                                                                                                                                                                                                                                                ",
"                                                                                                                                                                                                                                                                ",
"                                                                                                                                                                                                                                                                ",
"                                                                                                                                                                                                                                                                ",
"                                                                                                                                                                                                                                                                "
};
