/* XPM */
static char *oms_123[] = {
/* columns rows colors chars-per-pixel */
"128 54 185 2 ",
"   c #00000000",
".  c #FF090909",
"X  c #FF0D0D0D",
"o  c #FF0E0E0E",
"O  c #FF0F0F0F",
"+  c #FF101010",
"@  c #FF111111",
"#  c #FF121212",
"$  c #FF131313",
"%  c #FF141414",
"&  c #FF151515",
"*  c #FF161616",
"=  c #FF171717",
"-  c #FF181818",
";  c #FF191919",
":  c #FF1A1A1A",
">  c #FF1B1B1B",
",  c #FF1C1C1C",
"<  c #FF1D1D1D",
"1  c #FF1E1E1E",
"2  c #FF1F1F1F",
"3  c #FF202020",
"4  c #FF212121",
"5  c #FF262626",
"6  c #FF282828",
"7  c #FF292929",
"8  c #FF2A2A2A",
"9  c #FF2B2B2B",
"0  c #FF2C2C2C",
"q  c #FF2D2D2D",
"w  c #FF2E2E2E",
"e  c #FF2F2F2F",
"r  c #FF313131",
"t  c #FF323232",
"y  c #FF343434",
"u  c #FF353535",
"i  c #FF363636",
"p  c #FF373737",
"a  c #FF383838",
"s  c #FF3C3C3C",
"d  c #FF3D3D3D",
"f  c #FF3E3E3E",
"g  c #FF3F3F3F",
"h  c #FF424242",
"j  c #FF444444",
"k  c #FF454545",
"l  c #FF464646",
"z  c #FF474747",
"x  c #FF4A4A4A",
"c  c #FF4B4B4B",
"v  c #FF4C4C4C",
"b  c #FF4E4E4E",
"n  c #FF4F4F4F",
"m  c #FF505050",
"M  c #FF515151",
"N  c #FF535353",
"B  c #FF565656",
"V  c #FF575757",
"C  c #FF585858",
"Z  c #FF595959",
"A  c #FF5A5A5A",
"S  c #FF5C5C5C",
"D  c #FF606060",
"F  c #FF616161",
"G  c #FF626262",
"H  c #FF636363",
"J  c #FF646464",
"K  c #FF656565",
"L  c #FF676767",
"P  c #FF696969",
"I  c #FF6E6E6E",
"U  c #FF6F6F6F",
"Y  c #FF707070",
"T  c #FF747474",
"R  c #FF757575",
"E  c #FF767676",
"W  c #FF787878",
"Q  c #FF797979",
"!  c #FF7A7A7A",
"~  c #FF7B7B7B",
"^  c #FF808080",
"/  c #FF808080",
"(  c #FF828282",
")  c #FF858585",
"_  c #FF878787",
"`  c #FF888888",
"'  c #FF898989",
"]  c #FF8B8B8B",
"[  c #FF8C8C8C",
"{  c #FF8D8D8D",
"}  c #FF8E8E8E",
"|  c #FF8F8F8F",
" . c #FF909090",
".. c #FF919191",
"X. c #FF929292",
"o. c #FF939393",
"O. c #FF949494",
"+. c #FF959595",
"@. c #FF969696",
"#. c #FF9F9F9F",
"$. c #FFA1A1A1",
"%. c #FFA2A2A2",
"&. c #FFA4A4A4",
"*. c #FFA6A6A6",
"=. c #FFA8A8A8",
"-. c #FFA9A9A9",
";. c #FFAAAAAA",
":. c #FFABABAB",
">. c #FFACACAC",
",. c #FFADADAD",
"<. c #FFAEAEAE",
"1. c #FFAFAFAF",
"2. c #FFB0B0B0",
"3. c #FFB1B1B1",
"4. c #FFB2B2B2",
"5. c #FFB2B2B2",
"6. c #FFB5B5B5",
"7. c #FFB6B6B6",
"8. c #FFB7B7B7",
"9. c #FFB8B8B8",
"0. c #FFB9B9B9",
"q. c #FFBABABA",
"w. c #FFBBBBBB",
"e. c #FFBCBCBC",
"r. c #FFBFBFBF",
"t. c #FFC0C0C0",
"y. c #FFC1C1C1",
"u. c #FFC3C3C3",
"i. c #FFC4C4C4",
"p. c #FFC5C5C5",
"a. c #FFC6C6C6",
"s. c #FFC7C7C7",
"d. c #FFC8C8C8",
"f. c #FFC9C9C9",
"g. c #FFCACACA",
"h. c #FFCBCBCB",
"j. c #FFCCCCCC",
"k. c #FFCDCDCD",
"l. c #FFCECECE",
"z. c #FFCFCFCF",
"x. c #FFD0D0D0",
"c. c #FFD1D1D1",
"v. c #FFD2D2D2",
"b. c #FFD3D3D3",
"n. c #FFD5D5D5",
"m. c #FFD7D7D7",
"M. c #FFD8D8D8",
"N. c #FFD9D9D9",
"B. c #FFDADADA",
"V. c #FFDBDBDB",
"C. c #FFDCDCDC",
"Z. c #FFDDDDDD",
"A. c #FFDEDEDE",
"S. c #FFDFDFDF",
"D. c #FFE0E0E0",
"F. c #FFE1E1E1",
"G. c #FFE2E2E2",
"H. c #FFE3E3E3",
"J. c #FFE4E4E4",
"K. c #FFE6E6E6",
"L. c #FFE6E6E6",
"P. c #FFE7E7E7",
"I. c #FFE8E8E8",
"U. c #FFE9E9E9",
"Y. c #FFEAEAEA",
"T. c #FFEBEBEB",
"R. c #FFECECEC",
"E. c #FFEDEDED",
"W. c #FFEEEEEE",
"Q. c #FFF0F0F0",
"!. c #FFF1F1F1",
"~. c #FFF2F2F2",
"^. c #FFF3F3F3",
"/. c #FFF4F4F4",
"(. c #FFF5F5F5",
"). c #FFF6F6F6",
"_. c #FFF7F7F7",
"`. c #FFF8F8F8",
"'. c #FFF9F9F9",
"]. c #FFFAFAFA",
"[. c #FFFBFBFB",
"{. c #FFFCFCFC",
"}. c #FFFDFDFD",
"|. c #FFFEFEFE",
" X c #FFFFFFFF",
/* pixels */
"                                                                                                                                                                                                                                                                ",
"                                                                                                                                                                                                                                                                ",
"                                                                                                                                                                                                                                                                ",
"                                                                                                                                                                                                                                                                ",
"                                                                                                                                                                                                                                                                ",
"                                                                                                                                                                                                                                                                ",
"                                                                                                                                                                                                                                                                ",
"                                                                                                                                                                                                                                                                ",
"                                                                                                                                                                                                                                                                ",
"                                                                                                                                                                                                                                                                ",
"                                                                                                                                                                                                                                                                ",
"                                                                                                                                                                                                                                                                ",
"                                                                                        @ - m       x                                                                                                                                                           ",
"                                                                            O @ - 3 @ @ @ @ @ @ @ @ @ - - r T                                                                                                                                                   ",
"                                                                      '.).V.Q - x s.U x m - @ @ @ @ @ @ @ @ w x - A                                                                                                                                             ",
"                                                                      '.).V.)._ | '.s.O.).Q 3 w - @ @ @ @ @ @ @ @ @ w F                                                                                                                                         ",
"                                                                      ).Y.n.).D.D.'.D.:.D.$.0.D.7.F - @ @ @ @ @ @ @ @ @ A                                                                                                                                       ",
"                                                                      ).V.:.Y.).k.).'.D.D.7.D.'.'.'.7.w @ @ @ @ @ @ @ @ 3 $.                                                                                                                                    ",
"                                                                      '.).k.Y.Y.O.).D.k.'.$._ V.:.n.'.| @ @ @ @ @ @ @ @ @ |                                                                                                                                     ",
"                                                                        ).'.'.Y.V.'.s.O.'.n.Y.).n.D.'.s.- @ @ @ @ @ @ @ @ T                                                                                                                                     ",
"                                                                                Y.'.s.O.'.).'.'.'.'.'.k.- @ w - @ @ @ @ @ - @ @ - m                                                                                                                             ",
"                                                                                  '.0.:.'.D.).).0.k.Y.| @ z V.O.g - @ @ @ @ @ @ @ @ @ r                                                                                                                         ",
"                                                                                        '.7.D.'.:.7.s.m @ T '.).D.s.g - - @ @ @ @ @ @ @ - @ 3 m                                                                                                                 ",
"                                                                                              ).'.'.'.k.- Q '.D.Y.'.| 7.0.T 3 @ @ @ @ w @ @ @ @ w - @ @ @ - r F                                                                                                 ",
"                                                                                                ).).'.7.@ g V.7.n.).n.'.'.'.7.3 @ @ - 7.$.x 3 @ @ @ @ @ @ @ @ @ 3 T                                                                                             ",
"                                                                                                                '.).V.'.s.7.'.| | 7.x k.).s.k.m @ @ @ @ @ @ @ @ O A                                                                                             ",
"                                                                                                                '.).n.'.O.x '.V.D.'.n.V.).k.'._ @ @ @ @ @ @ @ @ @ A                                                                                             ",
"                                                                                                                  ).$.).k.O.'.Y.Y.'.Y.'.Y.k.'._ O @ @ @ - r @ @ @ w w @ @ @ @ @ w A                                                                             ",
"                                                                                                                      ).'.'.'.V.D.Y.U V.).k.'.O._ O.x @ r n.:.x @ @ @ @ @ @ @ @ @ @ U                                                                           ",
"                                                                                                                          ).'.0.D.D.z k.).k.'.k.).'.).O.g D.'.s.- z g @ @ @ @ @ @ @ @ @ - w A                                                                   ",
"                                                                                                                                '.D.z k.).k.'.D.).D.k.).| D.'.D.g 0.Y.:.g @ @ @ @ @ @ @ @ @ w 0.                                                                ",
"                                                                                                                                      Y.Y.k.'.V.V.V.D.'.k.D.'.).| D.'.'.F @ @ - - @ @ @ @ @ - m   @ @ g U                                                       ",
"                                                                                                                                          V.'.s.Y.s.:.'.D.Y.'.).Y.).'.'.F O g 7.0.Q w @ @ @ @ @ @ @ @ @ - z :.                                                  ",
"                                                                                                                                                Y.).).'.V.Y.Y.D.'.'.'.'.F @ $.'.'.'.n.x @ @ @ @ @ @ @ @ @ @ z                                                   ",
"                                                                                                                                                    ).'.:.D.D.7.'.Y.D.'.F - s.'.).).'.n.w @ @ @ @ @ @ @ @ @ @ _                                                 ",
"                                                                                                                                                          ).D.Q ).s.k.'.F - k.'.O.A V.'.Q @ @ @ @ @ @ @ @ @ O A                                                 ",
"                                                                                                                                                                ).| s.'.F - s.'.F O _ '.:.@ @ @ @ @ @ @ @ @ @ z                                                 ",
"                                                                                                                                                                    D.'.F @ $.'.:.- _ '.s.- @ @ @ @ @ @ @ @ @ g                                                 ",
"                                                                                                                                                                              '.).s.D.'.s.- @ @ @ @ @ @ @ @ @ x                                                 ",
"                                                                                                                                                                              ).'.'.'.'.:.@ @ @ @ @ @ @ @ @ @ T                                                 ",
"                                                                                                                                                                                  ).'.).F @ @ @ @ @ @ @ @ @ r                                                   ",
"                                                                                                                                                                                                                                                                ",
"                                                                                                                                                                                                                                                                ",
"                                                                                                                                                                                                                                                                ",
"                                                                                                                                                                                                                                                                ",
"                                                                                                                                                                                                                                                                ",
"                                                                                                                                                                                                                                                                ",
"                                                                                                                                                                                                                                                                ",
"                                                                                                                                                                                                                                                                ",
"                                                                                                                                                                                                                                                                ",
"                                                                                                                                                                                                                                                                ",
"                                                                                                                                                                                                                                                                ",
"                                                                                                                                                                                                                                                                ",
"                                                                                                                                                                                                                                                                "
};
