/* XPM */
static char *parte_28[] = {
/* columns rows colors chars-per-pixel */
"104 30 41 1 ",
"  c #00000000",
". c #FF000000",
"X c #FF202020",
"o c #FF2C2C2C",
"O c #FF383838",
"+ c #FF585400",
"@ c #FF706C00",
"# c #FF004040",
"$ c #FF005858",
"% c #FF006C6C",
"& c #FF007474",
"* c #FF007878",
"= c #FF007C7C",
"- c #FF404040",
"; c #FF484848",
": c #FF4C4C4C",
"> c #FF545454",
", c #FF5C5C5C",
"< c #FF646464",
"1 c #FF707070",
"2 c #FF848400",
"3 c #FF9C9C00",
"4 c #FFB4AC00",
"5 c #FFCCC400",
"6 c #FFE4D800",
"7 c #FFFCFC54",
"8 c #FF008484",
"9 c #FF008C8C",
"0 c #FF009898",
"q c #FF00A4A4",
"w c #FF20B0B0",
"e c #FF20B4B4",
"r c #FF48C0C0",
"t c #FF74C8C8",
"y c #FF989898",
"u c #FFA8A8A8",
"i c #FFB4B4B4",
"p c #FF9CDCDC",
"a c #FFB8E8E8",
"s c #FFC0C0C0",
"d c #FFECECEC",
/* pixels */
"                                                                  557777777777777766553333              ",
"                                                                  557777777777777766553333              ",
"                                                                55444444444444444422++++@@22            ",
"                                                                55444444444444444422++++@@22            ",
"                                                  pprrwwqqqqqq%%++++++++++++++++++++oo..++@@            ",
"                                                  pprrwwqqqqqq%%++++++++++++++++++++oo..++@@            ",
"          iiii                          ttttttttuupppppppppppp%%;;;;OOOOOOooooooooooooppppppppttqq9988  ",
"          iiii                          ttttttttuupppppppppppp%%;;;;OOOOOOooooooooooooppppppppttqq9988  ",
"  ddppppppyyyyttaaaaaaaaaaaaaaaaaaaaaaaaaaaaaaaa&&eeeeeeeeeeee0088**&&&&&&&&&&**8800eettttttttqq998888%%",
"  ddppppppyyyyttaaaaaaaaaaaaaaaaaaaaaaaaaaaaaaaa&&eeeeeeeeeeee0088**&&&&&&&&&&**8800eettttttttqq998888%%",
"  %%%%####1111..8888888888888888888888$$00eeee00$$8888888888****&&%%%%%%%%%%%%%%%%&&**88888888&&&&%%$$$$",
"  %%%%####1111..8888888888888888888888$$00eeee00$$8888888888****&&%%%%%%%%%%%%%%%%&&**88888888&&&&%%$$$$",
"qqssrrrrrr<<<<&&qqqqqqqqqqqqqqqqqqqqqqqq&&&&&&&&OO$$$$$$$$$$$$$$$$$$$$$$$$$$$$$$$$$$$$$$$$$$$$$$$$$$$$##",
"qqssrrrrrr<<<<&&qqqqqqqqqqqqqqqqqqqqqqqq&&&&&&&&OO$$$$$$$$$$$$$$$$$$$$$$$$$$$$$$$$$$$$$$$$$$$$$$$$$$$$##",
"  $$######;;;;..######################..########oo######################################################",
"  $$######;;;;..######################..########oo######################################################",
"  OO......OOOO..........................XXXXXXXX..XXXXXXXXXXXXXXXXXXXXXXXXXXXXXXXXXXXXXXXXXXXXXXXXXXXX  ",
"  OO......OOOO..........................XXXXXXXX..XXXXXXXXXXXXXXXXXXXXXXXXXXXXXXXXXXXXXXXXXXXXXXXXXXXX  ",
"          ....                              XXOOOOOOOOOOXXXX............XX..  ....$$..........OO....    ",
"          ....                              XXOOOOOOOOOOXXXX............XX..  ....$$..........OO....    ",
"                                              oo;;;;;;;;XX                XX........................OO  ",
"                                              oo;;;;;;;;XX                XX........................OO  ",
"                                            OO;;;;;;;;;;XX                              OO............OO",
"                                            OO;;;;;;;;;;XX                              OO............OO",
"                                              OO;;;;;;;;OO                                OO....OO....OO",
"                                              OO;;;;;;;;OO                                OO....OO....OO",
"                                            OO;;;;;;;;;;;;OO                              OO..........OO",
"                                            OO;;;;;;;;;;;;OO                              OO..........OO",
"                                            OOXXXXXXXXXXXXXX                                OOOOOOOOOO  ",
"                                            OOXXXXXXXXXXXXXX                                OOOOOOOOOO  "
};
