/* XPM */
static char *_08[] = {
/* columns rows colors chars-per-pixel */
"16 16 2 1 ",
"  c #00000000",
". c #FEFFFFFF",
/* pixels */
"                ",
"                ",
"                ",
"                ",
"      ...       ",
"       ..       ",
"       ..       ",
"       ..       ",
"       ..       ",
"       ..       ",
"      ....      ",
"                ",
"                ",
"                ",
"                ",
"                "
};
