/* XPM */
static char *_82[] = {
/* columns rows colors chars-per-pixel */
"16 16 2 1 ",
"  c #00000000",
". c #FEFFFFFF",
/* pixels */
"                ",
"                ",
"                ",
"                ",
"    .........   ",
"   ... .. ...   ",
"   ... .. ...   ",
"    ..... ...   ",
"       .. ...   ",
"       .. ...   ",
"       .. ...   ",
"                ",
"                ",
"                ",
"                ",
"                "
};
